<svg width="300" height="201" viewBox="0 0 300 201" fill="none" xmlns="http://www.w3.org/2000/svg">
<path d="M210.288 69.0178C212.139 69.2321 212.876 70.2864 212.859 71.4864C212.842 72.6864 212.054 74.0406 210.982 74.8035C211.856 74.8892 212.782 74.6321 213.691 74.1864C214.145 73.9635 214.599 73.6978 215.036 73.3978C215.259 73.2435 215.474 73.0978 215.688 72.9264C215.894 72.7464 216.099 72.5664 216.305 72.3864C217.908 70.9035 219.271 69.3264 220.102 68.5549C220.205 68.4692 220.608 68.3406 221.259 68.1692C221.585 68.0835 221.979 67.9806 222.425 67.8606C222.648 67.8006 222.888 67.7406 223.145 67.6721C223.402 67.6035 223.651 67.5092 223.925 67.4235C225.005 67.0549 226.316 66.6264 227.748 66.0435C228.451 65.7264 229.188 65.3835 229.968 65.0064C230.354 64.8178 230.748 64.6206 231.151 64.4235C231.554 64.2178 231.931 63.9692 232.334 63.7378C233.131 63.2578 233.954 62.7435 234.794 62.1949C235.599 61.6035 236.405 60.9692 237.228 60.3092C237.434 60.1464 237.639 59.9749 237.845 59.8035C238.051 59.6321 238.239 59.4435 238.436 59.2549C238.831 58.8864 239.216 58.5006 239.611 58.1149C239.996 57.7206 240.399 57.3349 240.768 56.9149C241.128 56.4864 241.488 56.0578 241.848 55.6121C244.694 52.0978 246.905 47.7178 247.702 43.1321C247.771 42.7292 247.856 42.3006 247.891 41.8464C247.934 41.3921 247.959 40.9206 247.976 40.4406C247.994 39.9606 248.011 39.4806 247.994 39.0006C247.959 38.5121 247.916 38.0321 247.856 37.5692C247.796 37.1064 247.711 36.6606 247.616 36.2406C247.496 35.8206 247.359 35.4178 247.205 35.0664C246.888 34.3464 246.494 33.7892 246.014 33.4378C245.499 33.0692 244.951 33.7206 244.428 34.7492C244.179 35.2635 243.871 35.8635 243.579 36.4892C243.442 36.7978 243.296 37.1149 243.159 37.4321C243.014 37.7406 242.851 38.0492 242.705 38.3406C242.602 38.5378 242.388 38.9578 242.114 39.4978C241.848 40.0378 241.436 40.6635 241.068 41.3064C240.871 41.6235 240.699 41.9578 240.494 42.2578C240.288 42.5578 240.091 42.8492 239.911 43.1235C239.559 43.6635 239.259 44.1092 239.088 44.3664C238.694 44.9064 238.325 45.4378 237.974 45.9606C237.802 46.2264 237.631 46.4835 237.459 46.7492C237.279 46.9978 237.091 47.2549 236.911 47.4949C236.559 47.9921 236.216 48.4892 235.899 48.9864C235.565 49.4749 235.205 49.9292 234.879 50.4006C234.554 50.8721 234.236 51.3435 233.919 51.7978C233.585 52.2435 233.259 52.6892 232.942 53.1349C232.625 53.5806 232.325 54.0349 232.008 54.4635C231.682 54.8835 231.356 55.3035 231.039 55.7235C230.722 56.1521 230.414 56.5721 230.105 56.9921C229.788 57.4035 229.454 57.7892 229.128 58.1921C228.802 58.5949 228.476 58.9892 228.159 59.3749C227.996 59.5721 227.834 59.7692 227.679 59.9664C227.508 60.1549 227.336 60.3349 227.165 60.5149C226.479 61.2521 225.794 61.9806 225.091 62.6921C224.362 63.3692 223.599 64.0121 222.828 64.6464C221.808 65.5206 221.148 66.1121 220.514 66.6264C219.879 67.1321 219.245 67.5178 218.191 67.7749C217.248 67.9549 215.954 67.9635 213.922 68.1435C213.305 68.2121 212.808 68.2121 212.414 68.2635C212.019 68.3064 211.719 68.3578 211.462 68.4092C210.956 68.5121 210.639 68.6235 210.125 68.6835L210.271 69.0092L210.288 69.0178Z" fill="#CCEAE6"/>
<path d="M173.802 148.036C175.653 148.036 176.759 149.056 177.144 150.376C177.342 151.036 177.359 151.765 177.222 152.459C177.084 153.145 176.767 153.788 176.347 154.285C178.199 154.242 179.742 152.622 180.856 150.822C181.987 149.031 182.733 147.042 183.384 146.168C183.539 145.953 184.876 145.465 186.924 144.565C188.973 143.665 191.733 142.336 194.716 140.493C196.207 139.568 197.75 138.522 199.284 137.331C199.67 137.031 200.047 136.722 200.433 136.405C200.622 136.242 200.81 136.088 201.007 135.925C201.204 135.745 201.402 135.573 201.599 135.393C202.396 134.673 203.142 133.911 203.87 133.113C205.31 131.519 206.57 129.788 207.65 128.065C208.73 126.333 209.622 124.611 210.453 122.871C211.027 121.628 211.722 120.033 212.373 118.439C212.519 118.028 212.69 117.642 212.819 117.239C212.956 116.845 213.067 116.425 213.179 116.048C213.384 115.276 213.487 114.513 213.384 113.819C213.29 113.082 212.373 113.091 211.096 113.485C209.853 113.913 208.293 114.788 207.05 115.679C206.622 115.962 205.25 116.956 203.939 118.062C202.619 119.168 201.402 120.333 200.913 120.813C198.856 122.871 197.322 124.799 195.959 126.582C195.616 127.036 195.29 127.456 194.973 127.902C194.656 128.331 194.339 128.751 194.03 129.179C193.379 130.053 192.736 130.945 192.127 131.819C189.676 135.316 187.576 138.702 185.013 141.668C184.147 142.653 183.702 143.425 183.204 144.042C182.716 144.668 182.184 145.148 181.173 145.542C180.29 145.885 179.013 146.099 177.016 146.562C174.582 147.085 174.462 147.419 173.527 147.702L173.784 148.045L173.802 148.036Z" fill="#CCEAE6"/>
<path d="M168.351 113.992C171.179 114.935 172.474 117.121 172.551 119.435C172.594 120.592 172.337 121.775 171.848 122.821C171.351 123.849 170.631 124.732 169.799 125.315C172.619 126.164 175.679 124.355 178.114 122.006C180.582 119.666 182.425 116.795 183.728 115.689C184.037 115.406 186.282 115.226 189.797 114.566C193.311 113.915 198.094 112.706 203.314 110.581C208.517 108.455 214.122 105.421 219.214 101.486C224.322 97.5607 228.925 92.795 232.482 87.1979C233.734 85.2179 235.174 82.5436 236.151 79.8264C237.128 77.1093 237.668 74.3407 236.974 72.1207C236.605 70.9464 235.191 71.0407 233.365 71.7093C231.557 72.3864 229.371 73.6464 227.502 74.7607C226.868 75.1293 224.785 76.3464 222.659 77.6236C220.534 78.9007 218.365 80.2207 217.491 80.7779C210.119 85.5779 205.097 90.755 200.648 95.6836C196.208 100.612 192.317 105.361 187.559 109.098C186.771 109.732 186.137 110.289 185.588 110.804C185.039 111.318 184.577 111.781 184.105 112.166C183.634 112.561 183.154 112.886 182.588 113.152C182.014 113.401 181.345 113.572 180.514 113.666C179.048 113.804 177.008 113.538 173.828 113.272C171.882 113.066 170.854 113.092 170.091 113.144C169.337 113.195 168.865 113.341 168.094 113.298L168.351 113.975V113.992Z" fill="#CCEAE6"/>
<path d="M174.391 84.2309C174.879 85.2338 174.973 86.5023 174.605 87.5652C174.425 88.0966 174.133 88.5681 173.773 88.9281C173.413 89.2881 172.993 89.5024 172.582 89.5709C172.762 89.8195 173.002 90.0081 173.259 90.1452C173.525 90.2824 173.816 90.3252 174.125 90.3424C174.742 90.3595 175.402 90.1709 176.002 89.8795C177.219 89.2966 178.179 88.3366 178.736 88.0709C178.805 88.0366 179.036 88.1138 179.413 88.2252C179.791 88.3538 180.322 88.5166 180.982 88.6966C182.302 89.0566 184.162 89.3909 186.271 89.3909C188.379 89.3995 190.728 89.0738 192.948 88.2509C195.168 87.4281 197.251 86.1252 198.888 84.2138C200.036 82.8509 201.553 80.3824 201.151 78.1624C200.936 76.9795 198.931 77.4681 197.422 77.8366C196.916 77.9566 194.096 78.6081 193.376 78.7709C190.376 79.5595 188.233 80.8624 186.296 82.2166C184.368 83.5538 182.636 84.9681 180.682 85.7738C180.031 86.0395 179.619 86.3395 179.225 86.5195C178.831 86.7081 178.445 86.7595 177.879 86.5195C177.631 86.4081 177.356 86.2195 177.022 85.9709C176.696 85.7052 176.311 85.4052 175.882 85.0109C175.625 84.7795 175.436 84.6081 175.282 84.4709C175.136 84.3423 175.016 84.2652 174.922 84.1966C174.733 84.0681 174.605 84.0252 174.442 83.8623L174.391 84.2224V84.2309Z" fill="#CCEAE6"/>
<path d="M26.8086 168.221C27.2971 169.224 27.3914 170.492 27.0229 171.555C26.8429 172.087 26.5514 172.558 26.1914 172.918C25.8314 173.278 25.4114 173.492 25 173.561C25.18 173.81 25.42 173.998 25.6771 174.135C25.9429 174.272 26.2343 174.315 26.5429 174.332C27.16 174.35 27.82 174.161 28.42 173.87C29.6371 173.287 30.5971 172.327 31.1543 172.061C31.2229 172.027 31.4543 172.104 31.8314 172.215C32.2086 172.344 32.74 172.507 33.4 172.687C34.72 173.047 36.58 173.381 38.6886 173.381C40.7971 173.39 43.1457 173.064 45.3657 172.241C47.5857 171.418 49.6686 170.115 51.3057 168.204C52.4543 166.841 53.9714 164.372 53.5686 162.152C53.3543 160.97 51.3486 161.458 49.84 161.827C49.3343 161.947 46.5143 162.598 45.7943 162.761C42.7943 163.55 40.6514 164.852 38.7143 166.207C36.7857 167.544 35.0543 168.958 33.1 169.764C32.4486 170.03 32.0371 170.33 31.6429 170.51C31.2486 170.698 30.8629 170.75 30.2971 170.51C30.0486 170.398 29.7743 170.21 29.44 169.961C29.1143 169.695 28.7286 169.395 28.3 169.001C28.0429 168.77 27.8543 168.598 27.7 168.461C27.5543 168.332 27.4343 168.255 27.34 168.187C27.1514 168.058 27.0229 168.015 26.86 167.852L26.8086 168.212V168.221Z" fill="#CCEAE6"/>
<path d="M147.705 144.994C148.811 145.723 149.248 146.906 149.162 148.02C149.085 149.134 148.451 150.18 147.671 150.609C148.237 150.926 148.88 150.943 149.522 150.771C149.685 150.729 149.848 150.677 150.002 150.609C150.157 150.54 150.32 150.454 150.474 150.369C150.782 150.189 151.082 149.983 151.374 149.76C151.965 149.331 152.48 148.791 152.934 148.337C153.388 147.874 153.774 147.506 154.074 147.283C154.142 147.231 154.425 147.24 154.871 147.266C155.317 147.283 155.96 147.36 156.722 147.369C157.485 147.377 158.411 147.411 159.414 147.343C159.92 147.317 160.451 147.274 161.017 147.223C161.565 147.163 162.14 147.077 162.731 146.983C165.08 146.597 167.677 145.877 170.102 144.711C172.537 143.546 174.817 141.96 176.702 139.843C177.362 139.08 178.151 138.051 178.742 136.911C179.334 135.789 179.737 134.571 179.574 133.449C179.42 132.266 177.08 132.917 175.314 133.474C174.705 133.646 171.414 134.674 170.591 134.966C167.085 136.234 164.582 137.991 162.38 139.757C160.177 141.523 158.248 143.289 156.028 144.557C155.291 144.994 154.845 145.38 154.408 145.654C154.185 145.791 153.971 145.903 153.714 145.971C153.457 146.04 153.174 146.066 152.805 146.014C152.488 145.971 152.12 145.869 151.665 145.731C151.442 145.663 151.194 145.586 150.911 145.5C150.637 145.406 150.337 145.303 150.002 145.183C148.417 144.643 148.271 144.823 147.637 144.651L147.705 145.003V144.994Z" fill="#CCEAE6"/>
<path d="M63.6918 176.313C65.5947 177.05 66.3147 178.559 66.2204 180.059C66.1347 181.567 65.2004 183.076 64.0175 183.788C64.9347 184.113 65.9375 184.01 66.9318 183.676C67.9347 183.35 68.8861 182.69 69.8033 182.013C70.7118 181.336 71.5261 180.53 72.2547 179.845C72.9747 179.159 73.6004 178.585 74.0804 178.242C74.3118 178.07 75.8461 178.122 78.2547 177.976C80.6547 177.839 83.9633 177.539 87.6404 176.75C91.3175 175.97 95.3975 174.745 99.3233 172.902C103.258 171.067 107.055 168.642 110.32 165.505C111.469 164.382 112.858 162.865 113.929 161.227C115.009 159.607 115.789 157.876 115.66 156.359C115.54 154.748 111.855 155.887 109.052 156.822C108.1 157.122 102.855 158.845 101.535 159.325C95.9204 161.407 91.7204 164.099 87.9833 166.79C84.2547 169.482 80.9804 172.173 77.3375 174.23C76.1204 174.925 75.3918 175.525 74.6718 175.97C73.9518 176.407 73.249 176.725 72.0833 176.716C71.5775 176.716 70.9861 176.63 70.2404 176.519C69.5033 176.416 68.6118 176.262 67.5233 176.082C64.8833 175.662 64.6175 175.945 63.5547 175.859L63.6833 176.313H63.6918Z" fill="#CCEAE6"/>
<path d="M247.883 52.4738C249.546 52.1052 250.823 52.8252 251.56 53.9224C252.297 55.0195 252.494 56.4938 252.091 57.5224C253.643 57.1281 254.534 55.4652 254.989 53.6824C255.109 53.2367 255.211 52.7909 255.297 52.3538C255.383 51.9167 255.443 51.4795 255.503 51.0852C255.631 50.2795 255.734 49.6024 255.906 49.1567C255.983 48.9424 257.02 48.2824 258.614 47.1424C259.394 46.5595 260.32 45.8652 261.306 45.0424C262.283 44.2109 263.354 43.2681 264.417 42.1967C266.56 40.0624 268.729 37.4652 270.537 34.5767C272.354 31.6795 273.811 28.5081 274.651 25.0195C274.926 23.7767 275.234 22.1738 275.251 20.5624C275.303 18.9852 275.089 17.4081 274.326 16.3195C273.914 15.7452 273.177 16.0024 272.32 16.6367C271.891 16.9538 271.437 17.3567 270.983 17.8024C270.546 18.2481 270.109 18.7195 269.697 19.1652C269.114 19.7395 266.131 23.1167 265.411 24.0167C262.351 27.8567 260.766 31.6024 259.54 35.0995C258.323 38.5967 257.483 41.9052 256.06 44.9309C255.589 45.9509 255.391 46.6795 255.143 47.3138C255.014 47.6309 254.869 47.9138 254.663 48.1881C254.449 48.4538 254.166 48.7109 253.771 48.9681C253.086 49.4138 252.014 49.8252 250.36 50.5624C249.357 51.0167 248.86 51.3252 248.5 51.5652C248.149 51.8138 247.951 52.0109 247.574 52.2252L247.9 52.4824L247.883 52.4738Z" fill="#CCEAE6"/>
<path d="M99.1784 136.003C101.038 136.594 101.896 138.085 102.058 139.628C102.23 141.171 101.69 142.757 100.816 143.537C102.521 144.068 104.141 142.92 105.487 141.471C106.85 140.031 107.956 138.283 108.753 137.648C108.941 137.494 110.304 137.545 112.413 137.52C114.521 137.503 117.393 137.408 120.581 137.023C123.77 136.637 127.267 135.96 130.687 134.794C134.116 133.628 137.45 131.991 140.493 129.583C141.556 128.708 142.893 127.525 143.99 126.128C145.096 124.774 145.97 123.223 146.056 121.663C146.098 120.84 145.293 120.505 144.144 120.403C143.57 120.36 142.901 120.36 142.224 120.403C141.547 120.454 140.853 120.54 140.21 120.608C139.336 120.677 134.484 121.337 133.25 121.585C128.013 122.614 124.061 124.748 120.667 127.028C117.273 129.317 114.418 131.777 111.298 133.697C109.207 134.974 108.881 136.088 106.807 136.088C105.898 136.088 104.638 135.797 102.624 135.54C100.164 135.223 99.9584 135.574 98.9727 135.565L99.1698 136.011L99.1784 136.003Z" fill="#CCEAE6"/>
</svg>
