<svg width="377" height="280" viewBox="0 0 377 280" fill="none" xmlns="http://www.w3.org/2000/svg">
<g clip-path="url(#clip0_1005_109205)">
<path d="M29.3097 74.7658C33.1997 77.4001 34.8597 72.1674 33.9597 68.8984C35.7197 70.0599 36.6397 72.79 37.2897 75.5561C37.9197 78.346 38.3097 81.1719 38.7997 82.6088C39.0697 83.2435 43.8897 87.7098 49.9397 93.7448C52.9697 96.7622 56.2897 100.151 59.6297 103.695C62.9797 107.252 66.3397 110.988 69.5597 115.143C69.8397 115.514 70.1297 115.921 70.4397 116.352C70.7497 116.771 71.0797 117.202 71.3997 117.657C72.0497 118.567 72.6897 119.573 73.2697 120.579C74.4697 122.507 75.3897 124.566 75.3697 126.266C75.3597 127.165 74.3597 127.165 72.9497 126.745C72.2497 126.542 71.4497 126.231 70.6297 125.883C69.8297 125.488 69.0097 125.057 68.2397 124.65C67.1597 124.243 61.5397 120.758 60.1497 119.669C59.7797 119.393 59.3997 119.13 59.0497 118.855C58.6997 118.555 58.3597 118.268 58.0197 117.98C57.3397 117.394 56.6797 116.807 56.0497 116.208C54.8097 114.975 53.6597 113.718 52.5897 112.448C51.5597 111.131 50.5797 109.85 49.6897 108.533C48.8297 107.192 47.9897 105.887 47.2497 104.569C44.2397 99.2648 42.1597 94.0681 39.8097 89.1347C39.0097 87.4943 38.6697 86.2849 38.2497 85.2551C38.0397 84.7402 37.8197 84.2732 37.5297 83.8062C37.2397 83.3392 36.8897 82.8603 36.3997 82.3574C35.5497 81.4833 34.2497 80.5612 32.2897 78.7891C29.8697 76.6218 29.8497 76.035 28.9297 75.0172L29.2997 74.7658H29.3097Z" fill="#CCEAE6"/>
<path d="M262.13 210.301C264.28 209.953 265.13 208.481 265.09 206.804C265.05 205.128 264.1 203.248 262.85 202.206C263.87 202.074 264.95 202.41 266.02 203.008C266.55 203.308 267.08 203.679 267.6 204.086C267.86 204.29 268.12 204.505 268.37 204.733C268.62 204.972 268.86 205.224 269.1 205.475C271 207.511 272.61 209.678 273.6 210.744C273.72 210.863 274.19 211.031 274.96 211.259C275.35 211.378 275.8 211.51 276.33 211.666C276.59 211.75 276.87 211.821 277.17 211.917C277.47 212.001 277.76 212.133 278.08 212.252C279.35 212.743 280.88 213.318 282.57 214.108C283.39 214.54 284.26 215.007 285.17 215.509C285.62 215.773 286.09 216.036 286.56 216.3C287.03 216.575 287.48 216.91 287.95 217.234C288.89 217.892 289.86 218.587 290.85 219.341C291.8 220.155 292.75 221.018 293.73 221.928C293.97 222.155 294.21 222.383 294.46 222.622C294.7 222.862 294.92 223.125 295.16 223.376C295.62 223.891 296.08 224.406 296.55 224.945C297.01 225.484 297.48 226.011 297.92 226.586C298.35 227.172 298.78 227.771 299.2 228.382C302.59 233.231 305.24 239.302 306.25 245.696C306.33 246.259 306.44 246.846 306.5 247.492C306.55 248.127 306.6 248.786 306.63 249.456C306.66 250.127 306.68 250.797 306.67 251.468C306.64 252.15 306.6 252.821 306.53 253.467C306.46 254.114 306.38 254.737 306.27 255.323C306.14 255.922 305.98 256.473 305.81 256.976C305.45 257.982 305.01 258.784 304.45 259.275C303.86 259.79 303.21 258.892 302.57 257.479C302.27 256.76 301.9 255.934 301.55 255.072C301.38 254.641 301.21 254.198 301.04 253.767C300.87 253.336 300.67 252.917 300.49 252.51C300.37 252.234 300.11 251.659 299.78 250.905C299.46 250.163 298.97 249.288 298.53 248.402C298.3 247.959 298.09 247.504 297.85 247.085C297.61 246.666 297.37 246.271 297.16 245.888C296.74 245.145 296.38 244.523 296.18 244.164C295.71 243.421 295.27 242.691 294.85 241.96C294.64 241.589 294.44 241.23 294.23 240.871C294.01 240.523 293.8 240.176 293.58 239.841C293.16 239.146 292.76 238.464 292.37 237.781C291.97 237.111 291.55 236.476 291.16 235.818C290.77 235.159 290.39 234.512 290.02 233.878C289.62 233.267 289.23 232.644 288.85 232.034C288.47 231.423 288.12 230.788 287.74 230.202C287.35 229.615 286.97 229.04 286.59 228.453C286.22 227.867 285.85 227.28 285.48 226.705C285.1 226.142 284.7 225.604 284.32 225.053C283.93 224.502 283.55 223.951 283.17 223.412C282.98 223.137 282.79 222.862 282.6 222.598C282.4 222.347 282.19 222.095 281.99 221.844C281.18 220.838 280.36 219.832 279.53 218.838C278.67 217.904 277.77 217.03 276.86 216.156C275.66 214.959 274.87 214.144 274.13 213.438C273.38 212.743 272.64 212.217 271.4 211.881C270.29 211.654 268.79 211.666 266.41 211.45C265.69 211.366 265.1 211.366 264.65 211.319C264.19 211.271 263.84 211.211 263.54 211.139C262.95 211.007 262.57 210.863 261.98 210.78L262.15 210.313L262.13 210.301Z" fill="#CCEAE6"/>
<path d="M216.199 108.628C218.139 107.503 218.789 105.551 218.519 103.659C218.389 102.713 218.039 101.791 217.539 101.001C217.039 100.222 216.389 99.5998 215.699 99.2406C217.669 98.1629 220.109 99.2645 222.189 100.845C224.289 102.414 226.079 104.449 227.209 105.156C227.479 105.335 229.129 105.12 231.739 105.012C234.349 104.904 237.919 104.88 241.989 105.383C244.019 105.635 246.179 106.006 248.399 106.581C248.959 106.712 249.509 106.88 250.079 107.036C250.359 107.12 250.639 107.203 250.929 107.287C251.229 107.395 251.519 107.491 251.819 107.599C253.019 108.018 254.199 108.521 255.359 109.083C257.679 110.221 259.889 111.61 261.899 113.131C263.919 114.651 265.729 116.28 267.489 117.956C268.719 119.166 270.269 120.758 271.759 122.363C272.129 122.794 272.499 123.177 272.839 123.596C273.189 124.003 273.519 124.47 273.819 124.877C274.429 125.715 274.919 126.613 275.169 127.547C275.439 128.529 274.479 129.08 272.939 129.356C271.419 129.571 269.329 129.415 267.579 129.056C266.979 128.96 265.039 128.541 263.099 127.955C261.159 127.368 259.279 126.637 258.519 126.338C255.309 124.997 252.729 123.512 250.379 122.099C249.789 121.74 249.229 121.405 248.669 121.045C248.109 120.698 247.569 120.363 247.029 120.016C245.899 119.309 244.769 118.579 243.689 117.86C239.339 114.951 235.419 111.981 231.219 109.814C229.809 109.095 228.949 108.401 228.109 107.922C227.279 107.431 226.479 107.155 225.219 107.263C224.119 107.371 222.669 107.874 220.339 108.509C217.519 109.323 217.219 108.988 216.099 109.203L216.189 108.616L216.199 108.628Z" fill="#CCEAE6"/>
<path d="M96.7895 134.301C98.0495 133.93 99.1495 133.272 99.9995 132.35C100.839 131.428 101.429 130.23 101.739 128.925C102.049 127.62 102.079 126.231 101.839 124.926C101.709 124.279 101.519 123.656 101.259 123.094C100.999 122.543 100.669 122.04 100.309 121.621C101.749 121.393 103.209 122.016 104.409 123.118C105.629 124.219 106.619 125.74 107.439 127.32C108.259 128.901 108.939 130.53 109.609 131.943C110.269 133.355 110.939 134.529 111.549 135.199C111.689 135.367 112.309 135.487 113.279 135.571C113.519 135.571 113.789 135.595 114.079 135.607C114.359 135.619 114.669 135.607 114.999 135.607C115.329 135.595 115.659 135.583 116.019 135.547C116.369 135.499 116.739 135.451 117.129 135.403C118.699 135.187 120.579 134.828 122.649 134.433C124.729 134.038 127.029 133.595 129.569 133.26C130.839 133.092 132.179 132.96 133.569 132.888C133.919 132.877 134.269 132.853 134.629 132.841C134.979 132.841 135.339 132.829 135.699 132.817C136.359 132.793 137.019 132.781 137.689 132.781C140.369 132.745 143.119 132.817 145.929 133.056C151.539 133.535 157.319 134.673 163.079 137.223C165.109 138.145 167.699 139.51 169.999 141.27C172.299 143.031 174.319 145.174 175.109 147.724C175.529 149.078 174.439 150.023 172.739 150.754C171.039 151.46 168.709 151.927 166.679 152.287C166.339 152.346 165.609 152.49 164.669 152.658C163.729 152.813 162.579 153.029 161.419 153.209C159.079 153.58 156.649 153.915 155.649 153.999C147.169 154.753 139.979 152.849 133.699 150.143C130.739 148.778 127.909 147.485 125.149 146.216C122.219 144.887 119.359 143.593 116.499 142.288C116.249 142.168 116.029 142.073 115.799 141.941C115.559 141.809 115.329 141.677 115.119 141.558C114.689 141.306 114.289 141.067 113.939 140.791C113.589 140.528 113.259 140.276 112.959 140.037C112.659 139.786 112.379 139.546 112.109 139.319C111.829 139.103 111.559 138.888 111.289 138.696C111.019 138.492 110.729 138.325 110.429 138.157C109.839 137.81 109.139 137.558 108.279 137.331C107.899 137.235 107.479 137.163 107.019 137.079C106.559 137.008 106.049 136.936 105.489 136.852C104.929 136.768 104.319 136.672 103.639 136.576C102.989 136.469 102.259 136.349 101.459 136.217C99.5594 135.906 98.6795 135.726 98.0395 135.499C97.7395 135.391 97.4894 135.307 97.2394 135.223C97.1194 135.176 96.9895 135.14 96.8595 135.104C96.7295 135.08 96.5895 135.056 96.4395 135.044L96.8094 134.325L96.7895 134.301Z" fill="#CCEAE6"/>
<path d="M139.801 124.471C145.001 120.124 142.751 110.784 139.631 108.653C144.301 104.69 150.661 114.257 153.501 115.861C153.841 116.053 155.831 115.179 158.981 114.029C162.131 112.892 166.451 111.443 171.471 110.641C176.491 109.839 182.251 109.635 188.081 111.012C193.901 112.377 199.801 115.335 204.651 120.436C205.081 120.891 205.521 121.382 205.971 121.92C206.421 122.459 206.871 123.07 207.321 123.705C208.211 124.974 209.071 126.375 209.791 127.86C211.211 130.889 212.061 134.194 211.631 137.295C211.401 138.936 210.081 139.451 208.401 139.463C207.561 139.463 206.621 139.343 205.671 139.163C204.711 139.019 203.731 138.828 202.821 138.648C202.521 138.588 201.861 138.469 201.031 138.313C200.191 138.193 199.161 138.038 198.121 137.882C197.601 137.81 197.081 137.726 196.581 137.654C196.071 137.595 195.581 137.535 195.131 137.487C194.221 137.379 193.471 137.283 193.041 137.223C192.131 137.068 191.231 136.912 190.351 136.744C189.481 136.565 188.631 136.361 187.801 136.122C186.131 135.691 184.551 135.176 183.031 134.577C181.491 134.014 180.041 133.356 178.611 132.673C177.181 132.003 175.801 131.26 174.441 130.518C169.011 127.536 164.011 124.231 158.721 122.22C155.181 120.879 154.291 118.879 151.201 120.064C149.861 120.591 148.111 121.896 145.181 123.525C141.611 125.549 141.151 124.926 139.661 125.477L139.801 124.483V124.471Z" fill="#CCEAE6"/>
<path d="M217.421 146.611C220.701 145.234 222.171 142.156 222.221 138.911C222.251 137.295 221.931 135.642 221.341 134.193C220.751 132.768 219.891 131.547 218.911 130.745C222.181 129.5 225.791 131.966 228.671 135.199C231.591 138.408 233.791 142.384 235.331 143.904C235.691 144.288 238.321 144.503 242.431 145.341C246.541 146.18 252.141 147.76 258.271 150.622C264.381 153.484 270.971 157.615 276.981 162.991C283.011 168.368 288.451 174.929 292.701 182.677C294.191 185.419 295.921 189.119 297.111 192.891C298.301 196.662 298.971 200.518 298.201 203.643C297.791 205.296 296.131 205.188 294.001 204.29C291.881 203.38 289.311 201.668 287.111 200.147C286.371 199.644 283.911 197.992 281.411 196.243C278.901 194.507 276.351 192.699 275.321 191.945C266.641 185.395 260.691 178.258 255.411 171.469C250.151 164.68 245.531 158.118 239.911 152.993C238.981 152.131 238.231 151.352 237.581 150.658C236.931 149.951 236.391 149.305 235.831 148.778C235.271 148.239 234.711 147.784 234.041 147.437C233.371 147.09 232.591 146.874 231.611 146.766C229.901 146.599 227.521 147.018 223.821 147.449C221.551 147.772 220.361 147.76 219.461 147.712C218.571 147.652 218.031 147.461 217.131 147.533L217.411 146.587L217.421 146.611Z" fill="#CCEAE6"/>
<path d="M58.2194 71.2465C58.8194 72.2523 59.5194 72.9827 60.1894 73.4617C60.8794 73.9526 61.5894 74.2041 62.2694 74.2759C63.6394 74.4316 64.9594 73.9167 66.1394 73.1743C67.3094 72.4319 68.3994 71.474 69.2594 70.528C69.7094 70.049 70.0994 69.582 70.4094 69.1151C70.7394 68.6481 70.9994 68.193 71.1594 67.75C72.1494 68.8995 72.4794 70.061 72.5394 71.3662C72.5894 72.6594 72.3694 74.1202 72.1894 75.7727C71.9994 77.4131 71.8794 79.2212 71.9594 80.8856C71.9794 81.7238 72.0894 82.5021 72.1894 83.2086C72.3294 83.8911 72.4694 84.5018 72.6694 84.9449C72.8494 85.3639 74.9894 86.4177 78.2294 87.1002C79.8494 87.4475 81.7294 87.6989 83.7994 87.8306C85.8694 87.9743 88.1094 88.0342 90.4994 88.0462C95.2594 88.0941 100.519 88.0102 106.019 88.6449C111.519 89.2795 117.239 90.6326 123.009 93.6022C125.039 94.6679 127.649 96.2724 130.009 98.308C132.359 100.344 134.499 102.81 135.449 105.792C135.949 107.372 134.859 108.57 133.079 109.492C131.309 110.414 128.879 111.001 126.759 111.468C126.049 111.623 123.709 112.162 121.259 112.617C118.819 113.084 116.269 113.467 115.219 113.575C106.329 114.449 98.7194 112.042 92.1794 108.366C88.8994 106.51 85.8894 104.331 83.0594 101.96C80.2294 99.6012 77.5894 97.0627 75.0494 94.3685C73.3394 92.5484 72.5494 90.908 71.7394 89.5788C70.9394 88.2138 70.1294 87.196 68.4294 85.9866C68.0594 85.7112 67.6294 85.4597 67.1694 85.1364C66.6994 84.8251 66.1594 84.4898 65.5794 84.0468C64.3994 83.1966 62.9994 82.0232 61.4494 80.1193C60.9594 79.5445 60.5794 78.9817 60.2394 78.4669C59.8894 77.952 59.6094 77.473 59.3794 77.018C59.1494 76.5749 58.9394 76.1678 58.7794 75.7846C58.6294 75.4134 58.4994 75.0662 58.3794 74.7429C58.1494 74.0963 58.0094 73.5455 57.8694 73.0066C57.7294 72.4678 57.5594 71.905 57.3594 71.2704L58.1994 71.2105L58.2194 71.2465Z" fill="#CCEAE6"/>
<path d="M123.53 75.8207C124.33 77.2935 125.19 77.8682 125.9 77.9401C126.63 77.9999 127.23 77.5928 127.73 76.9941C128.25 76.3954 128.66 75.6291 129.01 74.8627C129.35 74.0964 129.64 73.33 129.77 72.5996C130.3 73.4737 130.56 74.3957 130.76 75.4135C130.96 76.4313 131.11 77.5808 131.38 78.8022C131.89 81.233 132.98 83.8553 133.91 84.933C134.13 85.1844 135.72 85.8191 138.19 86.2501C140.66 86.7051 144 86.9207 147.82 86.9805C151.65 87.0524 155.96 87.0045 160.49 87.2559C165.02 87.4954 169.77 88.0462 174.48 89.3634C176.14 89.8424 178.26 90.5608 180.14 91.4948C182.02 92.4407 183.68 93.6022 184.38 95.0631C184.75 95.8414 183.9 96.476 182.54 96.9909C181.19 97.5058 179.34 97.877 177.73 98.1764C177.19 98.2722 175.41 98.6194 173.56 98.9068C171.71 99.2061 169.79 99.4576 169 99.5414C162.31 100.2 156.54 99.1582 151.41 97.3861C146.27 95.5899 141.76 93.1352 137.4 90.2974C135.94 89.3275 135.1 88.4174 134.31 87.675C133.52 86.9087 132.79 86.31 131.51 85.6275C130.95 85.3161 130.28 85.0168 129.44 84.5139C128.6 84.0229 127.57 83.3404 126.4 82.1071C124.96 80.5864 124.37 79.3291 123.97 78.431C123.79 77.964 123.64 77.5689 123.51 77.1737C123.39 76.7666 123.26 76.3715 123.09 75.8925L123.51 75.8207H123.53Z" fill="#CCEAE6"/>
<path d="M319.23 191.682C320.91 190.64 322.3 188.7 322.86 186.521C323.14 185.444 323.22 184.33 323.1 183.312C322.98 182.294 322.61 181.432 322.13 180.845C322.63 180.654 323.13 180.63 323.63 180.738C324.12 180.833 324.57 181.121 325 181.456C325.86 182.163 326.56 183.264 327.08 184.462C328.14 186.868 328.48 189.575 328.97 190.688C329.03 190.82 329.42 190.988 330.05 191.251C330.69 191.502 331.57 191.862 332.65 192.365C334.79 193.37 337.65 195.047 340.52 197.585C343.39 200.1 346.25 203.453 348.43 207.44C350.62 211.439 352.13 216.049 352.43 221.114C352.63 224.707 352.2 230.538 349.42 233.651C347.94 235.304 345.72 232.107 344.04 229.7C343.47 228.91 340.3 224.467 339.49 223.33C336.22 218.456 334.62 213.75 333.35 209.236C332.08 204.758 331.15 200.375 329.3 196.723C328.68 195.514 328.43 194.532 328.07 193.766C327.72 192.987 327.25 192.436 326.24 192.149C325.79 192.041 325.22 192.017 324.53 192.005C323.82 192.041 322.99 192.065 322.02 192.197C321.45 192.269 321.01 192.317 320.67 192.353C320.34 192.389 320.1 192.365 319.91 192.353C319.53 192.353 319.31 192.257 318.92 192.329L319.21 191.682H319.23Z" fill="#CCEAE6"/>
<path d="M311.261 230.885C313.211 231.364 314.691 230.334 315.531 228.777C316.371 227.233 316.581 225.161 316.091 223.736C317.911 224.251 318.971 226.55 319.531 229.041C319.681 229.664 319.801 230.286 319.911 230.897C320.011 231.508 320.091 232.118 320.171 232.669C320.331 233.783 320.471 234.741 320.671 235.351C320.771 235.639 321.991 236.549 323.861 238.117C324.781 238.908 325.871 239.865 327.031 241.003C328.191 242.141 329.451 243.446 330.701 244.919C333.231 247.852 335.811 251.432 337.971 255.432C340.141 259.443 341.891 263.85 342.931 268.687C343.271 270.423 343.651 272.651 343.701 274.902C343.791 277.105 343.571 279.308 342.691 280.853C342.221 281.667 341.361 281.32 340.351 280.446C339.851 280.015 339.301 279.452 338.771 278.853C338.251 278.243 337.731 277.584 337.251 276.973C336.561 276.183 333.021 271.525 332.171 270.28C328.531 264.975 326.621 259.778 325.131 254.917C323.651 250.055 322.611 245.445 320.901 241.254C320.341 239.842 320.091 238.824 319.791 237.938C319.641 237.495 319.461 237.099 319.211 236.728C318.951 236.357 318.621 236.01 318.161 235.663C317.351 235.052 316.101 234.501 314.161 233.507C312.981 232.897 312.401 232.477 311.971 232.142C311.551 231.807 311.321 231.531 310.881 231.244L311.261 230.885Z" fill="#CCEAE6"/>
<path d="M21.54 -0.778638C22.78 1.87962 24.67 2.20292 26.31 1.60421C27.14 1.30486 27.89 0.766025 28.54 0.131396C29.19 -0.503233 29.7 -1.24563 29.96 -2C31.06 0.107447 30.4 2.63399 29.59 5.24435C28.78 7.81879 27.74 10.5369 27.67 12.0696C27.67 12.2492 27.85 12.7761 28.27 13.5664C28.47 13.9495 28.72 14.4165 28.99 14.9314C29.29 15.4343 29.62 15.9971 29.99 16.6198C30.35 17.2305 30.8 17.8651 31.23 18.5476C31.69 19.2182 32.18 19.9127 32.7 20.6311C33.76 22.056 34.95 23.5408 36.22 25.0376C38.82 28.0191 41.77 30.9528 44.86 34.102C47.95 37.2512 51.18 40.6638 54.24 44.9146C55.3 46.4354 56.66 48.459 57.74 50.6263C58.82 52.7817 59.64 55.0807 59.49 57.1402C59.34 59.3195 55.29 57.9305 52.18 56.5415C51.92 56.4218 51.36 56.1823 50.64 55.871C49.93 55.5357 49.05 55.1406 48.16 54.6975C46.39 53.8234 44.57 52.8056 43.84 52.3386C40.75 50.3868 38.11 47.98 35.93 45.3098C33.75 42.6276 32.02 39.7059 30.68 36.7124C29.33 33.7188 28.36 30.6654 27.64 27.6599C26.91 24.6544 26.42 21.6968 26 18.7871C25.73 16.8353 25.81 15.5062 25.81 14.3327C25.77 13.1593 25.68 12.1295 25.05 10.6926C24.8 10.058 24.43 9.35148 23.95 8.44144C23.51 7.53141 22.94 6.41782 22.37 4.945C22.02 4.04694 21.77 3.32849 21.61 2.72978C21.45 2.14305 21.36 1.67606 21.3 1.26894C21.18 0.466673 21.14 -0.0721638 21 -0.862457L21.53 -0.802587L21.54 -0.778638Z" fill="#CCEAE6"/>
<path d="M151.04 170.954C153.32 172.116 154.65 170.978 155.35 169.41C155.7 168.607 155.91 167.685 155.97 166.799C156.04 165.913 156.01 165.027 155.79 164.309C157.53 165.099 158.41 167.23 159.38 169.553C160.31 171.876 161.36 174.343 162.22 175.385C162.32 175.504 162.77 175.66 163.47 175.876C163.82 175.983 164.25 176.055 164.73 176.163C165.21 176.271 165.75 176.367 166.35 176.45C167.53 176.654 168.93 176.786 170.46 176.905C172 176.989 173.67 177.073 175.46 177.085C177.24 177.085 179.12 177.085 181.09 177.097C183.05 177.097 185.09 177.097 187.18 177.193C191.36 177.372 195.75 177.791 200.2 179.085C201.77 179.552 203.78 180.27 205.59 181.24C207.4 182.222 209 183.455 209.69 185.048C210.42 186.724 206.56 187.838 203.54 188.556C203.03 188.676 201.36 189.107 199.62 189.478C197.88 189.861 196.05 190.197 195.3 190.316C188.93 191.238 183.34 190.209 178.44 188.305C173.53 186.389 169.33 183.647 165.33 180.773C164.67 180.27 164.13 179.827 163.69 179.384C163.25 178.941 162.88 178.546 162.51 178.199C161.8 177.456 161.1 176.929 159.87 176.45C158.8 176.019 157.28 175.768 154.85 174.558C154.48 174.367 154.15 174.199 153.86 174.032C153.58 173.852 153.33 173.684 153.1 173.517C152.66 173.193 152.32 172.93 152.05 172.667C151.52 172.14 151.22 171.745 150.66 171.254L151.03 170.93L151.04 170.954Z" fill="#CCEAE6"/>
<path d="M179.73 166.273C181.6 164.729 182.06 162.382 181.72 160.262C181.38 158.143 180.25 156.227 179 155.545C180.72 154.144 182.92 155.018 184.92 156.407C186.93 157.784 188.76 159.664 189.87 160.191C190.13 160.322 191.64 159.7 194 158.873C196.36 158.035 199.6 157.005 203.29 156.227C206.98 155.449 211.12 154.934 215.32 155.102C219.54 155.269 223.82 156.095 228.04 158.083C229.53 158.826 231.42 159.867 233.12 161.28C234.81 162.645 236.32 164.358 236.95 166.405C237.28 167.495 236.49 168.261 235.24 168.86C234.61 169.159 233.87 169.423 233.1 169.638C232.33 169.842 231.53 170.009 230.78 170.177C229.78 170.452 224.15 171.53 222.68 171.698C216.49 172.452 211.35 171.195 206.79 169.542C202.22 167.866 198.2 165.735 194.07 164.441C191.3 163.579 190.57 162.226 188.24 163.076C187.23 163.448 185.92 164.346 183.76 165.507C181.12 166.932 180.77 166.549 179.67 166.956L179.74 166.273H179.73Z" fill="#CCEAE6"/>
</g>
<defs>
<clipPath id="clip0_1005_109205">
<rect width="380" height="280" fill="white" transform="translate(-3)"/>
</clipPath>
</defs>
</svg>
