<svg width="376" height="96" viewBox="0 0 376 96" fill="none" xmlns="http://www.w3.org/2000/svg">
<path d="M23.9797 66.2C30.5097 60.8 35.6597 56.37 39.4297 52.9C43.1997 49.44 46.3797 45.8 48.9797 42C51.5797 38.2 52.8797 34.5 52.8797 30.9C52.8797 28.17 52.2497 26.03 50.9797 24.5C49.7097 22.97 47.8097 22.2 45.2797 22.2C42.7497 22.2 40.7597 23.15 39.3297 25.05C37.8997 26.95 37.1797 29.63 37.1797 33.1H20.6797C20.8097 27.43 22.0297 22.7 24.3297 18.9C26.6297 15.1 29.6597 12.3 33.4297 10.5C37.1997 8.69999 41.3797 7.79999 45.9797 7.79999C53.9097 7.79999 59.8997 9.83999 63.9297 13.9C67.9597 17.97 69.9797 23.27 69.9797 29.8C69.9797 36.93 67.5497 43.55 62.6797 49.65C57.8097 55.75 51.6097 61.7 44.0797 67.5H71.0797V81.4H20.8797V68.7C23.1497 66.9 24.1797 66.07 23.9797 66.2Z" fill="#A6843B" stroke="#A6843B" stroke-width="4" stroke-linecap="round" stroke-linejoin="round"/>
<path d="M82.9281 80.55C81.0281 78.78 80.0781 76.6 80.0781 74C80.0781 71.4 81.0281 69.1 82.9281 67.3C84.8281 65.5 87.2781 64.6 90.2781 64.6C93.2781 64.6 95.6281 65.5 97.5281 67.3C99.4281 69.1 100.378 71.34 100.378 74C100.378 76.66 99.4281 78.79 97.5281 80.55C95.6281 82.32 93.2081 83.2 90.2781 83.2C87.3481 83.2 84.8281 82.32 82.9281 80.55Z" fill="#A6843B" stroke="#A6843B" stroke-width="4" stroke-linecap="round" stroke-linejoin="round"/>
<path d="M147.981 29.35C146.511 25.72 143.481 23.9 138.881 23.9C134.281 23.9 131.251 25.72 129.781 29.35C128.311 32.98 127.581 38.17 127.581 44.9C127.581 49.44 127.851 53.19 128.381 56.15C128.911 59.12 130.001 61.52 131.631 63.35C133.261 65.18 135.681 66.1 138.881 66.1C142.081 66.1 144.501 65.18 146.131 63.35C147.761 61.52 148.851 59.12 149.381 56.15C149.911 53.19 150.181 49.44 150.181 44.9C150.181 38.17 149.451 32.98 147.981 29.35ZM117.431 17.8C121.861 11.2 129.011 7.89996 138.881 7.89996C148.751 7.89996 155.901 11.2 160.331 17.8C164.761 24.4 166.981 33.43 166.981 44.9C166.981 56.37 164.761 65.6 160.331 72.2C155.901 78.8 148.751 82.1 138.881 82.1C129.011 82.1 121.861 78.8 117.431 72.2C113.001 65.6 110.781 56.5 110.781 44.9C110.781 33.3 113.001 24.4 117.431 17.8Z" fill="#A6843B" stroke="#A6843B" stroke-width="4" stroke-linecap="round" stroke-linejoin="round"/>
<path d="M224.581 22.2L199.481 82.4H181.981L207.381 24.1H176.281V9.5H224.581V22.2Z" fill="#A6843B" stroke="#A6843B" stroke-width="4" stroke-linecap="round" stroke-linejoin="round"/>
<path d="M284.883 24.3H253.683V38.1C255.013 36.63 256.883 35.43 259.283 34.5C261.683 33.57 264.283 33.1 267.083 33.1C272.083 33.1 276.233 34.23 279.533 36.5C282.833 38.77 285.253 41.7 286.783 45.3C288.313 48.9 289.083 52.8 289.083 57C289.083 64.8 286.883 70.98 282.483 75.55C278.083 80.12 271.883 82.4 263.883 82.4C258.553 82.4 253.913 81.48 249.983 79.65C246.053 77.82 243.013 75.27 240.883 72C238.753 68.73 237.583 64.97 237.383 60.7H254.083C254.483 62.77 255.453 64.48 256.983 65.85C258.513 67.22 260.613 67.9 263.283 67.9C266.413 67.9 268.753 66.9 270.283 64.9C271.813 62.9 272.583 60.23 272.583 56.9C272.583 53.57 271.783 51.13 270.183 49.4C268.583 47.67 266.253 46.8 263.183 46.8C260.913 46.8 259.053 47.35 257.583 48.45C256.113 49.55 255.153 51 254.683 52.8H238.183V9.29999H284.883V24.3Z" fill="#A6843B" stroke="#A6843B" stroke-width="4" stroke-linecap="round" stroke-linejoin="round"/>
<path d="M23.5109 66.49C30.0409 61.09 35.1909 56.66 38.9609 53.19C42.7309 49.73 45.9109 46.09 48.5109 42.29C51.1109 38.49 52.4109 34.79 52.4109 31.19C52.4109 28.46 51.7809 26.32 50.5109 24.79C49.2409 23.26 47.3409 22.49 44.8109 22.49C42.2809 22.49 40.2909 23.44 38.8609 25.34C37.4309 27.24 36.7109 29.92 36.7109 33.39H20.2109C20.3409 27.72 21.5609 22.99 23.8609 19.19C26.1609 15.39 29.1909 12.59 32.9609 10.79C36.7309 8.98997 40.9109 8.08997 45.5109 8.08997C53.4409 8.08997 59.4309 10.13 63.4609 14.19C67.4909 18.26 69.5109 23.56 69.5109 30.09C69.5109 37.22 67.0809 43.84 62.2109 49.94C57.3409 56.04 51.1409 61.99 43.6109 67.79H70.6109V81.69H20.4109V68.99C22.6809 67.19 23.7109 66.36 23.5109 66.49Z" fill="#A6843B" stroke="#A6843B" stroke-width="4" stroke-linecap="round" stroke-linejoin="round"/>
<path d="M82.4594 80.84C80.5594 79.07 79.6094 76.89 79.6094 74.29C79.6094 71.69 80.5594 69.39 82.4594 67.59C84.3594 65.79 86.8094 64.89 89.8094 64.89C92.8094 64.89 95.1594 65.79 97.0594 67.59C98.9594 69.39 99.9094 71.63 99.9094 74.29C99.9094 76.95 98.9594 79.08 97.0594 80.84C95.1594 82.61 92.7394 83.49 89.8094 83.49C86.8794 83.49 84.3594 82.61 82.4594 80.84Z" fill="#A6843B" stroke="#A6843B" stroke-width="4" stroke-linecap="round" stroke-linejoin="round"/>
<path d="M147.512 29.6399C146.042 26.0099 143.013 24.1899 138.413 24.1899C133.813 24.1899 130.782 26.0099 129.312 29.6399C127.843 33.2699 127.113 38.4599 127.113 45.1899C127.113 49.7299 127.383 53.4799 127.913 56.4399C128.443 59.4099 129.533 61.8099 131.163 63.6399C132.793 65.4699 135.213 66.3899 138.413 66.3899C141.613 66.3899 144.033 65.4699 145.663 63.6399C147.293 61.8099 148.383 59.4099 148.913 56.4399C149.443 53.4799 149.713 49.7299 149.713 45.1899C149.713 38.4599 148.982 33.2699 147.512 29.6399ZM116.963 18.0899C121.393 11.4899 128.543 8.18994 138.413 8.18994C148.283 8.18994 155.433 11.4899 159.863 18.0899C164.293 24.6899 166.512 33.7199 166.512 45.1899C166.512 56.6599 164.293 65.8899 159.863 72.4899C155.433 79.0899 148.283 82.3899 138.413 82.3899C128.543 82.3899 121.393 79.0899 116.963 72.4899C112.533 65.8899 110.312 56.7899 110.312 45.1899C110.312 33.5899 112.533 24.6899 116.963 18.0899Z" fill="#A6843B" stroke="#A6843B" stroke-width="4" stroke-linecap="round" stroke-linejoin="round"/>
<path d="M224.113 22.49L199.012 82.69H181.512L206.913 24.39H175.812V9.78998H224.113V22.49Z" fill="#A6843B" stroke="#A6843B" stroke-width="4" stroke-linecap="round" stroke-linejoin="round"/>
<path d="M284.414 24.59H253.214V38.39C254.544 36.92 256.414 35.72 258.814 34.79C261.214 33.86 263.814 33.39 266.614 33.39C271.614 33.39 275.764 34.52 279.064 36.79C282.364 39.06 284.784 41.99 286.314 45.59C287.844 49.19 288.614 53.09 288.614 57.29C288.614 65.09 286.414 71.27 282.014 75.84C277.614 80.41 271.414 82.69 263.414 82.69C258.084 82.69 253.444 81.77 249.514 79.94C245.584 78.11 242.544 75.56 240.414 72.29C238.284 69.02 237.114 65.26 236.914 60.99H253.614C254.014 63.06 254.984 64.77 256.514 66.14C258.044 67.51 260.144 68.19 262.814 68.19C265.944 68.19 268.284 67.19 269.814 65.19C271.344 63.19 272.114 60.52 272.114 57.19C272.114 53.86 271.314 51.42 269.714 49.69C268.114 47.96 265.784 47.09 262.714 47.09C260.444 47.09 258.584 47.64 257.114 48.74C255.644 49.84 254.684 51.29 254.214 53.09H237.714V9.58997H284.414V24.59Z" fill="#A6843B" stroke="#A6843B" stroke-width="4" stroke-linecap="round" stroke-linejoin="round"/>
<path d="M23.0422 66.79C29.5722 61.39 34.7222 56.96 38.4922 53.49C42.2622 50.03 45.4422 46.39 48.0422 42.59C50.6422 38.79 51.9422 35.09 51.9422 31.49C51.9422 28.76 51.3122 26.62 50.0422 25.09C48.7722 23.56 46.8722 22.79 44.3422 22.79C41.8122 22.79 39.8222 23.74 38.3922 25.64C36.9622 27.54 36.2422 30.22 36.2422 33.69H19.7422C19.8722 28.02 21.0922 23.29 23.3922 19.49C25.6922 15.69 28.7222 12.89 32.4922 11.09C36.2622 9.29001 40.4422 8.39001 45.0422 8.39001C52.9722 8.39001 58.9622 10.43 62.9922 14.49C67.0222 18.56 69.0422 23.86 69.0422 30.39C69.0422 37.52 66.6122 44.14 61.7422 50.24C56.8722 56.34 50.6722 62.29 43.1422 68.09H70.1422V81.99H19.9422V69.29C22.2122 67.49 23.2422 66.66 23.0422 66.79Z" fill="#A6843B" stroke="#A6843B" stroke-width="4" stroke-linecap="round" stroke-linejoin="round"/>
<path d="M81.9906 81.14C80.0906 79.37 79.1406 77.19 79.1406 74.59C79.1406 71.99 80.0906 69.69 81.9906 67.89C83.8906 66.09 86.3406 65.19 89.3406 65.19C92.3406 65.19 94.6906 66.09 96.5906 67.89C98.4906 69.69 99.4406 71.93 99.4406 74.59C99.4406 77.25 98.4906 79.38 96.5906 81.14C94.6906 82.91 92.2706 83.79 89.3406 83.79C86.4106 83.79 83.8906 82.91 81.9906 81.14Z" fill="#A6843B" stroke="#A6843B" stroke-width="4" stroke-linecap="round" stroke-linejoin="round"/>
<path d="M147.044 29.94C145.574 26.31 142.544 24.49 137.944 24.49C133.344 24.49 130.314 26.31 128.844 29.94C127.374 33.57 126.644 38.76 126.644 45.49C126.644 50.03 126.914 53.78 127.444 56.74C127.974 59.71 129.064 62.11 130.694 63.94C132.324 65.77 134.744 66.69 137.944 66.69C141.144 66.69 143.564 65.77 145.194 63.94C146.824 62.11 147.914 59.71 148.444 56.74C148.974 53.78 149.244 50.03 149.244 45.49C149.244 38.76 148.514 33.57 147.044 29.94ZM116.494 18.39C120.924 11.79 128.074 8.48999 137.944 8.48999C147.814 8.48999 154.964 11.79 159.394 18.39C163.824 24.99 166.044 34.02 166.044 45.49C166.044 56.96 163.824 66.19 159.394 72.79C154.964 79.39 147.814 82.69 137.944 82.69C128.074 82.69 120.924 79.39 116.494 72.79C112.064 66.19 109.844 57.09 109.844 45.49C109.844 33.89 112.064 24.99 116.494 18.39Z" fill="#A6843B" stroke="#A6843B" stroke-width="4" stroke-linecap="round" stroke-linejoin="round"/>
<path d="M223.644 22.79L198.544 82.99H181.044L206.444 24.69H175.344V10.09H223.644V22.79Z" fill="#A6843B" stroke="#A6843B" stroke-width="4" stroke-linecap="round" stroke-linejoin="round"/>
<path d="M283.945 24.89H252.745V38.69C254.075 37.22 255.945 36.02 258.345 35.09C260.745 34.16 263.345 33.69 266.145 33.69C271.145 33.69 275.295 34.82 278.595 37.09C281.895 39.36 284.315 42.29 285.845 45.89C287.375 49.49 288.145 53.39 288.145 57.59C288.145 65.39 285.945 71.57 281.545 76.14C277.145 80.71 270.945 82.99 262.945 82.99C257.615 82.99 252.975 82.07 249.045 80.24C245.115 78.41 242.075 75.86 239.945 72.59C237.815 69.32 236.645 65.56 236.445 61.29H253.145C253.545 63.36 254.515 65.07 256.045 66.44C257.575 67.81 259.675 68.49 262.345 68.49C265.475 68.49 267.815 67.49 269.345 65.49C270.875 63.49 271.645 60.82 271.645 57.49C271.645 54.16 270.845 51.72 269.245 49.99C267.645 48.26 265.315 47.39 262.245 47.39C259.975 47.39 258.115 47.94 256.645 49.04C255.175 50.14 254.215 51.59 253.745 53.39H237.245V9.89001H283.945V24.89Z" fill="#A6843B" stroke="#A6843B" stroke-width="4" stroke-linecap="round" stroke-linejoin="round"/>
<path d="M22.5734 67.08C29.1034 61.68 34.2534 57.25 38.0234 53.78C41.7934 50.32 44.9734 46.68 47.5734 42.88C50.1734 39.08 51.4734 35.38 51.4734 31.78C51.4734 29.05 50.8434 26.91 49.5734 25.38C48.3034 23.85 46.4034 23.08 43.8734 23.08C41.3434 23.08 39.3534 24.03 37.9234 25.93C36.4934 27.83 35.7734 30.51 35.7734 33.98H19.2734C19.4034 28.31 20.6234 23.58 22.9234 19.78C25.2234 15.98 28.2534 13.18 32.0234 11.38C35.7934 9.57999 39.9734 8.67999 44.5734 8.67999C52.5034 8.67999 58.4934 10.72 62.5234 14.78C66.5534 18.85 68.5734 24.15 68.5734 30.68C68.5734 37.81 66.1434 44.43 61.2734 50.53C56.4034 56.63 50.2034 62.58 42.6734 68.38H69.6734V82.28H19.4734V69.58C21.7434 67.78 22.7734 66.95 22.5734 67.08Z" fill="#A6843B" stroke="#A6843B" stroke-width="4" stroke-linecap="round" stroke-linejoin="round"/>
<path d="M81.5219 81.43C79.6219 79.66 78.6719 77.48 78.6719 74.88C78.6719 72.28 79.6219 69.98 81.5219 68.18C83.4219 66.38 85.8719 65.48 88.8719 65.48C91.8719 65.48 94.2219 66.38 96.1219 68.18C98.0219 69.98 98.9719 72.22 98.9719 74.88C98.9719 77.54 98.0219 79.67 96.1219 81.43C94.2219 83.2 91.8019 84.08 88.8719 84.08C85.9419 84.08 83.4219 83.2 81.5219 81.43Z" fill="#A6843B" stroke="#A6843B" stroke-width="4" stroke-linecap="round" stroke-linejoin="round"/>
<path d="M146.575 30.23C145.105 26.6 142.075 24.78 137.475 24.78C132.875 24.78 129.845 26.6 128.375 30.23C126.905 33.86 126.175 39.05 126.175 45.78C126.175 50.32 126.445 54.07 126.975 57.03C127.505 60 128.595 62.4 130.225 64.23C131.855 66.06 134.275 66.98 137.475 66.98C140.675 66.98 143.095 66.06 144.725 64.23C146.355 62.4 147.445 60 147.975 57.03C148.505 54.07 148.775 50.32 148.775 45.78C148.775 39.05 148.045 33.86 146.575 30.23ZM116.025 18.68C120.455 12.08 127.605 8.77997 137.475 8.77997C147.345 8.77997 154.495 12.08 158.925 18.68C163.355 25.28 165.575 34.31 165.575 45.78C165.575 57.25 163.355 66.48 158.925 73.08C154.495 79.68 147.345 82.98 137.475 82.98C127.605 82.98 120.455 79.68 116.025 73.08C111.595 66.48 109.375 57.38 109.375 45.78C109.375 34.18 111.595 25.28 116.025 18.68Z" fill="#A6843B" stroke="#A6843B" stroke-width="4" stroke-linecap="round" stroke-linejoin="round"/>
<path d="M223.175 23.08L198.075 83.28H180.575L205.975 24.98H174.875V10.38H223.175V23.08Z" fill="#A6843B" stroke="#A6843B" stroke-width="4" stroke-linecap="round" stroke-linejoin="round"/>
<path d="M283.477 25.18H252.277V38.98C253.607 37.51 255.477 36.31 257.877 35.38C260.277 34.45 262.877 33.98 265.677 33.98C270.677 33.98 274.827 35.11 278.127 37.38C281.427 39.65 283.847 42.58 285.377 46.18C286.907 49.78 287.677 53.68 287.677 57.88C287.677 65.68 285.477 71.86 281.077 76.43C276.677 81 270.477 83.28 262.477 83.28C257.147 83.28 252.507 82.36 248.577 80.53C244.647 78.7 241.607 76.15 239.477 72.88C237.347 69.61 236.177 65.85 235.977 61.58H252.677C253.077 63.65 254.047 65.36 255.577 66.73C257.107 68.1 259.207 68.78 261.877 68.78C265.007 68.78 267.347 67.78 268.877 65.78C270.407 63.78 271.177 61.11 271.177 57.78C271.177 54.45 270.377 52.01 268.777 50.28C267.177 48.55 264.847 47.68 261.777 47.68C259.507 47.68 257.647 48.23 256.177 49.33C254.707 50.43 253.747 51.88 253.277 53.68H236.777V10.18H283.477V25.18Z" fill="#A6843B" stroke="#A6843B" stroke-width="4" stroke-linecap="round" stroke-linejoin="round"/>
<path d="M22.0969 67.38C28.6269 61.98 33.7769 57.55 37.5469 54.08C41.3169 50.62 44.4969 46.98 47.0969 43.18C49.6969 39.38 50.9969 35.68 50.9969 32.08C50.9969 29.35 50.3669 27.21 49.0969 25.68C47.8269 24.15 45.9269 23.38 43.3969 23.38C40.8669 23.38 38.8769 24.33 37.4469 26.23C36.0169 28.13 35.2969 30.81 35.2969 34.28H18.7969C18.9269 28.61 20.1469 23.88 22.4469 20.08C24.7469 16.28 27.7769 13.48 31.5469 11.68C35.3169 9.87998 39.4969 8.97998 44.0969 8.97998C52.0269 8.97998 58.0169 11.02 62.0469 15.08C66.0769 19.15 68.0969 24.45 68.0969 30.98C68.0969 38.11 65.6669 44.73 60.7969 50.83C55.9269 56.93 49.7269 62.88 42.1969 68.68H69.1969V82.58H18.9969V69.88C21.2669 68.08 22.2969 67.25 22.0969 67.38Z" fill="#A6843B" stroke="#A6843B" stroke-width="4" stroke-linecap="round" stroke-linejoin="round"/>
<path d="M81.0453 81.73C79.1453 79.96 78.1953 77.78 78.1953 75.18C78.1953 72.58 79.1453 70.28 81.0453 68.48C82.9453 66.68 85.3953 65.78 88.3953 65.78C91.3953 65.78 93.7453 66.68 95.6453 68.48C97.5453 70.28 98.4953 72.52 98.4953 75.18C98.4953 77.84 97.5453 79.97 95.6453 81.73C93.7453 83.5 91.3253 84.38 88.3953 84.38C85.4653 84.38 82.9453 83.5 81.0453 81.73Z" fill="#A6843B" stroke="#A6843B" stroke-width="4" stroke-linecap="round" stroke-linejoin="round"/>
<path d="M146.098 30.53C144.628 26.9 141.598 25.08 136.998 25.08C132.398 25.08 129.368 26.9 127.898 30.53C126.428 34.16 125.698 39.35 125.698 46.08C125.698 50.62 125.968 54.37 126.498 57.33C127.028 60.3 128.118 62.7 129.748 64.53C131.378 66.36 133.798 67.28 136.998 67.28C140.198 67.28 142.618 66.36 144.248 64.53C145.878 62.7 146.968 60.3 147.498 57.33C148.028 54.37 148.298 50.62 148.298 46.08C148.298 39.35 147.568 34.16 146.098 30.53ZM115.548 18.98C119.978 12.38 127.128 9.07996 136.998 9.07996C146.868 9.07996 154.018 12.38 158.448 18.98C162.878 25.58 165.098 34.61 165.098 46.08C165.098 57.55 162.878 66.78 158.448 73.38C154.018 79.9799 146.868 83.28 136.998 83.28C127.128 83.28 119.978 79.9799 115.548 73.38C111.118 66.78 108.898 57.68 108.898 46.08C108.898 34.48 111.118 25.58 115.548 18.98Z" fill="#A6843B" stroke="#A6843B" stroke-width="4" stroke-linecap="round" stroke-linejoin="round"/>
<path d="M222.698 23.38L197.598 83.58H180.098L205.498 25.28H174.398V10.68H222.698V23.38Z" fill="#A6843B" stroke="#A6843B" stroke-width="4" stroke-linecap="round" stroke-linejoin="round"/>
<path d="M283 25.48H251.8V39.28C253.13 37.81 255 36.61 257.4 35.68C259.8 34.75 262.4 34.28 265.2 34.28C270.2 34.28 274.35 35.41 277.65 37.68C280.95 39.95 283.37 42.88 284.9 46.48C286.43 50.08 287.2 53.98 287.2 58.18C287.2 65.98 285 72.16 280.6 76.73C276.2 81.3 270 83.58 262 83.58C256.67 83.58 252.03 82.66 248.1 80.83C244.17 79 241.13 76.45 239 73.18C236.87 69.91 235.7 66.15 235.5 61.88H252.2C252.6 63.95 253.57 65.66 255.1 67.03C256.63 68.4 258.73 69.08 261.4 69.08C264.53 69.08 266.87 68.08 268.4 66.08C269.93 64.08 270.7 61.41 270.7 58.08C270.7 54.75 269.9 52.31 268.3 50.58C266.7 48.85 264.37 47.98 261.3 47.98C259.03 47.98 257.17 48.53 255.7 49.63C254.23 50.73 253.27 52.18 252.8 53.98H236.3V10.48H283V25.48Z" fill="#A6843B" stroke="#A6843B" stroke-width="4" stroke-linecap="round" stroke-linejoin="round"/>
<path d="M21.6281 67.67C28.1581 62.27 33.3081 57.84 37.0781 54.37C40.8481 50.91 44.0281 47.27 46.6281 43.47C49.2281 39.67 50.5281 35.97 50.5281 32.37C50.5281 29.64 49.8981 27.5 48.6281 25.97C47.3581 24.44 45.4581 23.67 42.9281 23.67C40.3981 23.67 38.4081 24.62 36.9781 26.52C35.5481 28.42 34.8281 31.1 34.8281 34.57H18.3281C18.4581 28.9 19.6781 24.17 21.9781 20.37C24.2781 16.57 27.3081 13.77 31.0781 11.97C34.8481 10.17 39.0281 9.26996 43.6281 9.26996C51.5581 9.26996 57.5481 11.31 61.5781 15.37C65.6081 19.44 67.6281 24.74 67.6281 31.27C67.6281 38.4 65.1981 45.02 60.3281 51.12C55.4581 57.22 49.2581 63.17 41.7281 68.97H68.7281V82.87H18.5281V70.17C20.7981 68.37 21.8281 67.54 21.6281 67.67Z" fill="#A6843B" stroke="#A6843B" stroke-width="4" stroke-linecap="round" stroke-linejoin="round"/>
<path d="M80.5766 82.0199C78.6766 80.2499 77.7266 78.0699 77.7266 75.4699C77.7266 72.8699 78.6766 70.5699 80.5766 68.7699C82.4766 66.9699 84.9266 66.0699 87.9266 66.0699C90.9266 66.0699 93.2766 66.9699 95.1766 68.7699C97.0766 70.5699 98.0266 72.8099 98.0266 75.4699C98.0266 78.1299 97.0766 80.2599 95.1766 82.0199C93.2766 83.7899 90.8566 84.6699 87.9266 84.6699C84.9966 84.6699 82.4766 83.7899 80.5766 82.0199Z" fill="#A6843B" stroke="#A6843B" stroke-width="4" stroke-linecap="round" stroke-linejoin="round"/>
<path d="M145.63 30.8199C144.16 27.1899 141.13 25.3699 136.53 25.3699C131.93 25.3699 128.9 27.1899 127.43 30.8199C125.96 34.4499 125.23 39.6399 125.23 46.3699C125.23 50.9099 125.5 54.6599 126.03 57.6199C126.56 60.5899 127.65 62.9899 129.28 64.8199C130.91 66.6499 133.33 67.5699 136.53 67.5699C139.73 67.5699 142.15 66.6499 143.78 64.8199C145.41 62.9899 146.5 60.5899 147.03 57.6199C147.56 54.6599 147.83 50.9099 147.83 46.3699C147.83 39.6399 147.1 34.4499 145.63 30.8199ZM115.08 19.2699C119.51 12.6699 126.66 9.36993 136.53 9.36993C146.4 9.36993 153.55 12.6699 157.98 19.2699C162.41 25.8699 164.63 34.8999 164.63 46.3699C164.63 57.8399 162.41 67.0699 157.98 73.6699C153.55 80.2699 146.4 83.5699 136.53 83.5699C126.66 83.5699 119.51 80.2699 115.08 73.6699C110.65 67.0699 108.43 57.9699 108.43 46.3699C108.43 34.7699 110.65 25.8699 115.08 19.2699Z" fill="#A6843B" stroke="#A6843B" stroke-width="4" stroke-linecap="round" stroke-linejoin="round"/>
<path d="M222.23 23.67L197.13 83.87H179.63L205.03 25.57H173.93V10.97H222.23V23.67Z" fill="#A6843B" stroke="#A6843B" stroke-width="4" stroke-linecap="round" stroke-linejoin="round"/>
<path d="M282.516 25.77H251.316V39.57C252.646 38.1 254.516 36.9 256.916 35.97C259.316 35.04 261.916 34.57 264.716 34.57C269.716 34.57 273.866 35.7 277.166 37.97C280.466 40.24 282.886 43.17 284.416 46.77C285.946 50.37 286.716 54.27 286.716 58.47C286.716 66.27 284.516 72.45 280.116 77.02C275.716 81.59 269.516 83.87 261.516 83.87C256.186 83.87 251.546 82.95 247.616 81.12C243.686 79.29 240.646 76.74 238.516 73.47C236.386 70.2 235.216 66.44 235.016 62.17H251.716C252.116 64.24 253.086 65.95 254.616 67.32C256.146 68.69 258.246 69.37 260.916 69.37C264.046 69.37 266.386 68.37 267.916 66.37C269.446 64.37 270.216 61.7 270.216 58.37C270.216 55.04 269.416 52.6 267.816 50.87C266.216 49.14 263.886 48.27 260.816 48.27C258.546 48.27 256.686 48.82 255.216 49.92C253.746 51.02 252.786 52.47 252.316 54.27H235.816V10.77H282.516V25.77Z" fill="#A6843B" stroke="#A6843B" stroke-width="4" stroke-linecap="round" stroke-linejoin="round"/>
<path d="M21.1594 67.96C27.6894 62.56 32.8394 58.13 36.6094 54.66C40.3794 51.2 43.5594 47.56 46.1594 43.76C48.7594 39.96 50.0594 36.26 50.0594 32.66C50.0594 29.93 49.4294 27.79 48.1594 26.26C46.8894 24.73 44.9894 23.96 42.4594 23.96C39.9294 23.96 37.9394 24.91 36.5094 26.81C35.0794 28.71 34.3594 31.39 34.3594 34.86H17.8594C17.9894 29.19 19.2094 24.46 21.5094 20.66C23.8094 16.86 26.8394 14.06 30.6094 12.26C34.3794 10.46 38.5594 9.56 43.1594 9.56C51.0894 9.56 57.0794 11.6 61.1094 15.66C65.1394 19.73 67.1594 25.03 67.1594 31.56C67.1594 38.69 64.7294 45.31 59.8594 51.41C54.9894 57.51 48.7894 63.46 41.2594 69.26H68.2594V83.16H18.0594V70.46C20.3294 68.66 21.3594 67.83 21.1594 67.96Z" fill="#A6843B" stroke="#A6843B" stroke-width="4" stroke-linecap="round" stroke-linejoin="round"/>
<path d="M80.1078 82.31C78.2078 80.54 77.2578 78.36 77.2578 75.76C77.2578 73.16 78.2078 70.86 80.1078 69.06C82.0078 67.26 84.4578 66.36 87.4578 66.36C90.4578 66.36 92.8078 67.26 94.7078 69.06C96.6078 70.86 97.5578 73.1 97.5578 75.76C97.5578 78.42 96.6078 80.55 94.7078 82.31C92.8078 84.08 90.3878 84.96 87.4578 84.96C84.5278 84.96 82.0078 84.08 80.1078 82.31Z" fill="#A6843B" stroke="#A6843B" stroke-width="4" stroke-linecap="round" stroke-linejoin="round"/>
<path d="M145.161 31.12C143.691 27.49 140.661 25.67 136.061 25.67C131.461 25.67 128.431 27.49 126.961 31.12C125.491 34.75 124.761 39.94 124.761 46.67C124.761 51.21 125.031 54.96 125.561 57.92C126.091 60.89 127.181 63.29 128.811 65.12C130.441 66.95 132.861 67.87 136.061 67.87C139.261 67.87 141.681 66.95 143.311 65.12C144.941 63.29 146.031 60.89 146.561 57.92C147.091 54.96 147.361 51.21 147.361 46.67C147.361 39.94 146.631 34.75 145.161 31.12ZM114.611 19.57C119.041 12.97 126.191 9.66998 136.061 9.66998C145.931 9.66998 153.081 12.97 157.511 19.57C161.941 26.17 164.161 35.2 164.161 46.67C164.161 58.14 161.941 67.37 157.511 73.97C153.081 80.57 145.931 83.87 136.061 83.87C126.191 83.87 119.041 80.57 114.611 73.97C110.181 67.37 107.961 58.27 107.961 46.67C107.961 35.07 110.181 26.17 114.611 19.57Z" fill="#A6843B" stroke="#A6843B" stroke-width="4" stroke-linecap="round" stroke-linejoin="round"/>
<path d="M221.761 23.96L196.661 84.16H179.161L204.561 25.87H173.461V11.26H221.761V23.96Z" fill="#A6843B" stroke="#A6843B" stroke-width="4" stroke-linecap="round" stroke-linejoin="round"/>
<path d="M282.047 26.06H250.847V39.86C252.177 38.39 254.047 37.19 256.447 36.26C258.847 35.33 261.447 34.86 264.247 34.86C269.247 34.86 273.397 35.99 276.697 38.26C279.997 40.53 282.417 43.46 283.947 47.06C285.477 50.66 286.247 54.56 286.247 58.76C286.247 66.56 284.047 72.74 279.647 77.31C275.247 81.88 269.047 84.16 261.047 84.16C255.717 84.16 251.077 83.24 247.147 81.41C243.217 79.58 240.177 77.03 238.047 73.76C235.917 70.49 234.747 66.73 234.547 62.46H251.247C251.647 64.53 252.617 66.24 254.147 67.61C255.677 68.98 257.777 69.66 260.447 69.66C263.577 69.66 265.917 68.66 267.447 66.66C268.977 64.66 269.747 61.99 269.747 58.66C269.747 55.33 268.947 52.89 267.347 51.16C265.747 49.43 263.417 48.56 260.347 48.56C258.077 48.56 256.217 49.11 254.747 50.21C253.277 51.31 252.317 52.76 251.847 54.56H235.347V11.06H282.047V26.06Z" fill="#A6843B" stroke="#A6843B" stroke-width="4" stroke-linecap="round" stroke-linejoin="round"/>
<path d="M20.6906 68.26C27.2206 62.86 32.3706 58.43 36.1406 54.96C39.9106 51.5 43.0906 47.86 45.6906 44.06C48.2906 40.26 49.5906 36.56 49.5906 32.96C49.5906 30.23 48.9606 28.09 47.6906 26.56C46.4206 25.03 44.5206 24.26 41.9906 24.26C39.4606 24.26 37.4706 25.21 36.0406 27.11C34.6106 29.01 33.8906 31.69 33.8906 35.16H17.3906C17.5206 29.49 18.7406 24.76 21.0406 20.96C23.3406 17.16 26.3706 14.36 30.1406 12.56C33.9106 10.76 38.0906 9.85999 42.6906 9.85999C50.6206 9.85999 56.6106 11.9 60.6406 15.96C64.6706 20.03 66.6906 25.33 66.6906 31.86C66.6906 38.99 64.2606 45.61 59.3906 51.71C54.5206 57.81 48.3206 63.76 40.7906 69.56H67.7906V83.46H17.5906V70.76C19.8606 68.96 20.8906 68.13 20.6906 68.26Z" fill="#A6843B" stroke="#A6843B" stroke-width="4" stroke-linecap="round" stroke-linejoin="round"/>
<path d="M79.6391 82.61C77.7391 80.84 76.7891 78.66 76.7891 76.06C76.7891 73.46 77.7391 71.16 79.6391 69.36C81.5391 67.56 83.9891 66.66 86.9891 66.66C89.9891 66.66 92.3391 67.56 94.2391 69.36C96.1391 71.16 97.0891 73.4 97.0891 76.06C97.0891 78.72 96.1391 80.85 94.2391 82.61C92.3391 84.38 89.9191 85.26 86.9891 85.26C84.0591 85.26 81.5391 84.38 79.6391 82.61Z" fill="#A6843B" stroke="#A6843B" stroke-width="4" stroke-linecap="round" stroke-linejoin="round"/>
<path d="M144.692 31.41C143.222 27.78 140.192 25.96 135.592 25.96C130.992 25.96 127.962 27.78 126.492 31.41C125.022 35.04 124.292 40.23 124.292 46.96C124.292 51.5 124.562 55.25 125.092 58.21C125.622 61.18 126.712 63.58 128.342 65.41C129.972 67.24 132.392 68.16 135.592 68.16C138.792 68.16 141.212 67.24 142.842 65.41C144.472 63.58 145.562 61.18 146.092 58.21C146.622 55.25 146.892 51.5 146.892 46.96C146.892 40.23 146.162 35.04 144.692 31.41ZM114.142 19.86C118.572 13.26 125.722 9.95996 135.592 9.95996C145.462 9.95996 152.612 13.26 157.042 19.86C161.472 26.46 163.692 35.49 163.692 46.96C163.692 58.43 161.472 67.66 157.042 74.26C152.612 80.86 145.462 84.16 135.592 84.16C125.722 84.16 118.572 80.86 114.142 74.26C109.712 67.66 107.492 58.56 107.492 46.96C107.492 35.36 109.712 26.46 114.142 19.86Z" fill="#A6843B" stroke="#A6843B" stroke-width="4" stroke-linecap="round" stroke-linejoin="round"/>
<path d="M221.284 24.26L196.184 84.46H178.684L204.084 26.16H172.984V11.56H221.284V24.26Z" fill="#A6843B" stroke="#A6843B" stroke-width="4" stroke-linecap="round" stroke-linejoin="round"/>
<path d="M281.578 26.36H250.378V40.16C251.708 38.69 253.578 37.49 255.978 36.56C258.378 35.63 260.978 35.16 263.778 35.16C268.778 35.16 272.928 36.29 276.228 38.56C279.528 40.83 281.948 43.76 283.478 47.36C285.008 50.96 285.778 54.86 285.778 59.06C285.778 66.86 283.578 73.04 279.178 77.61C274.778 82.18 268.578 84.46 260.578 84.46C255.248 84.46 250.608 83.54 246.678 81.71C242.748 79.88 239.708 77.33 237.578 74.06C235.448 70.79 234.278 67.03 234.078 62.76H250.778C251.178 64.83 252.148 66.54 253.678 67.91C255.208 69.28 257.308 69.96 259.978 69.96C263.108 69.96 265.448 68.96 266.978 66.96C268.508 64.96 269.278 62.29 269.278 58.96C269.278 55.63 268.478 53.19 266.878 51.46C265.278 49.73 262.948 48.86 259.878 48.86C257.608 48.86 255.748 49.41 254.278 50.51C252.808 51.61 251.848 53.06 251.378 54.86H234.878V11.36H281.578V26.36Z" fill="#A6843B" stroke="#A6843B" stroke-width="4" stroke-linecap="round" stroke-linejoin="round"/>
<path d="M20.2219 68.55C26.7519 63.15 31.9019 58.72 35.6719 55.25C39.4419 51.79 42.6219 48.15 45.2219 44.35C47.8219 40.55 49.1219 36.85 49.1219 33.25C49.1219 30.52 48.4919 28.38 47.2219 26.85C45.9519 25.32 44.0519 24.55 41.5219 24.55C38.9919 24.55 37.0019 25.5 35.5719 27.4C34.1419 29.3 33.4219 31.98 33.4219 35.45H16.9219C17.0519 29.78 18.2719 25.05 20.5719 21.25C22.8719 17.45 25.9019 14.65 29.6719 12.85C33.4419 11.05 37.6219 10.15 42.2219 10.15C50.1519 10.15 56.1419 12.19 60.1719 16.25C64.2019 20.32 66.2219 25.62 66.2219 32.15C66.2219 39.28 63.7919 45.9 58.9219 52C54.0519 58.1 47.8519 64.05 40.3219 69.85H67.3219V83.75H17.1219V71.05C19.3919 69.25 20.4219 68.42 20.2219 68.55Z" fill="#A6843B" stroke="#A6843B" stroke-width="4" stroke-linecap="round" stroke-linejoin="round"/>
<path d="M79.1703 82.9C77.2703 81.13 76.3203 78.95 76.3203 76.35C76.3203 73.75 77.2703 71.45 79.1703 69.65C81.0703 67.85 83.5203 66.95 86.5203 66.95C89.5203 66.95 91.8703 67.85 93.7703 69.65C95.6703 71.45 96.6203 73.69 96.6203 76.35C96.6203 79.01 95.6703 81.14 93.7703 82.9C91.8703 84.67 89.4503 85.55 86.5203 85.55C83.5903 85.55 81.0703 84.67 79.1703 82.9Z" fill="#A6843B" stroke="#A6843B" stroke-width="4" stroke-linecap="round" stroke-linejoin="round"/>
<path d="M144.223 31.6999C142.753 28.0699 139.723 26.2499 135.123 26.2499C130.523 26.2499 127.493 28.0699 126.023 31.6999C124.553 35.3299 123.823 40.5199 123.823 47.2499C123.823 51.7899 124.093 55.5399 124.623 58.4999C125.153 61.4699 126.243 63.8699 127.873 65.6999C129.503 67.5299 131.923 68.4499 135.123 68.4499C138.323 68.4499 140.743 67.5299 142.373 65.6999C144.003 63.8699 145.093 61.4699 145.623 58.4999C146.153 55.5399 146.423 51.7899 146.423 47.2499C146.423 40.5199 145.693 35.3299 144.223 31.6999ZM113.673 20.1499C118.103 13.5499 125.253 10.2499 135.123 10.2499C144.993 10.2499 152.143 13.5499 156.573 20.1499C161.003 26.7499 163.223 35.7799 163.223 47.2499C163.223 58.7199 161.003 67.9499 156.573 74.5499C152.143 81.1499 144.993 84.4499 135.123 84.4499C125.253 84.4499 118.103 81.1499 113.673 74.5499C109.243 67.9499 107.023 58.8499 107.023 47.2499C107.023 35.6499 109.243 26.7499 113.673 20.1499Z" fill="#A6843B" stroke="#A6843B" stroke-width="4" stroke-linecap="round" stroke-linejoin="round"/>
<path d="M220.816 24.55L195.716 84.75H178.216L203.616 26.45H172.516V11.85H220.816V24.55Z" fill="#A6843B" stroke="#A6843B" stroke-width="4" stroke-linecap="round" stroke-linejoin="round"/>
<path d="M281.109 26.65H249.909V40.45C251.239 38.98 253.109 37.78 255.509 36.85C257.909 35.92 260.509 35.45 263.309 35.45C268.309 35.45 272.459 36.58 275.759 38.85C279.059 41.12 281.479 44.05 283.009 47.65C284.539 51.25 285.309 55.15 285.309 59.35C285.309 67.15 283.109 73.33 278.709 77.9C274.309 82.47 268.109 84.75 260.109 84.75C254.779 84.75 250.139 83.83 246.209 82C242.279 80.17 239.239 77.62 237.109 74.35C234.979 71.08 233.809 67.32 233.609 63.05H250.309C250.709 65.12 251.679 66.83 253.209 68.2C254.739 69.57 256.839 70.25 259.509 70.25C262.639 70.25 264.979 69.25 266.509 67.25C268.039 65.25 268.809 62.58 268.809 59.25C268.809 55.92 268.009 53.48 266.409 51.75C264.809 50.02 262.479 49.15 259.409 49.15C257.139 49.15 255.279 49.7 253.809 50.8C252.339 51.9 251.379 53.35 250.909 55.15H234.409V11.65H281.109V26.65Z" fill="#A6843B" stroke="#A6843B" stroke-width="4" stroke-linecap="round" stroke-linejoin="round"/>
<path d="M19.7375 68.85C26.2675 63.45 31.4175 59.02 35.1875 55.55C38.9575 52.09 42.1375 48.45 44.7375 44.65C47.3375 40.85 48.6375 37.15 48.6375 33.55C48.6375 30.82 48.0075 28.68 46.7375 27.15C45.4675 25.62 43.5675 24.85 41.0375 24.85C38.5075 24.85 36.5175 25.8 35.0875 27.7C33.6575 29.6 32.9375 32.28 32.9375 35.75H16.4375C16.5675 30.08 17.7875 25.35 20.0875 21.55C22.3875 17.75 25.4175 14.95 29.1875 13.15C32.9575 11.35 37.1375 10.45 41.7375 10.45C49.6675 10.45 55.6575 12.49 59.6875 16.55C63.7175 20.62 65.7375 25.92 65.7375 32.45C65.7375 39.58 63.3075 46.2 58.4375 52.3C53.5675 58.4 47.3675 64.35 39.8375 70.15H66.8375V84.05H16.6375V71.35C18.9075 69.55 19.9375 68.72 19.7375 68.85Z" fill="#A6843B" stroke="#A6843B" stroke-width="4" stroke-linecap="round" stroke-linejoin="round"/>
<path d="M78.6859 83.2C76.7859 81.43 75.8359 79.25 75.8359 76.65C75.8359 74.05 76.7859 71.75 78.6859 69.95C80.5859 68.15 83.0359 67.25 86.0359 67.25C89.0359 67.25 91.3859 68.15 93.2859 69.95C95.1859 71.75 96.1359 73.99 96.1359 76.65C96.1359 79.31 95.1859 81.44 93.2859 83.2C91.3859 84.97 88.9659 85.85 86.0359 85.85C83.1059 85.85 80.5859 84.97 78.6859 83.2Z" fill="#A6843B" stroke="#A6843B" stroke-width="4" stroke-linecap="round" stroke-linejoin="round"/>
<path d="M143.739 32C142.269 28.37 139.239 26.55 134.639 26.55C130.039 26.55 127.009 28.37 125.539 32C124.069 35.63 123.339 40.82 123.339 47.55C123.339 52.09 123.609 55.84 124.139 58.8C124.669 61.77 125.759 64.17 127.389 66C129.019 67.83 131.439 68.75 134.639 68.75C137.839 68.75 140.259 67.83 141.889 66C143.519 64.17 144.609 61.77 145.139 58.8C145.669 55.84 145.939 52.09 145.939 47.55C145.939 40.82 145.209 35.63 143.739 32ZM113.189 20.45C117.619 13.85 124.769 10.55 134.639 10.55C144.509 10.55 151.659 13.85 156.089 20.45C160.519 27.05 162.739 36.08 162.739 47.55C162.739 59.02 160.519 68.25 156.089 74.85C151.659 81.45 144.509 84.75 134.639 84.75C124.769 84.75 117.619 81.45 113.189 74.85C108.759 68.25 106.539 59.15 106.539 47.55C106.539 35.95 108.759 27.05 113.189 20.45Z" fill="#A6843B" stroke="#A6843B" stroke-width="4" stroke-linecap="round" stroke-linejoin="round"/>
<path d="M220.339 24.85L195.239 85.05H177.739L203.139 26.75H172.039V12.15H220.339V24.85Z" fill="#A6843B" stroke="#A6843B" stroke-width="4" stroke-linecap="round" stroke-linejoin="round"/>
<path d="M280.641 26.95H249.441V40.75C250.771 39.28 252.641 38.08 255.041 37.15C257.441 36.22 260.041 35.75 262.841 35.75C267.841 35.75 271.991 36.88 275.291 39.15C278.591 41.42 281.011 44.35 282.541 47.95C284.071 51.55 284.841 55.45 284.841 59.65C284.841 67.45 282.641 73.63 278.241 78.2C273.841 82.77 267.641 85.05 259.641 85.05C254.311 85.05 249.671 84.13 245.741 82.3C241.811 80.47 238.771 77.92 236.641 74.65C234.511 71.38 233.341 67.62 233.141 63.35H249.841C250.241 65.42 251.211 67.13 252.741 68.5C254.271 69.87 256.371 70.55 259.041 70.55C262.171 70.55 264.511 69.55 266.041 67.55C267.571 65.55 268.341 62.88 268.341 59.55C268.341 56.22 267.541 53.78 265.941 52.05C264.341 50.32 262.011 49.45 258.941 49.45C256.671 49.45 254.811 50 253.341 51.1C251.871 52.2 250.911 53.65 250.441 55.45H233.941V11.95H280.641V26.95Z" fill="#A6843B" stroke="#A6843B" stroke-width="4" stroke-linecap="round" stroke-linejoin="round"/>
<path d="M19.2688 69.14C25.7987 63.74 30.9487 59.31 34.7188 55.84C38.4888 52.38 41.6687 48.74 44.2687 44.94C46.8687 41.14 48.1687 37.44 48.1687 33.84C48.1687 31.11 47.5387 28.97 46.2687 27.44C44.9987 25.91 43.0987 25.14 40.5687 25.14C38.0387 25.14 36.0487 26.09 34.6187 27.99C33.1887 29.89 32.4688 32.57 32.4688 36.04H15.9688C16.0987 30.37 17.3188 25.64 19.6188 21.84C21.9188 18.04 24.9487 15.24 28.7187 13.44C32.4887 11.64 36.6687 10.74 41.2687 10.74C49.1987 10.74 55.1888 12.78 59.2188 16.84C63.2487 20.91 65.2687 26.21 65.2687 32.74C65.2687 39.87 62.8387 46.49 57.9688 52.59C53.0988 58.69 46.8987 64.64 39.3687 70.44H66.3688V84.34H16.1687V71.64C18.4387 69.84 19.4688 69.01 19.2688 69.14Z" fill="#A6843B" stroke="#A6843B" stroke-width="4" stroke-linecap="round" stroke-linejoin="round"/>
<path d="M78.2172 83.49C76.3172 81.72 75.3672 79.54 75.3672 76.94C75.3672 74.34 76.3172 72.04 78.2172 70.24C80.1172 68.44 82.5672 67.54 85.5672 67.54C88.5672 67.54 90.9172 68.44 92.8172 70.24C94.7172 72.04 95.6672 74.28 95.6672 76.94C95.6672 79.6 94.7172 81.73 92.8172 83.49C90.9172 85.26 88.4972 86.14 85.5672 86.14C82.6372 86.14 80.1172 85.26 78.2172 83.49Z" fill="#A6843B" stroke="#A6843B" stroke-width="4" stroke-linecap="round" stroke-linejoin="round"/>
<path d="M143.27 32.29C141.8 28.66 138.77 26.84 134.17 26.84C129.57 26.84 126.54 28.66 125.07 32.29C123.6 35.92 122.87 41.11 122.87 47.84C122.87 52.38 123.14 56.13 123.67 59.09C124.2 62.06 125.29 64.46 126.92 66.29C128.55 68.12 130.97 69.04 134.17 69.04C137.37 69.04 139.79 68.12 141.42 66.29C143.05 64.46 144.14 62.06 144.67 59.09C145.2 56.13 145.47 52.38 145.47 47.84C145.47 41.11 144.74 35.92 143.27 32.29ZM112.72 20.74C117.15 14.14 124.3 10.84 134.17 10.84C144.04 10.84 151.19 14.14 155.62 20.74C160.05 27.34 162.27 36.37 162.27 47.84C162.27 59.31 160.05 68.54 155.62 75.14C151.19 81.74 144.04 85.04 134.17 85.04C124.3 85.04 117.15 81.74 112.72 75.14C108.29 68.54 106.07 59.44 106.07 47.84C106.07 36.24 108.29 27.34 112.72 20.74Z" fill="#A6843B" stroke="#A6843B" stroke-width="4" stroke-linecap="round" stroke-linejoin="round"/>
<path d="M219.87 25.14L194.77 85.34H177.27L202.67 27.04H171.57V12.44H219.87V25.14Z" fill="#A6843B" stroke="#A6843B" stroke-width="4" stroke-linecap="round" stroke-linejoin="round"/>
<path d="M280.172 27.24H248.972V41.04C250.302 39.57 252.172 38.37 254.572 37.44C256.972 36.51 259.572 36.04 262.372 36.04C267.372 36.04 271.522 37.17 274.822 39.44C278.122 41.71 280.542 44.64 282.072 48.24C283.602 51.84 284.372 55.74 284.372 59.94C284.372 67.74 282.172 73.92 277.772 78.49C273.372 83.06 267.172 85.34 259.172 85.34C253.842 85.34 249.202 84.42 245.272 82.59C241.342 80.76 238.302 78.21 236.172 74.94C234.042 71.67 232.872 67.91 232.672 63.64H249.372C249.772 65.71 250.742 67.42 252.272 68.79C253.802 70.16 255.902 70.84 258.572 70.84C261.702 70.84 264.042 69.84 265.572 67.84C267.102 65.84 267.872 63.17 267.872 59.84C267.872 56.51 267.072 54.07 265.472 52.34C263.872 50.61 261.542 49.74 258.472 49.74C256.202 49.74 254.342 50.29 252.872 51.39C251.402 52.49 250.442 53.94 249.972 55.74H233.472V12.24H280.172V27.24Z" fill="#A6843B" stroke="#A6843B" stroke-width="4" stroke-linecap="round" stroke-linejoin="round"/>
<path d="M18.8 69.44C25.33 64.04 30.48 59.61 34.25 56.14C38.02 52.68 41.2 49.04 43.8 45.24C46.4 41.44 47.7 37.74 47.7 34.14C47.7 31.41 47.07 29.27 45.8 27.74C44.53 26.21 42.63 25.44 40.1 25.44C37.57 25.44 35.58 26.39 34.15 28.29C32.72 30.19 32 32.87 32 36.34H15.5C15.63 30.67 16.85 25.94 19.15 22.14C21.45 18.34 24.48 15.54 28.25 13.74C32.02 11.94 36.2 11.04 40.8 11.04C48.73 11.04 54.72 13.08 58.75 17.14C62.78 21.21 64.8 26.51 64.8 33.04C64.8 40.17 62.37 46.79 57.5 52.89C52.63 58.99 46.43 64.94 38.9 70.74H65.9V84.64H15.7V71.94C17.97 70.14 19 69.31 18.8 69.44Z" fill="#A6843B" stroke="#A6843B" stroke-width="4" stroke-linecap="round" stroke-linejoin="round"/>
<path d="M77.7484 83.79C75.8484 82.02 74.8984 79.84 74.8984 77.24C74.8984 74.64 75.8484 72.34 77.7484 70.54C79.6484 68.74 82.0984 67.84 85.0984 67.84C88.0984 67.84 90.4484 68.74 92.3484 70.54C94.2484 72.34 95.1984 74.58 95.1984 77.24C95.1984 79.9 94.2484 82.03 92.3484 83.79C90.4484 85.56 88.0284 86.44 85.0984 86.44C82.1684 86.44 79.6484 85.56 77.7484 83.79Z" fill="#A6843B" stroke="#A6843B" stroke-width="4" stroke-linecap="round" stroke-linejoin="round"/>
<path d="M142.802 32.59C141.332 28.96 138.302 27.14 133.702 27.14C129.102 27.14 126.072 28.96 124.602 32.59C123.132 36.22 122.402 41.41 122.402 48.14C122.402 52.68 122.672 56.43 123.202 59.39C123.732 62.36 124.822 64.7599 126.452 66.59C128.082 68.42 130.502 69.34 133.702 69.34C136.902 69.34 139.322 68.42 140.952 66.59C142.582 64.7599 143.672 62.36 144.202 59.39C144.732 56.43 145.002 52.68 145.002 48.14C145.002 41.41 144.272 36.22 142.802 32.59ZM112.252 21.04C116.682 14.44 123.832 11.14 133.702 11.14C143.572 11.14 150.722 14.44 155.152 21.04C159.582 27.64 161.802 36.67 161.802 48.14C161.802 59.61 159.582 68.84 155.152 75.44C150.722 82.04 143.572 85.34 133.702 85.34C123.832 85.34 116.682 82.04 112.252 75.44C107.822 68.84 105.602 59.74 105.602 48.14C105.602 36.54 107.822 27.64 112.252 21.04Z" fill="#A6843B" stroke="#A6843B" stroke-width="4" stroke-linecap="round" stroke-linejoin="round"/>
<path d="M219.402 25.44L194.302 85.63H176.802L202.202 27.34H171.102V12.73H219.402V25.44Z" fill="#A6843B" stroke="#A6843B" stroke-width="4" stroke-linecap="round" stroke-linejoin="round"/>
<path d="M279.703 27.54H248.503V41.34C249.833 39.87 251.703 38.67 254.103 37.74C256.503 36.81 259.103 36.34 261.903 36.34C266.903 36.34 271.053 37.47 274.353 39.74C277.653 42.01 280.073 44.94 281.603 48.54C283.133 52.14 283.903 56.04 283.903 60.24C283.903 68.04 281.703 74.22 277.303 78.79C272.903 83.36 266.703 85.64 258.703 85.64C253.373 85.64 248.733 84.72 244.803 82.89C240.873 81.06 237.833 78.51 235.703 75.24C233.573 71.97 232.403 68.21 232.203 63.94H248.903C249.303 66.01 250.273 67.72 251.803 69.09C253.333 70.46 255.433 71.14 258.103 71.14C261.233 71.14 263.573 70.14 265.103 68.14C266.633 66.14 267.403 63.47 267.403 60.14C267.403 56.81 266.603 54.37 265.003 52.64C263.403 50.91 261.073 50.04 258.003 50.04C255.733 50.04 253.873 50.59 252.403 51.69C250.933 52.79 249.973 54.24 249.503 56.04H233.003V12.54H279.703V27.54Z" fill="#A6843B" stroke="#A6843B" stroke-width="4" stroke-linecap="round" stroke-linejoin="round"/>
<path d="M18.3313 69.73C24.8612 64.33 30.0112 59.9 33.7812 56.43C37.5513 52.97 40.7313 49.33 43.3313 45.53C45.9313 41.73 47.2313 38.03 47.2313 34.43C47.2313 31.7 46.6013 29.56 45.3313 28.03C44.0613 26.5 42.1613 25.73 39.6313 25.73C37.1013 25.73 35.1113 26.68 33.6813 28.58C32.2513 30.48 31.5312 33.16 31.5312 36.63H15.0312C15.1612 30.96 16.3813 26.23 18.6813 22.43C20.9813 18.63 24.0113 15.83 27.7813 14.03C31.5513 12.23 35.7313 11.33 40.3313 11.33C48.2613 11.33 54.2513 13.37 58.2812 17.43C62.3112 21.5 64.3313 26.8 64.3313 33.33C64.3313 40.46 61.9012 47.08 57.0312 53.18C52.1613 59.28 45.9613 65.23 38.4313 71.03H65.4313V84.93H15.2312V72.23C17.5012 70.43 18.5313 69.6 18.3313 69.73Z" fill="#A6843B" stroke="#A6843B" stroke-width="4" stroke-linecap="round" stroke-linejoin="round"/>
<path d="M77.2797 84.08C75.3797 82.31 74.4297 80.13 74.4297 77.53C74.4297 74.93 75.3797 72.63 77.2797 70.83C79.1797 69.03 81.6297 68.13 84.6297 68.13C87.6297 68.13 89.9797 69.03 91.8797 70.83C93.7797 72.63 94.7297 74.87 94.7297 77.53C94.7297 80.19 93.7797 82.32 91.8797 84.08C89.9797 85.85 87.5597 86.73 84.6297 86.73C81.6997 86.73 79.1797 85.85 77.2797 84.08Z" fill="#A6843B" stroke="#A6843B" stroke-width="4" stroke-linecap="round" stroke-linejoin="round"/>
<path d="M142.333 32.88C140.863 29.25 137.833 27.43 133.233 27.43C128.633 27.43 125.603 29.25 124.133 32.88C122.663 36.51 121.933 41.7 121.933 48.43C121.933 52.97 122.203 56.72 122.733 59.68C123.263 62.65 124.353 65.05 125.983 66.88C127.613 68.71 130.033 69.63 133.233 69.63C136.433 69.63 138.853 68.71 140.483 66.88C142.113 65.05 143.203 62.65 143.733 59.68C144.263 56.72 144.533 52.97 144.533 48.43C144.533 41.7 143.803 36.51 142.333 32.88ZM111.783 21.33C116.213 14.73 123.363 11.43 133.233 11.43C143.103 11.43 150.253 14.73 154.683 21.33C159.113 27.93 161.333 36.96 161.333 48.43C161.333 59.9 159.113 69.13 154.683 75.73C150.253 82.33 143.103 85.63 133.233 85.63C123.363 85.63 116.213 82.33 111.783 75.73C107.353 69.13 105.133 60.03 105.133 48.43C105.133 36.83 107.353 27.93 111.783 21.33Z" fill="#A6843B" stroke="#A6843B" stroke-width="4" stroke-linecap="round" stroke-linejoin="round"/>
<path d="M218.933 25.73L193.833 85.93H176.333L201.733 27.63H170.633V13.03H218.933V25.73Z" fill="#A6843B" stroke="#A6843B" stroke-width="4" stroke-linecap="round" stroke-linejoin="round"/>
<path d="M279.234 27.83H248.034V41.63C249.364 40.16 251.234 38.96 253.634 38.03C256.034 37.1 258.634 36.63 261.434 36.63C266.434 36.63 270.584 37.76 273.884 40.03C277.184 42.3 279.604 45.23 281.134 48.83C282.664 52.43 283.434 56.33 283.434 60.53C283.434 68.33 281.234 74.51 276.834 79.08C272.434 83.65 266.234 85.93 258.234 85.93C252.904 85.93 248.264 85.01 244.334 83.18C240.404 81.35 237.364 78.8 235.234 75.53C233.104 72.26 231.934 68.5 231.734 64.23H248.434C248.834 66.3 249.804 68.01 251.334 69.38C252.864 70.75 254.964 71.43 257.634 71.43C260.764 71.43 263.104 70.43 264.634 68.43C266.164 66.43 266.934 63.76 266.934 60.43C266.934 57.1 266.134 54.66 264.534 52.93C262.934 51.2 260.604 50.33 257.534 50.33C255.264 50.33 253.404 50.88 251.934 51.98C250.464 53.08 249.504 54.53 249.034 56.33H232.534V12.83H279.234V27.83Z" fill="#A6843B" stroke="#A6843B" stroke-width="4" stroke-linecap="round" stroke-linejoin="round"/>
<path d="M17.8625 70.02C24.3925 64.62 29.5425 60.19 33.3125 56.72C37.0825 53.26 40.2625 49.62 42.8625 45.82C45.4625 42.02 46.7625 38.32 46.7625 34.72C46.7625 31.99 46.1325 29.85 44.8625 28.32C43.5925 26.79 41.6925 26.02 39.1625 26.02C36.6325 26.02 34.6425 26.97 33.2125 28.87C31.7825 30.77 31.0625 33.45 31.0625 36.92H14.5625C14.6925 31.25 15.9125 26.52 18.2125 22.72C20.5125 18.92 23.5425 16.12 27.3125 14.32C31.0825 12.52 35.2625 11.62 39.8625 11.62C47.7925 11.62 53.7825 13.66 57.8125 17.72C61.8425 21.79 63.8625 27.09 63.8625 33.62C63.8625 40.75 61.4325 47.37 56.5625 53.47C51.6925 59.57 45.4925 65.52 37.9625 71.32H64.9625V85.22H14.7625V72.52C17.0325 70.72 18.0625 69.89 17.8625 70.02Z" fill="#A6843B" stroke="#A6843B" stroke-width="4" stroke-linecap="round" stroke-linejoin="round"/>
<path d="M76.8109 84.37C74.9109 82.6 73.9609 80.42 73.9609 77.82C73.9609 75.22 74.9109 72.92 76.8109 71.12C78.7109 69.32 81.1609 68.42 84.1609 68.42C87.1609 68.42 89.5109 69.32 91.4109 71.12C93.3109 72.92 94.2609 75.16 94.2609 77.82C94.2609 80.48 93.3109 82.61 91.4109 84.37C89.5109 86.14 87.0909 87.02 84.1609 87.02C81.2309 87.02 78.7109 86.14 76.8109 84.37Z" fill="#A6843B" stroke="#A6843B" stroke-width="4" stroke-linecap="round" stroke-linejoin="round"/>
<path d="M141.864 33.17C140.394 29.54 137.364 27.72 132.764 27.72C128.164 27.72 125.134 29.54 123.664 33.17C122.194 36.8 121.464 41.99 121.464 48.72C121.464 53.26 121.734 57.01 122.264 59.97C122.794 62.94 123.884 65.34 125.514 67.17C127.144 69 129.564 69.92 132.764 69.92C135.964 69.92 138.384 69 140.014 67.17C141.644 65.34 142.734 62.94 143.264 59.97C143.794 57.01 144.064 53.26 144.064 48.72C144.064 41.99 143.334 36.8 141.864 33.17ZM111.314 21.62C115.744 15.02 122.894 11.72 132.764 11.72C142.634 11.72 149.784 15.02 154.214 21.62C158.644 28.22 160.864 37.25 160.864 48.72C160.864 60.19 158.644 69.42 154.214 76.02C149.784 82.62 142.634 85.92 132.764 85.92C122.894 85.92 115.744 82.62 111.314 76.02C106.884 69.42 104.664 60.32 104.664 48.72C104.664 37.12 106.884 28.22 111.314 21.62Z" fill="#A6843B" stroke="#A6843B" stroke-width="4" stroke-linecap="round" stroke-linejoin="round"/>
<path d="M218.464 26.02L193.364 86.22H175.864L201.264 27.92H170.164V13.32H218.464V26.02Z" fill="#A6843B" stroke="#A6843B" stroke-width="4" stroke-linecap="round" stroke-linejoin="round"/>
<path d="M278.766 28.12H247.566V41.92C248.896 40.45 250.766 39.25 253.166 38.32C255.566 37.39 258.166 36.92 260.966 36.92C265.966 36.92 270.116 38.05 273.416 40.32C276.716 42.59 279.136 45.52 280.666 49.12C282.196 52.72 282.966 56.62 282.966 60.82C282.966 68.62 280.766 74.8 276.366 79.37C271.966 83.94 265.766 86.22 257.766 86.22C252.436 86.22 247.796 85.3 243.866 83.47C239.936 81.64 236.896 79.09 234.766 75.82C232.636 72.55 231.466 68.79 231.266 64.52H247.966C248.366 66.59 249.336 68.3 250.866 69.67C252.396 71.04 254.496 71.72 257.166 71.72C260.296 71.72 262.636 70.72 264.166 68.72C265.696 66.72 266.466 64.05 266.466 60.72C266.466 57.39 265.666 54.95 264.066 53.22C262.466 51.49 260.136 50.62 257.066 50.62C254.796 50.62 252.936 51.17 251.466 52.27C249.996 53.37 249.036 54.82 248.566 56.62H232.066V13.12H278.766V28.12Z" fill="#A6843B" stroke="#A6843B" stroke-width="4" stroke-linecap="round" stroke-linejoin="round"/>
<path d="M17.3859 70.32C23.9159 64.92 29.0659 60.49 32.8359 57.02C36.6059 53.56 39.7859 49.92 42.3859 46.12C44.9859 42.32 46.2859 38.62 46.2859 35.02C46.2859 32.29 45.6559 30.15 44.3859 28.62C43.1159 27.09 41.2159 26.32 38.6859 26.32C36.1559 26.32 34.1659 27.27 32.7359 29.17C31.3059 31.07 30.5859 33.75 30.5859 37.22H14.0859C14.2159 31.55 15.4359 26.82 17.7359 23.02C20.0359 19.22 23.0659 16.42 26.8359 14.62C30.6059 12.82 34.7859 11.92 39.3859 11.92C47.3159 11.92 53.3059 13.96 57.3359 18.02C61.3659 22.09 63.3859 27.39 63.3859 33.92C63.3859 41.05 60.9559 47.67 56.0859 53.77C51.2159 59.87 45.0159 65.82 37.4859 71.62H64.4859V85.52H14.2859V72.82C16.5559 71.02 17.5859 70.19 17.3859 70.32Z" fill="#A6843B" stroke="#A6843B" stroke-width="4" stroke-linecap="round" stroke-linejoin="round"/>
<path d="M76.3344 84.67C74.4344 82.9 73.4844 80.72 73.4844 78.12C73.4844 75.52 74.4344 73.22 76.3344 71.42C78.2344 69.62 80.6844 68.72 83.6844 68.72C86.6844 68.72 89.0344 69.62 90.9344 71.42C92.8344 73.22 93.7844 75.46 93.7844 78.12C93.7844 80.78 92.8344 82.91 90.9344 84.67C89.0344 86.44 86.6144 87.32 83.6844 87.32C80.7544 87.32 78.2344 86.44 76.3344 84.67Z" fill="#A6843B" stroke="#A6843B" stroke-width="4" stroke-linecap="round" stroke-linejoin="round"/>
<path d="M141.387 33.47C139.917 29.84 136.887 28.02 132.287 28.02C127.687 28.02 124.657 29.84 123.188 33.47C121.718 37.1 120.987 42.29 120.987 49.02C120.987 53.56 121.257 57.31 121.787 60.27C122.317 63.24 123.407 65.64 125.037 67.47C126.667 69.3 129.087 70.22 132.287 70.22C135.487 70.22 137.907 69.3 139.537 67.47C141.167 65.64 142.257 63.24 142.787 60.27C143.317 57.31 143.587 53.56 143.587 49.02C143.587 42.29 142.857 37.1 141.387 33.47ZM110.837 21.92C115.267 15.32 122.417 12.02 132.287 12.02C142.157 12.02 149.308 15.32 153.738 21.92C158.168 28.52 160.387 37.55 160.387 49.02C160.387 60.49 158.168 69.72 153.738 76.32C149.308 82.92 142.157 86.22 132.287 86.22C122.417 86.22 115.267 82.92 110.837 76.32C106.407 69.72 104.188 60.62 104.188 49.02C104.188 37.42 106.407 28.52 110.837 21.92Z" fill="#A6843B" stroke="#A6843B" stroke-width="4" stroke-linecap="round" stroke-linejoin="round"/>
<path d="M217.988 26.32L192.887 86.52H175.387L200.787 28.22H169.688V13.62H217.988V26.32Z" fill="#A6843B" stroke="#A6843B" stroke-width="4" stroke-linecap="round" stroke-linejoin="round"/>
<path d="M278.289 28.42H247.089V42.22C248.419 40.75 250.289 39.55 252.689 38.62C255.089 37.69 257.689 37.22 260.489 37.22C265.489 37.22 269.639 38.35 272.939 40.62C276.239 42.89 278.659 45.82 280.189 49.42C281.719 53.02 282.489 56.92 282.489 61.12C282.489 68.92 280.289 75.1 275.889 79.67C271.489 84.24 265.289 86.52 257.289 86.52C251.959 86.52 247.319 85.6 243.389 83.77C239.459 81.94 236.419 79.39 234.289 76.12C232.159 72.85 230.989 69.09 230.789 64.82H247.489C247.889 66.89 248.859 68.6 250.389 69.97C251.919 71.34 254.019 72.02 256.689 72.02C259.819 72.02 262.159 71.02 263.689 69.02C265.219 67.02 265.989 64.35 265.989 61.02C265.989 57.69 265.189 55.25 263.589 53.52C261.989 51.79 259.659 50.92 256.589 50.92C254.319 50.92 252.459 51.47 250.989 52.57C249.519 53.67 248.559 55.12 248.089 56.92H231.589V13.42H278.289V28.42Z" fill="#A6843B" stroke="#A6843B" stroke-width="4" stroke-linecap="round" stroke-linejoin="round"/>
<path d="M16.9172 70.61C23.4472 65.21 28.5972 60.78 32.3672 57.31C36.1372 53.85 39.3172 50.21 41.9172 46.41C44.5172 42.61 45.8172 38.91 45.8172 35.31C45.8172 32.58 45.1872 30.44 43.9172 28.91C42.6472 27.38 40.7472 26.61 38.2172 26.61C35.6872 26.61 33.6972 27.56 32.2672 29.46C30.8372 31.36 30.1172 34.04 30.1172 37.51H13.6172C13.7472 31.84 14.9672 27.11 17.2672 23.31C19.5672 19.51 22.5972 16.71 26.3672 14.91C30.1372 13.11 34.3172 12.21 38.9172 12.21C46.8472 12.21 52.8372 14.25 56.8672 18.31C60.8972 22.38 62.9172 27.68 62.9172 34.21C62.9172 41.34 60.4872 47.96 55.6172 54.06C50.7472 60.16 44.5472 66.11 37.0172 71.91H64.0172V85.81H13.8172V73.11C16.0872 71.31 17.1172 70.48 16.9172 70.61Z" fill="#A6843B" stroke="#A6843B" stroke-width="4" stroke-linecap="round" stroke-linejoin="round"/>
<path d="M75.8656 84.9599C73.9656 83.1899 73.0156 81.01 73.0156 78.41C73.0156 75.81 73.9656 73.5099 75.8656 71.7099C77.7656 69.9099 80.2156 69.0099 83.2156 69.0099C86.2156 69.0099 88.5656 69.9099 90.4656 71.7099C92.3656 73.5099 93.3156 75.75 93.3156 78.41C93.3156 81.07 92.3656 83.1999 90.4656 84.9599C88.5656 86.7299 86.1456 87.6099 83.2156 87.6099C80.2856 87.6099 77.7656 86.7299 75.8656 84.9599Z" fill="#A6843B" stroke="#A6843B" stroke-width="4" stroke-linecap="round" stroke-linejoin="round"/>
<path d="M140.919 33.7599C139.449 30.1299 136.419 28.3099 131.819 28.3099C127.219 28.3099 124.189 30.1299 122.719 33.7599C121.249 37.3899 120.519 42.5799 120.519 49.3099C120.519 53.8499 120.789 57.5999 121.319 60.5599C121.849 63.5299 122.939 65.9299 124.569 67.7599C126.199 69.5899 128.619 70.5099 131.819 70.5099C135.019 70.5099 137.439 69.5899 139.069 67.7599C140.699 65.9299 141.789 63.5299 142.319 60.5599C142.849 57.5999 143.119 53.8499 143.119 49.3099C143.119 42.5799 142.389 37.3899 140.919 33.7599ZM110.369 22.2099C114.799 15.6099 121.949 12.3099 131.819 12.3099C141.689 12.3099 148.839 15.6099 153.269 22.2099C157.699 28.8099 159.919 37.8399 159.919 49.3099C159.919 60.7799 157.699 70.0099 153.269 76.6099C148.839 83.2099 141.689 86.5099 131.819 86.5099C121.949 86.5099 114.799 83.2099 110.369 76.6099C105.939 70.0099 103.719 60.9099 103.719 49.3099C103.719 37.7099 105.939 28.8099 110.369 22.2099Z" fill="#A6843B" stroke="#A6843B" stroke-width="4" stroke-linecap="round" stroke-linejoin="round"/>
<path d="M217.519 26.61L192.419 86.81H174.919L200.319 28.51H169.219V13.91H217.519V26.61Z" fill="#A6843B" stroke="#A6843B" stroke-width="4" stroke-linecap="round" stroke-linejoin="round"/>
<path d="M277.82 28.71H246.62V42.51C247.95 41.04 249.82 39.84 252.22 38.91C254.62 37.98 257.22 37.51 260.02 37.51C265.02 37.51 269.17 38.64 272.47 40.91C275.77 43.18 278.19 46.11 279.72 49.71C281.25 53.31 282.02 57.21 282.02 61.41C282.02 69.21 279.82 75.39 275.42 79.96C271.02 84.53 264.82 86.81 256.82 86.81C251.49 86.81 246.85 85.89 242.92 84.06C238.99 82.23 235.95 79.68 233.82 76.41C231.69 73.14 230.52 69.38 230.32 65.11H247.02C247.42 67.18 248.39 68.89 249.92 70.26C251.45 71.63 253.55 72.31 256.22 72.31C259.35 72.31 261.69 71.31 263.22 69.31C264.75 67.31 265.52 64.64 265.52 61.31C265.52 57.98 264.72 55.54 263.12 53.81C261.52 52.08 259.19 51.21 256.12 51.21C253.85 51.21 251.99 51.76 250.52 52.86C249.05 53.96 248.09 55.41 247.62 57.21H231.12V13.71H277.82V28.71Z" fill="#A6843B" stroke="#A6843B" stroke-width="4" stroke-linecap="round" stroke-linejoin="round"/>
<path d="M16.4484 70.91C22.9784 65.51 28.1284 61.08 31.8984 57.61C35.6684 54.15 38.8484 50.51 41.4484 46.71C44.0484 42.91 45.3484 39.21 45.3484 35.61C45.3484 32.88 44.7184 30.74 43.4484 29.21C42.1784 27.68 40.2784 26.91 37.7484 26.91C35.2184 26.91 33.2284 27.86 31.7984 29.76C30.3684 31.66 29.6484 34.34 29.6484 37.81H13.1484C13.2784 32.14 14.4984 27.41 16.7984 23.61C19.0984 19.81 22.1284 17.01 25.8984 15.21C29.6684 13.41 33.8484 12.51 38.4484 12.51C46.3784 12.51 52.3684 14.55 56.3984 18.61C60.4284 22.68 62.4484 27.98 62.4484 34.51C62.4484 41.64 60.0184 48.26 55.1484 54.36C50.2784 60.46 44.0784 66.41 36.5484 72.21H63.5484V86.11H13.3484V73.41C15.6184 71.61 16.6484 70.78 16.4484 70.91Z" fill="#A6843B" stroke="#A6843B" stroke-width="4" stroke-linecap="round" stroke-linejoin="round"/>
<path d="M75.3969 85.26C73.4969 83.49 72.5469 81.31 72.5469 78.71C72.5469 76.11 73.4969 73.81 75.3969 72.01C77.2969 70.21 79.7469 69.31 82.7469 69.31C85.7469 69.31 88.0969 70.21 89.9969 72.01C91.8969 73.81 92.8469 76.05 92.8469 78.71C92.8469 81.37 91.8969 83.5 89.9969 85.26C88.0969 87.03 85.6769 87.91 82.7469 87.91C79.8169 87.91 77.2969 87.03 75.3969 85.26Z" fill="#A6843B" stroke="#A6843B" stroke-width="4" stroke-linecap="round" stroke-linejoin="round"/>
<path d="M140.45 34.06C138.98 30.43 135.95 28.61 131.35 28.61C126.75 28.61 123.72 30.43 122.25 34.06C120.78 37.69 120.05 42.88 120.05 49.61C120.05 54.15 120.32 57.9 120.85 60.86C121.38 63.83 122.47 66.23 124.1 68.06C125.73 69.89 128.15 70.81 131.35 70.81C134.55 70.81 136.97 69.89 138.6 68.06C140.23 66.23 141.32 63.83 141.85 60.86C142.38 57.9 142.65 54.15 142.65 49.61C142.65 42.88 141.92 37.69 140.45 34.06ZM109.9 22.51C114.33 15.91 121.48 12.61 131.35 12.61C141.22 12.61 148.37 15.91 152.8 22.51C157.23 29.11 159.45 38.14 159.45 49.61C159.45 61.08 157.23 70.31 152.8 76.91C148.37 83.51 141.22 86.81 131.35 86.81C121.48 86.81 114.33 83.51 109.9 76.91C105.47 70.31 103.25 61.21 103.25 49.61C103.25 38.01 105.47 29.11 109.9 22.51Z" fill="#A6843B" stroke="#A6843B" stroke-width="4" stroke-linecap="round" stroke-linejoin="round"/>
<path d="M217.05 26.91L191.95 87.11H174.45L199.85 28.81H168.75V14.2H217.05V26.91Z" fill="#A6843B" stroke="#A6843B" stroke-width="4" stroke-linecap="round" stroke-linejoin="round"/>
<path d="M277.352 29.01H246.152V42.81C247.482 41.34 249.352 40.14 251.752 39.21C254.152 38.28 256.752 37.81 259.552 37.81C264.552 37.81 268.702 38.94 272.002 41.21C275.302 43.48 277.722 46.41 279.252 50.01C280.782 53.61 281.552 57.51 281.552 61.71C281.552 69.51 279.352 75.69 274.952 80.26C270.552 84.83 264.352 87.11 256.352 87.11C251.022 87.11 246.382 86.19 242.452 84.36C238.522 82.53 235.482 79.98 233.352 76.71C231.222 73.44 230.052 69.68 229.852 65.41H246.552C246.952 67.48 247.922 69.19 249.452 70.56C250.982 71.93 253.082 72.61 255.752 72.61C258.882 72.61 261.222 71.61 262.752 69.61C264.282 67.61 265.052 64.94 265.052 61.61C265.052 58.28 264.252 55.84 262.652 54.11C261.052 52.38 258.722 51.51 255.652 51.51C253.382 51.51 251.522 52.06 250.052 53.16C248.582 54.26 247.622 55.71 247.152 57.51H230.652V14.01H277.352V29.01Z" fill="#A6843B" stroke="#A6843B" stroke-width="4" stroke-linecap="round" stroke-linejoin="round"/>
<path d="M15.9797 71.2C22.5097 65.8 27.6597 61.37 31.4297 57.9C35.1997 54.44 38.3797 50.8 40.9797 47C43.5797 43.2 44.8797 39.5 44.8797 35.9C44.8797 33.17 44.2497 31.03 42.9797 29.5C41.7097 27.97 39.8097 27.2 37.2797 27.2C34.7497 27.2 32.7597 28.15 31.3297 30.05C29.8997 31.95 29.1797 34.63 29.1797 38.1H12.6797C12.8097 32.43 14.0297 27.7 16.3297 23.9C18.6297 20.1 21.6597 17.3 25.4297 15.5C29.1997 13.7 33.3797 12.8 37.9797 12.8C45.9097 12.8 51.8997 14.84 55.9297 18.9C59.9597 22.97 61.9797 28.27 61.9797 34.8C61.9797 41.93 59.5497 48.55 54.6797 54.65C49.8097 60.75 43.6097 66.7 36.0797 72.5H63.0797V86.4H12.8797V73.7C15.1497 71.9 16.1797 71.07 15.9797 71.2Z" fill="#A6843B" stroke="#A6843B" stroke-width="4" stroke-linecap="round" stroke-linejoin="round"/>
<path d="M74.9281 85.55C73.0281 83.78 72.0781 81.6 72.0781 79C72.0781 76.4 73.0281 74.1 74.9281 72.3C76.8281 70.5 79.2781 69.6 82.2781 69.6C85.2781 69.6 87.6281 70.5 89.5281 72.3C91.4281 74.1 92.3781 76.34 92.3781 79C92.3781 81.66 91.4281 83.79 89.5281 85.55C87.6281 87.32 85.2081 88.2 82.2781 88.2C79.3481 88.2 76.8281 87.32 74.9281 85.55Z" fill="#A6843B" stroke="#A6843B" stroke-width="4" stroke-linecap="round" stroke-linejoin="round"/>
<path d="M139.981 34.35C138.511 30.72 135.481 28.9 130.881 28.9C126.281 28.9 123.251 30.72 121.781 34.35C120.311 37.98 119.581 43.17 119.581 49.9C119.581 54.44 119.851 58.19 120.381 61.15C120.911 64.12 122.001 66.52 123.631 68.35C125.261 70.18 127.681 71.1 130.881 71.1C134.081 71.1 136.501 70.18 138.131 68.35C139.761 66.52 140.851 64.12 141.381 61.15C141.911 58.19 142.181 54.44 142.181 49.9C142.181 43.17 141.451 37.98 139.981 34.35ZM109.431 22.8C113.861 16.2 121.011 12.9 130.881 12.9C140.751 12.9 147.901 16.2 152.331 22.8C156.761 29.4 158.981 38.43 158.981 49.9C158.981 61.37 156.761 70.6 152.331 77.2C147.901 83.8 140.751 87.1 130.881 87.1C121.011 87.1 113.861 83.8 109.431 77.2C105.001 70.6 102.781 61.5 102.781 49.9C102.781 38.3 105.001 29.4 109.431 22.8Z" fill="#A6843B" stroke="#A6843B" stroke-width="4" stroke-linecap="round" stroke-linejoin="round"/>
<path d="M216.581 27.2L191.481 87.4H173.981L199.381 29.1H168.281V14.5H216.581V27.2Z" fill="#A6843B" stroke="#A6843B" stroke-width="4" stroke-linecap="round" stroke-linejoin="round"/>
<path d="M276.883 29.3H245.683V43.1C247.013 41.63 248.883 40.43 251.283 39.5C253.683 38.57 256.283 38.1 259.083 38.1C264.083 38.1 268.233 39.23 271.533 41.5C274.833 43.77 277.253 46.7 278.783 50.3C280.313 53.9 281.083 57.8 281.083 62C281.083 69.8 278.883 75.98 274.483 80.55C270.083 85.12 263.883 87.4 255.883 87.4C250.553 87.4 245.913 86.48 241.983 84.65C238.053 82.82 235.013 80.27 232.883 77C230.753 73.73 229.583 69.97 229.383 65.7H246.083C246.483 67.77 247.453 69.48 248.983 70.85C250.513 72.22 252.613 72.9 255.283 72.9C258.413 72.9 260.753 71.9 262.283 69.9C263.813 67.9 264.583 65.23 264.583 61.9C264.583 58.57 263.783 56.13 262.183 54.4C260.583 52.67 258.253 51.8 255.183 51.8C252.913 51.8 251.053 52.35 249.583 53.45C248.113 54.55 247.153 56 246.683 57.8H230.183V14.3H276.883V29.3Z" fill="#A6843B" stroke="#A6843B" stroke-width="4" stroke-linecap="round" stroke-linejoin="round"/>
<path d="M15.9797 71.2C22.5097 65.8 27.6597 61.37 31.4297 57.9C35.1997 54.44 38.3797 50.8 40.9797 47C43.5797 43.2 44.8797 39.5 44.8797 35.9C44.8797 33.17 44.2497 31.03 42.9797 29.5C41.7097 27.97 39.8097 27.2 37.2797 27.2C34.7497 27.2 32.7597 28.15 31.3297 30.05C29.8997 31.95 29.1797 34.63 29.1797 38.1H12.6797C12.8097 32.43 14.0297 27.7 16.3297 23.9C18.6297 20.1 21.6597 17.3 25.4297 15.5C29.1997 13.7 33.3797 12.8 37.9797 12.8C45.9097 12.8 51.8997 14.84 55.9297 18.9C59.9597 22.97 61.9797 28.27 61.9797 34.8C61.9797 41.93 59.5497 48.55 54.6797 54.65C49.8097 60.75 43.6097 66.7 36.0797 72.5H63.0797V86.4H12.8797V73.7C15.1497 71.9 16.1797 71.07 15.9797 71.2Z" fill="white" stroke="#A6843B" stroke-width="4" stroke-linecap="round" stroke-linejoin="round"/>
<path d="M74.9281 85.55C73.0281 83.78 72.0781 81.6 72.0781 79C72.0781 76.4 73.0281 74.1 74.9281 72.3C76.8281 70.5 79.2781 69.6 82.2781 69.6C85.2781 69.6 87.6281 70.5 89.5281 72.3C91.4281 74.1 92.3781 76.34 92.3781 79C92.3781 81.66 91.4281 83.79 89.5281 85.55C87.6281 87.32 85.2081 88.2 82.2781 88.2C79.3481 88.2 76.8281 87.32 74.9281 85.55Z" fill="white" stroke="#A6843B" stroke-width="4" stroke-linecap="round" stroke-linejoin="round"/>
<path d="M109.431 22.8C113.861 16.2 121.011 12.9 130.881 12.9C140.751 12.9 147.901 16.2 152.331 22.8C156.761 29.4 158.981 38.43 158.981 49.9C158.981 61.37 156.761 70.6 152.331 77.2C147.901 83.8 140.751 87.1 130.881 87.1C121.011 87.1 113.861 83.8 109.431 77.2C105.001 70.6 102.781 61.5 102.781 49.9C102.781 38.3 105.001 29.4 109.431 22.8ZM139.981 34.35C138.511 30.72 135.481 28.9 130.881 28.9C126.281 28.9 123.251 30.72 121.781 34.35C120.311 37.98 119.581 43.17 119.581 49.9C119.581 54.44 119.851 58.19 120.381 61.15C120.911 64.12 122.001 66.52 123.631 68.35C125.261 70.18 127.681 71.1 130.881 71.1C134.081 71.1 136.501 70.18 138.131 68.35C139.761 66.52 140.851 64.12 141.381 61.15C141.911 58.19 142.181 54.44 142.181 49.9C142.181 43.17 141.451 37.98 139.981 34.35Z" fill="white" stroke="#A6843B" stroke-width="4" stroke-linecap="round" stroke-linejoin="round"/>
<path d="M216.581 27.2L191.481 87.4H173.981L199.381 29.1H168.281V14.5H216.581V27.2Z" fill="white" stroke="#A6843B" stroke-width="4" stroke-linecap="round" stroke-linejoin="round"/>
<path d="M276.883 29.3H245.683V43.1C247.013 41.63 248.883 40.43 251.283 39.5C253.683 38.57 256.283 38.1 259.083 38.1C264.083 38.1 268.233 39.23 271.533 41.5C274.833 43.77 277.253 46.7 278.783 50.3C280.313 53.9 281.083 57.8 281.083 62C281.083 69.8 278.883 75.98 274.483 80.55C270.083 85.12 263.883 87.4 255.883 87.4C250.553 87.4 245.913 86.48 241.983 84.65C238.053 82.82 235.013 80.27 232.883 77C230.753 73.73 229.583 69.97 229.383 65.7H246.083C246.483 67.77 247.453 69.48 248.983 70.85C250.513 72.22 252.613 72.9 255.283 72.9C258.413 72.9 260.753 71.9 262.283 69.9C263.813 67.9 264.583 65.23 264.583 61.9C264.583 58.57 263.783 56.13 262.183 54.4C260.583 52.67 258.253 51.8 255.183 51.8C252.913 51.8 251.053 52.35 249.583 53.45C248.113 54.55 247.153 56 246.683 57.8H230.183V14.3H276.883V29.3Z" fill="white" stroke="#A6843B" stroke-width="4" stroke-linecap="round" stroke-linejoin="round"/>
<path d="M351.174 68.8C350.674 69.48 350.424 70.52 350.424 71.92C350.424 74.64 351.384 76 353.304 76C354.224 76 354.944 75.66 355.464 74.98C355.984 74.3 356.244 73.28 356.244 71.92C356.244 70.56 355.984 69.53 355.464 68.83C354.944 68.13 354.224 67.78 353.304 67.78C352.384 67.78 351.674 68.12 351.174 68.8ZM317.634 41.14C319.494 39.38 321.904 38.5 324.864 38.5C327.824 38.5 330.224 39.38 332.064 41.14C333.904 42.9 334.824 45.4 334.824 48.64C334.824 51.88 333.904 54.38 332.064 56.14C330.224 57.9 327.824 58.78 324.864 58.78C321.904 58.78 319.494 57.9 317.634 56.14C315.774 54.38 314.844 51.88 314.844 48.64C314.844 45.4 315.774 42.9 317.634 41.14ZM321.924 48.64C321.924 51.36 322.884 52.72 324.804 52.72C325.724 52.72 326.444 52.38 326.964 51.7C327.484 51.02 327.744 50 327.744 48.64C327.744 45.88 326.764 44.5 324.804 44.5C322.844 44.5 321.924 45.88 321.924 48.64ZM355.584 39.16L332.484 81.4H322.584L345.684 39.16H355.584ZM346.164 64.42C348.004 62.66 350.404 61.78 353.364 61.78C356.324 61.78 358.724 62.66 360.564 64.42C362.404 66.18 363.324 68.68 363.324 71.92C363.324 75.16 362.404 77.66 360.564 79.42C358.724 81.18 356.324 82.06 353.364 82.06C350.404 82.06 348.004 81.18 346.164 79.42C344.324 77.66 343.404 75.16 343.404 71.92C343.404 68.68 344.324 66.18 346.164 64.42Z" fill="#A6843B" stroke="#A6843B" stroke-width="4" stroke-linecap="round" stroke-linejoin="round"/>
<path d="M350.705 69.09C350.205 69.77 349.955 70.81 349.955 72.21C349.955 74.93 350.915 76.29 352.835 76.29C353.755 76.29 354.475 75.95 354.995 75.27C355.515 74.59 355.775 73.57 355.775 72.21C355.775 70.85 355.515 69.82 354.995 69.12C354.475 68.42 353.755 68.07 352.835 68.07C351.915 68.07 351.205 68.41 350.705 69.09ZM317.165 41.43C319.025 39.67 321.435 38.79 324.395 38.79C327.355 38.79 329.755 39.67 331.595 41.43C333.435 43.19 334.355 45.69 334.355 48.93C334.355 52.17 333.435 54.67 331.595 56.43C329.755 58.19 327.355 59.07 324.395 59.07C321.435 59.07 319.025 58.19 317.165 56.43C315.305 54.67 314.375 52.17 314.375 48.93C314.375 45.69 315.305 43.19 317.165 41.43ZM321.455 48.93C321.455 51.65 322.415 53.01 324.335 53.01C325.255 53.01 325.975 52.67 326.495 51.99C327.015 51.31 327.275 50.29 327.275 48.93C327.275 46.17 326.295 44.79 324.335 44.79C322.375 44.79 321.455 46.17 321.455 48.93ZM355.115 39.45L332.015 81.69H322.115L345.215 39.45H355.115ZM345.695 64.71C347.535 62.95 349.935 62.07 352.895 62.07C355.855 62.07 358.255 62.95 360.095 64.71C361.935 66.47 362.855 68.97 362.855 72.21C362.855 75.45 361.935 77.95 360.095 79.71C358.255 81.47 355.855 82.35 352.895 82.35C349.935 82.35 347.535 81.47 345.695 79.71C343.855 77.95 342.935 75.45 342.935 72.21C342.935 68.97 343.855 66.47 345.695 64.71Z" fill="#A6843B" stroke="#A6843B" stroke-width="4" stroke-linecap="round" stroke-linejoin="round"/>
<path d="M350.236 69.39C349.736 70.07 349.486 71.11 349.486 72.51C349.486 75.23 350.446 76.59 352.366 76.59C353.286 76.59 354.006 76.25 354.526 75.57C355.046 74.89 355.306 73.87 355.306 72.51C355.306 71.15 355.046 70.12 354.526 69.42C354.006 68.72 353.286 68.37 352.366 68.37C351.446 68.37 350.736 68.71 350.236 69.39ZM316.696 41.73C318.556 39.97 320.966 39.09 323.926 39.09C326.886 39.09 329.286 39.97 331.126 41.73C332.966 43.49 333.886 45.99 333.886 49.23C333.886 52.47 332.966 54.97 331.126 56.73C329.286 58.49 326.886 59.37 323.926 59.37C320.966 59.37 318.556 58.49 316.696 56.73C314.836 54.97 313.906 52.47 313.906 49.23C313.906 45.99 314.836 43.49 316.696 41.73ZM320.986 49.23C320.986 51.95 321.946 53.31 323.866 53.31C324.786 53.31 325.506 52.97 326.026 52.29C326.546 51.61 326.806 50.59 326.806 49.23C326.806 46.47 325.826 45.09 323.866 45.09C321.906 45.09 320.986 46.47 320.986 49.23ZM354.646 39.75L331.546 81.99H321.646L344.746 39.75H354.646ZM345.226 65.01C347.066 63.25 349.466 62.37 352.426 62.37C355.386 62.37 357.786 63.25 359.626 65.01C361.466 66.77 362.386 69.27 362.386 72.51C362.386 75.75 361.466 78.25 359.626 80.01C357.786 81.77 355.386 82.65 352.426 82.65C349.466 82.65 347.066 81.77 345.226 80.01C343.386 78.25 342.466 75.75 342.466 72.51C342.466 69.27 343.386 66.77 345.226 65.01Z" fill="#A6843B" stroke="#A6843B" stroke-width="4" stroke-linecap="round" stroke-linejoin="round"/>
<path d="M349.768 69.68C349.268 70.36 349.018 71.4 349.018 72.8C349.018 75.52 349.978 76.88 351.898 76.88C352.818 76.88 353.537 76.54 354.057 75.86C354.577 75.18 354.837 74.16 354.837 72.8C354.837 71.44 354.577 70.41 354.057 69.71C353.537 69.01 352.818 68.66 351.898 68.66C350.978 68.66 350.268 69 349.768 69.68ZM316.228 42.02C318.088 40.26 320.498 39.38 323.458 39.38C326.418 39.38 328.818 40.26 330.658 42.02C332.498 43.78 333.418 46.28 333.418 49.52C333.418 52.76 332.498 55.26 330.658 57.02C328.818 58.78 326.418 59.66 323.458 59.66C320.498 59.66 318.088 58.78 316.228 57.02C314.368 55.26 313.438 52.76 313.438 49.52C313.438 46.28 314.368 43.78 316.228 42.02ZM320.518 49.52C320.518 52.24 321.478 53.6 323.398 53.6C324.318 53.6 325.037 53.26 325.557 52.58C326.077 51.9 326.337 50.88 326.337 49.52C326.337 46.76 325.358 45.38 323.398 45.38C321.438 45.38 320.518 46.76 320.518 49.52ZM354.178 40.04L331.078 82.28H321.178L344.277 40.04H354.178ZM344.758 65.3C346.598 63.54 348.998 62.66 351.958 62.66C354.918 62.66 357.318 63.54 359.158 65.3C360.998 67.06 361.918 69.56 361.918 72.8C361.918 76.04 360.998 78.54 359.158 80.3C357.318 82.06 354.918 82.94 351.958 82.94C348.998 82.94 346.598 82.06 344.758 80.3C342.918 78.54 341.997 76.04 341.997 72.8C341.997 69.56 342.918 67.06 344.758 65.3Z" fill="#A6843B" stroke="#A6843B" stroke-width="4" stroke-linecap="round" stroke-linejoin="round"/>
<path d="M349.291 69.98C348.791 70.66 348.541 71.7 348.541 73.1C348.541 75.82 349.501 77.18 351.421 77.18C352.341 77.18 353.061 76.84 353.581 76.16C354.101 75.48 354.361 74.46 354.361 73.1C354.361 71.74 354.101 70.71 353.581 70.01C353.061 69.31 352.341 68.96 351.421 68.96C350.501 68.96 349.791 69.3 349.291 69.98ZM315.751 42.32C317.611 40.56 320.021 39.68 322.981 39.68C325.941 39.68 328.341 40.56 330.181 42.32C332.021 44.08 332.941 46.58 332.941 49.82C332.941 53.06 332.021 55.56 330.181 57.32C328.341 59.08 325.941 59.96 322.981 59.96C320.021 59.96 317.611 59.08 315.751 57.32C313.891 55.56 312.961 53.06 312.961 49.82C312.961 46.58 313.891 44.08 315.751 42.32ZM320.041 49.82C320.041 52.54 321.001 53.9 322.921 53.9C323.841 53.9 324.561 53.56 325.081 52.88C325.601 52.2 325.861 51.18 325.861 49.82C325.861 47.06 324.881 45.68 322.921 45.68C320.961 45.68 320.041 47.06 320.041 49.82ZM353.701 40.34L330.601 82.58H320.701L343.801 40.34H353.701ZM344.281 65.6C346.121 63.84 348.521 62.96 351.481 62.96C354.441 62.96 356.841 63.84 358.681 65.6C360.521 67.36 361.441 69.86 361.441 73.1C361.441 76.34 360.521 78.84 358.681 80.6C356.841 82.36 354.441 83.24 351.481 83.24C348.521 83.24 346.121 82.36 344.281 80.6C342.441 78.84 341.521 76.34 341.521 73.1C341.521 69.86 342.441 67.36 344.281 65.6Z" fill="#A6843B" stroke="#A6843B" stroke-width="4" stroke-linecap="round" stroke-linejoin="round"/>
<path d="M348.822 70.27C348.322 70.95 348.072 71.99 348.072 73.39C348.072 76.11 349.032 77.47 350.952 77.47C351.872 77.47 352.592 77.13 353.112 76.45C353.632 75.77 353.892 74.75 353.892 73.39C353.892 72.03 353.632 71 353.112 70.3C352.592 69.6 351.872 69.25 350.952 69.25C350.032 69.25 349.322 69.59 348.822 70.27ZM315.282 42.61C317.142 40.85 319.552 39.97 322.512 39.97C325.472 39.97 327.872 40.85 329.712 42.61C331.552 44.37 332.472 46.87 332.472 50.11C332.472 53.35 331.552 55.85 329.712 57.61C327.872 59.37 325.472 60.25 322.512 60.25C319.552 60.25 317.142 59.37 315.282 57.61C313.422 55.85 312.492 53.35 312.492 50.11C312.492 46.87 313.422 44.37 315.282 42.61ZM319.572 50.11C319.572 52.83 320.532 54.19 322.452 54.19C323.372 54.19 324.092 53.85 324.612 53.17C325.132 52.49 325.392 51.47 325.392 50.11C325.392 47.35 324.412 45.97 322.452 45.97C320.492 45.97 319.572 47.35 319.572 50.11ZM353.232 40.63L330.132 82.87H320.232L343.332 40.63H353.232ZM343.812 65.89C345.652 64.13 348.052 63.25 351.012 63.25C353.972 63.25 356.372 64.13 358.212 65.89C360.052 67.65 360.972 70.15 360.972 73.39C360.972 76.63 360.052 79.13 358.212 80.89C356.372 82.65 353.972 83.53 351.012 83.53C348.052 83.53 345.652 82.65 343.812 80.89C341.972 79.13 341.052 76.63 341.052 73.39C341.052 70.15 341.972 67.65 343.812 65.89Z" fill="#A6843B" stroke="#A6843B" stroke-width="4" stroke-linecap="round" stroke-linejoin="round"/>
<path d="M348.353 70.56C347.853 71.24 347.603 72.28 347.603 73.68C347.603 76.4 348.563 77.76 350.483 77.76C351.403 77.76 352.123 77.42 352.643 76.74C353.163 76.06 353.423 75.04 353.423 73.68C353.423 72.32 353.163 71.29 352.643 70.59C352.123 69.89 351.403 69.54 350.483 69.54C349.563 69.54 348.853 69.88 348.353 70.56ZM314.813 42.9C316.673 41.14 319.083 40.26 322.043 40.26C325.003 40.26 327.403 41.14 329.243 42.9C331.083 44.66 332.003 47.16 332.003 50.4C332.003 53.64 331.083 56.14 329.243 57.9C327.403 59.66 325.003 60.54 322.043 60.54C319.083 60.54 316.673 59.66 314.813 57.9C312.953 56.14 312.023 53.64 312.023 50.4C312.023 47.16 312.953 44.66 314.813 42.9ZM319.103 50.4C319.103 53.12 320.063 54.48 321.983 54.48C322.903 54.48 323.623 54.14 324.143 53.46C324.663 52.78 324.923 51.76 324.923 50.4C324.923 47.64 323.943 46.26 321.983 46.26C320.023 46.26 319.103 47.64 319.103 50.4ZM352.763 40.92L329.663 83.16H319.763L342.863 40.92H352.763ZM343.343 66.18C345.183 64.42 347.583 63.54 350.543 63.54C353.503 63.54 355.903 64.42 357.743 66.18C359.583 67.94 360.503 70.44 360.503 73.68C360.503 76.92 359.583 79.42 357.743 81.18C355.903 82.94 353.503 83.82 350.543 83.82C347.583 83.82 345.183 82.94 343.343 81.18C341.503 79.42 340.583 76.92 340.583 73.68C340.583 70.44 341.503 67.94 343.343 66.18Z" fill="#A6843B" stroke="#A6843B" stroke-width="4" stroke-linecap="round" stroke-linejoin="round"/>
<path d="M347.885 70.86C347.385 71.54 347.135 72.58 347.135 73.98C347.135 76.7 348.095 78.06 350.015 78.06C350.935 78.06 351.655 77.72 352.175 77.04C352.695 76.36 352.955 75.34 352.955 73.98C352.955 72.62 352.695 71.59 352.175 70.89C351.655 70.19 350.935 69.84 350.015 69.84C349.095 69.84 348.385 70.18 347.885 70.86ZM314.345 43.2C316.205 41.44 318.615 40.56 321.575 40.56C324.535 40.56 326.935 41.44 328.775 43.2C330.615 44.96 331.535 47.46 331.535 50.7C331.535 53.94 330.615 56.44 328.775 58.2C326.935 59.96 324.535 60.84 321.575 60.84C318.615 60.84 316.205 59.96 314.345 58.2C312.485 56.44 311.555 53.94 311.555 50.7C311.555 47.46 312.485 44.96 314.345 43.2ZM318.635 50.7C318.635 53.42 319.595 54.78 321.515 54.78C322.435 54.78 323.155 54.44 323.675 53.76C324.195 53.08 324.455 52.06 324.455 50.7C324.455 47.94 323.475 46.56 321.515 46.56C319.555 46.56 318.635 47.94 318.635 50.7ZM352.295 41.22L329.195 83.46H319.295L342.395 41.22H352.295ZM342.875 66.48C344.715 64.72 347.115 63.84 350.075 63.84C353.035 63.84 355.435 64.72 357.275 66.48C359.115 68.24 360.035 70.74 360.035 73.98C360.035 77.22 359.115 79.72 357.275 81.48C355.435 83.24 353.035 84.12 350.075 84.12C347.115 84.12 344.715 83.24 342.875 81.48C341.035 79.72 340.115 77.22 340.115 73.98C340.115 70.74 341.035 68.24 342.875 66.48Z" fill="#A6843B" stroke="#A6843B" stroke-width="4" stroke-linecap="round" stroke-linejoin="round"/>
<path d="M347.416 71.15C346.916 71.83 346.666 72.87 346.666 74.27C346.666 76.99 347.626 78.35 349.546 78.35C350.466 78.35 351.186 78.01 351.706 77.33C352.226 76.65 352.486 75.63 352.486 74.27C352.486 72.91 352.226 71.88 351.706 71.18C351.186 70.48 350.466 70.13 349.546 70.13C348.626 70.13 347.916 70.47 347.416 71.15ZM313.876 43.49C315.736 41.73 318.146 40.85 321.106 40.85C324.066 40.85 326.466 41.73 328.306 43.49C330.146 45.25 331.066 47.75 331.066 50.99C331.066 54.23 330.146 56.73 328.306 58.49C326.466 60.25 324.066 61.13 321.106 61.13C318.146 61.13 315.736 60.25 313.876 58.49C312.016 56.73 311.086 54.23 311.086 50.99C311.086 47.75 312.016 45.25 313.876 43.49ZM318.166 50.99C318.166 53.71 319.126 55.07 321.046 55.07C321.966 55.07 322.686 54.73 323.206 54.05C323.726 53.37 323.986 52.35 323.986 50.99C323.986 48.23 323.006 46.85 321.046 46.85C319.086 46.85 318.166 48.23 318.166 50.99ZM351.826 41.51L328.726 83.75H318.826L341.926 41.51H351.826ZM342.406 66.77C344.246 65.01 346.646 64.13 349.606 64.13C352.566 64.13 354.966 65.01 356.806 66.77C358.646 68.53 359.566 71.03 359.566 74.27C359.566 77.51 358.646 80.01 356.806 81.77C354.966 83.53 352.566 84.41 349.606 84.41C346.646 84.41 344.246 83.53 342.406 81.77C340.566 80.01 339.646 77.51 339.646 74.27C339.646 71.03 340.566 68.53 342.406 66.77Z" fill="#A6843B" stroke="#A6843B" stroke-width="4" stroke-linecap="round" stroke-linejoin="round"/>
<path d="M346.932 71.45C346.432 72.13 346.182 73.17 346.182 74.57C346.182 77.29 347.142 78.65 349.062 78.65C349.982 78.65 350.702 78.31 351.222 77.63C351.742 76.95 352.002 75.93 352.002 74.57C352.002 73.21 351.742 72.18 351.222 71.48C350.702 70.78 349.982 70.43 349.062 70.43C348.142 70.43 347.432 70.77 346.932 71.45ZM313.392 43.79C315.252 42.03 317.662 41.15 320.622 41.15C323.582 41.15 325.982 42.03 327.822 43.79C329.662 45.55 330.582 48.05 330.582 51.29C330.582 54.53 329.662 57.03 327.822 58.79C325.982 60.55 323.582 61.43 320.622 61.43C317.662 61.43 315.252 60.55 313.392 58.79C311.532 57.03 310.602 54.53 310.602 51.29C310.602 48.05 311.532 45.55 313.392 43.79ZM317.682 51.29C317.682 54.01 318.642 55.37 320.562 55.37C321.482 55.37 322.202 55.03 322.722 54.35C323.242 53.67 323.502 52.65 323.502 51.29C323.502 48.53 322.522 47.15 320.562 47.15C318.602 47.15 317.682 48.53 317.682 51.29ZM351.342 41.81L328.242 84.05H318.342L341.442 41.81H351.342ZM341.922 67.07C343.762 65.31 346.162 64.43 349.122 64.43C352.082 64.43 354.482 65.31 356.322 67.07C358.162 68.83 359.082 71.33 359.082 74.57C359.082 77.81 358.162 80.31 356.322 82.07C354.482 83.83 352.082 84.71 349.122 84.71C346.162 84.71 343.762 83.83 341.922 82.07C340.082 80.31 339.162 77.81 339.162 74.57C339.162 71.33 340.082 68.83 341.922 67.07Z" fill="#A6843B" stroke="#A6843B" stroke-width="4" stroke-linecap="round" stroke-linejoin="round"/>
<path d="M346.463 71.74C345.963 72.42 345.713 73.46 345.713 74.86C345.713 77.58 346.673 78.94 348.593 78.94C349.513 78.94 350.233 78.6 350.753 77.92C351.273 77.24 351.533 76.22 351.533 74.86C351.533 73.5 351.273 72.47 350.753 71.77C350.233 71.07 349.513 70.72 348.593 70.72C347.673 70.72 346.963 71.06 346.463 71.74ZM312.923 44.08C314.783 42.32 317.193 41.44 320.153 41.44C323.113 41.44 325.513 42.32 327.353 44.08C329.193 45.84 330.113 48.34 330.113 51.58C330.113 54.82 329.193 57.32 327.353 59.08C325.513 60.84 323.113 61.72 320.153 61.72C317.193 61.72 314.783 60.84 312.923 59.08C311.063 57.32 310.133 54.82 310.133 51.58C310.133 48.34 311.063 45.84 312.923 44.08ZM317.213 51.58C317.213 54.3 318.173 55.66 320.093 55.66C321.013 55.66 321.733 55.32 322.253 54.64C322.773 53.96 323.033 52.94 323.033 51.58C323.033 48.82 322.053 47.44 320.093 47.44C318.133 47.44 317.213 48.82 317.213 51.58ZM350.873 42.1L327.773 84.34H317.873L340.973 42.1H350.873ZM341.453 67.36C343.293 65.6 345.693 64.72 348.653 64.72C351.613 64.72 354.013 65.6 355.853 67.36C357.693 69.12 358.613 71.62 358.613 74.86C358.613 78.1 357.693 80.6 355.853 82.36C354.013 84.12 351.613 85 348.653 85C345.693 85 343.293 84.12 341.453 82.36C339.613 80.6 338.693 78.1 338.693 74.86C338.693 71.62 339.613 69.12 341.453 67.36Z" fill="#A6843B" stroke="#A6843B" stroke-width="4" stroke-linecap="round" stroke-linejoin="round"/>
<path d="M345.994 72.04C345.494 72.72 345.244 73.76 345.244 75.16C345.244 77.88 346.204 79.24 348.124 79.24C349.044 79.24 349.764 78.9 350.284 78.22C350.804 77.54 351.064 76.52 351.064 75.16C351.064 73.8 350.804 72.77 350.284 72.07C349.764 71.37 349.044 71.02 348.124 71.02C347.204 71.02 346.494 71.36 345.994 72.04ZM312.454 44.38C314.314 42.62 316.724 41.74 319.684 41.74C322.644 41.74 325.044 42.62 326.884 44.38C328.724 46.14 329.644 48.64 329.644 51.88C329.644 55.12 328.724 57.62 326.884 59.38C325.044 61.14 322.644 62.02 319.684 62.02C316.724 62.02 314.314 61.14 312.454 59.38C310.594 57.62 309.664 55.12 309.664 51.88C309.664 48.64 310.594 46.14 312.454 44.38ZM316.744 51.88C316.744 54.6 317.704 55.96 319.624 55.96C320.544 55.96 321.264 55.62 321.784 54.94C322.304 54.26 322.564 53.24 322.564 51.88C322.564 49.12 321.584 47.74 319.624 47.74C317.664 47.74 316.744 49.12 316.744 51.88ZM350.404 42.4L327.304 84.64H317.404L340.504 42.4H350.404ZM340.984 67.66C342.824 65.9 345.224 65.02 348.184 65.02C351.144 65.02 353.544 65.9 355.384 67.66C357.224 69.42 358.144 71.92 358.144 75.16C358.144 78.4 357.224 80.9 355.384 82.66C353.544 84.42 351.144 85.3 348.184 85.3C345.224 85.3 342.824 84.42 340.984 82.66C339.144 80.9 338.224 78.4 338.224 75.16C338.224 71.92 339.144 69.42 340.984 67.66Z" fill="#A6843B" stroke="#A6843B" stroke-width="4" stroke-linecap="round" stroke-linejoin="round"/>
<path d="M345.525 72.33C345.025 73.01 344.775 74.05 344.775 75.45C344.775 78.17 345.735 79.53 347.655 79.53C348.575 79.53 349.295 79.19 349.815 78.51C350.335 77.83 350.595 76.81 350.595 75.45C350.595 74.09 350.335 73.06 349.815 72.36C349.295 71.66 348.575 71.31 347.655 71.31C346.735 71.31 346.025 71.65 345.525 72.33ZM311.985 44.67C313.845 42.91 316.255 42.03 319.215 42.03C322.175 42.03 324.575 42.91 326.415 44.67C328.255 46.43 329.175 48.93 329.175 52.17C329.175 55.41 328.255 57.91 326.415 59.67C324.575 61.43 322.175 62.31 319.215 62.31C316.255 62.31 313.845 61.43 311.985 59.67C310.125 57.91 309.195 55.41 309.195 52.17C309.195 48.93 310.125 46.43 311.985 44.67ZM316.275 52.17C316.275 54.89 317.235 56.25 319.155 56.25C320.075 56.25 320.795 55.91 321.315 55.23C321.835 54.55 322.095 53.53 322.095 52.17C322.095 49.41 321.115 48.03 319.155 48.03C317.195 48.03 316.275 49.41 316.275 52.17ZM349.935 42.69L326.835 84.93H316.935L340.035 42.69H349.935ZM340.515 67.95C342.355 66.19 344.755 65.31 347.715 65.31C350.675 65.31 353.075 66.19 354.915 67.95C356.755 69.71 357.675 72.21 357.675 75.45C357.675 78.69 356.755 81.19 354.915 82.95C353.075 84.71 350.675 85.59 347.715 85.59C344.755 85.59 342.355 84.71 340.515 82.95C338.675 81.19 337.755 78.69 337.755 75.45C337.755 72.21 338.675 69.71 340.515 67.95Z" fill="#A6843B" stroke="#A6843B" stroke-width="4" stroke-linecap="round" stroke-linejoin="round"/>
<path d="M345.057 72.62C344.557 73.3 344.307 74.34 344.307 75.74C344.307 78.46 345.267 79.82 347.187 79.82C348.107 79.82 348.827 79.48 349.347 78.8C349.867 78.12 350.127 77.1 350.127 75.74C350.127 74.38 349.867 73.35 349.347 72.65C348.827 71.95 348.107 71.6 347.187 71.6C346.267 71.6 345.557 71.94 345.057 72.62ZM311.517 44.96C313.377 43.2 315.787 42.32 318.747 42.32C321.707 42.32 324.107 43.2 325.947 44.96C327.787 46.72 328.707 49.22 328.707 52.46C328.707 55.7 327.787 58.2 325.947 59.96C324.107 61.72 321.707 62.6 318.747 62.6C315.787 62.6 313.377 61.72 311.517 59.96C309.657 58.2 308.727 55.7 308.727 52.46C308.727 49.22 309.657 46.72 311.517 44.96ZM315.807 52.46C315.807 55.18 316.767 56.54 318.687 56.54C319.607 56.54 320.327 56.2 320.847 55.52C321.367 54.84 321.627 53.82 321.627 52.46C321.627 49.7 320.647 48.32 318.687 48.32C316.727 48.32 315.807 49.7 315.807 52.46ZM349.467 42.98L326.367 85.22H316.467L339.567 42.98H349.467ZM340.047 68.24C341.887 66.48 344.287 65.6 347.247 65.6C350.207 65.6 352.607 66.48 354.447 68.24C356.287 70 357.207 72.5 357.207 75.74C357.207 78.98 356.287 81.48 354.447 83.24C352.607 85 350.207 85.88 347.247 85.88C344.287 85.88 341.887 85 340.047 83.24C338.207 81.48 337.287 78.98 337.287 75.74C337.287 72.5 338.207 70 340.047 68.24Z" fill="#A6843B" stroke="#A6843B" stroke-width="4" stroke-linecap="round" stroke-linejoin="round"/>
<path d="M344.58 72.92C344.08 73.6 343.83 74.64 343.83 76.04C343.83 78.76 344.79 80.12 346.71 80.12C347.63 80.12 348.35 79.78 348.87 79.1C349.39 78.42 349.65 77.4 349.65 76.04C349.65 74.68 349.39 73.65 348.87 72.95C348.35 72.25 347.63 71.9 346.71 71.9C345.79 71.9 345.08 72.24 344.58 72.92ZM311.04 45.26C312.9 43.5 315.31 42.62 318.27 42.62C321.23 42.62 323.63 43.5 325.47 45.26C327.31 47.02 328.23 49.52 328.23 52.76C328.23 56 327.31 58.5 325.47 60.26C323.63 62.02 321.23 62.9 318.27 62.9C315.31 62.9 312.9 62.02 311.04 60.26C309.18 58.5 308.25 56 308.25 52.76C308.25 49.52 309.18 47.02 311.04 45.26ZM315.33 52.76C315.33 55.48 316.29 56.84 318.21 56.84C319.13 56.84 319.85 56.5 320.37 55.82C320.89 55.14 321.15 54.12 321.15 52.76C321.15 50 320.17 48.62 318.21 48.62C316.25 48.62 315.33 50 315.33 52.76ZM348.99 43.28L325.89 85.52H315.99L339.09 43.28H348.99ZM339.57 68.54C341.41 66.78 343.81 65.9 346.77 65.9C349.73 65.9 352.13 66.78 353.97 68.54C355.81 70.3 356.73 72.8 356.73 76.04C356.73 79.28 355.81 81.78 353.97 83.54C352.13 85.3 349.73 86.18 346.77 86.18C343.81 86.18 341.41 85.3 339.57 83.54C337.73 81.78 336.81 79.28 336.81 76.04C336.81 72.8 337.73 70.3 339.57 68.54Z" fill="#A6843B" stroke="#A6843B" stroke-width="4" stroke-linecap="round" stroke-linejoin="round"/>
<path d="M344.111 73.21C343.611 73.89 343.361 74.93 343.361 76.33C343.361 79.05 344.321 80.41 346.241 80.41C347.161 80.41 347.881 80.07 348.401 79.39C348.921 78.71 349.181 77.69 349.181 76.33C349.181 74.97 348.921 73.94 348.401 73.24C347.881 72.54 347.161 72.19 346.241 72.19C345.321 72.19 344.611 72.53 344.111 73.21ZM310.571 45.55C312.431 43.79 314.841 42.91 317.801 42.91C320.761 42.91 323.161 43.79 325.001 45.55C326.841 47.31 327.761 49.81 327.761 53.05C327.761 56.29 326.841 58.79 325.001 60.55C323.161 62.31 320.761 63.19 317.801 63.19C314.841 63.19 312.431 62.31 310.571 60.55C308.711 58.79 307.781 56.29 307.781 53.05C307.781 49.81 308.711 47.31 310.571 45.55ZM314.861 53.05C314.861 55.77 315.821 57.13 317.741 57.13C318.661 57.13 319.381 56.79 319.901 56.11C320.421 55.43 320.681 54.41 320.681 53.05C320.681 50.29 319.701 48.91 317.741 48.91C315.781 48.91 314.861 50.29 314.861 53.05ZM348.521 43.57L325.421 85.81H315.521L338.621 43.57H348.521ZM339.101 68.83C340.941 67.07 343.341 66.19 346.301 66.19C349.261 66.19 351.661 67.07 353.501 68.83C355.341 70.59 356.261 73.09 356.261 76.33C356.261 79.57 355.341 82.07 353.501 83.83C351.661 85.59 349.261 86.47 346.301 86.47C343.341 86.47 340.941 85.59 339.101 83.83C337.261 82.07 336.341 79.57 336.341 76.33C336.341 73.09 337.261 70.59 339.101 68.83Z" fill="#A6843B" stroke="#A6843B" stroke-width="4" stroke-linecap="round" stroke-linejoin="round"/>
<path d="M343.643 73.51C343.143 74.19 342.893 75.23 342.893 76.63C342.893 79.35 343.852 80.71 345.772 80.71C346.692 80.71 347.412 80.37 347.932 79.69C348.452 79.01 348.712 77.99 348.712 76.63C348.712 75.27 348.452 74.24 347.932 73.54C347.412 72.84 346.692 72.49 345.772 72.49C344.852 72.49 344.143 72.83 343.643 73.51ZM310.103 45.85C311.963 44.09 314.372 43.21 317.332 43.21C320.292 43.21 322.693 44.09 324.533 45.85C326.373 47.61 327.293 50.11 327.293 53.35C327.293 56.59 326.373 59.09 324.533 60.85C322.693 62.61 320.292 63.49 317.332 63.49C314.372 63.49 311.963 62.61 310.103 60.85C308.243 59.09 307.312 56.59 307.312 53.35C307.312 50.11 308.243 47.61 310.103 45.85ZM314.393 53.35C314.393 56.07 315.352 57.43 317.272 57.43C318.192 57.43 318.912 57.09 319.432 56.41C319.952 55.73 320.212 54.71 320.212 53.35C320.212 50.59 319.232 49.21 317.272 49.21C315.312 49.21 314.393 50.59 314.393 53.35ZM348.052 43.87L324.953 86.11H315.052L338.152 43.87H348.052ZM338.633 69.13C340.473 67.37 342.872 66.49 345.832 66.49C348.792 66.49 351.193 67.37 353.033 69.13C354.873 70.89 355.793 73.39 355.793 76.63C355.793 79.87 354.873 82.37 353.033 84.13C351.193 85.89 348.792 86.77 345.832 86.77C342.872 86.77 340.473 85.89 338.633 84.13C336.793 82.37 335.872 79.87 335.872 76.63C335.872 73.39 336.793 70.89 338.633 69.13Z" fill="#A6843B" stroke="#A6843B" stroke-width="4" stroke-linecap="round" stroke-linejoin="round"/>
<path d="M343.174 73.8C342.674 74.48 342.424 75.52 342.424 76.92C342.424 79.64 343.384 81 345.304 81C346.224 81 346.944 80.66 347.464 79.98C347.984 79.3 348.244 78.28 348.244 76.92C348.244 75.56 347.984 74.53 347.464 73.83C346.944 73.13 346.224 72.78 345.304 72.78C344.384 72.78 343.674 73.12 343.174 73.8ZM309.634 46.14C311.494 44.38 313.904 43.5 316.864 43.5C319.824 43.5 322.224 44.38 324.064 46.14C325.904 47.9 326.824 50.4 326.824 53.64C326.824 56.88 325.904 59.38 324.064 61.14C322.224 62.9 319.824 63.78 316.864 63.78C313.904 63.78 311.494 62.9 309.634 61.14C307.774 59.38 306.844 56.88 306.844 53.64C306.844 50.4 307.774 47.9 309.634 46.14ZM313.924 53.64C313.924 56.36 314.884 57.72 316.804 57.72C317.724 57.72 318.444 57.38 318.964 56.7C319.484 56.02 319.744 55 319.744 53.64C319.744 50.88 318.764 49.5 316.804 49.5C314.844 49.5 313.924 50.88 313.924 53.64ZM347.584 44.16L324.484 86.4H314.584L337.684 44.16H347.584ZM338.164 69.42C340.004 67.66 342.404 66.78 345.364 66.78C348.324 66.78 350.724 67.66 352.564 69.42C354.404 71.18 355.324 73.68 355.324 76.92C355.324 80.16 354.404 82.66 352.564 84.42C350.724 86.18 348.324 87.06 345.364 87.06C342.404 87.06 340.004 86.18 338.164 84.42C336.324 82.66 335.404 80.16 335.404 76.92C335.404 73.68 336.324 71.18 338.164 69.42Z" fill="#A6843B" stroke="#A6843B" stroke-width="4" stroke-linecap="round" stroke-linejoin="round"/>
<path d="M309.634 46.14C311.494 44.38 313.904 43.5 316.864 43.5C319.824 43.5 322.224 44.38 324.064 46.14C325.904 47.9 326.824 50.4 326.824 53.64C326.824 56.88 325.904 59.38 324.064 61.14C322.224 62.9 319.824 63.78 316.864 63.78C313.904 63.78 311.494 62.9 309.634 61.14C307.774 59.38 306.844 56.88 306.844 53.64C306.844 50.4 307.774 47.9 309.634 46.14ZM313.924 53.64C313.924 56.36 314.884 57.72 316.804 57.72C317.724 57.72 318.444 57.38 318.964 56.7C319.484 56.02 319.744 55 319.744 53.64C319.744 50.88 318.764 49.5 316.804 49.5C314.844 49.5 313.924 50.88 313.924 53.64ZM347.584 44.16L324.484 86.4H314.584L337.684 44.16H347.584ZM338.164 69.42C340.004 67.66 342.404 66.78 345.364 66.78C348.324 66.78 350.724 67.66 352.564 69.42C354.404 71.18 355.324 73.68 355.324 76.92C355.324 80.16 354.404 82.66 352.564 84.42C350.724 86.18 348.324 87.06 345.364 87.06C342.404 87.06 340.004 86.18 338.164 84.42C336.324 82.66 335.404 80.16 335.404 76.92C335.404 73.68 336.324 71.18 338.164 69.42ZM343.174 73.8C342.674 74.48 342.424 75.52 342.424 76.92C342.424 79.64 343.384 81 345.304 81C346.224 81 346.944 80.66 347.464 79.98C347.984 79.3 348.244 78.28 348.244 76.92C348.244 75.56 347.984 74.53 347.464 73.83C346.944 73.13 346.224 72.78 345.304 72.78C344.384 72.78 343.674 73.12 343.174 73.8Z" fill="white" stroke="#A6843B" stroke-width="2" stroke-linecap="round" stroke-linejoin="round"/>
</svg>
