<svg width="406" height="256" viewBox="0 0 406 256" fill="none" xmlns="http://www.w3.org/2000/svg">
<path d="M395.091 251H10.9112C6.47124 251 3.19124 246.96 4.18124 242.72L30.6112 129.51C30.8412 128.52 30.8412 127.48 30.6112 126.49L4.18124 13.28C3.19124 9.04 6.48124 5 10.9112 5H395.101C399.541 5 402.821 9.04 401.831 13.28L375.401 126.49C375.171 127.48 375.171 128.52 375.401 129.51L401.831 242.72C402.821 246.96 399.531 251 395.101 251H395.091Z" fill="white"/>
<path d="M371.861 252.52C365.151 252.71 358.031 252.18 350.451 252.27C342.871 252.36 335.201 252.31 327.571 252.28C323.721 252.27 320.071 252.35 316.361 252.51C312.761 252.66 308.601 252.32 305.171 252.75C304.861 252.79 304.151 252.75 303.621 252.75C294.411 252.75 285.001 252.93 276.051 252.7C265.641 252.44 255.381 252.62 245.081 252.51C228.291 253.01 211.311 252.64 194.431 252.73C189.151 252.75 183.841 252.85 178.431 252.55C173.801 252.29 168.171 252.76 163.341 252.3C162.941 252.26 161.991 252.36 161.281 252.38C159.571 252.43 157.771 252.55 156.161 252.51C146.481 252.26 146.501 252.25 138.421 252.48C137.461 252.51 136.281 252.32 135.181 252.31C130.731 252.28 126.251 252.25 121.811 252.3C117.811 252.34 113.571 252.08 109.761 252.51C108.931 252.6 107.201 252.52 105.891 252.52C101.681 252.52 97.461 252.52 93.271 252.52C88.471 252.56 83.581 252.36 78.871 252.73C76.811 252.89 73.841 252.46 72.621 252.56C70.361 252.73 68.261 252.77 66.031 252.74C63.851 252.71 61.731 252.54 59.571 252.53C57.691 252.53 55.821 252.72 53.911 252.74C49.191 252.77 44.121 252.6 39.801 252.79C35.151 253 30.711 252.95 26.171 252.98C21.441 252.98 16.681 252.99 11.971 253H11.291C11.071 253 10.851 253 10.541 252.99C9.97098 252.98 9.41098 252.87 8.85098 252.76C7.75098 252.48 6.73098 252 5.85098 251.36C4.07098 250.09 2.86098 248.15 2.44098 246.01C2.22098 244.94 2.21098 243.8 2.42098 242.7C2.47098 242.4 2.52098 242.18 2.56098 241.97L2.71098 241.31C2.81098 240.87 2.91098 240.43 3.00098 240C3.40098 238.26 3.83098 236.57 4.39098 235.11C4.44098 234.98 4.51098 234.61 4.57098 234.36C6.27098 227.42 8.01098 220.49 9.66098 213.53C12.481 201.5 15.291 189.45 18.111 177.42C18.911 174.02 19.601 170.4 20.701 167.29C20.931 166.64 21.161 165.16 21.421 164.29C22.391 161.01 22.351 158.21 23.401 155.09C24.341 152.3 24.891 149.25 25.601 146.32C26.381 143 27.161 139.66 27.941 136.34C28.491 134.05 28.921 131.95 29.171 130C29.731 128.72 29.891 127.68 29.441 126.09C29.081 124.5 28.671 122.86 28.421 121.36C28.091 119.38 27.501 116.33 27.031 114.93C25.991 111.82 25.391 108.63 24.621 105.49C23.481 100.82 22.501 96.0802 21.131 91.5202C20.551 89.5902 20.011 86.9602 19.521 84.6702C19.061 82.5402 18.741 80.4502 18.261 78.3302C17.371 74.3902 16.451 70.5202 15.331 66.6702C14.361 63.3302 13.761 59.1102 12.551 55.8402C12.391 55.4102 12.151 54.3002 12.021 53.5902C11.331 49.8502 10.651 46.5002 9.45098 42.4402C8.48098 39.1602 7.64098 34.8702 6.74098 31.0302C5.78098 26.9302 4.72098 22.7502 3.91098 18.7602C3.65098 17.4802 3.30098 16.5502 2.98098 15.5602C2.82098 15.0602 2.66098 14.5502 2.52098 13.9702C2.45098 13.7202 2.39098 13.2802 2.34098 12.8702C2.30098 12.4502 2.31098 11.9902 2.36098 11.5102C2.47098 10.4802 2.80098 8.95023 3.67098 7.54023C4.51098 6.12023 5.90098 4.89023 7.33098 4.26023C8.06098 3.93023 8.84098 3.69023 9.65098 3.57023C10.051 3.49023 10.461 3.50023 10.861 3.47023H11.861C13.191 3.45023 14.501 3.45023 15.741 3.50023C28.871 3.96023 42.181 3.58023 55.351 3.73023C60.921 3.79023 66.771 3.44023 72.061 3.95023C75.991 3.57023 80.831 3.90023 84.601 3.64023C86.991 3.48023 89.081 3.49023 91.271 3.49023C105.741 3.49023 120.211 3.48023 134.671 3.47023C144.191 3.40023 153.701 3.33023 163.221 3.26023C165.901 3.25023 168.511 3.20023 171.421 3.43023C173.551 3.60023 177.441 3.62023 180.281 3.32023C180.831 3.26023 181.971 3.21023 182.391 3.25023C187.801 3.80023 193.171 3.23023 198.481 3.21023C208.891 3.17023 219.061 3.51023 229.401 3.47023C231.601 3.47023 234.181 3.63023 235.891 3.26023C237.591 3.57023 238.871 3.42023 240.961 3.28023C243.121 3.14023 246.671 3.12023 248.571 3.29023C251.151 3.53023 253.531 3.44023 255.991 3.47023C258.611 3.47023 261.251 3.47023 263.881 3.47023C274.981 3.55023 286.071 3.63023 297.161 3.71023C299.331 3.73023 301.451 3.87023 303.621 3.93023C305.801 3.99023 308.151 3.82023 310.231 4.13023C311.011 4.25023 313.231 4.16023 314.801 4.16023C320.321 4.16023 326.301 4.36023 331.251 4.11023C336.151 3.86023 341.401 4.17023 345.941 3.72023C347.211 3.59023 349.551 3.72023 351.371 3.70023C358.771 3.59023 366.401 3.97023 373.611 3.47023C376.271 3.78023 379.411 3.72023 382.421 3.69023C384.631 3.67023 387.171 3.85023 388.991 3.50023C389.201 3.46023 389.981 3.46023 390.451 3.47023C391.781 3.53023 393.051 3.59023 394.351 3.65023C394.951 3.69023 395.781 3.68023 396.571 3.86023C397.371 4.00023 398.171 4.28023 398.951 4.68023C400.251 5.35023 401.311 6.25023 402.121 7.39023C402.911 8.53023 403.471 9.95023 403.521 11.6402C403.511 12.0202 403.501 12.4002 403.451 12.7702C403.391 13.1202 403.321 13.5602 403.251 13.8302L402.821 15.6102L401.941 19.1702C401.351 21.5402 400.751 23.9002 400.161 26.2602C398.971 30.9902 397.811 35.7302 396.761 40.5502C395.881 43.1102 395.231 46.1302 394.531 49.0802C393.291 54.3102 392.491 59.3002 391.151 64.6502C389.891 69.7002 388.531 75.1102 387.591 79.9602C385.971 88.3302 383.851 96.5302 381.991 104.79C381.511 106.91 381.071 109.33 380.301 111.17C380.121 111.61 379.611 113.93 379.561 114.59C379.451 115.99 378.951 117.54 378.721 118.87C378.391 120.76 377.811 122.57 377.271 124.38L376.881 125.74L376.701 126.42C376.641 126.66 376.591 126.87 376.561 127.05C376.441 127.81 376.531 128.56 376.871 129.28L379.741 141.58C380.701 145.68 381.651 149.78 382.611 153.88C383.051 155.8 383.551 157.63 383.801 159.67C383.961 161.03 384.671 164.18 385.111 165.47C386.161 168.52 386.771 171.76 387.511 174.89C389.721 184.37 391.941 193.85 394.151 203.32C395.111 207.48 395.941 211.64 396.841 215.8C397.751 220.02 398.991 224.33 399.651 228.49C399.701 228.78 399.811 229.22 399.901 229.57C400.331 231.22 400.831 232.88 401.191 234.51C401.661 236.63 402.041 239.5 402.441 240.68C402.641 241.27 402.801 241.81 402.921 242.32C403.051 242.88 403.141 243.48 403.121 244.03C403.111 245.14 402.841 246.14 402.431 247.14C401.821 248.57 400.831 249.64 399.831 250.28C398.831 250.94 397.841 251.23 397.061 251.29C396.281 251.36 395.711 251.25 395.391 251.09C395.071 250.94 394.991 250.76 395.131 250.56C395.261 250.38 395.831 250.19 396.451 249.92C397.421 249.46 398.001 248.95 398.441 248.47C398.871 247.98 399.201 247.54 399.491 247.01C399.771 246.48 400.051 245.86 400.181 245C400.251 244.57 400.261 244.08 400.171 243.53C400.151 243.39 400.121 243.25 400.091 243.1C400.041 242.9 399.991 242.7 399.941 242.49C399.841 242.07 399.731 241.63 399.621 241.16C397.321 231.58 395.601 222.11 393.191 212.54C392.141 206.18 390.321 199.6 388.901 193.14C387.431 186.42 386.181 179.53 384.411 173.03C382.651 166.56 381.201 160.14 379.701 153.68C378.561 148.76 377.581 143.83 376.461 138.89C375.861 136.34 375.261 133.76 374.651 131.19L374.421 130.23L374.311 129.75C374.271 129.56 374.231 129.38 374.201 129.19C374.081 128.44 374.081 127.67 374.191 126.92C374.321 126.12 374.491 125.58 374.641 124.92C374.801 124.29 374.961 123.66 375.111 123.04C375.901 119.95 376.941 116.72 377.471 113.75C378.631 107.24 380.471 100.68 381.761 94.3302C383.561 85.5102 385.781 76.7102 387.641 68.0202C388.641 63.3302 389.621 58.6702 390.731 53.9802C391.241 51.8402 391.701 49.8002 392.401 47.5402C393.111 45.2302 393.921 41.8102 394.361 38.8402C394.551 37.6102 394.951 35.5802 395.271 34.5602C396.621 30.3402 397.541 25.7602 398.561 21.3502C399.211 18.5502 400.261 15.4902 400.521 13.7802C400.631 13.0102 400.741 12.4702 400.711 11.9002C400.711 11.3302 400.631 10.7802 400.461 10.2502C400.151 9.19023 399.521 8.24023 398.661 7.54023C398.041 7.05023 397.271 6.68023 396.491 6.48023C396.091 6.38023 395.701 6.30023 395.301 6.26023C394.931 6.20023 394.391 6.17023 393.991 6.09023C393.531 6.01023 391.651 5.99023 391.081 6.05023C387.841 6.45023 384.111 6.25023 380.621 6.26023C372.211 6.26023 363.781 6.26023 355.371 6.26023C348.411 6.24023 341.731 6.67023 334.721 6.50023C330.461 6.90023 325.701 6.72023 321.171 6.72023C317.701 6.72023 314.241 6.58023 310.771 6.50023C307.301 6.42023 303.931 6.50023 300.261 6.32023C295.741 6.10023 290.371 6.30023 285.381 6.26023C282.671 6.24023 279.641 6.46023 277.191 6.08023C276.861 6.03023 275.601 6.04023 275.141 6.08023C271.571 6.48023 267.071 6.37023 263.901 6.21023C258.711 5.96023 253.721 6.07023 248.661 6.03023C244.461 6.03023 240.231 6.02023 236.041 6.01023C233.031 5.99023 230.081 6.07023 226.911 5.90023C224.491 5.77023 221.271 5.99023 218.401 6.01023C215.521 6.01023 212.611 6.01023 209.721 6.01023H190.781C187.361 6.01023 183.921 6.04023 180.531 6.01023C177.311 5.97023 174.131 5.81023 170.921 5.80023C161.901 5.75023 153.041 6.18023 143.951 6.02023C141.491 6.31023 139.121 6.10023 136.551 6.04023C134.191 5.99023 131.431 5.87023 129.071 6.16023C128.411 6.24023 127.161 6.22023 126.181 6.24023C123.991 6.28023 122.101 6.01023 119.491 6.21023C117.661 6.36023 114.841 6.21023 112.491 6.25023C110.021 6.28023 107.221 6.08023 105.151 6.44023C100.811 5.90023 96.671 6.73023 92.341 6.48023C90.981 6.40023 89.491 6.37023 88.061 6.32023C87.341 6.29023 86.541 6.22023 85.921 6.25023C74.411 6.74023 62.651 6.34023 51.051 6.48023C49.621 6.50023 48.251 6.60023 46.821 6.65023C46.141 6.67023 45.371 6.69023 44.691 6.66023C38.331 6.46023 38.351 6.47023 32.411 6.66023C30.921 6.71023 29.291 6.66023 27.741 6.69023C23.731 6.75023 19.821 6.65023 15.661 6.88023C14.621 6.94023 13.561 6.95023 12.491 6.94023C11.951 6.93023 11.411 6.92023 10.871 6.91023H10.261L9.67098 6.98023C8.10098 7.22023 6.59098 8.29023 5.89098 9.79023C5.57098 10.4502 5.40098 11.1802 5.40098 11.9302C5.38098 12.3202 5.44098 12.6402 5.51098 13.1002C5.60098 13.5702 5.70098 14.0502 5.79098 14.5202C6.17098 16.4302 6.59098 18.3702 7.07098 20.4102C9.47098 30.6502 11.861 40.9002 14.261 51.1402C14.561 52.4202 14.891 54.2102 15.151 54.8902C16.231 57.7402 17.101 60.2802 17.091 63.2402C17.091 63.3802 17.341 64.4402 17.431 64.6702C18.431 67.0902 19.001 70.4302 19.651 73.2602C22.141 84.1302 25.091 94.6902 27.461 105.62C27.841 107.38 28.501 109.73 28.611 110.79C28.841 113.04 29.541 113.99 29.881 115.91C30.171 117.51 30.881 119.83 31.071 121.18C31.251 122.41 31.461 123.66 31.711 124.93L31.901 125.88C31.961 126.17 32.051 126.63 32.091 127C32.171 127.78 32.141 128.58 32.001 129.35C31.721 130.64 31.441 131.91 31.171 133.16C30.921 134.38 30.671 135.58 30.441 136.72C29.581 140.99 28.701 145.41 27.671 149.2C25.631 156.66 24.011 164.16 22.241 171.64C20.451 179.32 18.651 187.01 16.861 194.69C16.141 197.83 15.181 201.17 14.871 204.16C14.811 204.77 14.431 206.18 14.171 207.17C13.561 209.52 12.871 211.83 12.321 214.18C11.771 216.53 11.381 218.9 10.881 221.28C10.481 223.2 10.021 224.98 9.75098 226.99C9.56098 228.46 8.85098 230.95 8.13098 233.16C7.41098 235.36 6.68098 237.6 5.97098 240.02C5.80098 240.62 5.62098 241.24 5.44098 241.87C5.35098 242.18 5.27098 242.5 5.18098 242.82C5.11098 243.12 5.05098 243.38 5.01098 243.66C4.87098 244.79 5.09098 246.02 5.77098 247.09C6.34098 248.04 7.22098 248.79 8.21098 249.3C8.72098 249.52 9.24098 249.73 9.80098 249.8C10.351 249.91 10.891 249.9 11.591 249.9C14.221 249.9 16.861 249.9 19.491 249.9C21.691 249.9 23.771 249.92 26.141 249.73C28.261 249.56 31.821 249.63 34.401 249.76C38.461 249.96 42.201 249.98 46.171 249.76C47.541 249.68 49.171 249.68 50.681 249.68H78.301C80.521 249.68 82.871 249.61 84.681 249.89C86.151 249.56 88.461 249.67 90.401 249.69C93.361 249.73 96.271 249.87 99.231 249.9C102.751 249.93 106.181 249.9 109.681 249.7C112.911 249.51 116.811 249.82 120.301 249.54C120.951 249.49 122.331 249.68 123.291 249.66C127.291 249.59 131.611 249.9 135.301 249.44C135.611 249.4 136.471 249.4 136.831 249.44C141.431 249.9 145.991 249.55 150.541 249.44C155.501 249.31 160.031 249.69 164.881 249.68C170.401 249.67 176.161 249.53 181.401 249.71C190.441 250.02 199.421 249.87 208.421 249.9C217.621 249.94 226.841 249.93 236.041 249.9C240.041 249.89 244.011 249.72 248.021 249.69C252.481 249.69 256.961 249.69 261.431 249.69C265.641 249.69 269.851 249.69 274.061 249.69C276.031 249.69 278.221 249.57 279.941 249.85C280.291 249.91 281.501 249.93 281.991 249.88C285.601 249.57 289.071 249.59 292.741 249.87C293.781 249.95 295.311 249.87 296.551 249.92C300.001 250.03 302.971 249.76 306.161 249.68C309.101 249.6 312.431 249.89 315.051 249.46C315.411 249.4 316.851 249.4 317.311 249.46C323.201 250.18 329.941 248.98 335.801 249.65C338.141 249.24 340.571 249.71 342.431 249.65C345.121 249.56 347.721 249.45 350.521 249.46C353.151 249.46 355.791 249.48 358.411 249.46C363.201 249.41 368.061 249.6 372.851 249.26C374.451 249.15 377.451 249.07 379.421 249.4C379.771 249.46 380.821 249.45 381.501 249.43C386.761 249.3 393.161 249.66 394.481 250.26C395.251 250.61 395.161 251.04 394.561 251.4C394.261 251.58 391.971 251.69 390.521 251.82C388.011 252.05 385.601 252.36 382.861 252.45C379.611 252.56 376.061 252.48 371.811 252.48L371.861 252.52Z" fill="#B09151"/>
<mask id="mask0_2211_169400" style="mask-type:alpha" maskUnits="userSpaceOnUse" x="14" y="23" width="377" height="213">
<path d="M47.5195 82.2873C47.0854 82.2873 46.6514 82.2873 46.2173 82.2873C44.8573 82.2873 43.5117 82.4539 42.1373 82.4539C37.7389 82.4539 33.3261 82.5849 28.9277 82.5849C24.8332 82.5849 20.7242 82.573 16.6586 82.3825C15.9207 82.3468 14.8067 81.4421 14.9224 81.0017C15.125 80.2518 15.7616 79.1567 16.9914 78.8948C18.8578 78.4901 21.3753 78.5615 23.5889 78.633C30.5771 78.8353 33.6588 79.3234 40.647 79.5376C42.5713 79.5971 48.1561 79.978 50.0803 80.0257C51.5272 80.0614 52.8149 80.0733 54.2328 80.2161C54.4064 80.2399 55.2021 80.5375 55.1877 80.5732C54.9706 81.4064 55.506 80.847 54.8549 81.6207C54.4642 82.073 51.5995 82.1206 50.8327 82.1683C49.7186 82.2397 48.6046 82.2754 47.4905 82.2873H47.5195Z" fill="#743B14"/>
<path d="M27.4519 121.022C24.8765 119.581 20.2611 119.843 17.5266 120.153C17.4688 120.153 16.3113 120.165 16.0943 120.343C15.2117 121.057 13.4466 122.105 14.17 122.498C15.7615 123.343 18.5684 124.331 21.0569 124.414C24.1242 124.521 31.2715 124.843 30.8809 122.165C30.8085 121.712 27.9872 121.319 27.4519 121.022Z" fill="#743B14"/>
<path d="M35.4252 109.422C34.8031 109.374 32.9367 109.696 32.3145 109.708C31.3886 109.743 30.1298 109.815 29.2039 109.827C26.5851 109.862 25.3408 109.934 22.7221 109.993C21.4923 110.017 17.8897 110.708 16.5441 110.089C15.3866 109.565 16.4862 109.208 15.459 108.601C15.1985 108.446 15.6471 107.482 16.1824 107.244C17.3254 106.756 18.7288 106.232 20.0599 106.208C22.8667 106.161 25.471 106.684 28.2779 106.815C31.1281 106.946 34.0941 107.148 36.9299 107.387C37.6967 107.446 39.0857 107.767 39.0712 107.91C39.0278 108.66 38.8831 108.994 37.5376 109.089C37.3061 109.101 35.6712 109.446 35.4252 109.422Z" fill="#743B14"/>
<path d="M20.2179 27.5627C18.2068 27.527 16.5574 27.3603 15.8919 26.908C15.1396 26.4081 15.0383 25.4201 15.8919 25.0154C17.657 24.194 20.0443 23.2537 22.5473 23.0632C25.6291 22.8251 29.1014 23.3251 32.4147 23.4798C33.5432 23.5394 34.7007 23.5274 35.8437 23.5513C38.3178 23.5989 42.6872 24.075 45.2336 24.6107C47.0421 24.9916 52.9886 25.2177 55.2457 25.3129C55.5205 25.3249 55.998 25.3963 56.0269 25.4558C56.3597 26.4914 57.5461 26.051 55.3325 26.9318C55.072 27.0389 48.677 27.4794 48.2141 27.4675C42.774 27.3722 36.9867 27.1699 31.4019 27.158C29.3185 27.158 24.1099 27.6103 20.2324 27.5389L20.2179 27.5627Z" fill="#743B14"/>
<path d="M25.2805 68.5245C27.8847 68.346 33.7299 68.6197 30.3733 66.5605C27.5086 64.7988 23.9494 64.7273 20.4191 64.8345C18.3501 64.894 15.905 64.8107 14.8633 66.1438C14.8777 68.0484 18.1621 69.2744 21.0123 68.9649C22.4302 68.8102 23.8336 68.6197 25.266 68.5245H25.2805Z" fill="#743B14"/>
<path d="M40.1576 39.7665C40.1576 40.1117 39.7091 40.3735 38.841 40.564C36.8878 40.9806 34.2835 40.7783 32.2 40.7902C28.9736 40.7902 25.5446 41.1354 22.3182 41.183C21.8263 41.183 21.3054 41.3139 20.8714 41.4686C19.5258 41.9805 17.5726 41.1234 16.719 40.445C14.5053 38.6714 16.5598 37.7905 18.0356 37.3263C18.4262 37.2072 19.9309 37.0763 20.9003 37.1477C23.2008 37.3382 25.7183 37.2549 28.0187 37.481C31.4622 37.8262 34.949 38.0405 38.3635 38.5166C39.1448 38.6237 39.6223 38.8618 39.8972 39.1832C40.0419 39.3618 40.1721 39.6355 40.1721 39.7784L40.1576 39.7665Z" fill="#743B14"/>
<path d="M36.0738 54.0929C32.8907 54.3667 27.5664 54.5452 25.3093 54.7357C23.1246 54.9261 20.9255 55.2713 18.7407 55.2356C17.6701 55.2118 16.4837 54.5452 15.6445 53.9977C15.3841 53.831 16.122 53.0811 16.4258 52.605C17.6701 50.5933 20.4046 51.3194 22.7629 51.3075C25.2659 51.2956 31.9214 51.9741 34.4244 51.8908C37.347 51.7956 37.7087 52.2122 36.638 53.8786C36.4789 54.1167 35.741 54.2 36.0738 54.0929Z" fill="#743B14"/>
<path d="M40.4308 94.7944C40.4308 95.1396 39.9533 95.4015 39.0418 95.592C36.9873 96.0086 34.2528 95.8062 32.0826 95.8181C28.697 95.8181 25.1089 96.1633 21.7233 96.199C21.2169 96.199 20.6526 96.33 20.2186 96.4847C18.8007 96.9966 16.7607 96.1395 15.8636 95.461C13.5487 93.6874 15.7045 92.8066 17.2381 92.3424C17.6577 92.2233 19.2203 92.0924 20.2331 92.1757C22.6348 92.3662 25.297 92.2828 27.6987 92.5209C31.3158 92.8661 34.9762 93.0804 38.5499 93.5565C39.3601 93.6636 39.8665 93.9017 40.1559 94.2231C40.315 94.4016 40.4453 94.6754 40.4453 94.8182L40.4308 94.7944Z" fill="#743B14"/>
<path d="M47.5195 176.713C47.0854 176.713 46.6514 176.713 46.2173 176.713C44.8573 176.713 43.5117 176.547 42.1373 176.547C37.7389 176.547 33.3261 176.416 28.9277 176.416C24.8332 176.416 20.7242 176.428 16.6586 176.618C15.9207 176.654 14.8067 177.558 14.9224 177.999C15.125 178.749 15.7616 179.844 16.9914 180.106C18.8578 180.51 21.3753 180.439 23.5889 180.368C30.5771 180.165 33.6588 179.677 40.647 179.463C42.5713 179.403 48.1561 179.022 50.0803 178.975C51.5272 178.939 52.8149 178.927 54.2328 178.784C54.4064 178.761 55.2021 178.463 55.1877 178.427C54.9706 177.594 55.506 178.154 54.8549 177.38C54.4642 176.927 51.5995 176.88 50.8327 176.832C49.7186 176.761 48.6046 176.725 47.4905 176.713H47.5195Z" fill="#743B14"/>
<path d="M27.4519 137.978C24.8765 139.419 20.2611 139.157 17.5266 138.847C17.4688 138.847 16.3113 138.835 16.0943 138.657C15.2117 137.943 13.4466 136.895 14.17 136.502C15.7615 135.657 18.5684 134.669 21.0569 134.586C24.1242 134.479 31.2715 134.157 30.8809 136.835C30.8085 137.288 27.9872 137.681 27.4519 137.978Z" fill="#743B14"/>
<path d="M35.4252 149.578C34.8031 149.626 32.9367 149.304 32.3145 149.292C31.3886 149.257 30.1298 149.185 29.2039 149.173C26.5851 149.138 25.3408 149.066 22.7221 149.007C21.4923 148.983 17.8897 148.292 16.5441 148.911C15.3866 149.435 16.4862 149.792 15.459 150.399C15.1985 150.554 15.6471 151.518 16.1824 151.756C17.3254 152.244 18.7288 152.768 20.0599 152.792C22.8667 152.839 25.471 152.316 28.2779 152.185C31.1281 152.054 34.0941 151.852 36.9299 151.613C37.6967 151.554 39.0857 151.233 39.0712 151.09C39.0278 150.34 38.8831 150.006 37.5376 149.911C37.3061 149.899 35.6712 149.554 35.4252 149.578Z" fill="#743B14"/>
<path d="M20.2179 231.437C18.2068 231.473 16.5574 231.64 15.8919 232.092C15.1396 232.592 15.0383 233.58 15.8919 233.985C17.657 234.806 20.0443 235.746 22.5473 235.937C25.6291 236.175 29.1014 235.675 32.4147 235.52C33.5432 235.461 34.7007 235.473 35.8437 235.449C38.3178 235.401 42.6872 234.925 45.2336 234.389C47.0421 234.008 52.9886 233.782 55.2457 233.687C55.5205 233.675 55.998 233.604 56.0269 233.544C56.3597 232.509 57.5461 232.949 55.3325 232.068C55.072 231.961 48.677 231.521 48.2141 231.533C42.774 231.628 36.9867 231.83 31.4019 231.842C29.3185 231.842 24.1099 231.39 20.2324 231.461L20.2179 231.437Z" fill="#743B14"/>
<path d="M25.2805 190.475C27.8847 190.654 33.7299 190.38 30.3733 192.44C27.5086 194.201 23.9494 194.273 20.4191 194.166C18.3501 194.106 15.905 194.189 14.8633 192.856C14.8777 190.952 18.1621 189.726 21.0123 190.035C22.4302 190.19 23.8336 190.38 25.266 190.475H25.2805Z" fill="#743B14"/>
<path d="M40.1576 219.234C40.1576 218.888 39.7091 218.626 38.841 218.436C36.8878 218.019 34.2835 218.222 32.2 218.21C28.9736 218.21 25.5446 217.865 22.3182 217.817C21.8263 217.817 21.3054 217.686 20.8714 217.531C19.5258 217.02 17.5726 217.877 16.719 218.555C14.5053 220.329 16.5598 221.209 18.0356 221.674C18.4262 221.793 19.9309 221.924 20.9003 221.852C23.2008 221.662 25.7183 221.745 28.0187 221.519C31.4622 221.174 34.949 220.96 38.3635 220.483C39.1448 220.376 39.6223 220.138 39.8972 219.817C40.0419 219.638 40.1721 219.364 40.1721 219.222L40.1576 219.234Z" fill="#743B14"/>
<path d="M36.0738 204.908C32.8907 204.634 27.5664 204.455 25.3093 204.265C23.1246 204.074 20.9255 203.729 18.7407 203.765C17.6701 203.789 16.4837 204.455 15.6445 205.003C15.3841 205.169 16.122 205.919 16.4258 206.396C17.6701 208.407 20.4046 207.681 22.7629 207.693C25.2659 207.705 31.9214 207.026 34.4244 207.11C37.347 207.205 37.7087 206.788 36.638 205.122C36.4789 204.884 35.741 204.8 36.0738 204.908Z" fill="#743B14"/>
<path d="M40.4308 164.206C40.4308 163.86 39.9533 163.598 39.0418 163.408C36.9873 162.991 34.2528 163.194 32.0826 163.182C28.697 163.182 25.1089 162.837 21.7233 162.801C21.2169 162.801 20.6526 162.67 20.2186 162.515C18.8007 162.003 16.7607 162.86 15.8636 163.539C13.5487 165.313 15.7045 166.193 17.2381 166.658C17.6577 166.777 19.2203 166.908 20.2331 166.824C22.6348 166.634 25.297 166.717 27.6987 166.479C31.3158 166.134 34.9762 165.92 38.5499 165.444C39.3601 165.336 39.8665 165.098 40.1559 164.777C40.315 164.598 40.4453 164.325 40.4453 164.182L40.4308 164.206Z" fill="#743B14"/>
<path d="M356.72 82.2873C357.164 82.2873 357.608 82.2873 358.052 82.2873C359.443 82.2873 360.819 82.4539 362.224 82.4539C366.723 82.4539 371.236 82.5849 375.734 82.5849C379.922 82.5849 384.124 82.573 388.282 82.3825C389.037 82.3468 390.176 81.4421 390.058 81.0017C389.851 80.2518 389.2 79.1567 387.942 78.8948C386.033 78.4901 383.458 78.5615 381.194 78.633C374.047 78.8353 370.896 79.3234 363.749 79.5376C361.781 79.5971 356.069 79.978 354.101 80.0257C352.621 80.0614 351.304 80.0733 349.854 80.2161C349.677 80.2399 348.863 80.5375 348.877 80.5732C349.099 81.4064 348.552 80.847 349.218 81.6207C349.617 82.073 352.547 82.1206 353.331 82.1683C354.471 82.2397 355.61 82.2754 356.75 82.2873H356.72Z" fill="#743B14"/>
<path d="M377.242 121.022C379.876 119.581 384.597 119.843 387.393 120.153C387.452 120.153 388.636 120.165 388.858 120.343C389.761 121.057 391.566 122.105 390.826 122.498C389.198 123.343 386.328 124.331 383.783 124.414C380.646 124.521 373.336 124.843 373.735 122.165C373.809 121.712 376.695 121.319 377.242 121.022Z" fill="#743B14"/>
<path d="M369.088 109.422C369.724 109.374 371.633 109.696 372.269 109.708C373.216 109.743 374.504 109.815 375.451 109.827C378.129 109.862 379.402 109.934 382.08 109.993C383.338 110.017 387.022 110.708 388.398 110.089C389.582 109.565 388.457 109.208 389.508 108.601C389.774 108.446 389.316 107.482 388.768 107.244C387.599 106.756 386.164 106.232 384.803 106.208C381.932 106.161 379.268 106.684 376.398 106.815C373.483 106.946 370.449 107.148 367.549 107.387C366.765 107.446 365.344 107.767 365.359 107.91C365.404 108.66 365.552 108.994 366.928 109.089C367.164 109.101 368.836 109.446 369.088 109.422Z" fill="#743B14"/>
<path d="M384.643 27.5627C386.7 27.527 388.386 27.3603 389.067 26.908C389.837 26.4081 389.94 25.4201 389.067 25.0154C387.262 24.194 384.82 23.2537 382.26 23.0632C379.109 22.8251 375.557 23.3251 372.169 23.4798C371.015 23.5394 369.831 23.5274 368.662 23.5513C366.132 23.5989 361.663 24.075 359.059 24.6107C357.209 24.9916 351.127 25.2177 348.819 25.3129C348.538 25.3249 348.049 25.3963 348.02 25.4558C347.68 26.4914 346.466 26.051 348.73 26.9318C348.996 27.0389 355.537 27.4794 356.01 27.4675C361.574 27.3722 367.493 27.1699 373.205 27.158C375.335 27.158 380.662 27.6103 384.628 27.5389L384.643 27.5627Z" fill="#743B14"/>
<path d="M379.463 68.5245C376.8 68.346 370.822 68.6197 374.255 66.5605C377.185 64.7988 380.825 64.7273 384.435 64.8345C386.551 64.894 389.052 64.8107 390.117 66.1438C390.102 68.0484 386.743 69.2744 383.828 68.9649C382.378 68.8102 380.943 68.6197 379.478 68.5245H379.463Z" fill="#743B14"/>
<path d="M364.249 39.7665C364.249 40.1117 364.707 40.3735 365.595 40.564C367.593 40.9806 370.256 40.7783 372.387 40.7902C375.687 40.7902 379.194 41.1354 382.493 41.183C382.996 41.183 383.529 41.3139 383.973 41.4686C385.349 41.9805 387.347 41.1234 388.22 40.445C390.484 38.6714 388.383 37.7905 386.873 37.3263C386.474 37.2072 384.935 37.0763 383.943 37.1477C381.591 37.3382 379.016 37.2549 376.663 37.481C373.142 37.8262 369.575 38.0405 366.083 38.5166C365.284 38.6237 364.796 38.8618 364.515 39.1832C364.367 39.3618 364.234 39.6355 364.234 39.7784L364.249 39.7665Z" fill="#743B14"/>
<path d="M368.422 54.0929C371.677 54.3667 377.122 54.5452 379.431 54.7357C381.665 54.9261 383.914 55.2713 386.149 55.2356C387.244 55.2118 388.457 54.5452 389.315 53.9977C389.582 53.831 388.827 53.0811 388.516 52.605C387.244 50.5933 384.447 51.3194 382.035 51.3075C379.475 51.2956 372.668 51.9741 370.109 51.8908C367.119 51.7956 366.75 52.2122 367.845 53.8786C368.007 54.1167 368.762 54.2 368.422 54.0929Z" fill="#743B14"/>
<path d="M363.968 94.7944C363.968 95.1396 364.457 95.4015 365.389 95.592C367.49 96.0086 370.287 95.8062 372.506 95.8181C375.969 95.8181 379.638 96.1633 383.101 96.199C383.619 96.199 384.196 96.33 384.64 96.4847C386.09 96.9966 388.176 96.1395 389.094 95.461C391.461 93.6874 389.257 92.8066 387.688 92.3424C387.259 92.2233 385.661 92.0924 384.625 92.1757C382.169 92.3662 379.446 92.2828 376.99 92.5209C373.29 92.8661 369.547 93.0804 365.892 93.5565C365.063 93.6636 364.545 93.9017 364.249 94.2231C364.087 94.4016 363.953 94.6754 363.953 94.8182L363.968 94.7944Z" fill="#743B14"/>
<path d="M356.72 176.713C357.164 176.713 357.608 176.713 358.052 176.713C359.443 176.713 360.819 176.547 362.224 176.547C366.723 176.547 371.236 176.416 375.734 176.416C379.922 176.416 384.124 176.428 388.282 176.618C389.037 176.654 390.176 177.558 390.058 177.999C389.851 178.749 389.2 179.844 387.942 180.106C386.033 180.51 383.458 180.439 381.194 180.368C374.047 180.165 370.896 179.677 363.749 179.463C361.781 179.403 356.069 179.022 354.101 178.975C352.621 178.939 351.304 178.927 349.854 178.784C349.677 178.761 348.863 178.463 348.877 178.427C349.099 177.594 348.552 178.154 349.218 177.38C349.617 176.927 352.547 176.88 353.331 176.832C354.471 176.761 355.61 176.725 356.75 176.713H356.72Z" fill="#743B14"/>
<path d="M377.242 137.978C379.876 139.419 384.597 139.157 387.393 138.847C387.452 138.847 388.636 138.835 388.858 138.657C389.761 137.943 391.566 136.895 390.826 136.502C389.198 135.657 386.328 134.669 383.783 134.586C380.646 134.479 373.336 134.157 373.735 136.835C373.809 137.288 376.695 137.681 377.242 137.978Z" fill="#743B14"/>
<path d="M369.088 149.578C369.724 149.626 371.633 149.304 372.269 149.292C373.216 149.257 374.504 149.185 375.451 149.173C378.129 149.138 379.402 149.066 382.08 149.007C383.338 148.983 387.022 148.292 388.398 148.911C389.582 149.435 388.457 149.792 389.508 150.399C389.774 150.554 389.316 151.518 388.768 151.756C387.599 152.244 386.164 152.768 384.803 152.792C381.932 152.839 379.268 152.316 376.398 152.185C373.483 152.054 370.449 151.852 367.549 151.613C366.765 151.554 365.344 151.233 365.359 151.09C365.404 150.34 365.552 150.006 366.928 149.911C367.164 149.899 368.836 149.554 369.088 149.578Z" fill="#743B14"/>
<path d="M384.643 231.437C386.7 231.473 388.386 231.64 389.067 232.092C389.837 232.592 389.94 233.58 389.067 233.985C387.262 234.806 384.82 235.746 382.26 235.937C379.109 236.175 375.557 235.675 372.169 235.52C371.015 235.461 369.831 235.473 368.662 235.449C366.132 235.401 361.663 234.925 359.059 234.389C357.209 234.008 351.127 233.782 348.819 233.687C348.538 233.675 348.049 233.604 348.02 233.544C347.68 232.509 346.466 232.949 348.73 232.068C348.996 231.961 355.537 231.521 356.01 231.533C361.574 231.628 367.493 231.83 373.205 231.842C375.335 231.842 380.662 231.39 384.628 231.461L384.643 231.437Z" fill="#743B14"/>
<path d="M379.463 190.475C376.8 190.654 370.822 190.38 374.255 192.44C377.185 194.201 380.825 194.273 384.435 194.166C386.551 194.106 389.052 194.189 390.117 192.856C390.102 190.952 386.743 189.726 383.828 190.035C382.378 190.19 380.943 190.38 379.478 190.475H379.463Z" fill="#743B14"/>
<path d="M364.249 219.234C364.249 218.888 364.707 218.626 365.595 218.436C367.593 218.019 370.256 218.222 372.387 218.21C375.687 218.21 379.194 217.865 382.493 217.817C382.996 217.817 383.529 217.686 383.973 217.531C385.349 217.02 387.347 217.877 388.22 218.555C390.484 220.329 388.383 221.209 386.873 221.674C386.474 221.793 384.935 221.924 383.943 221.852C381.591 221.662 379.016 221.745 376.663 221.519C373.142 221.174 369.575 220.96 366.083 220.483C365.284 220.376 364.796 220.138 364.515 219.817C364.367 219.638 364.234 219.364 364.234 219.222L364.249 219.234Z" fill="#743B14"/>
<path d="M368.422 204.908C371.677 204.634 377.122 204.455 379.431 204.265C381.665 204.074 383.914 203.729 386.149 203.765C387.244 203.789 388.457 204.455 389.315 205.003C389.582 205.169 388.827 205.919 388.516 206.396C387.244 208.407 384.447 207.681 382.035 207.693C379.475 207.705 372.668 207.026 370.109 207.11C367.119 207.205 366.75 206.788 367.845 205.122C368.007 204.884 368.762 204.8 368.422 204.908Z" fill="#743B14"/>
<path d="M363.968 164.206C363.968 163.86 364.457 163.598 365.389 163.408C367.49 162.991 370.287 163.194 372.506 163.182C375.969 163.182 379.638 162.837 383.101 162.801C383.619 162.801 384.196 162.67 384.64 162.515C386.09 162.003 388.176 162.86 389.094 163.539C391.461 165.313 389.257 166.193 387.688 166.658C387.259 166.777 385.661 166.908 384.625 166.824C382.169 166.634 379.446 166.717 376.99 166.479C373.29 166.134 369.547 165.92 365.892 165.444C365.063 165.336 364.545 165.098 364.249 164.777C364.087 164.598 363.953 164.325 363.953 164.182L363.968 164.206Z" fill="#743B14"/>
</mask>
<g mask="url(#mask0_2211_169400)">
<path d="M389.148 248.206H16.8192C12.5162 248.206 9.3374 244.354 10.2969 240.302L35.9115 132.255C36.1344 131.307 36.1344 130.325 35.9115 129.377L10.2969 21.339C9.3374 17.2957 12.5259 13.4351 16.8192 13.4351H389.158C393.461 13.4351 396.639 17.287 395.68 21.339L370.065 129.386C369.842 130.333 369.842 131.316 370.065 132.264L395.68 240.311C396.639 244.354 393.451 248.214 389.158 248.214L389.148 248.206Z" fill="#C3AD7C"/>
</g>
</svg>
