<svg width="230" height="96" viewBox="0 0 230 96" fill="none" xmlns="http://www.w3.org/2000/svg">
<path d="M186.557 43.33C184.697 48.19 182.418 52.45 180.018 55.81C178.458 54.61 174.798 52.57 172.878 51.67C177.858 46.09 181.397 36.49 183.137 26.83L191.057 28.15C190.457 30.91 189.798 33.61 189.018 36.25H207.077L208.458 35.83L213.677 38.89C212.117 45.25 209.597 51.67 207.438 56.29C205.998 55.45 203.058 54.01 201.318 53.35C202.458 50.83 203.837 46.99 204.857 43.33H186.557ZM178.458 66.55H159.438V59.41H178.458V66.55ZM177.137 42.31H160.637V35.41H177.137V42.31ZM197.057 51.91C199.577 63.37 204.797 72.31 215.057 76.15C213.437 77.59 211.278 80.59 210.318 82.51C202.638 79.09 197.777 73.27 194.537 65.47C192.017 71.89 186.918 78.37 177.018 83.11C175.938 81.37 173.357 78.61 171.617 77.23C187.697 69.85 189.378 58.15 189.378 50.41V44.89H197.057V51.91Z" fill="#A6843B" stroke="#A6843B" stroke-width="4" stroke-linecap="round" stroke-linejoin="round"/>
<path d="M186.268 43.63C184.408 48.49 182.128 52.75 179.728 56.11C178.168 54.91 174.508 52.87 172.588 51.97C177.568 46.39 181.108 36.79 182.848 27.13L190.768 28.45C190.168 31.21 189.508 33.91 188.728 36.55H206.788L208.168 36.13L213.388 39.19C211.828 45.55 209.308 51.97 207.148 56.59C205.708 55.75 202.768 54.31 201.028 53.65C202.168 51.13 203.548 47.29 204.568 43.63H186.268ZM178.168 66.85H159.148V59.71H178.168V66.85ZM176.848 42.61H160.348V35.71H176.848V42.61ZM196.768 52.21C199.288 63.67 204.508 72.61 214.768 76.45C213.148 77.89 210.988 80.89 210.028 82.81C202.348 79.39 197.488 73.57 194.248 65.77C191.728 72.19 186.628 78.67 176.728 83.41C175.648 81.67 173.068 78.91 171.328 77.53C187.408 70.15 189.088 58.45 189.088 50.71V45.19H196.768V52.21Z" fill="#A6843B" stroke="#A6843B" stroke-width="4" stroke-linecap="round" stroke-linejoin="round"/>
<path d="M185.964 43.92C184.104 48.78 181.824 53.04 179.424 56.4C177.864 55.2 174.204 53.16 172.284 52.26C177.264 46.68 180.804 37.08 182.544 27.42L190.464 28.74C189.864 31.5 189.204 34.2 188.424 36.84H206.484L207.864 36.42L213.084 39.48C211.524 45.84 209.004 52.26 206.844 56.88C205.404 56.04 202.464 54.6 200.724 53.94C201.864 51.42 203.244 47.58 204.264 43.92H185.964ZM177.864 67.14H158.844V60H177.864V67.14ZM176.544 42.9H160.044V36H176.544V42.9ZM196.464 52.5C198.984 63.96 204.204 72.9 214.464 76.74C212.844 78.18 210.684 81.18 209.724 83.1C202.044 79.68 197.184 73.86 193.944 66.06C191.424 72.48 186.324 78.96 176.424 83.7C175.344 81.96 172.764 79.2 171.024 77.82C187.104 70.44 188.784 58.74 188.784 51V45.48H196.464V52.5Z" fill="#A6843B" stroke="#A6843B" stroke-width="4" stroke-linecap="round" stroke-linejoin="round"/>
<path d="M185.675 44.21C183.815 49.07 181.535 53.33 179.135 56.69C177.575 55.49 173.915 53.45 171.995 52.55C176.975 46.97 180.515 37.37 182.255 27.71L190.175 29.03C189.575 31.79 188.915 34.49 188.135 37.13H206.195L207.575 36.71L212.795 39.77C211.235 46.13 208.715 52.55 206.555 57.17C205.115 56.33 202.175 54.89 200.435 54.23C201.575 51.71 202.955 47.87 203.975 44.21H185.675ZM177.575 67.43H158.555V60.29H177.575V67.43ZM176.255 43.19H159.755V36.29H176.255V43.19ZM196.175 52.79C198.695 64.25 203.915 73.19 214.175 77.03C212.555 78.47 210.395 81.47 209.435 83.39C201.755 79.97 196.895 74.15 193.655 66.35C191.135 72.77 186.035 79.25 176.135 83.99C175.055 82.25 172.475 79.49 170.735 78.11C186.815 70.73 188.495 59.03 188.495 51.29V45.77H196.175V52.79Z" fill="#A6843B" stroke="#A6843B" stroke-width="4" stroke-linecap="round" stroke-linejoin="round"/>
<path d="M185.378 44.51C183.518 49.37 181.238 53.63 178.838 56.99C177.278 55.79 173.618 53.75 171.698 52.85C176.678 47.27 180.218 37.67 181.958 28.01L189.878 29.33C189.278 32.09 188.618 34.79 187.838 37.43H205.898L207.278 37.01L212.498 40.07C210.938 46.43 208.418 52.85 206.258 57.47C204.818 56.63 201.878 55.19 200.138 54.53C201.278 52.01 202.658 48.17 203.678 44.51H185.378ZM177.278 67.73H158.258V60.59H177.278V67.73ZM175.958 43.49H159.458V36.59H175.958V43.49ZM195.878 53.09C198.398 64.55 203.618 73.49 213.878 77.33C212.258 78.77 210.098 81.77 209.138 83.69C201.458 80.27 196.598 74.45 193.358 66.65C190.838 73.07 185.738 79.55 175.838 84.29C174.758 82.55 172.178 79.79 170.438 78.41C186.518 71.03 188.198 59.33 188.198 51.59V46.07H195.878V53.09Z" fill="#A6843B" stroke="#A6843B" stroke-width="4" stroke-linecap="round" stroke-linejoin="round"/>
<path d="M185.089 44.8C183.229 49.66 180.949 53.92 178.549 57.28C176.989 56.08 173.329 54.04 171.409 53.14C176.389 47.56 179.929 37.96 181.669 28.3L189.589 29.62C188.989 32.38 188.329 35.08 187.549 37.72H205.609L206.989 37.3L212.209 40.36C210.649 46.72 208.129 53.14 205.969 57.76C204.529 56.92 201.589 55.48 199.849 54.82C200.989 52.3 202.369 48.46 203.389 44.8H185.089ZM176.989 68.02H157.969V60.88H176.989V68.02ZM175.669 43.78H159.169V36.88H175.669V43.78ZM195.589 53.38C198.109 64.84 203.329 73.78 213.589 77.62C211.969 79.06 209.809 82.06 208.849 83.98C201.169 80.56 196.309 74.74 193.069 66.94C190.549 73.36 185.449 79.84 175.549 84.58C174.469 82.84 171.889 80.08 170.149 78.7C186.229 71.32 187.909 59.62 187.909 51.88V46.36H195.589V53.38Z" fill="#A6843B" stroke="#A6843B" stroke-width="4" stroke-linecap="round" stroke-linejoin="round"/>
<path d="M184.8 45.1C182.94 49.96 180.66 54.22 178.26 57.58C176.7 56.38 173.04 54.34 171.12 53.44C176.1 47.86 179.64 38.26 181.38 28.6L189.3 29.92C188.7 32.68 188.04 35.38 187.26 38.02H205.32L206.7 37.6L211.92 40.66C210.36 47.02 207.84 53.44 205.68 58.06C204.24 57.22 201.3 55.78 199.56 55.12C200.7 52.6 202.08 48.76 203.1 45.1H184.8ZM176.7 68.32H157.68V61.18H176.7V68.32ZM175.38 44.08H158.88V37.18H175.38V44.08ZM195.3 53.68C197.82 65.14 203.04 74.08 213.3 77.92C211.68 79.36 209.52 82.36 208.56 84.28C200.88 80.86 196.02 75.04 192.78 67.24C190.26 73.66 185.16 80.14 175.26 84.88C174.18 83.14 171.6 80.38 169.86 79C185.94 71.62 187.62 59.92 187.62 52.18V46.66H195.3V53.68Z" fill="#A6843B" stroke="#A6843B" stroke-width="4" stroke-linecap="round" stroke-linejoin="round"/>
<path d="M184.495 45.39C182.635 50.25 180.355 54.51 177.955 57.87C176.395 56.67 172.735 54.63 170.815 53.73C175.795 48.15 179.335 38.55 181.075 28.89L188.995 30.21C188.395 32.97 187.735 35.67 186.955 38.31H205.015L206.395 37.89L211.615 40.95C210.055 47.31 207.535 53.73 205.375 58.35C203.935 57.51 200.995 56.07 199.255 55.41C200.395 52.89 201.775 49.05 202.795 45.39H184.495ZM176.395 68.61H157.375V61.47H176.395V68.61ZM175.075 44.37H158.575V37.47H175.075V44.37ZM194.995 53.97C197.515 65.43 202.735 74.37 212.995 78.21C211.375 79.65 209.215 82.65 208.255 84.57C200.575 81.15 195.715 75.33 192.475 67.53C189.955 73.95 184.855 80.43 174.955 85.17C173.875 83.43 171.295 80.67 169.555 79.29C185.635 71.91 187.315 60.21 187.315 52.47V46.95H194.995V53.97Z" fill="#A6843B" stroke="#A6843B" stroke-width="4" stroke-linecap="round" stroke-linejoin="round"/>
<path d="M184.206 45.68C182.346 50.54 180.066 54.8 177.666 58.16C176.106 56.96 172.446 54.92 170.526 54.02C175.506 48.44 179.046 38.84 180.786 29.18L188.706 30.5C188.106 33.26 187.446 35.96 186.666 38.6H204.726L206.106 38.18L211.326 41.24C209.766 47.6 207.246 54.02 205.086 58.64C203.646 57.8 200.706 56.36 198.966 55.7C200.106 53.18 201.486 49.34 202.506 45.68H184.206ZM176.106 68.9H157.086V61.76H176.106V68.9ZM174.786 44.66H158.286V37.76H174.786V44.66ZM194.706 54.26C197.226 65.72 202.446 74.66 212.706 78.5C211.086 79.94 208.926 82.94 207.966 84.86C200.286 81.44 195.426 75.62 192.186 67.82C189.666 74.24 184.566 80.72 174.666 85.46C173.586 83.72 171.006 80.96 169.266 79.58C185.346 72.2 187.026 60.5 187.026 52.76V47.24H194.706V54.26Z" fill="#A6843B" stroke="#A6843B" stroke-width="4" stroke-linecap="round" stroke-linejoin="round"/>
<path d="M183.909 45.98C182.049 50.84 179.769 55.1 177.369 58.46C175.809 57.26 172.149 55.22 170.229 54.32C175.209 48.74 178.749 39.14 180.489 29.48L188.409 30.8C187.809 33.56 187.149 36.26 186.369 38.9H204.429L205.809 38.48L211.029 41.54C209.469 47.9 206.949 54.32 204.789 58.94C203.349 58.1 200.409 56.66 198.669 56C199.809 53.48 201.189 49.64 202.209 45.98H183.909ZM175.809 69.2H156.789V62.06H175.809V69.2ZM174.489 44.96H157.989V38.06H174.489V44.96ZM194.409 54.56C196.929 66.02 202.149 74.96 212.409 78.8C210.789 80.24 208.629 83.24 207.669 85.16C199.989 81.74 195.129 75.92 191.889 68.12C189.369 74.54 184.269 81.02 174.369 85.76C173.289 84.02 170.709 81.26 168.969 79.88C185.049 72.5 186.729 60.8 186.729 53.06V47.54H194.409V54.56Z" fill="#A6843B" stroke="#A6843B" stroke-width="4" stroke-linecap="round" stroke-linejoin="round"/>
<path d="M183.62 46.27C181.76 51.13 179.48 55.39 177.08 58.75C175.52 57.55 171.86 55.51 169.94 54.61C174.92 49.03 178.46 39.43 180.2 29.77L188.12 31.09C187.52 33.85 186.86 36.55 186.08 39.19H204.14L205.52 38.77L210.74 41.83C209.18 48.19 206.66 54.61 204.5 59.23C203.06 58.39 200.12 56.95 198.38 56.29C199.52 53.77 200.9 49.93 201.92 46.27H183.62ZM175.52 69.49H156.5V62.35H175.52V69.49ZM174.2 45.25H157.7V38.35H174.2V45.25ZM194.12 54.85C196.64 66.31 201.86 75.25 212.12 79.09C210.5 80.53 208.34 83.53 207.38 85.45C199.7 82.03 194.84 76.21 191.6 68.41C189.08 74.83 183.98 81.31 174.08 86.05C173 84.31 170.42 81.55 168.68 80.17C184.76 72.79 186.44 61.09 186.44 53.35V47.83H194.12V54.85Z" fill="#A6843B" stroke="#A6843B" stroke-width="4" stroke-linecap="round" stroke-linejoin="round"/>
<path d="M183.315 46.57C181.455 51.43 179.175 55.69 176.775 59.05C175.215 57.85 171.555 55.81 169.635 54.91C174.615 49.33 178.155 39.73 179.895 30.07L187.815 31.39C187.215 34.15 186.555 36.85 185.775 39.49H203.835L205.215 39.07L210.435 42.13C208.875 48.49 206.355 54.91 204.195 59.53C202.755 58.69 199.815 57.25 198.075 56.59C199.215 54.07 200.595 50.23 201.615 46.57H183.315ZM175.215 69.79H156.195V62.65H175.215V69.79ZM173.895 45.55H157.395V38.65H173.895V45.55ZM193.815 55.15C196.335 66.61 201.555 75.55 211.815 79.39C210.195 80.83 208.035 83.83 207.075 85.75C199.395 82.33 194.535 76.51 191.295 68.71C188.775 75.13 183.675 81.61 173.775 86.35C172.695 84.61 170.115 81.85 168.375 80.47C184.455 73.09 186.135 61.39 186.135 53.65V48.13H193.815V55.15Z" fill="#A6843B" stroke="#A6843B" stroke-width="4" stroke-linecap="round" stroke-linejoin="round"/>
<path d="M183.026 46.86C181.166 51.72 178.886 55.98 176.486 59.34C174.926 58.14 171.266 56.1 169.346 55.2C174.326 49.62 177.866 40.02 179.606 30.36L187.526 31.68C186.926 34.44 186.266 37.14 185.486 39.78H203.546L204.926 39.36L210.146 42.42C208.586 48.78 206.066 55.2 203.906 59.82C202.466 58.98 199.526 57.54 197.786 56.88C198.926 54.36 200.306 50.52 201.326 46.86H183.026ZM174.926 70.08H155.906V62.94H174.926V70.08ZM173.606 45.84H157.106V38.94H173.606V45.84ZM193.526 55.44C196.046 66.9 201.266 75.84 211.526 79.68C209.906 81.12 207.746 84.12 206.786 86.04C199.106 82.62 194.246 76.8 191.006 69C188.486 75.42 183.386 81.9 173.486 86.64C172.406 84.9 169.826 82.14 168.086 80.76C184.166 73.38 185.846 61.68 185.846 53.94V48.42H193.526V55.44Z" fill="#A6843B" stroke="#A6843B" stroke-width="4" stroke-linecap="round" stroke-linejoin="round"/>
<path d="M182.737 47.16C180.877 52.02 178.597 56.28 176.197 59.64C174.637 58.44 170.977 56.4 169.057 55.5C174.037 49.92 177.577 40.32 179.317 30.66L187.237 31.98C186.637 34.74 185.977 37.44 185.197 40.08H203.257L204.637 39.66L209.857 42.72C208.297 49.08 205.777 55.5 203.617 60.12C202.177 59.28 199.237 57.84 197.497 57.18C198.637 54.66 200.017 50.82 201.037 47.16H182.737ZM174.637 70.38H155.617V63.24H174.637V70.38ZM173.317 46.14H156.817V39.24H173.317V46.14ZM193.237 55.74C195.757 67.2 200.977 76.14 211.237 79.98C209.617 81.42 207.457 84.42 206.497 86.34C198.817 82.92 193.957 77.1 190.717 69.3C188.197 75.72 183.097 82.2 173.197 86.94C172.117 85.2 169.537 82.44 167.797 81.06C183.877 73.68 185.557 61.98 185.557 54.24V48.72H193.237V55.74Z" fill="#A6843B" stroke="#A6843B" stroke-width="4" stroke-linecap="round" stroke-linejoin="round"/>
<path d="M182.44 47.45C180.58 52.31 178.3 56.57 175.9 59.93C174.34 58.73 170.68 56.69 168.76 55.79C173.74 50.21 177.28 40.61 179.02 30.95L186.94 32.27C186.34 35.03 185.68 37.73 184.9 40.37H202.96L204.34 39.95L209.56 43.01C208 49.37 205.48 55.79 203.32 60.41C201.88 59.57 198.94 58.13 197.2 57.47C198.34 54.95 199.72 51.11 200.74 47.45H182.44ZM174.34 70.67H155.32V63.53H174.34V70.67ZM173.02 46.43H156.52V39.53H173.02V46.43ZM192.94 56.03C195.46 67.49 200.68 76.43 210.94 80.27C209.32 81.71 207.16 84.71 206.2 86.63C198.52 83.21 193.66 77.39 190.42 69.59C187.9 76.01 182.8 82.49 172.9 87.23C171.82 85.49 169.24 82.73 167.5 81.35C183.58 73.97 185.26 62.27 185.26 54.53V49.01H192.94V56.03Z" fill="#A6843B" stroke="#A6843B" stroke-width="4" stroke-linecap="round" stroke-linejoin="round"/>
<path d="M182.151 47.74C180.291 52.6 178.011 56.86 175.611 60.22C174.051 59.02 170.391 56.98 168.471 56.08C173.451 50.5 176.991 40.9 178.731 31.24L186.651 32.56C186.051 35.32 185.391 38.02 184.611 40.66H202.671L204.051 40.24L209.271 43.3C207.711 49.66 205.191 56.08 203.031 60.7C201.591 59.86 198.651 58.42 196.911 57.76C198.051 55.24 199.431 51.4 200.451 47.74H182.151ZM174.051 70.96H155.031V63.82H174.051V70.96ZM172.731 46.72H156.231V39.82H172.731V46.72ZM192.651 56.32C195.171 67.78 200.391 76.72 210.651 80.56C209.031 82 206.871 85 205.911 86.92C198.231 83.5 193.371 77.68 190.131 69.88C187.611 76.3 182.511 82.78 172.611 87.52C171.531 85.78 168.951 83.02 167.211 81.64C183.291 74.26 184.971 62.56 184.971 54.82V49.3H192.651V56.32Z" fill="#A6843B" stroke="#A6843B" stroke-width="4" stroke-linecap="round" stroke-linejoin="round"/>
<path d="M181.847 48.04C179.987 52.9 177.707 57.16 175.307 60.52C173.747 59.32 170.087 57.28 168.167 56.38C173.147 50.8 176.687 41.2 178.427 31.54L186.347 32.86C185.747 35.62 185.087 38.32 184.307 40.96H202.367L203.747 40.54L208.967 43.6C207.407 49.96 204.887 56.38 202.727 61C201.287 60.16 198.347 58.72 196.607 58.06C197.747 55.54 199.127 51.7 200.147 48.04H181.847ZM173.747 71.26H154.727V64.12H173.747V71.26ZM172.427 47.02H155.927V40.12H172.427V47.02ZM192.347 56.62C194.867 68.08 200.087 77.02 210.347 80.86C208.727 82.3 206.567 85.3 205.607 87.22C197.927 83.8 193.067 77.98 189.827 70.18C187.307 76.6 182.207 83.08 172.307 87.82C171.227 86.08 168.647 83.32 166.907 81.94C182.987 74.56 184.667 62.86 184.667 55.12V49.6H192.347V56.62Z" fill="#A6843B" stroke="#A6843B" stroke-width="4" stroke-linecap="round" stroke-linejoin="round"/>
<path d="M181.557 48.33C179.697 53.19 177.418 57.45 175.018 60.81C173.458 59.61 169.798 57.57 167.878 56.67C172.858 51.09 176.397 41.49 178.137 31.83L186.057 33.15C185.457 35.91 184.798 38.61 184.018 41.25H202.077L203.458 40.83L208.677 43.89C207.117 50.25 204.597 56.67 202.438 61.29C200.998 60.45 198.058 59.01 196.318 58.35C197.458 55.83 198.837 51.99 199.857 48.33H181.557ZM173.458 71.55H154.438V64.41H173.458V71.55ZM172.137 47.31H155.637V40.41H172.137V47.31ZM192.057 56.91C194.577 68.37 199.797 77.31 210.057 81.15C208.437 82.59 206.278 85.59 205.318 87.51C197.638 84.09 192.777 78.27 189.537 70.47C187.017 76.89 181.918 83.37 172.018 88.11C170.938 86.37 168.357 83.61 166.617 82.23C182.697 74.85 184.378 63.15 184.378 55.41V49.89H192.057V56.91Z" fill="#A6843B" stroke="#A6843B" stroke-width="4" stroke-linecap="round" stroke-linejoin="round"/>
<path d="M172.458 71.55H153.438V64.41H172.458V71.55ZM171.137 47.31H154.637V40.41H171.137V47.31ZM191.057 56.91C193.577 68.37 198.797 77.31 209.057 81.15C207.437 82.59 205.278 85.59 204.318 87.51C196.638 84.09 191.777 78.27 188.537 70.47C186.017 76.89 180.918 83.37 171.018 88.11C169.938 86.37 167.357 83.61 165.617 82.23C181.697 74.85 183.378 63.15 183.378 55.41V49.89H191.057V56.91ZM180.557 48.33C178.697 53.19 176.418 57.45 174.018 60.81C172.458 59.61 168.798 57.57 166.878 56.67C171.858 51.09 175.397 41.49 177.137 31.83L185.057 33.15C184.457 35.91 183.798 38.61 183.018 41.25H201.077L202.458 40.83L207.677 43.89C206.117 50.25 203.597 56.67 201.438 61.29C199.998 60.45 197.058 59.01 195.318 58.35C196.458 55.83 197.837 51.99 198.857 48.33H180.557Z" fill="white" stroke="#A6843B" stroke-width="2" stroke-linecap="round" stroke-linejoin="round"/>
<path d="M55.6375 39.54C57.3075 37.84 58.1375 35.52 58.1375 32.59C58.1375 29.39 57.2675 26.92 55.5375 25.19C53.8075 23.46 51.4675 22.59 48.5375 22.59C45.6075 22.59 43.2875 23.47 41.5875 25.24C39.8875 27.01 39.0375 29.42 39.0375 32.49C39.0375 35.36 39.8875 37.67 41.5875 39.44C43.2875 41.21 45.7375 42.09 48.9375 42.09C51.7375 42.09 53.9675 41.24 55.6375 39.54ZM49.8375 69.09C53.3675 69.09 55.8675 67.53 57.3375 64.39C58.8075 61.26 59.5375 56.16 59.5375 49.09C58.0675 51.16 56.0675 52.76 53.5375 53.89C51.0075 55.02 48.1675 55.59 45.0375 55.59C40.7675 55.59 36.9675 54.71 33.6375 52.94C30.3075 51.17 27.6875 48.54 25.7875 45.04C23.8875 41.54 22.9375 37.29 22.9375 32.29C22.9375 27.29 23.9575 23.06 25.9875 19.39C28.0175 15.72 30.9175 12.89 34.6875 10.89C38.4575 8.89002 42.9075 7.89001 48.0375 7.89001C57.9075 7.89001 64.8075 10.96 68.7375 17.09C72.6675 23.22 74.6375 32.26 74.6375 44.19C74.6375 52.86 73.8575 60.01 72.2875 65.64C70.7175 71.27 68.0875 75.56 64.3875 78.49C60.6875 81.42 55.6375 82.89 49.2375 82.89C44.1675 82.89 39.8575 81.89 36.2875 79.89C32.7175 77.89 29.9875 75.26 28.0875 71.99C26.1875 68.72 25.1075 65.12 24.8375 61.19H40.6375C41.6375 66.46 44.7075 69.09 49.8375 69.09Z" fill="#A6843B" stroke="#A6843B" stroke-width="4" stroke-linecap="round" stroke-linejoin="round"/>
<path d="M119.137 39.54C120.807 37.84 121.637 35.52 121.637 32.59C121.637 29.39 120.767 26.92 119.037 25.19C117.307 23.46 114.967 22.59 112.037 22.59C109.107 22.59 106.787 23.47 105.087 25.24C103.387 27.01 102.537 29.42 102.537 32.49C102.537 35.36 103.387 37.67 105.087 39.44C106.787 41.21 109.237 42.09 112.438 42.09C115.237 42.09 117.467 41.24 119.137 39.54ZM113.337 69.09C116.867 69.09 119.367 67.53 120.837 64.39C122.307 61.26 123.037 56.16 123.037 49.09C121.567 51.16 119.567 52.76 117.037 53.89C114.507 55.02 111.667 55.59 108.537 55.59C104.267 55.59 100.467 54.71 97.1375 52.94C93.8075 51.17 91.1875 48.54 89.2875 45.04C87.3875 41.54 86.4375 37.29 86.4375 32.29C86.4375 27.29 87.4575 23.06 89.4875 19.39C91.5175 15.72 94.4175 12.89 98.1875 10.89C101.958 8.89002 106.407 7.89001 111.537 7.89001C121.407 7.89001 128.308 10.96 132.238 17.09C136.168 23.22 138.137 32.26 138.137 44.19C138.137 52.86 137.357 60.01 135.787 65.64C134.217 71.27 131.587 75.56 127.887 78.49C124.187 81.42 119.137 82.89 112.737 82.89C107.667 82.89 103.357 81.89 99.7875 79.89C96.2175 77.89 93.4875 75.26 91.5875 71.99C89.6875 68.72 88.6075 65.12 88.3375 61.19H104.137C105.137 66.46 108.207 69.09 113.337 69.09Z" fill="#A6843B" stroke="#A6843B" stroke-width="4" stroke-linecap="round" stroke-linejoin="round"/>
<path d="M55.1687 39.84C56.8387 38.14 57.6687 35.82 57.6687 32.89C57.6687 29.69 56.7987 27.22 55.0687 25.49C53.3387 23.76 50.9988 22.89 48.0688 22.89C45.1388 22.89 42.8188 23.77 41.1187 25.54C39.4187 27.31 38.5688 29.72 38.5688 32.79C38.5688 35.66 39.4187 37.97 41.1187 39.74C42.8188 41.51 45.2688 42.39 48.4688 42.39C51.2688 42.39 53.4987 41.54 55.1687 39.84ZM49.3687 69.39C52.8988 69.39 55.3988 67.83 56.8688 64.69C58.3388 61.56 59.0687 56.46 59.0687 49.39C57.5987 51.46 55.5988 53.06 53.0688 54.19C50.5387 55.32 47.6987 55.89 44.5688 55.89C40.2987 55.89 36.4987 55.01 33.1687 53.24C29.8387 51.47 27.2188 48.84 25.3188 45.34C23.4188 41.84 22.4688 37.59 22.4688 32.59C22.4688 27.59 23.4888 23.36 25.5188 19.69C27.5488 16.02 30.4488 13.19 34.2188 11.19C37.9888 9.19 42.4388 8.19 47.5688 8.19C57.4388 8.19 64.3387 11.26 68.2687 17.39C72.1987 23.52 74.1687 32.56 74.1687 44.49C74.1687 53.16 73.3887 60.31 71.8187 65.94C70.2487 71.57 67.6187 75.86 63.9187 78.79C60.2187 81.72 55.1688 83.19 48.7688 83.19C43.6988 83.19 39.3888 82.19 35.8188 80.19C32.2488 78.19 29.5188 75.56 27.6188 72.29C25.7188 69.02 24.6388 65.42 24.3688 61.49H40.1687C41.1687 66.76 44.2388 69.39 49.3687 69.39Z" fill="#A6843B" stroke="#A6843B" stroke-width="4" stroke-linecap="round" stroke-linejoin="round"/>
<path d="M118.669 39.84C120.339 38.14 121.169 35.82 121.169 32.89C121.169 29.69 120.299 27.22 118.569 25.49C116.839 23.76 114.499 22.89 111.569 22.89C108.639 22.89 106.319 23.77 104.619 25.54C102.919 27.31 102.069 29.72 102.069 32.79C102.069 35.66 102.919 37.97 104.619 39.74C106.319 41.51 108.769 42.39 111.969 42.39C114.769 42.39 116.999 41.54 118.669 39.84ZM112.869 69.39C116.399 69.39 118.899 67.83 120.369 64.69C121.839 61.56 122.569 56.46 122.569 49.39C121.099 51.46 119.099 53.06 116.569 54.19C114.039 55.32 111.199 55.89 108.069 55.89C103.799 55.89 99.9987 55.01 96.6687 53.24C93.3387 51.47 90.7187 48.84 88.8187 45.34C86.9187 41.84 85.9688 37.59 85.9688 32.59C85.9688 27.59 86.9887 23.36 89.0187 19.69C91.0487 16.02 93.9488 13.19 97.7188 11.19C101.489 9.19 105.939 8.19 111.069 8.19C120.939 8.19 127.839 11.26 131.769 17.39C135.699 23.52 137.669 32.56 137.669 44.49C137.669 53.16 136.889 60.31 135.319 65.94C133.749 71.57 131.119 75.86 127.419 78.79C123.719 81.72 118.669 83.19 112.269 83.19C107.199 83.19 102.889 82.19 99.3187 80.19C95.7487 78.19 93.0188 75.56 91.1188 72.29C89.2188 69.02 88.1388 65.42 87.8688 61.49H103.669C104.669 66.76 107.739 69.39 112.869 69.39Z" fill="#A6843B" stroke="#A6843B" stroke-width="4" stroke-linecap="round" stroke-linejoin="round"/>
<path d="M54.7 40.13C56.37 38.43 57.2 36.11 57.2 33.18C57.2 29.98 56.33 27.51 54.6 25.78C52.87 24.05 50.53 23.18 47.6 23.18C44.67 23.18 42.35 24.06 40.65 25.83C38.95 27.6 38.1 30.01 38.1 33.08C38.1 35.95 38.95 38.26 40.65 40.03C42.35 41.8 44.8 42.68 48 42.68C50.8 42.68 53.03 41.83 54.7 40.13ZM48.9 69.68C52.43 69.68 54.93 68.12 56.4 64.98C57.87 61.85 58.6 56.75 58.6 49.68C57.13 51.75 55.13 53.35 52.6 54.48C50.07 55.61 47.23 56.18 44.1 56.18C39.83 56.18 36.03 55.3 32.7 53.53C29.37 51.76 26.75 49.13 24.85 45.63C22.95 42.13 22 37.88 22 32.88C22 27.88 23.02 23.65 25.05 19.98C27.08 16.31 29.98 13.48 33.75 11.48C37.52 9.48004 41.97 8.48004 47.1 8.48004C56.97 8.48004 63.87 11.55 67.8 17.68C71.73 23.81 73.7 32.85 73.7 44.78C73.7 53.45 72.92 60.6 71.35 66.23C69.78 71.86 67.15 76.15 63.45 79.08C59.75 82.01 54.7 83.48 48.3 83.48C43.23 83.48 38.92 82.48 35.35 80.48C31.78 78.48 29.05 75.85 27.15 72.58C25.25 69.31 24.17 65.71 23.9 61.78H39.7C40.7 67.05 43.77 69.68 48.9 69.68Z" fill="#A6843B" stroke="#A6843B" stroke-width="4" stroke-linecap="round" stroke-linejoin="round"/>
<path d="M118.2 40.13C119.87 38.43 120.7 36.11 120.7 33.18C120.7 29.98 119.83 27.51 118.1 25.78C116.37 24.05 114.03 23.18 111.1 23.18C108.17 23.18 105.85 24.06 104.15 25.83C102.45 27.6 101.6 30.01 101.6 33.08C101.6 35.95 102.45 38.26 104.15 40.03C105.85 41.8 108.3 42.68 111.5 42.68C114.3 42.68 116.53 41.83 118.2 40.13ZM112.4 69.68C115.93 69.68 118.43 68.12 119.9 64.98C121.37 61.85 122.1 56.75 122.1 49.68C120.63 51.75 118.63 53.35 116.1 54.48C113.57 55.61 110.73 56.18 107.6 56.18C103.33 56.18 99.53 55.3 96.2 53.53C92.87 51.76 90.25 49.13 88.35 45.63C86.45 42.13 85.5 37.88 85.5 32.88C85.5 27.88 86.52 23.65 88.55 19.98C90.58 16.31 93.48 13.48 97.25 11.48C101.02 9.48004 105.47 8.48004 110.6 8.48004C120.47 8.48004 127.37 11.55 131.3 17.68C135.23 23.81 137.2 32.85 137.2 44.78C137.2 53.45 136.42 60.6 134.85 66.23C133.28 71.86 130.65 76.15 126.95 79.08C123.25 82.01 118.2 83.48 111.8 83.48C106.73 83.48 102.42 82.48 98.85 80.48C95.28 78.48 92.55 75.85 90.65 72.58C88.75 69.31 87.67 65.71 87.4 61.78H103.2C104.2 67.05 107.27 69.68 112.4 69.68Z" fill="#A6843B" stroke="#A6843B" stroke-width="4" stroke-linecap="round" stroke-linejoin="round"/>
<path d="M54.2312 40.42C55.9012 38.72 56.7312 36.4 56.7312 33.47C56.7312 30.27 55.8612 27.8 54.1312 26.07C52.4012 24.34 50.0613 23.47 47.1313 23.47C44.2013 23.47 41.8813 24.35 40.1812 26.12C38.4812 27.89 37.6313 30.3 37.6313 33.37C37.6313 36.24 38.4812 38.55 40.1812 40.32C41.8813 42.09 44.3312 42.97 47.5312 42.97C50.3312 42.97 52.5612 42.12 54.2312 40.42ZM48.4312 69.97C51.9613 69.97 54.4613 68.41 55.9313 65.27C57.4013 62.14 58.1312 57.04 58.1312 49.97C56.6612 52.04 54.6613 53.64 52.1313 54.77C49.6012 55.9 46.7612 56.47 43.6313 56.47C39.3612 56.47 35.5612 55.59 32.2312 53.82C28.9012 52.05 26.2812 49.42 24.3812 45.92C22.4812 42.42 21.5312 38.17 21.5312 33.17C21.5312 28.17 22.5512 23.94 24.5812 20.27C26.6112 16.6 29.5112 13.77 33.2812 11.77C37.0512 9.77002 41.5013 8.77002 46.6313 8.77002C56.5013 8.77002 63.4013 11.84 67.3313 17.97C71.2613 24.1 73.2313 33.14 73.2313 45.07C73.2313 53.74 72.4512 60.89 70.8812 66.52C69.3112 72.15 66.6812 76.44 62.9812 79.37C59.2812 82.3 54.2313 83.77 47.8313 83.77C42.7613 83.77 38.4513 82.77 34.8813 80.77C31.3113 78.77 28.5812 76.14 26.6812 72.87C24.7812 69.6 23.7012 66 23.4312 62.07H39.2312C40.2312 67.34 43.3013 69.97 48.4312 69.97Z" fill="#A6843B" stroke="#A6843B" stroke-width="4" stroke-linecap="round" stroke-linejoin="round"/>
<path d="M117.731 40.42C119.401 38.72 120.231 36.4 120.231 33.47C120.231 30.27 119.361 27.8 117.631 26.07C115.901 24.34 113.561 23.47 110.631 23.47C107.701 23.47 105.381 24.35 103.681 26.12C101.981 27.89 101.131 30.3 101.131 33.37C101.131 36.24 101.981 38.55 103.681 40.32C105.381 42.09 107.831 42.97 111.031 42.97C113.831 42.97 116.061 42.12 117.731 40.42ZM111.931 69.97C115.461 69.97 117.961 68.41 119.431 65.27C120.901 62.14 121.631 57.04 121.631 49.97C120.161 52.04 118.161 53.64 115.631 54.77C113.101 55.9 110.261 56.47 107.131 56.47C102.861 56.47 99.0613 55.59 95.7313 53.82C92.4013 52.05 89.7812 49.42 87.8812 45.92C85.9812 42.42 85.0312 38.17 85.0312 33.17C85.0312 28.17 86.0513 23.94 88.0813 20.27C90.1113 16.6 93.0113 13.77 96.7812 11.77C100.551 9.77002 105.001 8.77002 110.131 8.77002C120.001 8.77002 126.901 11.84 130.831 17.97C134.761 24.1 136.731 33.14 136.731 45.07C136.731 53.74 135.951 60.89 134.381 66.52C132.811 72.15 130.181 76.44 126.481 79.37C122.781 82.3 117.731 83.77 111.331 83.77C106.261 83.77 101.951 82.77 98.3812 80.77C94.8112 78.77 92.0813 76.14 90.1813 72.87C88.2813 69.6 87.2013 66 86.9313 62.07H102.731C103.731 67.34 106.801 69.97 111.931 69.97Z" fill="#A6843B" stroke="#A6843B" stroke-width="4" stroke-linecap="round" stroke-linejoin="round"/>
<path d="M53.7547 40.72C55.4247 39.02 56.2547 36.7 56.2547 33.77C56.2547 30.57 55.3847 28.1 53.6547 26.37C51.9247 24.64 49.5847 23.77 46.6547 23.77C43.7247 23.77 41.4047 24.65 39.7047 26.42C38.0047 28.19 37.1547 30.6 37.1547 33.67C37.1547 36.54 38.0047 38.85 39.7047 40.62C41.4047 42.39 43.8547 43.27 47.0547 43.27C49.8547 43.27 52.0847 42.42 53.7547 40.72ZM47.9547 70.27C51.4847 70.27 53.9847 68.71 55.4547 65.57C56.9247 62.44 57.6547 57.34 57.6547 50.27C56.1847 52.34 54.1847 53.94 51.6547 55.07C49.1247 56.2 46.2847 56.77 43.1547 56.77C38.8847 56.77 35.0847 55.89 31.7547 54.12C28.4247 52.35 25.8047 49.72 23.9047 46.22C22.0047 42.72 21.0547 38.47 21.0547 33.47C21.0547 28.47 22.0747 24.24 24.1047 20.57C26.1347 16.9 29.0347 14.07 32.8047 12.07C36.5747 10.07 41.0247 9.07001 46.1547 9.07001C56.0247 9.07001 62.9247 12.14 66.8547 18.27C70.7847 24.4 72.7547 33.44 72.7547 45.37C72.7547 54.04 71.9747 61.19 70.4047 66.82C68.8347 72.45 66.2047 76.74 62.5047 79.67C58.8047 82.6 53.7547 84.07 47.3547 84.07C42.2847 84.07 37.9747 83.07 34.4047 81.07C30.8347 79.07 28.1047 76.44 26.2047 73.17C24.3047 69.9 23.2247 66.3 22.9547 62.37H38.7547C39.7547 67.64 42.8247 70.27 47.9547 70.27Z" fill="#A6843B" stroke="#A6843B" stroke-width="4" stroke-linecap="round" stroke-linejoin="round"/>
<path d="M117.255 40.72C118.925 39.02 119.755 36.7 119.755 33.77C119.755 30.57 118.885 28.1 117.155 26.37C115.425 24.64 113.085 23.77 110.155 23.77C107.225 23.77 104.905 24.65 103.205 26.42C101.505 28.19 100.655 30.6 100.655 33.67C100.655 36.54 101.505 38.85 103.205 40.62C104.905 42.39 107.355 43.27 110.555 43.27C113.355 43.27 115.585 42.42 117.255 40.72ZM111.455 70.27C114.985 70.27 117.485 68.71 118.955 65.57C120.425 62.44 121.155 57.34 121.155 50.27C119.685 52.34 117.685 53.94 115.155 55.07C112.625 56.2 109.785 56.77 106.655 56.77C102.385 56.77 98.5847 55.89 95.2547 54.12C91.9247 52.35 89.3047 49.72 87.4047 46.22C85.5047 42.72 84.5547 38.47 84.5547 33.47C84.5547 28.47 85.5747 24.24 87.6047 20.57C89.6347 16.9 92.5347 14.07 96.3047 12.07C100.075 10.07 104.525 9.07001 109.655 9.07001C119.525 9.07001 126.425 12.14 130.355 18.27C134.285 24.4 136.255 33.44 136.255 45.37C136.255 54.04 135.475 61.19 133.905 66.82C132.335 72.45 129.705 76.74 126.005 79.67C122.305 82.6 117.255 84.07 110.855 84.07C105.785 84.07 101.475 83.07 97.9047 81.07C94.3347 79.07 91.6047 76.44 89.7047 73.17C87.8047 69.9 86.7247 66.3 86.4547 62.37H102.255C103.255 67.64 106.325 70.27 111.455 70.27Z" fill="#A6843B" stroke="#A6843B" stroke-width="4" stroke-linecap="round" stroke-linejoin="round"/>
<path d="M53.2859 41.01C54.9559 39.31 55.7859 36.99 55.7859 34.06C55.7859 30.86 54.9159 28.39 53.1859 26.66C51.4559 24.93 49.1159 24.06 46.1859 24.06C43.2559 24.06 40.9359 24.94 39.2359 26.71C37.5359 28.48 36.6859 30.89 36.6859 33.96C36.6859 36.83 37.5359 39.14 39.2359 40.91C40.9359 42.68 43.3859 43.56 46.5859 43.56C49.3859 43.56 51.6159 42.71 53.2859 41.01ZM47.4859 70.56C51.0159 70.56 53.5159 69 54.9859 65.86C56.4559 62.73 57.1859 57.63 57.1859 50.56C55.7159 52.63 53.7159 54.23 51.1859 55.36C48.6559 56.49 45.8159 57.06 42.6859 57.06C38.4159 57.06 34.6159 56.18 31.2859 54.41C27.9559 52.64 25.3359 50.01 23.4359 46.51C21.5359 43.01 20.5859 38.76 20.5859 33.76C20.5859 28.76 21.6059 24.53 23.6359 20.86C25.6659 17.19 28.5659 14.36 32.3359 12.36C36.1059 10.36 40.5559 9.35999 45.6859 9.35999C55.5559 9.35999 62.4559 12.43 66.3859 18.56C70.3159 24.69 72.2859 33.73 72.2859 45.66C72.2859 54.33 71.5059 61.48 69.9359 67.11C68.3659 72.74 65.7359 77.03 62.0359 79.96C58.3359 82.89 53.2859 84.36 46.8859 84.36C41.8159 84.36 37.5059 83.36 33.9359 81.36C30.3659 79.36 27.6359 76.73 25.7359 73.46C23.8359 70.19 22.7559 66.59 22.4859 62.66H38.2859C39.2859 67.93 42.3559 70.56 47.4859 70.56Z" fill="#A6843B" stroke="#A6843B" stroke-width="4" stroke-linecap="round" stroke-linejoin="round"/>
<path d="M116.786 41.01C118.456 39.31 119.286 36.99 119.286 34.06C119.286 30.86 118.416 28.39 116.686 26.66C114.956 24.93 112.616 24.06 109.686 24.06C106.756 24.06 104.436 24.94 102.736 26.71C101.036 28.48 100.186 30.89 100.186 33.96C100.186 36.83 101.036 39.14 102.736 40.91C104.436 42.68 106.886 43.56 110.086 43.56C112.886 43.56 115.116 42.71 116.786 41.01ZM110.986 70.56C114.516 70.56 117.016 69 118.486 65.86C119.956 62.73 120.686 57.63 120.686 50.56C119.216 52.63 117.216 54.23 114.686 55.36C112.156 56.49 109.316 57.06 106.186 57.06C101.916 57.06 98.1159 56.18 94.7859 54.41C91.4559 52.64 88.8359 50.01 86.9359 46.51C85.0359 43.01 84.0859 38.76 84.0859 33.76C84.0859 28.76 85.1059 24.53 87.1359 20.86C89.1659 17.19 92.0659 14.36 95.8359 12.36C99.6059 10.36 104.056 9.35999 109.186 9.35999C119.056 9.35999 125.956 12.43 129.886 18.56C133.816 24.69 135.786 33.73 135.786 45.66C135.786 54.33 135.006 61.48 133.436 67.11C131.866 72.74 129.236 77.03 125.536 79.96C121.836 82.89 116.786 84.36 110.386 84.36C105.316 84.36 101.006 83.36 97.4359 81.36C93.8659 79.36 91.1359 76.73 89.2359 73.46C87.3359 70.19 86.2559 66.59 85.9859 62.66H101.786C102.786 67.93 105.856 70.56 110.986 70.56Z" fill="#A6843B" stroke="#A6843B" stroke-width="4" stroke-linecap="round" stroke-linejoin="round"/>
<path d="M52.8172 41.31C54.4872 39.61 55.3172 37.29 55.3172 34.36C55.3172 31.16 54.4472 28.69 52.7172 26.96C50.9872 25.23 48.6472 24.36 45.7172 24.36C42.7872 24.36 40.4672 25.24 38.7672 27.01C37.0672 28.78 36.2172 31.19 36.2172 34.26C36.2172 37.13 37.0672 39.44 38.7672 41.21C40.4672 42.98 42.9172 43.86 46.1172 43.86C48.9172 43.86 51.1472 43.01 52.8172 41.31ZM47.0172 70.86C50.5472 70.86 53.0472 69.3 54.5172 66.16C55.9872 63.03 56.7172 57.93 56.7172 50.86C55.2472 52.93 53.2472 54.53 50.7172 55.66C48.1872 56.79 45.3472 57.36 42.2172 57.36C37.9472 57.36 34.1472 56.48 30.8172 54.71C27.4872 52.94 24.8672 50.31 22.9672 46.81C21.0672 43.31 20.1172 39.06 20.1172 34.06C20.1172 29.06 21.1372 24.83 23.1672 21.16C25.1972 17.49 28.0972 14.66 31.8672 12.66C35.6372 10.66 40.0872 9.66003 45.2172 9.66003C55.0872 9.66003 61.9872 12.73 65.9172 18.86C69.8472 24.99 71.8172 34.03 71.8172 45.96C71.8172 54.63 71.0372 61.78 69.4672 67.41C67.8972 73.04 65.2672 77.33 61.5672 80.26C57.8672 83.19 52.8172 84.66 46.4172 84.66C41.3472 84.66 37.0372 83.66 33.4672 81.66C29.8972 79.66 27.1672 77.03 25.2672 73.76C23.3672 70.49 22.2872 66.89 22.0172 62.96H37.8172C38.8172 68.23 41.8872 70.86 47.0172 70.86Z" fill="#A6843B" stroke="#A6843B" stroke-width="4" stroke-linecap="round" stroke-linejoin="round"/>
<path d="M116.317 41.31C117.987 39.61 118.817 37.29 118.817 34.36C118.817 31.16 117.947 28.69 116.217 26.96C114.487 25.23 112.147 24.36 109.217 24.36C106.287 24.36 103.967 25.24 102.267 27.01C100.567 28.78 99.7172 31.19 99.7172 34.26C99.7172 37.13 100.567 39.44 102.267 41.21C103.967 42.98 106.417 43.86 109.617 43.86C112.417 43.86 114.647 43.01 116.317 41.31ZM110.517 70.86C114.047 70.86 116.547 69.3 118.017 66.16C119.487 63.03 120.217 57.93 120.217 50.86C118.747 52.93 116.747 54.53 114.217 55.66C111.687 56.79 108.847 57.36 105.717 57.36C101.447 57.36 97.6472 56.48 94.3172 54.71C90.9872 52.94 88.3672 50.31 86.4672 46.81C84.5672 43.31 83.6172 39.06 83.6172 34.06C83.6172 29.06 84.6372 24.83 86.6672 21.16C88.6972 17.49 91.5972 14.66 95.3672 12.66C99.1372 10.66 103.587 9.66003 108.717 9.66003C118.587 9.66003 125.487 12.73 129.417 18.86C133.347 24.99 135.317 34.03 135.317 45.96C135.317 54.63 134.537 61.78 132.967 67.41C131.397 73.04 128.767 77.33 125.067 80.26C121.367 83.19 116.317 84.66 109.917 84.66C104.847 84.66 100.537 83.66 96.9672 81.66C93.3972 79.66 90.6672 77.03 88.7672 73.76C86.8672 70.49 85.7872 66.89 85.5172 62.96H101.317C102.317 68.23 105.387 70.86 110.517 70.86Z" fill="#A6843B" stroke="#A6843B" stroke-width="4" stroke-linecap="round" stroke-linejoin="round"/>
<path d="M52.3484 41.6C54.0184 39.9 54.8484 37.58 54.8484 34.65C54.8484 31.45 53.9784 28.98 52.2484 27.25C50.5184 25.52 48.1784 24.65 45.2484 24.65C42.3184 24.65 39.9984 25.53 38.2984 27.3C36.5984 29.07 35.7484 31.48 35.7484 34.55C35.7484 37.42 36.5984 39.73 38.2984 41.5C39.9984 43.27 42.4484 44.15 45.6484 44.15C48.4484 44.15 50.6784 43.3 52.3484 41.6ZM46.5484 71.15C50.0784 71.15 52.5784 69.59 54.0484 66.45C55.5184 63.32 56.2484 58.22 56.2484 51.15C54.7784 53.22 52.7784 54.82 50.2484 55.95C47.7184 57.08 44.8784 57.65 41.7484 57.65C37.4784 57.65 33.6784 56.77 30.3484 55C27.0184 53.23 24.3984 50.6 22.4984 47.1C20.5984 43.6 19.6484 39.35 19.6484 34.35C19.6484 29.35 20.6684 25.12 22.6984 21.45C24.7284 17.78 27.6284 14.95 31.3984 12.95C35.1684 10.95 39.6184 9.95001 44.7484 9.95001C54.6184 9.95001 61.5184 13.02 65.4484 19.15C69.3784 25.28 71.3484 34.32 71.3484 46.25C71.3484 54.92 70.5684 62.07 68.9984 67.7C67.4284 73.33 64.7984 77.62 61.0984 80.55C57.3984 83.48 52.3484 84.95 45.9484 84.95C40.8784 84.95 36.5684 83.95 32.9984 81.95C29.4284 79.95 26.6984 77.32 24.7984 74.05C22.8984 70.78 21.8184 67.18 21.5484 63.25H37.3484C38.3484 68.52 41.4184 71.15 46.5484 71.15Z" fill="#A6843B" stroke="#A6843B" stroke-width="4" stroke-linecap="round" stroke-linejoin="round"/>
<path d="M115.848 41.6C117.518 39.9 118.348 37.58 118.348 34.65C118.348 31.45 117.478 28.98 115.748 27.25C114.018 25.52 111.678 24.65 108.748 24.65C105.818 24.65 103.498 25.53 101.798 27.3C100.098 29.07 99.2484 31.48 99.2484 34.55C99.2484 37.42 100.098 39.73 101.798 41.5C103.498 43.27 105.948 44.15 109.148 44.15C111.948 44.15 114.178 43.3 115.848 41.6ZM110.048 71.15C113.578 71.15 116.078 69.59 117.548 66.45C119.018 63.32 119.748 58.22 119.748 51.15C118.278 53.22 116.278 54.82 113.748 55.95C111.218 57.08 108.378 57.65 105.248 57.65C100.978 57.65 97.1784 56.77 93.8484 55C90.5184 53.23 87.8984 50.6 85.9984 47.1C84.0984 43.6 83.1484 39.35 83.1484 34.35C83.1484 29.35 84.1684 25.12 86.1984 21.45C88.2284 17.78 91.1284 14.95 94.8984 12.95C98.6684 10.95 103.118 9.95001 108.248 9.95001C118.118 9.95001 125.018 13.02 128.948 19.15C132.878 25.28 134.848 34.32 134.848 46.25C134.848 54.92 134.068 62.07 132.498 67.7C130.928 73.33 128.298 77.62 124.598 80.55C120.898 83.48 115.848 84.95 109.448 84.95C104.378 84.95 100.068 83.95 96.4984 81.95C92.9284 79.95 90.1984 77.32 88.2984 74.05C86.3984 70.78 85.3184 67.18 85.0484 63.25H100.848C101.848 68.52 104.918 71.15 110.048 71.15Z" fill="#A6843B" stroke="#A6843B" stroke-width="4" stroke-linecap="round" stroke-linejoin="round"/>
<path d="M51.8797 41.89C53.5497 40.19 54.3797 37.87 54.3797 34.94C54.3797 31.74 53.5097 29.27 51.7797 27.54C50.0497 25.81 47.7097 24.94 44.7797 24.94C41.8497 24.94 39.5297 25.82 37.8297 27.59C36.1297 29.36 35.2797 31.77 35.2797 34.84C35.2797 37.71 36.1297 40.02 37.8297 41.79C39.5297 43.56 41.9797 44.44 45.1797 44.44C47.9797 44.44 50.2097 43.59 51.8797 41.89ZM46.0797 71.44C49.6097 71.44 52.1097 69.88 53.5797 66.74C55.0497 63.61 55.7797 58.51 55.7797 51.44C54.3097 53.51 52.3097 55.11 49.7797 56.24C47.2497 57.37 44.4097 57.94 41.2797 57.94C37.0097 57.94 33.2097 57.06 29.8797 55.29C26.5497 53.52 23.9297 50.89 22.0297 47.39C20.1297 43.89 19.1797 39.64 19.1797 34.64C19.1797 29.64 20.1997 25.41 22.2297 21.74C24.2597 18.07 27.1597 15.24 30.9297 13.24C34.6997 11.24 39.1497 10.24 44.2797 10.24C54.1497 10.24 61.0497 13.31 64.9797 19.44C68.9097 25.57 70.8797 34.61 70.8797 46.54C70.8797 55.21 70.0997 62.36 68.5297 67.99C66.9597 73.62 64.3297 77.91 60.6297 80.84C56.9297 83.77 51.8797 85.24 45.4797 85.24C40.4097 85.24 36.0997 84.24 32.5297 82.24C28.9597 80.24 26.2297 77.61 24.3297 74.34C22.4297 71.07 21.3497 67.47 21.0797 63.54H36.8797C37.8797 68.81 40.9497 71.44 46.0797 71.44Z" fill="#A6843B" stroke="#A6843B" stroke-width="4" stroke-linecap="round" stroke-linejoin="round"/>
<path d="M115.38 41.89C117.05 40.19 117.88 37.87 117.88 34.94C117.88 31.74 117.01 29.27 115.28 27.54C113.55 25.81 111.21 24.94 108.28 24.94C105.35 24.94 103.03 25.82 101.33 27.59C99.6297 29.36 98.7797 31.77 98.7797 34.84C98.7797 37.71 99.6297 40.02 101.33 41.79C103.03 43.56 105.48 44.44 108.68 44.44C111.48 44.44 113.71 43.59 115.38 41.89ZM109.58 71.44C113.11 71.44 115.61 69.88 117.08 66.74C118.55 63.61 119.28 58.51 119.28 51.44C117.81 53.51 115.81 55.11 113.28 56.24C110.75 57.37 107.91 57.94 104.78 57.94C100.51 57.94 96.7097 57.06 93.3797 55.29C90.0497 53.52 87.4297 50.89 85.5297 47.39C83.6297 43.89 82.6797 39.64 82.6797 34.64C82.6797 29.64 83.6997 25.41 85.7297 21.74C87.7597 18.07 90.6597 15.24 94.4297 13.24C98.1997 11.24 102.65 10.24 107.78 10.24C117.65 10.24 124.55 13.31 128.48 19.44C132.41 25.57 134.38 34.61 134.38 46.54C134.38 55.21 133.6 62.36 132.03 67.99C130.46 73.62 127.83 77.91 124.13 80.84C120.43 83.77 115.38 85.24 108.98 85.24C103.91 85.24 99.5997 84.24 96.0297 82.24C92.4597 80.24 89.7297 77.61 87.8297 74.34C85.9297 71.07 84.8497 67.47 84.5797 63.54H100.38C101.38 68.81 104.45 71.44 109.58 71.44Z" fill="#A6843B" stroke="#A6843B" stroke-width="4" stroke-linecap="round" stroke-linejoin="round"/>
<path d="M51.4109 42.19C53.0809 40.49 53.9109 38.17 53.9109 35.24C53.9109 32.04 53.0409 29.57 51.3109 27.84C49.5809 26.11 47.2409 25.24 44.3109 25.24C41.3809 25.24 39.0609 26.12 37.3609 27.89C35.6609 29.66 34.8109 32.07 34.8109 35.14C34.8109 38.01 35.6609 40.32 37.3609 42.09C39.0609 43.86 41.5109 44.74 44.7109 44.74C47.5109 44.74 49.7409 43.89 51.4109 42.19ZM45.6109 71.74C49.1409 71.74 51.6409 70.18 53.1109 67.04C54.5809 63.91 55.3109 58.81 55.3109 51.74C53.8409 53.81 51.8409 55.41 49.3109 56.54C46.7809 57.67 43.9409 58.24 40.8109 58.24C36.5409 58.24 32.7409 57.36 29.4109 55.59C26.0809 53.82 23.4609 51.19 21.5609 47.69C19.6609 44.19 18.7109 39.94 18.7109 34.94C18.7109 29.94 19.7309 25.71 21.7609 22.04C23.7909 18.37 26.6909 15.54 30.4609 13.54C34.2309 11.54 38.6809 10.54 43.8109 10.54C53.6809 10.54 60.5809 13.61 64.5109 19.74C68.4409 25.87 70.4109 34.91 70.4109 46.84C70.4109 55.51 69.6309 62.66 68.0609 68.29C66.4909 73.92 63.8609 78.21 60.1609 81.14C56.4609 84.07 51.4109 85.54 45.0109 85.54C39.9409 85.54 35.6309 84.54 32.0609 82.54C28.4909 80.54 25.7609 77.91 23.8609 74.64C21.9609 71.37 20.8809 67.77 20.6109 63.84H36.4109C37.4109 69.11 40.4809 71.74 45.6109 71.74Z" fill="#A6843B" stroke="#A6843B" stroke-width="4" stroke-linecap="round" stroke-linejoin="round"/>
<path d="M114.903 42.19C116.573 40.49 117.403 38.17 117.403 35.24C117.403 32.04 116.533 29.57 114.803 27.84C113.073 26.11 110.733 25.24 107.803 25.24C104.873 25.24 102.553 26.12 100.853 27.89C99.1531 29.66 98.3031 32.07 98.3031 35.14C98.3031 38.01 99.1531 40.32 100.853 42.09C102.553 43.86 105.003 44.74 108.203 44.74C111.003 44.74 113.233 43.89 114.903 42.19ZM109.103 71.74C112.633 71.74 115.133 70.18 116.603 67.04C118.073 63.91 118.803 58.81 118.803 51.74C117.333 53.81 115.333 55.41 112.803 56.54C110.273 57.67 107.433 58.24 104.303 58.24C100.033 58.24 96.2331 57.36 92.9031 55.59C89.5731 53.82 86.9531 51.19 85.0531 47.69C83.1531 44.19 82.2031 39.94 82.2031 34.94C82.2031 29.94 83.2231 25.71 85.2531 22.04C87.2831 18.37 90.1831 15.54 93.9531 13.54C97.7231 11.54 102.173 10.54 107.303 10.54C117.173 10.54 124.073 13.61 128.003 19.74C131.933 25.87 133.903 34.91 133.903 46.84C133.903 55.51 133.123 62.66 131.553 68.29C129.983 73.92 127.353 78.21 123.653 81.14C119.953 84.07 114.903 85.54 108.503 85.54C103.433 85.54 99.1231 84.54 95.5531 82.54C91.9831 80.54 89.2531 77.91 87.3531 74.64C85.4531 71.37 84.3731 67.77 84.1031 63.84H99.9031C100.903 69.11 103.973 71.74 109.103 71.74Z" fill="#A6843B" stroke="#A6843B" stroke-width="4" stroke-linecap="round" stroke-linejoin="round"/>
<path d="M50.9344 42.48C52.6044 40.78 53.4344 38.46 53.4344 35.53C53.4344 32.33 52.5644 29.86 50.8344 28.13C49.1044 26.4 46.7644 25.53 43.8344 25.53C40.9044 25.53 38.5844 26.41 36.8844 28.18C35.1844 29.95 34.3344 32.36 34.3344 35.43C34.3344 38.3 35.1844 40.61 36.8844 42.38C38.5844 44.15 41.0344 45.03 44.2344 45.03C47.0344 45.03 49.2644 44.18 50.9344 42.48ZM45.1344 72.03C48.6644 72.03 51.1644 70.47 52.6344 67.33C54.1044 64.2 54.8344 59.1 54.8344 52.03C53.3644 54.1 51.3644 55.7 48.8344 56.83C46.3044 57.96 43.4644 58.53 40.3344 58.53C36.0644 58.53 32.2644 57.65 28.9344 55.88C25.6044 54.11 22.9844 51.48 21.0844 47.98C19.1844 44.48 18.2344 40.23 18.2344 35.23C18.2344 30.23 19.2544 26 21.2844 22.33C23.3144 18.66 26.2144 15.83 29.9844 13.83C33.7544 11.83 38.2044 10.83 43.3344 10.83C53.2044 10.83 60.1044 13.9 64.0344 20.03C67.9644 26.16 69.9344 35.2 69.9344 47.13C69.9344 55.8 69.1544 62.95 67.5844 68.58C66.0144 74.21 63.3844 78.5 59.6844 81.43C55.9844 84.36 50.9344 85.83 44.5344 85.83C39.4644 85.83 35.1544 84.83 31.5844 82.83C28.0144 80.83 25.2844 78.2 23.3844 74.93C21.4844 71.66 20.4044 68.06 20.1344 64.13H35.9344C36.9344 69.4 40.0044 72.03 45.1344 72.03Z" fill="#A6843B" stroke="#A6843B" stroke-width="4" stroke-linecap="round" stroke-linejoin="round"/>
<path d="M114.427 42.48C116.097 40.78 116.927 38.46 116.927 35.53C116.927 32.33 116.057 29.86 114.327 28.13C112.597 26.4 110.257 25.53 107.327 25.53C104.397 25.53 102.077 26.41 100.377 28.18C98.6766 29.95 97.8266 32.36 97.8266 35.43C97.8266 38.3 98.6766 40.61 100.377 42.38C102.077 44.15 104.527 45.03 107.727 45.03C110.527 45.03 112.757 44.18 114.427 42.48ZM108.627 72.03C112.157 72.03 114.657 70.47 116.127 67.33C117.597 64.2 118.327 59.1 118.327 52.03C116.857 54.1 114.857 55.7 112.327 56.83C109.797 57.96 106.957 58.53 103.827 58.53C99.5566 58.53 95.7566 57.65 92.4266 55.88C89.0966 54.11 86.4766 51.48 84.5766 47.98C82.6766 44.48 81.7266 40.23 81.7266 35.23C81.7266 30.23 82.7466 26 84.7766 22.33C86.8066 18.66 89.7066 15.83 93.4766 13.83C97.2466 11.83 101.697 10.83 106.827 10.83C116.697 10.83 123.597 13.9 127.527 20.03C131.457 26.16 133.427 35.2 133.427 47.13C133.427 55.8 132.647 62.95 131.077 68.58C129.507 74.21 126.877 78.5 123.177 81.43C119.477 84.36 114.427 85.83 108.027 85.83C102.957 85.83 98.6466 84.83 95.0766 82.83C91.5066 80.83 88.7766 78.2 86.8766 74.93C84.9766 71.66 83.8966 68.06 83.6266 64.13H99.4266C100.427 69.4 103.497 72.03 108.627 72.03Z" fill="#A6843B" stroke="#A6843B" stroke-width="4" stroke-linecap="round" stroke-linejoin="round"/>
<path d="M50.4578 42.78C52.1278 41.08 52.9578 38.76 52.9578 35.83C52.9578 32.63 52.0878 30.16 50.3578 28.43C48.6278 26.7 46.2878 25.83 43.3578 25.83C40.4278 25.83 38.1078 26.71 36.4078 28.48C34.7078 30.25 33.8578 32.66 33.8578 35.73C33.8578 38.6 34.7078 40.91 36.4078 42.68C38.1078 44.45 40.5578 45.33 43.7578 45.33C46.5578 45.33 48.7878 44.48 50.4578 42.78ZM44.6578 72.33C48.1878 72.33 50.6878 70.77 52.1578 67.63C53.6278 64.5 54.3578 59.4 54.3578 52.33C52.8878 54.4 50.8878 56 48.3578 57.13C45.8278 58.26 42.9878 58.83 39.8578 58.83C35.5878 58.83 31.7878 57.95 28.4578 56.18C25.1278 54.41 22.5078 51.78 20.6078 48.28C18.7078 44.78 17.7578 40.53 17.7578 35.53C17.7578 30.53 18.7778 26.3 20.8078 22.63C22.8378 18.96 25.7378 16.13 29.5078 14.13C33.2778 12.13 37.7278 11.13 42.8578 11.13C52.7278 11.13 59.6278 14.2 63.5578 20.33C67.4878 26.46 69.4578 35.5 69.4578 47.43C69.4578 56.1 68.6778 63.25 67.1078 68.88C65.5378 74.51 62.9078 78.8 59.2078 81.73C55.5078 84.66 50.4578 86.13 44.0578 86.13C38.9878 86.13 34.6778 85.13 31.1078 83.13C27.5378 81.13 24.8078 78.5 22.9078 75.23C21.0078 71.96 19.9278 68.36 19.6578 64.43H35.4578C36.4578 69.7 39.5278 72.33 44.6578 72.33Z" fill="#A6843B" stroke="#A6843B" stroke-width="4" stroke-linecap="round" stroke-linejoin="round"/>
<path d="M113.958 42.78C115.628 41.08 116.458 38.76 116.458 35.83C116.458 32.63 115.588 30.16 113.858 28.43C112.128 26.7 109.788 25.83 106.858 25.83C103.928 25.83 101.608 26.71 99.9078 28.48C98.2078 30.25 97.3578 32.66 97.3578 35.73C97.3578 38.6 98.2078 40.91 99.9078 42.68C101.608 44.45 104.058 45.33 107.258 45.33C110.058 45.33 112.288 44.48 113.958 42.78ZM108.158 72.33C111.688 72.33 114.188 70.77 115.658 67.63C117.128 64.5 117.858 59.4 117.858 52.33C116.388 54.4 114.388 56 111.858 57.13C109.328 58.26 106.488 58.83 103.358 58.83C99.0878 58.83 95.2878 57.95 91.9578 56.18C88.6278 54.41 86.0078 51.78 84.1078 48.28C82.2078 44.78 81.2578 40.53 81.2578 35.53C81.2578 30.53 82.2778 26.3 84.3078 22.63C86.3378 18.96 89.2378 16.13 93.0078 14.13C96.7778 12.13 101.228 11.13 106.358 11.13C116.228 11.13 123.128 14.2 127.058 20.33C130.988 26.46 132.958 35.5 132.958 47.43C132.958 56.1 132.178 63.25 130.608 68.88C129.038 74.51 126.408 78.8 122.708 81.73C119.008 84.66 113.958 86.13 107.558 86.13C102.488 86.13 98.1778 85.13 94.6078 83.13C91.0378 81.13 88.3078 78.5 86.4078 75.23C84.5078 71.96 83.4278 68.36 83.1578 64.43H98.9578C99.9578 69.7 103.028 72.33 108.158 72.33Z" fill="#A6843B" stroke="#A6843B" stroke-width="4" stroke-linecap="round" stroke-linejoin="round"/>
<path d="M49.9891 43.07C51.6591 41.37 52.4891 39.05 52.4891 36.12C52.4891 32.92 51.6191 30.45 49.8891 28.72C48.1591 26.99 45.8191 26.12 42.8891 26.12C39.9591 26.12 37.6391 27 35.9391 28.77C34.2391 30.54 33.3891 32.95 33.3891 36.02C33.3891 38.89 34.2391 41.2 35.9391 42.97C37.6391 44.74 40.0891 45.62 43.2891 45.62C46.0891 45.62 48.3191 44.77 49.9891 43.07ZM44.1891 72.62C47.7191 72.62 50.2191 71.06 51.6891 67.92C53.1591 64.79 53.8891 59.69 53.8891 52.62C52.4191 54.69 50.4191 56.29 47.8891 57.42C45.3591 58.55 42.5191 59.12 39.3891 59.12C35.1191 59.12 31.3191 58.24 27.9891 56.47C24.6591 54.7 22.0391 52.07 20.1391 48.57C18.2391 45.07 17.2891 40.82 17.2891 35.82C17.2891 30.82 18.3091 26.59 20.3391 22.92C22.3691 19.25 25.2691 16.42 29.0391 14.42C32.8091 12.42 37.2591 11.42 42.3891 11.42C52.2591 11.42 59.1591 14.49 63.0891 20.62C67.0191 26.75 68.9891 35.79 68.9891 47.72C68.9891 56.39 68.2091 63.54 66.6391 69.17C65.0691 74.8 62.4391 79.09 58.7391 82.02C55.0391 84.95 49.9891 86.42 43.5891 86.42C38.5191 86.42 34.2091 85.42 30.6391 83.42C27.0691 81.42 24.3391 78.79 22.4391 75.52C20.5391 72.25 19.4591 68.65 19.1891 64.72H34.9891C35.9891 69.99 39.0591 72.62 44.1891 72.62Z" fill="#A6843B" stroke="#A6843B" stroke-width="4" stroke-linecap="round" stroke-linejoin="round"/>
<path d="M113.489 43.07C115.159 41.37 115.989 39.05 115.989 36.12C115.989 32.92 115.119 30.45 113.389 28.72C111.659 26.99 109.319 26.12 106.389 26.12C103.459 26.12 101.139 27 99.4391 28.77C97.7391 30.54 96.8891 32.95 96.8891 36.02C96.8891 38.89 97.7391 41.2 99.4391 42.97C101.139 44.74 103.589 45.62 106.789 45.62C109.589 45.62 111.819 44.77 113.489 43.07ZM107.689 72.62C111.219 72.62 113.719 71.06 115.189 67.92C116.659 64.79 117.389 59.69 117.389 52.62C115.919 54.69 113.919 56.29 111.389 57.42C108.859 58.55 106.019 59.12 102.889 59.12C98.6191 59.12 94.8191 58.24 91.4891 56.47C88.1591 54.7 85.5391 52.07 83.6391 48.57C81.7391 45.07 80.7891 40.82 80.7891 35.82C80.7891 30.82 81.8091 26.59 83.8391 22.92C85.8691 19.25 88.7691 16.42 92.5391 14.42C96.3091 12.42 100.759 11.42 105.889 11.42C115.759 11.42 122.659 14.49 126.589 20.62C130.519 26.75 132.489 35.79 132.489 47.72C132.489 56.39 131.709 63.54 130.139 69.17C128.569 74.8 125.939 79.09 122.239 82.02C118.539 84.95 113.489 86.42 107.089 86.42C102.019 86.42 97.7091 85.42 94.1391 83.42C90.5691 81.42 87.8391 78.79 85.9391 75.52C84.0391 72.25 82.9591 68.65 82.6891 64.72H98.4891C99.4891 69.99 102.559 72.62 107.689 72.62Z" fill="#A6843B" stroke="#A6843B" stroke-width="4" stroke-linecap="round" stroke-linejoin="round"/>
<path d="M49.5203 43.36C51.1903 41.66 52.0203 39.34 52.0203 36.41C52.0203 33.21 51.1503 30.74 49.4203 29.01C47.6903 27.28 45.3503 26.41 42.4203 26.41C39.4903 26.41 37.1703 27.29 35.4703 29.06C33.7703 30.83 32.9203 33.24 32.9203 36.31C32.9203 39.18 33.7703 41.49 35.4703 43.26C37.1703 45.03 39.6203 45.91 42.8203 45.91C45.6203 45.91 47.8503 45.06 49.5203 43.36ZM43.7203 72.91C47.2503 72.91 49.7503 71.35 51.2203 68.21C52.6903 65.08 53.4203 59.98 53.4203 52.91C51.9503 54.98 49.9503 56.58 47.4203 57.71C44.8903 58.84 42.0503 59.41 38.9203 59.41C34.6503 59.41 30.8503 58.53 27.5203 56.76C24.1903 54.99 21.5703 52.36 19.6703 48.86C17.7703 45.36 16.8203 41.11 16.8203 36.11C16.8203 31.11 17.8403 26.88 19.8703 23.21C21.9003 19.54 24.8003 16.71 28.5703 14.71C32.3403 12.71 36.7903 11.71 41.9203 11.71C51.7903 11.71 58.6903 14.78 62.6203 20.91C66.5503 27.04 68.5203 36.08 68.5203 48.01C68.5203 56.68 67.7403 63.83 66.1703 69.46C64.6003 75.09 61.9703 79.38 58.2703 82.31C54.5703 85.24 49.5203 86.71 43.1203 86.71C38.0503 86.71 33.7403 85.71 30.1703 83.71C26.6003 81.71 23.8703 79.08 21.9703 75.81C20.0703 72.54 18.9903 68.94 18.7203 65.01H34.5203C35.5203 70.28 38.5903 72.91 43.7203 72.91Z" fill="#A6843B" stroke="#A6843B" stroke-width="4" stroke-linecap="round" stroke-linejoin="round"/>
<path d="M113.02 43.36C114.69 41.66 115.52 39.34 115.52 36.41C115.52 33.21 114.65 30.74 112.92 29.01C111.19 27.28 108.85 26.41 105.92 26.41C102.99 26.41 100.67 27.29 98.9703 29.06C97.2703 30.83 96.4203 33.24 96.4203 36.31C96.4203 39.18 97.2703 41.49 98.9703 43.26C100.67 45.03 103.12 45.91 106.32 45.91C109.12 45.91 111.35 45.06 113.02 43.36ZM107.22 72.91C110.75 72.91 113.25 71.35 114.72 68.21C116.19 65.08 116.92 59.98 116.92 52.91C115.45 54.98 113.45 56.58 110.92 57.71C108.39 58.84 105.55 59.41 102.42 59.41C98.1503 59.41 94.3503 58.53 91.0203 56.76C87.6903 54.99 85.0703 52.36 83.1703 48.86C81.2703 45.36 80.3203 41.11 80.3203 36.11C80.3203 31.11 81.3403 26.88 83.3703 23.21C85.4003 19.54 88.3003 16.71 92.0703 14.71C95.8403 12.71 100.29 11.71 105.42 11.71C115.29 11.71 122.19 14.78 126.12 20.91C130.05 27.04 132.02 36.08 132.02 48.01C132.02 56.68 131.24 63.83 129.67 69.46C128.1 75.09 125.47 79.38 121.77 82.31C118.07 85.24 113.02 86.71 106.62 86.71C101.55 86.71 97.2403 85.71 93.6703 83.71C90.1003 81.71 87.3703 79.08 85.4703 75.81C83.5703 72.54 82.4903 68.94 82.2203 65.01H98.0203C99.0203 70.28 102.09 72.91 107.22 72.91Z" fill="#A6843B" stroke="#A6843B" stroke-width="4" stroke-linecap="round" stroke-linejoin="round"/>
<path d="M49.0437 43.66C50.7137 41.96 51.5437 39.64 51.5437 36.71C51.5437 33.51 50.6737 31.04 48.9437 29.31C47.2137 27.58 44.8738 26.71 41.9438 26.71C39.0138 26.71 36.6938 27.59 34.9937 29.36C33.2937 31.13 32.4438 33.54 32.4438 36.61C32.4438 39.48 33.2937 41.79 34.9937 43.56C36.6938 45.33 39.1437 46.21 42.3437 46.21C45.1437 46.21 47.3737 45.36 49.0437 43.66ZM43.2437 73.21C46.7738 73.21 49.2738 71.65 50.7438 68.51C52.2138 65.38 52.9437 60.28 52.9437 53.21C51.4737 55.28 49.4738 56.88 46.9438 58.01C44.4137 59.14 41.5737 59.71 38.4438 59.71C34.1737 59.71 30.3737 58.83 27.0437 57.06C23.7137 55.29 21.0938 52.66 19.1938 49.16C17.2938 45.66 16.3438 41.41 16.3438 36.41C16.3438 31.41 17.3637 27.18 19.3937 23.51C21.4237 19.84 24.3238 17.01 28.0938 15.01C31.8638 13.01 36.3138 12.01 41.4438 12.01C51.3138 12.01 58.2138 15.08 62.1438 21.21C66.0738 27.34 68.0438 36.38 68.0438 48.31C68.0438 56.98 67.2637 64.13 65.6937 69.76C64.1237 75.39 61.4937 79.68 57.7937 82.61C54.0937 85.54 49.0438 87.01 42.6438 87.01C37.5738 87.01 33.2638 86.01 29.6938 84.01C26.1238 82.01 23.3937 79.38 21.4937 76.11C19.5937 72.84 18.5137 69.24 18.2437 65.31H34.0437C35.0437 70.58 38.1138 73.21 43.2437 73.21Z" fill="#A6843B" stroke="#A6843B" stroke-width="4" stroke-linecap="round" stroke-linejoin="round"/>
<path d="M112.544 43.66C114.214 41.96 115.044 39.64 115.044 36.71C115.044 33.51 114.174 31.04 112.444 29.31C110.714 27.58 108.374 26.71 105.444 26.71C102.514 26.71 100.194 27.59 98.4938 29.36C96.7938 31.13 95.9437 33.54 95.9437 36.61C95.9437 39.48 96.7938 41.79 98.4938 43.56C100.194 45.33 102.644 46.21 105.844 46.21C108.644 46.21 110.874 45.36 112.544 43.66ZM106.744 73.21C110.274 73.21 112.774 71.65 114.244 68.51C115.714 65.38 116.444 60.28 116.444 53.21C114.974 55.28 112.974 56.88 110.444 58.01C107.914 59.14 105.074 59.71 101.944 59.71C97.6737 59.71 93.8738 58.83 90.5438 57.06C87.2138 55.29 84.5937 52.66 82.6937 49.16C80.7937 45.66 79.8438 41.41 79.8438 36.41C79.8438 31.41 80.8638 27.18 82.8938 23.51C84.9238 19.84 87.8238 17.01 91.5938 15.01C95.3638 13.01 99.8137 12.01 104.944 12.01C114.814 12.01 121.714 15.08 125.644 21.21C129.574 27.34 131.544 36.38 131.544 48.31C131.544 56.98 130.764 64.13 129.194 69.76C127.624 75.39 124.994 79.68 121.294 82.61C117.594 85.54 112.544 87.01 106.144 87.01C101.074 87.01 96.7637 86.01 93.1937 84.01C89.6237 82.01 86.8938 79.38 84.9938 76.11C83.0938 72.84 82.0138 69.24 81.7438 65.31H97.5438C98.5438 70.58 101.614 73.21 106.744 73.21Z" fill="#A6843B" stroke="#A6843B" stroke-width="4" stroke-linecap="round" stroke-linejoin="round"/>
<path d="M48.575 43.95C50.245 42.25 51.075 39.93 51.075 37C51.075 33.8 50.205 31.33 48.475 29.6C46.745 27.87 44.405 27 41.475 27C38.545 27 36.225 27.88 34.525 29.65C32.825 31.42 31.975 33.83 31.975 36.9C31.975 39.77 32.825 42.08 34.525 43.85C36.225 45.62 38.675 46.5 41.875 46.5C44.675 46.5 46.905 45.65 48.575 43.95ZM42.775 73.5C46.305 73.5 48.805 71.94 50.275 68.8C51.745 65.67 52.475 60.57 52.475 53.5C51.005 55.57 49.005 57.17 46.475 58.3C43.945 59.43 41.105 60 37.975 60C33.705 60 29.905 59.12 26.575 57.35C23.245 55.58 20.625 52.95 18.725 49.45C16.825 45.95 15.875 41.7 15.875 36.7C15.875 31.7 16.895 27.47 18.925 23.8C20.955 20.13 23.855 17.3 27.625 15.3C31.395 13.3 35.845 12.3 40.975 12.3C50.845 12.3 57.745 15.37 61.675 21.5C65.605 27.63 67.575 36.67 67.575 48.6C67.575 57.27 66.795 64.42 65.225 70.05C63.655 75.68 61.025 79.97 57.325 82.9C53.625 85.83 48.575 87.3 42.175 87.3C37.105 87.3 32.795 86.3 29.225 84.3C25.655 82.3 22.925 79.67 21.025 76.4C19.125 73.13 18.045 69.53 17.775 65.6H33.575C34.575 70.87 37.645 73.5 42.775 73.5Z" fill="#A6843B" stroke="#A6843B" stroke-width="4" stroke-linecap="round" stroke-linejoin="round"/>
<path d="M112.075 43.95C113.745 42.25 114.575 39.93 114.575 37C114.575 33.8 113.705 31.33 111.975 29.6C110.245 27.87 107.905 27 104.975 27C102.045 27 99.725 27.88 98.025 29.65C96.325 31.42 95.475 33.83 95.475 36.9C95.475 39.77 96.325 42.08 98.025 43.85C99.725 45.62 102.175 46.5 105.375 46.5C108.175 46.5 110.405 45.65 112.075 43.95ZM106.275 73.5C109.805 73.5 112.305 71.94 113.775 68.8C115.245 65.67 115.975 60.57 115.975 53.5C114.505 55.57 112.505 57.17 109.975 58.3C107.445 59.43 104.605 60 101.475 60C97.205 60 93.405 59.12 90.075 57.35C86.745 55.58 84.125 52.95 82.225 49.45C80.325 45.95 79.375 41.7 79.375 36.7C79.375 31.7 80.395 27.47 82.425 23.8C84.455 20.13 87.355 17.3 91.125 15.3C94.895 13.3 99.345 12.3 104.475 12.3C114.345 12.3 121.245 15.37 125.175 21.5C129.105 27.63 131.075 36.67 131.075 48.6C131.075 57.27 130.295 64.42 128.725 70.05C127.155 75.68 124.525 79.97 120.825 82.9C117.125 85.83 112.075 87.3 105.675 87.3C100.605 87.3 96.295 86.3 92.725 84.3C89.155 82.3 86.425 79.67 84.525 76.4C82.625 73.13 81.545 69.53 81.275 65.6H97.075C98.075 70.87 101.145 73.5 106.275 73.5Z" fill="#A6843B" stroke="#A6843B" stroke-width="4" stroke-linecap="round" stroke-linejoin="round"/>
<path d="M48.1063 44.25C49.7762 42.55 50.6063 40.23 50.6063 37.3C50.6063 34.1 49.7362 31.63 48.0062 29.9C46.2762 28.17 43.9362 27.3 41.0062 27.3C38.0762 27.3 35.7563 28.18 34.0563 29.95C32.3563 31.72 31.5063 34.13 31.5063 37.2C31.5063 40.07 32.3563 42.38 34.0563 44.15C35.7563 45.92 38.2062 46.8 41.4062 46.8C44.2062 46.8 46.4363 45.95 48.1063 44.25ZM42.3063 73.8C45.8363 73.8 48.3363 72.24 49.8063 69.1C51.2763 65.97 52.0062 60.87 52.0062 53.8C50.5362 55.87 48.5362 57.47 46.0062 58.6C43.4762 59.73 40.6362 60.3 37.5062 60.3C33.2362 60.3 29.4363 59.42 26.1063 57.65C22.7763 55.88 20.1563 53.25 18.2563 49.75C16.3563 46.25 15.4062 42 15.4062 37C15.4062 32 16.4262 27.77 18.4562 24.1C20.4862 20.43 23.3863 17.6 27.1562 15.6C30.9263 13.6 35.3762 12.6 40.5062 12.6C50.3762 12.6 57.2762 15.67 61.2062 21.8C65.1362 27.93 67.1063 36.97 67.1063 48.9C67.1063 57.57 66.3263 64.72 64.7563 70.35C63.1863 75.98 60.5563 80.27 56.8563 83.2C53.1562 86.13 48.1063 87.6 41.7062 87.6C36.6362 87.6 32.3263 86.6 28.7563 84.6C25.1863 82.6 22.4562 79.97 20.5562 76.7C18.6562 73.43 17.5762 69.83 17.3062 65.9H33.1063C34.1063 71.17 37.1763 73.8 42.3063 73.8Z" fill="#A6843B" stroke="#A6843B" stroke-width="4" stroke-linecap="round" stroke-linejoin="round"/>
<path d="M111.606 44.25C113.276 42.55 114.106 40.23 114.106 37.3C114.106 34.1 113.236 31.63 111.506 29.9C109.776 28.17 107.436 27.3 104.506 27.3C101.576 27.3 99.2562 28.18 97.5562 29.95C95.8562 31.72 95.0062 34.13 95.0062 37.2C95.0062 40.07 95.8562 42.38 97.5562 44.15C99.2562 45.92 101.706 46.8 104.906 46.8C107.706 46.8 109.936 45.95 111.606 44.25ZM105.806 73.8C109.336 73.8 111.836 72.24 113.306 69.1C114.776 65.97 115.506 60.87 115.506 53.8C114.036 55.87 112.036 57.47 109.506 58.6C106.976 59.73 104.136 60.3 101.006 60.3C96.7362 60.3 92.9362 59.42 89.6062 57.65C86.2762 55.88 83.6562 53.25 81.7562 49.75C79.8562 46.25 78.9062 42 78.9062 37C78.9062 32 79.9262 27.77 81.9562 24.1C83.9862 20.43 86.8863 17.6 90.6562 15.6C94.4263 13.6 98.8762 12.6 104.006 12.6C113.876 12.6 120.776 15.67 124.706 21.8C128.636 27.93 130.606 36.97 130.606 48.9C130.606 57.57 129.826 64.72 128.256 70.35C126.686 75.98 124.056 80.27 120.356 83.2C116.656 86.13 111.606 87.6 105.206 87.6C100.136 87.6 95.8262 86.6 92.2562 84.6C88.6862 82.6 85.9562 79.97 84.0562 76.7C82.1562 73.43 81.0762 69.83 80.8062 65.9H96.6062C97.6062 71.17 100.676 73.8 105.806 73.8Z" fill="#A6843B" stroke="#A6843B" stroke-width="4" stroke-linecap="round" stroke-linejoin="round"/>
<path d="M47.6375 44.54C49.3075 42.84 50.1375 40.52 50.1375 37.59C50.1375 34.39 49.2675 31.92 47.5375 30.19C45.8075 28.46 43.4675 27.59 40.5375 27.59C37.6075 27.59 35.2875 28.47 33.5875 30.24C31.8875 32.01 31.0375 34.42 31.0375 37.49C31.0375 40.36 31.8875 42.67 33.5875 44.44C35.2875 46.21 37.7375 47.09 40.9375 47.09C43.7375 47.09 45.9675 46.24 47.6375 44.54ZM41.8375 74.09C45.3675 74.09 47.8675 72.53 49.3375 69.39C50.8075 66.26 51.5375 61.16 51.5375 54.09C50.0675 56.16 48.0675 57.76 45.5375 58.89C43.0075 60.02 40.1675 60.59 37.0375 60.59C32.7675 60.59 28.9675 59.71 25.6375 57.94C22.3075 56.17 19.6875 53.54 17.7875 50.04C15.8875 46.54 14.9375 42.29 14.9375 37.29C14.9375 32.29 15.9575 28.06 17.9875 24.39C20.0175 20.72 22.9175 17.89 26.6875 15.89C30.4575 13.89 34.9075 12.89 40.0375 12.89C49.9075 12.89 56.8075 15.96 60.7375 22.09C64.6675 28.22 66.6375 37.26 66.6375 49.19C66.6375 57.86 65.8575 65.01 64.2875 70.64C62.7175 76.27 60.0875 80.56 56.3875 83.49C52.6875 86.42 47.6375 87.89 41.2375 87.89C36.1675 87.89 31.8575 86.89 28.2875 84.89C24.7175 82.89 21.9875 80.26 20.0875 76.99C18.1875 73.72 17.1075 70.12 16.8375 66.19H32.6375C33.6375 71.46 36.7075 74.09 41.8375 74.09Z" fill="#A6843B" stroke="#A6843B" stroke-width="4" stroke-linecap="round" stroke-linejoin="round"/>
<path d="M111.137 44.54C112.807 42.84 113.637 40.52 113.637 37.59C113.637 34.39 112.767 31.92 111.037 30.19C109.307 28.46 106.967 27.59 104.037 27.59C101.107 27.59 98.7875 28.47 97.0875 30.24C95.3875 32.01 94.5375 34.42 94.5375 37.49C94.5375 40.36 95.3875 42.67 97.0875 44.44C98.7875 46.21 101.237 47.09 104.438 47.09C107.237 47.09 109.467 46.24 111.137 44.54ZM105.337 74.09C108.867 74.09 111.367 72.53 112.837 69.39C114.307 66.26 115.037 61.16 115.037 54.09C113.567 56.16 111.567 57.76 109.037 58.89C106.507 60.02 103.667 60.59 100.537 60.59C96.2675 60.59 92.4675 59.71 89.1375 57.94C85.8075 56.17 83.1875 53.54 81.2875 50.04C79.3875 46.54 78.4375 42.29 78.4375 37.29C78.4375 32.29 79.4575 28.06 81.4875 24.39C83.5175 20.72 86.4175 17.89 90.1875 15.89C93.9575 13.89 98.4075 12.89 103.537 12.89C113.407 12.89 120.307 15.96 124.237 22.09C128.167 28.22 130.137 37.26 130.137 49.19C130.137 57.86 129.357 65.01 127.787 70.64C126.217 76.27 123.587 80.56 119.887 83.49C116.187 86.42 111.137 87.89 104.737 87.89C99.6675 87.89 95.3575 86.89 91.7875 84.89C88.2175 82.89 85.4875 80.26 83.5875 76.99C81.6875 73.72 80.6075 70.12 80.3375 66.19H96.1375C97.1375 71.46 100.207 74.09 105.337 74.09Z" fill="#A6843B" stroke="#A6843B" stroke-width="4" stroke-linecap="round" stroke-linejoin="round"/>
<path d="M42.8375 74.09C46.3675 74.09 48.8675 72.53 50.3375 69.39C51.8075 66.26 52.5375 61.16 52.5375 54.09C51.0675 56.16 49.0675 57.76 46.5375 58.89C44.0075 60.02 41.1675 60.59 38.0375 60.59C33.7675 60.59 29.9675 59.71 26.6375 57.94C23.3075 56.17 20.6875 53.54 18.7875 50.04C16.8875 46.54 15.9375 42.29 15.9375 37.29C15.9375 32.29 16.9575 28.06 18.9875 24.39C21.0175 20.72 23.9175 17.89 27.6875 15.89C31.4575 13.89 35.9075 12.89 41.0375 12.89C50.9075 12.89 57.8075 15.96 61.7375 22.09C65.6675 28.22 67.6375 37.26 67.6375 49.19C67.6375 57.86 66.8575 65.01 65.2875 70.64C63.7175 76.27 61.0875 80.56 57.3875 83.49C53.6875 86.42 48.6375 87.89 42.2375 87.89C37.1675 87.89 32.8575 86.89 29.2875 84.89C25.7175 82.89 22.9875 80.26 21.0875 76.99C19.1875 73.72 18.1075 70.12 17.8375 66.19H33.6375C34.6375 71.46 37.7075 74.09 42.8375 74.09ZM48.6375 44.54C50.3075 42.84 51.1375 40.52 51.1375 37.59C51.1375 34.39 50.2675 31.92 48.5375 30.19C46.8075 28.46 44.4675 27.59 41.5375 27.59C38.6075 27.59 36.2875 28.47 34.5875 30.24C32.8875 32.01 32.0375 34.42 32.0375 37.49C32.0375 40.36 32.8875 42.67 34.5875 44.44C36.2875 46.21 38.7375 47.09 41.9375 47.09C44.7375 47.09 46.9675 46.24 48.6375 44.54Z" fill="white" stroke="#A6843B" stroke-width="4" stroke-linecap="round" stroke-linejoin="round"/>
<path d="M106.337 74.09C109.867 74.09 112.367 72.53 113.837 69.39C115.307 66.26 116.037 61.16 116.037 54.09C114.567 56.16 112.567 57.76 110.037 58.89C107.507 60.02 104.667 60.59 101.537 60.59C97.2675 60.59 93.4675 59.71 90.1375 57.94C86.8075 56.17 84.1875 53.54 82.2875 50.04C80.3875 46.54 79.4375 42.29 79.4375 37.29C79.4375 32.29 80.4575 28.06 82.4875 24.39C84.5175 20.72 87.4175 17.89 91.1875 15.89C94.9575 13.89 99.4075 12.89 104.537 12.89C114.407 12.89 121.307 15.96 125.237 22.09C129.167 28.22 131.137 37.26 131.137 49.19C131.137 57.86 130.357 65.01 128.787 70.64C127.217 76.27 124.587 80.56 120.887 83.49C117.187 86.42 112.137 87.89 105.737 87.89C100.667 87.89 96.3575 86.89 92.7875 84.89C89.2175 82.89 86.4875 80.26 84.5875 76.99C82.6875 73.72 81.6075 70.12 81.3375 66.19H97.1375C98.1375 71.46 101.207 74.09 106.337 74.09ZM112.137 44.54C113.807 42.84 114.637 40.52 114.637 37.59C114.637 34.39 113.767 31.92 112.037 30.19C110.307 28.46 107.967 27.59 105.037 27.59C102.107 27.59 99.7875 28.47 98.0875 30.24C96.3875 32.01 95.5375 34.42 95.5375 37.49C95.5375 40.36 96.3875 42.67 98.0875 44.44C99.7875 46.21 102.237 47.09 105.438 47.09C108.237 47.09 110.467 46.24 112.137 44.54Z" fill="white" stroke="#A6843B" stroke-width="4" stroke-linecap="round" stroke-linejoin="round"/>
</svg>
