<svg width="68" height="40" viewBox="0 0 68 40" fill="none" xmlns="http://www.w3.org/2000/svg">
<g clip-path="url(#clip0_2211_169317)">
<g clip-path="url(#clip1_2211_169317)">
<path d="M61.2277 22.199C61.11 21.9544 60.8921 21.8676 61.0235 21.6724C61.0436 21.642 61.0579 21.6122 61.0729 21.588C60.974 21.4535 60.9675 21.4486 60.987 21.3621C61.0279 21.2056 61.0045 21.0566 60.892 20.9069C60.8289 20.8245 60.6455 20.728 60.7827 20.5827C60.7827 20.5827 60.7775 20.5384 60.7638 20.5231C60.6656 20.3942 60.568 20.2708 60.4542 20.1606C60.4204 20.1253 60.3488 20.0719 60.3521 20.049C60.367 19.8731 60.2103 19.8016 60.1264 19.6935C59.9898 19.541 59.8428 19.401 59.6912 19.2727C59.5592 19.159 59.3888 19.1228 59.3361 18.9268C59.3335 18.9046 59.2821 18.8713 59.2509 18.8581C59.1624 18.8124 59.0785 18.7548 58.9797 18.7215C58.8932 18.6923 58.8164 18.544 58.7163 18.4996C58.6226 18.46 58.5582 18.3665 58.4847 18.347C58.3807 18.3199 58.3937 18.2285 58.3247 18.1973C58.1875 18.1404 58.0405 18.1015 57.9137 18.0321C57.781 17.9634 57.6113 17.9834 57.5053 17.8385C57.4981 17.8281 57.4233 17.8481 57.3882 17.8523C57.3472 17.8571 57.3134 17.8723 57.2738 17.8882C57.1443 17.7966 57.0214 17.71 56.9297 17.6365C56.9063 17.5381 56.8855 17.4619 56.8705 17.385C56.9115 17.3802 56.9914 17.3539 56.9329 17.3102C56.8405 17.2312 56.9537 17.1842 56.9108 17.1218L57.0005 17.0776C56.9738 17.0526 56.9595 17.0318 56.9264 17.002C56.9673 16.9466 57.0135 16.885 57.059 16.8179C57.005 16.813 56.9686 16.806 56.9387 16.8039C56.8919 16.86 56.8548 16.7969 56.8171 16.7789C56.7579 16.8308 56.7234 16.7899 56.7111 16.7352C56.6714 16.5994 56.5823 16.4975 56.4444 16.435C56.4132 16.4218 56.3871 16.4024 56.3741 16.3927C56.3891 16.2168 56.2005 16.2277 56.1289 16.1238C56.1257 16.0961 56.1621 16.0525 56.0847 15.9998C56.0326 15.9609 55.9104 15.9303 55.9396 15.8258C55.952 15.7794 55.8941 15.7412 55.844 15.719C55.7068 15.6621 55.5884 15.5637 55.42 15.5441C55.3536 15.5351 55.2841 15.4477 55.2184 15.3937C55.141 15.341 55.0642 15.2938 54.9868 15.2411L54.9159 15.2944C54.9159 15.2944 54.8984 15.2964 54.8925 15.2971C54.8451 15.3476 54.7872 15.3601 54.7716 15.3282C54.7221 15.2104 54.6395 15.2145 54.5361 15.2435C54.5127 15.2462 54.4887 15.2434 54.464 15.2351C54.3157 15.1851 54.1674 15.1351 54.0198 15.0907C53.9885 15.0775 53.9443 15.0546 53.9216 15.0629C53.7818 15.1355 53.6686 15.0308 53.5697 14.9975C53.4936 15.0064 53.4085 15.0389 53.3824 15.0195C53.2445 14.9065 53.0534 15.0469 52.9246 14.9104C52.7139 14.9351 52.5142 14.9024 52.3516 14.8316C52.3016 14.86 52.2788 14.8683 52.2567 14.8821C52.2391 14.8336 52.2079 14.8204 52.1429 14.8224C52.031 14.83 51.9127 14.8326 51.8067 14.8395C51.6766 14.8435 51.5283 14.8441 51.408 14.9313C51.3209 14.9977 51.1941 15.0294 51.0861 14.9691C50.9912 14.9184 50.9853 15.0203 50.9255 15.016C50.8358 15.0097 50.9339 14.8858 50.8084 14.8781C50.6764 14.8655 50.6478 14.7228 50.5606 14.6376C50.5886 14.4714 50.4468 14.3757 50.3564 14.2627C50.3401 14.2758 50.3284 14.2772 50.3173 14.2841C50.316 14.273 50.3141 14.2564 50.3141 14.2564C50.3258 14.255 50.3375 14.2537 50.3492 14.2523C50.346 14.2246 50.3433 14.2024 50.3355 14.1865C50.2868 14.1248 50.2471 14.0396 50.1846 14.0132C50.1098 13.9826 50.0071 14.0172 49.92 13.9825C49.8732 14.0891 49.7619 14.0516 49.7151 14.0066C49.6214 13.9164 49.5024 13.9136 49.3964 13.8698C49.334 13.8435 49.269 13.8455 49.226 13.7831C49.1701 13.711 49.0446 13.7033 48.973 13.6499C48.869 13.5723 48.7883 13.593 48.6908 13.6213C48.6791 13.6227 48.6498 13.6261 48.6433 13.6212C48.5978 13.5367 48.5009 13.5706 48.4619 13.592C48.3227 13.6702 48.203 13.6112 48.084 13.5577C48.0652 13.5487 48.0522 13.539 48.0339 13.5355C47.9344 13.5472 47.8382 13.5361 47.7641 13.4605C47.7374 13.4356 47.673 13.4431 47.6255 13.4431C47.5494 13.452 47.4577 13.4291 47.3927 13.4817C47.3817 13.4886 47.3329 13.4775 47.3127 13.4574C47.2334 13.388 47.141 13.3596 47.0662 13.4301C46.9648 13.5263 46.8549 13.4999 46.7411 13.4908C46.6331 13.481 46.5284 13.4484 46.425 13.4268C46.3704 13.5175 46.321 13.602 46.2716 13.6864C46.1838 13.6462 46.0953 13.651 46.0167 13.5872C45.938 13.5234 45.8079 13.578 45.7051 13.562C45.5061 13.5348 45.3208 13.5734 45.1862 13.6904C45.0568 13.8011 44.9124 13.7844 44.7271 13.823C44.7726 13.7558 44.7986 13.7247 44.8181 13.6887C44.7778 13.6485 44.6568 13.6796 44.6796 13.5701C44.6822 13.5417 44.6464 13.4898 44.6093 13.4773C44.4721 13.4204 44.4623 13.2867 44.4148 13.1855C44.3836 13.1218 44.2887 13.0711 44.3433 12.9804C44.2451 12.9526 44.3329 12.8918 44.3094 12.8439C44.2698 12.7587 44.2229 12.6631 44.2249 12.5786C44.2235 12.4664 44.217 12.3604 44.2053 12.2607C43.9263 12.1586 43.648 12.2138 43.3755 12.2683C43.2539 12.2938 43.1479 12.3512 43.0224 12.2929C43.015 12.2301 42.9484 12.1349 42.8227 12.0074C42.6881 12.0232 42.5619 12.0605 42.4279 12.0313C42.3427 12.0132 42.2543 12.018 42.1743 11.9937C42.052 11.9631 42.0143 12.0462 41.9682 12.1078C41.777 12.0965 41.5845 12.0237 41.3959 12.0851C41.3328 12.1038 41.2795 12.155 41.2196 12.1508C41.005 12.1423 40.8041 12.1996 40.5992 12.2237C40.488 12.2368 40.3827 12.2491 40.2747 12.2899C40.1603 12.3258 40.0374 12.3403 39.96 12.4393C39.7682 12.4225 39.5744 12.3891 39.3942 12.472C39.3715 12.4803 39.3416 12.4782 39.324 12.4803C39.244 12.456 39.2128 12.4934 39.1783 12.5536C39.1536 12.5958 39.1029 12.6186 39.047 12.5971C38.9969 12.5749 38.9514 12.5409 38.9058 12.507C38.9969 12.4232 38.8733 12.4321 38.8506 12.3899C38.7998 12.3115 38.6762 12.2699 38.727 12.1459C38.7588 12.0635 38.7198 11.9839 38.6703 11.9166C38.6482 11.8799 38.5929 11.8639 38.5357 11.8313C38.5994 11.8182 38.628 11.8092 38.6567 11.8003C38.6378 11.7407 38.4505 11.7627 38.5604 11.6374C38.5604 11.6374 38.5149 11.5529 38.4459 11.5722C38.405 11.577 38.3672 11.6095 38.3315 11.6081C38.2352 11.597 38.1611 11.6225 38.0779 11.6716C38.0063 11.7194 37.8828 11.7788 37.8021 11.6479C37.795 11.6375 37.7689 11.618 37.7689 11.618C37.6031 11.7218 37.4952 11.6109 37.3683 11.5415C37.3495 11.5325 37.3202 11.5359 37.2903 11.5338L37.1108 11.5212C37.0211 11.5149 36.9437 11.5128 36.9079 11.6125C36.8897 11.6596 36.8039 11.6865 36.7603 11.6691C36.6289 11.6115 36.4904 11.6447 36.3636 11.6259C36.1822 11.5966 36.0189 11.6214 35.8863 11.755C35.8226 11.8187 35.7549 11.7985 35.6944 11.7382C35.6541 11.7991 35.6197 11.8594 35.58 11.9258C35.5364 11.9085 35.4909 11.8745 35.474 11.8821C35.3908 11.9312 35.2835 11.927 35.2054 11.9698C35.0331 12.0687 34.851 12.0845 34.6709 12.0664C34.6227 12.0608 34.5805 12.0545 34.535 12.0711C34.362 12.1139 34.1825 12.1013 34.0108 12.1551C33.9536 12.1731 33.8833 12.1308 33.8124 12.1335C33.7117 12.1341 33.6174 12.1396 33.5179 12.1513C33.4125 12.1637 33.3091 12.1927 33.2077 12.1877C32.9944 12.1903 32.7719 12.2164 32.5677 12.1449C32.4312 12.0936 32.2803 12.1225 32.1535 12.0532C32.065 12.0074 31.972 11.9734 31.8907 11.938C31.8888 11.9213 31.9089 11.8909 31.9011 11.8749C31.7879 11.7197 31.5811 11.6766 31.4367 11.5587C31.4231 11.5435 31.3769 11.5545 31.3697 11.5441C31.3522 11.4956 31.3457 11.4402 31.4068 11.4049C31.4068 11.4049 31.4055 11.3938 31.399 11.389C31.2748 11.3418 31.2748 11.3418 31.1948 11.1658C31.1934 11.1547 31.1642 11.1581 31.1512 11.1484C31.1043 11.1034 31.0621 11.0465 31.01 11.0077C30.945 10.9592 30.8761 10.9279 30.787 10.8766C30.7505 10.9202 30.7037 10.9763 30.6673 11.0199C30.5145 11.0322 30.3766 11.0203 30.2531 11.0798C30.2082 11.1019 30.1334 11.0714 30.0931 11.1323C30.0365 11.1052 29.9851 11.072 29.9292 11.0504C29.8128 11.0192 29.7068 10.9755 29.5787 11.0467C29.4954 11.0958 29.3777 11.104 29.273 11.1219C29.1215 11.1453 28.9732 11.1965 28.8373 11.2518C28.7248 11.3043 28.6065 11.3576 28.4862 11.3942C28.3542 11.4321 28.2131 11.4431 28.0739 11.4707C28.0446 11.4741 28.0115 11.4949 27.9965 11.5191C27.9594 11.5572 27.9263 11.5779 27.8671 11.5793C27.832 11.5834 27.7793 11.5896 27.7592 11.62C27.6064 11.7841 27.395 11.7527 27.2005 11.7643C27.142 11.7712 27.0646 11.7185 27.0119 11.6741C26.9918 11.654 27.0145 11.5952 27.0152 11.5502C26.9391 11.5591 26.8929 11.6207 26.8168 11.5285C26.7342 11.4315 26.6835 11.3026 26.5404 11.2464C26.5671 11.2208 26.5775 11.2083 26.5879 11.1959C26.4812 11.1466 26.3739 11.0918 26.2549 11.0384C26.3056 11.0155 26.3459 11.0052 26.3557 10.9872C26.3654 10.9692 26.3491 10.9318 26.3231 10.9124C26.303 10.8923 26.2613 10.8915 26.236 10.8777C26.1781 10.8395 26.0962 10.7986 26.0838 10.7438C26.0545 10.6462 25.9693 10.6281 25.903 10.5685C25.8269 10.628 25.7963 10.7214 25.6871 10.7006C25.6026 10.7892 25.4647 10.7267 25.3762 10.782C25.3047 10.8298 25.226 10.8165 25.1649 10.8518C25.0862 10.8892 25.0147 10.7852 24.947 10.8662C24.6011 10.8507 24.5484 10.8568 24.2564 10.9473C24.101 10.9881 23.9631 11.0267 23.7849 11.0758C23.7849 11.0758 23.7596 11.1125 23.7336 11.1436C23.6881 11.2108 23.666 11.3257 23.5261 11.2466C23.5261 11.2466 23.4195 11.2479 23.4032 11.2611C23.3623 11.3165 23.3063 11.3455 23.2439 11.3697C23.2439 11.3697 23.1951 11.3586 23.1607 11.3682C23.1021 11.3751 23.03 11.3667 22.9799 11.3951C22.9357 11.4228 22.9194 11.4359 22.8628 11.4088C22.7614 11.3534 22.669 11.3249 22.5299 11.403C22.3627 11.4957 22.2984 11.7055 22.1618 11.553C22.1416 11.5329 22.1208 11.5073 22.1013 11.4927C21.9966 11.5612 21.9914 11.5674 21.9335 11.5293C21.8249 11.4634 21.7235 11.4585 21.6012 11.529C21.5342 11.565 21.4322 11.7062 21.3476 11.5419C21.3469 11.5364 21.3112 11.535 21.3008 11.5475C21.1941 11.5993 21.0881 11.6567 20.9815 11.7086C20.9477 11.7238 20.8931 11.7639 20.8748 11.7604C20.7409 11.6807 20.6531 11.7921 20.5555 11.8204C20.4014 11.8722 20.248 11.9296 20.1023 12.0029C19.9787 12.0624 19.8806 12.1863 19.7076 12.1279C19.6887 12.1189 19.6445 12.1466 19.6165 12.1611C19.545 12.2088 19.4663 12.2462 19.4026 12.3098C19.3441 12.3673 19.1932 12.3457 19.1158 12.3941C19.0384 12.4425 18.9435 12.4424 18.8954 12.4874C18.8258 12.5518 18.7595 12.4922 18.7042 12.5267C18.5878 12.5966 18.485 12.6817 18.3608 12.7356C18.2373 12.7951 18.1651 12.9384 17.998 12.93C17.9863 12.9313 17.9577 12.9909 17.944 13.0262C17.9304 13.0615 17.9167 13.0968 17.9031 13.1321C17.7587 13.1659 17.615 13.2053 17.5109 13.2288C17.4166 13.1837 17.3471 13.1469 17.284 13.115C17.3035 13.079 17.3308 13.0084 17.2612 13.0221C17.1441 13.0359 17.1727 12.9258 17.1005 12.9174L17.1194 12.8253C17.0843 12.8294 17.0609 12.8322 17.0192 12.8315C16.9997 12.7663 16.9795 12.6957 16.9587 12.6195C16.921 12.652 16.9002 12.6769 16.8729 12.697C16.8866 12.7628 16.8202 12.7537 16.7864 12.7689C16.7897 12.8472 16.7357 12.8423 16.685 12.8146C16.5594 12.7563 16.4287 12.7548 16.2922 12.8045C16.2636 12.8135 16.2291 12.8232 16.2174 12.8246C16.0951 12.6929 15.982 12.841 15.8662 12.8153C15.8408 12.8014 15.8343 12.746 15.7472 12.7618C15.6835 12.7749 15.5846 12.8427 15.5254 12.7429C15.4968 12.7014 15.4331 12.7145 15.3824 12.7373C15.2465 12.7926 15.0988 12.7987 14.9746 12.9032C14.9259 12.9426 14.8114 12.928 14.7301 12.9431C14.6371 12.9597 14.55 12.9755 14.4628 12.9914L14.455 13.0766C14.455 13.0766 14.4446 13.0891 14.4459 13.1001C14.4538 13.1666 14.418 13.2158 14.3868 13.2026C14.2626 13.1554 14.2099 13.2121 14.1611 13.3021C14.1514 13.3201 14.1299 13.3395 14.1072 13.3478L13.6858 13.549C13.652 13.5642 13.6058 13.5753 13.596 13.5933C13.5538 13.7387 13.3932 13.7351 13.3041 13.7849C13.2573 13.841 13.2196 13.924 13.1844 13.9282C13.003 13.9495 12.9699 14.1725 12.7787 14.1612C12.6493 14.3225 12.4776 14.427 12.3079 14.4975C12.2903 14.5501 12.2812 14.5736 12.278 14.5965C12.2221 14.575 12.1941 14.5895 12.1518 14.6338C12.0777 14.7099 11.9932 14.7985 11.9191 14.8746C11.8293 14.9694 11.7162 15.067 11.698 15.2152C11.6863 15.3177 11.6226 15.4319 11.4964 15.4692C11.3872 15.4989 11.4613 15.5745 11.4184 15.6132C11.3482 15.6721 11.3248 15.5231 11.2214 15.6027C11.1121 15.6829 10.9795 15.6143 10.8617 15.6225C10.7518 15.4949 10.573 15.5384 10.4176 15.5286C10.4202 15.5508 10.4091 15.5577 10.4046 15.5695C10.3981 15.5646 10.3792 15.5556 10.3844 15.5494C10.3889 15.5376 10.4 15.5307 10.4104 15.5182C10.3909 15.5036 10.3714 15.4891 10.3473 15.4863C10.2634 15.4793 10.1652 15.4515 10.0976 15.4819C10.0183 15.5137 9.97145 15.6203 9.88106 15.6591C9.9344 15.7595 9.82906 15.8225 9.75883 15.8307C9.61836 15.8472 9.53383 15.9358 9.42133 15.9884C9.35956 16.0181 9.31274 16.0742 9.22365 16.0734C9.12285 16.074 9.02726 16.1695 8.92972 16.1978C8.79186 16.2365 8.74765 16.3147 8.70474 16.404C8.70019 16.4158 8.67938 16.4407 8.66768 16.4421C8.55972 16.4323 8.52462 16.5376 8.51747 16.5777C8.48888 16.7384 8.36013 16.8041 8.22617 16.876C8.20926 16.8836 8.18065 16.8926 8.1761 16.9044C8.11498 16.9902 8.04736 17.0712 7.92641 17.1023C7.89129 17.1064 7.84578 17.1735 7.82107 17.2158C7.77621 17.2885 7.70078 17.3535 7.70535 17.4428C7.7073 17.4595 7.65788 17.4934 7.63512 17.5017C7.52067 17.5376 7.43549 17.6206 7.45892 17.719C7.49275 17.8555 7.39717 17.951 7.31915 18.0444C7.23592 18.1441 7.15724 18.232 7.07922 18.3254C7.14296 18.4135 7.1937 18.4918 7.25094 18.5749C7.17031 18.6462 7.12675 18.73 7.02011 18.7818C6.91412 18.8392 6.91414 18.9909 6.85432 19.0878C6.73469 19.2817 6.69896 19.4825 6.77897 19.6585C6.85118 19.8186 6.78422 19.9556 6.7784 20.1586C6.71791 20.0983 6.69059 20.0678 6.66327 20.0373C6.6145 20.0767 6.62363 20.2049 6.50656 20.1681C6.48185 20.1597 6.41552 20.2012 6.39537 20.2317C6.29979 20.3777 6.15802 20.3832 6.03902 20.4309C5.96554 20.462 5.89662 20.5824 5.81142 20.5138C5.77177 20.6308 5.71257 20.531 5.6625 20.5594C5.56756 20.6099 5.45637 20.6735 5.36858 20.6838C5.25152 20.6976 5.13446 20.7113 5.01936 20.7417C4.9355 20.9369 4.93553 21.1392 4.94661 21.3345C4.95705 21.5243 4.99089 21.7114 5.0527 21.8839C5.10085 22.0411 5.18606 22.1604 5.15487 22.3494C5.05928 22.3944 5.05278 22.3895 4.94357 22.7226C5.01709 22.8937 5.0945 23.0475 5.1394 23.2277C5.16478 23.3427 5.21877 23.4487 5.24415 23.5637C5.28189 23.7334 5.37619 23.7279 5.46204 23.7516C5.57133 23.9747 5.64225 24.2248 5.81656 24.3953C5.87575 24.4445 5.96159 24.4682 6.00387 24.525C6.15348 24.7378 6.3447 24.9007 6.52291 25.0539C6.62243 25.1433 6.72064 25.2217 6.8286 25.282C6.94372 25.3528 7.06534 25.4284 7.18825 25.4139C7.33134 25.5713 7.45884 25.7473 7.66695 25.8015C7.69166 25.8099 7.71768 25.8293 7.73134 25.8445C7.78207 25.9228 7.8341 25.9111 7.90238 25.8862C7.9479 25.8696 8.00903 25.8849 8.03895 25.9376C8.06888 25.9903 8.08124 26.045 8.10011 26.1046C7.96419 26.1093 8.07476 26.1918 8.07346 26.2313C8.06632 26.322 8.15088 26.4357 8.02863 26.5062C7.94475 26.5498 7.93761 26.6405 7.93632 26.7306C7.94153 26.7749 7.97666 26.8213 8.00788 26.8851C7.94545 26.8587 7.91423 26.8455 7.88301 26.8324C7.86091 26.8967 8.04432 26.9932 7.87654 27.0297C7.87654 27.0297 7.8707 27.1316 7.93899 27.1572C7.97671 27.1753 8.03004 27.1746 8.06256 27.1989C8.14841 27.2731 8.22775 27.2919 8.33506 27.2961C8.43065 27.3017 8.57503 27.3185 8.5757 27.4757C8.57766 27.4923 8.58677 27.5193 8.58677 27.5193C8.79487 27.523 8.83782 27.6865 8.91717 27.8064C8.93148 27.8272 8.96205 27.8348 8.98807 27.8542L9.14871 27.9589C9.22611 28.0116 9.297 28.0595 9.38348 27.9875C9.42705 27.9543 9.5194 27.9828 9.54737 28.0188C9.63778 28.1318 9.78476 28.1707 9.90118 28.2526C10.0566 28.3635 10.2244 28.4281 10.413 28.3666C10.4988 28.3396 10.558 28.3889 10.5847 28.4644C10.6517 28.4284 10.7122 28.3876 10.7785 28.3461C10.8065 28.3821 10.8357 28.4293 10.8539 28.4327C10.9541 28.4266 11.0549 28.4766 11.1433 28.4718C11.3443 28.465 11.5277 28.5109 11.6877 28.6101C11.7326 28.6385 11.7644 28.6572 11.8191 28.6677C11.9946 28.6976 12.1598 28.7906 12.3393 28.8032C12.3992 28.8074 12.4544 28.8739 12.5169 28.9003C12.6105 28.9398 12.7029 28.9683 12.8011 28.9961C12.9051 29.0232 13.0086 29.0448 13.1074 29.0781C13.3116 29.1496 13.5262 29.2087 13.6914 29.3522C13.7981 29.452 13.9496 29.4791 14.0511 29.5852C14.1187 29.6559 14.1916 29.7204 14.2579 29.78C14.2482 29.798 14.2209 29.8181 14.2228 29.8347C14.2684 30.0204 14.4537 30.1334 14.5442 30.2969C14.552 30.3129 14.6007 30.324 14.602 30.3351C14.6027 30.3912 14.591 30.4431 14.5156 30.4576L14.5175 30.4742C14.6222 30.5574 14.6222 30.5574 14.6327 30.7472C14.634 30.7583 14.6645 30.766 14.6658 30.777C14.6964 30.8353 14.7159 30.9004 14.7517 30.9524C14.7946 31.0147 14.8551 31.075 14.9169 31.1464C14.967 31.1181 15.034 31.0821 15.084 31.0538C15.2375 31.0975 15.363 31.1558 15.5035 31.1393C15.5562 31.1331 15.616 31.1879 15.6758 31.1415C15.7168 31.1873 15.7578 31.233 15.8098 31.2719C15.9067 31.3391 15.9984 31.4126 16.15 31.3892C16.2488 31.372 16.3652 31.4032 16.468 31.4192C16.6254 31.4457 16.7795 31.4444 16.9323 31.4321C17.0611 31.417 17.1898 31.4018 17.3154 31.4096C17.4526 31.4159 17.593 31.45 17.7368 31.4612C17.7667 31.4633 17.8012 31.4536 17.8291 31.4391C17.8733 31.4114 17.9195 31.4004 17.9754 31.4219C18.0125 31.4344 18.0658 31.4337 18.0938 31.4192C18.2947 31.3113 18.4898 31.4064 18.6791 31.4516C18.7402 31.4669 18.7955 31.5334 18.8261 31.5916C18.841 31.6179 18.7994 31.6678 18.7806 31.7093C18.8586 31.717 18.9191 31.6762 18.962 31.7891C19.0115 31.9069 19.0161 32.0468 19.1338 32.1397C19.1 32.1549 19.0896 32.1674 19.0726 32.175C19.1592 32.2547 19.2463 32.34 19.3393 32.4246C19.2866 32.4308 19.2444 32.4245 19.2223 32.4383C19.206 32.4515 19.2171 32.4951 19.2314 32.5159C19.2463 32.5423 19.2834 32.5548 19.3036 32.5749C19.3459 32.6317 19.4063 32.692 19.407 32.7481C19.4012 32.8499 19.4773 32.8915 19.5221 32.9705C19.6125 32.9318 19.675 32.8571 19.7699 32.9077C19.8811 32.8441 19.9936 32.9432 20.0912 32.9149C20.1777 32.8935 20.2466 32.9247 20.3162 32.9109C20.404 32.9006 20.4417 33.0198 20.5295 32.9589C20.8521 33.0783 20.9119 33.0825 21.2137 33.0752C21.3619 33.0746 21.5174 33.0844 21.702 33.0908C21.702 33.0908 21.7404 33.0638 21.7736 33.0431C21.8386 32.9905 21.8978 32.888 22.007 33.01C22.007 33.01 22.1052 33.0378 22.1273 33.024C22.182 32.9838 22.2457 32.9707 22.3101 32.9632C22.3101 32.9632 22.3543 32.9861 22.3901 32.9875C22.4506 32.9972 22.5188 33.0229 22.5709 33.0112C22.6229 32.9995 22.645 32.9856 22.686 33.0314C22.7673 33.1173 22.8447 33.17 23.0008 33.1348C23.1919 33.0955 23.3135 32.9183 23.4 33.0991C23.415 33.1255 23.4241 33.1525 23.4384 33.1733C23.5587 33.1367 23.5639 33.1305 23.6056 33.1817C23.6882 33.2788 23.7805 33.3073 23.9197 33.2797C23.9951 33.2652 24.131 33.1593 24.1584 33.3415C24.159 33.3471 24.1896 33.3547 24.2013 33.3533C24.3177 33.334 24.4399 33.314 24.5557 33.2892C24.5967 33.2844 24.6591 33.2602 24.6728 33.2755C24.769 33.3877 24.89 33.3061 24.9966 33.3048C25.1566 33.3029 25.3211 33.2892 25.4785 33.265C25.6183 33.243 25.7451 33.1607 25.8876 33.2619C25.9071 33.2765 25.9532 33.2654 25.9812 33.2509C26.0612 33.2247 26.149 33.2144 26.2329 33.1708C26.3057 33.1341 26.4384 33.2028 26.5301 33.1752C26.6159 33.1482 26.7089 33.1823 26.77 33.147C26.8539 33.1034 26.8988 33.1824 26.9625 33.1693C27.0952 33.1369 27.2194 33.083 27.3482 33.0678C27.4828 33.052 27.5992 32.9316 27.7494 32.9982C27.7618 33.0024 27.8034 32.9525 27.8294 32.9214C27.8495 32.8909 27.8762 32.8653 27.9022 32.8342C28.0518 32.8447 28.1896 32.8566 28.3028 32.8601C28.3704 32.9308 28.4244 32.9863 28.4784 33.0418C28.4459 33.068 28.3991 33.1241 28.4661 33.1387C28.5812 33.1589 28.5097 33.2572 28.5786 33.2884L28.5292 33.3729C28.5598 33.3805 28.5845 33.3889 28.6274 33.4007C28.6235 33.4685 28.6144 33.5426 28.6118 33.6216C28.6567 33.5995 28.6853 33.5905 28.7133 33.576C28.723 33.5074 28.7802 33.54 28.8212 33.5352C28.8485 33.4646 28.8921 33.4819 28.9266 33.5228C29.0209 33.6185 29.1386 33.6608 29.2804 33.6554C29.3096 33.652 29.346 33.6589 29.3577 33.6576C29.4248 33.8238 29.573 33.7221 29.6751 33.7832C29.6953 33.8033 29.6842 33.8608 29.7688 33.8733C29.8293 33.8831 29.9444 33.8527 29.9632 33.9628C29.9691 34.0127 30.0348 34.0162 30.0881 34.0156C30.2299 34.0101 30.3704 34.0442 30.5121 33.9882C30.5746 33.964 30.6643 34.0209 30.743 34.0341C30.8282 34.0522 30.9127 34.0647 31.0038 34.0821L31.0421 34.0046C31.0421 34.0046 31.059 33.997 31.0584 33.9914C31.0805 33.927 31.1241 33.8938 31.1501 33.9133C31.2431 33.9978 31.3101 33.9619 31.3848 33.8913C31.4011 33.8781 31.4297 33.8692 31.4531 33.8664L31.8992 33.8252C31.9344 33.8211 31.9831 33.8322 31.9929 33.8142C32.0917 33.6959 32.2289 33.7528 32.3226 33.7418C32.3896 33.7058 32.4481 33.6484 32.4845 33.6553C32.6503 33.7033 32.77 33.5094 32.9339 33.5913C33.112 33.4917 33.3032 33.4524 33.4762 33.4601C33.5126 33.4165 33.5282 33.3978 33.5438 33.3792C33.5783 33.4201 33.6076 33.4166 33.67 33.3924C33.7662 33.353 33.8735 33.3067 33.9691 33.2618C34.0875 33.2085 34.2247 33.1643 34.3047 33.0369C34.3593 32.9463 34.4633 32.8722 34.5901 32.891C34.6987 32.9064 34.6695 32.8087 34.7208 32.7914C34.8067 32.7645 34.7592 32.9161 34.8802 32.885C35.007 32.8533 35.087 32.9787 35.1937 33.028C35.2249 33.1929 35.3959 33.2346 35.5117 33.3109C35.5215 33.2929 35.5325 33.2859 35.5436 33.279C35.5449 33.2901 35.5585 33.3053 35.5527 33.306C35.5416 33.313 35.5299 33.3143 35.5189 33.3212C35.5273 33.3427 35.5358 33.3642 35.5546 33.3732C35.619 33.4162 35.686 33.4814 35.7582 33.4898C35.8415 33.4912 35.9234 33.431 36.0131 33.4373C36.0235 33.3237 36.136 33.3218 36.1926 33.3488C36.3123 33.4078 36.4202 33.367 36.534 33.3761C36.5997 33.3796 36.6569 33.3617 36.7272 33.404C36.8046 33.4567 36.9255 33.4256 37.0114 33.4492C37.1349 33.4909 37.2065 33.4432 37.2891 33.3885C37.3001 33.3816 37.3287 33.3726 37.3352 33.3775C37.4081 33.442 37.49 33.3818 37.516 33.3506C37.6214 33.2371 37.7482 33.2559 37.886 33.2678C37.9036 33.2658 37.9283 33.2741 37.94 33.2727C38.0363 33.2333 38.1227 33.2119 38.2236 33.2619C38.2548 33.2751 38.3172 33.2509 38.3569 33.235C38.4303 33.2039 38.5188 33.1991 38.5637 33.1264C38.5741 33.1139 38.6274 33.1133 38.6462 33.1223C38.7399 33.1619 38.8407 33.1613 38.8843 33.0775C38.9473 32.9577 39.065 32.9495 39.1691 32.926C39.2731 32.9026 39.3856 32.9006 39.491 32.8882C39.5144 32.7843 39.5332 32.6922 39.5521 32.6001C39.6483 32.6113 39.7277 32.5795 39.8272 32.6184C39.9208 32.6579 40.0294 32.5721 40.1282 32.5549C40.3266 32.526 40.4879 32.434 40.5828 32.2824C40.6725 32.137 40.8117 32.1094 40.9794 32.0223C40.9528 32.0985 40.9456 32.1386 40.932 32.1739C40.9827 32.2017 41.0874 32.1332 41.1011 32.2496C41.1043 32.2773 41.1622 32.3154 41.198 32.3168C41.3482 32.3329 41.3983 32.4562 41.4731 32.5373C41.5206 32.5879 41.6305 32.6143 41.6065 32.7127C41.7073 32.7121 41.6513 32.7917 41.68 32.8333C41.7476 32.904 41.8218 32.9795 41.8491 33.0606C41.8849 33.1631 41.9265 33.265 41.9727 33.355C42.2712 33.3705 42.5222 33.2343 42.7628 33.1105C42.8688 33.0531 42.954 32.9701 43.0925 32.9875C43.1155 33.0485 43.2087 33.1181 43.3722 33.1962C43.4957 33.1368 43.6004 33.0683 43.7415 33.0573C43.8293 33.047 43.9158 33.0256 43.9984 33.0215C44.1285 33.0175 44.1356 32.9267 44.1629 32.8561C44.3534 32.8112 44.5563 32.8211 44.7209 32.7063C44.7761 32.6717 44.8099 32.6059 44.8678 32.5935C45.0753 32.541 45.2463 32.431 45.4381 32.3467C45.5454 32.3004 45.641 32.2554 45.7281 32.189C45.827 32.1212 45.9395 32.0687 45.9791 31.9517C46.171 31.9179 46.3641 31.8952 46.5143 31.7596C46.5306 31.7464 46.5592 31.7374 46.5826 31.7347C46.6717 31.7355 46.684 31.6891 46.6996 31.6198C46.7061 31.5741 46.749 31.5353 46.8089 31.5396C46.8628 31.5444 46.9188 31.566 46.9741 31.5819C46.9155 31.6899 47.0287 31.6429 47.0677 31.6721C47.1399 31.731 47.2771 31.7373 47.2687 31.8676C47.2609 31.9527 47.3338 32.0172 47.3988 32.0658C47.4313 32.09 47.4905 32.0887 47.5575 32.1033C47.5022 32.1379 47.4742 32.1524 47.4521 32.1662C47.4938 32.2175 47.6628 32.1415 47.603 32.289C47.603 32.289 47.6759 32.3534 47.737 32.3182C47.7702 32.2974 47.8014 32.26 47.8358 32.2504C47.934 32.2276 47.9945 32.1868 48.0628 32.1113C48.1207 32.0484 48.2156 31.9473 48.3398 32.0451C48.3528 32.0548 48.3834 32.0624 48.3834 32.0624C48.5082 31.9129 48.6533 31.9858 48.7924 32.0087C48.8165 32.0115 48.8445 31.997 48.8672 31.9887L49.0454 31.9397C49.1319 31.9183 49.2067 31.8983 49.206 31.7916C49.2001 31.7417 49.2827 31.6871 49.3308 31.6927C49.4746 31.7039 49.5968 31.6333 49.7301 31.6064C49.9155 31.5678 50.067 31.4938 50.1483 31.3269C50.1866 31.2494 50.2633 31.246 50.3388 31.2821C50.3544 31.2128 50.3641 31.1443 50.3791 31.0695C50.4272 31.0751 50.4825 31.091 50.4922 31.073C50.5553 31.0038 50.6574 30.9637 50.7146 30.8952C50.8395 30.7457 51.0072 30.6586 51.1926 30.6199C51.2452 30.6138 51.2791 30.5985 51.3233 30.5709C51.4722 30.4747 51.6491 30.4146 51.7908 30.3081C51.8402 30.2742 51.9241 30.2812 51.9866 30.257C52.0776 30.2238 52.1732 30.1789 52.2564 30.1298C52.3514 30.0793 52.4385 30.0129 52.5347 29.9735C52.7383 29.8877 52.9334 29.7805 53.1577 29.771C53.3047 29.7594 53.4373 29.6764 53.5863 29.6813C53.6877 29.6863 53.7937 29.6794 53.8828 29.6802C53.8848 29.6968 53.8887 29.7301 53.9017 29.7398C54.0792 29.8369 54.2977 29.7775 54.4928 29.822C54.511 29.8255 54.5553 29.7978 54.5624 29.8082C54.6021 29.8429 54.6372 29.8893 54.5969 29.9502C54.5969 29.9502 54.6099 29.96 54.6158 29.9593C54.7562 29.9428 54.7562 29.9428 54.9188 30.0641C54.9253 30.069 54.954 30.06 54.9657 30.0586C55.0333 30.0788 55.0957 30.1051 55.1686 30.119C55.2531 30.1316 55.3416 30.1268 55.4482 30.1255C55.4651 30.0673 55.4807 29.9981 55.4976 29.9399C55.642 29.8555 55.7779 29.8002 55.8709 29.6826C55.9014 29.6397 55.9951 29.6286 55.9989 29.5608C56.0633 29.5532 56.1349 29.556 56.1979 29.5374C56.3248 29.5056 56.4522 29.4794 56.538 29.3514C56.5933 29.2662 56.7038 29.197 56.7903 29.1251C56.9256 29.0137 57.0361 28.8939 57.133 28.759C57.2149 28.6482 57.2916 28.5437 57.3794 28.4322C57.4848 28.3187 57.6089 28.2143 57.7149 28.1063C57.7357 28.0814 57.7552 28.0454 57.7578 28.017C57.7695 27.965 57.789 27.929 57.8372 27.8841C57.8697 27.8578 57.9061 27.8142 57.9139 27.7795C57.9451 27.5399 58.1577 27.4307 58.3235 27.2763C58.371 27.2258 58.4757 27.2079 58.5459 27.1996C58.5752 27.1962 58.6005 27.2606 58.6285 27.2967C58.6857 27.2282 58.6883 27.1492 58.8197 27.1562C58.9621 27.1564 59.1058 27.2181 59.2678 27.1317C59.2665 27.1712 59.2626 27.1885 59.2645 27.2051C59.3998 27.1443 59.5344 27.0779 59.6807 27.0101C59.6521 27.0697 59.6222 27.1181 59.6306 27.1396C59.6332 27.1618 59.6814 27.1673 59.7158 27.1577C59.751 27.1535 59.7874 27.1099 59.8218 27.1003C59.9018 27.074 60.0085 27.0222 60.0644 27.0437C60.1639 27.0826 60.2621 27.0092 60.3655 26.9802C60.3811 26.8604 60.3401 26.7641 60.4519 26.6554C60.4519 26.5038 60.6164 26.3889 60.6496 26.267C60.6723 26.1576 60.7386 26.0656 60.7575 25.9735C60.7854 25.8578 60.9356 25.8233 60.9096 25.7028C61.1807 25.2832 61.1976 25.1745 61.2906 24.7535C61.3224 24.5194 61.3568 24.3075 61.3951 24.0277C61.3945 24.0221 61.3769 23.9736 61.3483 23.9321C61.2956 23.8371 61.1877 23.7768 61.3086 23.594C61.3086 23.594 61.3378 23.4389 61.3229 23.4126C61.2786 23.3391 61.2624 23.2511 61.2513 23.1569C61.2591 23.1223 61.2669 23.0877 61.261 23.0378C61.2565 22.9484 61.274 22.8453 61.248 22.7753C61.222 22.7053 61.207 22.679 61.2454 22.6014C61.3175 22.4581 61.3487 22.3196 61.2479 22.118L61.2277 22.199ZM6.47798 20.3793C6.48382 20.2775 6.50918 20.2408 6.60023 20.3087C6.55601 20.3364 6.52285 20.3572 6.47798 20.3793ZM44.5834 13.7107C44.5554 13.6746 44.5346 13.649 44.5066 13.6129C44.6002 13.6019 44.6315 13.6151 44.5834 13.7107ZM23.4862 13.5829L23.24 11.4881L23.4868 13.5884L23.4862 13.5829ZM41.1095 32.1699C41.1486 32.199 41.1804 32.2178 41.2129 32.242C41.1284 32.2801 41.0926 32.2787 41.1095 32.1699Z" fill="#F9D983"/>
</g>
<path d="M51.7053 11.8595C51.7735 7.78381 45.475 4.3747 37.6376 4.24678C29.8002 4.11885 23.3946 7.32045 23.3264 11.3962C23.3132 12.0956 23.5042 12.7832 23.8416 13.4233L23.6805 13.4086L23.5973 18.2039C23.5291 22.2796 29.8276 25.6887 37.665 25.8166C45.5024 25.9445 51.9081 22.743 51.9762 18.6672L52.0585 13.882L51.1156 13.8669C51.4785 13.2299 51.6921 12.5589 51.7063 11.8494L51.7053 11.8595Z" fill="#F7C84D"/>
<path d="M53.1921 17.9967C53.3626 17.6874 53.2392 17.3715 53.2384 17.0465C53.2403 17.0263 53.2623 17.008 53.2431 16.9961C52.9392 16.8769 53.1855 16.737 53.0757 16.6051C52.9659 16.4732 52.9166 16.3469 52.9185 16.215C52.9424 15.9532 52.9764 15.6923 52.9189 15.4332C52.8614 15.1741 53.2387 14.9344 53.1079 14.6991C53.1107 14.5572 53.1731 14.4309 53.0916 14.3219C53.0294 14.2248 52.8034 14.1432 52.6496 14.0479C52.5627 13.9994 52.4785 13.9206 52.3476 13.9086C52.267 13.9012 52.1864 13.8939 52.1059 13.8865C52.1435 13.8087 52.1911 13.7318 52.2186 13.6531L52.3654 13.1588C52.4497 12.9025 52.6119 12.6838 52.7466 12.4321C52.9033 12.1622 53.2386 11.8273 53.0328 11.5241C52.8352 11.242 52.9232 10.9455 52.7943 10.69C52.7531 10.5847 52.7532 10.473 52.6901 10.386C52.4385 10.0279 52.4578 10.0398 52.3967 9.5976C52.4013 9.54725 52.3646 9.50329 52.3271 9.46939C52.2521 9.4016 52.145 9.35118 52.091 9.27516C51.8761 8.96103 51.6913 8.64966 51.4974 8.3273C51.2797 8.04338 51.0098 7.775 50.6555 7.65121C50.6153 7.64753 50.6116 7.57613 50.5952 7.53401C50.5522 7.44884 50.5083 7.37376 50.4763 7.27945C50.3923 6.97729 49.8391 7.25162 49.8705 6.79755C49.615 6.92649 49.573 6.71956 49.4367 6.65632C49.3104 6.594 49.2354 6.41453 49.0907 6.44191C48.8847 6.47384 48.894 6.26145 48.7759 6.22019C48.7164 6.20459 48.6597 6.1588 48.6066 6.1844C48.3831 6.29597 48.2953 6.14577 48.1928 6.04501C48.0913 5.93418 48.0383 5.73641 47.814 5.85805C47.3967 5.53557 46.8245 5.5746 46.3769 5.36105C46.2113 5.28497 46.0951 5.11189 45.9313 5.01567C45.7684 4.90939 45.5679 4.8809 45.3912 4.81397L44.8887 4.64614C44.7212 4.5902 44.5537 4.53427 44.3853 4.48841C44.2269 4.44346 44.0796 4.38938 43.9194 4.36457C43.7583 4.34983 43.5467 4.44218 43.4461 4.32128C43.3089 4.15642 43.1331 4.1911 42.9656 4.13516C42.7386 4.06362 42.506 4.05251 42.279 3.98098C42.0136 3.88562 41.7252 3.93032 41.4607 3.7132C41.3006 3.5767 41.0672 3.46397 40.8309 3.71651C40.7979 3.74396 40.7265 3.74758 40.7201 3.70638C40.6141 3.42252 40.4291 3.55791 40.2789 3.53402C39.9997 3.47802 39.6948 3.5923 39.4578 3.40816C39.2684 3.25883 39.0715 3.30175 38.8848 3.2339C38.6981 3.16605 38.5041 3.06705 38.3118 3.05962C38.0591 3.04666 37.7873 2.9101 37.5491 3.18279C37.1537 3.06539 36.78 3.37645 36.3955 3.36159C35.9296 3.34943 35.4581 3.3977 34.9875 3.43589C34.7934 3.4486 34.5701 3.33678 34.4207 3.6379C34.3959 3.6864 34.2943 3.68726 34.2595 3.62316C34.1461 3.41986 34.0262 3.51044 33.9218 3.54151C33.7762 3.57896 33.6197 3.51386 33.4804 3.7042C33.3998 3.80853 33.1848 3.60608 33.03 3.63255C32.7819 3.68093 32.5447 3.83185 32.2492 3.62204C32.1823 3.57532 32.0743 3.64666 32.0166 3.72261C31.8874 3.91388 31.6896 3.96687 31.5359 3.87158C31.3812 3.78635 31.2658 3.82658 31.1422 3.84573C30.873 3.90234 30.6285 4.02215 30.3913 4.17308C29.9408 4.43649 29.4125 4.43894 29.0031 4.80766C28.7164 5.0556 28.2669 4.97385 28.0278 5.3683C27.9206 5.54127 27.6652 5.44682 27.4803 5.47052C27.1818 5.5143 26.9473 5.74673 26.6726 5.86376C26.4089 5.97164 26.0902 6.01356 25.8512 6.18462C25.5279 6.3886 25.1754 6.57976 24.9866 6.97881C24.7904 7.34672 24.3345 7.44715 23.9947 7.7207C23.6485 7.95304 23.5933 8.44555 23.1016 8.60366C22.9925 8.90846 22.8056 9.17566 22.5994 9.43097C22.4217 9.70918 22.2604 10.0295 22.1796 10.3572C22.1299 10.901 22.1171 10.9303 22.6643 11.2748C22.7513 11.3234 22.8794 11.3656 23.0003 11.3766C23.5349 11.4154 24.0065 11.2554 24.0871 11.0394C24.1147 10.9607 24.3106 10.9278 24.1504 10.7913C24.0864 10.7144 24.3162 10.644 24.3639 10.5672C24.4005 10.4994 24.3475 10.4134 24.3347 10.3309C24.3366 10.3108 24.3384 10.2907 24.3393 10.2806C24.6012 10.1929 24.561 9.96578 24.6865 9.8148C24.801 9.67296 25.0227 9.58155 25.128 9.42873C25.2453 9.25668 25.412 9.09929 25.5686 8.94099C25.7161 8.77171 25.8728 8.61344 26.0486 8.46706C26.1594 8.3655 26.3444 8.34178 26.3189 8.06529C26.3098 7.94261 26.4582 7.87494 26.5753 7.92628C26.751 8.00327 26.8005 7.90626 26.8756 7.86236C27.0478 7.75626 27.2108 7.63918 27.4022 7.54499L27.948 7.23952C27.9117 6.7488 28.3655 7.22693 28.4672 7.00269C28.5048 6.9249 28.622 6.97622 28.6166 6.81326C28.6239 6.7327 28.7219 6.66043 28.7585 6.7044C28.9351 6.88302 29.0185 6.74849 29.1238 6.70735C29.5166 6.51989 29.946 6.48809 30.3014 6.15505C30.502 5.96016 30.7986 5.93653 31.0751 5.91104C31.3699 5.90755 31.5605 5.60003 31.8388 5.55441C31.9936 5.52795 32.1429 5.45024 32.3204 5.61878C32.8048 5.42955 33.3384 5.59004 33.8392 5.55461C33.9829 5.5373 34.0682 5.38262 34.1854 5.32226C34.3328 5.26467 34.4728 5.39934 34.6211 5.44336C34.6513 5.44613 34.6815 5.44889 34.6943 5.4196C34.7586 5.16147 34.9114 5.26683 35.024 5.25682C35.1787 5.23036 35.3362 5.17368 35.489 5.39074C35.838 5.0165 36.2526 5.2575 36.6353 5.18081C36.7287 5.15889 36.8522 5.25142 36.9209 5.16631C37.1527 4.85243 37.4291 5.05033 37.6874 4.89118C37.9566 4.72288 38.2678 4.87321 38.5507 4.88893C38.6312 4.89629 38.7585 4.83684 38.7914 4.92108C38.8819 5.15275 39.0157 5.02283 39.1319 5.08423C39.2381 5.14471 39.3405 5.24547 39.4495 5.27574C40.0179 5.38866 40.5864 5.50159 41.1411 5.65386C41.2701 5.68598 41.413 5.67873 41.5411 5.72091C41.6601 5.75211 41.7947 5.7238 41.8889 5.91519C41.9575 6.05347 42.1378 6.0801 42.2669 6.00053C42.3961 5.92095 42.4849 5.8377 42.515 6.06384C42.6588 5.82315 42.7677 5.96509 42.8776 5.9853C43.3948 6.10368 43.8413 6.439 44.3448 6.59674C44.602 6.67104 44.9949 6.37189 45.1255 6.83062C45.1329 6.86176 45.1942 6.85723 45.2372 6.83071C45.4433 6.68709 45.6282 6.77507 45.6757 6.92157C45.7479 7.13126 45.8788 7.14324 46.007 7.18542C46.4371 7.36693 46.926 7.46239 47.3314 7.6924C47.6407 7.86285 47.9602 8.03422 48.2347 8.25226C48.5312 8.452 48.7956 8.66913 49.0381 8.90454C49.1132 8.97233 49.1882 9.04013 49.3402 9.04388C49.5928 9.05683 49.5643 9.36899 49.9021 9.33896C49.7938 9.74538 50.1014 9.82428 50.2221 10.0587C50.3866 10.5916 50.899 11.0954 50.5627 11.6638C50.5132 11.7608 50.5946 11.8698 50.5552 11.9677C50.5359 12.0675 50.5844 12.2039 50.4479 12.2524C50.198 12.3209 50.5824 12.4474 50.4926 12.5408C50.3589 12.6707 50.3927 12.8565 50.3075 13.0112C50.2232 13.1558 50.051 13.2619 50.104 13.4597C50.1524 13.7078 49.982 13.7938 49.7934 13.8577C49.7522 13.8641 49.7183 13.9016 49.7348 13.9438C49.8975 14.2734 49.5258 14.2293 49.5166 14.4417C49.4945 14.6834 49.3781 14.8453 49.1968 14.9404C49.1098 15.0036 48.9496 14.9788 48.8544 15.0208C48.7482 15.072 48.6227 15.1113 48.6007 15.2413C48.5327 15.5397 48.2727 15.6073 48.0959 15.7638C47.9732 15.8845 47.7819 15.8671 47.7469 16.138C47.7359 16.2589 47.5427 16.2615 47.4137 16.2294C47.215 16.1808 47.1389 16.4581 46.8946 16.2428C46.8697 16.403 46.7809 16.4863 46.6655 16.5265C46.4979 16.5822 46.3468 16.6801 46.1793 16.7359C46.0328 16.7834 45.9174 16.9353 45.7059 16.8043C45.4762 16.6513 45.5117 17.1521 45.2947 17.0815C45.2352 17.0659 45.1958 17.1638 45.1382 17.1281C44.9012 16.9439 44.7454 17.0921 44.5788 17.1378C43.9726 17.3261 43.3491 17.4823 42.7283 17.6083C42.3575 17.6657 41.9849 17.6316 41.6077 17.6479C41.5977 17.647 41.5757 17.6653 41.5675 17.6442C41.369 17.3722 41.1958 17.6001 41.0173 17.5533C40.8287 17.5056 40.6558 17.3984 40.469 17.4422C40.2392 17.5126 39.9874 17.4896 39.7512 17.5187C39.5251 17.5488 39.2934 17.5276 39.0654 17.6896C38.8474 17.8524 38.5848 17.7268 38.3385 17.755C38.2359 17.766 38.1425 17.8996 38.0509 17.9014C37.9402 17.8912 37.8285 17.7795 37.7187 17.7593C37.6089 17.7391 37.4944 17.7692 37.3817 17.8909C37.3149 17.9559 37.1704 17.6482 37.0596 17.7498C36.8132 18.0014 36.5633 17.8465 36.3079 17.8638C36.0927 17.8847 35.8721 17.8544 35.6515 17.8241C35.581 17.8176 35.4959 17.7489 35.4501 17.8057C35.2211 18.0893 35.0262 17.8887 34.8129 17.8895C34.5776 17.9086 34.3497 17.8471 34.1217 17.7857C34.0613 17.7802 34.0248 17.6245 33.9726 17.64C33.5377 17.7323 33.5258 17.7515 33.0737 17.4766C32.9968 17.4289 32.8897 17.4902 32.7963 17.5121C32.7551 17.5185 32.6983 17.5844 32.6809 17.5524C32.5016 17.1806 32.1518 17.4532 31.9606 17.2123C31.7429 16.9284 31.4691 16.9236 31.2091 16.8796C30.3624 16.7006 29.6605 16.1591 28.7469 16.1568C28.3168 15.8636 27.7877 15.7645 27.4519 15.3276C27.1482 14.985 26.7372 14.8154 26.3748 14.5589C26.3556 14.547 26.3492 14.5058 26.3181 14.5131C26.0022 14.6365 26.0097 14.3325 25.8101 14.294C25.5996 14.2646 25.4458 14.1693 25.3269 14.0264C25.0771 13.7598 24.9226 13.4513 24.6819 13.1957C24.4743 12.9127 24.6439 12.5018 24.4801 12.2939C24.4445 12.1281 24.4372 11.9853 24.3567 11.8662C24.2845 11.7682 24.0575 11.6967 23.8845 11.5895C23.7884 11.5299 23.6969 11.42 23.5669 11.398C23.3051 11.374 23.003 11.3464 22.7549 11.3948C22.3328 11.4577 22.1174 11.9254 22.2372 12.2816C22.2536 12.3237 22.2774 12.397 22.2444 12.4244C22.0557 12.6001 22.1591 12.8025 22.2634 12.8831C22.5644 13.1442 22.5652 13.4692 22.7435 13.7393C22.7527 13.7503 22.7609 13.7714 22.7701 13.7824C22.7682 13.8025 22.7664 13.8227 22.8039 13.8566C22.8121 13.8776 22.8304 13.8996 22.8387 13.9207C22.8139 13.9692 22.7068 14.0305 22.6912 14.09C22.6856 14.1504 22.7515 14.2072 22.7863 14.2713C22.7853 14.2813 22.8036 14.3033 22.7826 14.3115C22.5664 14.4542 22.7248 14.6109 22.6707 14.7583C22.6166 14.9056 22.5222 15.0493 22.5093 15.1903C22.4789 15.5226 22.4787 15.8576 22.4886 16.1936C22.4885 16.3053 22.3969 16.4188 22.6202 16.5306C22.7172 16.5801 22.697 16.6899 22.5917 16.7311C22.4333 16.7978 22.4782 16.8629 22.4717 16.9333C22.4588 17.0743 22.4651 17.2272 22.4623 17.3691L22.4529 17.8049C22.8969 17.947 22.288 18.0538 22.4472 18.2004C22.503 18.2562 22.4151 18.3294 22.5725 18.3844C22.6412 18.411 22.6731 18.5053 22.62 18.531C22.3874 18.6315 22.4899 18.7323 22.5018 18.8247C22.5501 19.1846 22.5554 19.5709 22.8647 19.8531C23.033 20.0106 23.0952 20.2194 23.1252 20.4455C23.1755 20.6735 23.4629 20.7506 23.5791 20.9236C23.6413 21.0207 23.7355 21.1004 23.6356 21.3045C23.9357 21.5757 23.9767 22.016 24.2338 22.3137C24.3079 22.3916 24.4645 22.345 24.5615 22.3945C24.6796 22.4357 24.6328 22.6142 24.6739 22.7195C24.6721 22.7397 24.7004 22.7626 24.7325 22.7452C24.9486 22.6025 24.944 22.7645 25.0108 22.8113C25.1059 22.8809 25.224 22.9221 25.1616 23.1601C25.5975 23.0578 25.6659 23.4195 25.9304 23.5249C25.9991 23.5515 26.0182 23.6751 26.1034 23.6321C26.4129 23.4675 26.4595 23.7358 26.7076 23.6874C26.9466 23.628 27.0682 23.8524 27.2311 23.9587C27.2787 23.9935 27.3822 23.9725 27.3647 24.0521C27.3234 24.2819 27.4617 24.2133 27.5056 24.2884C27.5595 24.3644 27.5787 24.488 27.6455 24.5347C27.9786 24.7785 28.3245 24.9929 28.6824 25.1881C28.7693 25.2366 28.87 25.2458 28.946 25.3035C29.0228 25.3512 29.1263 25.3302 29.1491 25.5252C29.1664 25.669 29.2955 25.7011 29.4035 25.6297C29.5116 25.5584 29.5904 25.4742 29.5692 25.7058C29.7122 25.4752 29.7597 25.6217 29.8393 25.6391C30.1963 25.7327 30.479 26.0835 30.8589 26.1487C31.0484 26.1863 31.3433 25.8478 31.4365 26.2726C31.4438 26.3037 31.4969 26.2781 31.5198 26.2498C31.6682 26.0704 31.8055 26.1236 31.8448 26.249C31.9097 26.4276 32.0123 26.4167 32.1029 26.4249C32.4453 26.4563 32.8023 26.4381 33.1428 26.4896C33.6564 26.5366 34.1644 26.644 34.6871 26.7019C34.7677 26.7093 34.8373 26.7258 34.938 26.6233C35.0956 26.455 35.2355 26.7013 35.4005 26.4524C35.5586 26.8324 35.783 26.5991 35.9798 26.6679C36.4448 26.8018 36.9256 26.5411 37.3804 26.8975C37.4655 26.9662 37.5717 26.915 37.6624 26.9233C37.753 26.9316 37.8711 26.8612 37.9296 26.9985C38.0384 27.2522 38.0854 26.8503 38.1824 26.8998C38.3279 26.974 38.4845 26.9274 38.6273 26.9202C38.7692 26.923 38.9321 27.0293 39.0466 26.8875C39.195 26.7081 39.3112 26.7695 39.4531 26.884C39.4815 26.9069 39.5208 26.9207 39.5345 26.8813C39.6446 26.5664 39.8037 26.8247 39.9183 26.6829C40.0447 26.5218 40.1884 26.5045 40.3294 26.5174C40.41 26.5248 40.4914 26.6338 40.571 26.6512C40.6607 26.6696 40.7587 26.7089 40.8182 26.6129C40.9612 26.3822 41.147 26.4601 41.3045 26.4035C41.4198 26.3633 41.5434 26.4558 41.625 26.2297C41.6653 26.1217 41.7797 26.2033 41.8639 26.282C41.9856 26.3947 42.0864 26.1805 42.2236 26.4571C42.2676 26.3088 42.3436 26.2548 42.4251 26.2521C42.5478 26.243 42.6641 26.1928 42.7849 26.2038C42.8957 26.2139 42.9791 26.0794 43.1255 26.2553C43.2901 26.4531 43.2849 25.9551 43.4267 26.0696C43.4643 26.1035 43.5027 26.0156 43.5393 26.0596C43.7022 26.2776 43.8158 26.1458 43.9394 26.1266C44.3734 26.0445 44.7927 25.9001 45.2286 25.7978C45.4785 25.7293 45.7504 25.7541 46.0178 25.7177C46.0178 25.7177 46.0397 25.6993 46.0489 25.7103C46.2593 25.9631 46.3226 25.7151 46.4627 25.738C46.6037 25.7509 46.7684 25.8371 46.8865 25.7667C47.0367 25.6789 47.2226 25.6451 47.3728 25.5573C47.523 25.4695 47.6887 25.4338 47.7886 25.2298C47.8775 25.0348 48.0972 25.0752 48.2483 24.9773C48.3033 24.9316 48.307 24.7796 48.3711 24.7449C48.4453 24.711 48.5716 24.7733 48.654 24.7606C48.7373 24.7377 48.7941 24.6719 48.807 24.5309C48.8144 24.4503 49.0596 24.6555 49.0716 24.5246C49.0992 24.2225 49.3116 24.2318 49.4554 24.1028C49.5772 23.9921 49.7155 23.9235 49.8455 23.8339C49.8886 23.8073 49.9792 23.8156 49.9655 23.7433C49.9035 23.4228 50.1341 23.4541 50.2358 23.3415C50.3494 23.2098 50.4895 23.1211 50.6306 23.0223C50.6636 22.9948 50.7889 23.0672 50.8018 23.0379C50.9145 22.6928 50.9036 22.702 51.3037 22.5457C51.3669 22.521 51.3569 22.4084 51.3734 22.3388C51.3762 22.3086 51.3524 22.2353 51.3826 22.2381C51.7524 22.3024 51.6263 21.905 51.8845 21.8575C52.194 21.8046 52.2747 21.5886 52.3563 21.3625C52.4993 21.0202 52.7283 20.7365 52.843 20.3713C52.9768 20.018 53.0521 19.639 52.8957 19.2389C53.0315 18.7538 52.888 18.436 53.0832 18.0782L53.1921 17.9967ZM50.9316 19.9528C50.7805 20.1623 50.7922 20.4782 50.4287 20.5668C50.2309 20.6198 50.2143 20.8011 50.13 20.9457C50.0384 21.0591 49.7419 20.9711 49.7161 21.1413C49.6822 21.2906 49.7672 21.5826 49.4358 21.4305C49.4056 21.4277 49.3855 21.4259 49.4029 21.4579C49.5272 21.7638 49.2801 21.6904 49.2187 21.8066C49.2058 21.8359 49.0813 21.7534 49.0978 21.7956C49.1288 22.0116 48.9128 21.931 48.9091 22.0829C48.8934 22.2541 48.8247 22.3392 48.7194 22.3804C48.6251 22.4124 48.496 22.3802 48.4017 22.4122C48.3385 22.4369 48.2406 22.3975 48.3311 22.6292C48.181 22.4936 48.1434 22.5714 48.0793 22.6061L47.3092 23.0332C47.3092 23.0332 47.2139 23.0753 47.1974 23.1449C47.1488 23.3435 47.0243 23.3727 46.8476 23.3058C46.7396 23.2655 46.6078 23.2636 46.5958 23.3945C46.582 23.5455 46.5097 23.5592 46.4456 23.594C46.2862 23.6708 46.1123 23.6853 45.9612 23.7832C45.7982 23.9003 45.5538 23.685 45.3196 23.4706C45.207 23.369 45.1009 23.3085 45.0907 23.4192C45.0769 23.5703 45.0074 23.5538 44.9515 23.6096C44.8846 23.6746 44.8433 23.7926 44.7701 23.8164C44.6968 23.8402 44.5925 23.7596 44.5028 23.7412C44.4625 23.7375 44.414 23.7127 44.4085 23.7732C44.3827 24.0551 44.2482 23.9717 44.1438 24.0028C43.8929 24.0814 43.6439 24.1399 43.3866 24.1773C43.1394 24.2156 42.9132 24.3574 42.6231 24.1988C42.4785 24.1145 42.3539 24.2554 42.232 24.3661C42.0983 24.496 41.9353 24.6131 41.7267 24.3402C41.6727 24.2642 41.6104 24.3905 41.5445 24.3337C41.4695 24.2659 41.4794 24.6019 41.3751 24.4096C41.3331 24.3143 41.2543 24.3985 41.1939 24.393C40.8158 24.3076 40.4952 24.7048 40.1217 24.6808C40.021 24.6716 39.9011 24.5388 39.8424 24.8482C39.8396 24.8784 39.7993 24.8747 39.7911 24.8536C39.6623 24.3748 39.5935 24.5716 39.5055 24.8681C39.4889 24.9377 39.4231 24.8809 39.3819 24.8873C39.034 24.9164 38.6815 24.8842 38.3327 24.9233C38.189 24.9407 38.0682 24.8179 37.9465 24.7052C37.8056 24.5806 37.6592 24.2931 37.5228 24.4532C37.3863 24.6134 37.2508 24.5401 37.1263 24.5693C37.0741 24.5848 37.0256 24.5601 36.9725 24.5857C36.7673 24.7192 36.7673 24.7192 36.5669 24.579C36.5477 24.5671 36.5166 24.5744 36.4955 24.5827C36.4415 24.6183 36.3947 24.6852 36.3526 24.7016C35.9608 24.7673 35.6039 24.4504 35.1899 24.7577C35.1679 24.776 35.1423 24.7229 35.124 24.7009C35.0773 24.656 35.0389 24.6322 34.9932 24.5773C34.8789 24.384 34.6652 24.9433 34.5702 24.5386C34.4666 24.783 34.3999 24.6245 34.3074 24.6364C34.225 24.6492 34.1546 24.531 34.0749 24.6253C33.9613 24.7571 33.9395 24.552 33.8561 24.5748C33.825 24.5821 33.7857 24.5684 33.7508 24.6159C33.6418 24.809 33.5594 24.7101 33.4926 24.6634C33.4167 24.6057 33.3701 24.4491 33.2519 24.6312C32.9828 24.4645 32.6266 24.6959 32.341 24.5987C32.2421 24.5693 32.1644 24.4201 32.0674 24.3706C31.9612 24.3101 31.8495 24.31 31.7406 24.2798L31.433 24.2008L31.1255 24.122C31.0367 24.0935 30.9498 24.045 30.8491 24.0357C30.7484 24.0265 30.6064 24.1354 30.5561 24.0191C30.4985 23.8717 30.3841 23.9018 30.2971 23.8533C30.1717 23.7809 30.0289 23.7881 29.9045 23.7057C29.7608 23.6113 29.5768 23.6249 29.4853 23.4033C29.4268 23.266 29.3271 23.135 29.1045 23.3482C29.0715 23.3756 29.0322 23.3619 29.0349 23.3317C29.0598 23.0598 28.9188 23.1586 28.8428 23.1009C28.7092 23.0074 28.4922 23.0485 28.4292 22.8498C28.3835 22.6831 28.2617 22.6821 28.1895 22.5841C28.1172 22.4861 28.0797 22.3406 27.9836 22.281C27.8582 22.2086 27.8034 22.031 27.5443 22.2002C27.4107 21.995 27.0838 22.1276 26.9145 21.9801L26.2886 21.4964C26.2035 21.4277 26.2091 21.2556 25.9426 21.3937C25.8995 21.4202 25.8639 21.3662 25.8886 21.3177C25.9977 21.1245 25.8942 21.1456 25.8366 21.1098C25.7698 21.0631 25.7698 20.9514 25.5931 20.9962C25.4887 21.0273 25.5914 20.7929 25.5356 20.7371C25.4422 20.6473 25.2537 20.5996 25.3994 20.3387C25.4351 20.2811 25.3555 20.2637 25.2841 20.2673C25.0991 20.291 25.036 20.204 25.0983 20.0777C25.1597 19.9614 25.1131 19.9165 25.0875 19.8634C25.0381 19.7371 24.9228 19.6656 24.8102 19.5639C24.5723 19.3898 24.6695 19.1043 24.4032 18.9073C24.2248 18.7488 24.4574 18.5366 24.1792 18.3588C24.0548 18.2763 24.237 18.1712 24.2984 18.0549C24.3754 17.8792 24.3013 17.6896 24.3381 17.5102C24.3638 17.3399 24.4911 17.1688 24.4967 16.9967C24.5079 16.7642 24.5382 16.5436 24.3772 16.3055C24.2683 16.1635 24.3325 16.0171 24.4067 15.8715C24.4259 15.8834 24.4452 15.8953 24.4662 15.8871C24.7922 15.7646 24.7966 16.0493 24.9723 16.1263C25.1471 16.2134 25.4063 16.1559 25.5215 16.339C25.5663 16.4041 25.667 16.4133 25.6798 16.4957C25.7355 16.7749 25.8938 16.9316 26.1969 16.8374C26.2381 16.831 26.2848 16.8759 26.2811 16.9162C26.2608 17.1378 26.4146 17.1214 26.5098 17.191C26.7111 17.3211 26.9225 17.4521 27.1367 17.553C27.3701 17.6657 27.5815 17.7967 27.8268 17.8902C28.0428 17.9709 28.2991 17.9436 28.5051 18.0234L29.9586 18.5625C30.4281 18.7577 30.9454 18.7644 31.3709 19.108C31.6262 19.3141 31.9649 19.274 32.2643 19.3318C32.5343 19.3768 32.7282 19.6992 33.0166 19.6545C33.2849 19.608 33.5679 19.4003 33.7782 19.7648C33.7956 19.7968 33.846 19.8014 33.8588 19.7722C34.1089 19.4803 34.3184 19.7431 34.5445 19.713C34.5958 19.7076 34.6644 19.8458 34.6974 19.8184C34.9163 19.6455 35.1084 19.8763 35.3016 19.762C35.5058 19.6385 35.699 19.6358 35.8885 19.6735C36.0487 19.6983 36.2006 19.8137 36.3709 19.8395C36.4807 19.8597 36.6052 19.9421 36.6968 19.717C36.7901 19.9184 36.9266 19.87 37.0474 19.881C37.5628 19.9079 38.0727 19.8834 38.5808 19.8791C38.6614 19.8865 38.7539 19.8747 38.8299 19.8207C39.0488 19.6478 39.2511 19.6561 39.4835 19.7789C39.6291 19.8532 39.8378 19.9027 39.9413 19.77C40.0659 19.6291 40.1767 19.6392 40.2993 19.6301C40.5877 19.5854 40.8816 19.592 41.1627 19.5162C41.485 19.434 41.787 19.685 42.0807 19.9149C42.2326 20.0304 42.3891 20.0955 42.4615 19.9701C42.5468 19.8154 42.6575 19.8256 42.7638 19.7743C42.892 19.7048 43.0046 19.5831 43.1392 19.5548C43.2738 19.5265 43.4303 19.5916 43.5713 19.6045C43.6317 19.61 43.7224 19.6183 43.738 19.5588C43.8461 19.2641 44.0631 19.3347 44.2398 19.2899C44.6674 19.1666 45.0968 19.0231 45.5336 18.9107C45.9603 18.7974 46.3284 18.5468 46.8228 18.5819C47.0763 18.5848 47.2678 18.3789 47.4574 18.1931C47.669 17.9891 47.9017 17.7768 48.2962 17.9043C48.4051 17.9346 48.4711 17.768 48.5929 17.769C48.7338 17.7819 48.6214 17.4568 48.8347 17.5677C48.9408 17.6282 49.0251 17.4836 49.1203 17.4415C49.4271 17.3071 49.6818 17.0766 49.9172 16.8341C50.1444 16.5705 50.3514 16.3052 50.6143 16.0957C50.7471 15.9758 50.9961 15.9173 50.8929 15.6033C50.8855 15.5721 50.9304 15.5255 50.9496 15.5374C50.9496 15.5374 50.9496 15.5374 50.9597 15.5383C50.9862 15.5814 51.0128 15.6244 51.0494 15.6684C51.0942 15.7334 50.7618 15.8147 51.0492 15.8918C50.5749 16.0819 51.4253 16.3323 50.9097 16.5288C50.8676 16.5453 50.8731 16.5966 50.9024 16.6094C51.198 16.7075 50.9956 16.8109 51.0569 16.918C51.1182 17.0251 51.3012 17.1333 51.2197 17.2477C51.1858 17.2852 51.2416 17.3411 51.1876 17.3767C50.9833 17.5002 50.9723 17.6211 51.1846 17.742C51.2139 17.7549 51.1992 17.8043 51.158 17.8107C50.9502 17.8627 51.0444 17.9424 51.038 18.0129C51.0251 18.1539 51.0314 18.3068 51.0286 18.4487C51.0331 18.6217 51.0028 18.7307 51.0027 18.8423C51.0137 18.9449 51.1134 19.0758 51.1133 19.1875C51.0701 19.4374 51.0059 19.6956 50.8831 19.928L50.9316 19.9528Z" fill="#B09151"/>
</g>
<defs>
<clipPath id="clip0_2211_169317">
<rect width="68" height="40" fill="white"/>
</clipPath>
<clipPath id="clip1_2211_169317">
<rect width="56.0314" height="24.5565" fill="white" transform="translate(3.79297 13.1833) rotate(-6.70178)"/>
</clipPath>
</defs>
</svg>
