<svg width="166" height="92" viewBox="0 0 166 92" fill="none" xmlns="http://www.w3.org/2000/svg">
<g clip-path="url(#clip0_2169_29896)">
<path d="M125.973 10.6828L33.0804 25.0675C18.3444 27.3494 8.24829 41.1452 10.5302 55.8812C12.8121 70.6173 26.6079 80.7133 41.344 78.4314L134.237 64.0468C148.973 61.7649 159.069 47.9691 156.787 33.233C154.505 18.497 140.709 8.40088 125.973 10.6828Z" fill="white"/>
<path d="M128.107 66.5338C126.298 67.0062 124.26 66.7854 122.199 67.1957C120.137 67.606 118.025 67.8825 115.925 68.1773C114.866 68.3312 113.88 68.5648 112.887 68.8805C111.921 69.1818 110.733 69.0218 109.86 69.5921C109.787 69.6438 109.583 69.6349 109.435 69.6579C106.915 70.0481 104.354 70.6269 101.868 70.7791C98.9718 70.9644 96.1829 71.5785 93.3496 71.9059C88.821 73.1131 84.1099 73.4682 79.4988 74.2733C78.0606 74.5264 76.6118 74.8418 75.0835 74.7749C73.7788 74.7138 72.2992 75.4186 70.9046 75.169C70.7898 75.1463 70.5482 75.285 70.3536 75.3353C69.8968 75.4567 69.4111 75.6533 68.9702 75.6811C66.2721 75.8358 66.282 75.8343 64.1035 76.4043C63.8413 76.4753 63.496 76.3365 63.1881 76.3741C61.9581 76.5342 60.7282 76.6943 59.5203 76.9319C58.4295 77.1413 57.2236 77.065 56.2518 77.6506C56.0383 77.7747 55.5517 77.7691 55.1959 77.8242C54.0397 78.0032 52.8789 78.1526 51.7371 78.3598C50.4289 78.6028 49.0543 78.6133 47.8164 79.1794C47.2776 79.4248 46.3915 79.1269 46.0807 79.2762C45.4842 79.5406 44.9171 79.6689 44.2998 79.7341C43.7023 79.7963 43.0932 79.7185 42.4988 79.8005C41.9849 79.8801 41.5016 80.1573 40.9338 80.2149C40.2389 80.3022 39.5167 80.3432 38.8173 80.4009C38.1102 80.4092 37.4214 80.4046 36.7791 80.504C36.4332 80.5576 36.0957 80.5998 35.7536 80.6123C35.4183 80.6035 35.0814 80.5848 34.7431 80.5562C34.0763 80.4976 33.4011 80.4504 32.738 80.3506C32.0407 80.2259 31.3502 80.0798 30.6597 79.9338C29.9624 79.809 29.3045 79.5466 28.6209 79.3792C27.5501 79.1302 26.7117 78.5516 25.8179 78.0728C24.9105 77.6365 23.7948 77.2932 23.1858 76.497C23.1599 76.4605 23.0534 76.4264 22.9865 76.3862C22.1002 75.8252 21.2724 75.1844 20.4377 74.5648C19.6616 73.8653 18.8337 73.2245 18.094 72.4991C15.4785 70.0505 13.2663 67.1347 11.7204 63.883C11.3432 62.9497 10.7143 62.0251 10.7688 61.0047C10.7762 60.791 10.547 60.4218 10.5155 60.1534C10.4687 59.6547 10.2166 59.2687 9.98435 58.8797C9.79008 58.4747 9.60569 58.0681 9.67059 57.5723C9.76627 56.6873 9.42408 55.8498 9.39965 54.9732C9.32874 53.9925 9.16736 53.0157 9.22645 52.0249C9.25239 51.3429 9.15751 50.7303 9.00793 50.1564C9.49305 49.4336 9.31483 48.3481 9.60899 47.5032C9.84871 46.9601 10.1429 46.1151 10.0854 45.6788C10.0472 45.4317 10.05 45.1884 10.0741 44.9519C10.1096 44.7238 10.1648 44.4926 10.2315 44.2698C10.3649 43.8241 10.5295 43.3838 10.6415 42.9313C10.7891 42.2507 11.1185 41.633 11.3627 40.9881C11.6167 40.3416 11.8282 39.6814 12.0495 39.0198C12.214 38.4479 12.6375 37.7852 13.0156 37.2207C13.3915 36.7072 13.8632 36.2901 14.2291 35.778C14.5487 35.2934 14.914 34.8422 15.258 34.3842C15.6004 33.9163 15.9101 33.4332 16.2038 32.9121C16.7922 32.0722 17.8636 31.4104 18.353 30.4543C18.4137 30.3234 18.6872 30.1293 18.8711 30.0097C19.3528 29.7226 19.792 29.4219 20.2296 29.1113C20.6802 28.8189 21.1231 28.4771 21.559 28.025C22.2486 27.2504 23.4981 26.8242 24.5026 26.2537C25.0452 25.9673 25.6251 25.7257 26.192 25.4659C26.7604 25.216 27.3175 24.9577 27.9188 24.8545C28.6622 24.6888 28.8736 24.0286 29.8362 24.1022C30.3601 24.1526 31.279 23.8788 32.0171 23.7442C32.7917 23.5838 33.5206 23.39 34.2163 23.3733C37.8838 23.2709 41.4821 22.3292 45.112 21.9188C46.653 21.7409 48.2018 21.157 49.731 21.4262C50.7501 20.8839 52.1248 21.0049 53.1226 20.5873C53.7504 20.3282 54.3251 20.2493 54.9279 20.156L66.823 18.2938C69.4273 17.8601 72.0163 17.3276 74.6176 16.8742C75.3473 16.7511 76.0611 16.59 76.8869 16.6949C77.4959 16.7726 78.5663 16.6271 79.3011 16.2097C79.4401 16.1275 79.7487 16.0291 79.8635 16.0518C81.43 16.3658 82.8152 15.5745 84.2649 15.3297C87.1147 14.848 89.9535 14.7524 92.7836 14.2737C93.3864 14.1804 94.1224 14.2283 94.5303 13.7907C95.0422 14.0251 95.375 13.8218 95.9267 13.5947C96.4982 13.3645 97.4636 13.1948 98.0134 13.2817C98.7616 13.4087 99.4001 13.2188 100.077 13.1443C100.803 13.0623 101.519 12.9209 102.241 12.8092C105.297 12.4169 108.353 12.0247 111.399 11.6339C111.995 11.5619 112.599 11.61 113.201 11.5774C113.804 11.5449 114.43 11.2759 115.041 11.495C115.276 11.58 115.865 11.3977 116.3 11.3303C117.812 11.0962 119.483 11.0398 120.799 10.5831C122.105 10.1279 123.595 10.2109 124.771 9.57335C125.108 9.39967 125.748 9.41197 126.283 9.33921C128.421 8.96761 130.628 9.23306 132.755 8.98464C133.502 9.36481 134.414 9.37532 135.272 9.55619C135.907 9.67037 136.591 9.96925 137.185 9.75578C137.253 9.73519 137.476 9.80187 137.605 9.85269C138.331 10.1652 138.929 10.5585 139.773 10.7819C140.456 11.0101 141.087 11.0338 141.823 11.3448C144.443 12.5784 146.601 14.4299 148.855 16.1756C149.243 16.915 149.9 17.5013 150.523 18.1233C151.532 19.2825 152.781 20.1617 153.586 21.5652C153.787 21.8881 153.989 22.211 154.183 22.5453L154.717 23.5758C155.075 24.2589 155.497 24.8918 155.838 25.5271C156.154 26.065 156.452 26.616 156.722 27.1814C156.982 27.7483 157.146 28.3503 157.338 28.9378C157.762 30.1067 157.923 31.3465 158.212 32.5566C158.378 33.1685 158.519 33.8853 158.259 34.4923C158.19 34.6345 158.295 35.3164 158.415 35.5003C158.688 35.8931 158.53 36.373 158.611 36.7652C158.718 37.3254 158.562 37.8859 158.454 38.4288C158.345 38.9718 158.195 39.5011 158.467 40.0863C158.39 40.6953 158.386 41.3233 158.246 41.9218L157.879 43.7393C157.782 44.3514 157.558 44.9325 157.397 45.5241C157.204 46.1105 157.066 46.7189 156.808 47.2749C156.576 47.8065 156.429 48.3556 155.993 48.8077C155.728 49.1219 155.266 49.9321 155.199 50.3473C155.123 50.8347 154.938 51.2781 154.721 51.7064C154.503 52.1247 154.186 52.4976 153.935 52.9008C153.204 54.1271 152.279 55.2114 151.378 56.3223C150.382 57.3367 149.411 58.3876 148.27 59.2525C147.337 60.0851 146.197 60.6359 145.144 61.2847C144.606 61.6008 144.049 61.9199 143.501 62.2375C142.954 62.5649 142.392 62.8544 141.757 62.9326C141.668 62.9463 141.555 63.0042 141.462 63.0591C141.034 63.2974 140.605 63.5967 140.155 63.7674C139.561 63.9809 138.662 63.9278 138.365 64.166C137.755 64.6046 137.237 64.523 136.7 64.5858C135.158 64.8245 134.131 64.3968 134.191 63.6083C134.204 63.4342 134.343 63.2204 134.52 63.0514C135.083 62.5088 135.347 62.2554 135.734 62.074C135.923 61.9841 136.144 61.9094 136.436 61.8339C136.725 61.7385 137.08 61.6127 137.56 61.4473C138.789 61.0849 139.965 60.6398 141.175 60.2197C142.327 59.6871 143.523 59.178 144.504 58.3278C144.906 58.1746 145.312 57.9902 145.681 57.761C146.036 57.5037 146.378 57.2281 146.709 56.9442C147.037 56.6504 147.391 56.3832 147.695 56.0629C148 55.7425 148.304 55.4221 148.623 55.1298C149.963 53.9105 151.367 52.5901 152.123 50.9349C152.513 50.1256 152.821 49.2989 153.237 48.526C153.61 47.7296 153.918 46.9128 154.27 46.1096C154.671 44.8433 155.271 43.627 155.53 42.2917L155.744 41.2567C155.791 40.9054 155.808 40.5587 155.845 40.209C155.878 39.5057 156.024 38.8152 156.05 38.1332C156.091 37.2869 156.434 36.3636 156.178 35.5633C155.892 34.6968 155.855 33.802 155.679 32.9286C155.484 32.0583 155.405 31.1597 155.049 30.3648C154.177 28.1319 153.304 25.8892 151.978 23.9289C151.178 22.9398 150.444 21.9301 149.592 20.9996C149.211 20.5628 148.889 20.1169 148.544 19.5934C148.197 19.0501 147.571 18.3376 146.793 18.0228C146.469 17.8908 146.011 17.6077 145.842 17.3707C145.671 17.1139 145.475 16.8913 145.269 16.6702C145.046 16.472 144.796 16.2982 144.546 16.1243C144.041 15.7979 143.523 15.4631 143.002 15.1694C142.33 14.818 141.727 14.1222 141.258 14.033C140.46 13.9136 139.852 13.5827 139.184 13.3218C138.718 13.1208 138.115 13.0826 137.777 12.6595C137.687 12.5417 137.206 12.3734 137.048 12.3979C136.13 12.4794 135.204 12.1876 134.294 11.9946C133.748 11.8667 133.192 11.8718 132.635 11.8062C132.083 11.7702 131.531 11.6636 130.976 11.6786C129.866 11.6987 128.752 11.6283 127.643 11.7799C127.183 11.8207 126.729 11.8911 126.286 11.9698C125.834 12.06 125.359 12.1942 124.899 12.2958C123.973 12.5202 123.045 12.7348 122.072 12.7943C120.967 13.3702 119.635 13.3943 118.39 13.5871C117.441 13.734 116.471 13.7426 115.51 13.8104C114.549 13.8782 113.633 14.1012 112.597 14.0794C111.328 14.0532 109.886 14.4789 108.507 14.6521C107.762 14.7471 106.966 15.093 106.236 14.8216C106.139 14.7859 105.795 14.8494 105.673 14.9088C104.755 15.4556 103.503 15.5382 102.609 15.5147C101.148 15.488 99.801 15.8079 98.4015 15.9841C97.2506 16.132 96.0921 16.362 94.9397 16.5C94.105 16.5989 93.3183 16.8118 92.4226 16.7784C91.7406 16.7525 90.8948 17.1061 90.1073 17.2483C89.3213 17.4004 88.5261 17.4931 87.7257 17.6171L82.5375 18.4205C81.5987 18.5659 80.6645 18.7409 79.7211 18.8566C78.8354 18.9533 77.9413 18.9298 77.0504 19.0577C74.5722 19.3908 72.2069 20.1922 69.6921 20.4197C69.0645 20.8104 68.3802 20.7039 67.6693 20.7532C67.0193 20.8033 66.2401 20.8025 65.6322 21.1901C65.4666 21.2967 65.1176 21.3305 64.8539 21.3916C64.2572 21.5245 63.702 21.3372 63.0211 21.645C62.54 21.8713 61.7463 21.8424 61.1085 21.9716C60.4312 22.1068 59.6397 22.027 59.1216 22.4715C57.8531 22.1215 56.8437 23.1177 55.6195 23.0543C55.2318 23.0334 54.822 23.0665 54.4191 23.0783C54.2168 23.0792 53.9887 23.0437 53.8253 23.0994C50.7479 24.0718 47.4552 24.1769 44.3044 24.8064C43.9122 24.8874 43.552 25.0444 43.1742 25.1535C42.9895 25.2023 42.785 25.2542 42.5927 25.2537C40.8228 25.3253 40.8243 25.3352 39.2228 25.7755C38.8253 25.8876 38.373 25.9071 37.9526 26.0025C36.8649 26.2317 35.7724 26.2997 34.6712 26.7029C33.5258 27.0827 32.3586 26.9295 31.2038 26.9869C30.1904 27.0426 29.1984 27.2367 28.1488 27.5814C25.5671 28.6187 23.131 30.0078 20.975 31.7685C20.7061 31.9923 20.2889 32.239 20.2078 32.4337C19.8337 33.2202 19.6132 33.9526 18.5785 34.0015C18.5291 34.0092 18.3278 34.2124 18.3089 34.2861C18.134 35.0519 17.4747 35.6296 16.9666 36.2042C15.151 38.5294 14.2232 41.2939 13.1697 43.9666C13.0052 44.407 12.9207 45.0373 12.7126 45.2618C12.2614 45.7466 12.699 46.1544 12.4866 46.6123C12.3159 47.0131 12.3545 47.6548 12.1716 47.9766C11.9016 48.5851 11.754 49.2657 11.6854 49.934C11.5873 50.607 11.7324 51.2827 11.7748 51.8833C11.8504 53.0252 12.2089 54.1637 12.146 55.1955C12.1409 56.2082 12.3464 57.2086 12.5489 58.1891C12.8684 59.1415 13.1218 60.1243 13.5172 61.0446C13.9173 61.9945 14.2809 62.9704 14.8315 63.8465C15.0927 64.2917 15.3175 64.7629 15.6068 65.1937L16.5014 66.4617C16.9552 67.1706 17.4691 67.941 18.2427 68.2969C18.4047 68.3628 18.5982 68.6972 18.7702 68.8932C19.1789 69.3763 19.5163 69.9211 19.9698 70.3669C20.415 70.8242 21.0387 71.0616 21.5492 71.4176C21.9768 71.6955 22.3063 72.0593 22.8691 72.1645C23.2675 72.2545 23.7538 72.7156 24.1459 73.2215C24.5447 73.7062 25.018 74.149 25.5324 74.5955C26.04 75.0634 26.679 75.3995 27.419 75.6695L28.3979 76.0441C28.7287 76.1548 29.0679 76.254 29.3987 76.3647C30.0756 76.5533 30.7266 76.8371 31.4292 76.9306C32.0018 77.0342 32.5509 77.182 33.188 77.1137C33.7642 77.0447 34.685 77.1753 35.3634 77.3738C36.4235 77.6853 37.4369 77.6295 38.4783 77.4278C38.8363 77.3218 39.2628 77.2658 39.6611 77.2244C40.8494 77.1213 42.1242 76.9239 43.3876 76.7182L47.1725 76.1321C47.7852 76.0372 48.4168 75.8686 48.9537 76.0687C49.3084 75.6799 49.9577 75.6907 50.4944 75.6278C51.3109 75.5418 52.1328 75.5562 52.9477 75.4604C53.9207 75.3401 54.855 75.165 55.7829 74.819C56.6433 74.4935 57.758 74.6346 58.6737 74.2094C58.8439 74.1325 59.2485 74.2621 59.5123 74.201C60.5985 73.9619 61.8318 74.0847 62.7694 73.474C62.8522 73.4207 63.0795 73.3855 63.1845 73.4097C64.5198 73.6684 65.7114 73.1297 66.9397 72.8282C68.2836 72.4886 69.577 72.6728 70.9095 72.4563C72.42 72.2123 73.9797 71.8291 75.4402 71.7851C77.9681 71.7074 80.4058 71.1781 82.8809 70.8252C85.407 70.4745 87.9353 70.0728 90.4507 69.653C91.5461 69.4732 92.6071 69.1369 93.6995 68.9374C94.9187 68.7081 96.1503 68.5579 97.3757 68.3681L100.834 67.8325C101.379 67.7582 101.953 67.5379 102.471 67.7511C102.579 67.7951 102.908 67.7643 103.039 67.6935C103.98 67.2341 104.932 67.107 105.982 67.2276C106.281 67.2623 106.684 67.1189 107.038 67.1148C108.003 67.0766 108.772 66.6843 109.639 66.469C110.438 66.2645 111.391 66.4103 112.047 65.8736C112.136 65.7991 112.532 65.7378 112.669 65.7772C114.39 66.2393 116.055 64.7673 117.768 65.18C118.348 64.6753 119.082 65.0373 119.586 64.8984C120.314 64.6947 121.008 64.4758 121.771 64.3678C122.492 64.2561 123.218 64.1741 123.935 64.0327C125.242 63.7798 126.605 63.761 127.867 63.2214C128.285 63.0454 129.103 62.8378 129.687 63.0813C129.795 63.1253 130.08 63.071 130.265 63.0222C131.688 62.6703 133.502 62.7536 133.95 63.2915C134.211 63.6052 134.257 64.0332 134.144 64.415C134.092 64.6051 133.477 64.8118 133.101 65.0014C132.445 65.3358 131.84 65.7432 131.103 65.9484C130.23 66.1949 129.239 66.2673 128.073 66.4479L128.107 66.5338Z" fill="#CDBB92"/>
<path d="M34.498 73.4204L24.8899 79.2696L18.5885 82.9472C14.7284 85.2045 10.8826 82.5214 11.6781 78.1178L12.9741 70.9349L18.369 60.7493" fill="white"/>
<path d="M34.5386 75.1749C34.4218 75.4662 33.9175 75.1496 33.7208 75.3825C33.5226 75.6054 33.2451 75.7091 32.9921 75.8393C32.8614 75.9102 32.7924 76.0524 32.7523 76.2509C32.7122 76.4494 32.4071 76.2436 32.5139 76.6723C32.5201 76.7119 32.4874 76.6967 32.4691 76.7096C32.1728 76.8871 31.9618 77.2233 31.5542 77.2055C31.0859 77.1869 30.8467 77.5377 30.4591 77.6483C30.1823 78.4096 29.4456 78.4225 28.9412 78.8244C28.7885 78.9492 28.6663 79.1402 28.3377 78.9786C28.0532 78.8405 28.113 79.3574 27.7219 79.0537C27.6877 79.0286 27.7144 79.1358 27.6992 79.1685C27.6704 79.2438 27.6721 79.3852 27.5998 79.3762C27.1596 79.3432 27.1596 79.3432 27.0124 79.6999C26.9988 79.7425 26.8557 79.6027 26.8177 79.6187C26.6657 79.6827 26.5039 79.7483 26.3808 79.8685C26.276 79.9758 26.0014 79.8362 26.1014 80.2862C26.1167 80.385 26.03 80.3478 25.9837 80.3753C25.8446 80.4575 25.7025 80.52 25.5779 80.6303C25.445 80.7521 25.1811 80.6817 25.2127 81.0816C25.2303 81.261 24.9084 80.9465 24.9237 81.0453C24.933 81.2362 24.8943 81.313 24.8054 81.3268C24.7165 81.3405 24.5582 81.2335 24.4936 81.2739C24.4275 81.3043 24.4695 81.5103 24.4164 81.559C24.2834 81.6808 24.0211 81.6203 23.9886 81.8681C23.9494 82.1373 23.773 82.1747 23.6386 82.2866C23.4942 82.4001 23.3179 82.4375 23.1865 82.5691C23.0915 82.6749 22.8839 82.5755 22.7295 82.559C22.5653 82.5439 22.596 82.8731 22.2741 82.5586C22.2612 82.5404 22.2543 82.5617 22.2445 82.5632C21.9723 82.6357 21.6827 82.6603 21.438 82.7792C21.0147 82.9864 20.6303 83.2483 20.2283 83.4624C20.1158 83.5202 20.0659 83.7202 19.7843 83.4704C19.7257 83.4187 19.7342 83.5389 19.6787 83.507C19.4695 83.3977 19.7202 84.0369 19.4547 83.825C19.2135 83.6397 19.203 83.8336 19.0761 83.8634C18.9309 83.9061 18.8147 84.0051 18.6711 84.0577C18.5753 84.0927 18.5184 84.1825 18.5224 84.4045C18.2613 84.0908 18.2167 84.3911 18.0144 84.2605C17.8888 84.1687 17.7268 84.1027 17.7103 84.257C17.6718 84.5969 17.4969 84.5127 17.3646 84.5737C17.1678 84.675 16.932 84.5901 16.7605 84.9202C16.6915 85.0624 16.5508 85.0033 16.4344 84.9707C16.3295 84.9465 16.2145 84.7922 16.1111 84.7779C15.9256 84.756 15.7492 84.7935 15.5464 84.9868C15.3619 85.1671 15.1988 84.7674 14.9802 85.1858C14.9483 85.2413 14.8943 85.2193 14.8669 85.1729C14.7017 84.9557 14.58 84.8227 14.3049 85.007C14.0762 85.1638 13.9095 84.9367 13.7262 84.8639C13.5315 84.7827 13.2798 84.7913 13.1458 84.5793C13.0651 84.4502 12.7211 84.9082 12.7618 84.5174C12.7905 84.3105 12.5883 84.3115 12.4924 84.215C12.3965 84.1186 12.2307 84.0936 12.188 83.9485C11.9797 83.1914 11.3134 82.9404 11.0908 82.2868C11.0214 82.0345 10.5856 81.8996 10.9554 81.478C10.5251 81.4434 10.7772 81.1109 10.479 81.0154C10.2858 80.9442 10.2804 80.8438 10.2438 80.7382C10.1705 80.3954 10.1268 80.0479 10.0831 79.7005C10.0805 79.3569 10.068 79.0148 10.0768 78.6795C10.1015 78.2507 10.012 77.7383 10.0338 77.4212C10.0382 77.3194 10.0016 77.2137 10.2654 77.1526C10.4501 77.1038 10.4895 76.9662 10.2118 76.8068C10.1563 76.7749 10.1175 76.7202 10.157 76.7141C10.7286 76.6154 10.206 76.3118 10.2149 76.1081C10.2457 75.7188 10.6522 75.4028 10.683 75.0135C10.6905 74.9314 10.8721 74.8628 10.5185 74.7354C10.8309 74.7275 10.6986 74.657 10.5715 74.5552C10.4444 74.4534 10.4542 74.3204 10.6389 74.2715C10.8943 74.2219 10.8265 74.1109 10.8637 74.0242C10.9108 73.936 10.8939 73.8273 10.9197 73.7322C11.0607 73.336 11.2116 72.9382 11.3739 72.5488C11.4027 72.4735 11.5563 72.4193 11.636 72.3463C11.7158 72.2732 11.556 72.1563 11.8768 72.137C11.9969 72.1285 11.9307 72.0274 11.9329 71.9765C11.9715 71.7681 12.207 71.59 11.9894 71.3606C11.8805 71.2459 11.9177 71.1592 11.9237 71.0672C11.9281 70.9653 11.9234 70.8041 11.7301 70.6013C11.6829 70.558 11.6852 70.5071 11.7087 70.463C11.7504 70.4059 11.8234 70.3541 11.834 70.2918C11.8582 70.1869 11.9303 70.0644 11.9804 69.9959L12.1171 69.8331C12.2006 69.7189 12.24 69.5813 12.0816 69.3427C12.4033 69.3941 12.4032 69.2626 12.4373 69.1561C12.4646 69.0709 12.6569 69.0715 12.3898 68.8497C12.3556 68.8247 12.3708 68.792 12.3905 68.7889C12.5144 68.7394 12.7509 68.7635 12.7409 68.6335C12.7339 68.5232 12.5863 68.3538 12.6333 68.2656C12.8162 67.9438 13.3422 67.8118 13.3715 67.4126C13.6619 67.4587 13.6717 67.3256 13.7385 67.2343C13.844 67.0662 13.6308 66.7349 13.8002 66.5873C13.9613 66.451 14.1421 66.3117 14.0628 66.0609C13.9247 65.6269 14.2492 65.435 14.3432 65.127C14.3704 65.0418 14.3095 64.9096 14.6274 65.002C14.7011 65.021 14.717 64.9274 14.6356 64.8591C14.4712 64.7125 14.6142 64.7207 14.5723 64.6463C14.4451 64.413 15.2672 64.6904 14.7772 64.2705L14.9957 63.8521C15.0648 63.7099 15.1338 63.5676 15.2242 63.4322C15.2659 63.3751 15.2408 63.2778 15.4689 63.3134C15.6248 63.3398 15.7113 63.2455 15.6139 63.1391C15.3818 62.8816 15.5665 62.8328 15.6105 62.7248C15.7607 62.3878 15.9238 62.0691 16.128 61.7541C16.2184 61.6187 16.4084 61.5387 16.5444 61.4367C16.6902 61.3331 16.5584 61.0702 16.9036 61.0775C16.9234 61.0744 16.9203 61.0546 16.9188 61.0448C16.9066 60.9657 16.8502 60.8631 16.8836 60.8175C16.9451 60.7573 17.2439 60.792 17.1579 60.694C16.9859 60.498 17.2498 60.5685 17.303 60.5198C17.4625 60.3737 18.0785 60.5616 18.7449 60.9441C18.8902 61.0329 19.0469 61.1301 19.1413 61.2167C19.7827 61.765 19.75 61.7498 19.6515 62.0282C19.534 62.3803 18.9426 62.482 18.9247 62.8895C18.4313 62.9052 18.567 63.2586 18.3627 63.442C18.1583 63.6255 17.7235 63.6928 17.8265 64.031C17.9294 64.3693 17.7677 64.5663 17.6387 64.7786C17.543 64.9452 17.3135 65.0313 17.1852 65.1827C17.0568 65.3342 17.0624 65.566 16.8785 65.6856C16.7577 65.7549 16.4634 65.7499 16.5503 65.9186C16.7514 66.3023 16.3591 66.3833 16.4066 66.6896C16.4709 67.1047 16.1624 67.3346 16.1582 67.6995C16.1493 67.9033 16.1601 68.104 16.063 68.2607C16.0227 68.3277 15.9939 68.403 15.8016 68.4024C15.6092 68.4018 15.5455 68.5129 15.7008 68.7317C15.7655 68.8229 15.7907 68.9202 15.6987 68.9142C15.3109 68.8933 15.356 69.119 15.2885 69.2711C15.2429 69.3693 14.8916 69.3225 14.9807 69.4402C15.1345 69.6492 14.9977 69.6805 14.9734 69.7854C14.9545 69.8592 15.0139 69.9815 14.7173 69.8959C14.6337 69.8785 14.579 69.9173 14.6391 69.9788C14.9367 70.2667 14.6896 70.305 14.6472 70.4228C14.5288 70.7043 14.3641 71.0131 14.2184 71.2482C14.1918 71.2725 14.2306 71.3272 14.2679 71.3721C14.3623 71.4586 14.4954 71.4684 14.3549 71.6723C14.714 71.9 14.5134 72.0424 14.4786 72.2097C14.4476 72.3359 14.2918 72.441 14.1984 72.5566C14.0951 72.6738 14.1462 72.8076 13.9494 72.9089C13.7062 73.0376 13.863 73.2663 13.7902 73.4496C13.7546 73.5462 13.9501 73.6981 13.5586 73.7182C13.5092 73.7259 13.5054 73.7669 13.5511 73.8003C13.917 74.0068 13.7772 74.1499 13.6085 74.2367C13.3274 74.3814 13.4105 74.5912 13.3361 74.7646C13.2785 74.9152 13.3045 75.0832 13.2355 75.2254C13.1915 75.3334 13.2509 75.4558 13.0624 75.5457C12.9203 75.6082 13.1075 75.7714 13.1145 75.8817C13.1214 75.9919 13.0873 76.0984 13.0631 76.2033L12.9965 76.5577L12.93 76.9121C12.9088 77.0368 12.9089 77.1683 12.8566 77.2877C12.8027 77.3972 12.6241 77.4856 12.5817 77.6035C12.4793 77.9229 12.8295 78.3544 12.6526 78.5842C12.9226 78.6942 12.7166 78.7362 12.6482 78.8176C12.5883 78.8876 12.4492 78.9699 12.7557 79.054C12.8393 79.0714 12.8257 79.1139 12.8402 79.1421C12.8904 79.2051 12.6069 79.2693 12.8099 79.339C12.959 79.3868 12.8101 79.4705 12.8421 79.5465C12.8725 79.6126 12.6856 79.7124 13.062 79.725C12.5467 79.9262 13.3739 79.9094 13.1436 80.0564C13.0806 80.1066 13.0571 80.1507 13.0237 80.1964C13.007 80.2192 12.9424 80.2596 12.9735 80.2649C13.5127 80.4141 13.2599 80.8074 13.5323 80.998C13.565 81.0132 13.6722 80.9865 13.733 80.9872C13.7627 80.9826 13.7741 80.9909 13.7688 81.0221C13.674 81.2594 13.7052 81.2647 13.9423 81.228C14.0016 81.2188 13.9895 81.2713 14.0321 81.2849C14.1173 81.3122 14.1357 81.4308 14.3393 81.3082C14.5414 81.1757 14.3395 81.5712 14.3489 81.762C14.3353 81.9362 14.3363 82.1384 14.4344 82.1839C14.5705 82.2134 14.6983 82.2544 14.8193 82.3166L15.2193 82.4166C15.2193 82.4166 15.2855 82.5176 15.3211 82.421C15.4622 82.0248 15.5227 81.7624 15.5477 82.4466C15.5523 82.4763 15.5835 82.4816 15.5873 82.4405C15.6743 82.0223 15.7391 82.245 15.8197 82.2426C15.9627 82.2508 16.0987 82.1488 16.2232 82.0385C16.3463 81.9182 16.4625 81.8193 16.623 81.8754C16.677 81.8974 16.7065 81.7613 16.7758 81.8821C16.9274 82.1419 16.806 81.6851 16.8791 81.7649C16.9506 81.8348 16.9527 81.6523 17.0273 81.7419C17.3174 82.1119 17.4152 81.8944 17.4683 81.7141C17.5213 81.5339 17.5447 81.3582 17.7364 81.4196C18.1265 81.5211 18.3201 81.2685 18.5747 81.1481C18.849 81.0247 19.099 80.8747 19.3345 80.6965C19.4356 80.6303 19.6303 80.7115 19.541 80.3306C19.5287 80.2516 19.5911 80.2622 19.642 80.2644C19.7553 80.2772 19.909 80.3546 19.9834 80.3127C20.0579 80.2708 20.06 80.0884 20.1055 79.9902C20.1442 79.9134 20.2263 79.9209 20.1927 79.7035C20.1682 79.5454 20.3089 79.6046 20.49 79.7283C20.8438 79.9872 21.1975 80.2461 21.3525 80.0704C21.4907 79.9174 21.6967 79.8754 21.8494 79.7506C21.9124 79.7003 22.0014 79.6865 21.9791 79.4775C21.9599 79.2882 22.1112 79.285 22.2618 79.3426C22.4892 79.439 22.6329 79.3864 22.6425 79.1218C22.6485 79.0298 22.7047 79.0008 22.7511 78.9734L23.6416 78.451C23.7161 78.4091 23.7502 78.3026 23.9549 78.5138C23.8352 78.1984 23.9645 78.2492 24.0337 78.2385C24.1523 78.2201 24.3143 78.2861 24.4298 78.248C24.5553 78.2083 24.6517 78.1124 24.6659 77.8775C24.6718 77.654 24.9525 77.8331 24.9264 77.5336C24.9172 77.4743 25.0603 77.614 25.0853 77.5798C25.1757 77.4444 25.4761 77.6205 25.3548 77.1637C25.3487 77.1241 25.3768 77.1097 25.4012 77.1362C25.7824 77.4415 25.7523 77.0515 25.835 76.8667C25.9245 76.6606 26.2638 76.8913 26.4196 76.7863C26.5936 76.6683 26.6998 76.4393 26.9606 76.49C27.41 76.5823 27.6158 76.2772 27.9266 76.1279C28.2374 75.9786 28.5322 75.7913 28.8141 75.5857C28.9318 75.4966 28.9788 75.2769 29.0836 75.1696C29.2066 75.0493 29.3685 74.9838 29.5075 74.9015C29.6466 74.8193 29.7742 74.7287 29.9148 74.6563C29.9809 74.6258 29.9861 74.4631 30.1809 74.6758C30.2182 74.7206 30.2676 74.713 30.26 74.6636C30.208 74.3276 30.3318 74.278 30.6012 74.4488C30.6795 74.4974 30.6855 74.4054 30.7479 74.416C30.9152 74.4508 30.8692 74.1544 30.9299 74.0235C30.9823 73.9041 31.2417 74.0764 31.0968 73.6637C31.0877 73.6045 31.1241 73.5786 31.1698 73.612C31.7329 74.1117 31.3318 72.9595 31.8577 73.4144C31.7159 73.0215 32.0439 73.3754 32.0696 73.2804C32.1106 73.1526 32.1386 73.0066 32.2328 72.9616C32.3171 72.9182 32.4129 72.8832 32.4812 72.8017C32.6111 72.6602 32.8651 72.7322 32.8366 72.3521C32.8266 72.2221 32.8888 72.1011 33.1194 72.3487C33.1567 72.3936 33.1932 72.3677 33.1985 72.3365C33.2979 72.1288 33.6904 72.3109 34.0482 72.7918C34.2537 73.0737 34.4731 73.4445 34.6437 73.7621C34.729 73.921 34.7109 74.0654 34.7323 74.2038C34.769 74.441 34.8591 74.7609 34.8181 74.8887C34.7719 75.0477 34.6092 75.0425 34.48 75.1232L34.5386 75.1749Z" fill="#CDBB92"/>
</g>
<defs>
<clipPath id="clip0_2169_29896">
<rect width="156" height="62" fill="white" transform="translate(1 27) rotate(-8.80246)"/>
</clipPath>
</defs>
</svg>
