<svg width="70" height="54" viewBox="0 0 70 54" fill="none" xmlns="http://www.w3.org/2000/svg">
<g clip-path="url(#clip0_2211_169314)">
<g clip-path="url(#clip1_2211_169314)">
<path d="M63.6223 35.5545C63.5045 35.3099 63.2866 35.2231 63.418 35.0279C63.4381 34.9974 63.4524 34.9677 63.4674 34.9434C63.3685 34.809 63.362 34.8041 63.3815 34.7176C63.4225 34.5611 63.399 34.4121 63.2865 34.2624C63.2234 34.1799 63.04 34.0835 63.1772 33.9382C63.1772 33.9382 63.172 33.8938 63.1583 33.8786C63.0601 33.7497 62.9625 33.6263 62.8487 33.5161C62.8149 33.4807 62.7434 33.4273 62.7466 33.4045C62.7615 33.2286 62.6048 33.1571 62.5209 33.049C62.3843 32.8965 62.2373 32.7564 62.0858 32.6282C61.9537 32.5145 61.7833 32.4783 61.7306 32.2823C61.728 32.2601 61.6766 32.2268 61.6454 32.2136C61.557 32.1678 61.4731 32.1103 61.3742 32.0769C61.2877 32.0478 61.211 31.8995 61.1108 31.8551C61.0172 31.8155 60.9528 31.7219 60.8793 31.7025C60.7752 31.6754 60.7882 31.584 60.7193 31.5528C60.582 31.4958 60.4351 31.4569 60.3082 31.3876C60.1756 31.3189 60.0058 31.3388 59.8998 31.194C59.8926 31.1836 59.8179 31.2036 59.7827 31.2077C59.7418 31.2125 59.708 31.2278 59.6683 31.2436C59.5389 31.1521 59.4159 31.0654 59.3242 30.9919C59.3008 30.8936 59.28 30.8174 59.265 30.7405C59.306 30.7356 59.386 30.7094 59.3274 30.6657C59.2351 30.5867 59.3482 30.5397 59.3053 30.4773L59.395 30.433C59.3684 30.4081 59.3541 30.3873 59.3209 30.3575C59.3618 30.3021 59.408 30.2405 59.4535 30.1733C59.3995 30.1685 59.3631 30.1615 59.3332 30.1594C59.2864 30.2155 59.2493 30.1524 59.2116 30.1344C59.1524 30.1863 59.118 30.1454 59.1056 30.0906C59.0659 29.9548 58.9768 29.853 58.8389 29.7905C58.8077 29.7773 58.7817 29.7579 58.7687 29.7482C58.7836 29.5723 58.595 29.5832 58.5235 29.4792C58.5202 29.4515 58.5566 29.4079 58.4792 29.3552C58.4272 29.3164 58.3049 29.2858 58.3342 29.1812C58.3465 29.1349 58.2886 29.0967 58.2386 29.0745C58.1013 29.0176 57.983 28.9191 57.8145 28.8996C57.7482 28.8905 57.6786 28.8032 57.6129 28.7491C57.5355 28.6964 57.4588 28.6493 57.3814 28.5966L57.3105 28.6498C57.3105 28.6498 57.2929 28.6519 57.2871 28.6526C57.2396 28.7031 57.1817 28.7155 57.1661 28.6837C57.1167 28.5659 57.0341 28.57 56.9307 28.599C56.9073 28.6017 56.8832 28.5989 56.8585 28.5906C56.7102 28.5406 56.5619 28.4906 56.4143 28.4461C56.3831 28.433 56.3389 28.4101 56.3161 28.4184C56.1763 28.491 56.0631 28.3863 55.9643 28.353C55.8882 28.3619 55.803 28.3944 55.777 28.375C55.6391 28.2619 55.4479 28.4024 55.3191 28.2658C55.1084 28.2906 54.9088 28.2579 54.7462 28.1871C54.6961 28.2154 54.6733 28.2237 54.6512 28.2376C54.6337 28.1891 54.6025 28.1759 54.5374 28.1779C54.4256 28.1854 54.3072 28.1881 54.2012 28.1949C54.0711 28.199 53.9229 28.1996 53.8026 28.2867C53.7154 28.3531 53.5886 28.3849 53.4807 28.3246C53.3857 28.2739 53.3799 28.3757 53.32 28.3715C53.2303 28.3652 53.3285 28.2413 53.203 28.2336C53.0709 28.221 53.0423 28.0783 52.9552 27.993C52.9831 27.8268 52.8413 27.7311 52.7509 27.6181C52.7346 27.6313 52.7229 27.6327 52.7119 27.6396C52.7106 27.6285 52.7086 27.6119 52.7086 27.6119C52.7203 27.6105 52.732 27.6091 52.7437 27.6078C52.7405 27.58 52.7379 27.5579 52.7301 27.5419C52.6813 27.4803 52.6416 27.395 52.5792 27.3687C52.5044 27.3381 52.4016 27.3727 52.3145 27.338C52.2677 27.4446 52.1565 27.4071 52.1096 27.362C52.016 27.2719 51.897 27.269 51.791 27.2253C51.7285 27.1989 51.6635 27.201 51.6206 27.1386C51.5646 27.0665 51.4391 27.0588 51.3676 27.0054C51.2635 26.9277 51.1829 26.9484 51.0853 26.9768C51.0736 26.9781 51.0443 26.9816 51.0378 26.9767C50.9923 26.8922 50.8954 26.926 50.8564 26.9475C50.7172 27.0256 50.5976 26.9667 50.4786 26.9132C50.4597 26.9042 50.4467 26.8945 50.4285 26.891C50.329 26.9027 50.2327 26.8915 50.1586 26.816C50.1319 26.791 50.0675 26.7986 50.0201 26.7985C49.944 26.8075 49.8523 26.7846 49.7872 26.8371C49.7762 26.8441 49.7274 26.8329 49.7073 26.8128C49.6279 26.7435 49.5356 26.715 49.4608 26.7856C49.3593 26.8818 49.2494 26.8554 49.1356 26.8463C49.0277 26.8365 48.923 26.8039 48.8196 26.7823C48.7649 26.873 48.7155 26.9575 48.6661 27.0419C48.5783 27.0017 48.4899 27.0064 48.4112 26.9427C48.3325 26.8789 48.2024 26.9335 48.0997 26.9175C47.9007 26.8903 47.7153 26.9289 47.5807 27.0459C47.4513 27.1566 47.307 27.1398 47.1216 27.1785C47.1671 27.1113 47.1931 27.0802 47.2126 27.0442C47.1723 27.004 47.0514 27.035 47.0741 26.9256C47.0767 26.8972 47.0409 26.8452 47.0039 26.8327C46.8666 26.7758 46.8569 26.6421 46.8094 26.541C46.7781 26.4772 46.6832 26.4266 46.7378 26.3359C46.6396 26.3081 46.7274 26.2472 46.704 26.1994C46.6643 26.1142 46.6174 26.0186 46.6194 25.9341C46.6181 25.8219 46.6115 25.7159 46.5998 25.6161C46.3208 25.5141 46.0425 25.5693 45.77 25.6237C45.6484 25.6493 45.5424 25.7067 45.4169 25.6484C45.4095 25.5856 45.343 25.4904 45.2172 25.3628C45.0826 25.3787 44.9564 25.416 44.8225 25.3868C44.7373 25.3687 44.6488 25.3735 44.5688 25.3491C44.4466 25.3186 44.4089 25.4017 44.3627 25.4633C44.1715 25.452 43.979 25.3791 43.7904 25.4406C43.7273 25.4593 43.674 25.5105 43.6142 25.5063C43.3996 25.4978 43.1986 25.5551 42.9938 25.5792C42.8826 25.5922 42.7772 25.6046 42.6693 25.6454C42.5548 25.6813 42.4319 25.6958 42.3545 25.7947C42.1627 25.7779 41.9689 25.7445 41.7888 25.8275C41.766 25.8358 41.7361 25.8337 41.7185 25.8358C41.6385 25.8114 41.6073 25.8488 41.5729 25.9091C41.5482 25.9513 41.4974 25.9741 41.4415 25.9526C41.3914 25.9304 41.3459 25.8964 41.3004 25.8624C41.3914 25.7787 41.2678 25.7876 41.2451 25.7453C41.1943 25.667 41.0708 25.6253 41.1215 25.5014C41.1533 25.419 41.1143 25.3393 41.0649 25.2721C41.0428 25.2354 40.9875 25.2194 40.9302 25.1868C40.994 25.1737 41.0226 25.1647 41.0512 25.1557C41.0323 25.0961 40.845 25.1182 40.9549 24.9929C40.9549 24.9929 40.9094 24.9083 40.8405 24.9277C40.7995 24.9325 40.7618 24.965 40.726 24.9636C40.6298 24.9524 40.5556 24.978 40.4724 25.0271C40.4009 25.0748 40.2773 25.1343 40.1966 25.0033C40.1895 24.9929 40.1635 24.9735 40.1635 24.9735C39.9977 25.0773 39.8897 24.9664 39.7629 24.897C39.744 24.888 39.7147 24.8914 39.6848 24.8893L39.5053 24.8767C39.4156 24.8704 39.3382 24.8682 39.3024 24.9679C39.2842 25.015 39.1984 25.042 39.1548 25.0246C39.0235 24.967 38.8849 25.0001 38.7581 24.9813C38.5767 24.9521 38.4135 24.9769 38.2808 25.1105C38.2171 25.1741 38.1494 25.154 38.089 25.0937C38.0486 25.1546 38.0142 25.2148 37.9745 25.2813C37.931 25.2639 37.8854 25.23 37.8685 25.2376C37.7853 25.2867 37.678 25.2824 37.6 25.3253C37.4276 25.4242 37.2455 25.44 37.0654 25.4218C37.0173 25.4162 36.975 25.41 36.9295 25.4266C36.7565 25.4694 36.577 25.4567 36.4053 25.5106C36.3481 25.5286 36.2779 25.4863 36.207 25.489C36.1062 25.4896 36.0119 25.4951 35.9124 25.5067C35.807 25.5191 35.7036 25.5481 35.6022 25.5432C35.3889 25.5458 35.1665 25.5719 34.9623 25.5004C34.8257 25.449 34.6748 25.478 34.548 25.4086C34.4595 25.3628 34.3665 25.3288 34.2852 25.2934C34.2833 25.2768 34.3034 25.2463 34.2956 25.2304C34.1825 25.0752 33.9756 25.0321 33.8313 24.9142C33.8176 24.8989 33.7714 24.91 33.7643 24.8996C33.7467 24.8511 33.7402 24.7957 33.8013 24.7604C33.8013 24.7604 33.8 24.7493 33.7935 24.7445C33.6693 24.6973 33.6693 24.6973 33.5893 24.5213C33.588 24.5102 33.5587 24.5136 33.5457 24.5039C33.4989 24.4588 33.4566 24.402 33.4046 24.3632C33.3395 24.3146 33.2706 24.2834 33.1815 24.2321C33.1451 24.2757 33.0983 24.3318 33.0618 24.3754C32.909 24.3877 32.7712 24.3758 32.6476 24.4353C32.6027 24.4574 32.5279 24.4269 32.4876 24.4878C32.431 24.4607 32.3797 24.4274 32.3237 24.4059C32.2073 24.3746 32.1013 24.3309 31.9732 24.4022C31.89 24.4513 31.7723 24.4595 31.6676 24.4774C31.516 24.5008 31.3678 24.5519 31.2319 24.6072C31.1194 24.6598 31.001 24.713 30.8807 24.7496C30.7487 24.7876 30.6076 24.7986 30.4684 24.8262C30.4392 24.8296 30.406 24.8504 30.391 24.8746C30.354 24.9127 30.3208 24.9334 30.2616 24.9347C30.2265 24.9389 30.1738 24.9451 30.1537 24.9755C30.0009 25.1395 29.7895 25.1082 29.5951 25.1198C29.5366 25.1267 29.4592 25.074 29.4065 25.0296C29.3863 25.0095 29.4091 24.9506 29.4097 24.9056C29.3336 24.9146 29.2875 24.9762 29.2114 24.884C29.1287 24.787 29.078 24.6581 28.9349 24.6019C28.9616 24.5763 28.972 24.5638 28.9824 24.5513C28.8757 24.5021 28.7684 24.4473 28.6494 24.3938C28.7001 24.371 28.7404 24.3607 28.7502 24.3427C28.7599 24.3247 28.7437 24.2872 28.7177 24.2678C28.6975 24.2477 28.6559 24.247 28.6305 24.2331C28.5726 24.195 28.4907 24.154 28.4783 24.0993C28.449 24.0016 28.3638 23.9835 28.2975 23.9239C28.2214 23.9834 28.1909 24.0769 28.0816 24.056C27.9971 24.1446 27.8592 24.0822 27.7708 24.1375C27.6992 24.1852 27.6206 24.172 27.5594 24.2073C27.4807 24.2446 27.4092 24.1407 27.3416 24.2217C26.9956 24.2061 26.9429 24.2123 26.6509 24.3028C26.4955 24.3435 26.3577 24.3822 26.1795 24.4312C26.1795 24.4312 26.1541 24.4679 26.1281 24.4991C26.0826 24.5662 26.0605 24.6812 25.9207 24.6021C25.9207 24.6021 25.814 24.6034 25.7978 24.6165C25.7568 24.6719 25.7009 24.701 25.6384 24.7252C25.6384 24.7252 25.5897 24.714 25.5552 24.7237C25.4967 24.7306 25.4245 24.7222 25.3744 24.7506C25.3302 24.7782 25.3139 24.7914 25.2574 24.7643C25.1559 24.7088 25.0636 24.6803 24.9244 24.7585C24.7573 24.8512 24.6929 25.061 24.5563 24.9085C24.5362 24.8884 24.5154 24.8627 24.4959 24.8482C24.3912 24.9167 24.386 24.9229 24.3281 24.8847C24.2195 24.8189 24.118 24.8139 23.9958 24.8845C23.9288 24.9204 23.8267 25.0616 23.7421 24.8974C23.7415 24.8919 23.7057 24.8905 23.6953 24.9029C23.5887 24.9548 23.4827 25.0122 23.376 25.064C23.3422 25.0792 23.2876 25.1194 23.2694 25.1159C23.1354 25.0361 23.0476 25.1476 22.9501 25.1759C22.796 25.2277 22.6425 25.2851 22.4968 25.3584C22.3733 25.4178 22.2751 25.5417 22.1021 25.4834C22.0832 25.4744 22.039 25.502 22.0111 25.5166C21.9395 25.5643 21.8609 25.6016 21.7971 25.6653C21.7386 25.7227 21.5877 25.7011 21.5103 25.7496C21.433 25.798 21.338 25.7979 21.2899 25.8429C21.2203 25.9072 21.154 25.8476 21.0987 25.8822C20.9823 25.9521 20.8796 26.0372 20.7554 26.0911C20.6318 26.1506 20.5597 26.2939 20.3925 26.2854C20.3808 26.2868 20.3522 26.3463 20.3386 26.3817C20.3249 26.417 20.3113 26.4523 20.2976 26.4876C20.1532 26.5214 20.0095 26.5608 19.9055 26.5842C19.8112 26.5391 19.7416 26.5024 19.6785 26.4704C19.698 26.4344 19.7253 26.3638 19.6557 26.3776C19.5387 26.3914 19.5673 26.2813 19.4951 26.2729L19.5139 26.1808C19.4788 26.1849 19.4554 26.1877 19.4138 26.1869C19.3943 26.1218 19.3741 26.0512 19.3533 25.9749C19.3155 26.0075 19.2947 26.0324 19.2674 26.0524C19.2811 26.1183 19.2148 26.1092 19.1809 26.1244C19.1842 26.2027 19.1302 26.1978 19.0795 26.17C18.954 26.1118 18.8233 26.1103 18.6867 26.16C18.6581 26.169 18.6236 26.1787 18.6119 26.18C18.4896 26.0483 18.3765 26.1965 18.2607 26.1707C18.2354 26.1569 18.2289 26.1014 18.1417 26.1173C18.078 26.1304 17.9792 26.1982 17.92 26.0984C17.8913 26.0568 17.8276 26.0699 17.7769 26.0928C17.641 26.1481 17.4934 26.1542 17.3692 26.2586C17.3204 26.2981 17.2059 26.2834 17.1246 26.2986C17.0317 26.3152 16.9445 26.331 16.8574 26.3469L16.8496 26.4321C16.8496 26.4321 16.8392 26.4445 16.8405 26.4556C16.8483 26.5221 16.8125 26.5713 16.7813 26.5581C16.6571 26.5109 16.6044 26.5676 16.5557 26.6576C16.5459 26.6756 16.5245 26.695 16.5017 26.7033L16.0803 26.9045C16.0465 26.9197 16.0003 26.9307 15.9906 26.9487C15.9483 27.0942 15.7877 27.0906 15.6986 27.1404C15.6518 27.1964 15.6141 27.2795 15.579 27.2836C15.3975 27.305 15.3644 27.528 15.1732 27.5167C15.0438 27.678 14.8721 27.7824 14.7024 27.8529C14.6849 27.9056 14.6758 27.9291 14.6725 27.952C14.6166 27.9304 14.5886 27.945 14.5464 27.9893C14.4722 28.0654 14.3877 28.154 14.3136 28.2301C14.2239 28.3249 14.1107 28.4225 14.0925 28.5707C14.0808 28.6732 14.0171 28.7874 13.891 28.8247C13.7817 28.8544 13.8559 28.93 13.813 28.9687C13.7427 29.0275 13.7193 28.8786 13.6159 28.9582C13.5067 29.0384 13.374 28.9697 13.2563 28.9779C13.1464 28.8504 12.9675 28.8939 12.8121 28.8841C12.8147 28.9062 12.8036 28.9132 12.7991 28.9249C12.7926 28.9201 12.7737 28.9111 12.7789 28.9048C12.7835 28.8931 12.7945 28.8861 12.8049 28.8737C12.7854 28.8591 12.7659 28.8446 12.7418 28.8418C12.658 28.8348 12.5598 28.807 12.4921 28.8374C12.4128 28.8692 12.366 28.9758 12.2756 29.0145C12.3289 29.115 12.2236 29.1779 12.1534 29.1862C12.0129 29.2027 11.9284 29.2913 11.8159 29.3438C11.7541 29.3736 11.7073 29.4296 11.6182 29.4289C11.5174 29.4295 11.4218 29.525 11.3243 29.5533C11.1864 29.592 11.1422 29.6702 11.0993 29.7595C11.0947 29.7713 11.0739 29.7962 11.0622 29.7976C10.9543 29.7878 10.9191 29.893 10.912 29.9332C10.8834 30.0939 10.7547 30.1596 10.6207 30.2315C10.6038 30.2391 10.5752 30.2481 10.5706 30.2598C10.5095 30.3457 10.4419 30.4267 10.3209 30.4577C10.2858 30.4619 10.2403 30.529 10.2156 30.5712C10.1707 30.6439 10.0953 30.709 10.0999 30.7983C10.1018 30.8149 10.0524 30.8488 10.0297 30.8571C9.9152 30.8931 9.83002 30.9761 9.85345 31.0745C9.88729 31.211 9.7917 31.3065 9.71368 31.3999C9.63045 31.4996 9.55178 31.5875 9.47375 31.6809C9.5375 31.7689 9.58823 31.8472 9.64547 31.9304C9.56485 32.0017 9.52129 32.0854 9.41464 32.1373C9.30865 32.1947 9.30867 32.3464 9.24885 32.4433C9.12922 32.6371 9.09349 32.838 9.1735 33.014C9.24571 33.174 9.17875 33.3111 9.17293 33.5141C9.11244 33.4537 9.08512 33.4232 9.0578 33.3927C9.00904 33.4322 9.01816 33.5603 8.9011 33.5235C8.87638 33.5152 8.81005 33.5567 8.7899 33.5872C8.69432 33.7332 8.55255 33.7386 8.43355 33.7863C8.36007 33.8174 8.29115 33.9379 8.20595 33.8693C8.1663 33.9863 8.1071 33.8865 8.05703 33.9148C7.96209 33.9653 7.8509 34.029 7.76311 34.0393C7.64605 34.053 7.52899 34.0668 7.41389 34.0972C7.33003 34.2924 7.33006 34.4947 7.34114 34.69C7.35158 34.8798 7.38542 35.0668 7.44723 35.2393C7.49538 35.3966 7.58059 35.5158 7.5494 35.7049C7.45381 35.7498 7.44731 35.745 7.3381 36.078C7.41162 36.2492 7.48903 36.403 7.53393 36.5831C7.55931 36.6981 7.6133 36.8041 7.63868 36.9191C7.67643 37.0889 7.77072 37.0834 7.85657 37.107C7.96586 37.3302 8.03678 37.5803 8.21109 37.7508C8.27028 37.8 8.35613 37.8236 8.39841 37.8805C8.54801 38.0932 8.73923 38.2562 8.91744 38.4094C9.01696 38.4988 9.11517 38.5772 9.22313 38.6375C9.33825 38.7083 9.45987 38.7839 9.58278 38.7694C9.72588 38.9268 9.85337 39.1028 10.0615 39.157C10.0862 39.1653 10.1122 39.1847 10.1259 39.2C10.1766 39.2783 10.2286 39.2666 10.2969 39.2417C10.3424 39.2251 10.4036 39.2404 10.4335 39.2931C10.4634 39.3457 10.4758 39.4005 10.4946 39.46C10.3587 39.4648 10.4693 39.5473 10.468 39.5868C10.4609 39.6775 10.5454 39.7912 10.4232 39.8617C10.3393 39.9053 10.3321 39.996 10.3309 40.086C10.3361 40.1304 10.3712 40.1768 10.4024 40.2406C10.34 40.2142 10.3088 40.201 10.2775 40.1878C10.2554 40.2522 10.4388 40.3486 10.2711 40.3852C10.2711 40.3852 10.2652 40.487 10.3335 40.5127C10.3712 40.5308 10.4246 40.5301 10.4571 40.5544C10.5429 40.6286 10.6223 40.6473 10.7296 40.6516C10.8252 40.6572 10.9696 40.6739 10.9702 40.8312C10.9722 40.8478 10.9813 40.8748 10.9813 40.8748C11.1894 40.8784 11.2323 41.0419 11.3117 41.1618C11.326 41.1826 11.3566 41.1903 11.3826 41.2097L11.5432 41.3144C11.6206 41.3671 11.6915 41.415 11.778 41.343C11.8216 41.3098 11.9139 41.3383 11.9419 41.3743C12.0323 41.4873 12.1793 41.5262 12.2957 41.608C12.4512 41.719 12.619 41.7835 12.8075 41.722C12.8934 41.6951 12.9526 41.7443 12.9792 41.8199C13.0462 41.7839 13.1067 41.7431 13.173 41.7016C13.201 41.7376 13.2303 41.7847 13.2485 41.7882C13.3486 41.7821 13.4494 41.832 13.5379 41.8272C13.7388 41.8205 13.9222 41.8664 14.0822 41.9655C14.1271 41.994 14.159 42.0127 14.2136 42.0231C14.3892 42.0531 14.5544 42.146 14.7339 42.1586C14.7937 42.1628 14.849 42.2294 14.9114 42.2558C15.0051 42.2953 15.0974 42.3238 15.1956 42.3516C15.2997 42.3787 15.4031 42.4002 15.5019 42.4336C15.7061 42.5051 15.9208 42.5641 16.086 42.7076C16.1926 42.8075 16.3442 42.8346 16.4456 42.9407C16.5133 43.0114 16.5861 43.0759 16.6525 43.1355C16.6427 43.1535 16.6154 43.1735 16.6174 43.1902C16.6629 43.3758 16.8483 43.4889 16.9387 43.6524C16.9465 43.6684 16.9953 43.6795 16.9966 43.6906C16.9972 43.7467 16.9855 43.7986 16.9101 43.8131L16.9121 43.8297C17.0168 43.9129 17.0168 43.9129 17.0272 44.1027C17.0285 44.1138 17.0591 44.1214 17.0604 44.1325C17.0909 44.1907 17.1105 44.2558 17.1462 44.3078C17.1892 44.3702 17.2497 44.4305 17.3115 44.5019C17.3615 44.4735 17.4285 44.4376 17.4786 44.4092C17.6321 44.453 17.7576 44.5113 17.898 44.4948C17.9507 44.4886 18.0106 44.5434 18.0704 44.497C18.1114 44.5427 18.1523 44.5885 18.2044 44.6273C18.3013 44.6946 18.393 44.7681 18.5445 44.7447C18.6433 44.7274 18.7598 44.7587 18.8625 44.7747C19.0199 44.8012 19.174 44.7999 19.3269 44.7876C19.4556 44.7724 19.5844 44.7573 19.7099 44.765C19.8471 44.7714 19.9876 44.8054 20.1313 44.8166C20.1612 44.8187 20.1957 44.8091 20.2236 44.7946C20.2679 44.7669 20.314 44.7558 20.37 44.7774C20.407 44.7899 20.4604 44.7892 20.4883 44.7747C20.6893 44.6668 20.8844 44.7619 21.0736 44.807C21.1348 44.8223 21.19 44.8889 21.2206 44.9471C21.2356 44.9734 21.194 45.0232 21.1751 45.0648C21.2532 45.0725 21.3136 45.0317 21.3566 45.1446C21.406 45.2624 21.4106 45.4023 21.5283 45.4952C21.4945 45.5104 21.4841 45.5229 21.4672 45.5305C21.5537 45.6102 21.6408 45.6955 21.7338 45.7801C21.6812 45.7862 21.6389 45.78 21.6168 45.7938C21.6005 45.807 21.6116 45.8506 21.6259 45.8714C21.6409 45.8977 21.6779 45.9102 21.6981 45.9303C21.7404 45.9872 21.8009 46.0475 21.8015 46.1036C21.7957 46.2054 21.8718 46.247 21.9167 46.326C22.0071 46.2873 22.0695 46.2125 22.1644 46.2632C22.2756 46.1995 22.3882 46.2987 22.4857 46.2704C22.5722 46.249 22.6411 46.2802 22.7107 46.2664C22.7985 46.2561 22.8362 46.3753 22.924 46.3144C23.2466 46.4338 23.3064 46.438 23.6082 46.4306C23.7565 46.4301 23.9119 46.4399 24.0966 46.4463C24.0966 46.4463 24.1349 46.4193 24.1681 46.3985C24.2331 46.346 24.2923 46.2435 24.4016 46.3655C24.4016 46.3655 24.4998 46.3933 24.5219 46.3794C24.5765 46.3393 24.6402 46.3262 24.7046 46.3186C24.7046 46.3186 24.7488 46.3415 24.7846 46.3429C24.8451 46.3527 24.9134 46.3784 24.9654 46.3667C25.0174 46.3549 25.0395 46.3411 25.0805 46.3868C25.1618 46.4728 25.2392 46.5255 25.3953 46.4903C25.5865 46.451 25.7081 46.2738 25.7946 46.4546C25.8095 46.4809 25.8186 46.508 25.833 46.5288C25.9533 46.4922 25.9585 46.4859 26.0001 46.5372C26.0827 46.6343 26.175 46.6627 26.3142 46.6351C26.3896 46.6207 26.5255 46.5148 26.5529 46.697C26.5535 46.7025 26.5841 46.7102 26.5958 46.7088C26.7122 46.6895 26.8345 46.6695 26.9502 46.6447C26.9912 46.6399 27.0536 46.6157 27.0673 46.6309C27.1636 46.7432 27.2845 46.6616 27.3912 46.6603C27.5511 46.6583 27.7157 46.6446 27.873 46.6205C28.0129 46.5985 28.1397 46.5161 28.2821 46.6174C28.3016 46.632 28.3478 46.6209 28.3757 46.6064C28.4557 46.5801 28.5435 46.5698 28.6274 46.5263C28.7002 46.4896 28.8329 46.5583 28.9246 46.5307C29.0104 46.5037 29.1034 46.5377 29.1646 46.5025C29.2484 46.4589 29.2933 46.5379 29.3571 46.5248C29.4897 46.4923 29.6139 46.4384 29.7427 46.4233C29.8773 46.4075 29.9937 46.2871 30.1439 46.3537C30.1563 46.3578 30.1979 46.308 30.2239 46.2769C30.2441 46.2464 30.2707 46.2208 30.2967 46.1896C30.4463 46.2002 30.5842 46.2121 30.6973 46.2156C30.765 46.2863 30.819 46.3418 30.8729 46.3972C30.8404 46.4235 30.7936 46.4796 30.8606 46.4942C30.9757 46.5144 30.9042 46.6127 30.9731 46.6439L30.9237 46.7283C30.9543 46.736 30.979 46.7443 31.0219 46.7561C31.018 46.824 31.0089 46.8981 31.0064 46.9771C31.0512 46.9549 31.0798 46.946 31.1078 46.9314C31.1175 46.8629 31.1748 46.8955 31.2157 46.8907C31.243 46.82 31.2866 46.8374 31.3211 46.8783C31.4154 46.974 31.5331 47.0163 31.6749 47.0109C31.7042 47.0074 31.7406 47.0144 31.7523 47.013C31.8193 47.1793 31.9675 47.0776 32.0697 47.1387C32.0898 47.1588 32.0788 47.2162 32.1633 47.2288C32.2238 47.2385 32.3389 47.2081 32.3578 47.3183C32.3636 47.3682 32.4293 47.3717 32.4826 47.371C32.6244 47.3656 32.7649 47.3997 32.9067 47.3437C32.9691 47.3195 33.0588 47.3764 33.1375 47.3896C33.2227 47.4077 33.3073 47.4202 33.3983 47.4376L33.4367 47.3601C33.4367 47.3601 33.4536 47.3525 33.4529 47.3469C33.475 47.2825 33.5186 47.2493 33.5446 47.2687C33.6376 47.3533 33.7046 47.3173 33.7794 47.2468C33.7956 47.2336 33.8242 47.2246 33.8477 47.2219L34.2938 47.1807C34.3289 47.1766 34.3777 47.1877 34.3874 47.1697C34.4862 47.0513 34.6235 47.1082 34.7171 47.0972C34.7841 47.0613 34.8426 47.0038 34.879 47.0108C35.0449 47.0587 35.1645 46.8649 35.3284 46.9468C35.5066 46.8472 35.6978 46.8078 35.8707 46.8156C35.9072 46.772 35.9228 46.7533 35.9384 46.7346C35.9728 46.7755 36.0021 46.7721 36.0645 46.7479C36.1608 46.7085 36.2681 46.6622 36.3637 46.6172C36.482 46.564 36.6192 46.5198 36.6992 46.3924C36.7538 46.3017 36.8579 46.2277 36.9847 46.2465C37.0933 46.2618 37.064 46.1641 37.1154 46.1469C37.2012 46.1199 37.1538 46.2716 37.2747 46.2405C37.4015 46.2088 37.4815 46.3342 37.5882 46.3835C37.6194 46.5483 37.7905 46.59 37.9062 46.6663C37.916 46.6483 37.927 46.6414 37.9381 46.6345C37.9394 46.6456 37.9531 46.6608 37.9472 46.6615C37.9362 46.6684 37.9245 46.6698 37.9134 46.6767C37.9219 46.6982 37.9303 46.7197 37.9492 46.7287C38.0136 46.7717 38.0806 46.8369 38.1527 46.8452C38.236 46.8467 38.3179 46.7865 38.4077 46.7928C38.418 46.6792 38.5306 46.6772 38.5871 46.7043C38.7068 46.7633 38.8148 46.7225 38.9286 46.7316C38.9942 46.7351 39.0515 46.7171 39.1217 46.7595C39.1991 46.8122 39.3201 46.7811 39.4059 46.8047C39.5295 46.8464 39.601 46.7986 39.6836 46.744C39.6946 46.7371 39.7233 46.7281 39.7298 46.733C39.8026 46.7974 39.8845 46.7372 39.9105 46.7061C40.0159 46.5926 40.1427 46.6114 40.2806 46.6233C40.2981 46.6212 40.3228 46.6296 40.3345 46.6282C40.4308 46.5888 40.5173 46.5674 40.6181 46.6173C40.6493 46.6305 40.7117 46.6063 40.7514 46.5904C40.8249 46.5593 40.9133 46.5546 40.9582 46.4819C40.9686 46.4694 41.0219 46.4688 41.0408 46.4778C41.1344 46.5173 41.2352 46.5167 41.2788 46.433C41.3419 46.3132 41.4596 46.305 41.5636 46.2815C41.6677 46.258 41.7802 46.2561 41.8855 46.2437C41.9089 46.1398 41.9277 46.0477 41.9466 45.9556C42.0428 45.9668 42.1222 45.935 42.2217 45.9738C42.3153 46.0134 42.4239 45.9276 42.5228 45.9104C42.7211 45.8814 42.8824 45.7895 42.9773 45.6378C43.067 45.4925 43.2062 45.4649 43.374 45.3778C43.3473 45.4539 43.3402 45.4941 43.3265 45.5294C43.3773 45.5571 43.4819 45.4887 43.4956 45.605C43.4989 45.6327 43.5568 45.6709 43.5925 45.6723C43.7428 45.6884 43.7928 45.8117 43.8676 45.8928C43.9151 45.9434 44.025 45.9698 44.001 46.0681C44.1018 46.0675 44.0459 46.1471 44.0745 46.1887C44.1421 46.2594 44.2163 46.335 44.2436 46.416C44.2794 46.5186 44.321 46.6204 44.3672 46.7105C44.6657 46.726 44.9167 46.5898 45.1573 46.466C45.2633 46.4086 45.3485 46.3255 45.487 46.343C45.51 46.4039 45.6032 46.4735 45.7667 46.5517C45.8902 46.4922 45.9949 46.4237 46.1361 46.4128C46.2238 46.4025 46.3103 46.3811 46.3929 46.377C46.523 46.3729 46.5301 46.2822 46.5574 46.2116C46.748 46.1667 46.9509 46.1766 47.1154 46.0617C47.1707 46.0272 47.2045 45.9614 47.2623 45.949C47.4698 45.8965 47.6408 45.7865 47.8326 45.7022C47.9399 45.6559 48.0355 45.6109 48.1227 45.5445C48.2215 45.4767 48.334 45.4242 48.3736 45.3071C48.5655 45.2734 48.7586 45.2507 48.9088 45.115C48.9251 45.1019 48.9537 45.0929 48.9771 45.0902C49.0662 45.0909 49.0786 45.0445 49.0942 44.9753C49.1007 44.9296 49.1436 44.8908 49.2034 44.895C49.2574 44.8999 49.3133 44.9214 49.3686 44.9374C49.3101 45.0454 49.4232 44.9984 49.4622 45.0275C49.5344 45.0865 49.6717 45.0928 49.6632 45.223C49.6554 45.3082 49.7283 45.3727 49.7933 45.4212C49.8258 45.4455 49.885 45.4442 49.952 45.4588C49.8967 45.4933 49.8688 45.5079 49.8467 45.5217C49.8883 45.573 50.0574 45.4969 49.9976 45.6444C49.9976 45.6444 50.0704 45.7089 50.1315 45.6736C50.1647 45.6529 50.1959 45.6155 50.2304 45.6058C50.3286 45.5831 50.389 45.5422 50.4573 45.4668C50.5152 45.4038 50.6101 45.3028 50.7343 45.4005C50.7473 45.4102 50.7779 45.4179 50.7779 45.4179C50.9028 45.2684 51.0478 45.3412 51.187 45.3642C51.211 45.367 51.239 45.3525 51.2617 45.3442L51.4399 45.2952C51.5264 45.2738 51.6012 45.2537 51.6005 45.1471C51.5947 45.0972 51.6773 45.0425 51.7254 45.0481C51.8691 45.0593 51.9914 44.9888 52.1247 44.9619C52.31 44.9233 52.4615 44.8493 52.5428 44.6824C52.5811 44.6049 52.6579 44.6015 52.7333 44.6375C52.7489 44.5683 52.7587 44.4997 52.7736 44.4249C52.8217 44.4305 52.877 44.4465 52.8868 44.4285C52.9498 44.3593 53.0519 44.3192 53.1091 44.2507C53.234 44.1012 53.4018 44.014 53.5871 43.9754C53.6398 43.9692 53.6736 43.954 53.7178 43.9263C53.8667 43.8302 54.0436 43.7701 54.1853 43.6635C54.2348 43.6296 54.3187 43.6366 54.3811 43.6124C54.4721 43.5793 54.5677 43.5343 54.6509 43.4852C54.7459 43.4347 54.833 43.3683 54.9293 43.3289C55.1328 43.2432 55.3279 43.136 55.5522 43.1265C55.6992 43.1148 55.8319 43.0318 55.9808 43.0368C56.0822 43.0418 56.1883 43.0349 56.2773 43.0357C56.2793 43.0523 56.2832 43.0856 56.2962 43.0953C56.4738 43.1924 56.6923 43.133 56.8874 43.1775C56.9056 43.181 56.9498 43.1533 56.9569 43.1637C56.9966 43.1984 57.0318 43.2448 56.9914 43.3057C56.9914 43.3057 57.0044 43.3154 57.0103 43.3147C57.1508 43.2982 57.1508 43.2982 57.3134 43.4196C57.3199 43.4244 57.3485 43.4155 57.3602 43.4141C57.4278 43.4342 57.4903 43.4606 57.5631 43.4745C57.6476 43.487 57.7361 43.4823 57.8427 43.481C57.8596 43.4228 57.8752 43.3536 57.8921 43.2954C58.0365 43.211 58.1724 43.1557 58.2654 43.038C58.2959 42.9951 58.3896 42.9841 58.3935 42.9162C58.4579 42.9087 58.5294 42.9115 58.5925 42.8929C58.7193 42.8611 58.8467 42.8349 58.9326 42.7068C58.9878 42.6217 59.0984 42.5525 59.1849 42.4805C59.3201 42.3691 59.4306 42.2494 59.5275 42.1144C59.6094 42.0037 59.6862 41.8992 59.7739 41.7877C59.8793 41.6742 60.0035 41.5697 60.1095 41.4618C60.1303 41.4368 60.1498 41.4008 60.1524 41.3724C60.1641 41.3205 60.1836 41.2845 60.2317 41.2395C60.2642 41.2132 60.3006 41.1696 60.3084 41.135C60.3396 40.8954 60.5522 40.7861 60.718 40.6318C60.7655 40.5813 60.8702 40.5634 60.9404 40.5551C60.9697 40.5517 60.9951 40.6161 61.023 40.6521C61.0803 40.5836 61.0829 40.5047 61.2142 40.5117C61.3566 40.5118 61.5004 40.5736 61.6623 40.4871C61.661 40.5266 61.6571 40.5439 61.659 40.5606C61.7943 40.4997 61.9289 40.4333 62.0752 40.3656C62.0466 40.4251 62.0167 40.4736 62.0252 40.4951C62.0278 40.5172 62.0759 40.5228 62.1104 40.5131C62.1455 40.509 62.1819 40.4654 62.2164 40.4557C62.2963 40.4295 62.403 40.3776 62.4589 40.3992C62.5584 40.438 62.6566 40.3647 62.76 40.3357C62.7756 40.2159 62.7346 40.1196 62.8465 40.0109C62.8464 39.8592 63.011 39.7444 63.0441 39.6225C63.0668 39.5131 63.1332 39.421 63.152 39.3289C63.18 39.2133 63.3302 39.1788 63.3041 39.0582C63.5753 38.6387 63.5922 38.53 63.6851 38.1089C63.7169 37.8749 63.7514 37.6629 63.7897 37.3832C63.789 37.3776 63.7715 37.3291 63.7428 37.2875C63.6902 37.1926 63.5822 37.1322 63.7031 36.9495C63.7031 36.9495 63.7324 36.7944 63.7174 36.768C63.6732 36.6946 63.6569 36.6066 63.6458 36.5124C63.6536 36.4778 63.6614 36.4431 63.6556 36.3933C63.651 36.3039 63.6685 36.2007 63.6425 36.1307C63.6165 36.0608 63.6015 36.0344 63.6399 35.9569C63.7121 35.8136 63.7432 35.6751 63.6424 35.4734L63.6223 35.5545ZM8.87251 33.7348C8.87835 33.6329 8.90371 33.5963 8.99476 33.6642C8.95055 33.6919 8.91738 33.7126 8.87251 33.7348ZM46.9779 27.0661C46.9499 27.0301 46.9291 27.0044 46.9011 26.9684C46.9948 26.9574 47.026 26.9706 46.9779 27.0661ZM25.8807 26.9383L25.6346 24.8436L25.8814 26.9439L25.8807 26.9383ZM43.5041 45.5254C43.5431 45.5545 43.5749 45.5732 43.6075 45.5975C43.5229 45.6355 43.4872 45.6341 43.5041 45.5254Z" fill="#F9D983"/>
</g>
<path d="M50.178 26.2151C50.2462 22.1394 43.9477 18.7303 36.1102 18.6024C28.2728 18.4744 21.8672 21.676 21.7991 25.7518C21.7858 26.4512 21.9768 27.1388 22.3143 27.7789L22.1531 27.7642L22.0699 32.5595C22.0018 36.6352 28.3003 40.0443 36.1377 40.1722C43.9751 40.3001 50.3807 37.0985 50.4489 33.0228L50.5312 28.2376L49.5882 28.2225C49.9511 27.5855 50.1648 26.9145 50.1789 26.205L50.178 26.2151Z" fill="#F7C84D"/>
<path d="M51.6648 32.3523C51.8352 32.043 51.7118 31.7271 51.7111 31.4021C51.7129 31.3819 51.7349 31.3636 51.7157 31.3517C51.4118 31.2325 51.6582 31.0926 51.5484 30.9607C51.4386 30.8288 51.3892 30.7025 51.3911 30.5706C51.4151 30.3088 51.4491 30.0479 51.3916 29.7888C51.334 29.5297 51.7114 29.29 51.5806 29.0547C51.5834 28.9128 51.6457 28.7865 51.5643 28.6775C51.5021 28.5804 51.276 28.4988 51.1223 28.4035C51.0353 28.355 50.9511 28.2762 50.8202 28.2642C50.7397 28.2568 50.6591 28.2495 50.5785 28.2421C50.6161 28.1643 50.6638 28.0874 50.6913 28.0087L50.838 27.5144C50.9224 27.2581 51.0846 27.0394 51.2193 26.7877C51.376 26.5178 51.7112 26.1829 51.5054 25.8797C51.3078 25.5976 51.3959 25.3011 51.2669 25.0456C51.2258 24.9403 51.2259 24.8286 51.1627 24.7416C50.9112 24.3835 50.9304 24.3954 50.8693 23.9532C50.8739 23.9028 50.8373 23.8589 50.7998 23.825C50.7248 23.7572 50.6177 23.7068 50.5637 23.6308C50.3487 23.3166 50.164 23.0053 49.9701 22.6829C49.7524 22.399 49.4824 22.1306 49.1282 22.0068C49.0879 22.0031 49.0843 21.9317 49.0678 21.8896C49.0249 21.8044 48.981 21.7294 48.949 21.635C48.8649 21.3329 48.3118 21.6072 48.3432 21.1531C48.0877 21.2821 48.0457 21.0752 47.9093 21.0119C47.783 20.9496 47.7081 20.7701 47.5634 20.7975C47.3574 20.8294 47.3667 20.617 47.2486 20.5758C47.1891 20.5602 47.1324 20.5144 47.0792 20.54C46.8558 20.6516 46.768 20.5014 46.6655 20.4006C46.5639 20.2898 46.511 20.092 46.2866 20.2136C45.8693 19.8912 45.2971 19.9302 44.8496 19.7166C44.6839 19.6406 44.5677 19.4675 44.4039 19.3713C44.241 19.265 44.0405 19.2365 43.8639 19.1696L43.3614 19.0017C43.1939 18.9458 43.0264 18.8899 42.858 18.844C42.6996 18.7991 42.5522 18.745 42.392 18.7202C42.2309 18.7054 42.0194 18.7978 41.9187 18.6769C41.7815 18.512 41.6057 18.5467 41.4382 18.4907C41.2112 18.4192 40.9787 18.4081 40.7517 18.3366C40.4863 18.2412 40.1978 18.2859 39.9334 18.0688C39.7732 17.9323 39.5399 17.8196 39.3035 18.0721C39.2706 18.0995 39.1992 18.1032 39.1928 18.062C39.0867 17.7781 38.9017 17.9135 38.7516 17.8896C38.4724 17.8336 38.1675 17.9479 37.9305 17.7637C37.741 17.6144 37.5442 17.6573 37.3575 17.5895C37.1708 17.5216 36.9767 17.4226 36.7845 17.4152C36.5318 17.4023 36.26 17.2657 36.0218 17.5384C35.6264 17.421 35.2527 17.732 34.8682 17.7172C34.4022 17.705 33.9307 17.7533 33.4601 17.7915C33.266 17.8042 33.0427 17.6924 32.8933 17.9935C32.8686 18.042 32.767 18.0429 32.7322 17.9788C32.6188 17.7755 32.4988 17.866 32.3944 17.8971C32.2488 17.9346 32.0924 17.8695 31.9531 18.0598C31.8725 18.1641 31.6574 17.9617 31.5027 17.9881C31.2546 18.0365 31.0174 18.1874 30.7218 17.9776C30.655 17.9309 30.5469 18.0023 30.4892 18.0782C30.36 18.2695 30.1623 18.3225 30.0085 18.2272C29.8538 18.1419 29.7385 18.1822 29.6149 18.2013C29.3457 18.2579 29.1012 18.3777 28.864 18.5287C28.4134 18.7921 27.8852 18.7945 27.4757 19.1632C27.1891 19.4112 26.7396 19.3294 26.5004 19.7239C26.3932 19.8969 26.1379 19.8024 25.9529 19.8261C25.6545 19.8699 25.4199 20.1023 25.1452 20.2193C24.8815 20.3272 24.5629 20.3692 24.3239 20.5402C24.0006 20.7442 23.648 20.9353 23.4592 21.3344C23.2631 21.7023 22.8071 21.8027 22.4673 22.0763C22.1211 22.3086 22.066 22.8011 21.5742 22.9593C21.4651 23.264 21.2782 23.5313 21.0721 23.7866C20.8943 24.0648 20.733 24.3851 20.6523 24.7128C20.6026 25.2566 20.5897 25.2859 21.137 25.6304C21.2239 25.679 21.3521 25.7211 21.4729 25.7322C22.0075 25.7709 22.4791 25.611 22.5598 25.395C22.5873 25.3163 22.7832 25.2834 22.6231 25.1469C22.559 25.07 22.7889 24.9996 22.8365 24.9228C22.8732 24.855 22.8201 24.7689 22.8074 24.6865C22.8092 24.6664 22.811 24.6463 22.812 24.6362C23.0738 24.5485 23.0337 24.3214 23.1592 24.1704C23.2737 24.0286 23.4953 23.9371 23.6007 23.7843C23.718 23.6123 23.8847 23.4549 24.0413 23.2966C24.1888 23.1273 24.3454 22.969 24.5213 22.8226C24.6321 22.7211 24.817 22.6974 24.7916 22.4209C24.7825 22.2982 24.9308 22.2305 25.048 22.2819C25.2237 22.3589 25.2732 22.2619 25.3483 22.218C25.5205 22.1119 25.6835 21.9948 25.8749 21.9006L26.4207 21.5951C26.3843 21.1044 26.8381 21.5825 26.9399 21.3583C26.9775 21.2805 27.0946 21.3318 27.0892 21.1688C27.0966 21.0883 27.1946 21.016 27.2312 21.06C27.4078 21.2386 27.4911 21.1041 27.5964 21.0629C27.9893 20.8755 28.4187 20.8437 28.7741 20.5106C28.9747 20.3158 29.2713 20.2921 29.5478 20.2666C29.8426 20.2631 30.0332 19.9556 30.3115 19.91C30.4662 19.8835 30.6155 19.8058 30.793 19.9744C31.2774 19.7851 31.8111 19.9456 32.3118 19.9102C32.4556 19.8929 32.5408 19.7382 32.658 19.6779C32.8055 19.6203 32.9455 19.7549 33.0937 19.799C33.124 19.8017 33.1542 19.8045 33.167 19.7752C33.2312 19.5171 33.3841 19.6224 33.4967 19.6124C33.6514 19.586 33.8089 19.5293 33.9617 19.7463C34.3107 19.3721 34.7252 19.6131 35.108 19.5364C35.2013 19.5145 35.3249 19.607 35.3936 19.5219C35.6254 19.208 35.9018 19.4059 36.16 19.2468C36.4293 19.0785 36.7405 19.2288 37.0233 19.2445C37.1039 19.2519 37.2312 19.1924 37.2641 19.2767C37.3546 19.5083 37.4883 19.3784 37.6046 19.4398C37.7107 19.5003 37.8132 19.6011 37.9221 19.6313C38.4906 19.7443 39.059 19.8572 39.6137 20.0095C39.7428 20.0416 39.8856 20.0343 40.0138 20.0765C40.1328 20.1077 40.2673 20.0794 40.3615 20.2708C40.4301 20.4091 40.6105 20.4357 40.7396 20.3561C40.8687 20.2765 40.9576 20.1933 40.9876 20.4194C41.1315 20.1787 41.2404 20.3207 41.3502 20.3409C41.8674 20.4593 42.314 20.7946 42.8174 20.9523C43.0746 21.0266 43.4675 20.7275 43.5982 21.1862C43.6055 21.2173 43.6668 21.2128 43.7099 21.1863C43.9159 21.0427 44.1008 21.1307 44.1484 21.2772C44.2206 21.4868 44.3515 21.4988 44.4796 21.541C44.9098 21.7225 45.3986 21.818 45.8041 22.048C46.1134 22.2184 46.4328 22.3898 46.7073 22.6079C47.0038 22.8076 47.2683 23.0247 47.5108 23.2601C47.5858 23.3279 47.6608 23.3957 47.8128 23.3995C48.0655 23.4124 48.0369 23.7246 48.3747 23.6946C48.2665 24.101 48.5741 24.1799 48.6948 24.4143C48.8593 24.9472 49.3717 25.451 49.0354 26.0194C48.9859 26.1164 49.0673 26.2253 49.0279 26.3233C49.0086 26.4231 49.057 26.5595 48.9206 26.6079C48.6706 26.6765 49.0551 26.803 48.9653 26.8963C48.8316 27.0263 48.8653 27.2121 48.7801 27.3668C48.6958 27.5114 48.5236 27.6175 48.5766 27.8153C48.625 28.0634 48.4547 28.1494 48.266 28.2133C48.2248 28.2197 48.191 28.2572 48.2074 28.2994C48.3702 28.629 47.9985 28.5849 47.9892 28.7973C47.9671 29.0389 47.8508 29.2009 47.6695 29.296C47.5825 29.3591 47.4223 29.3344 47.327 29.3764C47.2208 29.4276 47.0954 29.4669 47.0733 29.5969C47.0054 29.8953 46.7454 29.9629 46.5686 30.1194C46.4458 30.2401 46.2545 30.2227 46.2196 30.4936C46.2085 30.6145 46.0154 30.6171 45.8863 30.585C45.6877 30.5364 45.6115 30.8137 45.3672 30.5984C45.3424 30.7586 45.2535 30.8419 45.1382 30.8821C44.9706 30.9378 44.8195 31.0357 44.6519 31.0915C44.5054 31.139 44.39 31.2909 44.1786 31.1599C43.9489 31.0069 43.9843 31.5077 43.7674 31.437C43.7079 31.4214 43.6685 31.5194 43.6108 31.4836C43.3738 31.2995 43.2181 31.4477 43.0514 31.4934C42.4453 31.6817 41.8217 31.8379 41.201 31.9639C40.8302 32.0213 40.4576 31.9872 40.0804 32.0035C40.0703 32.0026 40.0484 32.0209 40.0401 31.9998C39.8416 31.7278 39.6684 31.9557 39.49 31.9089C39.3014 31.8612 39.1284 31.754 38.9417 31.7978C38.7118 31.8682 38.4601 31.8452 38.2239 31.8743C37.9977 31.9044 37.7661 31.8832 37.5381 32.0452C37.3201 32.208 37.0574 32.0824 36.8111 32.1106C36.7086 32.1216 36.6151 32.2552 36.5236 32.257C36.4128 32.2468 36.3012 32.1351 36.1914 32.1149C36.0815 32.0947 35.9671 32.1248 35.8544 32.2465C35.7875 32.3115 35.643 32.0038 35.5322 32.1054C35.2858 32.357 35.036 32.2021 34.7805 32.2194C34.5654 32.2403 34.3448 32.21 34.1242 32.1797C34.0537 32.1732 33.9685 32.1045 33.9227 32.1613C33.6937 32.4449 33.4988 32.2443 33.2855 32.2451C33.0502 32.2642 32.8223 32.2027 32.5944 32.1413C32.534 32.1357 32.4974 31.9801 32.4452 31.9956C32.0103 32.0878 31.9984 32.1071 31.5463 31.8322C31.4694 31.7845 31.3623 31.8458 31.2689 31.8677C31.2277 31.8741 31.1709 31.94 31.1535 31.908C30.9743 31.5362 30.6244 31.8088 30.4332 31.5679C30.2155 31.284 29.9418 31.2792 29.6818 31.2352C28.8351 31.0562 28.1332 30.5147 27.2195 30.5124C26.7894 30.2192 26.2603 30.1201 25.9246 29.6832C25.6208 29.3406 25.2099 29.171 24.8475 28.9145C24.8282 28.9026 24.8219 28.8614 24.7907 28.8687C24.4748 28.9921 24.4823 28.6881 24.2828 28.6496C24.0722 28.6202 23.9185 28.5249 23.7995 28.382C23.5498 28.1154 23.3952 27.8069 23.1546 27.5513C22.9469 27.2683 23.1165 26.8573 22.9528 26.6494C22.9172 26.4837 22.9099 26.3409 22.8294 26.2218C22.7571 26.1238 22.5301 26.0523 22.3571 25.9451C22.2611 25.8855 22.1696 25.7756 22.0396 25.7536C21.7778 25.7296 21.4757 25.702 21.2276 25.7504C20.8055 25.8133 20.5901 26.281 20.7098 26.6372C20.7263 26.6793 20.75 26.7526 20.7171 26.78C20.5284 26.9557 20.6317 27.1581 20.736 27.2387C21.0371 27.4998 21.0378 27.8248 21.2162 28.0949C21.2253 28.1059 21.2336 28.127 21.2427 28.138C21.2409 28.1581 21.239 28.1783 21.2765 28.2122C21.2848 28.2332 21.3031 28.2552 21.3113 28.2763C21.2866 28.3248 21.1794 28.386 21.1638 28.4455C21.1583 28.506 21.2242 28.5627 21.2589 28.6268C21.258 28.6369 21.2763 28.6589 21.2552 28.6671C21.0391 28.8098 21.1974 28.9665 21.1433 29.1138C21.0892 29.2612 20.9948 29.4049 20.9819 29.5459C20.9515 29.8782 20.9514 30.2132 20.9612 30.5492C20.9612 30.6609 20.8696 30.7744 21.0929 30.8862C21.1899 30.9357 21.1697 31.0455 21.0644 31.0867C20.906 31.1534 20.9508 31.2185 20.9444 31.2889C20.9315 31.4299 20.9378 31.5828 20.935 31.7247L20.9256 32.1605C21.3695 32.3026 20.7606 32.4094 20.9199 32.556C20.9757 32.6118 20.8877 32.685 21.0452 32.74C21.1138 32.7666 21.1458 32.8609 21.0927 32.8865C20.8601 32.9871 20.9626 33.0879 20.9744 33.1803C21.0228 33.5402 21.028 33.9265 21.3373 34.2086C21.5057 34.3662 21.5678 34.575 21.5979 34.8011C21.6481 35.0291 21.9355 35.1061 22.0517 35.2792C22.1139 35.3763 22.2082 35.456 22.1083 35.6601C22.4084 35.9313 22.4494 36.3716 22.7065 36.6693C22.7806 36.7472 22.9371 36.7006 23.0341 36.7501C23.1522 36.7913 23.1054 36.9698 23.1466 37.0751C23.1447 37.0953 23.1731 37.1182 23.2052 37.1008C23.4213 36.9581 23.4166 37.1201 23.4834 37.1669C23.5786 37.2365 23.6967 37.2777 23.6343 37.5157C24.0701 37.4134 24.1386 37.7751 24.4031 37.8805C24.4717 37.9071 24.4909 38.0307 24.5761 37.9877C24.8856 37.8231 24.9321 38.0914 25.1803 38.043C25.4192 37.9836 25.5408 38.208 25.7037 38.3143C25.7513 38.3491 25.8548 38.3281 25.8374 38.4077C25.796 38.6375 25.9343 38.5689 25.9782 38.644C26.0322 38.72 26.0514 38.8436 26.1182 38.8903C26.4513 39.134 26.7972 39.3484 27.155 39.5436C27.242 39.5922 27.3427 39.6014 27.4186 39.6591C27.4955 39.7068 27.599 39.6858 27.6217 39.8808C27.6391 40.0246 27.7681 40.0567 27.8762 39.9853C27.9843 39.914 28.0631 39.8298 28.0419 40.0614C28.1848 39.8308 28.2323 39.9773 28.312 39.9947C28.6689 40.0883 28.9517 40.4391 29.3315 40.5043C29.521 40.5419 29.816 40.2034 29.9091 40.6282C29.9164 40.6593 29.9696 40.6337 29.9925 40.6054C30.1409 40.426 30.2782 40.4792 30.3175 40.6046C30.3824 40.7832 30.4849 40.7722 30.5755 40.7805C30.9179 40.8118 31.275 40.7937 31.6155 40.8452C32.1291 40.8922 32.6371 40.9996 33.1598 41.0575C33.2403 41.0649 33.3099 41.0814 33.4107 40.9789C33.5683 40.8106 33.7082 41.0569 33.8731 40.808C34.0313 41.188 34.2557 40.9547 34.4525 41.0235C34.9175 41.1574 35.3983 40.8967 35.8531 41.2531C35.9382 41.3218 36.0444 41.2706 36.135 41.2789C36.2256 41.2872 36.3438 41.2168 36.4023 41.3541C36.5111 41.6078 36.558 41.2059 36.655 41.2554C36.8006 41.3296 36.9571 41.283 37.1 41.2757C37.2419 41.2786 37.4048 41.3849 37.5193 41.243C37.6677 41.0637 37.7839 41.1251 37.9257 41.2396C37.9541 41.2625 37.9935 41.2762 38.0072 41.2369C38.1172 40.922 38.2764 41.1803 38.3909 41.0385C38.5173 40.8774 38.6611 40.8601 38.8021 40.873C38.8826 40.8803 38.964 40.9893 39.0437 41.0068C39.1334 41.0251 39.2313 41.0645 39.2909 40.9684C39.4338 40.7378 39.6196 40.8157 39.7771 40.7591C39.8925 40.7188 40.016 40.8114 40.0976 40.5853C40.138 40.4773 40.2524 40.5589 40.3366 40.6376C40.4583 40.7503 40.5591 40.5361 40.6962 40.8127C40.7403 40.6644 40.8163 40.6104 40.8978 40.6077C41.0204 40.5986 41.1367 40.5484 41.2576 40.5594C41.3683 40.5695 41.4517 40.435 41.5981 40.6108C41.7628 40.8087 41.7576 40.3107 41.8994 40.4252C41.9369 40.4591 41.9754 40.3712 42.012 40.4152C42.1748 40.6332 42.2885 40.5014 42.4121 40.4822C42.846 40.4001 43.2654 40.2557 43.7012 40.1534C43.9512 40.0848 44.2231 40.1097 44.4904 40.0732C44.4904 40.0732 44.5124 40.0549 44.5215 40.0659C44.732 40.3187 44.7953 40.0706 44.9353 40.0936C45.0763 40.1065 45.2411 40.1927 45.3592 40.1223C45.5094 40.0344 45.6952 40.0007 45.8454 39.9129C45.9956 39.8251 46.1614 39.7894 46.2613 39.5853C46.3502 39.3904 46.5699 39.4308 46.721 39.3329C46.7759 39.2872 46.7797 39.1352 46.8438 39.1005C46.9179 39.0666 47.0442 39.1289 47.1266 39.1162C47.21 39.0933 47.2668 39.0275 47.2797 38.8865C47.287 38.8059 47.5323 39.0111 47.5442 38.8802C47.5719 38.5781 47.7843 38.5874 47.9281 38.4584C48.0499 38.3477 48.1882 38.2791 48.3182 38.1894C48.3612 38.1629 48.4519 38.1712 48.4382 38.0989C48.3761 37.7784 48.6068 37.8097 48.7085 37.6971C48.8221 37.5654 48.9622 37.4766 49.1032 37.3778C49.1362 37.3504 49.2616 37.4228 49.2744 37.3935C49.3872 37.0484 49.3762 37.0576 49.7764 36.9013C49.8396 36.8766 49.8295 36.764 49.8461 36.6944C49.8488 36.6642 49.8251 36.5909 49.8553 36.5937C50.2251 36.658 50.099 36.2606 50.3572 36.2131C50.6666 36.1602 50.7473 35.9442 50.8289 35.7181C50.9719 35.3758 51.201 35.0921 51.3156 34.7269C51.4495 34.3736 51.5247 33.9946 51.3684 33.5945C51.5042 33.1093 51.3606 32.7916 51.5558 32.4337L51.6648 32.3523ZM49.4043 34.3084C49.2531 34.5179 49.2648 34.8338 48.9013 34.9224C48.7036 34.9754 48.687 35.1566 48.6027 35.3012C48.5111 35.4147 48.2145 35.3267 48.1888 35.4969C48.1548 35.6461 48.2398 35.9382 47.9085 35.7861C47.8783 35.7833 47.8581 35.7815 47.8755 35.8135C47.9999 36.1194 47.7527 36.046 47.6913 36.1622C47.6785 36.1915 47.554 36.109 47.5705 36.1512C47.6015 36.3672 47.3855 36.2866 47.3817 36.4385C47.3661 36.6097 47.2974 36.6948 47.1921 36.736C47.0977 36.7679 46.9687 36.7358 46.8744 36.7678C46.8112 36.7925 46.7132 36.7531 46.8037 36.9848C46.6537 36.8492 46.6161 36.927 46.552 36.9617L45.7818 37.3888C45.7818 37.3888 45.6866 37.4309 45.6701 37.5004C45.6214 37.6991 45.4969 37.7283 45.3203 37.6614C45.2123 37.621 45.0804 37.6192 45.0685 37.7501C45.0547 37.9011 44.9823 37.9148 44.9182 37.9495C44.7589 38.0264 44.5849 38.0409 44.4338 38.1388C44.2708 38.2559 44.0265 38.0406 43.7922 37.8262C43.6797 37.7245 43.5735 37.6641 43.5634 37.7748C43.5496 37.9259 43.48 37.9094 43.4241 37.9652C43.3573 38.0302 43.316 38.1482 43.2428 38.172C43.1695 38.1958 43.0652 38.1151 42.9755 38.0968C42.9352 38.0931 42.8867 38.0683 42.8812 38.1288C42.8554 38.4107 42.7208 38.3273 42.6164 38.3584C42.3656 38.437 42.1165 38.4955 41.8593 38.5329C41.6121 38.5712 41.3859 38.7129 41.0957 38.5544C40.9511 38.4701 40.8265 38.611 40.7047 38.7217C40.571 38.8516 40.4079 38.9687 40.1994 38.6958C40.1454 38.6198 40.0831 38.7461 40.0172 38.6893C39.9422 38.6215 39.952 38.9575 39.8478 38.7652C39.8057 38.6699 39.727 38.7541 39.6665 38.7486C39.2885 38.6632 38.9678 39.0604 38.5943 39.0364C38.4936 39.0272 38.3738 38.8944 38.315 39.2038C38.3123 39.234 38.272 39.2303 38.2638 39.2092C38.1349 38.7304 38.0662 38.9272 37.9781 39.2237C37.9616 39.2933 37.8957 39.2365 37.8545 39.2429C37.5066 39.272 37.1542 39.2398 36.8054 39.2789C36.6616 39.2963 36.5408 39.1735 36.4191 39.0608C36.2782 38.9362 36.1319 38.6487 35.9954 38.8088C35.8589 38.969 35.7235 38.8956 35.5989 38.9249C35.5467 38.9404 35.4982 38.9157 35.4451 38.9413C35.24 39.0748 35.24 39.0748 35.0395 38.9346C35.0203 38.9227 34.9892 38.93 34.9682 38.9383C34.9141 38.9739 34.8674 39.0407 34.8253 39.0572C34.4334 39.1229 34.0765 38.8059 33.6626 39.1133C33.6406 39.1316 33.615 39.0785 33.5967 39.0565C33.55 39.0116 33.5116 38.9878 33.4658 38.9329C33.3515 38.7396 33.1379 39.2989 33.0429 38.8942C32.9393 39.1385 32.8726 38.9801 32.7801 38.992C32.6977 39.0047 32.6273 38.8866 32.5476 38.9809C32.434 39.1126 32.4121 38.9076 32.3288 38.9304C32.2977 38.9377 32.2583 38.9239 32.2235 38.9715C32.1144 39.1646 32.0321 39.0657 31.9653 39.019C31.8893 38.9613 31.8428 38.8047 31.7246 38.9868C31.4555 38.82 31.0992 39.0515 30.8136 38.9543C30.7148 38.9249 30.6371 38.7757 30.5401 38.7262C30.4339 38.6657 30.3222 38.6656 30.2133 38.6354L29.9057 38.5564L29.5981 38.4775C29.5094 38.4491 29.4224 38.4005 29.3217 38.3913C29.221 38.3821 29.079 38.491 29.0288 38.3747C28.9712 38.2273 28.8567 38.2574 28.7698 38.2088C28.6444 38.1365 28.5016 38.1437 28.3771 38.0613C28.2334 37.9669 28.0494 37.9805 27.958 37.7589C27.8995 37.6215 27.7998 37.4906 27.5772 37.7038C27.5442 37.7312 27.5048 37.7175 27.5076 37.6872C27.5325 37.4154 27.3914 37.5142 27.3155 37.4564C27.1819 37.363 26.9649 37.404 26.9018 37.2053C26.8562 37.0387 26.7344 37.0377 26.6621 36.9397C26.5898 36.8417 26.5524 36.6962 26.4563 36.6366C26.3309 36.5642 26.2761 36.3866 26.0169 36.5558C25.8834 36.3506 25.5565 36.4832 25.3872 36.3357L24.7612 35.852C24.6761 35.7833 24.6817 35.6112 24.4152 35.7493C24.3722 35.7758 24.3365 35.7218 24.3613 35.6732C24.4703 35.4801 24.3669 35.5012 24.3092 35.4654C24.2424 35.4187 24.2425 35.307 24.0658 35.3518C23.9614 35.3828 24.064 35.1485 24.0082 35.0927C23.9149 35.0029 23.7263 34.9552 23.872 34.6943C23.9078 34.6367 23.8281 34.6192 23.7567 34.6229C23.5718 34.6466 23.5087 34.5595 23.571 34.4332C23.6324 34.317 23.5857 34.2721 23.5601 34.219C23.5108 34.0927 23.3954 34.0212 23.2829 33.9195C23.0449 33.7454 23.1422 33.4598 22.8759 33.2629C22.6974 33.1044 22.9301 32.8921 22.6519 32.7144C22.5274 32.6319 22.7097 32.5267 22.7711 32.4105C22.8481 32.2348 22.774 32.0452 22.8107 31.8658C22.8364 31.6955 22.9638 31.5244 22.9694 31.3523C22.9805 31.1198 23.0108 30.8992 22.8498 30.661C22.741 30.5191 22.8051 30.3726 22.8794 30.2271C22.8986 30.239 22.9178 30.2509 22.9389 30.2427C23.2649 30.1202 23.2693 30.4049 23.445 30.4819C23.6198 30.569 23.8789 30.5115 23.9942 30.6946C24.039 30.7597 24.1397 30.7689 24.1525 30.8513C24.2082 31.1305 24.3664 31.2871 24.6695 31.193C24.7107 31.1866 24.7574 31.2315 24.7537 31.2718C24.7335 31.4933 24.8873 31.4769 24.9824 31.5466C25.1838 31.6767 25.3952 31.8077 25.6093 31.9086C25.8427 32.0213 26.0541 32.1523 26.2994 32.2458C26.5154 32.3265 26.7718 32.2992 26.9777 32.379L28.4312 32.9181C28.9008 33.1133 29.418 33.12 29.8435 33.4636C30.0988 33.6697 30.4376 33.6296 30.7369 33.6874C31.007 33.7324 31.2009 34.0548 31.4893 34.0101C31.7575 33.9635 32.0405 33.7559 32.2509 34.1204C32.2683 34.1524 32.3186 34.157 32.3315 34.1277C32.5816 33.8358 32.791 34.0987 33.0172 34.0686C33.0685 34.0632 33.137 34.2014 33.17 34.174C33.3889 34.0011 33.581 34.2319 33.7743 34.1175C33.9785 33.9941 34.1717 33.9914 34.3612 34.0291C34.5213 34.0539 34.6732 34.1693 34.8435 34.195C34.9534 34.2152 35.0778 34.2977 35.1695 34.0726C35.2628 34.274 35.3992 34.2256 35.52 34.2366C36.0355 34.2635 36.5454 34.239 37.0535 34.2347C37.134 34.2421 37.2265 34.2302 37.3025 34.1763C37.5214 34.0034 37.7237 34.0117 37.9562 34.1345C38.1017 34.2087 38.3104 34.2583 38.414 34.1256C38.5385 33.9847 38.6493 33.9948 38.772 33.9857C39.0604 33.941 39.3543 33.9476 39.6354 33.8718C39.9577 33.7896 40.2596 34.0406 40.5534 34.2705C40.7053 34.386 40.8618 34.4511 40.9342 34.3257C41.0194 34.171 41.1302 34.1811 41.2364 34.1299C41.3646 34.0604 41.4773 33.9387 41.6119 33.9104C41.7465 33.8821 41.903 33.9472 42.044 33.9601C42.1044 33.9656 42.195 33.9739 42.2106 33.9144C42.3188 33.6197 42.5357 33.6903 42.7124 33.6455C43.14 33.5222 43.5695 33.3787 44.0062 33.2663C44.4329 33.153 44.8011 32.9024 45.2954 32.9375C45.549 32.9403 45.7405 32.7345 45.9301 32.5487C46.1417 32.3447 46.3743 32.1324 46.7688 32.2599C46.8777 32.2901 46.9438 32.1236 47.0655 32.1246C47.2065 32.1375 47.0941 31.8124 47.3073 31.9233C47.4135 31.9838 47.4978 31.8392 47.593 31.7971C47.8998 31.6627 48.1544 31.4321 48.3898 31.1897C48.617 30.9261 48.8241 30.6607 49.0869 30.4512C49.2197 30.3314 49.4688 30.2729 49.3655 29.9589C49.3582 29.9277 49.4031 29.8811 49.4223 29.893C49.4223 29.893 49.4223 29.893 49.4324 29.8939C49.4589 29.937 49.4854 29.98 49.522 30.024C49.5668 30.089 49.2345 30.1703 49.5219 30.2473C49.0476 30.4375 49.8979 30.6879 49.3824 30.8844C49.3403 30.9009 49.3457 30.9522 49.375 30.965C49.6707 31.0631 49.4683 31.1664 49.5296 31.2736C49.5908 31.3807 49.7739 31.4889 49.6923 31.6033C49.6584 31.6408 49.7142 31.6966 49.6602 31.7323C49.456 31.8558 49.4449 31.9767 49.6573 32.0976C49.6865 32.1105 49.6719 32.1599 49.6307 32.1663C49.4228 32.2183 49.5171 32.298 49.5106 32.3685C49.4977 32.5095 49.5041 32.6624 49.5012 32.8043C49.5057 32.9773 49.4755 33.0863 49.4754 33.1979C49.4863 33.3005 49.586 33.4314 49.586 33.5431C49.5428 33.793 49.4786 34.0512 49.3558 34.2836L49.4043 34.3084Z" fill="#B09151"/>
<path d="M57.178 12.2151C57.2462 8.13943 50.9477 4.73032 43.1102 4.6024C35.2728 4.47447 28.8672 7.67607 28.7991 11.7518C28.7858 12.4512 28.9768 13.1388 29.3143 13.7789L29.1531 13.7642L29.0699 18.5595C29.0018 22.6352 35.3003 26.0443 43.1377 26.1722C50.9751 26.3001 57.3807 23.0986 57.4489 19.0229L57.5312 14.2376L56.5882 14.2225C56.9511 13.5855 57.1648 12.9146 57.1789 12.2051L57.178 12.2151Z" fill="#F7C84D"/>
<path d="M58.6687 18.3524C58.8391 18.043 58.7157 17.7271 58.715 17.4021C58.7169 17.382 58.7388 17.3636 58.7196 17.3517C58.4157 17.2326 58.6621 17.0926 58.5523 16.9607C58.4425 16.8288 58.3931 16.7025 58.395 16.5707C58.419 16.3088 58.453 16.048 58.3955 15.7888C58.3379 15.5297 58.7153 15.2901 58.5845 15.0547C58.5873 14.9128 58.6496 14.7865 58.5682 14.6775C58.506 14.5804 58.2799 14.4989 58.1262 14.4036C58.0392 14.355 57.9551 14.2762 57.8241 14.2642C57.7436 14.2569 57.663 14.2495 57.5824 14.2421C57.62 14.1643 57.6677 14.0875 57.6952 14.0087L57.8419 13.5145C57.9263 13.2582 58.0885 13.0395 58.2232 12.7878C58.3799 12.5178 58.7151 12.1829 58.5093 11.8798C58.3117 11.5977 58.3998 11.3011 58.2708 11.0456C58.2297 10.9403 58.2298 10.8286 58.1666 10.7416C57.9151 10.3835 57.9343 10.3954 57.8732 9.95322C57.8778 9.90287 57.8412 9.85891 57.8037 9.82501C57.7287 9.75723 57.6216 9.7068 57.5676 9.63079C57.3526 9.31665 57.1679 9.00528 56.974 8.68292C56.7563 8.399 56.4863 8.13062 56.1321 8.00683C56.0918 8.00315 56.0882 7.93175 56.0717 7.88963C56.0288 7.80447 55.9849 7.72938 55.9529 7.63507C55.8688 7.33291 55.3157 7.60724 55.3471 7.15317C55.0916 7.28212 55.0496 7.07519 54.9132 7.01194C54.7869 6.94962 54.712 6.77015 54.5673 6.79753C54.3613 6.82946 54.3706 6.61707 54.2525 6.57581C54.193 6.56021 54.1363 6.51442 54.0831 6.54002C53.8597 6.65159 53.7719 6.50139 53.6694 6.40063C53.5679 6.2898 53.5149 6.09204 53.2905 6.21367C52.8732 5.89119 52.301 5.93022 51.8535 5.71667C51.6878 5.64059 51.5717 5.46751 51.4078 5.37129C51.2449 5.26501 51.0444 5.23652 50.8678 5.16959L50.3653 5.00176C50.1978 4.94582 50.0303 4.8899 49.8619 4.84403C49.7035 4.79908 49.5561 4.745 49.3959 4.72019C49.2348 4.70546 49.0233 4.7978 48.9227 4.6769C48.7854 4.51204 48.6096 4.54672 48.4421 4.49078C48.2151 4.41925 47.9826 4.40814 47.7556 4.3366C47.4902 4.24124 47.2017 4.28594 46.9373 4.06882C46.7772 3.93233 46.5438 3.81959 46.3074 4.07213C46.2745 4.09958 46.2031 4.1032 46.1967 4.062C46.0906 3.77814 45.9056 3.91353 45.7555 3.88964C45.4763 3.83364 45.1714 3.94792 44.9344 3.76378C44.7449 3.61445 44.5481 3.65737 44.3614 3.58952C44.1747 3.52168 43.9806 3.42267 43.7884 3.41524C43.5357 3.40228 43.2639 3.26573 43.0257 3.53841C42.6303 3.42101 42.2566 3.73207 41.8721 3.71721C41.4061 3.70505 40.9346 3.75332 40.464 3.79151C40.2699 3.80422 40.0466 3.69241 39.8972 3.99352C39.8725 4.04203 39.7709 4.04289 39.7361 3.97878C39.6227 3.77548 39.5027 3.86606 39.3983 3.89713C39.2528 3.93458 39.0963 3.86948 38.957 4.05983C38.8764 4.16415 38.6613 3.9617 38.5066 3.98817C38.2585 4.03655 38.0213 4.18747 37.7257 3.97766C37.6589 3.93094 37.5508 4.00228 37.4931 4.07823C37.3639 4.2695 37.1662 4.32249 37.0124 4.2272C36.8577 4.14197 36.7424 4.1822 36.6188 4.20135C36.3496 4.25797 36.1051 4.37777 35.8679 4.5287C35.4173 4.79211 34.8891 4.79457 34.4797 5.16328C34.193 5.41122 33.7435 5.32948 33.5043 5.72392C33.3971 5.89689 33.1418 5.80244 32.9568 5.82615C32.6584 5.86992 32.4239 6.10235 32.1491 6.21938C31.8854 6.32726 31.5668 6.36918 31.3278 6.54025C31.0045 6.74422 30.6519 6.93538 30.4631 7.33443C30.267 7.70235 29.811 7.80277 29.4712 8.07632C29.125 8.30866 29.0699 8.80117 28.5782 8.95928C28.469 9.26408 28.2821 9.53128 28.076 9.78659C27.8982 10.0648 27.7369 10.3851 27.6562 10.7128C27.6065 11.2566 27.5936 11.2859 28.1409 11.6304C28.2278 11.679 28.356 11.7212 28.4768 11.7322C29.0114 11.771 29.483 11.611 29.5637 11.395C29.5912 11.3163 29.7871 11.2835 29.627 11.147C29.5629 11.07 29.7928 10.9997 29.8404 10.9228C29.8771 10.8551 29.824 10.769 29.8113 10.6866C29.8131 10.6664 29.815 10.6463 29.8159 10.6362C30.0778 10.5485 30.0376 10.3214 30.1631 10.1704C30.2776 10.0286 30.4992 9.93718 30.6046 9.78435C30.7219 9.6123 30.8886 9.45491 31.0452 9.29661C31.1927 9.12733 31.3493 8.96906 31.5252 8.82268C31.636 8.72112 31.821 8.69741 31.7955 8.42091C31.7864 8.29823 31.9347 8.23057 32.0519 8.2819C32.2276 8.3589 32.2771 8.26189 32.3522 8.21798C32.5244 8.11188 32.6874 7.9948 32.8788 7.90062L33.4246 7.59514C33.3882 7.10442 33.842 7.58255 33.9438 7.35831C33.9814 7.28052 34.0985 7.33184 34.0931 7.16888C34.1005 7.08832 34.1985 7.01606 34.2351 7.06002C34.4117 7.23864 34.495 7.10411 34.6003 7.06297C34.9932 6.87551 35.4226 6.84371 35.778 6.51067C35.9786 6.31578 36.2752 6.29215 36.5517 6.26667C36.8465 6.26317 37.0371 5.95566 37.3154 5.91003C37.4701 5.88357 37.6194 5.80586 37.7969 5.97441C38.2813 5.78517 38.815 5.94566 39.3158 5.91023C39.4595 5.89292 39.5447 5.73824 39.6619 5.67788C39.8094 5.62029 39.9494 5.75496 40.0977 5.79898C40.1279 5.80175 40.1581 5.80451 40.1709 5.77522C40.2351 5.51709 40.388 5.62245 40.5006 5.61245C40.6553 5.58598 40.8128 5.52931 40.9656 5.74636C41.3146 5.37212 41.7291 5.61312 42.1119 5.53643C42.2053 5.51451 42.3288 5.60704 42.3975 5.52193C42.6293 5.20805 42.9057 5.40595 43.1639 5.2468C43.4332 5.0785 43.7444 5.22883 44.0272 5.24455C44.1078 5.25191 44.2351 5.19246 44.268 5.2767C44.3585 5.50837 44.4922 5.37845 44.6085 5.43985C44.7146 5.50033 44.8171 5.60109 44.926 5.63137C45.4945 5.74428 46.0629 5.85721 46.6176 6.00948C46.7467 6.0416 46.8895 6.03435 47.0177 6.07653C47.1367 6.10773 47.2712 6.07942 47.3654 6.27081C47.434 6.40909 47.6144 6.43573 47.7435 6.35615C47.8726 6.27657 47.9615 6.19332 47.9915 6.41946C48.1354 6.17877 48.2443 6.32072 48.3541 6.34092C48.8713 6.4593 49.3179 6.79462 49.8213 6.95236C50.0785 7.02666 50.4714 6.72751 50.6021 7.18625C50.6094 7.21738 50.6707 7.21285 50.7138 7.18633C50.9198 7.04271 51.1047 7.13069 51.1523 7.27719C51.2245 7.48688 51.3554 7.49886 51.4835 7.54105C51.9137 7.72255 52.4025 7.81801 52.808 8.04802C53.1173 8.21847 53.4367 8.38984 53.7112 8.60788C54.0077 8.80762 54.2722 9.02475 54.5147 9.26016C54.5897 9.32795 54.6647 9.39575 54.8167 9.3995C55.0694 9.41246 55.0408 9.72461 55.3786 9.69459C55.2704 10.101 55.578 10.1799 55.6987 10.4143C55.8632 10.9472 56.3756 11.4511 56.0393 12.0194C55.9898 12.1164 56.0712 12.2254 56.0318 12.3233C56.0125 12.4231 56.0609 12.5595 55.9245 12.608C55.6745 12.6765 56.059 12.8031 55.9692 12.8964C55.8355 13.0263 55.8692 13.2122 55.784 13.3668C55.6997 13.5114 55.5275 13.6175 55.5805 13.8153C55.6289 14.0634 55.4586 14.1494 55.2699 14.2134C55.2287 14.2198 55.1949 14.2573 55.2113 14.2994C55.3741 14.6291 55.0024 14.5849 54.9931 14.7973C54.971 15.039 54.8547 15.2009 54.6734 15.2961C54.5864 15.3592 54.4262 15.3344 54.3309 15.3764C54.2247 15.4277 54.0993 15.4669 54.0772 15.5969C54.0093 15.8953 53.7493 15.9629 53.5725 16.1194C53.4497 16.2402 53.2584 16.2227 53.2235 16.4937C53.2124 16.6145 53.0193 16.6171 52.8902 16.585C52.6916 16.5364 52.6154 16.8137 52.3711 16.5985C52.3463 16.7587 52.2575 16.8419 52.1421 16.8821C51.9745 16.9379 51.8234 17.0357 51.6558 17.0915C51.5093 17.139 51.3939 17.2909 51.1825 17.1599C50.9528 17.0069 50.9882 17.5077 50.7713 17.4371C50.7118 17.4215 50.6724 17.5194 50.6147 17.4837C50.3777 17.2995 50.222 17.4478 50.0553 17.4934C49.4492 17.6817 48.8257 17.8379 48.2049 17.9639C47.8341 18.0214 47.4615 17.9873 47.0843 18.0035C47.0742 18.0026 47.0523 18.0209 47.044 17.9999C46.8455 17.7278 46.6724 17.9557 46.4939 17.9089C46.3053 17.8612 46.1323 17.754 45.9456 17.7978C45.7157 17.8682 45.464 17.8452 45.2278 17.8744C45.0016 17.9044 44.77 17.8833 44.542 18.0452C44.324 18.208 44.0613 18.0824 43.815 18.1107C43.7125 18.1216 43.6191 18.2552 43.5275 18.257C43.4167 18.2469 43.3051 18.1351 43.1953 18.1149C43.0854 18.0947 42.971 18.1249 42.8583 18.2465C42.7914 18.3115 42.647 18.0038 42.5361 18.1054C42.2897 18.357 42.0399 18.2022 41.7844 18.2194C41.5693 18.2404 41.3487 18.21 41.1281 18.1797C41.0576 18.1733 40.9725 18.1045 40.9266 18.1613C40.6976 18.445 40.5027 18.2443 40.2894 18.2451C40.0541 18.2642 39.8262 18.2028 39.5983 18.1413C39.5379 18.1358 39.5013 17.9801 39.4491 17.9956C39.0142 18.0879 39.0023 18.1071 38.5502 17.8322C38.4734 17.7846 38.3662 17.8458 38.2728 17.8678C38.2316 17.8741 38.1748 17.94 38.1574 17.908C37.9782 17.5362 37.6284 17.8088 37.4371 17.5679C37.2194 17.284 36.9457 17.2793 36.6857 17.2352C35.839 17.0562 35.1371 16.5148 34.2234 16.5124C33.7933 16.2192 33.2642 16.1201 32.9285 15.6832C32.6247 15.3407 32.2138 15.1711 31.8514 14.9145C31.8322 14.9026 31.8258 14.8614 31.7946 14.8687C31.4787 14.9921 31.4862 14.6882 31.2867 14.6496C31.0761 14.6202 30.9224 14.5249 30.8034 14.382C30.5537 14.1155 30.3991 13.8069 30.1585 13.5513C29.9508 13.2683 30.1204 12.8574 29.9567 12.6495C29.9211 12.4837 29.9138 12.3409 29.8333 12.2219C29.761 12.1239 29.534 12.0523 29.3611 11.9451C29.265 11.8856 29.1735 11.7756 29.0435 11.7536C28.7817 11.7297 28.4796 11.702 28.2315 11.7504C27.8094 11.8133 27.594 12.2811 27.7137 12.6372C27.7302 12.6794 27.7539 12.7526 27.721 12.7801C27.5323 12.9557 27.6356 13.1581 27.7399 13.2387C28.041 13.4998 28.0417 13.8248 28.2201 14.095C28.2292 14.106 28.2375 14.127 28.2466 14.138C28.2448 14.1582 28.2429 14.1783 28.2805 14.2122C28.2887 14.2333 28.307 14.2552 28.3152 14.2763C28.2905 14.3248 28.1833 14.3861 28.1677 14.4456C28.1622 14.506 28.2281 14.5628 28.2628 14.6269C28.2619 14.6369 28.2802 14.6589 28.2591 14.6672C28.043 14.8099 28.2013 14.9665 28.1472 15.1139C28.0931 15.2612 27.9987 15.4049 27.9858 15.5459C27.9554 15.8782 27.9553 16.2133 27.9651 16.5493C27.9651 16.6609 27.8735 16.7744 28.0968 16.8862C28.1938 16.9357 28.1736 17.0456 28.0683 17.0867C27.9099 17.1534 27.9547 17.2185 27.9483 17.289C27.9354 17.4299 27.9417 17.5828 27.9389 17.7247L27.9295 18.1605C28.3734 18.3026 27.7646 18.4094 27.9238 18.556C27.9796 18.6119 27.8916 18.685 28.0491 18.7401C28.1177 18.7666 28.1497 18.861 28.0966 18.8866C27.864 18.9872 27.9665 19.0879 27.9783 19.1804C28.0267 19.5402 28.0319 19.9265 28.3412 20.2087C28.5096 20.3662 28.5717 20.575 28.6018 20.8011C28.652 21.0291 28.9394 21.1062 29.0556 21.2793C29.1178 21.3763 29.2121 21.456 29.1122 21.6601C29.4123 21.9313 29.4533 22.3717 29.7104 22.6693C29.7845 22.7472 29.941 22.7006 30.038 22.7501C30.1561 22.7914 30.1093 22.9699 30.1505 23.0752C30.1486 23.0953 30.177 23.1182 30.2091 23.1008C30.4252 22.9581 30.4205 23.1202 30.4873 23.1669C30.5825 23.2365 30.7006 23.2778 30.6382 23.5158C31.074 23.4135 31.1425 23.7751 31.407 23.8806C31.4757 23.9071 31.4948 24.0307 31.58 23.9878C31.8895 23.8231 31.936 24.0914 32.1842 24.043C32.4231 23.9837 32.5448 24.208 32.7076 24.3143C32.7552 24.3491 32.8587 24.3281 32.8413 24.4077C32.8 24.6375 32.9382 24.5689 32.9821 24.644C33.0361 24.72 33.0553 24.8436 33.1221 24.8904C33.4552 25.1341 33.8011 25.3485 34.1589 25.5437C34.2459 25.5922 34.3466 25.6014 34.4225 25.6592C34.4994 25.7068 34.6029 25.6858 34.6256 25.8808C34.643 26.0246 34.772 26.0567 34.8801 25.9854C34.9882 25.914 35.067 25.8298 35.0458 26.0614C35.1887 25.8308 35.2362 25.9773 35.3159 25.9947C35.6729 26.0883 35.9556 26.4391 36.3355 26.5043C36.5249 26.5419 36.8199 26.2034 36.913 26.6282C36.9204 26.6594 36.9735 26.6338 36.9964 26.6054C37.1448 26.426 37.2821 26.4792 37.3214 26.6047C37.3863 26.7832 37.4888 26.7723 37.5794 26.7806C37.9218 26.8119 38.2789 26.7938 38.6194 26.8452C39.133 26.8922 39.641 26.9996 40.1637 27.0576C40.2443 27.0649 40.3138 27.0814 40.4146 26.979C40.5722 26.8106 40.7121 27.057 40.877 26.808C41.0352 27.188 41.2596 26.9547 41.4564 27.0235C41.9214 27.1574 42.4022 26.8968 42.857 27.2531C42.9421 27.3219 43.0483 27.2706 43.1389 27.2789C43.2295 27.2872 43.3477 27.2168 43.4062 27.3541C43.515 27.6078 43.5619 27.2059 43.6589 27.2554C43.8045 27.3296 43.961 27.283 44.1039 27.2758C44.2458 27.2786 44.4087 27.3849 44.5232 27.2431C44.6716 27.0637 44.7878 27.1251 44.9296 27.2396C44.958 27.2625 44.9974 27.2763 45.0111 27.2369C45.1211 26.9221 45.2803 27.1803 45.3948 27.0385C45.5213 26.8774 45.665 26.8601 45.806 26.873C45.8865 26.8804 45.9679 26.9894 46.0476 27.0068C46.1373 27.0252 46.2352 27.0646 46.2948 26.9685C46.4377 26.7378 46.6235 26.8158 46.781 26.7591C46.8964 26.7189 47.0199 26.8114 47.1015 26.5853C47.1419 26.4773 47.2563 26.5589 47.3405 26.6377C47.4622 26.7503 47.563 26.5361 47.7002 26.8127C47.7442 26.6644 47.8202 26.6104 47.9017 26.6077C48.0243 26.5987 48.1406 26.5484 48.2615 26.5594C48.3723 26.5696 48.4556 26.435 48.602 26.6109C48.7667 26.8087 48.7615 26.3107 48.9033 26.4252C48.9408 26.4591 48.9793 26.3712 49.0159 26.4152C49.1787 26.6332 49.2924 26.5014 49.416 26.4823C49.8499 26.4001 50.2693 26.2557 50.7051 26.1534C50.9551 26.0849 51.227 26.1097 51.4943 26.0733C51.4943 26.0733 51.5163 26.055 51.5255 26.066C51.7359 26.3188 51.7992 26.0707 51.9392 26.0936C52.0802 26.1065 52.245 26.1927 52.3631 26.1223C52.5133 26.0345 52.6992 26.0007 52.8493 25.9129C52.9995 25.8251 53.1653 25.7895 53.2652 25.5854C53.3541 25.3904 53.5738 25.4308 53.7249 25.3329C53.7798 25.2872 53.7836 25.1352 53.8477 25.1005C53.9219 25.0667 54.0482 25.129 54.1306 25.1162C54.2139 25.0934 54.2707 25.0275 54.2836 24.8865C54.2909 24.8059 54.5362 25.0111 54.5481 24.8802C54.5758 24.5781 54.7882 24.5874 54.932 24.4584C55.0538 24.3477 55.1921 24.2791 55.3221 24.1895C55.3652 24.163 55.4558 24.1712 55.4421 24.0989C55.38 23.7785 55.6107 23.8097 55.7124 23.6972C55.826 23.5654 55.9661 23.4767 56.1071 23.3779C56.1401 23.3504 56.2655 23.4228 56.2783 23.3935C56.3911 23.0485 56.3801 23.0576 56.7803 22.9013C56.8435 22.8766 56.8334 22.764 56.85 22.6944C56.8527 22.6642 56.829 22.591 56.8592 22.5937C57.229 22.658 57.1029 22.2606 57.3611 22.2131C57.6705 22.1602 57.7512 21.9442 57.8328 21.7181C57.9758 21.3758 58.2049 21.0922 58.3195 20.7269C58.4534 20.3736 58.5286 19.9947 58.3723 19.5945C58.5081 19.1094 58.3645 18.7916 58.5597 18.4338L58.6687 18.3524ZM56.4082 20.3084C56.257 20.518 56.2687 20.8338 55.9053 20.9224C55.7075 20.9754 55.6909 21.1567 55.6066 21.3013C55.515 21.4147 55.2184 21.3267 55.1927 21.497C55.1587 21.6462 55.2437 21.9383 54.9124 21.7861C54.8822 21.7833 54.862 21.7815 54.8794 21.8136C55.0038 22.1194 54.7566 22.046 54.6952 22.1622C54.6824 22.1915 54.5579 22.1091 54.5744 22.1512C54.6054 22.3673 54.3894 22.2866 54.3856 22.4386C54.37 22.6097 54.3013 22.6948 54.196 22.736C54.1016 22.768 53.9726 22.7359 53.8783 22.7679C53.8151 22.7925 53.7171 22.7531 53.8076 22.9848C53.6576 22.8492 53.62 22.927 53.5559 22.9618L52.7857 23.3889C52.7857 23.3889 52.6905 23.4309 52.674 23.5005C52.6253 23.6991 52.5008 23.7283 52.3242 23.6614C52.2162 23.6211 52.0844 23.6192 52.0724 23.7501C52.0586 23.9011 51.9862 23.9148 51.9221 23.9496C51.7628 24.0264 51.5888 24.0409 51.4377 24.1388C51.2747 24.2559 51.0304 24.0406 50.7962 23.8263C50.6836 23.7246 50.5774 23.6641 50.5673 23.7749C50.5535 23.9259 50.4839 23.9094 50.428 23.9652C50.3612 24.0302 50.3199 24.1483 50.2467 24.172C50.1734 24.1958 50.0691 24.1152 49.9794 24.0968C49.9391 24.0931 49.8906 24.0684 49.8851 24.1288C49.8593 24.4107 49.7247 24.3274 49.6204 24.3584C49.3695 24.437 49.1204 24.4955 48.8632 24.5329C48.616 24.5712 48.3898 24.713 48.0996 24.5544C47.955 24.4701 47.8304 24.611 47.7086 24.7217C47.5749 24.8517 47.4119 24.9688 47.2033 24.6958C47.1493 24.6198 47.087 24.7461 47.0211 24.6893C46.9461 24.6215 46.956 24.9575 46.8517 24.7652C46.8096 24.67 46.7309 24.7541 46.6704 24.7486C46.2924 24.6633 45.9718 25.0604 45.5982 25.0364C45.4975 25.0272 45.3777 24.8944 45.3189 25.2038C45.3162 25.234 45.2759 25.2303 45.2677 25.2093C45.1388 24.7304 45.0701 24.9272 44.982 25.2238C44.9655 25.2933 44.8996 25.2365 44.8584 25.2429C44.5105 25.272 44.1581 25.2398 43.8093 25.279C43.6655 25.2963 43.5447 25.1735 43.4231 25.0608C43.2821 24.9363 43.1358 24.6487 42.9993 24.8089C42.8628 24.969 42.7274 24.8957 42.6028 24.9249C42.5506 24.9404 42.5021 24.9157 42.449 24.9413C42.2439 25.0748 42.2439 25.0748 42.0435 24.9347C42.0242 24.9227 41.9931 24.9301 41.9721 24.9383C41.918 24.974 41.8713 25.0408 41.8292 25.0572C41.4373 25.1229 41.0804 24.806 40.6665 25.1134C40.6445 25.1316 40.6189 25.0785 40.6006 25.0565C40.5539 25.0117 40.5155 24.9878 40.4697 24.9329C40.3554 24.7397 40.1418 25.2989 40.0468 24.8942C39.9432 25.1386 39.8765 24.9802 39.784 24.992C39.7016 25.0048 39.6312 24.8867 39.5515 24.9809C39.4379 25.1127 39.416 24.9076 39.3327 24.9304C39.3016 24.9377 39.2622 24.924 39.2274 24.9716C39.1184 25.1647 39.036 25.0658 38.9692 25.019C38.8933 24.9613 38.8467 24.8047 38.7285 24.9868C38.4594 24.8201 38.1031 25.0515 37.8175 24.9543C37.7187 24.9249 37.641 24.7757 37.544 24.7262C37.4378 24.6657 37.3261 24.6657 37.2172 24.6354L36.9096 24.5565L36.6021 24.4776C36.5133 24.4491 36.4263 24.4006 36.3256 24.3914C36.2249 24.3822 36.083 24.491 36.0327 24.3747C35.9751 24.2273 35.8606 24.2574 35.7737 24.2089C35.6483 24.1365 35.5055 24.1437 35.381 24.0613C35.2373 23.9669 35.0533 23.9805 34.9619 23.7589C34.9034 23.6216 34.8037 23.4906 34.5811 23.7038C34.5481 23.7312 34.5087 23.7175 34.5115 23.6873C34.5364 23.4154 34.3953 23.5142 34.3194 23.4565C34.1858 23.363 33.9688 23.4041 33.9057 23.2054C33.8601 23.0387 33.7383 23.0378 33.666 22.9398C33.5937 22.8418 33.5563 22.6962 33.4602 22.6366C33.3348 22.5642 33.28 22.3866 33.0208 22.5558C32.8873 22.3507 32.5604 22.4832 32.3911 22.3357L31.7651 21.852C31.68 21.7833 31.6856 21.6112 31.4191 21.7493C31.3761 21.7758 31.3404 21.7218 31.3652 21.6733C31.4742 21.4802 31.3708 21.5012 31.3131 21.4655C31.2463 21.4187 31.2464 21.307 31.0697 21.3518C30.9653 21.3829 31.0679 21.1486 31.0121 21.0927C30.9188 21.0029 30.7302 20.9552 30.876 20.6944C30.9117 20.6367 30.832 20.6193 30.7606 20.6229C30.5757 20.6466 30.5126 20.5596 30.5749 20.4333C30.6363 20.317 30.5896 20.2722 30.564 20.2191C30.5147 20.0927 30.3993 20.0212 30.2868 19.9195C30.0489 19.7454 30.1461 19.4599 29.8798 19.2629C29.7013 19.1044 29.934 18.8922 29.6558 18.7144C29.5313 18.632 29.7136 18.5268 29.775 18.4105C29.852 18.2348 29.7779 18.0453 29.8146 17.8658C29.8403 17.6956 29.9677 17.5244 29.9733 17.3523C29.9844 17.1198 30.0147 16.8992 29.8537 16.6611C29.7449 16.5191 29.809 16.3727 29.8833 16.2272C29.9025 16.2391 29.9217 16.251 29.9428 16.2427C30.2688 16.1202 30.2732 16.405 30.4489 16.482C30.6237 16.569 30.8828 16.5115 30.9981 16.6947C31.0429 16.7597 31.1436 16.7689 31.1564 16.8513C31.2121 17.1306 31.3703 17.2872 31.6734 17.193C31.7146 17.1867 31.7613 17.2316 31.7576 17.2718C31.7374 17.4934 31.8912 17.477 31.9863 17.5466C32.1877 17.6767 32.3991 17.8078 32.6133 17.9086C32.8466 18.0213 33.058 18.1523 33.3033 18.2459C33.5193 18.3265 33.7757 18.2992 33.9816 18.379L35.4351 18.9181C35.9047 19.1134 36.4219 19.12 36.8474 19.4636C37.1027 19.6697 37.4415 19.6296 37.7408 19.6875C38.0109 19.7325 38.2048 20.0548 38.4932 20.0101C38.7614 19.9636 39.0444 19.7559 39.2548 20.1204C39.2722 20.1525 39.3225 20.1571 39.3354 20.1278C39.5855 19.8359 39.7949 20.0987 40.0211 20.0687C40.0724 20.0632 40.141 20.2015 40.1739 20.174C40.3928 20.0011 40.5849 20.2319 40.7782 20.1176C40.9824 19.9941 41.1756 19.9915 41.3651 20.0291C41.5253 20.0539 41.6772 20.1693 41.8474 20.1951C41.9573 20.2153 42.0817 20.2977 42.1734 20.0726C42.2667 20.274 42.4031 20.2256 42.524 20.2367C43.0394 20.2635 43.5493 20.239 44.0574 20.2347C44.1379 20.2421 44.2304 20.2303 44.3064 20.1763C44.5253 20.0034 44.7276 20.0117 44.9601 20.1345C45.1056 20.2088 45.3143 20.2583 45.4179 20.1257C45.5425 19.9847 45.6532 19.9949 45.7759 19.9858C46.0643 19.9411 46.3582 19.9476 46.6393 19.8718C46.9616 19.7896 47.2635 20.0406 47.5573 20.2706C47.7092 20.386 47.8657 20.4511 47.9381 20.3257C48.0233 20.171 48.1341 20.1812 48.2403 20.13C48.3685 20.0605 48.4812 19.9388 48.6158 19.9105C48.7504 19.8821 48.9069 19.9472 49.0479 19.9601C49.1083 19.9656 49.1989 19.9739 49.2145 19.9144C49.3227 19.6197 49.5396 19.6903 49.7164 19.6456C50.144 19.5222 50.5734 19.3787 51.0101 19.2664C51.4368 19.1531 51.805 18.9024 52.2993 18.9375C52.5529 18.9404 52.7444 18.7345 52.934 18.5488C53.1456 18.3447 53.3782 18.1324 53.7727 18.2599C53.8817 18.2902 53.9477 18.1236 54.0694 18.1246C54.2104 18.1375 54.098 17.8124 54.3112 17.9233C54.4174 17.9838 54.5017 17.8392 54.5969 17.7971C54.9037 17.6627 55.1583 17.4322 55.3937 17.1897C55.6209 16.9262 55.828 16.6608 56.0908 16.4513C56.2236 16.3314 56.4727 16.273 56.3694 15.9589C56.3621 15.9278 56.407 15.8811 56.4262 15.893C56.4262 15.893 56.4262 15.893 56.4363 15.894C56.4628 15.937 56.4893 15.98 56.5259 16.024C56.5708 16.089 56.2384 16.1703 56.5258 16.2474C56.0515 16.4375 56.9018 16.6879 56.3863 16.8845C56.3442 16.9009 56.3496 16.9522 56.3789 16.965C56.6746 17.0632 56.4722 17.1665 56.5335 17.2736C56.5948 17.3808 56.7778 17.4889 56.6962 17.6033C56.6624 17.6408 56.7182 17.6967 56.6641 17.7324C56.4599 17.8558 56.4488 17.9767 56.6612 18.0976C56.6905 18.1105 56.6758 18.1599 56.6346 18.1663C56.4267 18.2184 56.521 18.2981 56.5145 18.3686C56.5016 18.5095 56.508 18.6624 56.5051 18.8043C56.5096 18.9773 56.4794 19.0863 56.4793 19.198C56.4902 19.3005 56.5899 19.4315 56.5899 19.5432C56.5467 19.7931 56.4825 20.0512 56.3597 20.2837L56.4082 20.3084Z" fill="#B09151"/>
</g>
<defs>
<clipPath id="clip0_2211_169314">
<rect width="70" height="54" fill="white"/>
</clipPath>
<clipPath id="clip1_2211_169314">
<rect width="56.0314" height="24.5565" fill="white" transform="translate(6.1875 26.5388) rotate(-6.70178)"/>
</clipPath>
</defs>
</svg>
