<svg width="94" height="32" viewBox="0 0 94 32" fill="none" xmlns="http://www.w3.org/2000/svg">
<g clip-path="url(#clip0_2011_29508)">
<path d="M89.3009 0.391846H4.70091C2.32148 0.391846 0.392578 2.32075 0.392578 4.70018V26.6335C0.392578 29.0129 2.32148 30.9418 4.70091 30.9418H89.3009C91.6803 30.9418 93.6092 29.0129 93.6092 26.6335V4.70018C93.6092 2.32075 91.6803 0.391846 89.3009 0.391846Z" fill="black"/>
<path d="M89.3009 0.391846H4.70091C2.32148 0.391846 0.392578 2.32075 0.392578 4.70018V26.6335C0.392578 29.0129 2.32148 30.9418 4.70091 30.9418H89.3009C91.6803 30.9418 93.6092 29.0129 93.6092 26.6335V4.70018C93.6092 2.32075 91.6803 0.391846 89.3009 0.391846Z" stroke="#A6A6A6" stroke-width="1.3"/>
<path d="M13.9481 15.2451L6.33789 23.5047C6.3386 23.5062 6.3386 23.5084 6.33932 23.5099C6.57306 24.4067 7.37361 25.0668 8.32427 25.0668C8.7045 25.0668 9.06123 24.9615 9.36712 24.7773L9.3914 24.7627L17.9573 19.7082L13.9481 15.2451Z" fill="#EA4335"/>
<path d="M21.6473 13.8386L21.6401 13.8335L17.9419 11.6414L13.7754 15.4328L17.9568 19.7073L21.6351 17.5372C22.2798 17.1805 22.718 16.4853 22.718 15.6842C22.718 14.8875 22.2863 14.196 21.6473 13.8386Z" fill="#FBBC04"/>
<path d="M6.33762 7.82812C6.29188 8.00061 6.26758 8.18187 6.26758 8.36901V22.9645C6.26758 23.1516 6.29188 23.3329 6.33834 23.5047L14.2095 15.4562L6.33762 7.82812Z" fill="#4285F4"/>
<path d="M14.0046 15.6668L17.9431 11.64L9.38713 6.56726C9.07622 6.37648 8.71307 6.26685 8.325 6.26685C7.37433 6.26685 6.57234 6.92835 6.33861 7.82595L6.33789 7.82814L14.0046 15.6668Z" fill="#34A853"/>
<path d="M34.1616 9.17295C34.1616 9.95628 33.9292 10.5804 33.4644 11.0451C32.9422 11.5987 32.2555 11.8754 31.4042 11.8754C30.5896 11.8754 29.9002 11.5934 29.3362 11.0294C28.7722 10.4654 28.4902 9.77087 28.4902 8.94578C28.4902 8.1207 28.7722 7.42611 29.3362 6.86211C29.9002 6.29811 30.5896 6.01611 31.4042 6.01611C31.8168 6.01611 32.2058 6.08922 32.5714 6.23545C32.937 6.38167 33.2372 6.58795 33.4722 6.85428L32.9552 7.37128C32.7829 7.16239 32.5583 7.0005 32.2816 6.88561C32.01 6.7655 31.7176 6.70545 31.4042 6.70545C30.7932 6.70545 30.2762 6.91695 29.8532 7.33995C29.4355 7.76817 29.2266 8.30345 29.2266 8.94578C29.2266 9.58811 29.4355 10.1234 29.8532 10.5516C30.2762 10.9746 30.7932 11.1861 31.4042 11.1861C31.963 11.1861 32.4278 11.0294 32.7986 10.7161C33.1693 10.4028 33.3835 9.97195 33.4409 9.42361H31.4042V8.74995H34.1224C34.1485 8.8962 34.1616 9.0372 34.1616 9.17295ZM38.3115 6.14145V6.83078H35.7578V8.60895H38.0608V9.28261H35.7578V11.0608H38.3115V11.7501H35.0372V6.14145H38.3115ZM41.1941 6.83078V11.7501H40.4734V6.83078H38.9068V6.14145H42.7608V6.83078H41.1941ZM45.955 11.7501H45.2343V6.14145H45.955V11.7501ZM48.9969 6.83078V11.7501H48.2762V6.83078H46.7096V6.14145H50.5635V6.83078H48.9969ZM58.3752 8.94578C58.3752 9.77611 58.0984 10.4707 57.5449 11.0294C56.9861 11.5934 56.3019 11.8754 55.4925 11.8754C54.6779 11.8754 53.9938 11.5934 53.4402 11.0294C52.8866 10.4707 52.6099 9.77611 52.6099 8.94578C52.6099 8.11545 52.8866 7.42089 53.4402 6.86211C53.9938 6.29811 54.6779 6.01611 55.4925 6.01611C56.3072 6.01611 56.9913 6.30072 57.5449 6.86995C58.0984 7.42872 58.3752 8.1207 58.3752 8.94578ZM53.3462 8.94578C53.3462 9.59336 53.5499 10.1286 53.9572 10.5516C54.3698 10.9746 54.8815 11.1861 55.4925 11.1861C56.1035 11.1861 56.6127 10.9746 57.02 10.5516C57.4326 10.1339 57.6389 9.59853 57.6389 8.94578C57.6389 8.29303 57.4326 7.75772 57.02 7.33995C56.6127 6.91695 56.1035 6.70545 55.4925 6.70545C54.8815 6.70545 54.3698 6.91695 53.9572 7.33995C53.5499 7.76295 53.3462 8.2982 53.3462 8.94578ZM59.9463 11.7501H59.2256V6.14145H60.103L62.829 10.5046H62.8603L62.829 9.42361V6.14145H63.5497V11.7501H62.7977L59.9463 7.17545H59.915L59.9463 8.25645V11.7501Z" fill="white"/>
<path d="M73.257 24.6043H74.5329V15.9786H73.257V24.6043ZM84.7492 19.0857L83.2867 22.8255H83.2429L81.7248 19.0857H80.35L82.6264 24.3125L81.3292 27.2201H82.6593L86.1678 19.0857H84.7492ZM77.5135 23.6245C77.095 23.6245 76.5124 23.4141 76.5124 22.8917C76.5124 22.2265 77.2379 21.9712 77.8649 21.9712C78.4254 21.9712 78.6901 22.0934 79.0309 22.2597C78.9314 23.0587 78.2499 23.6245 77.5135 23.6245ZM77.6673 18.8973C76.7436 18.8973 75.7862 19.3078 75.3911 20.218L76.5234 20.6948C76.7654 20.218 77.216 20.062 77.6892 20.062C78.3494 20.062 79.0199 20.4615 79.0309 21.1722V21.2606C78.7998 21.1274 78.3053 20.928 77.7002 20.928C76.4796 20.928 75.2365 21.6049 75.2365 22.8697C75.2365 24.0241 76.2375 24.7678 77.3589 24.7678C78.2171 24.7678 78.6901 24.3794 78.987 23.9239H79.0309V24.5899H80.2623V21.2826C80.2623 19.7515 79.1296 18.8973 77.6673 18.8973ZM69.7821 20.1359H67.9675V17.1792H69.7821C70.736 17.1792 71.2775 17.9762 71.2775 18.6572C71.2775 19.3258 70.736 20.1359 69.7821 20.1359ZM69.7493 15.9786H66.6922V24.6043H67.9675V21.3364H69.7493C71.1633 21.3364 72.5534 20.3028 72.5534 18.6572C72.5534 17.0116 71.1633 15.9786 69.7493 15.9786ZM53.0785 23.6259C52.1972 23.6259 51.4594 22.8814 51.4594 21.8588C51.4594 20.8252 52.1972 20.0689 53.0785 20.0689C53.9489 20.0689 54.6313 20.8252 54.6313 21.8588C54.6313 22.8814 53.9489 23.6259 53.0785 23.6259ZM54.5438 19.5687H54.4994C54.2128 19.2244 53.6625 18.9132 52.9684 18.9132C51.514 18.9132 50.1814 20.2021 50.1814 21.8588C50.1814 23.5038 51.514 24.7823 52.9684 24.7823C53.6625 24.7823 54.2128 24.4711 54.4994 24.1151H54.5438V24.5381C54.5438 25.6607 53.9489 26.261 52.9903 26.261C52.2081 26.261 51.7233 25.6938 51.525 25.2157L50.4125 25.6828C50.7319 26.4611 51.5804 27.4167 52.9903 27.4167C54.4884 27.4167 55.7555 26.5274 55.7555 24.36V19.0905H54.5438V19.5687ZM56.6368 24.6043H57.9148V15.978H56.6368V24.6043ZM59.7979 21.7587C59.765 20.6251 60.6683 20.0468 61.3178 20.0468C61.8252 20.0468 62.2546 20.3022 62.3975 20.6693L59.7979 21.7587ZM63.7636 20.7803C63.5216 20.1249 62.7831 18.9132 61.2741 18.9132C59.776 18.9132 58.5315 20.1021 58.5315 21.8478C58.5315 23.4927 59.765 24.7823 61.417 24.7823C62.7503 24.7823 63.5216 23.9598 63.841 23.4817L62.8495 22.8144C62.5192 23.3037 62.0673 23.6259 61.417 23.6259C60.7674 23.6259 60.3045 23.3257 60.0071 22.7372L63.8956 21.1136L63.7636 20.7803ZM32.7838 19.8136V21.0584H35.7356C35.6474 21.7587 35.4162 22.27 35.0641 22.6254C34.634 23.0594 33.9619 23.5376 32.7838 23.5376C30.9656 23.5376 29.5447 22.0589 29.5447 20.2249C29.5447 18.3902 30.9656 16.9122 32.7838 16.9122C33.7642 16.9122 34.4801 17.3013 35.0087 17.8016L35.8792 16.9232C35.1406 16.2119 34.1609 15.6667 32.7838 15.6667C30.2942 15.6667 28.2012 17.7126 28.2012 20.2249C28.2012 22.7372 30.2942 24.7823 32.7838 24.7823C34.1273 24.7823 35.1406 24.3373 35.9338 23.5038C36.7496 22.6813 37.0025 21.5255 37.0025 20.5913C37.0025 20.3022 36.9807 20.0358 36.9363 19.8136H32.7838ZM40.3591 23.6259C39.4778 23.6259 38.7174 22.8924 38.7174 21.8478C38.7174 20.7914 39.4778 20.0689 40.3591 20.0689C41.2398 20.0689 42.0002 20.7914 42.0002 21.8478C42.0002 22.8924 41.2398 23.6259 40.3591 23.6259ZM40.3591 18.9132C38.7502 18.9132 37.4395 20.1469 37.4395 21.8478C37.4395 23.5376 38.7502 24.7823 40.3591 24.7823C41.9674 24.7823 43.2781 23.5376 43.2781 21.8478C43.2781 20.1469 41.9674 18.9132 40.3591 18.9132ZM46.727 23.6259C45.8457 23.6259 45.0853 22.8924 45.0853 21.8478C45.0853 20.7914 45.8457 20.0689 46.727 20.0689C47.6084 20.0689 48.3681 20.7914 48.3681 21.8478C48.3681 22.8924 47.6084 23.6259 46.727 23.6259ZM46.727 18.9132C45.1188 18.9132 43.8081 20.1469 43.8081 21.8478C43.8081 23.5376 45.1188 24.7823 46.727 24.7823C48.3353 24.7823 49.646 23.5376 49.646 21.8478C49.646 20.1469 48.3353 18.9132 46.727 18.9132Z" fill="white"/>
</g>
<defs>
<clipPath id="clip0_2011_29508">
<rect width="94" height="31.3333" fill="white"/>
</clipPath>
</defs>
</svg>
