<svg width="95" height="40" viewBox="0 0 95 40" fill="none" xmlns="http://www.w3.org/2000/svg">
<path d="M70.9403 39.14C69.7703 39.28 68.5203 38.88 67.2003 38.95C65.8803 39.02 64.5403 38.98 63.2103 38.95C62.5403 38.95 61.9003 39 61.2503 39.12C60.6203 39.23 59.9003 38.98 59.3003 39.3C59.2503 39.33 59.1203 39.3 59.0303 39.3C57.4203 39.3 55.7803 39.44 54.2203 39.26C52.4003 39.06 50.6103 39.2 48.8103 39.12C45.8803 39.5 42.9103 39.22 39.9703 39.28C39.0503 39.3 38.1203 39.37 37.1803 39.14C36.3703 38.94 35.3903 39.29 34.5503 38.95C34.4803 38.92 34.3103 39 34.1903 39.01C33.8903 39.05 33.5803 39.14 33.3003 39.11C31.6103 38.92 31.6103 38.92 30.2003 39.09C30.0303 39.11 29.8303 38.97 29.6303 38.96C28.8503 38.94 28.0703 38.92 27.3003 38.96C26.6003 38.99 25.8603 38.79 25.2003 39.12C25.0603 39.19 24.7503 39.13 24.5203 39.13C23.7903 39.13 23.0503 39.11 22.3203 39.13C21.4803 39.16 20.6303 39.01 19.8103 39.29C19.4503 39.41 18.9403 39.1 18.7003 39.14C18.2803 39.25 17.8803 39.26 17.4703 39.21C17.0603 39.18 16.6903 38.98 16.2903 38.92C15.9503 38.86 15.5803 38.96 15.2203 38.91C14.3603 38.71 13.4603 38.41 12.6603 38.23C12.2203 38.15 11.8103 38.04 11.4103 37.89C11.0203 37.71 10.6403 37.53 10.2503 37.35C9.84026 37.18 9.46026 36.94 9.08026 36.7C8.70026 36.46 8.31026 36.25 7.94026 35.99C7.37026 35.59 6.93026 35.14 6.50026 34.65C6.09026 34.15 5.35026 33.86 5.21026 33.19C5.21026 33.16 5.15026 33.12 5.11026 33.08C4.69026 32.57 4.25026 32.07 3.90026 31.5C3.52026 30.96 3.16026 30.41 2.84026 29.83C1.68026 27.88 0.81026 25.74 0.39026 23.5C0.31026 22.87 0.0502603 22.21 0.29026 21.58C0.34026 21.45 0.24026 21.19 0.28026 21.02C0.40026 20.4 -0.14974 19.91 0.14026 19.3C0.39026 18.78 0.25026 18.2 0.38026 17.66C0.51026 17.05 0.53026 16.42 0.71026 15.82C0.83026 15.41 0.88026 15.02 0.83026 14.63C1.23026 14.26 1.31026 13.57 1.62026 13.1C1.82026 12.78 2.16026 12.33 2.18026 12.04C2.22026 11.4 2.58026 10.92 2.88026 10.41C3.28026 9.62 3.88026 8.98 4.24026 8.15C4.38026 7.79 4.78026 7.47 5.08026 7.17C5.37026 6.89 5.70026 6.68 6.02026 6.43C6.58026 5.95 7.09026 5.44 7.60026 4.89C7.81026 4.64 8.12026 4.46 8.41026 4.26C8.72026 4.08 9.01026 3.89 9.20026 3.59C9.25026 3.51 9.44026 3.41 9.57026 3.37C10.2403 3.11 10.8503 2.96 11.4703 2.44C12.0003 2.06 12.8103 1.89 13.5003 1.66C14.2603 1.48 15.0103 1.15 15.7803 1.16C16.2603 1.14 16.4503 0.680003 17.0503 0.860003C17.3703 0.990003 17.9703 0.880003 18.4503 0.860003C18.9503 0.840003 19.4203 0.780003 19.8603 0.840003C22.1503 1.19 24.4803 0.900003 26.7803 1.01C27.7503 1.06 28.7703 0.800003 29.7003 1.18C30.3903 0.900003 31.2303 1.14 31.8903 0.950003C32.3103 0.830003 32.6703 0.840003 33.0603 0.840003H40.6403C42.3003 0.810003 43.9603 0.700003 45.6203 0.670003C46.0903 0.660003 46.5403 0.630003 47.0503 0.800003C47.4203 0.930003 48.1003 0.940003 48.6003 0.720003C48.7003 0.680003 48.8903 0.640003 48.9703 0.670003C49.9203 1.08 50.8503 0.650003 51.7803 0.640003C53.6003 0.610003 55.3703 0.870003 57.1803 0.840003C57.5603 0.840003 58.0203 0.960003 58.3103 0.680003C58.6103 0.910003 58.8303 0.800003 59.1903 0.690003C59.5703 0.580003 60.1903 0.570003 60.5203 0.700003C60.9703 0.880003 61.3903 0.810003 61.8203 0.830003C62.2803 0.850003 62.7403 0.830003 63.2003 0.830003L69.0103 1.01C69.3903 1.02 69.7603 1.13 70.1403 1.18C70.5203 1.23 70.9303 1.1 71.2903 1.33C71.4303 1.42 71.8103 1.35 72.0903 1.35C73.0503 1.35 74.1003 1.5 74.9603 1.31C75.8503 1.19 76.7903 1.39 77.6503 1.22C77.8903 1.16 78.3103 1.32 78.6403 1.36C79.3203 1.45 79.9703 1.7 80.6303 1.88C81.2703 2.13 81.9203 2.33 82.6103 2.42C82.9603 2.84 83.5003 3.05 84.0003 3.28C84.3603 3.47 84.6803 3.83 85.1103 3.78C85.1603 3.78 85.2803 3.85 85.3503 3.9C85.7503 4.19 85.9803 4.62 86.4603 4.91C86.8503 5.15 87.2503 5.25 87.6203 5.6C89.0203 6.8 89.9103 8.38 91.0003 9.82C91.0703 10.36 91.4303 10.8 91.6603 11.3C91.8703 11.74 92.1303 12.14 92.3903 12.55C92.6203 12.97 92.8303 13.42 92.9803 13.9C93.1403 14.35 93.2103 14.85 93.3303 15.32C93.4503 15.79 93.5903 16.25 93.7103 16.69C93.8303 17.07 93.9303 17.45 94.0103 17.84C94.0903 18.23 94.0903 18.62 94.1103 19.02C94.1803 19.81 94.1103 20.59 94.0803 21.37C94.0803 21.77 94.1103 22.24 93.8003 22.57C93.7303 22.65 93.6903 23.08 93.7403 23.21C93.8503 23.49 93.7303 23.78 93.7103 24.03C93.6703 24.76 92.9403 25.27 93.1403 26.06C92.8703 26.8 92.6203 27.53 92.2503 28.23C91.9303 28.95 91.5303 29.62 91.1103 30.27C90.9303 30.58 90.7603 30.9 90.3903 31.1C90.1503 31.24 89.7803 31.69 89.7103 31.96C89.5103 32.57 89.0103 32.95 88.6203 33.39C87.3403 34.66 85.9203 35.8 84.3303 36.66C83.6303 37.02 82.8803 37.29 82.1303 37.53C81.3703 37.75 80.6503 38.23 79.8303 38.17C79.7703 38.17 79.7003 38.2 79.6303 38.22C79.3403 38.33 79.0503 38.5 78.7403 38.54C78.3403 38.59 77.7903 38.46 77.5803 38.58C77.1603 38.83 76.8403 38.68 76.5003 38.66C75.5103 38.66 74.9103 38.21 75.0303 37.63C75.0503 37.5 75.1603 37.36 75.2903 37.25C75.6903 36.92 75.8803 36.76 76.1303 36.68C76.3803 36.59 76.7003 36.6 77.3203 36.47C78.8803 36.25 80.5003 36.09 81.9403 35.32C83.0403 35.17 83.9303 34.42 84.8503 33.85C85.8103 33.25 86.8903 32.67 87.5203 31.71C88.1503 30.77 88.8503 29.94 89.4303 29.01C89.6403 28.65 89.9103 28.32 90.1303 27.97C90.3403 27.61 90.5603 27.25 90.7603 26.87C90.9703 26.48 91.0803 26.05 91.2303 25.64C91.3903 25.23 91.5103 24.81 91.6503 24.4C91.8303 23.9 92.1903 23.39 92.1303 22.86C92.0703 21.73 92.3603 20.61 92.2003 19.53C92.0703 18.78 92.0203 18.04 91.8703 17.31C91.7803 16.57 91.5603 15.85 91.3303 15.16C91.2103 14.78 91.0003 14.44 90.8503 14.08C90.6903 13.72 90.5503 13.36 90.3603 13.01C90.2103 12.68 90.0503 12.38 89.9903 11.97C89.9103 11.56 89.5903 11.06 89.1903 10.74C89.0303 10.6 88.7803 10.36 88.7303 10.19C88.6203 9.82 88.4303 9.5 88.2003 9.19C87.9603 8.9 87.6703 8.64 87.4203 8.37C87.1103 8.01 86.8803 7.48 86.6003 7.36C86.1203 7.17 85.8703 6.8 85.4803 6.56C85.2103 6.38 84.8803 6.23 84.7803 5.87C84.7603 5.77 84.5103 5.58 84.3903 5.58C83.7603 5.56 83.3403 5.08 82.8103 4.84C82.1803 4.55 81.5603 4.23 80.8903 4.02C80.5603 3.91 80.2403 3.76 79.9103 3.67L78.9003 3.4C77.7803 3.12 76.6503 3.29 75.5203 3.14C74.8503 3.38 73.9603 3.29 73.1903 3.28C72.5803 3.28 71.9803 3.17 71.3803 3.12C70.7803 3.07 70.1803 3.12 69.5403 2.98C68.7503 2.82 67.8103 2.96 66.9403 2.93C66.4703 2.91 65.9403 3.08 65.5103 2.8C65.4503 2.76 65.2303 2.77 65.1503 2.8C64.5303 3.1 63.7403 3.02 63.1903 2.9C62.2803 2.71 61.4103 2.8 60.5303 2.77C59.8003 2.77 59.0603 2.77 58.3303 2.76C57.8003 2.74 57.2903 2.8 56.7403 2.68C56.3203 2.58 55.7603 2.75 55.2503 2.77C54.7503 2.79 54.2403 2.77 53.7303 2.77H50.4203C49.8203 2.77 49.2203 2.79 48.6303 2.77C48.0703 2.74 47.5103 2.62 46.9503 2.61C45.3703 2.57 43.8303 2.9 42.2403 2.78C41.8103 2.99 41.4003 2.84 40.9503 2.8C40.5403 2.76 40.0503 2.67 39.6403 2.89C39.5303 2.95 39.3103 2.94 39.1403 2.95C38.7603 2.98 38.4303 2.77 37.9703 2.93C37.6503 3.04 37.1603 2.93 36.7503 2.96C36.3203 2.98 35.8303 2.83 35.4703 3.1C34.7103 2.69 33.9903 3.32 33.2303 3.13C32.9903 3.07 32.7303 3.05 32.4803 3.01C32.3603 2.99 32.2103 2.94 32.1103 2.96C30.1003 3.33 28.0503 3.03 26.0203 3.13C25.7703 3.14 25.5303 3.22 25.2803 3.26C25.1603 3.28 25.0303 3.29 24.9103 3.27C23.8003 3.12 23.8003 3.13 22.7703 3.27C22.5103 3.31 22.2303 3.27 21.9603 3.29C21.2603 3.33 20.5803 3.26 19.8503 3.43C19.1003 3.59 18.4003 3.33 17.6803 3.23C17.0403 3.13 16.4203 3.15 15.7303 3.25C14.0403 3.64 12.3803 4.21 10.8503 5.03C10.6603 5.14 10.3803 5.25 10.3103 5.37C10.0403 5.89 9.78026 6.25 9.12026 6.14C9.09026 6.14 8.94026 6.24 8.93026 6.29C8.78026 6.8 8.24026 6.99 7.89026 7.32C6.47026 8.5 5.60026 10.11 4.60026 11.6C4.42026 11.83 4.30026 12.22 4.14026 12.33C3.79026 12.56 4.03026 12.88 3.82026 13.12C3.63026 13.33 3.61026 13.74 3.46026 13.92C3.17026 14.24 2.96026 14.62 2.83026 15.02C2.72026 15.43 2.67026 15.85 2.62026 16.23C2.54026 16.94 2.59026 17.68 2.37026 18.29C2.24026 18.91 2.15026 19.54 2.15026 20.16C2.20026 20.79 2.19026 21.42 2.28026 22.04C2.38026 22.68 2.43026 23.33 2.62026 23.94L2.87026 24.88C2.97026 25.19 3.10026 25.48 3.21026 25.79C3.31026 26.04 3.37026 26.31 3.47026 26.55C3.59026 26.79 3.74026 27.01 3.97026 27.17C4.06026 27.23 4.14026 27.46 4.19026 27.62C4.30026 28.01 4.44026 28.38 4.64026 28.72C4.85026 29.06 5.13026 29.34 5.42026 29.62C5.64026 29.85 5.79026 30.11 6.10026 30.28C6.31026 30.41 6.54026 30.76 6.68026 31.14C6.94026 31.91 7.34026 32.66 8.12026 33.28C8.85026 33.77 9.52026 34.35 10.2903 34.76C10.6003 34.95 10.8903 35.15 11.3203 35.18C11.7003 35.21 12.1903 35.54 12.5503 35.78C13.1303 36.13 13.7003 36.44 14.4003 36.41C14.6403 36.41 14.9003 36.48 15.1403 36.54C15.5103 36.65 15.8803 36.7 16.2603 36.76C16.6403 36.81 17.0103 36.89 17.3903 36.92C18.1603 36.95 18.8803 37.02 19.7103 37C20.1003 37 20.5103 36.95 20.8203 37.16C21.0803 36.91 21.4803 36.99 21.8203 37.01C22.3403 37.04 22.8403 37.15 23.3603 37.17C23.9703 37.2 24.5703 37.17 25.1903 37.02C25.7503 36.88 26.4403 37.11 27.0503 36.9C27.1603 36.86 27.4003 37 27.5703 36.99C28.2703 36.94 29.0203 37.17 29.6703 36.83C29.7203 36.8 29.8703 36.8 29.9403 36.83C30.7403 37.18 31.5403 36.92 32.3303 36.83C33.2003 36.73 33.9903 37.02 34.8303 37.01C35.7903 37.01 36.8003 36.9 37.7103 37.03C39.2903 37.26 40.8603 37.15 42.4303 37.17C44.0403 37.2 45.6503 37.19 47.2503 37.17C47.9503 37.16 48.6403 37.04 49.3403 37.01C50.1203 36.98 50.9003 37.01 51.6803 37.01H53.8803C54.2203 37.02 54.6103 36.92 54.9103 37.14C54.9703 37.18 55.1803 37.2 55.2703 37.17C55.9003 36.94 56.5103 36.95 57.1503 37.17C57.3303 37.23 57.6003 37.17 57.8203 37.2C58.4203 37.29 58.9403 37.08 59.5003 37.02C60.0103 36.96 60.6003 37.18 61.0503 36.86C61.1103 36.82 61.3603 36.81 61.4403 36.86C62.4703 37.4 63.6503 36.5 64.6703 37C65.0803 36.69 65.5003 37.04 65.8303 37C66.3003 36.93 66.7503 36.85 67.2403 36.86C67.7003 36.86 68.1603 36.88 68.6203 36.86C69.4603 36.82 70.3103 36.96 71.1403 36.71C71.4203 36.63 71.9403 36.57 72.2903 36.82C72.3503 36.86 72.5303 36.86 72.6503 36.85C73.5703 36.76 74.6903 37.02 74.9203 37.47C75.0503 37.73 75.0403 38.05 74.9303 38.33C74.8803 38.47 74.4803 38.55 74.2203 38.65C73.7803 38.82 73.3603 39.05 72.8803 39.12C72.3103 39.2 71.6903 39.14 70.9503 39.14H70.9403Z" fill="#9A0036"/>
</svg>
