<svg width="300" height="300" viewBox="0 0 300 300" fill="none" xmlns="http://www.w3.org/2000/svg">
<g clip-path="url(#clip0_1676_140699)">
<path d="M141.249 53.2886C162.24 43.721 187.747 53.7456 201.779 71.5982C222.036 62.2752 249.168 65.3718 263.719 83.8472C244.189 77.5228 224.637 79.4319 207.789 88.5085L214.628 102.763L176.835 93.3311L188.417 83.7139C177.361 68.0253 161.12 56.7719 141.259 53.2833L141.249 53.2886Z" fill="white"/>
<path d="M141.113 54.2205C140.961 54.0686 141.101 53.8052 141.547 53.9615L141.798 54.4886L141.12 54.2228L141.113 54.2205Z" fill="white"/>
<path d="M144.332 53.983C144.834 54.304 145.354 54.8613 144.924 55.1958C144.492 54.6234 144.326 54.7969 143.862 54.1573C143.414 54.0086 143.039 54.1451 143.088 54.3326C142.944 54.183 142.365 54.2924 142.172 53.9551C142.82 53.7179 143.592 53.855 144.31 54.306C144.498 54.2378 144.364 54.0829 144.338 53.9929L144.332 53.983Z" fill="white"/>
<path d="M183.549 76.5061L183.305 76.3189C183.379 76.3571 183.462 76.4228 183.549 76.5061Z" fill="white"/>
<path d="M181.288 93.4987C181.164 93.4618 181.137 93.4046 181.158 93.3612C181.253 93.414 181.332 93.4622 181.288 93.4987Z" fill="white"/>
<path d="M185.926 94.1255C185.821 94.1109 185.738 94.1031 185.641 94.0907C185.755 94.0749 185.865 94.0744 185.926 94.1255Z" fill="white"/>
<path d="M183.548 76.5071L184.166 76.9861C184.085 77.1269 183.821 76.769 183.548 76.5071Z" fill="white"/>
<path d="M150.091 56.7035C149.949 56.637 149.837 56.5544 149.743 56.4689C149.861 56.5286 149.974 56.5783 150.095 56.6304C150.088 56.6532 150.09 56.6784 150.099 56.7059L150.091 56.7035Z" fill="white"/>
<path d="M174.714 67.4652L174.536 67.314C174.517 67.2339 174.509 67.1409 174.501 67.0479C174.572 67.1845 174.644 67.321 174.714 67.4652Z" fill="white"/>
<path d="M166.789 61.7829C166.989 61.8832 166.843 62.2601 166.823 62.4521C166.804 62.2486 166.711 62.0975 166.56 61.9707C166.595 61.9068 166.671 61.8467 166.789 61.7829Z" fill="white"/>
<path d="M152.598 55.8205L152.36 55.676C152.426 55.712 152.527 55.7746 152.598 55.8205Z" fill="white"/>
<path d="M179.979 72.0513C180.031 72.0172 180.092 72.0104 180.141 72.0166C180.105 72.0554 180.044 72.0621 179.979 72.0513Z" fill="white"/>
<path d="M151.352 48.3326C151.352 48.3326 151.357 48.3753 151.366 48.4027C151.298 48.3744 151.281 48.3446 151.352 48.3326Z" fill="white"/>
<path d="M141.308 53.3848L141.461 53.3478C141.511 53.4119 141.561 53.476 141.593 53.5432L141.315 53.3872L141.308 53.3848Z" fill="white"/>
<path d="M194.628 95.7721C194.628 95.7721 194.605 95.7652 194.587 95.7683C194.369 95.671 194.494 95.7079 194.628 95.7721Z" fill="white"/>
<path d="M250.314 79.1312C249.349 79.3572 251.774 79.8009 250.337 79.9947C250.484 79.857 249.133 79.1944 250.314 79.1312Z" fill="white"/>
<path d="M150.337 56.7268C150.461 56.7636 150.582 56.8157 150.701 56.8426C150.527 56.7996 150.42 56.7597 150.337 56.7268Z" fill="white"/>
<path d="M250.336 80.002L250.186 80.0238C250.247 80.017 250.283 80.011 250.336 80.002Z" fill="white"/>
<path d="M211.352 100.187C211.452 100.283 211.508 100.357 211.557 100.421C211.498 100.362 211.448 100.298 211.352 100.187Z" fill="white"/>
<path d="M199.497 97.8162L199.875 97.8535C199.724 97.8502 199.601 97.8385 199.497 97.8162Z" fill="white"/>
<path d="M210.483 96.758C210.37 96.5848 210.289 96.5442 210.219 96.2766C210.251 96.2858 210.27 96.3079 210.297 96.3324C210.291 96.4459 210.321 96.5786 210.483 96.758Z" fill="white"/>
<path d="M206.579 88.6276C206.644 88.6963 206.707 88.7727 206.771 88.849C206.818 88.9535 206.868 89.0755 206.905 89.1853L206.571 88.6253L206.579 88.6276Z" fill="white"/>
<path d="M176.708 51.3344C176.495 51.3706 176.347 51.4503 176.221 51.537C176.436 51.3118 175.299 50.7868 176.708 51.3344Z" fill="white"/>
<path d="M150.157 56.4831C150.176 56.5959 150.226 56.66 150.336 56.7174C150.253 56.6844 150.169 56.6515 150.085 56.6186C150.079 56.5507 150.094 56.4974 150.157 56.4831Z" fill="white"/>
<path d="M213.237 95.1812L212.627 94.0369C212.818 94.349 213.042 94.7609 213.237 95.1812Z" fill="white"/>
<path d="M227.598 64.9377L227.295 64.8731C227.415 64.8672 227.519 64.8895 227.598 64.9377Z" fill="white"/>
<path d="M211.011 90.5467C210.782 90.3969 210.598 90.2106 210.445 90.0007C210.454 89.9375 210.445 89.8772 210.478 89.8209L211.021 90.5414L211.011 90.5467Z" fill="white"/>
<path d="M167.891 48.2548C169.165 48.4988 168.4 48.883 168.617 49.2271C170.087 49.6773 169.384 48.9839 169.95 48.8296C170.875 49.1438 171.449 49.8735 172.14 50.028C172.21 49.9581 172.351 49.9667 172.225 49.8141C172.661 50.1571 173.379 50.3688 174.11 50.5928C174.851 50.8114 175.563 51.1618 176.033 51.5971C176.129 51.5844 176.187 51.5601 176.221 51.5289C175.96 51.7075 175.842 51.9527 175.815 52.1424C176.34 52.3469 176.682 52.8185 177.002 52.5753C176.671 52.4611 176.691 52.327 176.575 52.169L177.078 52.5152C177.752 52.2444 176.375 52.0688 176.503 51.7276C177.547 52.2829 178.664 53.1234 179.507 53.3971C179.87 53.0343 177.673 52.3776 178.918 52.4814C178.477 52.335 178.008 52.2625 177.56 52.1465C178.825 51.8114 176.749 51.9072 177.953 51.4881C178.848 51.7276 179.292 52.015 179.739 52.2872C180.187 52.5593 180.627 52.8292 181.491 53.1502C181.755 53.5661 181.197 53.4507 181.461 53.8665C182.539 54.6048 183.096 54.6044 183.606 54.5573C184.107 54.5156 184.538 54.4532 185.219 55.19C185.493 55.724 185.368 56.2968 186.683 56.7261L186.576 56.0187C188.103 56.9308 187.009 57.2259 188.754 57.9304C188.6 57.572 187.689 57.023 187.95 57.1165C189.191 57.4169 188.493 57.837 189.265 58.3369L189.7 58.0451C190.492 58.5671 191.184 59.2986 191.939 59.9829C192.67 60.693 193.472 61.3584 194.195 62.099C194.205 61.9123 194.031 61.5645 194.496 61.7757C195.398 62.7506 196.498 63.6193 197.549 64.5473C198.579 65.4859 199.678 66.3621 200.654 67.1939L200.971 68.2104C201.118 68.3776 201.388 68.4079 201.285 68.1714C202.049 68.8252 201.118 68.3776 201.301 68.8436C201.642 69.2901 201.97 69.2633 201.832 68.9094C202.04 69.2512 201.977 69.2656 202.024 69.4029C202.057 69.5279 202.114 69.685 202.193 69.8566C202.311 69.8584 202.466 69.8465 202.62 69.8095C202.71 69.7868 202.754 69.783 202.894 69.7338C203.083 69.6579 203.271 69.5897 203.459 69.5215C204.206 69.2311 204.864 68.865 205.376 68.5383C205.251 68.5343 205.118 68.5279 204.998 68.5338C206.28 67.9235 206.809 68.8459 207.909 68.0745L207.646 68.0794C209.044 67.4785 210.631 67.1722 212.099 66.8062C213.554 66.3952 214.958 66.167 216.049 65.6402C216.322 65.9022 217.06 65.7077 217.768 65.5544C218.49 65.4461 219.184 65.3788 219.34 65.7876C220.179 65.4997 220.479 65.3326 220.862 65.1657C221.248 65.0239 221.73 64.8038 222.966 64.666C223.63 64.6147 223.99 65.174 224.806 65.2419L224.809 64.806L225.936 65.2456C226.127 65.0715 226.323 64.8821 226.52 64.7179L227.296 64.8726C226.99 64.8811 226.644 65.0344 226.692 65.164C227.885 65.4255 229.616 65.0219 229.662 64.7964C230.608 64.9438 231.55 65.1971 232.482 65.4557C232.441 65.2705 231.969 65.1476 231.599 64.9891C233.075 65.6306 231.92 64.5645 233.273 65.1616C233.075 65.2351 233.34 65.4368 233.365 65.5268C233.726 65.4437 234.306 65.4501 234.93 65.5108C235.558 65.589 236.229 65.7869 236.798 65.9549L236.632 65.6094C237.681 65.8118 238.793 66.0327 239.909 66.387C241.02 66.7641 242.149 67.1633 243.303 67.5039C242.433 67.3872 242.473 67.9428 243.121 68.1917L243.532 67.8351C243.875 68.2412 242.78 67.778 243.552 68.4014C244.396 68.6751 244.287 68.1239 243.846 67.7961L244.808 68.3436C244.914 68.2349 244.698 68.0721 244.7 67.8831C245.018 68.3151 246.634 68.149 247.055 68.8502L247.169 68.7437C247.735 68.9521 248.207 69.1984 248.624 69.4286C249.041 69.6588 249.413 69.8676 249.78 70.0665C250.492 70.4824 251.179 70.8336 252.026 71.339C251.866 71.7037 252.559 72.032 252.887 72.6149C253.531 72.9369 254.229 73.25 254.96 73.5974C255.68 73.9501 256.363 74.44 257.05 74.9725C257.897 75.8734 257.127 75.4566 257.415 75.97C257.713 75.745 259.069 76.8207 258.525 76.075C258.629 76.1553 258.725 76.2332 258.814 76.3088C258.916 76.3966 259.058 76.5539 259.17 76.6692C259.406 76.912 259.621 77.1403 259.823 77.3564C260.218 77.7862 260.585 78.1664 260.962 78.5741C261.683 79.3803 262.49 80.2118 263.523 81.5383C262.991 81.1425 262.592 80.8186 262.545 80.9282C262.846 81.3632 263.773 82.0981 264.06 82.1581L264.007 82.0437C264.41 82.69 265.008 83.3938 265.79 84.226C266.181 84.6383 266.616 85.0796 267.083 85.5553L267.439 85.9157C267.55 86.031 267.712 86.1777 267.754 86.2395L268.185 86.754C267.161 86.5836 265.984 86.3846 264.638 86.0368C263.31 85.6859 261.791 85.2623 260.461 84.6722L260.726 84.7832L256.532 83.2326C256.119 83.1433 255.958 83.1453 255.941 83.1735C255.933 83.204 256.09 83.2751 256.244 83.3615C256.552 83.5268 257.003 83.7585 256.28 83.6855C255.595 83.4502 255.445 83.3813 255.153 83.2786C254.884 83.1829 254.625 83.1145 254.381 83.0508C253.884 82.9287 253.407 82.8538 252.953 82.7859C252.042 82.6652 251.172 82.6391 250.188 82.2912C248.541 83.0905 244.64 81.6426 242.514 82.2839L242.634 82.0312C242.085 81.7618 241.979 82.1427 241.58 82.2143C241.635 82.0163 242.167 81.9838 241.826 81.8421C237.173 81.4657 232.308 82.5842 227.804 83.7353C226.157 84.1719 226.528 82.6499 224.567 83.7275C224.81 83.824 225.049 83.9358 225.291 84.0399C221.761 84.3249 218.501 85.983 215.191 86.8186C215.427 86.8473 215.486 86.9716 215.796 86.8572C215.258 87.3987 213.385 87.9171 213.244 87.6615C212.781 87.9038 213.243 87.9412 213.01 88.2022C212.733 88.4417 212.273 88.5201 211.861 88.6046C211.453 88.7067 211.096 88.8074 211.005 89.0442C210.974 89.1257 211.239 89.0553 211.367 89.019C211.245 89.0325 211.065 89.103 210.863 89.1918L210.727 89.2586L210.699 89.2669L210.644 89.2836C210.581 89.2979 210.471 89.2985 210.337 89.1435C210.3 89.2151 210.246 89.2569 210.179 89.2865C210.118 89.2932 210.149 89.3352 210.156 89.3703L210.172 89.4655C210.186 89.5357 210.2 89.6058 210.238 89.6829C210.253 89.7202 210.278 89.7523 210.303 89.7844C210.322 89.8065 210.324 89.7989 210.357 89.8332L210.479 90.0011C210.367 90.8003 211.652 91.946 211.173 92.3977C211.725 92.0498 212.646 94.2662 212.732 95.1405C212.79 94.8114 213.231 95.7161 213.335 95.3101C213.738 96.1705 214.003 97.007 213.629 96.9873C214.224 97.3359 214.948 99.1976 215.332 100.308C215.766 101.515 216.048 102.324 217.214 103.624C217.455 104.247 217.69 104.86 217.891 105.381C215.769 104.73 213.732 104.104 211.75 103.494C211.306 103.363 210.861 103.232 210.426 103.095L209.787 102.907L209.347 102.76C208.821 102.588 208.293 102.424 207.774 102.255C207.745 102.576 208.427 102.761 209.084 102.946C209.248 102.995 209.412 103.043 209.56 103.087C209.755 103.144 210.028 103.225 210.216 103.305C210.614 103.455 210.881 103.617 210.844 103.779C210.571 103.698 210.318 103.607 210.061 103.531C209.829 103.455 209.512 103.353 209.43 103.312C209.173 103.203 208.924 103.097 208.691 102.995C208.217 102.789 207.774 102.593 207.323 102.393C206.432 102.015 205.527 101.69 204.347 101.474C203.724 101.406 204.628 101.829 204.811 101.99C202.514 101.147 200.25 100.916 198.237 100.05C198.23 100.106 198.442 100.226 198.642 100.326C198.236 100.206 197.662 100.177 197.772 99.9042L198.152 100.083C198.904 99.8348 196.707 98.8154 196.688 98.5791C197.2 99.5624 194.572 98.2679 195.451 99.5735C195.188 99.4549 194.879 99.2318 194.986 99.0575C194.57 99.0086 194.421 99.0884 194.779 99.4084C193.339 98.8843 193.934 98.714 192.592 98.3837C192.561 98.5231 192.824 98.6417 192.922 98.8355C192.309 98.3991 191.688 97.9605 190.527 97.799C190.576 97.8958 190.419 97.9733 190.759 98.057C188.822 97.5266 187.609 96.5175 185.416 96.2412C185.907 96.9959 184.645 96.2527 184.416 96.7453L183.307 96.3027L183.825 96.1672C182.805 95.9237 182.048 95.3377 181.086 95.2764C181.373 95.4271 181.567 95.5501 181.809 95.6794L179.423 94.9752L181.006 95.1703C180.365 94.8657 180.51 94.7357 180.55 94.6237C180.581 94.5095 180.573 94.4493 179.781 94.3227C180.028 94.4368 178.706 94.0631 177.597 94.1066C177.23 93.8499 177.028 93.6338 176.074 93.4841C176.098 93.4582 176.122 93.4324 176.148 93.3989C175.978 93.3155 174.733 93.7886 174.62 93.7389C175.38 93.4027 176.045 92.8904 176.73 92.3674C177.414 91.8444 178.119 91.3108 178.685 91.1564C178.365 91.2762 177.996 91.2084 178.011 91.1223C178.305 91.036 178.585 90.9703 178.844 90.9151C179.175 90.4852 179.212 90.3809 178.933 90.3232C179.681 89.6624 179.669 89.8894 179.699 90.0549C179.709 90.1402 179.733 90.2051 179.83 90.1595C179.877 90.1406 179.953 90.0805 180.043 89.9999C180.123 89.9246 180.231 89.8082 180.367 89.6507C180.249 89.7145 180.264 89.6284 180.016 89.7613C181.206 88.5717 182.657 87.8711 183.727 86.7529C183.719 86.0503 182.606 87.5098 182.702 86.8294C183.587 86.1597 184.576 85.5451 185.541 84.9236C185.952 84.6577 186.356 84.3895 186.757 84.1288C186.914 84.0186 187.073 83.9008 187.224 83.7807L187.436 83.5959C187.493 83.5717 187.455 83.5274 187.422 83.493L187.326 83.3823L187.446 83.4999C187.494 83.5389 187.542 83.5778 187.491 83.612C187.849 83.6272 187.808 83.5326 187.74 83.4136C187.656 83.29 187.47 83.1365 187.275 82.9882C187.08 82.84 186.873 82.7047 186.725 82.5703C186.644 82.497 186.598 82.4504 186.512 82.3344C186.434 82.2207 186.367 82.0941 186.321 81.9568C186.438 82.2055 186.191 82.487 186.213 82.378C185.73 81.807 185.305 81.179 184.829 80.4617C184.351 79.752 183.887 78.8983 183.223 77.9772L183.258 78.3088C182.541 77.7595 181.646 76.6382 180.946 75.9952C180.894 75.6666 180.492 75.2924 180.924 75.3458C179.482 74.6731 178.663 73.5497 177.768 72.5192C177.331 71.9948 176.902 71.4727 176.423 71.0099C175.942 70.5548 175.384 70.1924 174.738 69.9359C174.977 70.1383 175.195 70.5404 175.002 70.3845L173.429 68.8161C173.771 68.6781 173.773 68.8518 174.301 68.958C174.207 68.6256 173.831 68.0944 173.383 67.7643C174.044 68.5445 173.044 68.1668 172.587 68.0486C172.705 68.0176 172.662 67.8399 172.753 67.7845C171.474 67.5305 173.005 67.1501 171.495 66.4819L171.459 66.6693C171.051 66.2272 170.725 65.7274 170.165 65.4055C169.724 65.5639 170.582 65.9078 170.438 66.1864C169.715 65.6599 169.389 64.5832 168.496 64.4268C168.749 64.7321 169.201 65.047 169.462 65.3546C168.48 65.2132 168.464 65.06 167.884 64.7487L167.946 64.7671C167.493 64.543 167.015 64.3523 166.553 64.1334L166.947 64.2333C166.51 62.8271 165.125 62.8305 164.103 61.5566C165.098 62.8061 164.138 61.9789 164.028 62.4077C163.629 62.3231 163.06 62.1551 163.143 62.3443C162.681 61.6971 161.989 62.0036 161.332 61.0848C161.228 61.186 160.646 60.7588 160.633 61.1421C159.853 60.6399 160.935 61.0254 160.945 60.8387C160.408 60.3095 159.589 60.0678 158.717 59.7773C157.834 59.4921 156.881 59.2189 156.065 58.5086C155.306 58.0209 154.87 57.6779 154.451 57.3318C154.032 56.9858 153.619 56.6497 152.878 56.2497C152.284 56.2638 153.15 56.882 153.15 56.882C152.694 56.8216 152.308 56.7241 151.95 56.5855C151.58 56.4598 151.234 56.3082 150.852 56.1047C150.982 56.2749 150.785 56.3157 150.487 56.3845C149.853 56.1478 150.194 55.7704 149.285 55.7001C149.391 55.8961 149.513 56.1875 149.78 56.4395C149.06 56.0868 148.374 55.5794 147.599 55.2685C147.331 55.4448 147.99 55.7463 148.233 55.9663C147.363 55.6354 145.968 55.1579 145.769 54.7201L146.381 54.7357C146.053 54.6391 146.136 55.0096 146.361 55.1419C147.061 55.6287 147.507 55.2988 147.584 55.1732L147.031 54.9443C147.422 54.6311 147.999 54.8014 148.609 55.0967C149.22 55.4172 149.859 55.8528 150.44 56.0079L150.13 55.2986L151.165 56.1313C151.455 56.0602 151.728 55.8031 151.184 55.5437C152.09 55.531 151.855 55.9558 152.644 55.9086C152.734 55.8859 152.712 55.8462 152.648 55.8026L153.382 56.2583C153.27 56.0851 153.646 55.9158 153.134 55.8143C154.677 56.0306 155.284 57.0667 155.97 56.8737L155.866 56.7935C157.728 57.8046 155.899 57.2813 157.15 58.3674L158.546 57.807L158.566 58.2826C158.776 58.3447 159.181 58.4971 159.173 58.3135C159.776 58.9365 158.973 58.4274 159.275 58.8875C160.377 58.9902 161.773 60.3167 162.293 59.8109C162.478 60.2693 161.283 59.5872 162.175 60.2954C162.795 59.7944 163.245 61.0314 164.238 61.1926C164.167 60.7184 163.27 60.4538 164.279 60.6196C164.47 61.4506 165.985 61.4033 166.607 61.9578C166.359 62.4282 168.011 63.0396 169.031 63.9584C169.046 63.7816 171.317 65.1441 172.42 65.7909L172.445 65.6995C172.322 66.2648 173.416 66.9749 174.093 67.6362C174.259 67.372 174.204 67.1746 173.883 66.7502L174.592 67.2972C174.646 67.5603 174.804 67.8128 175.211 68.2297L175.29 67.7917C176.18 68.5982 176.85 69.6527 178.125 70.5316C177.936 70.8467 176.554 70.447 177.552 71.714C177.733 71.6107 178.007 71.4116 177.757 71.0658C177.843 71.1818 178.003 71.5175 178.264 71.6437L178.02 70.9703C178.626 71.3388 178.099 71.414 178.524 71.77C178.708 71.5608 178.968 71.9012 179.059 71.6971C178.973 71.5811 178.622 71.4448 178.548 71.2251C179.039 71.617 179.713 72.0139 180.044 72.0374C179.89 72.1072 179.776 72.3044 180.075 72.6563C180.889 73.5228 180.599 72.7122 181.19 73.1088C181.248 73.4473 181.928 73.8541 181.634 74.1545C181.878 74.3996 182.07 74.3162 182.242 74.334C182.543 74.8925 184.119 76.5112 183.331 76.2787L183.205 76.184C183.205 76.184 183.24 76.2435 183.257 76.2732C183.763 77.156 184.505 77.886 185.214 78.6472C185.924 79.4007 186.704 80.1171 187.217 80.977L187.324 80.8933C187.476 81.1687 187.609 81.3892 187.83 81.7181C188.051 82.047 188.27 82.3835 188.485 82.7025C188.692 83.0192 188.881 83.3137 189.026 83.5792L189.127 83.7653C189.167 83.802 189.096 83.8141 189.065 83.8376L188.953 83.9037C188.805 83.9834 188.664 84.0655 188.529 84.1247C188.244 84.3619 188.068 84.8455 188.371 84.8194C187.87 85.1659 187.575 85.3178 187.276 85.5428C187.035 85.7107 186.786 85.9419 186.37 86.4372C187.217 86.0609 186.279 86.7975 187.183 86.0014C186.39 86.8221 186.338 87.1611 185.14 87.6481C185.703 87.6576 184.781 88.5474 184.296 88.8079L184.737 88.0977C184.236 88.4442 183.847 88.8154 183.449 89.1842L183.991 89.3606C183.284 90.3301 182.315 90.8106 181.423 91.289C181.152 91.4477 181.107 91.4263 180.97 91.4931C180.854 91.5493 180.735 91.6131 180.647 91.6861C180.462 91.8374 180.366 92.0315 180.602 92.1509C180.254 92.2211 180.25 92.1456 180.291 92.026C180.321 91.9194 180.389 91.7663 180.013 91.8121C179.779 92.0479 179.8 92.2766 179.957 92.3805C180.111 92.4921 180.38 92.4972 180.338 92.526C180.346 92.5283 180.352 92.5383 180.357 92.5482C180.71 92.5535 180.449 92.6741 180.317 92.8164C180.167 92.9616 180.162 93.1331 180.672 93.1768C180.431 93.2868 179.671 93.565 180.575 93.9554C181.634 94.1526 181.758 93.5218 181.462 93.3109C181.339 93.2665 181.247 93.2968 181.216 93.3455C181.044 93.2369 180.905 93.13 181.23 93.0201C181.216 93.0734 181.201 93.1267 181.186 93.1801C181.277 93.1574 181.387 93.1568 181.489 93.154C181.614 93.158 181.628 93.1375 181.888 93.173C182.289 93.2173 182.589 93.2316 182.446 93.0491C183.215 93.4081 182.727 93.4041 182.112 93.3381C183.542 93.4468 184.261 93.8651 185.708 94.0614C185.462 94.096 185.212 94.2365 185.433 94.2933C187.548 94.6046 186.271 94.8292 187.663 95.2564C188.521 95.2047 187.511 94.5855 188.881 95.1543C189.78 95.1972 189.165 94.7685 188.848 94.5431C190.063 95.1818 191.303 94.938 192.053 95.0607L191.402 94.7614C191.791 94.942 192.123 95.0235 192.462 95.1072L192.001 95.3418C192.412 95.3807 192.751 95.4644 192.771 95.3303C193.13 95.6503 192.331 95.7936 193.078 96.2942C193.645 96.2557 194.655 96.8749 194.939 96.4891C193.234 96.2168 195.225 96.0957 193.823 95.6738C194.086 95.7924 194.418 95.8739 194.829 95.9128C194.898 95.8755 194.789 95.8106 194.687 95.7555C196.371 95.7664 195.309 96.4334 196.969 96.833C196.816 96.5324 197.459 96.4666 197.721 96.5852C197.05 96.4201 197.309 96.9167 197.881 97.2584C198.983 97.3284 199.002 97.6882 199.56 97.8036L198.905 97.7337C199.065 98.0366 199.605 98.1298 200.325 98.3919C200.432 98.2175 199.682 98.0949 199.967 98.0718C200.693 98.7066 201.927 98.0901 203.008 98.6646C203.575 98.626 203.166 98.2168 203.654 98.2208C204.869 98.8595 205.118 98.2327 206.412 98.8289C205.951 99.0635 205.894 98.9643 206.777 99.5216L204.608 98.7332L205.921 99.5657C205.25 99.4005 204.558 99.0067 204.141 98.9579C204.762 99.3965 204.705 99.2973 204.323 99.4894C205.35 99.2239 206.075 100.229 207.208 100.16L207.361 99.3315C208.2 99.3483 208.881 99.6316 209.62 99.9486C209.801 100.027 209.989 100.107 210.186 100.19C210.308 100.234 210.312 100.252 210.364 100.275L210.496 100.347C210.683 100.435 210.917 100.504 211.113 100.496C211.046 100.526 210.969 100.561 210.876 100.591C210.997 100.792 211.2 100.852 211.399 100.894C211.608 100.931 211.785 100.934 212.059 101.072C211.707 100.696 211.781 100.611 211.615 100.389C211.767 100.541 211.904 100.565 212.168 100.676C212.187 100.607 212.267 100.565 212.67 100.816C212.391 100.511 212.124 100.259 211.887 100.049C211.415 99.4072 212.555 99.587 211.746 98.1206C211.709 98.4064 211.568 98.3977 211.467 98.4585C211.417 98.485 211.379 98.5315 211.367 98.6351C211.35 98.7288 211.404 98.959 211.383 99.0352C211.368 98.9978 211.196 98.6751 211.13 98.5157C211.054 98.3365 211.039 98.2084 211.126 98.1682C210.824 97.9474 210.814 96.6427 210.353 96.3003C210.366 96.0405 210.603 95.855 210.315 95.3088C210.234 95.2682 210.189 95.3703 210.189 95.3703C210.315 95.3088 209.944 94.4248 210.461 94.7832C209.694 94.2025 209.199 93.1255 208.732 92.0729C208.612 91.8067 208.497 91.5504 208.383 91.2941C208.255 91.0256 208.162 90.8418 207.986 90.5016C207.657 89.8935 207.303 89.3441 206.843 88.8128C206.763 88.616 206.682 88.4193 206.602 88.2225L206.542 88.073C206.542 88.073 206.521 88.0257 206.512 87.9983L206.589 87.9634L206.916 87.8207C207.339 87.6325 207.764 87.4367 208.19 87.241C208.896 86.9139 209.585 86.5898 210.183 86.3212C210.078 86.2737 210.116 86.1945 209.947 86.3177C211.161 85.407 211.152 86.6569 212.56 85.6879C213.153 84.9155 211.626 85.8324 212.043 85.453C211.861 84.5259 213.966 84.6938 214.824 83.8183L214.541 83.8666C215.247 83.2674 216.676 83.3761 218.021 82.875C218.021 82.875 217.926 82.8222 217.965 82.743C219.072 82.8885 220.871 82.4225 222.252 82.2202C221.727 81.9829 221.591 82.1983 221.725 81.7764C222.339 81.661 221.731 82.396 222.949 82.1705C223.276 81.8716 224.088 81.4685 224.1 81.0601L222.965 81.3513C223.402 80.6891 224.437 80.97 225.026 80.7646L224.886 80.567C225.782 80.411 226.265 80.463 226.76 80.502C227.258 80.5335 227.765 80.5596 228.713 80.3946L228.549 80.5932C229.694 80.9642 229.358 80.1398 230.473 80.3782L230.685 79.7651C231.398 79.7779 233.205 80.0146 234.447 79.9774C233.697 79.6406 232.208 79.5966 231.254 79.4469C231.944 79.3621 233.611 79.2198 234.008 79.4606C233.729 79.4357 233.35 79.3405 233.091 79.4535C233.548 79.6297 234.058 79.7389 234.62 79.7811C235.185 79.8409 235.812 79.8612 236.499 79.8168C236.328 79.2799 237.222 79.1567 238.271 79.0543C239.331 79.0046 240.543 78.9833 241.042 78.5537C243.511 78.9609 245.951 78.5274 248.838 78.8851C247.752 79.6359 249.673 78.9751 249.415 79.8465C250.065 79.9971 250.321 80.0151 250.385 79.968L252.456 79.7388C252.969 79.5607 251.85 79.461 251.936 79.2722C253.404 79.4252 252.601 78.974 253.6 78.9309C253.357 79.1972 254.04 79.4729 254.89 79.5096L253.661 79.6825C254.639 80.1112 255.098 80.0076 255.57 79.9163C255.803 79.8695 256.043 79.825 256.342 79.8393C256.464 79.8259 256.431 79.8243 256.573 79.9815C256.503 79.8701 256.464 79.7679 256.44 79.6704C256.489 79.7672 256.592 79.7895 256.78 79.9027C256.984 80.0204 257.329 80.2376 258.25 80.8391C258.118 80.7093 257.636 80.3448 257.412 80.2126C257.48 80.2081 257.698 80.3053 258.055 80.4767L258.25 80.567C258.31 80.5931 258.413 80.6481 258.409 80.6306C258.452 80.6269 258.488 80.6209 258.516 80.6125C258.581 80.5905 258.613 80.5342 258.595 80.4465C258.557 80.2788 258.334 79.9575 257.841 79.7295L257.496 79.6937C257.535 79.6473 257.965 79.5849 257.472 79.4148C257.353 79.4206 257.201 79.4501 257.145 79.4088C257.177 79.3852 257.237 79.3206 257.223 79.2177C257.218 79.1171 257.13 78.9759 256.99 78.9345C256.967 79.0183 256.936 79.0997 256.885 79.1591C256.788 79.1139 256.722 79.078 256.668 79.0291C256.641 79.0047 256.622 78.9825 256.595 78.9581C256.506 78.8825 256.426 78.8092 256.337 78.7335C255.986 78.4158 255.691 78.0815 255.413 77.7441C254.854 77.0845 254.372 76.3573 253.594 75.724C253.241 76.2378 251.564 75.4381 250.739 75.0379L250.714 75.1293C250.431 74.9634 250.15 74.7899 249.887 74.6133C249.611 74.4497 249.35 74.2983 249.088 74.1469C248.574 73.8388 248.098 73.517 247.627 73.18C247.151 72.8582 246.703 72.4954 246.197 72.1896C245.689 71.8914 245.164 71.5962 244.595 71.3047C243.735 71.3312 242.488 70.8723 241.073 70.5289C240.375 70.3393 239.647 70.1329 238.941 69.941C238.231 69.7643 237.522 69.7035 236.888 69.6482C237.285 69.6169 236.923 69.1559 236.493 69.0042C235.893 69.0084 234.943 68.2338 234.952 68.813L235.161 68.85C234.639 69.2727 233.459 69.0235 232.517 68.8936L232.442 68.1298C231.787 68.332 231.067 68.3093 230.323 68.2873C229.576 68.2729 228.791 68.1814 228.052 68.0786C226.567 67.838 225.199 67.7804 224.546 68.2799C223.938 68.1004 223.191 68.1187 222.582 67.9392L222.647 68.3455C221.007 68.5702 220.193 68.7088 218.147 68.8139C218.297 68.8827 218.45 68.9691 218.606 69.0479C217.484 69.2279 216.971 68.1287 215.893 68.2722L215.698 68.915C215.203 68.9994 214.708 69.109 214.217 69.236L212.779 69.7095C211.824 70.0209 210.841 70.2171 209.805 70.241C209.861 70.3151 209.972 70.4631 210.289 70.3837C209.395 70.6884 206.984 71.8969 207.002 71.0122C207.097 71.2791 206.594 71.4191 205.965 71.5878C205.336 71.7565 204.539 71.8922 203.991 71.9856L204.312 72.2865C204.179 72.2801 204.121 72.2465 203.956 72.2637C203.81 72.2703 203.681 72.2815 203.553 72.285C203.314 72.2968 203.127 72.2994 202.937 72.3174C202.566 72.3479 202.2 72.4211 201.574 72.6074C201.523 72.5181 201.412 72.37 201.296 72.212C200.991 71.9409 200.907 72.2456 201.355 72.6085C200.811 72.1349 200.645 71.7893 200.491 71.4636C200.35 71.1501 200.106 70.7237 199.66 70.3532L199.769 70.8716C199.059 70.0853 199.219 70.0581 199.059 69.4177C198.771 68.7808 197.596 67.9973 197.231 68.1285C197.291 67.8824 197.091 67.2632 196.573 66.8797C196.42 66.9167 196.519 67.1356 196.574 67.2424C195.166 66.143 194.984 65.0674 193.798 64.5362C193.69 64.6198 193.591 64.615 193.483 64.5752C194.549 65.5078 195.429 66.2289 195.358 66.1503C195.114 66.3914 194.216 65.706 194.542 66.6593C194.06 65.8741 193.279 64.3995 192.334 63.791C192.27 63.7802 192.213 63.7718 192.14 63.7914L192.203 63.9005C191.988 63.7629 191.844 63.5805 191.706 63.408C191.39 63.2405 191.182 63.138 190.908 62.9416C190.62 63.0957 189.774 62.2855 189.317 61.9531C189.592 61.6633 188.96 61.2627 189.71 61.4181C189.617 61.3905 189.767 61.5173 190.062 61.761C190.122 61.8198 190.205 61.8855 190.231 61.9427C190.236 61.9275 190.224 61.9076 190.221 61.8901C190.51 62.1238 190.9 62.4203 191.335 62.7709C191.1 62.3391 190.828 61.921 190.193 61.717C190.112 61.3389 190.014 60.931 189.938 60.719C189.002 60.6569 187.552 60.1054 187.192 60.2792C186.528 59.7209 185.701 59.1141 184.949 58.5381C184.18 57.9978 183.508 57.4371 183.203 56.836C182.813 56.5067 182.602 56.7494 182.388 56.7605C182.602 56.9636 182.905 57.1189 182.992 57.2928C182.6 56.9712 181.972 56.5882 181.434 56.248C180.881 55.9284 180.431 55.6059 180.427 55.3163C179.19 55.0007 180.865 56.0472 179.34 55.2509L179.484 55.4913C178.632 55.3387 177.948 55.0051 177.294 54.6883C176.639 54.3716 176.047 53.9825 175.431 53.5865C174.809 53.2134 174.193 52.7596 173.444 52.5386C172.704 52.2872 171.874 52.1164 170.911 52.1206C171.179 52.1257 171.313 52.1321 171.383 52.0621C170.849 51.9788 170.328 51.8497 169.801 51.7435C169.267 51.6602 168.738 51.5616 168.205 51.4455C167.672 51.3294 167.141 51.2057 166.608 51.0895C166.338 51.0265 166.071 50.9559 165.807 50.9028L164.998 50.7793C163.921 50.6179 162.834 50.4619 161.761 50.376C160.68 50.3784 159.618 50.4358 158.578 50.5984C157.401 50.7043 157.263 50.4411 156.515 50.2202L156.298 50.6671L155.012 50.2546C154.564 50.1966 154.153 50.2484 153.755 50.3452C153.363 50.4519 153.002 50.6584 152.616 50.833C151.85 51.192 151.052 51.5166 149.88 51.3604L150.091 51.027C149.699 51.1009 149.083 51.2239 148.582 51.3563C148.082 51.4887 147.709 51.6175 147.822 51.758C147.728 51.7304 147.479 51.5333 147.229 51.7644L147.278 51.9848C146.62 52.046 145.939 52.0675 145.275 52.1516C143.931 52.8593 145.815 52.9125 143.812 53.7469C143.037 53.9549 141.393 53.9807 141.604 53.738C141.911 53.606 142.332 53.302 142.258 53.0824L141.502 53.2546C141.091 52.6968 140.203 52.3109 141.81 51.1702L143.226 51.0525L143.505 50.5912L142.443 50.9862C142.923 50.4689 143.412 50.5636 143.906 50.5775C143.945 50.3749 144.08 50.1922 144.301 50.0349C144.785 50.0541 145.292 50.171 145.787 50.2428C145.859 49.9511 145.044 49.9083 145.858 49.5304C146.551 49.6445 145.473 50.249 146.52 50.1543C147.045 49.6912 146.794 49.5017 147.598 49.5498C147.651 49.3593 147.466 49.2965 147.152 49.3027C147.869 49.3331 148.906 48.8809 149.343 49.1912C149.923 48.7114 151.607 48.9037 151.421 48.2967C151.668 48.4107 152.692 48.5811 153.303 48.5061C152.055 47.8658 155.618 48.2827 155.233 47.51C155.695 47.8195 156.466 47.8409 157.307 47.8173C158.156 47.8289 159.086 47.881 159.834 48.0768C159.748 48.0187 159.584 47.9125 159.45 47.9389C160.296 47.9001 160.545 47.7017 161.09 47.5907C161.14 47.869 161.487 48.0457 161.913 48.2127C162.333 48.4025 162.824 48.5802 163.163 48.7874C164.224 48.3673 162.587 48.0654 162.939 47.5844C162.858 48.0301 164.699 48.2356 164.32 48.5687C165.139 48.3241 165.01 48.4839 165.469 48.0755C165.524 48.792 166.195 48.2568 166.78 48.8249C167.951 48.7091 167.17 48.2397 168.376 48.6947C169.01 48.6014 167.94 48.1375 167.94 48.1375L167.891 48.2548ZM194.114 62.2071C193.93 62.0208 193.768 61.8741 193.668 61.7787C193.76 61.8718 193.887 61.9917 194.107 62.2048L194.114 62.2071ZM195.986 63.8553C195.75 63.6704 195.465 63.4214 195.161 63.1503C195.005 63.1949 194.984 63.3618 195.167 63.523C195.127 63.3628 195.619 63.6892 195.978 63.853L195.986 63.8553ZM190.25 62.6652C190.514 62.9324 190.661 62.951 190.753 62.9207C190.616 62.8061 190.46 62.6694 190.258 62.4861C190.262 62.4709 190.253 62.4434 190.251 62.4183C190.228 62.5021 190.223 62.5828 190.25 62.6652Z" fill="white"/>
<path d="M190.018 61.8377C189.978 61.801 189.963 61.7637 189.907 61.7224C189.985 61.7454 190.063 61.7684 190.141 61.7914C190.149 61.8517 190.166 61.9142 190.174 61.9744C190.118 61.9331 190.064 61.8843 190.016 61.8453L190.018 61.8377Z" fill="white"/>
<path d="M183.266 76.2928L183.306 76.3295C183.261 76.3081 183.225 76.2889 183.191 76.2873C183.23 76.2989 183.24 76.2935 183.264 76.3004L183.266 76.2928Z" fill="white"/>
<path d="M224.813 64.7079L224.811 64.8062L224.589 64.7243L224.813 64.7079Z" fill="white"/>
<path d="M172.547 68.0713C172.547 68.0713 172.443 68.0818 172.343 68.0442C172.365 68.026 172.446 68.0414 172.547 68.0713Z" fill="white"/>
<path d="M167.844 64.7684C167.599 64.6467 167.338 64.5532 167.08 64.4521C167.418 64.5686 167.662 64.6651 167.844 64.7684Z" fill="white"/>
<path d="M163.983 62.6254C163.965 62.5377 163.98 62.4844 163.992 62.4387L164 62.441L163.983 62.6254Z" fill="white"/>
<path d="M198.601 100.338C198.656 100.354 198.718 100.373 198.763 100.394C199.136 100.57 198.877 100.469 198.601 100.338Z" fill="white"/>
<path d="M177.564 94.1312C177.734 94.2474 177.92 94.3682 178.169 94.4746C177.639 94.376 177.235 94.2815 177.564 94.1312Z" fill="white"/>
<path d="M213.299 95.3088C213.278 95.2615 213.255 95.2218 213.235 95.1745L213.301 95.3012L213.299 95.3088Z" fill="white"/>
<path d="M179.456 94.7877C178.907 94.7325 178.485 94.6082 178.168 94.4735C178.61 94.5543 179.103 94.6338 179.456 94.7877Z" fill="white"/>
<path d="M146.318 55.6631L146.109 55.6261C146.109 55.6261 146.113 55.5781 146.102 55.5583L146.318 55.6631Z" fill="white"/>
<path d="M146.099 55.5605L145.883 55.4557C145.985 55.4856 146.078 55.5133 146.099 55.5605Z" fill="white"/>
<path d="M145.423 55.2356L145.877 55.4521C145.714 55.4038 145.504 55.3668 145.423 55.2356Z" fill="white"/>
<path d="M151.938 57.1333L151.952 57.2941C151.952 57.2941 151.919 57.2019 151.938 57.1333Z" fill="white"/>
<path d="M153.579 57.7909C153.174 57.6712 152.487 57.7156 151.967 57.4304L151.952 57.3023C152.14 57.5968 153.285 57.4238 153.579 57.7909Z" fill="white"/>
<path d="M161.145 59.1349L159.725 58.5674C160.027 58.5413 160.432 58.5124 159.824 58.1767C161.753 58.6141 159.324 58.3091 161.145 59.1349Z" fill="white"/>
<path d="M165.421 61.1804C164.738 60.7233 165.541 60.9932 165.55 60.8972C165.933 61.282 166.015 61.3805 165.421 61.1804Z" fill="white"/>
<path d="M188.094 85.1989L188.511 85.3384C187.747 85.9039 188.383 85.2513 188.094 85.1989Z" fill="white"/>
<path d="M181.808 87.9181L182.113 87.3654L182.555 87.4463L181.808 87.9181Z" fill="white"/>
<path d="M181.198 91.8726L181.305 91.8545C181.194 91.8878 181.072 91.9341 180.929 91.9909L181.198 91.8726Z" fill="white"/>
<path d="M207.185 90.6936C207.372 90.7488 207.558 90.7789 207.736 90.8067C207.826 91.0888 207.718 91.2052 207.609 91.2637C207.479 91.2749 207.383 91.2876 207.177 90.6913L207.185 90.6936Z" fill="white"/>
<path d="M228.376 80.2133C228.593 79.9477 229.245 79.6952 229.711 79.8409C229.171 79.9618 228.66 80.223 228.376 80.2133Z" fill="white"/>
<path d="M231.181 68.5901L231.637 68.799L230.76 68.5565L231.181 68.5901Z" fill="white"/>
</g>
<path d="M27.08 239.865C41.0902 229.53 61.4867 232.96 74.6294 243.958C88.1356 233.918 108.653 231.979 122.276 243.356C106.869 241.727 92.7285 246.182 81.7012 255.509L88.9713 264.97L59.5945 263.891L66.6491 254.985C56.0417 245.122 42.2959 239.342 27.0865 239.859L27.08 239.865Z" fill="white"/>
<path d="M27.1194 240.574C26.9836 240.486 27.0463 240.269 27.4 240.315L27.6669 240.665L27.1255 240.575L27.1194 240.574Z" fill="white"/>
<path d="M29.457 239.898C29.8774 240.057 30.3484 240.388 30.0829 240.702C29.6749 240.347 29.5792 240.5 29.137 240.1C28.783 240.06 28.5272 240.22 28.5927 240.35C28.463 240.262 28.0528 240.433 27.8575 240.214C28.2989 239.938 28.8902 239.919 29.491 240.141C29.619 240.061 29.4957 239.967 29.4628 239.905L29.457 239.898Z" fill="white"/>
<path d="M61.9245 250.423L61.7156 250.323C61.776 250.34 61.8476 250.375 61.9245 250.423Z" fill="white"/>
<path d="M62.9045 263.322C62.8066 263.314 62.7783 263.276 62.7866 263.241C62.865 263.265 62.9312 263.288 62.9045 263.322Z" fill="white"/>
<path d="M66.4213 263.062C66.341 263.068 66.2791 263.075 66.205 263.081C66.2867 263.052 66.3677 263.034 66.4213 263.062Z" fill="white"/>
<path d="M61.9244 250.424L62.4553 250.681C62.4173 250.798 62.167 250.574 61.9244 250.424Z" fill="white"/>
<path d="M34.1285 241.011C34.0134 240.984 33.9178 240.94 33.8348 240.892C33.9315 240.917 34.0225 240.937 34.1197 240.956C34.1186 240.974 34.1235 240.992 34.1347 241.011L34.1285 241.011Z" fill="white"/>
<path d="M53.9918 245.122L53.8372 245.038C53.81 244.982 53.7896 244.915 53.7693 244.847C53.8436 244.937 53.9179 245.027 53.9918 245.122Z" fill="white"/>
<path d="M47.255 242.159C47.4183 242.202 47.3687 242.503 47.3843 242.648C47.3382 242.501 47.2459 242.404 47.115 242.334C47.1306 242.281 47.1772 242.225 47.255 242.159Z" fill="white"/>
<path d="M35.8482 239.968L35.6497 239.898C35.704 239.914 35.7882 239.945 35.8482 239.968Z" fill="white"/>
<path d="M58.5971 247.688C58.6299 247.655 58.6739 247.641 58.7109 247.638C58.6904 247.672 58.6464 247.686 58.5971 247.688Z" fill="white"/>
<path d="M33.7568 234.633C33.7568 234.633 33.7672 234.664 33.7783 234.682C33.7236 234.672 33.7064 234.653 33.7568 234.633Z" fill="white"/>
<path d="M27.1249 239.928L27.2326 239.877C27.2793 239.917 27.326 239.956 27.3601 240.001L27.131 239.929L27.1249 239.928Z" fill="white"/>
<path d="M73.1086 262.923C73.1086 262.923 73.0902 262.921 73.0776 262.926C72.9017 262.889 72.9996 262.896 73.1086 262.923Z" fill="white"/>
<path d="M111.638 241.962C110.96 242.279 112.82 242.229 111.789 242.596C111.877 242.471 110.775 242.192 111.638 241.962Z" fill="white"/>
<path d="M34.3141 240.99C34.4119 240.998 34.5091 241.017 34.6012 241.019C34.4663 241.014 34.381 241.001 34.3141 240.99Z" fill="white"/>
<path d="M111.789 242.603L111.682 242.642C111.726 242.627 111.751 242.617 111.789 242.603Z" fill="white"/>
<path d="M86.1402 263.579C86.229 263.634 86.2814 263.68 86.3281 263.72C86.2749 263.686 86.2282 263.646 86.1402 263.579Z" fill="white"/>
<path d="M77.02 263.675L77.3047 263.644C77.1927 263.665 77.0999 263.675 77.02 263.675Z" fill="white"/>
<path d="M84.9661 261.182C84.8562 261.072 84.7897 261.055 84.6969 260.868C84.7214 260.87 84.739 260.883 84.7627 260.897C84.7758 260.982 84.8192 261.075 84.9661 261.182Z" fill="white"/>
<path d="M80.8232 255.786C80.8822 255.826 80.9407 255.873 80.9993 255.919C81.0502 255.989 81.1066 256.072 81.151 256.147L80.8171 255.785L80.8232 255.786Z" fill="white"/>
<path d="M52.9512 232.9C52.7999 232.96 52.7026 233.042 52.6236 233.125C52.7467 232.926 51.8256 232.715 52.9512 232.9Z" fill="white"/>
<path d="M34.1429 240.838C34.1748 240.919 34.2215 240.958 34.3121 240.984C34.2452 240.972 34.1783 240.961 34.1114 240.95C34.096 240.901 34.0986 240.859 34.1429 240.838Z" fill="white"/>
<path d="M86.7533 259.589L86.124 258.839C86.3143 259.04 86.5434 259.309 86.7533 259.589Z" fill="white"/>
<path d="M92.6478 235.019L92.4143 235.018C92.5018 234.995 92.5816 234.996 92.6478 235.019Z" fill="white"/>
<path d="M84.3901 256.513C84.198 256.438 84.0327 256.329 83.8873 256.198C83.8841 256.15 83.8684 256.107 83.8836 256.06L84.3965 256.507L84.3901 256.513Z" fill="white"/>
<path d="M45.9621 231.999C46.9406 231.981 46.436 232.384 46.6496 232.604C47.805 232.708 47.1786 232.305 47.5723 232.103C48.3045 232.191 48.8419 232.64 49.3763 232.647C49.4171 232.584 49.5225 232.569 49.4054 232.476C49.7811 232.661 50.3438 232.706 50.9184 232.757C51.4995 232.803 52.0804 232.951 52.4951 233.199C52.5643 233.175 52.6028 233.148 52.6231 233.12C52.4586 233.292 52.4092 233.492 52.4186 233.636C52.8384 233.705 53.1642 234 53.363 233.771C53.1007 233.738 53.0948 233.636 52.9842 233.537L53.4095 233.714C53.865 233.41 52.8209 233.494 52.8625 233.222C53.7199 233.47 54.6755 233.917 55.3411 233.987C55.5519 233.663 53.8274 233.52 54.7629 233.403C54.415 233.363 54.0573 233.383 53.7079 233.367C54.5901 232.923 53.0717 233.317 53.8958 232.82C54.5942 232.857 54.9664 233 55.3393 233.132C55.7122 233.263 56.079 233.394 56.7672 233.496C57.0272 233.762 56.5968 233.764 56.8567 234.03C57.7675 234.407 58.1786 234.32 58.5485 234.206C58.9118 234.097 59.2201 233.984 59.8381 234.422C60.1235 234.773 60.1204 235.216 61.1583 235.328L60.9687 234.822C62.2385 235.258 61.4765 235.646 62.8748 235.895C62.7054 235.654 61.9474 235.39 62.1546 235.419C63.1179 235.447 62.6676 235.866 63.3159 236.115L63.5918 235.832C64.2577 236.094 64.8822 236.527 65.5464 236.914C66.1969 237.325 66.8932 237.691 67.5422 238.125C67.5202 237.986 67.3379 237.756 67.7137 237.84C68.5319 238.419 69.4799 238.889 70.4001 239.411C71.3072 239.944 72.2548 240.42 73.1049 240.882L73.4975 241.583C73.6326 241.683 73.8367 241.664 73.7237 241.505C74.3894 241.869 73.6326 241.683 73.8403 241.999C74.1611 242.276 74.3991 242.205 74.242 241.965C74.4495 242.185 74.4052 242.205 74.4608 242.3C74.5045 242.387 74.5716 242.494 74.6566 242.608C74.7437 242.591 74.8565 242.558 74.9642 242.507C75.0276 242.476 75.0589 242.467 75.1547 242.408C75.283 242.323 75.411 242.243 75.5389 242.164C76.0452 241.833 76.4742 241.46 76.8017 241.139C76.7084 241.156 76.6091 241.172 76.5216 241.195C77.3737 240.544 77.9079 241.143 78.5997 240.402L78.4063 240.447C79.3452 239.785 80.469 239.312 81.496 238.813C82.5065 238.283 83.5082 237.896 84.2316 237.337C84.4742 237.487 84.9883 237.229 85.4879 237.005C86.004 236.813 86.5056 236.655 86.6849 236.933C87.2596 236.59 87.4547 236.42 87.712 236.237C87.9744 236.072 88.2966 235.834 89.1879 235.54C89.67 235.399 90.0227 235.756 90.636 235.679L90.5701 235.356L91.4706 235.505C91.585 235.347 91.7001 235.177 91.8203 235.025L92.417 235.018C92.1923 235.072 91.9606 235.239 92.0165 235.327C92.9381 235.335 94.1539 234.767 94.1524 234.593C94.874 234.555 95.6092 234.595 96.3378 234.641C96.2783 234.511 95.9106 234.493 95.6131 234.434C96.8027 234.678 95.7834 234.07 96.8754 234.301C96.741 234.386 96.9679 234.493 97.0009 234.556C97.2541 234.438 97.6836 234.353 98.154 234.3C98.6299 234.26 99.1559 234.302 99.6024 234.337L99.4262 234.108C100.232 234.094 101.087 234.084 101.967 234.172C102.846 234.277 103.742 234.396 104.647 234.468C103.986 234.517 104.102 234.921 104.62 235.004L104.868 234.677C105.184 234.923 104.304 234.752 104.971 235.092C105.636 235.163 105.47 234.773 105.094 234.599L105.889 234.854C105.951 234.757 105.766 234.67 105.737 234.531C106.04 234.8 107.207 234.426 107.627 234.878L107.695 234.781C108.146 234.847 108.532 234.956 108.876 235.061C109.22 235.166 109.527 235.262 109.829 235.352C110.419 235.548 110.981 235.7 111.685 235.941C111.624 236.236 112.187 236.37 112.52 236.749C113.046 236.887 113.61 237.009 114.204 237.152C114.791 237.3 115.371 237.556 115.962 237.842C116.727 238.375 116.094 238.187 116.386 238.522C116.572 238.309 117.74 238.892 117.222 238.427C117.312 238.47 117.395 238.512 117.472 238.554C117.562 238.603 117.691 238.697 117.791 238.765C118.003 238.907 118.198 239.042 118.38 239.17C118.739 239.426 119.07 239.65 119.411 239.892C120.069 240.375 120.795 240.864 121.764 241.682C121.31 241.473 120.964 241.296 120.947 241.384C121.237 241.658 122.036 242.057 122.257 242.056L122.2 241.98C122.598 242.395 123.15 242.821 123.856 243.314C124.21 243.557 124.6 243.816 125.019 244.094L125.337 244.305C125.438 244.373 125.58 244.456 125.62 244.495L126.019 244.808C125.236 244.841 124.336 244.878 123.288 244.83C122.253 244.778 121.065 244.702 119.991 244.473L120.204 244.514L116.866 244.022C116.546 244.021 116.428 244.047 116.42 244.071C116.419 244.094 116.546 244.122 116.673 244.162C116.926 244.236 117.295 244.337 116.75 244.396C116.207 244.329 116.086 244.301 115.855 244.271C115.641 244.242 115.439 244.232 115.249 244.223C114.863 244.21 114.499 244.229 114.153 244.25C113.461 244.303 112.815 244.419 112.034 244.315C110.943 245.162 107.837 244.7 106.366 245.505L106.416 245.3C105.968 245.186 105.95 245.484 105.666 245.599C105.675 245.444 106.063 245.337 105.79 245.286C102.295 245.733 98.8764 247.316 95.7304 248.868C94.5816 249.447 94.6187 248.265 93.3388 249.366C93.5334 249.4 93.7273 249.445 93.9215 249.484C91.3598 250.244 89.2106 251.977 86.8961 253.109C87.0753 253.094 87.1378 253.176 87.349 253.043C87.0359 253.527 85.7336 254.202 85.5903 254.035C85.2857 254.286 85.6327 254.242 85.5016 254.47C85.3342 254.691 85.0064 254.82 84.7157 254.947C84.4304 255.086 84.1826 255.215 84.1523 255.405C84.1421 255.47 84.3262 255.376 84.4152 255.33C84.3273 255.359 84.2055 255.439 84.0703 255.536L83.9799 255.606L83.9608 255.617L83.9226 255.638C83.8783 255.658 83.7973 255.675 83.674 255.582C83.6581 255.641 83.6249 255.68 83.5798 255.712C83.5359 255.727 83.565 255.753 83.5757 255.778L83.6022 255.846C83.6237 255.895 83.6452 255.945 83.685 255.996C83.7019 256.021 83.7252 256.041 83.7486 256.061C83.7662 256.074 83.7666 256.068 83.796 256.088L83.9124 256.193C83.9543 256.801 85.0818 257.447 84.7981 257.855C85.1515 257.512 86.1768 259.005 86.377 259.637C86.3682 259.385 86.8347 259.985 86.8484 259.669C87.2797 260.241 87.6063 260.818 87.327 260.861C87.8207 261.026 88.6454 262.288 89.1019 263.048C89.6097 263.872 89.9439 264.425 91.0079 265.203C91.2826 265.626 91.5516 266.042 91.7816 266.396C90.1128 266.245 88.5114 266.1 86.9527 265.959C86.6041 265.931 86.2554 265.904 85.9133 265.871L85.4117 265.831L85.0638 265.791C84.6486 265.746 84.233 265.707 83.824 265.663C83.8519 265.905 84.3848 265.935 84.8989 265.97C85.0274 265.98 85.1558 265.99 85.2721 265.999C85.425 266.011 85.6391 266.028 85.7909 266.058C86.1074 266.107 86.33 266.185 86.3283 266.31C86.1143 266.293 85.9131 266.265 85.7113 266.249C85.5282 266.229 85.2778 266.203 85.2112 266.186C85.0047 266.145 84.8044 266.106 84.6162 266.067C84.2339 265.989 83.876 265.912 83.5119 265.836C82.7954 265.695 82.0762 265.596 81.1711 265.62C80.701 265.667 81.4341 265.838 81.5944 265.929C79.7668 265.664 78.0589 265.846 76.438 265.52C76.4415 265.562 76.6163 265.618 76.7796 265.661C76.4615 265.636 76.0331 265.703 76.0714 265.485L76.3804 265.557C76.897 265.257 75.1155 264.847 75.0647 264.675C75.596 265.322 73.4541 264.775 74.306 265.602C74.0938 265.556 73.8306 265.439 73.8827 265.294C73.5674 265.322 73.4701 265.405 73.7846 265.585C72.6391 265.422 73.0523 265.204 72.0095 265.169C72.0089 265.277 72.2212 265.323 72.3238 265.451C71.8032 265.224 71.2765 264.997 70.3936 265.059C70.4449 265.123 70.3415 265.204 70.6052 265.213C69.0925 265.123 68.0393 264.567 66.3772 264.705C66.8573 265.185 65.8097 264.833 65.7171 265.233L64.8293 265.078L65.191 264.898C64.3993 264.877 63.749 264.562 63.0294 264.667C63.265 264.733 63.4271 264.794 63.6264 264.851L61.7547 264.703L62.9536 264.601C62.4328 264.476 62.5201 264.357 62.5318 264.268C62.5374 264.179 62.5217 264.136 61.9174 264.166C62.1174 264.211 61.0829 264.141 60.271 264.346C59.9596 264.214 59.7771 264.086 59.0494 264.124C59.0631 264.101 59.0768 264.078 59.0909 264.049C58.9517 264.014 58.1063 264.557 58.0153 264.538C58.5239 264.172 58.9351 263.69 59.3594 263.197C59.7836 262.704 60.2208 262.2 60.6146 261.998C60.3969 262.136 60.1137 262.144 60.1117 262.078C60.3153 261.968 60.5116 261.876 60.6949 261.795C60.8717 261.426 60.883 261.343 60.6678 261.344C61.1175 260.74 61.1437 260.909 61.1917 261.027C61.2125 261.088 61.2404 261.132 61.305 261.084C61.337 261.062 61.3836 261.006 61.4373 260.933C61.4846 260.865 61.5464 260.762 61.6226 260.624C61.5447 260.69 61.5427 260.624 61.3805 260.761C62.0741 259.697 63.0365 258.953 63.6518 257.961C63.5366 257.444 62.942 258.695 62.9068 258.177C63.4565 257.545 64.0908 256.937 64.7068 256.328C64.9689 256.067 65.225 255.806 65.4807 255.552C65.5795 255.446 65.6787 255.334 65.7718 255.222L65.8992 255.052C65.9378 255.025 65.9025 254.999 65.8731 254.978L65.785 254.912L65.8914 254.98C65.9331 255.001 65.9748 255.022 65.942 255.056C66.2091 255.011 66.1639 254.948 66.095 254.87C66.0138 254.792 65.8531 254.708 65.686 254.629C65.5188 254.549 65.3448 254.482 65.2143 254.406C65.1431 254.364 65.1018 254.337 65.0203 254.265C64.9448 254.193 64.8763 254.11 64.8207 254.015C64.9456 254.181 64.8072 254.427 64.8063 254.343C64.3608 253.997 63.9493 253.599 63.486 253.144C63.0224 252.694 62.5471 252.136 61.9132 251.559L61.9904 251.799C61.3756 251.505 60.5397 250.816 59.9233 250.45C59.8335 250.216 59.478 250.002 59.8055 249.974C58.6362 249.702 57.8564 249 57.0347 248.379C56.6305 248.059 56.2325 247.741 55.8066 247.474C55.3804 247.212 54.9122 247.032 54.3953 246.943C54.6034 247.055 54.8267 247.318 54.6599 247.233L53.254 246.32C53.485 246.165 53.5139 246.293 53.9198 246.289C53.799 246.058 53.4388 245.724 53.0563 245.55C53.666 246.024 52.8684 245.9 52.5129 245.884C52.5954 245.843 52.5355 245.719 52.5943 245.663C51.6101 245.675 52.6814 245.156 51.462 244.898L51.4653 245.041C51.0945 244.779 50.7763 244.46 50.3124 244.31C50.0119 244.495 50.699 244.616 50.6355 244.844C50.0196 244.568 49.6113 243.823 48.9275 243.847C49.1618 244.033 49.545 244.195 49.7854 244.382C49.0386 244.43 49.0025 244.32 48.5256 244.18L48.5745 244.184C48.2055 244.089 47.8224 244.023 47.4469 243.933L47.7534 243.945C47.2117 242.975 46.19 243.193 45.2369 242.412C46.1662 243.179 45.3284 242.718 45.3136 243.052C45.0063 243.052 44.5598 243.016 44.6502 243.143C44.2084 242.737 43.7449 243.071 43.1171 242.495C43.0561 242.586 42.56 242.361 42.6097 242.646C41.9553 242.397 42.8148 242.513 42.7928 242.373C42.3141 242.066 41.6718 242.015 40.9821 241.937C40.2859 241.864 39.5393 241.81 38.8266 241.413C38.1901 241.171 37.8144 240.986 37.4514 240.795C37.0883 240.605 36.731 240.421 36.1214 240.241C35.6847 240.344 36.4206 240.666 36.4206 240.666C36.0747 240.692 35.7743 240.68 35.4883 240.634C35.1954 240.599 34.9163 240.54 34.6023 240.45C34.7248 240.555 34.5858 240.616 34.3769 240.713C33.8714 240.637 34.0643 240.305 33.3825 240.395C33.4913 240.523 33.6265 240.719 33.8634 240.864C33.2764 240.716 32.6907 240.448 32.0706 240.339C31.9 240.511 32.4334 240.631 32.6469 240.755C31.9529 240.647 30.8488 240.511 30.6335 240.219L31.0875 240.135C30.8306 240.115 30.9495 240.376 31.1361 240.438C31.729 240.689 32.0068 240.376 32.0441 240.271L31.6005 240.188C31.8401 239.896 32.2927 239.932 32.7891 240.055C33.2904 240.196 33.8298 240.418 34.2831 240.442L33.9441 239.967L34.8377 240.421C35.0406 240.323 35.2026 240.091 34.7606 239.984C35.4277 239.833 35.3197 240.184 35.8952 240.026C35.9586 239.995 35.9356 239.969 35.8816 239.947L36.4947 240.169C36.3849 240.059 36.6361 239.875 36.2424 239.88C37.4154 239.799 38.025 240.47 38.5016 240.22L38.4121 240.177C39.9449 240.634 38.5128 240.532 39.6059 241.14L40.549 240.508L40.6379 240.856C40.803 240.87 41.1257 240.919 41.0911 240.785C41.6337 241.151 40.9609 240.9 41.2561 241.193C42.0858 241.097 43.3229 241.859 43.6279 241.405C43.836 241.714 42.8477 241.397 43.6167 241.781C43.9963 241.314 44.5213 242.158 45.2796 242.122C45.1533 241.783 44.4499 241.727 45.2204 241.692C45.4913 242.276 46.6024 242.005 47.1484 242.318C47.0381 242.704 48.3538 242.898 49.2494 243.418C49.2332 243.285 51.1225 243.937 52.0377 244.243L52.0422 244.172C52.0395 244.608 52.9578 244.962 53.5609 245.345C53.6423 245.124 53.571 244.987 53.2678 244.724L53.8765 245.017C53.957 245.203 54.1129 245.365 54.4787 245.609L54.469 245.274C55.2518 245.73 55.9103 246.405 56.9886 246.855C56.8985 247.117 55.8154 247.038 56.7502 247.818C56.8673 247.713 57.039 247.523 56.8005 247.307C56.8821 247.379 57.0525 247.602 57.2644 247.655L56.9796 247.196C57.4849 247.373 57.1074 247.511 57.4762 247.708C57.5799 247.524 57.8249 247.735 57.8598 247.571C57.7783 247.498 57.4984 247.452 57.4095 247.301C57.8326 247.515 58.3925 247.702 58.6405 247.668C58.5374 247.744 58.4842 247.907 58.7597 248.12C59.496 248.634 59.1557 248.08 59.6533 248.281C59.7489 248.522 60.3145 248.716 60.1441 248.984C60.3626 249.127 60.4913 249.036 60.6212 249.022C60.9303 249.387 62.3461 250.337 61.7284 250.288L61.6209 250.238C61.6209 250.238 61.6553 250.277 61.6726 250.296C62.1838 250.869 62.8458 251.292 63.4875 251.744C64.1297 252.19 64.8172 252.597 65.3296 253.152L65.396 253.074C65.5507 253.254 65.6832 253.396 65.8976 253.604C66.112 253.813 66.326 254.027 66.5347 254.229C66.7372 254.431 66.9221 254.619 67.0711 254.792L67.1741 254.914C67.2097 254.935 67.1593 254.955 67.1394 254.977L67.0677 255.043C66.9704 255.125 66.8791 255.208 66.789 255.272C66.6155 255.492 66.5607 255.876 66.78 255.81C66.464 256.144 66.2697 256.302 66.0843 256.515C65.9328 256.676 65.7845 256.886 65.5547 257.316C66.1213 256.907 65.5433 257.597 66.0868 256.868C65.6293 257.597 65.6439 257.856 64.8352 258.402C65.2521 258.321 64.7102 259.122 64.3922 259.39L64.6076 258.797C64.2917 259.131 64.0617 259.466 63.8257 259.8L64.2531 259.846C63.8818 260.672 63.2416 261.177 62.6575 261.67C62.4816 261.829 62.4453 261.82 62.3548 261.891C62.2773 261.95 62.1994 262.016 62.146 262.084C62.0327 262.224 61.9921 262.383 62.1856 262.434C61.9392 262.54 61.9242 262.485 61.9363 262.39C61.9415 262.307 61.9677 262.183 61.6976 262.275C61.5615 262.486 61.6126 262.652 61.7445 262.704C61.8761 262.762 62.0752 262.724 62.0489 262.752C62.055 262.753 62.0607 262.759 62.0665 262.765C62.3278 262.714 62.1538 262.844 62.0783 262.97C61.9902 263.1 62.013 263.228 62.397 263.18C62.2359 263.299 61.7177 263.623 62.4462 263.771C63.2588 263.751 63.2522 263.266 63.0009 263.157C62.9034 263.143 62.8397 263.18 62.8248 263.22C62.6806 263.167 62.5613 263.11 62.7847 262.978C62.7821 263.02 62.7795 263.061 62.7769 263.103C62.8403 263.072 62.9213 263.055 62.9961 263.037C63.0894 263.02 63.0966 263.003 63.2942 262.988C63.5973 262.959 63.8208 262.922 63.6865 262.81C64.3106 262.955 63.9495 263.028 63.4855 263.075C64.5578 262.933 65.1541 263.13 66.2533 263.049C66.0772 263.113 65.9146 263.256 66.0862 263.264C67.6968 263.164 66.7888 263.529 67.883 263.627C68.5084 263.456 67.6666 263.156 68.7663 263.362C69.4369 263.254 68.916 263.033 68.6467 262.916C69.6433 263.199 70.521 262.825 71.0944 262.799L70.5671 262.68C70.8821 262.752 71.1398 262.761 71.4035 262.77L71.0993 263.015C71.4089 262.98 71.6726 262.989 71.6667 262.886C71.9812 263.067 71.4136 263.297 72.0432 263.55C72.4562 263.434 73.298 263.734 73.4477 263.404C72.1466 263.469 73.5977 263.069 72.4971 262.976C72.7093 263.023 72.967 263.031 73.2765 262.996C73.322 262.958 73.2317 262.927 73.1472 262.902C74.3925 262.648 73.712 263.306 75.0006 263.342C74.8409 263.144 75.3051 262.995 75.5173 263.042C74.9959 263.025 75.2644 263.351 75.7398 263.514C76.5649 263.394 76.6345 263.657 77.0649 263.655L76.57 263.706C76.7358 263.904 77.1486 263.889 77.7213 263.971C77.7735 263.825 77.2001 263.852 77.4068 263.79C78.0423 264.146 78.8573 263.498 79.745 263.754C80.158 263.637 79.7918 263.399 80.1529 263.326C81.1495 263.608 81.2362 263.107 82.2847 263.345C81.9804 263.59 81.923 263.526 82.6619 263.8L80.9376 263.556L82.0369 263.966C81.5154 263.948 80.9429 263.765 80.6276 263.794C81.1543 264.021 81.0969 263.957 80.8446 264.158C81.5615 263.802 82.2536 264.432 83.0792 264.204L83.0637 263.569C83.6858 263.45 84.2326 263.554 84.8275 263.672C84.9732 263.702 85.125 263.732 85.2829 263.762C85.3804 263.776 85.3858 263.789 85.4282 263.798L85.5368 263.83C85.6883 263.866 85.8718 263.881 86.0154 263.844C85.9704 263.877 85.9188 263.915 85.8551 263.951C85.9761 264.081 86.1351 264.093 86.2888 264.093C86.4489 264.088 86.5796 264.063 86.8033 264.122C86.4853 263.9 86.5269 263.825 86.3695 263.687C86.5054 263.776 86.6101 263.772 86.8227 263.813C86.826 263.759 86.878 263.715 87.2145 263.838C86.9616 263.656 86.7247 263.512 86.517 263.394C86.0687 262.993 86.9382 262.948 86.1129 261.991C86.1301 262.208 86.0246 262.224 85.9594 262.284C85.9269 262.312 85.906 262.352 85.9134 262.43C85.915 262.502 85.9909 262.664 85.9872 262.723C85.9704 262.698 85.793 262.487 85.7199 262.379C85.6352 262.259 85.6041 262.167 85.6621 262.123C85.405 262.007 85.1948 261.045 84.8004 260.864C84.7695 260.67 84.9156 260.497 84.6184 260.138C84.5518 260.121 84.5344 260.203 84.5344 260.203C84.6184 260.138 84.2069 259.543 84.6441 259.727C83.9873 259.418 83.4544 258.7 82.9452 257.995C82.815 257.817 82.6905 257.646 82.5659 257.474C82.4296 257.296 82.3327 257.175 82.15 256.951C81.8122 256.553 81.4653 256.203 81.0428 255.882C80.9527 255.749 80.8627 255.616 80.7726 255.484L80.7052 255.382C80.7052 255.382 80.6826 255.351 80.6715 255.332L80.723 255.294L80.9418 255.138C81.2251 254.933 81.5087 254.722 81.7924 254.511C82.2631 254.16 82.7212 253.813 83.1206 253.522C83.0357 253.503 83.052 253.439 82.9463 253.556C83.701 252.694 83.8891 253.619 84.7774 252.684C85.0955 252.021 84.11 252.936 84.3591 252.591C84.0805 251.935 85.6607 251.731 86.1583 250.951L85.9566 251.031C86.3845 250.478 87.4569 250.336 88.3722 249.756C88.3722 249.756 88.2938 249.732 88.3101 249.668C89.1502 249.603 90.4063 248.978 91.3942 248.614C90.9698 248.52 90.9032 248.7 90.9363 248.368C91.3717 248.187 91.0368 248.825 91.9012 248.468C92.0965 248.197 92.6332 247.773 92.5785 247.469L91.7856 247.861C92.0048 247.304 92.8133 247.35 93.2158 247.107L93.0822 246.983C93.719 246.728 94.084 246.691 94.4558 246.643C94.828 246.589 95.2067 246.529 95.8813 246.259L95.7907 246.432C96.6944 246.527 96.3174 245.971 97.1778 245.973L97.239 245.487C97.7678 245.386 99.1391 245.279 100.05 245.058C99.444 244.926 98.3373 245.126 97.6096 245.164C98.1058 244.994 99.315 244.629 99.6459 244.745C99.4353 244.77 99.141 244.759 98.9672 244.883C99.3324 244.941 99.7257 244.943 100.147 244.886C100.574 244.842 101.04 244.76 101.541 244.62C101.33 244.25 101.972 244.02 102.731 243.781C103.505 243.579 104.397 243.375 104.699 242.98C106.585 242.896 108.319 242.196 110.507 242.01C109.822 242.734 111.138 241.947 111.083 242.63C111.586 242.64 111.778 242.614 111.818 242.569L113.312 242.077C113.663 241.866 112.821 241.966 112.855 241.814C113.962 241.698 113.299 241.49 114.03 241.302C113.893 241.537 114.44 241.634 115.073 241.529L114.193 241.848C114.982 242.012 115.304 241.864 115.639 241.723C115.803 241.652 115.974 241.582 116.197 241.546C116.285 241.517 116.26 241.521 116.39 241.615C116.32 241.544 116.275 241.474 116.243 241.406C116.294 241.47 116.374 241.47 116.53 241.525C116.699 241.58 116.987 241.687 117.762 241.987C117.643 241.912 117.231 241.718 117.045 241.655C117.095 241.641 117.271 241.679 117.561 241.75L117.719 241.786C117.767 241.796 117.852 241.821 117.847 241.808C117.878 241.799 117.903 241.789 117.922 241.779C117.967 241.752 117.982 241.706 117.955 241.644C117.901 241.526 117.686 241.323 117.286 241.232L117.027 241.259C117.047 241.219 117.356 241.105 116.965 241.057C116.878 241.08 116.771 241.125 116.723 241.103C116.743 241.081 116.777 241.024 116.751 240.95C116.731 240.876 116.644 240.786 116.534 240.777C116.53 240.843 116.52 240.908 116.492 240.959C116.413 240.941 116.359 240.925 116.312 240.897C116.288 240.883 116.27 240.87 116.246 240.856C116.169 240.814 116.098 240.772 116.021 240.73C115.712 240.55 115.442 240.349 115.185 240.144C114.669 239.744 114.2 239.282 113.527 238.935C113.346 239.37 111.983 239.04 111.312 238.873L111.307 238.945C111.072 238.866 110.838 238.782 110.616 238.692C110.387 238.615 110.17 238.544 109.953 238.472C109.526 238.325 109.125 238.161 108.724 237.986C108.322 237.823 107.935 237.624 107.514 237.477C107.092 237.336 106.658 237.2 106.193 237.073C105.563 237.227 104.57 237.082 103.471 237.049C102.926 237.018 102.357 236.979 101.806 236.947C101.254 236.927 100.721 236.993 100.244 237.051C100.532 236.966 100.193 236.682 99.852 236.637C99.4095 236.733 98.5877 236.309 98.684 236.735L98.8442 236.73C98.5245 237.124 97.6147 237.123 96.8985 237.174L96.7241 236.622C96.2719 236.873 95.7373 236.968 95.184 237.068C94.6303 237.174 94.0367 237.229 93.4749 237.268C92.3405 237.321 91.3217 237.492 90.9173 237.962C90.4402 237.925 89.8911 238.055 89.414 238.017L89.525 238.307C88.3491 238.728 87.7692 238.957 86.2753 239.353C86.3965 239.381 86.5231 239.421 86.6501 239.455C85.8502 239.762 85.2997 239.031 84.5265 239.304L84.4826 239.809C84.1296 239.949 83.7816 240.107 83.4391 240.277L82.4504 240.851C81.7935 241.23 81.0987 241.528 80.3376 241.706C80.39 241.753 80.4949 241.845 80.7168 241.737C80.1039 242.101 78.5124 243.369 78.3875 242.713C78.499 242.895 78.1496 243.077 77.7115 243.299C77.2734 243.522 76.7062 243.746 76.3154 243.9L76.5997 244.073C76.5003 244.089 76.4521 244.073 76.3329 244.111C76.2267 244.139 76.1327 244.167 76.0391 244.19C75.8641 244.236 75.7269 244.267 75.589 244.309C75.3197 244.39 75.0607 244.501 74.628 244.736C74.5763 244.678 74.4714 244.586 74.3608 244.487C74.0937 244.335 74.0788 244.573 74.466 244.771C73.9908 244.506 73.8146 244.276 73.6499 244.06C73.497 243.85 73.25 243.574 72.8632 243.369L73.0248 243.735C72.378 243.265 72.4915 243.22 72.2736 242.772C71.9621 242.347 70.9726 241.951 70.7233 242.105C70.7291 241.914 70.4853 241.488 70.0431 241.285C69.9353 241.336 70.043 241.483 70.1001 241.553C68.8893 240.96 68.5868 240.195 67.6286 239.987C67.5622 240.065 67.4877 240.078 67.4024 240.065C68.3348 240.587 69.0969 240.983 69.0322 240.936C68.8896 241.152 68.1196 240.786 68.509 241.439C68.0304 240.934 67.2241 239.967 66.4316 239.665C66.3823 239.667 66.3391 239.669 66.2883 239.695L66.3515 239.766C66.1714 239.698 66.037 239.586 65.9084 239.48C65.6488 239.405 65.4794 239.362 65.246 239.26C65.0578 239.418 64.3063 238.952 63.9177 238.777C64.0751 238.521 63.5466 238.323 64.1245 238.321C64.0511 238.315 64.1819 238.386 64.4379 238.519C64.4911 238.554 64.5626 238.589 64.591 238.627C64.5917 238.615 64.5802 238.603 64.5748 238.59C64.825 238.718 65.1594 238.876 65.5347 239.067C65.2942 238.785 65.0281 238.518 64.5272 238.467C64.4087 238.2 64.2729 237.914 64.1836 237.769C63.4827 237.869 62.3262 237.688 62.0872 237.872C61.5102 237.563 60.8049 237.244 60.1603 236.936C59.5077 236.657 58.9247 236.347 58.6052 235.951C58.2663 235.769 58.1485 235.981 57.9922 236.022C58.1816 236.139 58.4294 236.206 58.5206 236.321C58.1812 236.145 57.658 235.96 57.2075 235.792C56.7497 235.642 56.3668 235.475 56.3187 235.261C55.3561 235.221 56.7563 235.733 55.5058 235.382L55.6498 235.537C54.997 235.557 54.4402 235.417 53.9075 235.286C53.3748 235.154 52.8768 234.959 52.3605 234.762C51.843 234.583 51.317 234.344 50.7298 234.298C50.1441 234.227 49.5046 234.23 48.7943 234.384C48.9934 234.346 49.0927 234.329 49.1335 234.267C48.7265 234.288 48.3216 234.274 47.9157 234.278C47.5086 234.3 47.1023 234.309 46.6907 234.307C46.279 234.304 45.8677 234.295 45.456 234.292C45.2473 234.288 45.0389 234.277 44.836 234.279L44.2191 234.314C43.3985 234.363 42.5714 234.417 41.7658 234.52C40.9683 234.69 40.1931 234.898 39.4501 235.18C38.5977 235.442 38.4549 235.269 37.8677 235.222L37.7773 235.586L36.7634 235.482C36.4236 235.509 36.1283 235.611 35.8495 235.744C35.5764 235.884 35.3421 236.093 35.0844 236.282C34.5747 236.666 34.0356 237.031 33.1462 237.098L33.2497 236.819C32.972 236.934 32.5362 237.121 32.1871 237.297C31.838 237.473 31.5826 237.626 31.6878 237.712C31.6144 237.706 31.3998 237.599 31.2515 237.809L31.3217 237.964C30.8453 238.112 30.3458 238.234 29.8683 238.399C28.9865 239.131 30.3855 238.877 29.0366 239.805C28.4969 240.079 27.2872 240.354 27.4049 240.142C27.6107 239.997 27.8748 239.707 27.7858 239.556L27.2542 239.801C26.8641 239.453 26.1479 239.307 27.1568 238.214L28.1841 237.907L28.3188 237.523L27.5956 237.98C27.87 237.523 28.2454 237.517 28.6122 237.45C28.6097 237.294 28.6809 237.138 28.8194 236.988C29.1798 236.927 29.5727 236.934 29.9492 236.91C29.9572 236.683 29.3489 236.779 29.8906 236.373C30.4207 236.349 29.7184 236.963 30.4768 236.73C30.7922 236.307 30.5772 236.206 31.1791 236.116C31.1884 235.967 31.042 235.95 30.8112 236.003C31.3454 235.914 32.0403 235.419 32.4114 235.58C32.765 235.135 34.0388 235.015 33.8068 234.595C34.0068 234.641 34.7896 234.607 35.2293 234.457C34.2079 234.178 36.9034 233.931 36.499 233.421C36.8887 233.577 37.4608 233.473 38.0786 233.325C38.7072 233.201 39.4023 233.095 39.9845 233.123C39.9126 233.093 39.7746 233.04 39.6798 233.081C40.2984 232.92 40.4514 232.735 40.8368 232.568C40.9166 232.766 41.2008 232.842 41.5414 232.899C41.881 232.974 42.271 233.029 42.5536 233.129C43.2718 232.653 42.0158 232.685 42.2013 232.275C42.2107 232.617 43.6022 232.482 43.3741 232.787C43.9405 232.479 43.8704 232.617 44.1457 232.244C44.2976 232.765 44.71 232.265 45.2303 232.593C46.077 232.325 45.4272 232.1 46.3891 232.248C46.8422 232.081 45.9803 231.905 45.9803 231.905L45.9621 231.999ZM67.4995 238.218C67.3342 238.109 67.1919 238.026 67.1031 237.971C67.1858 238.025 67.2983 238.094 67.4934 238.217L67.4995 238.218ZM69.1382 239.143C68.9355 239.044 68.686 238.904 68.419 238.751C68.3109 238.809 68.3214 238.935 68.4817 239.026C68.4272 238.914 68.8411 239.078 69.1321 239.143L69.1382 239.143ZM64.7176 239.158C64.9537 239.314 65.0649 239.305 65.1287 239.268C65.0097 239.205 64.8731 239.128 64.6952 239.024C64.6959 239.013 64.6848 238.994 64.6798 238.975C64.6757 239.041 64.6842 239.101 64.7176 239.158Z" fill="white"/>
<path d="M64.4181 238.584C64.3825 238.563 64.3656 238.537 64.3178 238.516C64.379 238.521 64.4402 238.525 64.5013 238.53C64.5171 238.573 64.5389 238.617 64.5547 238.66C64.5069 238.638 64.4594 238.611 64.4177 238.589L64.4181 238.584Z" fill="white"/>
<path d="M61.682 250.309L61.7176 250.329C61.6813 250.321 61.6511 250.312 61.6263 250.316C61.6568 250.319 61.6633 250.313 61.6817 250.315L61.682 250.309Z" fill="white"/>
<path d="M90.5598 235.284L90.5737 235.357L90.397 235.331L90.5598 235.284Z" fill="white"/>
<path d="M52.4922 245.907C52.4922 245.907 52.4169 245.931 52.3378 245.919C52.3511 245.902 52.4127 245.901 52.4922 245.907Z" fill="white"/>
<path d="M48.4959 244.201C48.2963 244.15 48.0891 244.121 47.8822 244.087C48.1506 244.12 48.3452 244.153 48.4959 244.201Z" fill="white"/>
<path d="M45.3196 243.22C45.2927 243.158 45.2953 243.116 45.2975 243.081L45.3037 243.081L45.3196 243.22Z" fill="white"/>
<path d="M76.7491 265.676C76.792 265.679 76.8409 265.683 76.8772 265.692C77.1801 265.764 76.9732 265.73 76.7491 265.676Z" fill="white"/>
<path d="M60.2501 264.369C60.394 264.428 60.55 264.488 60.7504 264.528C60.3441 264.538 60.031 264.531 60.2501 264.369Z" fill="white"/>
<path d="M86.8229 259.672C86.8003 259.641 86.7773 259.615 86.7547 259.583L86.8233 259.666L86.8229 259.672Z" fill="white"/>
<path d="M61.7492 264.56C61.3345 264.604 61.0042 264.578 60.7492 264.528C61.0879 264.519 61.464 264.501 61.7492 264.56Z" fill="white"/>
<path d="M31.1856 240.831L31.0255 240.836C31.0255 240.836 31.0216 240.8 31.0101 240.787L31.1856 240.831Z" fill="white"/>
<path d="M31.0138 240.788L30.8382 240.744C30.9178 240.75 30.9912 240.756 31.0138 240.788Z" fill="white"/>
<path d="M30.455 240.653L30.8244 240.742C30.696 240.732 30.5358 240.737 30.455 240.653Z" fill="white"/>
<path d="M35.5666 241.041L35.6023 241.157C35.6023 241.157 35.5632 241.094 35.5666 241.041Z" fill="white"/>
<path d="M36.8789 241.27C36.5608 241.244 36.0603 241.384 35.632 241.254L35.6009 241.162C35.7858 241.35 36.6041 241.044 36.8789 241.27Z" fill="white"/>
<path d="M42.6763 241.083L41.5392 240.886C41.7585 240.819 42.0527 240.735 41.5521 240.581C43.0444 240.604 41.203 240.757 42.6763 241.083Z" fill="white"/>
<path d="M46.1573 241.929C45.5816 241.698 46.2162 241.772 46.2085 241.7C46.551 241.924 46.6271 241.984 46.1573 241.929Z" fill="white"/>
<path d="M66.6384 256.133L66.968 256.171C66.4918 256.707 66.8601 256.126 66.6384 256.133Z" fill="white"/>
<path d="M62.4206 259.12L62.5598 258.664L62.8984 258.655L62.4206 259.12Z" fill="white"/>
<path d="M62.5806 262.136L62.6562 262.106C62.5799 262.148 62.4966 262.201 62.4004 262.266L62.5806 262.136Z" fill="white"/>
<path d="M81.5891 257.218C81.7359 257.23 81.8777 257.223 82.0134 257.216C82.1242 257.41 82.0624 257.513 81.991 257.573C81.8971 257.602 81.8279 257.626 81.583 257.218L81.5891 257.218Z" fill="white"/>
<path d="M95.6036 246.177C95.7225 245.947 96.1646 245.659 96.5312 245.694C96.1516 245.868 95.8149 246.14 95.6036 246.177Z" fill="white"/>
<path d="M95.8691 237.158L96.2388 237.241L95.553 237.199L95.8691 237.158Z" fill="white"/>
<g clip-path="url(#clip1_1676_140699)">
<path d="M118.434 153.682C132.639 148.847 148.5 156.985 156.428 169.448C170.142 164.724 187.503 168.484 195.727 181.383C183.495 176.026 170.716 175.997 159.224 180.782L162.729 190.451L138.877 181.901L146.995 176.426C140.854 165.556 131.07 157.222 118.441 153.679L118.434 153.682Z" fill="white"/>
<path d="M118.284 154.276C118.195 154.168 118.303 154.007 118.582 154.137L118.71 154.494L118.289 154.278L118.284 154.276Z" fill="white"/>
<path d="M120.385 154.331C120.689 154.571 120.99 154.965 120.69 155.154C120.447 154.755 120.329 154.857 120.07 154.413C119.789 154.288 119.538 154.352 119.557 154.476C119.474 154.37 119.092 154.404 118.989 154.173C119.424 154.061 119.914 154.2 120.35 154.538C120.476 154.506 120.399 154.397 120.388 154.337L120.385 154.331Z" fill="white"/>
<path d="M144.31 171.446L144.164 171.309C144.21 171.339 144.259 171.387 144.31 171.446Z" fill="white"/>
<path d="M141.747 182.298C141.669 182.266 141.655 182.227 141.671 182.201C141.729 182.241 141.778 182.277 141.747 182.298Z" fill="white"/>
<path d="M144.708 183.004C144.641 182.987 144.588 182.977 144.525 182.963C144.6 182.96 144.671 182.967 144.708 183.004Z" fill="white"/>
<path d="M144.306 171.447L144.675 171.797C144.614 171.882 144.466 171.634 144.306 171.447Z" fill="white"/>
<path d="M123.934 156.464C123.847 156.412 123.779 156.351 123.724 156.29C123.797 156.336 123.866 156.376 123.941 156.417C123.935 156.432 123.935 156.448 123.939 156.466L123.934 156.464Z" fill="white"/>
<path d="M139.178 165.023L139.073 164.913C139.065 164.86 139.066 164.799 139.067 164.739C139.104 164.832 139.142 164.925 139.178 165.023Z" fill="white"/>
<path d="M134.42 160.832C134.542 160.91 134.423 161.144 134.398 161.267C134.399 161.134 134.348 161.03 134.259 160.939C134.286 160.9 134.338 160.866 134.42 160.832Z" fill="white"/>
<path d="M125.616 156.055L125.471 155.946C125.512 155.973 125.573 156.021 125.616 156.055Z" fill="white"/>
<path d="M142.292 168.331C142.327 168.313 142.367 168.312 142.398 168.319C142.373 168.342 142.333 168.343 142.292 168.331Z" fill="white"/>
<path d="M125.293 151.128C125.293 151.128 125.293 151.156 125.298 151.174C125.255 151.151 125.246 151.131 125.293 151.128Z" fill="white"/>
<path d="M118.462 153.748L118.564 153.734C118.592 153.779 118.62 153.824 118.637 153.869L118.467 153.75L118.462 153.748Z" fill="white"/>
<path d="M150.238 184.632C150.238 184.632 150.224 184.626 150.212 184.627C150.077 184.55 150.156 184.582 150.238 184.632Z" fill="white"/>
<path d="M187.354 177.464C186.714 177.548 188.255 177.992 187.312 178.024C187.417 177.944 186.585 177.428 187.354 177.464Z" fill="white"/>
<path d="M124.09 156.495C124.168 156.527 124.243 156.569 124.318 156.594C124.209 156.555 124.142 156.522 124.09 156.495Z" fill="white"/>
<path d="M187.312 178.028L187.214 178.033C187.254 178.032 187.278 178.031 187.312 178.028Z" fill="white"/>
<path d="M160.773 188.572C160.832 188.64 160.863 188.692 160.891 188.736C160.856 188.694 160.828 188.65 160.773 188.572Z" fill="white"/>
<path d="M153.25 186.271L153.492 186.319C153.395 186.307 153.316 186.292 153.25 186.271Z" fill="white"/>
<path d="M160.432 186.296C160.371 186.177 160.321 186.146 160.293 185.968C160.313 185.976 160.324 185.991 160.34 186.009C160.328 186.082 160.34 186.17 160.432 186.296Z" fill="white"/>
<path d="M158.432 180.781C158.47 180.83 158.506 180.883 158.542 180.937C158.565 181.007 158.59 181.089 158.607 181.163L158.427 180.779L158.432 180.781Z" fill="white"/>
<path d="M141.514 154.711C141.374 154.721 141.273 154.763 141.186 154.811C141.339 154.679 140.637 154.266 141.514 154.711Z" fill="white"/>
<path d="M123.991 156.326C123.996 156.4 124.024 156.445 124.092 156.489C124.04 156.463 123.988 156.436 123.936 156.409C123.936 156.365 123.949 156.331 123.991 156.326Z" fill="white"/>
<path d="M162.314 185.453L161.992 184.673C162.096 184.888 162.214 185.169 162.314 185.453Z" fill="white"/>
<path d="M173.567 166.808L173.375 166.747C173.453 166.75 173.519 166.772 173.567 166.808Z" fill="white"/>
<path d="M161.179 182.31C161.041 182.198 160.934 182.066 160.848 181.92C160.858 181.88 160.857 181.84 160.881 181.806L161.186 182.307L161.179 182.31Z" fill="white"/>
<path d="M136.002 152.147C136.811 152.387 136.291 152.587 136.409 152.823C137.331 153.21 136.922 152.716 137.298 152.652C137.877 152.916 138.201 153.425 138.638 153.57C138.688 153.529 138.779 153.544 138.707 153.437C138.967 153.687 139.418 153.87 139.876 154.063C140.341 154.252 140.78 154.525 141.056 154.837C141.119 154.835 141.158 154.823 141.182 154.805C141.002 154.904 140.909 155.055 140.879 155.176C141.206 155.342 141.397 155.67 141.62 155.533C141.413 155.438 141.435 155.352 141.37 155.242L141.673 155.499C142.127 155.367 141.247 155.164 141.352 154.952C141.992 155.379 142.66 155.995 143.188 156.227C143.446 156.015 142.067 155.448 142.866 155.596C142.59 155.473 142.291 155.396 142.009 155.291C142.849 155.156 141.499 155.084 142.306 154.891C142.87 155.104 143.138 155.318 143.41 155.523C143.682 155.729 143.95 155.932 144.488 156.195C144.632 156.482 144.278 156.371 144.423 156.657C145.072 157.205 145.433 157.24 145.766 157.243C146.093 157.248 146.376 157.236 146.77 157.757C146.912 158.12 146.794 158.483 147.618 158.846L147.594 158.381C148.523 159.07 147.796 159.19 148.88 159.759C148.803 159.517 148.25 159.103 148.412 159.18C149.196 159.455 148.717 159.682 149.185 160.055L149.485 159.895C149.964 160.284 150.364 160.802 150.809 161.294C151.236 161.801 151.712 162.283 152.132 162.809C152.15 162.689 152.061 162.453 152.348 162.619C152.869 163.309 153.525 163.942 154.145 164.611C154.751 165.285 155.405 165.923 155.983 166.525L156.122 167.203C156.207 167.321 156.38 167.358 156.329 167.198C156.78 167.671 156.207 167.321 156.296 167.634C156.487 167.945 156.701 167.949 156.634 167.711C156.748 167.946 156.706 167.951 156.727 168.043C156.74 168.126 156.767 168.232 156.807 168.348C156.883 168.357 156.984 168.359 157.086 168.345C157.146 168.336 157.175 168.336 157.269 168.314C157.396 168.277 157.522 168.245 157.648 168.213C158.15 168.073 158.6 167.879 158.953 167.7C158.872 167.69 158.786 167.677 158.708 167.673C159.578 167.361 159.86 167.992 160.622 167.564L160.452 167.55C161.395 167.252 162.442 167.156 163.416 167.014C164.384 166.842 165.308 166.785 166.048 166.515C166.208 166.702 166.698 166.624 167.167 166.571C167.641 166.547 168.094 166.549 168.169 166.823C168.731 166.691 168.935 166.602 169.194 166.519C169.453 166.452 169.78 166.341 170.589 166.332C171.021 166.342 171.218 166.727 171.742 166.824L171.772 166.542L172.473 166.899C172.608 166.799 172.747 166.689 172.885 166.595L173.377 166.746C173.179 166.731 172.945 166.808 172.968 166.895C173.723 167.142 174.87 166.992 174.914 166.849C175.517 167.006 176.11 167.231 176.697 167.459C176.682 167.336 176.384 167.226 176.155 167.099C177.069 167.61 176.39 166.845 177.227 167.319C177.095 167.354 177.253 167.502 177.264 167.562C177.502 167.531 177.877 167.573 178.278 167.653C178.679 167.744 179.1 167.915 179.458 168.061L179.373 167.826C180.039 168.025 180.744 168.24 181.444 168.542C182.138 168.858 182.843 169.189 183.568 169.484C183.012 169.352 183.002 169.715 183.405 169.918L183.695 169.713C183.89 169.998 183.212 169.628 183.671 170.081C184.199 170.313 184.165 169.949 183.901 169.708L184.488 170.125C184.563 170.062 184.434 169.942 184.447 169.82C184.626 170.12 185.682 170.117 185.909 170.598L185.99 170.537C186.343 170.708 186.632 170.898 186.887 171.074C187.142 171.25 187.37 171.409 187.594 171.562C188.028 171.877 188.45 172.149 188.966 172.531C188.838 172.756 189.266 173.014 189.44 173.412C189.837 173.662 190.268 173.91 190.718 174.182C191.162 174.457 191.572 174.818 191.983 175.208C192.473 175.845 192.001 175.526 192.154 175.877C192.362 175.75 193.17 176.534 192.866 176.017C192.928 176.075 192.985 176.132 193.038 176.187C193.098 176.25 193.18 176.361 193.245 176.443C193.382 176.615 193.507 176.777 193.623 176.93C193.851 177.234 194.064 177.503 194.281 177.792C194.696 178.36 195.165 178.951 195.747 179.876C195.429 179.585 195.191 179.35 195.154 179.418C195.321 179.719 195.873 180.254 196.055 180.312L196.028 180.234C196.247 180.679 196.589 181.173 197.041 181.762C197.268 182.054 197.52 182.368 197.792 182.706L197.999 182.963C198.063 183.044 198.159 183.15 198.182 183.192L198.428 183.553C197.776 183.377 197.027 183.172 196.178 182.86C195.341 182.547 194.385 182.174 193.563 181.706L193.727 181.795L191.113 180.52C190.851 180.436 190.747 180.427 190.735 180.444C190.727 180.463 190.824 180.519 190.918 180.585C191.107 180.712 191.383 180.891 190.921 180.797C190.492 180.601 190.4 180.546 190.217 180.461C190.05 180.382 189.886 180.321 189.733 180.264C189.418 180.152 189.114 180.073 188.825 180C188.243 179.863 187.682 179.79 187.068 179.501C185.95 179.912 183.519 178.722 182.101 179L182.195 178.844C181.857 178.634 181.764 178.874 181.501 178.894C181.549 178.769 181.896 178.783 181.685 178.669C178.697 178.125 175.476 178.534 172.486 178.988C171.392 179.163 171.73 178.202 170.392 178.773C170.543 178.851 170.69 178.939 170.84 179.022C168.537 178.978 166.319 179.841 164.123 180.167C164.274 180.201 164.304 180.285 164.512 180.231C164.128 180.547 162.883 180.761 162.808 180.587C162.493 180.714 162.789 180.768 162.622 180.922C162.427 181.059 162.124 181.08 161.852 181.108C161.581 181.148 161.344 181.19 161.27 181.337C161.244 181.388 161.42 181.359 161.505 181.344C161.426 181.345 161.305 181.379 161.168 181.423L161.075 181.458L161.057 181.461L161.02 181.469C160.979 181.474 160.907 181.467 160.831 181.358C160.802 181.402 160.765 181.426 160.719 181.44C160.679 181.441 160.696 181.47 160.699 181.493L160.703 181.556C160.708 181.602 160.712 181.648 160.732 181.701C160.739 181.726 160.753 181.748 160.767 181.771C160.778 181.786 160.78 181.781 160.799 181.806L160.867 181.922C160.743 182.432 161.501 183.257 161.161 183.518C161.541 183.329 161.994 184.823 161.993 185.395C162.052 185.185 162.279 185.799 162.372 185.543C162.577 186.126 162.695 186.685 162.454 186.648C162.817 186.912 163.165 188.164 163.342 188.907C163.544 189.717 163.674 190.258 164.345 191.175C164.461 191.594 164.573 192.006 164.67 192.356C163.338 191.798 162.061 191.261 160.817 190.738C160.538 190.624 160.259 190.511 159.986 190.394L159.585 190.231L159.309 190.107C158.98 189.962 158.648 189.822 158.324 189.679C158.284 189.884 158.714 190.048 159.127 190.211C159.23 190.253 159.333 190.295 159.426 190.333C159.548 190.383 159.72 190.452 159.837 190.517C160.084 190.639 160.247 190.761 160.212 190.864C160.041 190.794 159.883 190.719 159.721 190.653C159.576 190.588 159.377 190.502 159.327 190.47C159.168 190.383 159.014 190.298 158.869 190.217C158.576 190.053 158.302 189.897 158.023 189.739C157.471 189.437 156.906 189.168 156.156 188.952C155.757 188.867 156.315 189.199 156.423 189.316C154.991 188.622 153.54 188.325 152.294 187.635C152.286 187.67 152.415 187.762 152.538 187.839C152.283 187.736 151.913 187.68 152.002 187.51L152.237 187.65C152.739 187.539 151.383 186.737 151.386 186.582C151.654 187.252 150.037 186.244 150.521 187.146C150.359 187.052 150.173 186.888 150.254 186.782C149.987 186.723 149.886 186.765 150.097 186.996C149.198 186.563 149.595 186.492 148.747 186.191C148.719 186.279 148.881 186.373 148.932 186.505C148.563 186.183 148.19 185.859 147.449 185.679C147.474 185.745 147.368 185.785 147.582 185.861C146.363 185.392 145.643 184.661 144.241 184.34C144.51 184.86 143.742 184.298 143.561 184.602L142.872 184.243L143.217 184.189C142.572 183.966 142.12 183.537 141.501 183.436C141.677 183.552 141.795 183.644 141.943 183.743L140.444 183.133L141.456 183.362C141.061 183.123 141.164 183.048 141.196 182.978C141.224 182.907 141.223 182.867 140.718 182.734C140.871 182.824 140.039 182.496 139.319 182.453C139.097 182.263 138.981 182.11 138.373 181.951C138.39 181.936 138.408 181.921 138.427 181.901C138.322 181.836 137.485 182.062 137.416 182.022C137.929 181.854 138.393 181.565 138.87 181.271C139.347 180.977 139.837 180.677 140.214 180.614C139.999 180.67 139.764 180.603 139.78 180.548C139.975 180.511 140.161 180.487 140.332 180.468C140.574 180.211 140.605 180.146 140.428 180.09C140.955 179.711 140.932 179.857 140.941 179.966C140.942 180.022 140.953 180.066 141.019 180.042C141.051 180.033 141.104 179.999 141.167 179.953C141.224 179.909 141.302 179.841 141.4 179.748C141.319 179.781 141.334 179.727 141.166 179.797C142.013 179.104 142.997 178.744 143.762 178.089C143.802 177.634 142.987 178.507 143.093 178.073C143.71 177.697 144.39 177.363 145.054 177.023C145.338 176.877 145.616 176.73 145.893 176.587C146.002 176.526 146.112 176.46 146.218 176.392L146.367 176.286C146.405 176.274 146.383 176.243 146.365 176.219L146.31 176.141L146.379 176.225C146.408 176.253 146.437 176.281 146.401 176.3C146.632 176.333 146.612 176.269 146.575 176.188C146.529 176.102 146.419 175.991 146.302 175.882C146.185 175.774 146.06 175.673 145.973 175.576C145.925 175.524 145.898 175.49 145.85 175.41C145.807 175.331 145.772 175.245 145.751 175.153C145.811 175.321 145.633 175.488 145.654 175.419C145.378 175.018 145.144 174.584 144.882 174.089C144.619 173.599 144.374 173.016 144.003 172.377L144.004 172.594C143.576 172.192 143.069 171.408 142.658 170.947C142.645 170.731 142.409 170.462 142.686 170.525C141.796 169.996 141.338 169.216 140.826 168.491C140.577 168.124 140.333 167.758 140.053 167.427C139.771 167.102 139.433 166.831 139.032 166.623C139.173 166.77 139.288 167.044 139.173 166.931L138.257 165.814C138.487 165.746 138.477 165.859 138.812 165.962C138.773 165.741 138.564 165.373 138.295 165.13C138.672 165.678 138.049 165.369 137.762 165.262C137.84 165.25 137.823 165.132 137.886 165.102C137.074 164.855 138.09 164.708 137.156 164.178L137.121 164.297C136.885 163.984 136.706 163.64 136.365 163.395C136.069 163.469 136.602 163.747 136.491 163.918C136.057 163.531 135.916 162.813 135.348 162.654C135.492 162.868 135.764 163.101 135.913 163.317C135.287 163.162 135.286 163.061 134.931 162.822L134.97 162.838C134.691 162.664 134.394 162.51 134.109 162.338L134.357 162.428C134.166 161.49 133.269 161.402 132.69 160.512C133.253 161.385 132.685 160.787 132.586 161.058C132.334 160.977 131.976 160.832 132.018 160.959C131.76 160.511 131.293 160.664 130.927 160.027C130.853 160.086 130.504 159.772 130.471 160.019C129.998 159.643 130.674 159.963 130.692 159.843C130.379 159.466 129.865 159.256 129.319 159.012C128.766 158.77 128.167 158.531 127.685 158.019C127.225 157.654 126.965 157.404 126.716 157.153C126.467 156.902 126.222 156.658 125.768 156.351C125.382 156.321 125.903 156.778 125.903 156.778C125.612 156.709 125.368 156.621 125.146 156.508C124.914 156.403 124.7 156.282 124.466 156.126C124.539 156.244 124.409 156.258 124.212 156.283C123.816 156.089 124.061 155.867 123.478 155.763C123.534 155.896 123.594 156.093 123.751 156.273C123.307 155.998 122.896 155.625 122.415 155.374C122.23 155.471 122.637 155.709 122.78 155.867C122.238 155.596 121.366 155.197 121.266 154.901L121.66 154.95C121.455 154.867 121.484 155.112 121.621 155.212C122.043 155.572 122.353 155.388 122.411 155.311L122.068 155.128C122.341 154.95 122.704 155.098 123.079 155.328C123.454 155.575 123.839 155.899 124.205 156.036L124.051 155.557L124.667 156.163C124.859 156.136 125.053 155.987 124.717 155.784C125.305 155.835 125.125 156.094 125.638 156.115C125.699 156.106 125.686 156.079 125.648 156.046L126.094 156.389C126.032 156.269 126.286 156.184 125.962 156.085C126.946 156.325 127.272 157.035 127.729 156.955L127.667 156.896C128.807 157.671 127.657 157.214 128.396 157.998L129.336 157.725L129.318 158.034C129.45 158.088 129.702 158.213 129.709 158.094C130.059 158.536 129.572 158.154 129.738 158.472C130.445 158.61 131.262 159.558 131.631 159.265C131.721 159.573 130.992 159.055 131.524 159.571C131.957 159.286 132.169 160.116 132.801 160.285C132.786 159.973 132.222 159.744 132.864 159.917C132.935 160.467 133.918 160.534 134.285 160.933C134.094 161.222 135.124 161.724 135.724 162.385C135.745 162.272 137.127 163.3 137.799 163.79L137.822 163.733C137.706 164.091 138.368 164.621 138.763 165.093C138.888 164.933 138.865 164.801 138.685 164.506L139.108 164.906C139.126 165.08 139.211 165.253 139.448 165.549L139.528 165.271C140.052 165.851 140.417 166.576 141.185 167.228C141.043 167.42 140.174 167.071 140.738 167.956C140.862 167.901 141.052 167.79 140.913 167.55C140.961 167.63 141.043 167.858 141.203 167.957L141.089 167.505C141.458 167.783 141.112 167.797 141.363 168.055C141.496 167.932 141.643 168.169 141.714 168.043C141.666 167.962 141.448 167.851 141.414 167.704C141.706 167.989 142.117 168.29 142.33 168.327C142.226 168.362 142.139 168.482 142.31 168.729C142.781 169.343 142.646 168.799 143.002 169.094C143.018 169.317 143.432 169.624 143.222 169.8C143.364 169.974 143.494 169.933 143.604 169.955C143.763 170.336 144.678 171.486 144.183 171.284L144.108 171.215C144.108 171.215 144.126 171.256 144.135 171.276C144.406 171.88 144.839 172.401 145.249 172.939C145.66 173.473 146.118 173.987 146.394 174.577L146.469 174.53C146.55 174.718 146.621 174.869 146.743 175.096C146.865 175.323 146.985 175.555 147.104 175.776C147.217 175.994 147.32 176.197 147.397 176.378L147.45 176.505C147.474 176.531 147.427 176.535 147.405 176.548L147.329 176.583C147.228 176.625 147.131 176.669 147.04 176.699C146.84 176.834 146.695 177.136 146.893 177.138C146.546 177.33 146.345 177.409 146.137 177.536C145.971 177.629 145.794 177.762 145.493 178.056C146.065 177.867 145.411 178.283 146.047 177.827C145.481 178.307 145.426 178.523 144.619 178.76C144.982 178.803 144.328 179.319 143.997 179.456L144.329 179.025C143.982 179.217 143.706 179.432 143.425 179.645L143.764 179.794C143.244 180.376 142.586 180.625 141.978 180.876C141.791 180.962 141.764 180.945 141.671 180.979C141.592 181.008 141.511 181.042 141.449 181.083C141.32 181.169 141.245 181.289 141.39 181.381C141.16 181.404 141.162 181.355 141.197 181.28C141.223 181.213 141.277 181.119 141.031 181.124C140.864 181.261 140.863 181.411 140.958 181.488C141.051 181.57 141.224 181.591 141.195 181.607C141.2 181.609 141.203 181.616 141.206 181.623C141.434 181.649 141.257 181.71 141.162 181.794C141.056 181.878 141.041 181.988 141.369 182.05C141.206 182.105 140.696 182.236 141.256 182.547C141.928 182.744 142.05 182.343 141.872 182.188C141.795 182.151 141.733 182.165 141.71 182.194C141.606 182.113 141.523 182.035 141.741 181.984C141.728 182.018 141.715 182.052 141.702 182.085C141.762 182.076 141.833 182.083 141.899 182.088C141.98 182.099 141.99 182.086 142.157 182.126C142.413 182.181 142.606 182.209 142.525 182.082C143 182.364 142.684 182.33 142.291 182.247C143.209 182.41 143.647 182.727 144.571 182.948C144.41 182.955 144.239 183.029 144.378 183.08C145.727 183.419 144.886 183.481 145.759 183.848C146.318 183.87 145.705 183.404 146.554 183.861C147.133 183.947 146.763 183.629 146.572 183.463C147.317 183.955 148.136 183.877 148.614 184.005L148.212 183.77C148.452 183.912 148.661 183.986 148.875 184.062L148.561 184.184C148.825 184.236 149.039 184.312 149.061 184.226C149.272 184.457 148.746 184.498 149.197 184.87C149.567 184.882 150.18 185.348 150.389 185.117C149.303 184.83 150.6 184.88 149.72 184.517C149.882 184.61 150.091 184.685 150.355 184.736C150.402 184.717 150.336 184.668 150.273 184.625C151.363 184.741 150.632 185.104 151.681 185.47C151.602 185.266 152.022 185.265 152.184 185.359C151.76 185.208 151.895 185.547 152.243 185.805C152.952 185.921 152.941 186.155 153.295 186.266L152.875 186.179C152.96 186.385 153.303 186.48 153.752 186.696C153.833 186.591 153.355 186.463 153.541 186.466C153.97 186.924 154.809 186.605 155.471 187.047C155.841 187.058 155.602 186.767 155.918 186.801C156.663 187.293 156.865 186.904 157.664 187.373C157.35 187.495 157.32 187.427 157.855 187.845L156.503 187.195L157.299 187.818C156.875 187.668 156.452 187.368 156.186 187.31C156.559 187.634 156.529 187.566 156.269 187.666C156.951 187.56 157.355 188.258 158.093 188.286L158.246 187.76C158.788 187.825 159.21 188.052 159.668 188.305C159.78 188.368 159.896 188.432 160.018 188.498C160.095 188.535 160.096 188.546 160.128 188.565L160.209 188.62C160.324 188.689 160.471 188.749 160.599 188.756C160.553 188.771 160.501 188.789 160.439 188.803C160.505 188.94 160.632 188.992 160.758 189.032C160.891 189.07 161.005 189.083 161.173 189.19C160.97 188.924 161.024 188.874 160.931 188.72C161.019 188.828 161.106 188.852 161.27 188.941C161.287 188.898 161.341 188.875 161.585 189.064C161.425 188.849 161.268 188.668 161.128 188.517C160.864 188.071 161.59 188.261 161.162 187.26C161.12 187.442 161.029 187.428 160.96 187.46C160.926 187.474 160.898 187.502 160.884 187.568C160.866 187.628 160.886 187.78 160.868 187.828C160.861 187.803 160.77 187.583 160.738 187.476C160.7 187.355 160.698 187.271 160.757 187.25C160.576 187.088 160.655 186.243 160.378 185.991C160.403 185.824 160.568 185.719 160.418 185.347C160.368 185.316 160.332 185.379 160.332 185.379C160.418 185.347 160.235 184.751 160.546 185.016C160.087 184.591 159.837 183.862 159.602 183.15C159.542 182.97 159.484 182.797 159.427 182.624C159.361 182.442 159.313 182.317 159.221 182.085C159.048 181.67 158.854 181.292 158.591 180.918C158.551 180.786 158.512 180.653 158.473 180.52L158.444 180.42C158.444 180.42 158.433 180.388 158.429 180.369L158.481 180.352L158.702 180.281C158.988 180.186 159.276 180.087 159.564 179.988C160.042 179.822 160.509 179.657 160.913 179.521C160.848 179.484 160.879 179.435 160.761 179.504C161.606 178.993 161.519 179.801 162.493 179.265C162.927 178.804 161.879 179.298 162.174 179.08C162.116 178.468 163.467 178.713 164.08 178.202L163.893 178.215C164.389 177.872 165.307 178.035 166.21 177.798C166.21 177.798 166.152 177.758 166.182 177.709C166.889 177.875 168.084 177.689 168.99 177.648C168.666 177.46 168.564 177.591 168.678 177.326C169.083 177.291 168.642 177.728 169.445 177.661C169.676 177.488 170.228 177.28 170.262 177.016L169.508 177.131C169.834 176.731 170.486 176.98 170.88 176.885L170.803 176.748C171.392 176.705 171.702 176.77 172.02 176.827C172.34 176.88 172.666 176.929 173.291 176.884L173.171 177.002C173.889 177.316 173.724 176.761 174.431 176.987L174.607 176.604C175.068 176.659 176.223 176.929 177.029 176.985C176.565 176.718 175.604 176.594 174.996 176.435C175.448 176.425 176.537 176.44 176.778 176.622C176.599 176.588 176.36 176.502 176.185 176.558C176.47 176.702 176.792 176.805 177.153 176.869C177.516 176.944 177.92 176.998 178.368 177.014C178.291 176.655 178.878 176.633 179.564 176.635C180.253 176.671 181.039 176.736 181.39 176.49C182.961 176.913 184.568 176.79 186.414 177.209C185.663 177.625 186.949 177.321 186.725 177.868C187.136 178.008 187.301 178.036 187.345 178.01L188.701 177.995C189.045 177.913 188.326 177.776 188.394 177.66C189.334 177.854 188.844 177.51 189.493 177.546C189.319 177.703 189.743 177.926 190.291 178.004L189.484 178.037C190.09 178.378 190.393 178.34 190.705 178.312C190.858 178.296 191.017 178.283 191.21 178.312C191.29 178.311 191.268 178.308 191.35 178.419C191.311 178.342 191.293 178.273 191.284 178.209C191.309 178.275 191.375 178.296 191.489 178.381C191.613 178.471 191.822 178.633 192.38 179.082C192.302 178.99 192.015 178.723 191.878 178.623C191.922 178.624 192.057 178.701 192.277 178.835L192.397 178.906C192.435 178.927 192.498 178.969 192.496 178.958C192.525 178.958 192.548 178.956 192.566 178.953C192.61 178.943 192.635 178.908 192.629 178.851C192.615 178.74 192.491 178.517 192.187 178.338L191.966 178.292C191.994 178.265 192.277 178.252 191.969 178.11C191.891 178.106 191.791 178.115 191.757 178.085C191.779 178.072 191.822 178.034 191.82 177.966C191.823 177.901 191.775 177.804 191.687 177.768C191.667 177.821 191.641 177.871 191.605 177.907C191.545 177.871 191.505 177.844 191.473 177.808C191.457 177.791 191.446 177.775 191.43 177.758C191.378 177.703 191.33 177.65 191.278 177.596C191.071 177.367 190.902 177.132 190.744 176.896C190.424 176.432 190.16 175.931 189.697 175.47C189.435 175.78 188.402 175.154 187.893 174.842L187.871 174.899C187.699 174.773 187.528 174.643 187.369 174.512C187.202 174.388 187.042 174.273 186.882 174.158C186.57 173.925 186.283 173.686 185.999 173.438C185.712 173.199 185.445 172.935 185.138 172.704C184.829 172.478 184.507 172.253 184.158 172.028C183.6 171.989 182.822 171.612 181.929 171.298C181.489 171.13 181.032 170.949 180.587 170.779C180.139 170.619 179.684 170.534 179.277 170.457C179.536 170.463 179.332 170.141 179.063 170.015C178.674 169.979 178.11 169.416 178.078 169.791L178.211 169.829C177.845 170.069 177.098 169.831 176.496 169.686L176.497 169.187C176.06 169.275 175.596 169.214 175.116 169.152C174.633 169.094 174.131 168.984 173.66 168.87C172.714 168.618 171.832 168.492 171.377 168.773C170.995 168.618 170.51 168.581 170.128 168.426L170.144 168.693C169.068 168.732 168.532 168.769 167.201 168.705C167.293 168.759 167.387 168.825 167.482 168.886C166.745 168.93 166.484 168.185 165.777 168.208L165.609 168.612C165.283 168.634 164.956 168.673 164.63 168.724L163.668 168.937C163.03 169.077 162.381 169.141 161.709 169.089C161.74 169.141 161.803 169.244 162.013 169.213C161.415 169.352 159.776 169.978 159.845 169.407C159.889 169.586 159.554 169.644 159.137 169.712C158.719 169.781 158.194 169.817 157.833 169.842L158.021 170.058C157.936 170.045 157.9 170.019 157.792 170.02C157.698 170.015 157.613 170.014 157.53 170.008C157.375 170 157.254 169.989 157.129 169.989C156.887 169.984 156.645 170.008 156.229 170.088C156.201 170.027 156.139 169.924 156.074 169.814C155.894 169.619 155.82 169.811 156.086 170.075C155.765 169.733 155.68 169.499 155.601 169.278C155.531 169.066 155.4 168.774 155.135 168.505L155.173 168.848C154.764 168.293 154.869 168.286 154.807 167.861C154.662 167.43 153.952 166.847 153.707 166.908C153.762 166.753 153.673 166.339 153.362 166.057C153.26 166.071 153.311 166.22 153.339 166.292C152.499 165.49 152.451 164.782 151.718 164.361C151.643 164.408 151.578 164.399 151.511 164.366C152.141 165.039 152.664 165.562 152.623 165.507C152.45 165.647 151.912 165.145 152.062 165.783C151.8 165.244 151.391 164.239 150.818 163.784C150.777 163.773 150.741 163.764 150.693 163.772L150.726 163.846C150.596 163.743 150.515 163.616 150.437 163.496C150.243 163.367 150.115 163.287 149.95 163.142C149.754 163.223 149.258 162.644 148.985 162.399C149.181 162.23 148.798 161.929 149.273 162.078C149.215 162.055 149.304 162.146 149.479 162.323C149.514 162.365 149.563 162.413 149.577 162.452C149.581 162.442 149.574 162.429 149.573 162.417C149.746 162.587 149.979 162.804 150.237 163.059C150.113 162.765 149.964 162.476 149.566 162.303C149.539 162.053 149.502 161.783 149.466 161.641C148.864 161.54 147.961 161.089 147.717 161.178C147.324 160.774 146.827 160.328 146.378 159.906C145.915 159.507 145.517 159.101 145.358 158.692C145.127 158.453 144.975 158.597 144.836 158.59C144.961 158.735 145.147 158.856 145.192 158.974C144.959 158.74 144.577 158.452 144.251 158.197C143.914 157.954 143.643 157.716 143.659 157.529C142.879 157.244 143.896 158.03 142.96 157.416L143.038 157.581C142.496 157.427 142.075 157.167 141.672 156.919C141.269 156.672 140.911 156.382 140.538 156.086C140.159 155.804 139.79 155.47 139.319 155.279C138.857 155.068 138.33 154.904 137.707 154.845C137.88 154.865 137.966 154.878 138.016 154.837C137.676 154.749 137.347 154.632 137.013 154.529C136.673 154.44 136.336 154.342 135.999 154.233C135.661 154.123 135.326 154.009 134.988 153.899C134.818 153.841 134.65 153.778 134.482 153.726L133.967 153.594C133.28 153.42 132.586 153.248 131.897 153.123C131.198 153.055 130.507 153.024 129.823 153.062C129.054 153.054 128.982 152.875 128.512 152.683L128.343 152.959L127.537 152.608C127.251 152.542 126.982 152.549 126.718 152.586C126.457 152.629 126.21 152.74 125.949 152.828C125.43 153.011 124.892 153.169 124.144 152.992L124.302 152.79C124.044 152.813 123.637 152.852 123.304 152.906C122.972 152.959 122.722 153.018 122.786 153.116C122.727 153.092 122.578 152.949 122.402 153.082L122.419 153.228C121.989 153.225 121.547 153.195 121.112 153.206C120.196 153.577 121.412 153.734 120.062 154.144C119.547 154.229 118.481 154.139 118.633 153.996C118.84 153.93 119.133 153.761 119.099 153.614L118.598 153.676C118.369 153.289 117.819 152.981 118.932 152.347L119.857 152.362L120.067 152.082L119.354 152.269C119.699 151.965 120.009 152.058 120.327 152.099C120.366 151.97 120.465 151.861 120.618 151.773C120.93 151.817 121.251 151.926 121.567 152.004C121.632 151.82 121.108 151.739 121.659 151.547C122.1 151.666 121.363 151.988 122.047 151.994C122.417 151.728 122.266 151.589 122.784 151.673C122.831 151.553 122.715 151.5 122.511 151.484C122.974 151.55 123.674 151.324 123.936 151.553C124.343 151.28 125.421 151.514 125.339 151.109C125.492 151.199 126.144 151.375 126.544 151.366C125.778 150.871 128.057 151.371 127.857 150.846C128.137 151.076 128.634 151.14 129.18 151.179C129.729 151.242 130.328 151.336 130.799 151.511C130.747 151.468 130.648 151.388 130.559 151.397C131.109 151.426 131.283 151.314 131.643 151.277C131.657 151.461 131.871 151.598 132.136 151.733C132.395 151.883 132.701 152.03 132.907 152.186C133.622 151.983 132.581 151.681 132.841 151.393C132.759 151.676 133.938 151.928 133.671 152.119C134.216 152.014 134.123 152.109 134.446 151.874C134.435 152.342 134.904 152.039 135.246 152.444C136.012 152.445 135.536 152.091 136.288 152.463C136.704 152.444 136.042 152.074 136.042 152.074L136.002 152.147ZM152.073 162.874C151.966 162.741 151.87 162.636 151.812 162.568C151.865 162.634 151.94 162.72 152.068 162.872L152.073 162.874ZM153.178 164.062C153.037 163.927 152.869 163.747 152.689 163.552C152.585 163.571 152.561 163.678 152.669 163.794C152.654 163.688 152.951 163.931 153.173 164.06L153.178 164.062ZM149.542 162.921C149.696 163.111 149.789 163.132 149.851 163.119C149.77 163.035 149.678 162.937 149.559 162.805C149.563 162.796 149.558 162.777 149.559 162.761C149.539 162.814 149.53 162.866 149.542 162.921Z" fill="white"/>
<path d="M149.447 162.37C149.423 162.344 149.416 162.319 149.382 162.288C149.431 162.308 149.48 162.328 149.529 162.348C149.531 162.388 149.537 162.429 149.539 162.469C149.505 162.438 149.474 162.403 149.445 162.375L149.447 162.37Z" fill="white"/>
<path d="M144.142 171.289L144.166 171.315C144.139 171.298 144.116 171.284 144.095 171.28C144.119 171.29 144.126 171.288 144.141 171.294L144.142 171.289Z" fill="white"/>
<path d="M171.782 166.478L171.775 166.542L171.636 166.474L171.782 166.478Z" fill="white"/>
<path d="M137.734 165.274C137.734 165.274 137.666 165.274 137.604 165.244C137.62 165.233 137.671 165.248 137.734 165.274Z" fill="white"/>
<path d="M134.901 162.833C134.751 162.738 134.588 162.661 134.427 162.579C134.639 162.676 134.79 162.754 134.901 162.833Z" fill="white"/>
<path d="M132.543 161.196C132.537 161.138 132.55 161.105 132.561 161.076L132.566 161.078L132.543 161.196Z" fill="white"/>
<path d="M152.508 187.845C152.543 187.859 152.582 187.874 152.609 187.891C152.84 188.029 152.679 187.947 152.508 187.845Z" fill="white"/>
<path d="M139.297 182.466C139.399 182.553 139.512 182.643 139.666 182.728C139.33 182.63 139.074 182.542 139.297 182.466Z" fill="white"/>
<path d="M162.349 185.54C162.339 185.508 162.327 185.481 162.316 185.449L162.351 185.535L162.349 185.54Z" fill="white"/>
<path d="M140.48 183.014C140.128 182.943 139.864 182.835 139.667 182.727C139.948 182.808 140.261 182.892 140.48 183.014Z" fill="white"/>
<path d="M121.561 155.546L121.428 155.509C121.428 155.509 121.434 155.478 121.428 155.465L121.561 155.546Z" fill="white"/>
<path d="M121.428 155.466L121.295 155.385C121.359 155.41 121.418 155.434 121.428 155.466Z" fill="white"/>
<path d="M121.006 155.212L121.286 155.382C121.183 155.34 121.05 155.303 121.006 155.212Z" fill="white"/>
<path d="M125.106 156.862L125.105 156.967C125.105 156.967 125.09 156.905 125.106 156.862Z" fill="white"/>
<path d="M126.121 157.394C125.866 157.29 125.419 157.275 125.101 157.056L125.099 156.973C125.202 157.175 125.954 157.137 126.121 157.394Z" fill="white"/>
<path d="M130.936 158.753L130.054 158.294C130.251 158.296 130.515 158.304 130.144 158.047C131.364 158.455 129.811 158.1 130.936 158.753Z" fill="white"/>
<path d="M133.571 160.353C133.158 160.013 133.66 160.24 133.673 160.178C133.896 160.452 133.943 160.521 133.571 160.353Z" fill="white"/>
<path d="M146.688 177.366L146.949 177.483C146.418 177.799 146.872 177.418 146.688 177.366Z" fill="white"/>
<path d="M142.447 178.72L142.68 178.382L142.961 178.463L142.447 178.72Z" fill="white"/>
<path d="M141.789 181.239L141.859 181.234C141.786 181.249 141.703 181.271 141.608 181.298L141.789 181.239Z" fill="white"/>
<path d="M158.687 182.158C158.804 182.205 158.922 182.237 159.036 182.266C159.076 182.455 158.998 182.523 158.924 182.554C158.839 182.553 158.776 182.555 158.682 182.156L158.687 182.158Z" fill="white"/>
<path d="M173.081 176.745C173.238 176.587 173.677 176.465 173.969 176.59C173.612 176.633 173.264 176.769 173.081 176.745Z" fill="white"/>
<path d="M175.654 169.403L175.936 169.568L175.384 169.354L175.654 169.403Z" fill="white"/>
</g>
<defs>
<clipPath id="clip0_1676_140699">
<rect width="154.478" height="75.8777" fill="white" transform="matrix(-0.959101 -0.283064 -0.267075 0.963676 285.133 62.7275)"/>
</clipPath>
<clipPath id="clip1_1676_140699">
<rect width="100.485" height="49.3568" fill="white" transform="matrix(-0.926198 -0.377037 -0.361583 0.93234 210.953 169.099)"/>
</clipPath>
</defs>
</svg>
