<svg width="32" height="32" viewBox="0 0 32 32" fill="none" xmlns="http://www.w3.org/2000/svg">
<g clip-path="url(#clip0_308_1736)">
<circle cx="16" cy="16" r="16" fill="#DC5064"/>
<g clip-path="url(#clip1_308_1736)">
<g clip-path="url(#clip2_308_1736)">
<path d="M13.5423 11.084L13.6611 11.3031L14.4556 12.8789H13.3892C13.8459 15.6452 13.2388 18.0683 12.1328 20.1879H14.5058L15.0838 18.5777H16.9315L17.5228 20.1879H19.8456C18.5575 17.9337 18.3041 15.4551 18.6948 12.8604H17.5598L18.3886 11.2529L18.4757 11.084H13.545H13.5423Z" fill="white"/>
<path d="M12.2015 13.7498H9.94469C10.5544 11.9681 11.8795 10.643 13.6612 9.98311C14.1337 9.81681 14.6431 9.67692 15.1842 9.60829V8.35449C14.6431 8.43632 14.1363 8.57358 13.6612 8.74779C10.7946 9.69275 8.92846 11.7622 8.4375 14.8294L12.3045 14.8637L12.2015 13.7471V13.7498Z" fill="white"/>
<path d="M20.0903 17.4462L22.1888 17.4621C21.682 19.1963 20.6948 20.2917 19.6627 21.0229C19.2562 21.3132 18.8286 21.5297 18.3878 21.7171C17.6118 22.0206 16.7962 22.179 15.9832 22.179C15.1834 22.1552 14.3889 22.0206 13.6604 21.7355C12.4171 21.2763 11.3534 20.4474 10.6565 19.3441C10.2632 18.7502 9.89106 18.1061 9.77756 17.3934H11.9288L12.2007 16.2584L8.40234 16.2241C8.50529 18.5654 9.69309 20.5979 11.4722 21.9018C12.1321 22.3743 12.8579 22.7676 13.6604 23.0263C14.3361 23.2427 15.0488 23.3642 15.8116 23.3642C15.8618 23.3642 15.9304 23.3457 15.9805 23.3457C16.8437 23.3298 17.6567 23.1926 18.3852 22.9735C21.3547 22.0417 23.337 19.513 23.5931 16.298H19.8264L20.0824 17.4489L20.0903 17.4462Z" fill="white"/>
<path d="M18.389 8.74806C17.9456 8.59233 17.4573 8.47355 16.9531 8.37061V9.57689C17.4599 9.66135 17.9482 9.81709 18.389 9.99922C20.1892 10.7277 21.4246 12.1188 22.0712 13.7949H19.8012V14.9642L23.5996 14.9458C22.9555 11.7783 21.2371 9.69039 18.3917 8.74542L18.389 8.74806Z" fill="white"/>
<path d="M18.3901 6.28458C17.6273 6.10245 16.8328 5.99951 16.0013 5.99951H15.9855C15.1857 5.99951 14.4097 6.10245 13.6627 6.27139C9.27042 7.3193 6 11.2206 6 15.8477C6 20.4749 9.27042 24.3735 13.6627 25.4109C14.407 25.5957 15.1857 25.6828 15.9855 25.6828H16.0013C16.8301 25.6828 17.6273 25.5825 18.3901 25.3924C22.7481 24.3234 26.0026 20.4432 26.0026 15.8477C26.0026 11.2523 22.7481 7.35361 18.3901 6.28458ZM18.3901 24.2046C17.6273 24.4237 16.8328 24.5425 15.9855 24.5425C15.1857 24.5425 14.4097 24.4422 13.6627 24.2363C9.91712 23.2174 7.15085 19.8467 7.15085 15.8451C7.15085 11.8435 9.91712 8.45695 13.6627 7.45391C14.407 7.25595 15.1857 7.13717 15.9855 7.13717C16.8328 7.13717 17.6273 7.25595 18.3901 7.47503C22.104 8.5071 24.8175 11.8673 24.8175 15.8477C24.8175 19.8282 22.1014 23.1725 18.3901 24.2046Z" fill="white"/>
</g>
</g>
</g>
<defs>
<clipPath id="clip0_308_1736">
<rect width="32" height="32" fill="white"/>
</clipPath>
<clipPath id="clip1_308_1736">
<rect width="20" height="20" fill="white" transform="translate(6 6)"/>
</clipPath>
<clipPath id="clip2_308_1736">
<rect width="20" height="19.6806" fill="white" transform="translate(6 6)"/>
</clipPath>
</defs>
</svg>
