<svg width="32" height="32" viewBox="0 0 32 32" fill="none" xmlns="http://www.w3.org/2000/svg">
<g clip-path="url(#clip0_2001_24903)">
<circle cx="16" cy="16" r="16" fill="#A32244"/>
<g clip-path="url(#clip1_2001_24903)">
<g clip-path="url(#clip2_2001_24903)">
<path d="M13.5443 11.084L13.6631 11.3031L14.4576 12.8789H13.3912C13.8478 15.6452 13.2407 18.0683 12.1348 20.1879H14.5077L15.0858 18.5777H16.9335L17.5248 20.1879H19.8476C18.5595 17.9337 18.3061 15.4551 18.6967 12.8604H17.5617L18.3905 11.2529L18.4776 11.084H13.5469H13.5443Z" fill="white"/>
<path d="M12.2035 13.7498H9.94665C10.5564 11.9681 11.8814 10.643 13.6632 9.98311C14.1356 9.81681 14.6451 9.67692 15.1862 9.60829V8.35449C14.6451 8.43632 14.1383 8.57358 13.6632 8.74779C10.7966 9.69275 8.93041 11.7622 8.43945 14.8294L12.3064 14.8637L12.2035 13.7471V13.7498Z" fill="white"/>
<path d="M20.0903 17.446L22.1888 17.4618C21.682 19.196 20.6948 20.2915 19.6627 21.0226C19.2562 21.313 18.8286 21.5294 18.3878 21.7168C17.6118 22.0204 16.7962 22.1787 15.9832 22.1787C15.1834 22.155 14.3889 22.0204 13.6604 21.7353C12.4171 21.276 11.3534 20.4472 10.6565 19.3438C10.2632 18.7499 9.89106 18.1059 9.77756 17.3932H11.9288L12.2007 16.2582L8.40234 16.2239C8.50529 18.5652 9.69309 20.5976 11.4722 21.9016C12.1321 22.3741 12.8579 22.7674 13.6604 23.026C14.3361 23.2425 15.0488 23.3639 15.8116 23.3639C15.8618 23.3639 15.9304 23.3454 15.9805 23.3454C16.8437 23.3296 17.6567 23.1923 18.3852 22.9733C21.3547 22.0415 23.337 19.5128 23.5931 16.2978H19.8264L20.0824 17.4486L20.0903 17.446Z" fill="white"/>
<path d="M18.39 8.74806C17.9466 8.59233 17.4583 8.47355 16.9541 8.37061V9.57689C17.4609 9.66135 17.9492 9.81709 18.39 9.99922C20.1902 10.7277 21.4255 12.1188 22.0722 13.7949H19.8022V14.9642L23.6005 14.9458C22.9565 11.7783 21.2381 9.69039 18.3927 8.74542L18.39 8.74806Z" fill="white"/>
<path d="M18.3901 6.28434C17.6273 6.10221 16.8328 5.99927 16.0013 5.99927H15.9855C15.1857 5.99927 14.4097 6.10221 13.6627 6.27114C9.27042 7.31905 6 11.2203 6 15.8475C6 20.4747 9.27042 24.3733 13.6627 25.4106C14.407 25.5954 15.1857 25.6825 15.9855 25.6825H16.0013C16.8301 25.6825 17.6273 25.5822 18.3901 25.3922C22.7481 24.3231 26.0026 20.443 26.0026 15.8475C26.0026 11.252 22.7481 7.35337 18.3901 6.28434ZM18.3901 24.2044C17.6273 24.4234 16.8328 24.5422 15.9855 24.5422C15.1857 24.5422 14.4097 24.4419 13.6627 24.236C9.91712 23.2172 7.15085 19.8464 7.15085 15.8449C7.15085 11.8433 9.91712 8.4567 13.6627 7.45367C14.407 7.2557 15.1857 7.13692 15.9855 7.13692C16.8328 7.13692 17.6273 7.2557 18.3901 7.47479C22.104 8.50686 24.8175 11.867 24.8175 15.8475C24.8175 19.828 22.1014 23.1723 18.3901 24.2044Z" fill="white"/>
</g>
</g>
</g>
<defs>
<clipPath id="clip0_2001_24903">
<rect width="32" height="32" fill="white"/>
</clipPath>
<clipPath id="clip1_2001_24903">
<rect width="20" height="20" fill="white" transform="translate(6 6)"/>
</clipPath>
<clipPath id="clip2_2001_24903">
<rect width="20" height="19.6806" fill="white" transform="translate(6 6)"/>
</clipPath>
</defs>
</svg>
