<svg width="140" height="140" viewBox="0 0 140 140" fill="none" xmlns="http://www.w3.org/2000/svg">
<path d="M51.5 85.9999C50.5987 92.6096 50 103 36.5 111.5C47 117 58.5502 119 65 119C74.5 119 88.0476 117.332 96 111.5C111 100.5 115 87 115 85.5C115 84 114 74.9999 110 70C107.053 66.3167 101.5 62 92 60C85.4723 58.6258 72 59.8749 64.5 65.5C60.0279 68.8541 53 74.9999 51.5 85.9999Z" fill="#CFD4E0"/>
<path d="M58 85.0001C56.5 91.5001 55.5 102 50 109.5C52.8333 110.833 61.0502 113.5 67.5 113.5C77 113.5 83.5 113 92 108C102.217 101.99 107.5 86.5001 107.5 85.0001C107.5 83.5001 107 79.5 103 74.5001C100.053 70.8168 97 68.5 87.5 66.5C80.9723 65.1258 74 67 70 70.0001C65.5279 73.3542 59.5 78.5001 58 85.0001Z" fill="white"/>
<path d="M89.3481 106.788C89.5157 106.777 89.68 106.714 89.8209 106.601C103.556 95.4041 102.696 76.9885 102.688 76.8046C102.662 76.3413 102.266 75.9904 101.806 76.0164C101.331 76.0475 100.992 76.4385 101.014 76.898C101.026 77.0737 101.824 94.6596 88.7618 105.303C88.4041 105.595 88.3505 106.124 88.6425 106.482C88.821 106.699 89.0846 106.806 89.3481 106.788Z" fill="#DCDDDD"/>
<path d="M76.6295 109.878C76.8491 109.864 77.0629 109.762 77.2153 109.579C93.9097 89.6824 91.2451 71.3247 91.1225 70.5551C91.0486 70.0989 90.6155 69.7905 90.163 69.8602C89.7068 69.9341 89.3939 70.3595 89.4681 70.8196C89.5032 71.0498 92.0895 89.2523 75.9345 108.508C75.6371 108.865 75.6836 109.391 76.0398 109.688C76.2136 109.833 76.4262 109.895 76.6337 109.882L76.6295 109.878Z" fill="#DCDDDD"/>
<path d="M54.8335 108.271C55.053 108.257 55.2708 108.154 55.4233 107.972C64.7399 96.7555 64.6825 80.5002 64.6777 79.815C64.6717 79.3544 64.2945 78.9822 63.8336 78.9843C63.377 78.9901 63.0007 79.3675 63.0028 79.8284C63.0053 79.9885 63.0533 96.1603 54.1382 106.897C53.8408 107.254 53.8913 107.779 54.2475 108.077C54.4171 108.218 54.6296 108.28 54.8372 108.267L54.8335 108.271Z" fill="#DCDDDD"/>
<path d="M65.6279 109.107C65.8595 109.092 66.0848 108.981 66.2401 108.783C80.3425 90.3785 77.9642 71.004 77.9394 70.8092C77.8774 70.3522 77.4555 70.0311 76.9982 70.0891C76.5412 70.151 76.2158 70.5692 76.278 71.0301C76.3023 71.2169 78.5734 89.9331 64.9106 107.763C64.6299 108.13 64.7003 108.655 65.0675 108.936C65.2363 109.065 65.4363 109.12 65.6319 109.107L65.6279 109.107Z" fill="#DCDDDD"/>
<path d="M98.7421 53.4203C98.8108 54.4703 100.376 54.7447 102.284 54.6239C104.193 54.503 105.713 54.0307 105.644 52.9808C105.576 51.9309 104.01 51.6564 102.102 51.7773C100.198 51.9018 98.6734 52.3704 98.7421 53.4203Z" fill="#9A0036"/>
<path d="M58.7694 55.9541C58.8381 57.004 60.4034 57.2785 62.3116 57.1576C64.2156 57.033 65.7403 56.5644 65.6716 55.5145C65.6029 54.4646 64.0376 54.1902 62.1294 54.311C60.2212 54.4319 58.7008 54.9042 58.7694 55.9541Z" fill="#9A0036"/>
<path d="M97.1555 46.2128C97.9018 46.1638 98.5932 46.4391 99.1011 46.9108L97.7473 48.4506C97.5721 48.6505 97.592 48.9538 97.7919 49.1291L99.3316 50.483C98.8898 51.0171 98.236 51.3766 97.4895 51.4216C96.0488 51.5162 94.8105 50.419 94.7162 48.9822C94.6216 47.5415 95.7186 46.3031 97.1553 46.2088L97.1555 46.2128Z" fill="#4C4948"/>
<path d="M66.9055 48.1299C67.6518 48.081 68.3432 48.3562 68.8511 48.8279L67.4973 50.3678C67.3221 50.5677 67.342 50.871 67.5419 51.0462L69.0816 52.4002C68.6398 52.9342 67.986 53.2938 67.2395 53.3387C65.7988 53.4333 64.5605 52.3361 64.4662 50.8994C64.3716 49.4586 65.4686 48.2202 66.9053 48.1259L66.9055 48.1299Z" fill="#4C4948"/>
<path d="M73.0285 53.7493C73.4375 54.1194 73.4709 54.7506 73.1011 55.1637C73.0974 55.1679 72.811 55.5074 72.651 56.0029C83.0866 58.226 90.4486 55.6313 92.6515 54.6853C92.4291 54.1667 92.0713 53.8454 92.0713 53.8454C91.6511 53.4881 91.6015 52.8539 91.9588 52.4336C92.3161 52.0134 92.9502 51.9638 93.3704 52.3212C93.502 52.4328 94.6644 53.4711 94.8149 55.157C94.8488 55.5517 94.6454 55.9338 94.2969 56.121C94.053 56.2532 90.0594 58.3788 83.3339 58.8192C79.9731 59.0392 75.9274 58.8391 71.3269 57.7573C70.8912 57.6535 70.5777 57.2732 70.5563 56.8256C70.4816 55.1348 71.4988 53.9577 71.6185 53.8256C71.9885 53.4165 72.6197 53.3832 73.0327 53.7531L73.0285 53.7493Z" fill="#4C4948"/>
<path d="M125.317 48.9497C125.869 48.9818 126.289 49.4554 126.256 50.0067C126.228 50.4936 126.3 50.9739 126.465 51.4241L127.938 53.2238C128.318 53.4515 128.728 53.5891 129.134 53.6146C129.686 53.6467 130.106 54.1203 130.073 54.6716C130.042 55.1787 129.636 55.5781 129.141 55.6105C129.101 55.6131 129.057 55.616 129.012 55.6109C127.741 55.5338 126.491 54.8819 125.584 53.8189C124.642 52.718 124.174 51.3215 124.26 49.8887C124.292 49.3375 124.766 48.9176 125.317 48.9497Z" fill="#4C4948"/>
<path d="M6.6495 100.854C6.6946 100.747 11.0324 90.6458 24.5636 93.737C24.5979 92.4239 24.7554 90.297 25.3192 88.0712C23.4248 87.7903 21.7022 87.3178 20.3668 86.5753C16.5894 84.4733 16.7653 81.832 17.2036 80.4444C17.7285 78.7865 19.0835 77.439 20.8239 76.8361C24.1833 75.6741 32.4531 72.3028 39.3843 65.3228C39.3833 65.3069 39.3822 65.2909 39.3892 65.2744C41.2538 54.8698 46.6687 46.5259 55.0516 41.1467C60.5991 37.5846 67.2096 35.5044 74.1632 35.0534C74.1589 34.2519 74.115 33.7657 73.8673 33.349C73.4793 32.6889 73.0759 32.4667 71.7458 32.9065C67.5122 34.31 64.7392 32.6715 63.5539 30.6685C62.1566 28.3065 62.7021 25.2482 64.883 23.2293C68.8588 19.5416 74.0126 21.297 76.7381 23.0669C79.1056 20.9597 83.8071 18.5594 88.2338 21.7013C90.6552 23.419 91.5946 26.3801 90.5211 28.9038C89.6069 31.0442 87.0713 33.0341 82.6907 32.1903C81.3106 31.9278 80.9433 32.1964 80.645 32.9054C80.4264 33.4249 80.4883 34.0021 80.6298 35.0632C80.6309 35.0792 80.6319 35.0951 80.6327 35.1071C80.935 35.1314 81.2367 35.1477 81.5394 35.18C91.2597 36.1475 100.154 40.1716 106.589 46.5053C107.639 47.5391 108.612 48.6299 109.516 49.7614C111.45 49.4745 113.402 49.0421 115.444 48.4634C115.25 47.4539 115.384 46.4349 115.854 45.5303C116.409 44.4636 117.38 43.6224 118.59 43.1704C120.742 42.3642 123.153 43.3128 124.386 45.3167C125.075 45.0591 125.542 44.9043 125.931 44.7946C127.341 44.4097 128.478 44.191 130.274 44.8673C131.651 45.3865 135.233 48.4233 133.944 53.1137C132.002 60.1881 118.215 69.7253 117.628 70.1285C117.501 70.217 117.364 70.262 117.221 70.2834C117.307 71.5967 117.342 72.9333 117.315 74.2901C117.304 74.9843 116.922 91.4455 105.836 104.274C98.677 112.555 88.6237 117.587 75.9556 119.229C74.7431 119.385 73.3377 119.533 71.761 119.636C67.5259 119.913 62.0723 119.885 55.9096 118.946C55.7353 118.917 55.61 118.901 55.5454 118.893C55.5174 118.895 55.489 118.889 55.4608 118.887C55.2423 118.857 50.0851 118.152 43.7839 116.015C35.5887 113.236 29.5417 109.471 25.798 104.821C22.8515 105.799 11.6508 108.918 6.7436 101.802C6.55288 101.522 6.51366 101.168 6.6415 100.855L6.6495 100.854ZM78.8062 32.1278C79.8726 29.6167 82.2801 30.0805 83.0717 30.2331C87.1153 31.0108 88.3907 28.8147 88.6863 28.1259C89.3921 26.4762 88.7301 24.5071 87.0823 23.3401C82.4288 20.0407 77.7686 24.8475 77.5736 25.0527C77.2211 25.4246 76.6428 25.4704 76.2377 25.1602C76.0014 24.9792 70.4493 20.8126 66.2502 24.7033C64.7686 26.0751 64.3728 28.1134 65.2836 29.6573C65.6665 30.3017 67.2172 32.3129 71.1249 31.0149C71.8899 30.7604 74.2167 29.9908 75.601 32.3375C76.0882 33.1676 76.1638 34.0165 76.1698 34.9662C76.9785 34.9493 77.7932 34.9642 78.6087 34.991C78.478 33.9733 78.4067 33.068 78.81 32.1235L78.8062 32.1278ZM123.687 62.8649C128.431 58.7301 131.313 55.1781 132.026 52.5898C133.023 48.9608 130.06 46.9258 129.579 46.7448C128.309 46.2666 127.637 46.4108 126.467 46.7319C125.971 46.8686 125.282 47.1221 124.672 47.3545L124.504 47.4176C124.431 47.4705 124.358 47.5154 124.272 47.5491C123.755 47.7432 123.177 47.4804 122.983 46.9639C122.385 45.3714 120.734 44.5094 119.302 45.0481C118.558 45.3292 117.966 45.829 117.638 46.4598C117.304 47.1031 117.271 47.8348 117.548 48.5663C117.63 48.7854 117.625 49.0183 117.559 49.2271C117.546 49.6448 117.275 50.0314 116.85 50.1554C114.782 50.7758 112.816 51.2372 110.869 51.573C114.207 56.3817 116.284 61.9703 117.027 68.1193C118.13 67.3336 120.854 65.3393 123.691 62.8687L123.687 62.8649ZM25.7955 102.7C26.21 102.541 26.684 102.678 26.9478 103.034C35.0399 113.793 54.6555 116.751 55.6915 116.899C55.7881 116.905 55.9259 116.928 56.2135 116.974C64.4409 118.223 71.3532 117.815 75.702 117.254C87.8696 115.68 97.5006 110.872 104.324 102.973C114.922 90.7105 115.312 74.4292 115.317 74.2605C115.541 63.7788 112.039 54.6755 105.188 47.936C99.0774 41.9177 90.6057 38.0985 81.3412 37.1734C72.1898 36.2609 63.2378 38.2739 56.128 42.8321C48.6992 47.5997 43.742 54.8513 41.7074 63.884C41.7944 63.9264 41.8818 63.9768 41.9584 64.044C42.3677 64.418 42.393 65.0498 42.0227 65.4549C34.5663 73.5996 25.1691 77.4457 21.4764 78.7216C20.3278 79.1175 19.4425 79.9852 19.1107 81.0412C18.9414 81.5774 18.4264 83.2026 21.3386 84.824C27.1212 88.0415 42.188 85.44 42.3386 85.4141C42.8816 85.3185 43.4024 85.6812 43.498 86.2242C43.5937 86.7671 43.2309 87.288 42.688 87.3836C42.6087 87.3968 42.3034 87.4489 41.8273 87.5241C41.8658 91.4823 41.2106 95.7425 37.3126 98.904C37.9174 98.8964 38.6114 98.843 39.4093 98.7226C39.957 98.6387 40.4629 99.0185 40.5429 99.5665C40.6228 100.114 40.247 100.62 39.699 100.7C39.163 100.779 38.6494 100.833 38.1585 100.865C35.5919 101.033 33.6727 100.557 32.4415 99.4472C31.0868 98.225 31.1093 96.7322 31.1186 96.5673C31.1269 96.3262 31.228 96.0951 31.3929 95.9199C33.8083 93.3806 35.0033 90.8129 34.9574 88.2744C34.9255 88.2764 34.8935 88.2785 34.8616 88.2806C32.4746 88.4368 29.8244 88.49 27.3258 88.2887C26.4229 91.643 26.558 94.9334 26.5604 94.9694C26.5733 95.2892 26.4372 95.5988 26.1855 95.7957C25.9341 95.9965 25.6017 96.0624 25.2955 95.9782C14.108 92.8658 9.75454 99.2361 8.739 101.115C13.6472 107.203 25.6699 102.741 25.795 102.692L25.7955 102.7ZM36.9559 88.1235C37.052 91.1239 35.7792 94.0935 33.1608 96.9628C33.226 97.2231 33.3878 97.6134 33.7799 97.9686C33.9545 98.1255 34.1855 98.2868 34.4874 98.4274C38.2213 96.2508 39.8041 93.1165 39.8215 87.8077C38.9906 87.9142 38.0198 88.0259 36.9519 88.1238L36.9559 88.1235Z" fill="#4C4948"/>
<path d="M104.329 102.969C97.5023 110.868 87.8717 115.672 75.7088 117.25C71.3605 117.816 64.4484 118.224 56.2209 116.971C55.9333 116.926 55.7958 116.907 55.699 116.897C55.0474 116.804 47.0434 115.596 39.1781 112.039C42.4657 111.13 49.7694 107.641 52.5435 94.4234C56.1773 77.133 63.4895 70.8376 63.4895 70.8376C63.4895 70.8376 74.2845 58.9628 93.9587 63.3103C108.5 66.5229 112.296 79.4384 113.288 85.9555C111.75 91.2353 109.057 97.4967 104.332 102.965L104.329 102.969ZM63.8309 78.9887C63.3743 78.9946 62.9982 79.372 63.0003 79.8328C63.0028 79.993 63.0517 96.1644 54.1384 106.902C53.841 107.258 53.8915 107.784 54.2477 108.081C54.4173 108.222 54.6298 108.285 54.8374 108.271C55.0569 108.257 55.2747 108.154 55.4271 107.972C64.7419 96.7552 64.6835 80.5002 64.6787 79.8151C64.6726 79.3545 64.2955 78.9824 63.8346 78.9845L63.8309 78.9887ZM77.9388 70.8133C77.8768 70.3563 77.4549 70.0352 76.9977 70.0932C76.5408 70.1552 76.2154 70.5734 76.2777 71.0343C76.3019 71.2211 78.5739 89.9366 64.914 107.767C64.6334 108.135 64.7038 108.659 65.0709 108.94C65.2398 109.069 65.4398 109.124 65.6354 109.111C65.8669 109.096 66.0921 108.985 66.2474 108.787C80.3468 90.3817 77.9676 71.0078 77.9428 70.813L77.9388 70.8133ZM91.1224 70.5591C91.0484 70.103 90.6153 69.7946 90.1629 69.8644C89.7068 69.9383 89.3939 70.3637 89.4681 70.8238C89.5032 71.054 92.0903 89.2559 75.9383 108.513C75.6409 108.869 75.6874 109.395 76.0436 109.692C76.2174 109.837 76.4299 109.899 76.6375 109.886C76.857 109.871 77.0708 109.769 77.2232 109.587C93.9146 89.6896 91.2492 71.3325 91.1266 70.5629L91.1224 70.5591ZM101.802 76.0169C101.327 76.048 100.988 76.439 101.01 76.8985C101.021 77.0742 101.82 94.6595 88.76 105.304C88.4023 105.596 88.3487 106.124 88.6407 106.482C88.8193 106.699 89.0828 106.806 89.3463 106.789C89.5139 106.778 89.6781 106.715 89.819 106.601C103.553 95.4039 102.691 76.9888 102.683 76.805C102.657 76.3417 102.261 75.9908 101.802 76.0169Z" fill="white"/>
<path d="M116.842 50.1501C117.267 50.0221 117.538 49.6395 117.551 49.2218C117.618 49.013 117.623 48.7842 117.54 48.5611C117.263 47.8256 117.296 47.0978 117.631 46.4546C117.958 45.8238 118.551 45.324 119.294 45.0429C120.726 44.5042 122.378 45.3662 122.975 46.9587C123.169 47.4752 123.744 47.7382 124.264 47.5438C124.35 47.5101 124.427 47.465 124.496 47.4124L124.664 47.3493C125.275 47.1169 125.963 46.8594 126.46 46.7267C127.633 46.4093 128.306 46.2651 129.571 46.7395C130.052 46.9205 133.015 48.9515 132.018 52.5845C131.31 55.1724 128.424 58.7286 123.679 62.8594C120.842 65.33 118.118 67.3242 117.015 68.1099C116.272 61.9611 114.195 56.3725 110.858 51.564C112.804 51.2282 114.77 50.7668 116.838 50.1464L116.842 50.1501ZM125.581 53.8155C126.488 54.8786 127.737 55.5304 129.009 55.6076C129.053 55.6087 129.093 55.6101 129.137 55.6072C129.632 55.5748 130.039 55.1793 130.07 54.6682C130.102 54.1169 129.682 53.6433 129.131 53.6112C128.724 53.5857 128.315 53.4482 127.935 53.2205L126.462 51.4207C126.296 50.9706 126.225 50.4902 126.253 50.0033C126.285 49.452 125.865 48.9784 125.314 48.9463C124.763 48.9142 124.289 49.3341 124.257 49.8854C124.171 51.3221 124.639 52.7186 125.581 53.8155Z" fill="#CFD4E0"/>
<path d="M26.9483 103.039C26.6805 102.683 26.2105 102.546 25.796 102.705C25.6709 102.753 13.6443 107.216 8.74009 101.127C9.75537 99.2448 14.1091 92.8784 25.2965 95.9909C25.6067 96.0748 25.9351 96.0092 26.1866 95.8083C26.438 95.6075 26.5783 95.3016 26.5614 94.982C26.5591 94.9461 26.4242 91.6597 27.3268 88.3013C29.8214 88.5029 32.4757 88.4495 34.8626 88.2933C34.8946 88.2912 34.9265 88.2891 34.9584 88.287C35.0043 90.8256 33.8094 93.3933 31.3939 95.9326C31.229 96.1078 31.1279 96.3389 31.1196 96.58C31.1144 96.7447 31.0878 98.2377 32.4425 99.4599C33.6737 100.57 35.5929 101.046 38.1595 100.878C38.6504 100.846 39.164 100.792 39.7 100.713C40.248 100.633 40.6235 100.123 40.5438 99.5792C40.4639 99.0312 39.954 98.6517 39.4103 98.7354C38.6122 98.8518 37.9184 98.9092 37.3136 98.9167C41.2076 95.7554 41.8629 91.4953 41.8283 87.5368C42.3044 87.4615 42.6097 87.4095 42.689 87.3963C43.2319 87.3006 43.595 86.7838 43.4991 86.2368C43.4034 85.6939 42.8866 85.3308 42.3396 85.4267C42.189 85.4526 27.1263 88.0539 21.3397 84.8366C18.4275 83.2151 18.9425 81.5899 19.1118 81.0537C19.4476 79.9974 20.3328 79.1297 21.4775 78.7341C25.1702 77.4582 34.5674 73.6121 42.0237 65.4673C42.3978 65.0579 42.3685 64.4264 41.9595 64.0563C41.8826 63.9852 41.7991 63.9345 41.7085 63.8964C43.7393 54.8678 48.7003 47.6119 56.1291 42.8443C63.2386 38.282 72.1908 36.2731 81.3422 37.1856C90.6064 38.1067 99.0783 41.93 105.189 47.9483C112.035 54.6882 115.537 63.7916 115.317 74.2731C115.315 74.3655 115.192 79.4086 113.281 85.9759C112.289 79.4583 108.498 66.5413 93.9524 63.3279C74.2821 58.9827 63.4819 70.8541 63.4819 70.8541C63.4819 70.8541 56.1691 77.1495 52.5343 94.441C49.7551 107.656 42.4511 111.144 39.1636 112.057C34.5286 109.959 29.9443 107.044 26.9414 103.055L26.9483 103.039ZM102.282 54.6288C104.187 54.5082 105.711 54.0357 105.642 52.9858C105.574 51.936 104.008 51.6616 102.1 51.7825C100.192 51.9033 98.6715 52.3756 98.7402 53.4255C98.8089 54.4753 100.374 54.7497 102.282 54.6288ZM97.491 51.4266C98.2374 51.3778 98.8916 51.0223 99.3337 50.4882L97.7939 49.1338C97.594 48.9584 97.5742 48.6551 97.7495 48.4552L99.1039 46.9153C98.596 46.4435 97.9045 46.168 97.1581 46.2168C95.7171 46.3111 94.6236 47.5493 94.7179 48.9903C94.8122 50.4313 96.0503 51.5249 97.4912 51.4306L97.491 51.4266ZM71.3237 57.7571C75.9243 58.8391 79.9701 59.0394 83.331 58.8195C90.0529 58.3796 94.047 56.2582 94.2946 56.1217C94.6429 55.9305 94.8467 55.5524 94.8128 55.1577C94.6664 53.4716 93.5003 52.4374 93.3685 52.3218C92.9483 51.9644 92.3181 52.0137 91.9568 52.4342C91.5995 52.8544 91.6487 53.4846 92.0692 53.846C92.0692 53.846 92.427 54.1673 92.6493 54.6859C90.4463 55.6319 83.084 58.2303 72.648 56.0028C72.8077 55.5033 73.0945 55.1678 73.0982 55.1636C73.4683 54.7545 73.4347 54.1193 73.0257 53.7492C72.6166 53.379 71.9814 53.4126 71.6114 53.8217C71.4954 53.9495 70.4784 55.1305 70.5489 56.8217C70.5702 57.2693 70.884 57.6536 71.3194 57.7534L71.3237 57.7571ZM69.0773 52.404L67.5375 51.0495C67.3376 50.8742 67.3178 50.5708 67.4931 50.3709L68.8475 48.8311C68.3396 48.3592 67.6481 48.0838 66.9017 48.1326C65.4607 48.2269 64.3672 49.465 64.4615 50.9061C64.5558 52.3471 65.7939 53.4407 67.2348 53.3464C67.9813 53.2975 68.6355 52.942 69.0776 52.408L69.0773 52.404ZM62.3092 57.1604C64.2135 57.0398 65.7379 56.5672 65.6692 55.5174C65.6005 54.4676 64.0352 54.1932 62.127 54.314C60.2227 54.4346 58.6983 54.9072 58.767 55.957C58.8357 57.0069 60.401 57.2813 62.3092 57.1604Z" fill="#CFD4E0"/>
<path d="M71.1186 31.0138C67.2109 32.3118 65.6602 30.3006 65.2773 29.6561C64.3626 28.1124 64.7623 26.0737 66.244 24.7019C70.4428 20.8071 75.995 24.9779 76.2314 25.1589C76.6365 25.4691 77.215 25.4273 77.5672 25.0514C77.7623 24.8462 82.4265 20.039 87.0759 23.3388C88.7237 24.5058 89.3817 26.4753 88.6799 28.1248C88.3842 28.8136 87.1088 31.0098 83.0653 30.2321C82.2737 30.0794 79.8664 29.6195 78.7998 32.1268C78.4006 33.071 78.4679 33.9766 78.5986 34.9944C77.7831 34.9675 76.9684 34.9527 76.1597 34.9695C76.1497 34.0201 76.0779 33.1668 75.5909 32.3408C74.2064 29.9899 71.8799 30.7635 71.1149 31.018L71.1186 31.0138Z" fill="white"/>
</svg>
