<svg width="600" height="240" viewBox="0 0 600 240" fill="none" xmlns="http://www.w3.org/2000/svg">
<path d="M528.723 113.54C528.723 113.54 545.523 112.28 556.393 116.06C567.263 119.84 588.343 132.41 589.993 151.38C591.973 174.08 579.123 187.96 560.343 187.96C534.623 187.96 528.813 181.61 515.493 182C502.173 182.39 486.213 200.57 449.643 201.83C413.073 203.09 386.493 196 373.493 202C361.253 207.65 340.083 222.6 303.493 226C249.133 231.05 222.493 184 191.493 191C175.523 194.61 149.183 211.92 109.643 194.26C93.7833 187.18 98.2833 174.16 88.8833 174.08C79.4833 174 79.7633 184.28 55.2833 189.22C36.5033 193 13.4333 182.69 10.8033 161.47C7.83327 137.51 25.6333 116.06 63.1833 121.11" fill="white"/>
<path d="M543.392 112.13C547.682 112.29 552.152 113.4 556.852 114.89C561.482 116.48 565.852 118.74 569.922 121.41C571.982 122.76 573.922 124.04 575.872 125.43C576.812 126.11 577.762 126.92 578.632 127.8C579.532 128.65 580.442 129.46 581.342 130.14C581.502 130.26 581.802 130.62 582.032 130.87C586.112 135.2 589.562 140.64 590.842 146.49C590.932 146.91 591.072 147.32 591.122 147.75L591.282 149.03C591.372 149.88 591.542 150.74 591.582 151.58L591.682 154.08C591.722 154.91 591.762 155.74 591.712 156.58L591.632 159.08C591.622 159.91 591.452 160.74 591.372 161.57C591.232 163.24 590.822 164.87 590.432 166.51C589.402 171.91 586.642 177.09 582.652 181.1C582.182 181.63 581.632 182.08 581.082 182.53C580.532 182.98 580.002 183.44 579.432 183.87L577.652 185.02C577.352 185.21 577.062 185.41 576.762 185.59L575.812 186.06L573.922 187L571.952 187.73C570.652 188.28 569.272 188.53 567.922 188.9C567.082 189.13 566.212 189.2 565.342 189.35L564.042 189.55C563.602 189.59 563.172 189.6 562.732 189.62C561.862 189.65 560.972 189.69 560.112 189.67C559.262 189.62 558.412 189.56 557.552 189.47C554.632 189.19 551.032 189.43 548.012 188.7C547.762 188.65 547.152 188.67 546.702 188.64C545.622 188.55 544.462 188.57 543.452 188.36C540.422 187.79 538.932 187.41 537.552 187.14C536.172 186.85 534.912 186.64 532.412 186.15C531.812 186.03 531.142 185.67 530.472 185.49C527.772 184.79 525.082 184.08 522.412 183.73C520.022 183.41 517.412 183 515.162 183.55C514.702 183.71 513.712 183.68 512.962 183.84L511.162 184.28C510.562 184.4 509.962 184.67 509.372 184.86C508.172 185.24 506.992 185.78 505.822 186.29C503.142 187.53 500.332 188.72 497.842 190.36C496.762 191.08 494.892 191.52 494.232 191.93C493.022 192.7 491.842 193.32 490.532 193.85C489.252 194.38 487.972 194.8 486.692 195.29C485.582 195.73 484.562 196.38 483.432 196.83C482.022 197.35 480.542 197.84 479.102 198.34C477.642 198.78 476.202 199.21 474.912 199.71C473.532 200.27 472.102 200.58 470.712 200.96L468.612 201.49C467.902 201.63 467.192 201.76 466.482 201.9C464.992 202.17 463.512 202.5 462.012 202.69C460.512 202.87 459.012 203.06 457.522 203.27C456.362 203.47 455.242 203.45 454.152 203.48C453.062 203.49 451.982 203.51 450.892 203.52C448.702 203.57 446.292 203.85 444.312 203.48C444.222 203.46 443.992 203.48 443.822 203.48C441.572 203.48 439.322 203.39 437.072 203.35L430.322 203.11C422.552 202.81 414.792 202.31 407.062 201.73C404.882 201.57 402.572 201.55 400.552 201.07C400.132 200.97 399.192 201.02 398.632 200.93C396.512 200.62 394.792 201.2 392.762 200.84C390.952 200.51 389.012 200.63 387.162 200.66C386.102 200.64 385.052 200.71 384.002 200.8L382.422 200.91L380.872 201.12C380.162 201.23 379.472 201.29 378.852 201.48C378.232 201.67 377.652 201.87 377.102 202.1C375.482 202.09 373.552 203.21 371.772 203.9C370.602 204.35 368.822 205.13 368.082 205.69C366.422 206.92 364.552 207.74 362.772 208.72C360.112 210.16 357.352 211.44 354.772 212.99C353.682 213.65 352.122 214.32 350.742 214.87C349.462 215.39 348.202 215.81 346.912 216.3C345.722 216.77 344.552 217.25 343.392 217.74C342.222 218.21 341.062 218.7 339.912 219.24C338.922 219.73 337.732 220.04 336.572 220.42C335.402 220.78 334.262 221.21 333.272 221.71C333.012 221.85 332.312 222.03 331.862 222.12C330.682 222.37 329.572 222.62 328.432 222.93C327.282 223.2 326.122 223.52 324.852 223.96C322.812 224.72 320.042 225.05 317.602 225.56C316.302 225.84 314.962 226.02 313.642 226.25C312.322 226.45 311.012 226.7 309.722 226.79C308.072 226.91 307.312 227.57 305.332 227.44C304.792 227.39 304.022 227.49 303.162 227.54C302.302 227.6 301.372 227.66 300.562 227.72C298.892 227.85 297.132 227.94 295.542 227.86C287.192 227.48 278.712 226.53 270.692 224.05C267.332 222.95 263.682 222.09 260.782 220.31C259.552 220.03 258.272 219.48 257.022 218.91C255.762 218.36 254.542 217.76 253.412 217.34C251.972 216.84 250.802 216.22 249.572 215.58C241.432 211.39 233.752 206.46 225.942 201.96C223.362 200.49 220.772 199.07 218.122 197.8C215.492 196.5 212.802 195.36 210.072 194.4C209.302 194.15 208.542 193.87 207.772 193.63C206.992 193.4 206.202 193.13 205.382 192.79C204.772 192.58 203.892 192.36 202.952 192.18C202.002 192.04 200.992 192.03 200.142 192.07C199.812 192.09 199.132 192.15 198.892 192.09C197.302 191.72 195.672 191.86 194.112 192.12C193.342 192.3 192.572 192.49 191.802 192.67C191.032 192.92 190.262 193.17 189.492 193.38C186.452 194.28 183.412 195.28 180.342 196.28C177.282 197.28 174.192 198.27 171.062 199.23C169.742 199.67 168.112 199.94 167.162 200.57C166.032 200.54 165.302 200.94 164.032 201.36C162.722 201.78 160.502 202.32 159.282 202.36C157.612 202.39 156.132 202.71 154.572 202.93C152.912 203.09 151.222 203.24 149.552 203.4C142.472 203.8 135.352 203.18 128.452 201.7C127.102 201.38 125.822 200.95 124.492 200.59C124.152 200.51 123.812 200.42 123.472 200.34L122.452 200.03C121.772 199.82 121.112 199.57 120.532 199.23C120.102 198.97 118.722 198.64 117.782 198.34C117.362 198.21 116.942 198.08 116.522 197.93C116.112 197.76 115.702 197.59 115.292 197.41C114.472 197.06 113.642 196.72 112.822 196.38C112.002 196.04 111.192 195.72 110.402 195.42C110.002 195.27 109.612 195.13 109.222 194.99C108.832 194.83 108.452 194.68 108.092 194.53C106.622 193.93 105.202 193.08 103.882 192.12C102.562 191.17 101.362 190.1 100.192 189.13C99.5318 188.59 98.6518 187.29 97.9818 186.3C96.5818 184.3 95.6318 182.02 94.6418 179.97C94.1418 178.95 93.6018 177.99 92.9518 177.25C92.3118 176.5 91.5418 176.07 90.7118 175.9C90.1718 175.56 89.4018 175.39 88.5718 175.4C88.1618 175.42 87.7318 175.43 87.3118 175.48C86.9118 175.57 86.5018 175.67 86.1018 175.76C84.9818 176.14 83.6118 176.69 82.9418 177.62C82.8618 177.71 82.4918 177.99 82.2518 178.15C80.9218 179.04 79.6118 179.86 78.1318 181.05C76.8918 182.04 75.9318 182.97 74.4118 183.89C73.7218 184.28 73.0418 184.71 72.3318 185.05L70.1918 186.08C68.7218 186.66 67.2818 187.29 65.7818 187.73C65.0318 187.97 64.3018 188.22 63.5518 188.45L61.2918 189.06C59.7918 189.52 58.2618 189.81 56.7418 190.22C55.0318 190.37 53.0518 190.72 51.1118 190.89C47.6818 191.18 44.3918 191.42 40.8718 190.82C37.5518 190.25 34.1118 189.21 31.0918 188.18C25.8418 186.41 21.1718 183.14 17.3618 179.12C16.4018 178.07 15.2618 176.89 14.8118 175.63C14.6918 175.34 13.8118 174.07 13.5218 173.73C12.8418 173.07 12.5018 172.03 12.0218 171.28C10.7218 169.05 10.7818 166.46 9.68176 164.2C9.13176 161.47 8.93176 158.76 8.94176 156.01C8.96176 153.27 9.25176 150.52 9.86176 147.85C10.0118 147.23 10.1718 146.61 10.3218 145.99C10.5218 145.38 10.7518 144.78 11.0518 144.18C11.4718 143.38 12.2618 141.45 12.5418 140.6C13.1318 138.56 14.3318 136.72 15.5818 135.02C19.2818 129.8 24.5118 125.75 30.3018 123.22C32.8418 122.11 35.4918 121.34 38.1718 120.75C40.8818 120.18 43.6918 119.47 46.4118 119.53C46.6018 119.53 46.8818 119.48 47.1118 119.46C48.1918 119.36 49.2918 119.16 50.3518 119.15C51.7418 119.15 53.5818 119.4 54.3618 119.33C55.1518 119.23 55.8018 119.26 56.4018 119.32C57.0018 119.4 57.5418 119.52 58.1318 119.57C59.8318 119.71 61.1818 120.07 62.0518 120.43C62.9118 120.79 63.2918 121.19 63.0518 121.54C62.9418 121.7 62.5318 121.83 62.0418 121.91C60.5018 122.16 59.7418 122.23 58.7618 122.28C57.7818 122.32 56.5818 122.18 54.2018 122.16C48.2018 122.06 42.2318 122.22 36.5118 124.09C32.6518 124.84 28.9118 126.82 25.6118 129.04C23.8618 130.17 22.2118 131.48 20.6818 132.91C19.1618 134.35 17.8618 136.01 16.8318 137.77C14.8318 141.31 13.3118 145 12.4718 148.94C11.8518 151.92 11.4618 154.98 11.5518 158.07C11.6518 161.29 12.2418 164.49 13.2118 167.46C13.7618 169.3 14.4218 171.3 15.5218 172.79C17.8818 176.03 20.5318 179.27 23.8418 181.46C28.3718 184.51 33.5018 186.82 38.8318 187.79C41.7018 188.32 44.5918 188.49 47.5018 188.5C48.8318 188.5 50.0818 188.42 51.5218 188.45C52.9918 188.46 55.1018 188.12 56.8518 187.43C57.5718 187.16 58.8018 186.83 59.4518 186.73C60.7918 186.51 62.1718 186.22 63.5018 185.78C64.8218 185.31 66.1618 184.85 67.4118 184.27C69.0418 183.62 70.9218 182.99 71.7818 182.37C73.2018 181.29 74.6018 180.53 75.9318 179.53C76.8818 178.83 77.8618 177.91 78.9018 177.47C79.1818 177.35 80.1118 176.63 80.3718 176.36C80.7318 175.97 81.1118 175.58 81.5818 175.24C82.0318 174.88 82.5118 174.54 83.0718 174.27C83.3418 174.13 83.6118 173.97 83.8918 173.85L84.7818 173.52C85.3618 173.27 85.9918 173.19 86.5918 173.05C88.0418 172.83 89.5018 172.7 91.0618 173.11C92.6118 173.46 94.0618 174.49 94.9818 175.68C95.9318 176.87 96.5518 178.12 97.1418 179.32C97.7318 180.53 98.2718 181.7 98.8718 182.82C100.842 186.58 103.842 189.18 107.312 191.41C109.712 192.4 112.362 193.51 114.902 194.56C115.902 194.94 116.862 195.43 117.862 195.8L120.872 196.88C121.882 197.23 122.892 197.55 123.902 197.88C124.932 198.17 125.992 198.4 127.072 198.74C127.742 198.94 128.452 199.13 129.182 199.31C129.912 199.48 130.662 199.68 131.442 199.75C132.992 199.95 134.582 200.13 136.102 200.36C136.922 200.52 137.822 200.48 138.682 200.53C139.542 200.57 140.382 200.66 141.132 200.89C141.332 200.95 142.112 200.99 142.392 200.95C143.502 200.81 144.742 200.65 145.952 200.64C147.162 200.59 148.352 200.71 149.332 200.66C150.932 200.64 152.502 200.53 154.062 200.39C155.612 200.15 157.142 199.91 158.692 199.66C159.972 199.46 161.242 199.13 162.522 198.86C163.802 198.6 165.062 198.25 166.322 197.92C167.232 197.68 168.122 197.45 169.022 197.18C169.922 196.91 170.832 196.64 171.802 196.43C173.292 196.13 175.112 195.24 176.802 194.65C178.502 194.05 180.222 193.45 181.932 192.85L184.752 191.88L187.612 190.97C189.542 190.41 191.492 189.88 193.542 189.59C194.082 189.48 194.642 189.43 195.192 189.4L196.852 189.28C197.962 189.24 199.072 189.32 200.172 189.35C201.202 189.49 202.232 189.64 203.242 189.83C204.242 190.07 205.232 190.31 206.242 190.55C211.802 192.02 217.142 194 222.122 196.87C223.632 197.34 224.832 198.27 226.212 199.11C227.482 199.89 228.912 200.88 230.332 201.38C230.732 201.52 231.392 201.94 231.932 202.24C233.142 202.91 234.012 203.76 235.512 204.42C236.572 204.89 238.012 205.91 239.292 206.63C240.642 207.38 242.042 208.45 243.352 208.77C245.432 210.59 248.092 211.11 250.352 212.58C251.072 213.04 251.872 213.49 252.642 213.95C253.022 214.18 253.452 214.45 253.802 214.6C257.112 215.98 260.422 217.38 263.762 218.73C267.122 220 270.522 221.26 274.002 222.06C274.862 222.26 275.692 222.41 276.562 222.53C276.982 222.59 277.442 222.68 277.842 222.79C278.792 223.04 279.502 223.23 280.082 223.38C280.672 223.51 281.152 223.59 281.612 223.66C282.542 223.79 283.442 223.94 285.272 224.04C286.192 224.08 287.172 224.23 288.122 224.31C289.342 224.44 290.562 224.44 291.792 224.51C292.402 224.53 293.022 224.55 293.642 224.56C294.262 224.53 294.892 224.49 295.532 224.43C298.072 224.24 300.842 224.43 303.512 224.43C305.892 224.3 308.242 224.26 310.822 223.87C317.292 222.92 323.692 221.54 329.982 219.76C330.762 219.53 331.872 219.3 332.282 219.08C333.962 218.17 335.432 217.35 337.342 217.44C337.432 217.44 338.082 217.24 338.202 217.14C339.562 216.17 341.602 215.67 343.282 215.01C349.742 212.5 355.662 209.11 361.902 206.01C362.912 205.51 364.212 204.7 364.852 204.51C366.232 204.11 366.612 203.37 367.752 202.89C368.712 202.5 369.982 201.63 370.822 201.36C371.592 201.12 372.322 200.8 373.132 200.53C373.962 200.26 374.782 199.98 375.592 199.68C377.242 199.27 378.862 198.78 380.352 198.55C383.152 197.98 386.042 197.76 388.552 197.88C393.472 198.15 398.292 198.32 403.122 198.67C408.062 199.04 412.992 199.4 417.922 199.69C419.932 199.8 422.092 200.09 423.962 199.82C424.342 199.77 425.252 199.84 425.882 199.9C427.392 200.03 428.882 200.24 430.392 200.3C431.892 200.34 433.392 200.22 434.912 200.2C436.132 200.2 437.282 200.24 438.542 200.04C439.462 199.9 441.072 200.02 442.512 200.23C443.952 200.41 445.412 200.57 446.992 200.68C447.782 200.73 448.592 200.77 449.432 200.79C450.272 200.79 451.142 200.73 452.062 200.65C453.682 200.49 455.312 200.46 456.932 200.26C458.552 200.06 460.182 199.86 461.792 199.66C463.142 199.45 464.412 199.21 465.812 198.76C466.442 198.55 467.302 198.39 468.202 198.19C469.092 197.98 470.022 197.81 470.812 197.68C473.322 197.33 475.532 196.59 477.822 195.68C478.602 195.34 479.552 194.99 480.432 194.67C485.802 192.75 490.992 190.35 496.152 187.8C497.392 187.19 498.692 186.47 499.832 186.22C500.502 185.51 501.882 184.98 503.002 184.48C503.852 184.09 504.732 183.76 505.612 183.44C506.492 183.11 507.362 182.78 508.282 182.5C508.822 182.32 509.352 182.14 509.882 181.95L511.532 181.51C512.612 181.15 513.762 181.03 514.932 180.79C517.052 180.49 519.552 180.87 521.822 180.92C522.252 180.91 523.102 181.24 523.712 181.33C526.262 181.7 528.852 182.66 531.202 182.78C531.402 182.78 531.922 182.92 532.132 183.01C534.812 184.15 537.642 184.46 540.432 184.82C543.462 185.23 546.182 185.97 549.182 186.21C552.592 186.53 556.162 186.48 559.422 186.7C564.962 187.17 570.432 185.78 575.192 183.21C580.012 180.47 583.912 176.15 586.072 171C586.302 170.44 586.572 169.9 586.762 169.32L587.262 167.58C587.642 166.43 587.802 165.23 588.052 164.04L588.262 163.05C588.322 162.72 588.342 162.38 588.392 162.04L588.642 160.02C588.812 158.67 588.772 157.3 588.852 155.94C588.852 154.66 588.742 153.37 588.692 152.08C588.692 151.43 588.552 150.82 588.462 150.2L588.192 148.33C587.912 147.18 587.412 145.97 587.402 144.89C587.372 144.67 587.112 143.99 586.962 143.73C586.402 142.78 585.962 141.82 585.402 140.89C584.882 139.95 584.482 138.95 583.932 137.96C583.642 137.39 583.072 136.65 582.662 136.01C582.042 135.15 581.392 134.41 580.752 133.7C580.062 133.02 579.342 132.41 578.652 131.72C578.032 131.07 577.322 130.43 576.652 129.77C575.992 129.11 575.262 128.55 574.502 128.21C574.292 128.12 573.622 127.56 573.442 127.33C572.242 125.94 570.602 124.86 568.902 123.93C568.062 123.46 567.212 122.98 566.382 122.52C565.572 122.03 564.782 121.53 564.062 120.96C562.612 120.62 561.482 119.58 560.432 119.13C559.662 118.84 558.902 118.56 558.132 118.27C557.362 118 556.582 117.75 555.792 117.44C555.042 117.21 554.302 116.95 553.532 116.75C552.752 116.57 551.992 116.35 551.212 116.22C548.352 115.68 545.402 115.14 542.432 115.26C541.442 115.3 539.602 115.28 538.392 114.92C538.182 114.86 537.532 114.85 537.102 114.86C533.852 114.91 529.892 114.72 529.042 114.19C528.542 113.87 528.562 113.44 528.922 113.05C529.102 112.85 530.542 112.67 531.452 112.51C533.032 112.23 534.552 111.9 536.292 111.82C538.352 111.74 540.612 111.89 543.312 112.09L543.392 112.13Z" fill="#A6843B"/>
<path d="M45.5004 135C45.5004 135 44.5004 118 54.5004 107C64.5004 96 72.5004 96 88.5004 92C104.5 88 117.5 75 126.5 61C135.5 47 151.5 39 171.5 39C191.5 39 219.5 22 235.5 16C251.5 10 273 2.5 303 12.5C333 22.5 336 39.5 349 40.5C362 41.5 395 35.5 417 59.5C439 83.5 435 90.5 466 91.5C497 92.5 524.5 92 541.5 129" fill="white"/>
<path d="M44.8987 124.17C45.3187 121.02 46.7487 117.91 48.1287 114.62C49.5087 111.32 51.5887 108.21 54.0787 105.6C55.3187 104.29 56.4887 103.04 57.7287 101.79C58.3487 101.19 59.0687 100.62 59.8387 100.11C60.2187 99.8499 60.5787 99.5799 60.9287 99.2999C61.2887 99.0399 61.6287 98.7599 61.9187 98.4499C62.0287 98.3399 62.3387 98.1899 62.5487 98.0499C64.4787 96.9499 66.4987 95.9699 68.5687 95.1999C70.6387 94.4599 72.7187 93.8699 74.7587 93.4799C79.4887 92.5699 84.0287 91.4899 88.5487 90.4099C95.5587 88.0999 102.299 84.5999 108.049 79.7199C109.849 78.2099 111.499 76.5199 113.429 75.0299C114.249 74.3799 114.989 73.4999 115.769 72.6399C116.519 71.7499 117.289 70.8699 118.169 70.1899C118.309 70.0799 118.499 69.6799 118.689 69.4199C119.129 68.7899 119.559 68.0899 120.029 67.5499C121.449 65.8999 122.159 65.0599 122.719 64.2399C123.309 63.4299 123.779 62.6599 124.679 61.0699C124.899 60.6899 125.339 60.3599 125.649 59.9399C126.269 59.0899 126.839 58.2199 127.489 57.3899C128.159 56.5799 128.779 55.7399 129.449 54.9399C130.069 54.2399 130.769 53.5599 131.419 52.8599C132.119 52.2099 132.769 51.5299 133.279 50.7499C133.489 50.3999 134.199 49.9599 134.669 49.5599C135.429 48.9199 136.209 48.2999 137.029 47.7399C137.839 47.1699 138.629 46.5699 139.479 46.0499C140.429 45.4399 141.409 44.8499 142.429 44.3399C143.429 43.7999 144.399 43.2299 145.349 42.6299C146.169 42.0699 147.619 41.8899 148.119 41.6299C149.059 41.1099 149.949 40.6599 150.969 40.3999C151.959 40.1299 152.959 39.9699 153.929 39.7099C154.779 39.4999 155.589 39.0999 156.459 38.8699C158.629 38.3599 160.989 38.1299 162.979 37.7099C164.049 37.4399 165.109 37.3499 166.169 37.2499L167.749 37.1199C168.279 37.0999 168.809 37.0899 169.339 37.0699C171.629 36.9899 173.589 36.9799 175.659 36.7399C176.459 36.6099 177.219 36.5399 177.969 36.4899C178.349 36.4699 178.719 36.4399 179.099 36.4199C179.479 36.3699 179.849 36.3199 180.229 36.2699C181.749 36.0599 183.349 35.4199 184.799 35.4499C184.859 35.4499 185.019 35.3899 185.139 35.3599L187.479 34.7899L189.799 34.1199C191.349 33.6899 192.879 33.1599 194.409 32.6199C199.669 30.7199 204.819 28.4499 209.949 26.1399C211.399 25.4799 212.859 24.6499 214.359 24.3399C214.669 24.2799 215.239 23.8899 215.639 23.7599C217.139 23.2799 217.969 22.1399 219.459 21.7799C220.789 21.4599 222.009 20.7199 223.269 20.1599C224.689 19.5099 226.119 18.8599 227.539 18.2099C228.519 17.7699 229.409 17.3299 230.159 16.7999C231.409 16.6899 232.879 15.7899 234.269 15.4599C235.169 15.2199 236.549 14.8599 237.129 14.4899C238.419 13.6699 239.879 13.3199 241.259 12.7899C243.329 12.0199 245.479 11.4399 247.489 10.5299C248.329 10.1199 249.559 9.88993 250.609 9.62993C251.589 9.37993 252.569 9.30993 253.549 9.09993C255.369 8.66993 257.159 8.30993 258.939 7.74993C260.489 7.25993 262.499 7.37993 264.029 6.71993C264.239 6.63993 264.759 6.60993 265.099 6.60993C266.879 6.60993 268.449 6.53993 270.399 6.23993C271.189 6.10993 272.089 6.02993 273.029 6.04993C273.969 6.07993 274.929 6.09993 275.849 6.12993C276.339 6.12993 276.829 6.12993 277.319 6.12993L278.799 6.20993C279.779 6.26993 280.749 6.33993 281.689 6.45993C282.889 6.61993 283.549 6.16993 284.939 6.68993C285.679 6.98993 287.219 7.02993 288.379 7.28993C289.579 7.51993 290.849 7.66993 291.969 7.95993C294.889 8.85993 297.859 9.55993 300.779 10.4799C303.729 11.2999 306.629 12.2999 309.429 13.5199C311.789 14.5399 314.409 15.4099 316.349 16.9999C318.149 17.5099 319.919 18.9299 321.539 19.6499C322.559 20.1199 323.379 20.6599 324.209 21.2499C326.989 23.1699 329.599 25.3099 332.089 27.5399C334.579 29.7599 336.939 32.1099 339.389 34.1899C340.999 35.5499 342.679 36.7599 344.459 37.5699C345.349 37.9899 346.269 38.2699 347.199 38.4899C348.149 38.6799 349.059 38.7699 350.129 38.7999C351.299 38.8399 352.469 38.8099 353.779 39.0399C354.739 39.2099 356.509 39.1999 357.799 38.8799C358.049 38.8199 358.569 38.7599 358.759 38.7999C361.239 39.3099 363.699 38.7099 366.149 38.7099C370.959 38.7299 375.659 39.3199 380.409 39.9299C381.429 40.0599 382.579 40.3999 383.429 40.1799C384.159 40.6199 384.769 40.5699 385.749 40.6299C386.769 40.6699 388.399 41.0399 389.209 41.4299C390.319 41.9599 391.409 42.1799 392.499 42.5299C393.659 42.9299 394.849 43.2599 395.989 43.7199C398.409 44.6499 400.779 45.7299 403.059 46.9899C405.349 48.2099 407.529 49.6499 409.599 51.1999C410.399 51.8299 411.129 52.4999 411.849 53.2099C412.579 53.9099 413.559 54.4599 414.039 55.3699C414.219 55.6999 415.049 56.3299 415.569 56.8399C417.389 58.6599 419.039 60.8499 420.739 62.3699C422.419 63.8899 423.719 65.9399 425.409 67.2499C425.869 67.6199 426.449 68.5399 426.999 69.1699C429.229 71.7299 431.069 74.7299 433.519 76.9399C434.049 78.0499 434.989 79.1299 435.929 80.0799C436.269 80.4399 436.589 80.8599 436.939 81.2299C437.299 81.5799 437.679 81.8699 438.089 82.0199C438.189 82.0499 438.429 82.2899 438.569 82.4399C438.759 82.6599 438.949 82.8699 439.139 83.0899L439.739 83.6799C440.149 84.0699 440.579 84.4699 441.119 84.8299C441.589 85.0899 442.039 85.2799 442.499 85.4899C442.959 85.6899 443.399 85.9399 443.939 86.1499C447.679 87.9999 451.889 89.1999 456.299 89.5699C457.479 89.9499 458.879 90.0299 460.239 90.1599C462.679 90.3199 464.959 90.0899 467.469 90.2499C469.839 90.3999 472.389 90.5699 474.649 90.4599C478.559 90.2699 482.439 90.6499 486.329 90.8899C487.329 90.9599 488.469 90.9199 489.339 91.3499C489.549 91.4499 490.639 91.5299 490.949 91.4599C491.609 91.3099 492.339 91.5499 492.969 91.5499C494.769 91.5499 496.339 92.6599 498.159 92.3599C500.079 92.6999 501.999 93.1299 503.899 93.6099C505.799 94.0999 507.689 94.6799 509.539 95.3399C510.389 95.6799 511.259 95.9299 512.059 96.4899C512.579 96.8899 513.959 97.4999 514.589 97.6599C515.329 97.8499 516.039 98.1499 516.729 98.4799C517.399 98.8399 518.049 99.2499 518.719 99.6199C522.689 101.91 526.299 104.81 529.469 108.1C530.859 109.55 532.069 111.13 533.239 112.74C534.419 114.36 535.839 115.92 536.639 117.74C536.699 117.87 536.819 118.03 536.919 118.17C537.409 118.8 537.899 119.44 538.279 120.11C538.779 120.99 539.219 122.28 539.569 122.73C540.319 123.62 540.439 124.4 540.819 125.18C541.829 127.45 541.929 129.1 541.109 129.16C540.929 129.17 540.639 128.99 540.369 128.74C538.659 127.14 538.749 127.08 537.049 124.04C534.879 120.23 532.889 116.36 529.929 113.1C528.389 110.64 526.049 108.64 523.869 106.68C521.609 104.63 519.189 102.57 516.429 101.31C513.699 100.07 511.049 98.8399 508.249 97.8299C506.119 97.0799 503.999 96.2899 501.799 95.7299C499.509 95.1599 497.119 94.7999 494.829 94.3699C493.419 94.0699 491.929 93.6299 490.549 93.6299C487.539 93.6499 484.479 93.1299 481.529 93.1499C477.429 93.1799 473.309 92.8799 469.249 92.9199C468.149 92.9199 467.059 92.9399 465.969 92.9499C464.869 92.9299 463.759 92.8999 462.649 92.8399C461.639 92.7799 460.679 92.7799 459.599 92.4999C458.499 92.2299 456.889 92.0999 455.479 92.1799C454.899 92.1999 453.929 92.1299 453.449 91.9699C452.459 91.6499 451.419 91.4499 450.369 91.1799L448.789 90.8399L447.999 90.6699L447.229 90.4299C446.579 90.2199 445.909 89.9199 445.319 89.6599C444.719 89.4099 444.219 89.0699 443.809 88.9799C443.139 88.7899 442.499 88.5699 441.929 88.2699C441.369 87.9299 440.819 87.5999 440.259 87.2599C439.429 86.8399 438.579 86.1899 438.109 85.4799C437.979 85.2899 437.299 84.7199 437.079 84.5699C436.389 84.1899 435.759 83.6599 435.139 83.0799C434.589 82.4599 434.029 81.8299 433.489 81.2199C430.889 78.2899 428.549 75.2299 426.179 72.2299C425.189 70.9899 424.139 69.8499 423.089 68.6999C422.029 67.5699 420.969 66.4299 420.009 65.1599C418.439 63.9599 417.129 62.2499 415.769 60.7099C414.699 59.6099 413.759 58.3899 412.659 57.3099C412.129 56.7499 411.559 56.2399 410.969 55.7499C410.379 55.2599 409.819 54.6999 409.199 54.1599C408.459 53.4799 407.589 52.7899 406.619 52.1999C405.679 51.5699 404.679 50.9999 403.719 50.4299C402.689 49.7799 401.389 49.3799 400.579 48.5399C400.469 48.4299 399.959 48.1999 399.749 48.1599C398.949 47.9899 398.099 47.6799 397.279 47.3599C396.469 47.0199 395.699 46.6399 395.059 46.3299C392.969 45.2699 390.769 44.7499 388.589 44.1399C386.759 43.6599 384.889 43.2999 383.029 42.9499C381.699 42.6799 380.369 42.5899 378.969 42.2399C377.899 41.9699 376.429 42.0399 375.129 41.9599C373.829 41.8899 372.519 41.7699 371.209 41.7199C369.779 41.6499 368.349 41.6099 366.919 41.5899C365.489 41.5599 364.049 41.5599 362.619 41.5699C361.069 41.5699 359.499 41.6299 357.949 41.6199C356.479 41.6099 355.019 41.4699 353.549 41.4599C352.509 41.4599 351.469 41.4599 350.439 41.4599L348.869 41.4199C348.329 41.3699 347.779 41.3599 347.249 41.2599C346.159 41.1199 345.109 40.7899 344.079 40.4099C343.069 39.9799 342.089 39.4699 341.209 38.8399C340.069 38.4399 339.259 37.5899 338.379 36.7799C337.549 36.0399 336.689 35.0999 335.679 34.5799C335.399 34.4399 334.989 34.0299 334.649 33.7399C333.879 33.0899 333.439 32.2899 332.439 31.6399C331.729 31.1799 330.889 30.2099 330.079 29.5299C329.229 28.8099 328.409 27.8299 327.449 27.5199C326.289 25.8399 324.299 25.3699 322.879 24.0599C322.429 23.6499 321.899 23.2299 321.389 22.8399C321.139 22.6399 320.869 22.3799 320.629 22.2499C316.049 19.8799 311.529 17.1599 306.589 15.4299C305.979 15.2199 305.379 15.0799 304.749 14.9299C304.449 14.8499 304.119 14.7499 303.849 14.6299C302.539 14.0499 301.869 13.8099 301.209 13.6099C300.549 13.4099 299.899 13.2699 298.589 12.9799C297.929 12.8499 297.259 12.5599 296.569 12.4299C294.809 12.0799 293.129 11.5299 291.259 11.3699C290.319 11.3199 289.379 11.0999 288.439 10.8299C287.499 10.5599 286.549 10.2299 285.599 10.0499C283.909 9.70993 282.259 9.22993 280.369 9.17993C275.649 8.81993 270.909 8.89993 266.199 9.35993C265.609 9.41993 264.789 9.41993 264.469 9.53993C263.169 10.1099 262.039 10.5699 260.649 10.0799C260.579 10.0599 260.099 10.1199 259.999 10.1899C258.929 10.8299 257.409 10.9099 256.119 11.1599C251.199 12.1799 246.619 14.0799 241.799 15.5999C241.019 15.8499 240.019 16.3199 239.519 16.3499C238.459 16.4199 238.159 17.0399 237.299 17.2499C236.569 17.4199 235.609 17.9699 235.009 18.0899C232.789 18.4799 230.539 19.6199 228.669 20.6099C226.919 21.5399 225.129 22.5399 223.449 23.1699C220.139 24.3999 217.019 26.0199 213.819 27.4699C210.529 28.9499 207.239 30.4699 203.909 31.8999C202.549 32.4899 201.019 32.9499 199.879 33.7999C199.649 33.9699 199.009 34.1799 198.559 34.3299C197.499 34.6899 196.409 34.9499 195.359 35.3199C194.309 35.6899 193.329 36.2299 192.279 36.6499C191.429 36.9699 190.599 37.1899 189.769 37.6599C189.159 38.0099 187.979 38.2699 186.879 38.3399C185.789 38.4199 184.689 38.5299 183.519 38.6699C182.339 38.7699 181.109 38.9499 179.779 39.2599C178.589 39.4899 177.369 39.6299 176.149 39.7999C174.939 39.9799 173.689 39.9399 172.459 40.0399C171.409 40.1099 170.499 40.0899 169.439 40.3099C168.969 40.4099 168.329 40.4399 167.669 40.4599C167.009 40.4999 166.319 40.4999 165.739 40.4799C164.819 40.4399 163.939 40.4699 163.079 40.5899C162.219 40.7099 161.359 40.8399 160.499 41.1099C159.909 41.2999 159.199 41.4299 158.529 41.5599C154.499 42.3799 150.549 43.6099 146.819 45.2999C146.369 45.4999 145.909 45.7299 145.459 45.9099C145.019 46.1199 144.589 46.2899 144.169 46.3599C143.749 46.9699 142.769 47.3199 142.039 47.7799C141.469 48.1099 140.889 48.4199 140.309 48.7199C139.729 49.0299 139.189 49.3999 138.639 49.7599C137.989 50.1999 137.359 50.6499 136.789 51.1799C136.219 51.6999 135.639 52.2199 135.129 52.8199C134.669 53.3799 134.079 53.8999 133.479 54.4399C132.879 54.9799 132.349 55.6099 131.919 56.2599C131.769 56.5099 131.189 56.8099 130.949 57.1699C130.429 57.8899 129.799 58.5599 129.229 59.2699C128.709 60.0099 128.229 60.7599 127.949 61.5599C127.909 61.6899 127.689 62.0099 127.559 62.1299C126.009 63.6599 125.109 65.5799 123.959 67.3599C122.689 69.2899 121.089 70.6999 119.649 72.4199C117.989 74.3599 116.289 76.4399 114.409 77.9999C111.199 80.7099 108.099 83.4899 104.609 85.7999C101.039 88.1499 97.2287 90.1699 93.1987 91.6599L91.8987 92.1699L90.5787 92.6299C89.6987 92.9299 88.7987 93.2599 87.9187 93.4699C85.9387 93.9999 83.9287 94.4299 81.9387 94.8799L76.3387 96.1699C75.4687 96.3699 74.5587 96.7599 73.7287 96.6699C73.5587 96.6499 73.0387 96.7899 72.8287 96.8899C72.0887 97.2599 71.3587 97.5599 70.6087 97.8099C69.8487 98.0399 69.0887 98.2599 68.2787 98.4299C67.8087 98.5099 67.2287 98.8699 66.7087 99.0499C65.9787 99.2999 65.3687 99.6699 64.7887 100.06C64.1987 100.42 63.6787 100.87 63.1087 101.28C62.5687 101.63 61.9987 102.01 61.4387 102.39C60.8787 102.76 60.3887 103.21 60.0887 103.74C60.0087 103.88 59.5187 104.29 59.3287 104.37C58.1287 104.97 57.1687 106.01 56.3087 107.13L55.6487 107.95C55.4387 108.22 55.2487 108.5 55.0387 108.76C54.6287 109.29 54.1487 109.74 53.6487 110.17C53.4387 111.27 52.3987 111.83 52.0787 112.6C51.8287 113.14 51.5887 113.66 51.3387 114.19C51.1087 114.73 50.8987 115.28 50.6287 115.83L50.2587 116.61L49.9487 117.42C49.7487 117.96 49.5287 118.5 49.3587 119.05C48.7587 121.06 48.0287 123.11 47.9687 125.25C47.9687 125.97 47.8087 127.27 47.3987 128.1C47.3187 128.25 47.2787 128.71 47.2587 129.01C47.1187 131.34 46.7487 134.14 46.1887 134.74C45.8487 135.08 45.4187 135.09 45.0487 134.82C44.8587 134.69 44.7187 133.62 44.6187 132.94C44.4087 131.77 44.1687 130.62 44.1887 129.33C44.2187 127.8 44.5087 126.15 44.8887 124.19L44.8987 124.17Z" fill="#A6843B"/>
<path d="M147.039 80.53C146.729 80.53 146.419 80.53 146.109 80.53C145.139 80.53 144.189 80.65 143.219 80.65C140.099 80.65 136.979 80.75 133.859 80.76C130.959 80.76 128.039 80.76 125.159 80.63C124.639 80.61 123.839 79.98 123.929 79.66C124.069 79.13 124.529 78.37 125.399 78.19C126.719 77.91 128.509 77.96 130.079 78C135.039 78.13 137.219 78.47 142.169 78.61C143.529 78.65 147.489 78.91 148.859 78.94C149.879 78.96 150.799 78.97 151.809 79.07C151.929 79.08 152.489 79.3 152.489 79.32C152.329 79.9 152.709 79.52 152.259 80.05C151.989 80.37 149.949 80.4 149.409 80.44C148.619 80.49 147.829 80.52 147.039 80.53Z" fill="#B09151"/>
<path d="M34.6681 161.61C34.1781 161.58 32.7081 161.8 32.2081 161.82C31.4781 161.84 30.4781 161.89 29.7481 161.9C27.6781 161.93 26.6881 161.98 24.6181 162.02C23.6381 162.04 20.7981 162.52 19.7281 162.09C18.8081 161.72 19.6781 161.47 18.8781 161.05C18.6681 160.94 19.0281 160.26 19.4481 160.1C20.3581 159.76 21.4681 159.39 22.5081 159.37C24.7181 159.33 26.7881 159.7 29.0081 159.79C31.2681 159.88 33.6081 160.02 35.8481 160.18C36.4581 160.22 37.5481 160.45 37.5381 160.54C37.4981 161.07 37.3881 161.3 36.3181 161.37C36.1281 161.38 34.8381 161.62 34.6481 161.61H34.6681Z" fill="#B09151"/>
<path d="M94.7573 102.88C92.4273 102.86 90.5073 102.74 89.7373 102.43C88.8673 102.08 88.7473 101.39 89.7373 101.11C91.7973 100.54 94.5573 99.8702 97.4773 99.7402C101.057 99.5702 105.087 99.9202 108.927 100.02C110.247 100.06 111.587 100.05 112.917 100.06C115.787 100.09 120.867 100.42 123.817 100.79C125.927 101.06 132.827 101.2 135.437 101.27C135.757 101.27 136.317 101.33 136.337 101.37C136.717 102.1 138.107 101.79 135.517 102.4C135.207 102.47 127.787 102.79 127.247 102.78C120.937 102.72 114.207 102.58 107.727 102.58C105.307 102.58 99.2573 102.9 94.7573 102.86V102.88Z" fill="#B09151"/>
<path d="M67.0488 125.04C70.0688 124.91 76.8687 125.1 72.9688 123.66C69.6388 122.43 65.5087 122.38 61.4187 122.46C59.0087 122.51 56.1688 122.46 54.9688 123.39C54.9887 124.72 58.7887 125.58 62.1087 125.36C63.7587 125.25 65.3887 125.12 67.0587 125.05L67.0488 125.04Z" fill="#B09151"/>
<path d="M130.498 90.0501C130.498 90.2901 130.158 90.4701 129.508 90.6101C128.038 90.9101 126.088 90.7701 124.538 90.7701C122.118 90.7801 119.548 91.0201 117.128 91.0501C116.758 91.0501 116.368 91.1401 116.048 91.2501C115.038 91.6101 113.578 91.0201 112.938 90.5401C111.278 89.3001 112.828 88.6801 113.928 88.3601C114.228 88.2701 115.348 88.1801 116.068 88.2401C117.788 88.3701 119.688 88.3101 121.398 88.4701C123.978 88.7101 126.598 88.8501 129.148 89.1801C129.728 89.2501 130.088 89.4201 130.298 89.6401C130.408 89.7601 130.508 89.9601 130.508 90.0601L130.498 90.0501Z" fill="#B09151"/>
<path d="M94.7208 113C89.6808 113.19 81.2308 113.32 77.6708 113.46C74.2008 113.59 70.7208 113.84 67.2708 113.81C65.5608 113.8 63.6908 113.33 62.3708 112.95C61.9608 112.83 63.1308 112.31 63.6008 111.98C65.5808 110.57 69.9108 111.08 73.6408 111.07C77.6008 111.06 88.1608 111.52 92.1208 111.46C96.7608 111.39 97.3308 111.68 95.6208 112.85C95.3808 113.01 94.1908 113.08 94.7208 113Z" fill="#B09151"/>
<path d="M59.3814 172.72C59.3714 172.99 58.8114 173.19 57.7314 173.34C55.2914 173.67 52.0214 173.51 49.4214 173.52C45.3814 173.53 41.0914 173.8 37.0514 173.83C36.4414 173.83 35.7814 173.93 35.2514 174.06C33.5614 174.46 31.1214 173.8 30.0514 173.26C27.2814 171.89 29.8614 171.19 31.7014 170.83C32.1914 170.73 34.0714 170.63 35.2814 170.69C38.1514 170.84 41.3214 170.77 44.1814 170.95C48.5014 171.22 52.8614 171.38 57.1214 171.74C58.0914 171.82 58.7014 172.01 59.0314 172.25C59.2114 172.38 59.3814 172.6 59.3814 172.71V172.72Z" fill="#B09151"/>
<path d="M52.7798 148.12C52.7698 148.39 52.2098 148.59 51.1298 148.74C48.6898 149.07 45.4198 148.91 42.8198 148.92C38.7798 148.93 34.4898 149.2 30.4498 149.23C29.8398 149.23 29.1798 149.33 28.6498 149.46C26.9598 149.86 24.5198 149.2 23.4498 148.66C20.6798 147.29 23.2598 146.59 25.0998 146.23C25.5898 146.13 27.4698 146.03 28.6798 146.09C31.5498 146.24 34.7198 146.17 37.5798 146.35C41.8998 146.62 46.2598 146.78 50.5198 147.14C51.4898 147.22 52.0998 147.41 52.4298 147.65C52.6098 147.78 52.7798 148 52.7798 148.11V148.12Z" fill="#B09151"/>
<path d="M560.868 151.25C561.178 151.25 561.498 151.25 561.808 151.25C562.788 151.25 563.747 151.16 564.737 151.16C567.897 151.16 571.067 151.09 574.227 151.08C577.167 151.08 580.127 151.08 583.047 151.17C583.577 151.19 584.377 151.65 584.297 151.88C584.147 152.27 583.688 152.83 582.808 152.96C581.468 153.17 579.648 153.13 578.058 153.1C573.028 153 570.817 152.75 565.797 152.65C564.417 152.62 560.408 152.43 559.018 152.41C557.978 152.39 557.058 152.39 556.028 152.31C555.898 152.31 555.338 152.14 555.338 152.13C555.498 151.7 555.108 151.99 555.578 151.59C555.858 151.35 557.917 151.33 558.467 151.3C559.267 151.26 560.068 151.24 560.868 151.24V151.25Z" fill="#B09151"/>
<path d="M564.319 135.4C566.179 136.14 569.489 136 571.449 135.84C571.489 135.84 572.329 135.84 572.479 135.74C573.109 135.37 574.389 134.83 573.869 134.63C572.729 134.2 570.709 133.69 568.919 133.65C566.719 133.6 561.569 133.44 561.859 134.81C561.909 135.04 563.939 135.24 564.329 135.39L564.319 135.4Z" fill="#B09151"/>
<path d="M576.469 160.72C574.599 160.81 570.389 160.68 572.809 161.73C574.869 162.63 577.429 162.67 579.959 162.61C581.449 162.58 583.209 162.61 583.949 161.93C583.939 160.95 581.579 160.33 579.529 160.49C578.509 160.57 577.499 160.67 576.469 160.72Z" fill="#B09151"/>
<path d="M363.85 52.3401C363.86 52.1201 364.34 51.9501 365.28 51.8301C367.41 51.5601 370.25 51.6901 372.5 51.6801C376.01 51.6701 379.74 51.4501 383.25 51.4201C383.78 51.4201 384.36 51.3301 384.82 51.2301C386.29 50.9001 388.41 51.4501 389.34 51.8901C391.74 53.0401 389.51 53.6101 387.91 53.9101C387.48 53.9901 385.85 54.0801 384.8 54.0201C382.3 53.9001 379.55 53.9501 377.06 53.8101C373.31 53.5901 369.51 53.4601 365.81 53.1501C364.97 53.0801 364.44 52.9301 364.14 52.7201C363.98 52.6101 363.84 52.4301 363.84 52.3301L363.85 52.3401Z" fill="#B09151"/>
<path d="M564.697 168.55C566.987 168.41 570.817 168.31 572.437 168.21C574.007 168.11 575.587 167.93 577.157 167.95C577.927 167.96 578.777 168.3 579.377 168.58C579.557 168.67 579.027 169.05 578.817 169.29C577.917 170.32 575.957 169.95 574.257 169.96C572.457 169.96 567.667 169.63 565.877 169.67C563.777 169.72 563.517 169.51 564.287 168.65C564.397 168.53 564.937 168.48 564.697 168.54V168.55Z" fill="#B09151"/>
<path d="M560.969 142.48C560.969 142.3 561.309 142.17 561.959 142.07C563.429 141.85 565.399 141.96 566.959 141.95C569.389 141.95 571.979 141.77 574.409 141.75C574.779 141.75 575.179 141.68 575.499 141.6C576.519 141.34 577.989 141.77 578.629 142.12C580.299 143.03 578.749 143.48 577.639 143.72C577.339 143.78 576.209 143.85 575.489 143.81C573.759 143.71 571.849 143.76 570.129 143.64C567.529 143.47 564.899 143.36 562.329 143.12C561.749 143.07 561.379 142.94 561.179 142.78C561.069 142.69 560.969 142.55 560.969 142.47V142.48Z" fill="#B09151"/>
<path d="M402.11 90.7C402.43 90.7 402.74 90.7 403.06 90.7C404.06 90.7 405.03 90.59 406.03 90.59C409.24 90.59 412.45 90.5 415.67 90.5C418.66 90.5 421.66 90.5 424.62 90.61C425.16 90.63 425.97 91.19 425.88 91.48C425.73 91.95 425.26 92.63 424.37 92.8C423.01 93.05 421.17 93.01 419.55 92.97C414.45 92.85 412.2 92.55 407.1 92.42C405.7 92.39 401.63 92.15 400.22 92.13C399.17 92.11 398.23 92.1 397.19 92.01C397.06 92 396.49 91.81 396.49 91.79C396.65 91.27 396.26 91.62 396.73 91.14C397.01 90.85 399.11 90.82 399.66 90.79C400.47 90.74 401.28 90.72 402.1 90.71L402.11 90.7Z" fill="#B09151"/>
<path d="M391.382 61.6601C393.722 62.5601 397.912 62.3901 400.392 62.1901C400.442 62.1901 401.492 62.1801 401.692 62.0701C402.492 61.6201 404.102 60.9601 403.442 60.7201C402.002 60.1901 399.452 59.5801 397.192 59.5301C394.412 59.4701 387.912 59.2701 388.272 60.9401C388.332 61.2201 390.902 61.4701 391.382 61.6501V61.6601Z" fill="#B09151"/>
<path d="M398.611 69.9999C399.171 70.0299 400.861 69.8299 401.431 69.8199C402.271 69.7999 403.411 69.7499 404.251 69.7499C406.631 69.7199 407.761 69.6799 410.131 69.6399C411.251 69.6199 414.511 69.1899 415.741 69.5799C416.791 69.9099 415.801 70.1299 416.721 70.5099C416.961 70.6099 416.551 71.2099 416.061 71.3599C415.021 71.6699 413.751 71.9999 412.541 72.0099C410.001 72.0399 407.631 71.7199 405.081 71.6299C402.491 71.5499 399.801 71.4299 397.231 71.2799C396.531 71.2399 395.281 71.0399 395.281 70.9599C395.321 70.4899 395.461 70.2799 396.671 70.2199C396.881 70.2099 398.371 69.9999 398.581 70.0099L398.611 69.9999Z" fill="#B09151"/>
<path d="M563.132 160.38C564.572 160.39 565.762 160.48 566.242 160.7C566.782 160.94 566.862 161.44 566.242 161.64C564.972 162.05 563.262 162.51 561.452 162.61C559.242 162.73 556.742 162.48 554.362 162.41C553.542 162.38 552.722 162.39 551.892 162.38C550.122 162.36 546.972 162.13 545.142 161.86C543.842 161.67 539.562 161.57 537.952 161.52C537.752 161.52 537.402 161.48 537.392 161.45C537.162 160.94 536.302 161.16 537.892 160.72C538.082 160.67 542.682 160.45 543.012 160.45C546.922 160.5 551.082 160.59 555.092 160.59C556.592 160.59 560.332 160.36 563.122 160.39L563.132 160.38Z" fill="#B09151"/>
<path d="M437.078 92.0702C435.208 92.1602 430.998 92.0302 433.418 93.0502C435.478 93.9202 438.038 93.9602 440.568 93.9002C442.058 93.8702 443.818 93.9002 444.558 93.2402C444.548 92.3002 442.188 91.6902 440.138 91.8502C439.118 91.9302 438.108 92.0202 437.078 92.0702Z" fill="#B09151"/>
<path d="M546.531 177.4C546.541 177.23 546.991 177.1 547.881 177.01C549.881 176.8 552.551 176.9 554.681 176.89C557.981 176.89 561.491 176.71 564.801 176.69C565.301 176.69 565.841 176.62 566.281 176.54C567.661 176.29 569.651 176.71 570.531 177.05C572.791 177.93 570.691 178.37 569.181 178.6C568.771 178.66 567.241 178.73 566.251 178.69C563.901 178.6 561.311 178.64 558.971 178.53C555.441 178.36 551.871 178.26 548.391 178.03C547.601 177.98 547.101 177.86 546.821 177.7C546.671 177.61 546.531 177.48 546.541 177.4H546.531Z" fill="#B09151"/>
<path d="M449.69 97.9199C454.32 97.7799 462.08 97.6899 465.36 97.5899C468.55 97.4999 471.75 97.3199 474.92 97.3399C476.49 97.3399 478.21 97.6799 479.42 97.9499C479.79 98.0299 478.72 98.3999 478.29 98.6399C476.47 99.6399 472.5 99.2799 469.06 99.2799C465.42 99.2799 455.71 98.9599 452.08 98.9999C447.82 99.0499 447.29 98.8399 448.86 98.0199C449.08 97.8999 450.17 97.8599 449.68 97.9099L449.69 97.9199Z" fill="#B09151"/>
<path d="M401.992 79.9102C401.992 79.6902 402.422 79.5302 403.252 79.4102C405.112 79.1502 407.592 79.2702 409.572 79.2702C412.642 79.2702 415.912 79.0502 418.982 79.0202C419.442 79.0202 419.952 78.9402 420.352 78.8402C421.642 78.5202 423.492 79.0502 424.302 79.4802C426.412 80.5902 424.452 81.1402 423.052 81.4302C422.672 81.5102 421.252 81.5902 420.332 81.5402C418.152 81.4202 415.742 81.4802 413.562 81.3302C410.282 81.1202 406.962 80.9902 403.722 80.6902C402.982 80.6202 402.522 80.4802 402.262 80.2802C402.122 80.1702 401.992 80.0002 402.002 79.9102H401.992Z" fill="#B09151"/>
</svg>
