<svg width="536" height="256" viewBox="0 0 536 256" fill="none" xmlns="http://www.w3.org/2000/svg">
<path d="M60 115C60 115 40.7 110.16 28 117C15 124 5 137.78 5 161C5 176 14 192 32.68 196.26C55.09 201.37 66.1 193.52 78 194C89.9 194.48 99.19 208.81 131.62 213.21C167 218 176 206 199.68 213.41C215.25 218.28 229.63 237.92 262.24 242.72C332 253 384.61 238.43 415 225C422.99 221.47 457.32 198.99 480 200C506.93 201.2 530.76 180.23 529 152C527 120 498.69 92.4396 465.12 98.6096" fill="white"/>
<path d="M46.1713 114.86C42.2813 115.01 38.0513 114.79 33.8313 116.04C33.2913 116.16 32.8013 116.39 32.2813 116.57C31.7713 116.77 31.2513 116.92 30.7513 117.14C29.7813 117.64 28.7813 118 27.8313 118.6L26.3913 119.43L25.0013 120.34C24.0513 120.93 23.1913 121.63 22.3113 122.29C21.4213 122.97 20.6613 123.75 19.8713 124.48C19.1513 125.28 18.4213 126.06 17.7713 126.92C16.5313 128.57 14.7713 130.28 14.1113 132.21C14.0513 132.38 13.8013 132.71 13.6513 132.97L13.1313 133.82L12.6713 134.71L11.7613 136.49L10.9813 138.34C10.7113 138.95 10.4513 139.57 10.2513 140.2C9.81126 141.46 9.35126 142.71 9.02126 143.99C8.83126 144.63 8.65126 145.26 8.46126 145.89C8.30126 146.53 8.15126 147.16 7.99126 147.8C7.57126 149.26 7.38126 150.77 7.12126 152.26C6.89126 153.76 6.82126 155.27 6.67126 156.77C6.63126 158.28 6.57126 159.8 6.57126 161.3L6.64126 163.52C6.69126 164.26 6.79126 164.99 6.85126 165.73C7.69126 170.49 9.37126 175.08 11.7513 179.26C14.2313 183.38 17.5313 187.03 21.5513 189.68C24.0913 191.3 26.8513 192.5 29.6813 193.81C30.3013 194.07 30.9713 194.26 31.6713 194.46C32.3713 194.65 33.0813 194.85 33.8413 194.96C35.3413 195.21 36.8313 195.58 38.2113 195.96C38.4313 196.03 39.0013 196.01 39.4213 196.05C40.4213 196.16 41.4813 196.14 42.4213 196.25C43.1213 196.34 43.7413 196.42 44.2913 196.49C44.8413 196.53 45.3213 196.56 45.7613 196.59C46.6313 196.63 47.3113 196.7 47.9613 196.68C49.2613 196.64 50.4413 196.6 52.7913 196.26C53.3513 196.2 54.0513 196.31 54.7013 196.23C57.3113 195.97 59.9113 195.49 62.4913 194.92C64.8213 194.4 67.3513 194.09 69.5613 193.26C70.0413 193.08 71.1013 192.96 71.9113 192.87C74.5013 192.52 77.1113 192.3 79.8813 192.69C83.0313 193.11 85.8013 194.56 88.5413 195.52C89.7613 195.94 91.1313 197.18 91.8213 197.46C93.1013 197.97 94.2113 198.55 95.3613 199.22C96.4913 199.86 97.5113 200.64 98.6413 201.22C99.6313 201.72 100.691 202.1 101.721 202.55C102.991 203.13 104.261 203.81 105.561 204.36C106.851 204.94 108.121 205.48 109.351 205.82C111.971 206.62 114.431 207.45 117.001 208.19C118.341 208.55 119.691 208.91 121.031 209.26C122.391 209.55 123.751 209.85 125.111 210.11C127.231 210.52 129.131 210.93 131.121 211.38C133.121 211.77 135.431 211.68 137.211 212.33C137.291 212.36 137.511 212.36 137.671 212.38C139.781 212.59 141.891 212.76 144.001 212.93L147.171 213.04C148.231 213.08 149.291 213.11 150.351 213.06C152.181 213.01 154.011 212.98 155.841 212.82C157.671 212.71 159.491 212.51 161.321 212.3C164.971 211.87 168.601 211.27 172.301 210.74C173.341 210.58 174.411 210.41 175.481 210.29C176.541 210.15 177.601 210.1 178.611 210.19C179.031 210.23 179.921 210.04 180.481 210.04C182.561 210.17 184.221 209.4 186.231 209.83C186.681 209.92 187.131 209.97 187.591 210.02C188.051 210.08 188.511 210.14 188.971 210.19C189.891 210.3 190.831 210.35 191.741 210.49C193.781 210.92 195.871 211.22 197.851 211.86C198.541 212.06 199.201 212.23 199.851 212.37C200.491 212.53 201.101 212.72 201.711 212.83C202.051 213.07 202.451 213.28 202.881 213.47C203.301 213.68 203.741 213.9 204.191 214.13C205.091 214.57 206.051 214.97 206.801 215.53C207.811 216.23 209.391 217.26 210.201 217.63C212.061 218.39 213.601 219.61 215.241 220.65C217.661 222.22 219.991 223.96 222.521 225.27C223.601 225.81 224.881 226.78 226.051 227.53C227.141 228.23 228.111 229.05 229.221 229.71C230.261 230.32 231.291 230.91 232.331 231.47C233.381 232.02 234.471 232.49 235.571 232.94C236.051 233.13 236.541 233.37 237.031 233.63C237.531 233.87 238.051 234.11 238.561 234.35C239.591 234.83 240.631 235.3 241.651 235.5C241.921 235.54 242.541 235.8 242.921 235.99C243.931 236.47 244.901 236.92 245.921 237.34C246.951 237.72 248.041 238 249.261 238.27C251.211 238.78 253.691 239.44 255.941 240.03C257.141 240.35 258.401 240.48 259.621 240.72C260.851 240.92 262.041 241.2 263.251 241.39C264.791 241.66 265.641 241.19 267.421 241.78C268.381 242.1 270.341 242.25 271.851 242.45C273.411 242.64 275.041 242.83 276.511 243.01C280.391 243.57 284.321 243.97 288.261 244.26C292.211 244.43 296.161 244.58 300.081 244.82C303.411 244.92 306.901 244.61 310.061 245.15C312.401 244.8 315.291 244.98 317.541 244.68C318.961 244.48 320.211 244.46 321.521 244.42C323.681 244.34 325.831 244.15 327.981 244.03C330.131 243.87 332.291 243.8 334.441 243.56C338.731 243.1 343.031 242.77 347.291 242.09C352.921 241.35 358.481 240.22 364.041 239.1C365.601 238.76 367.111 238.39 368.851 238.26C369.491 238.21 370.381 238.07 371.311 237.86C372.231 237.63 373.191 237.31 373.981 236.96C374.291 236.82 374.931 236.61 375.181 236.6C376.811 236.48 378.371 236.09 379.901 235.63C381.421 235.12 382.911 234.55 384.431 234.11C390.391 232.41 396.231 230.78 402.021 228.66C403.241 228.18 404.731 227.77 405.541 227.06C406.591 226.98 407.251 226.57 408.361 225.99C409.491 225.36 411.421 224.52 412.531 224.24C413.281 224.05 414.001 223.8 414.641 223.52C415.261 223.25 415.891 222.91 416.541 222.59C417.921 221.9 419.291 221.1 420.671 220.36C426.521 217.2 432.411 214.03 438.441 211.16C439.621 210.59 440.831 210.16 442.041 209.66C443.251 209.16 444.471 208.4 445.741 208.17C446.211 208.08 447.411 207.46 448.271 207.09C451.331 205.77 454.751 204.63 457.481 203.41C460.201 202.19 463.321 201.56 465.901 200.46C466.631 200.17 468.041 199.95 469.141 199.72C471.341 199.2 473.661 198.99 475.951 198.83L477.681 198.75C478.261 198.75 478.831 198.74 479.411 198.73C480.571 198.71 481.581 198.67 482.651 198.55C483.421 198.67 484.271 198.72 485.151 198.7C486.021 198.64 486.921 198.58 487.791 198.45C488.431 198.37 489.121 198.29 489.781 198.21C490.431 198.09 491.051 197.93 491.541 197.66C491.651 197.6 492.101 197.52 492.361 197.46C493.121 197.32 493.861 197.24 494.611 197.09C495.351 196.93 496.131 196.77 496.941 196.47C497.621 196.21 498.221 195.93 498.831 195.65C499.431 195.34 500.051 195.04 500.791 194.74C506.011 192.52 511.021 189.68 515.031 185.52C515.691 185.07 516.331 184.51 516.921 183.87C517.531 183.25 518.101 182.56 518.661 181.86C520.641 179.4 521.951 176.73 523.451 173.91C524.871 171.24 526.071 168.18 526.571 165.34C527.001 162.9 527.381 160.47 527.521 158.01C527.691 155.56 527.711 153.1 527.431 150.64C527.331 149.37 526.991 147.98 527.161 146.79C527.221 146.5 526.911 145.14 526.741 144.78C526.391 144.02 526.331 143.07 526.051 142.32C525.861 141.79 525.741 141.25 525.651 140.7L525.331 139.07C525.141 137.97 524.811 136.91 524.151 135.98C523.761 134.81 523.241 133.69 522.791 132.55C522.251 131.44 521.791 130.3 521.201 129.22C520.101 127.02 518.791 124.93 517.441 122.88C516.791 121.93 516.081 121.08 515.541 119.99C515.151 119.28 514.011 117.76 513.351 117.28C512.601 116.69 511.951 116 511.271 115.34C510.601 114.67 509.971 113.95 509.261 113.33C507.191 111.38 504.951 109.63 502.601 108.03C500.261 106.42 497.791 105.02 495.221 103.83C492.991 102.75 490.691 101.8 488.341 101C485.931 100.23 483.331 99.9098 480.931 99.2998C480.761 99.2498 480.501 99.2198 480.291 99.2098C479.291 99.1698 478.281 99.1798 477.311 99.0898C476.041 99.0498 474.351 98.6698 473.631 98.8598C472.191 99.1398 471.241 98.9098 470.141 99.0098C468.561 99.0798 467.281 99.1298 466.391 98.9998C465.511 98.8698 465.041 98.5898 465.161 98.1798C465.211 97.9998 465.561 97.7598 466.001 97.5598C467.391 96.9298 468.111 96.5998 469.081 96.4298C470.051 96.2398 471.251 96.0898 473.661 96.0198C479.791 95.8598 485.681 97.2598 491.471 99.0698C495.071 100.75 498.971 102.29 502.381 104.53C505.931 106.84 509.051 109.78 512.131 112.49C515.221 115.19 517.771 118.37 520.021 121.74C521.761 124.3 523.101 127.08 524.391 129.88C525.741 132.78 527.001 135.81 527.761 138.86C528.021 139.8 528.171 140.79 528.351 141.76C528.551 142.73 528.701 143.68 528.951 144.57C530.041 148.47 530.141 152.66 530.181 156.62C530.201 159.38 529.891 162.16 529.311 164.88C528.701 167.59 527.851 170.23 526.851 172.79C525.771 175.55 524.451 178.21 522.741 180.67C521.941 181.77 521.201 182.84 520.131 183.85C519.071 184.91 517.591 186.47 516.431 187.93C515.941 188.53 515.031 189.43 514.481 189.81C512.171 191.3 509.931 193.08 507.521 194.5C506.771 194.97 505.901 195.34 505.121 195.66C504.351 196.01 503.641 196.28 503.191 196.56C502.441 197.05 501.671 197.42 500.891 197.72C500.121 198.05 499.341 198.32 498.551 198.59C497.451 199.02 496.161 199.47 495.071 199.48C494.781 199.48 493.651 199.71 493.331 199.86C492.411 200.31 491.351 200.5 490.281 200.72C489.201 200.86 488.101 201 487.031 201.09C484.481 201.4 481.811 201.34 479.321 201.29C476.891 201.23 474.441 201.42 472.001 201.8C467.951 202.39 464.251 203.86 460.271 204.97C458.011 206.14 455.311 206.92 452.821 207.94C450.901 208.68 448.981 209.42 447.061 210.16C445.151 210.94 443.361 211.85 441.321 212.65C438.801 213.63 436.031 215.26 433.381 216.61C431.941 217.35 430.451 218.4 428.981 218.76C428.781 218.81 428.131 219.18 427.911 219.35C426.231 220.72 423.821 221.93 422.081 222.72C420.661 223.36 419.301 224.07 417.941 224.78C417.261 225.13 416.581 225.49 415.861 225.82C415.151 226.15 414.461 226.42 413.751 226.72C411.411 227.68 409.091 228.73 406.711 229.59C405.001 230.21 403.401 230.98 401.531 231.43C400.111 231.79 398.361 232.64 396.741 233.24C395.111 233.84 393.431 234.31 391.771 234.85C389.961 235.43 388.151 236.01 386.311 236.51L380.821 238.06C378.831 238.58 376.821 239.09 374.831 239.54C373.881 239.75 372.941 239.94 371.991 240.12C371.041 240.27 370.091 240.43 369.141 240.62C367.811 240.89 366.491 241.19 365.181 241.49C363.871 241.81 362.561 242.12 361.241 242.38C358.601 242.92 355.951 243.47 353.241 243.84C351.821 244.33 350.371 244.32 348.831 244.48C347.421 244.63 345.751 244.73 344.391 245.22C344.011 245.36 343.261 245.43 342.671 245.5C341.361 245.68 340.201 245.52 338.661 245.88C337.581 246.14 335.881 246.17 334.471 246.34C332.991 246.55 331.301 246.39 330.071 246.86C327.431 246.48 324.991 247.49 322.371 247.39C321.551 247.33 320.651 247.33 319.781 247.3C319.351 247.29 318.861 247.23 318.491 247.27C315.031 247.59 311.531 247.8 308.011 247.68L302.741 247.58C300.981 247.56 299.231 247.54 297.491 247.47C296.631 247.44 295.801 247.51 294.941 247.52C294.531 247.52 294.061 247.52 293.661 247.47C289.841 247.06 289.851 247.14 286.271 247.07C285.371 247.04 284.401 246.91 283.471 246.85C281.061 246.69 278.721 246.39 276.201 246.4C273.681 246.4 271.031 245.59 268.471 245.1C266.191 244.64 263.971 244.22 261.471 243.85C255.141 242.93 248.931 241.22 242.951 238.94C242.201 238.65 241.201 238.18 240.751 238.11C238.911 237.76 237.301 237.3 236.001 235.97C235.941 235.91 235.351 235.6 235.201 235.57C233.621 235.21 231.841 234.15 230.341 233.24C224.451 229.91 218.731 226.5 213.291 222.64C212.411 222.03 211.141 221.32 210.691 220.86C209.721 219.91 208.931 219.98 208.011 219.28C207.241 218.7 205.921 218.19 205.281 217.69C204.711 217.22 204.071 216.88 203.421 216.51C202.771 216.16 202.111 215.78 201.411 215.55C200.721 215.29 200.031 215.05 199.351 214.83C198.641 214.65 197.941 214.51 197.281 214.36C196.661 214.22 196.031 214.09 195.411 213.95C194.791 213.81 194.151 213.75 193.541 213.64C192.301 213.44 191.111 213.18 189.991 213.02C185.581 212.16 181.071 212.43 176.581 212.95C171.951 213.47 167.281 214.33 162.541 214.95C160.591 215.17 158.501 215.27 156.721 215.75C156.361 215.85 155.471 215.88 154.851 215.9C153.371 215.95 151.901 215.8 150.441 215.86C148.971 215.94 147.521 216.02 146.031 216.07C144.831 216.09 143.721 216.06 142.481 216.15C141.571 216.24 140.011 216.02 138.621 215.73C137.241 215.45 135.851 215.04 134.351 214.74C132.851 214.43 131.261 214.18 129.491 213.9C127.931 213.66 126.351 213.47 124.791 213.12C123.231 212.78 121.671 212.44 120.121 212.11C118.831 211.77 117.621 211.42 116.181 211.23C114.881 211.08 112.851 210.28 111.401 209.7C109.151 208.68 107.031 207.88 104.741 207.11C103.951 206.85 103.031 206.47 102.211 206.07C99.6813 204.89 97.1913 203.62 94.7613 202.28C92.3213 200.96 89.9313 199.57 87.5213 198.34C86.3613 197.71 85.0913 197.26 84.2313 196.56C83.3113 196.61 82.1313 195.97 81.0713 195.75C80.6713 195.65 80.2713 195.5 79.8713 195.43L78.6613 195.23L78.0513 195.13C77.8413 195.11 77.6313 195.11 77.4213 195.1L76.1513 195.06C74.1213 195.12 72.1213 195.37 70.1213 195.97C68.2813 196.48 65.9513 196.69 63.9513 197.39C63.5713 197.52 62.7313 197.5 62.1613 197.64C59.7913 198.17 57.1713 198.35 54.9813 199.04C54.8013 199.1 54.2713 199.16 54.0513 199.16C51.2013 198.95 48.4513 199.48 45.6413 199.47C42.5813 199.53 39.8513 198.82 36.9213 198.39C35.2613 198.09 33.5713 197.82 31.9013 197.43C31.0713 197.2 30.2413 196.97 29.4313 196.74C28.6113 196.52 27.8613 196.14 27.1113 195.83C24.5313 194.74 22.1113 193.33 19.7813 191.82C18.6813 190.97 17.4913 190.23 16.4913 189.26C15.9713 188.79 15.4413 188.34 14.9413 187.86L13.5213 186.33C13.0213 185.82 12.5913 185.26 12.1613 184.69C11.7313 184.12 11.2713 183.58 10.8813 182.99C10.1113 181.8 9.30126 180.63 8.66126 179.36C7.94126 178.13 7.41126 176.81 6.83126 175.52C6.57126 174.86 6.35126 174.19 6.10126 173.52L5.75126 172.52L5.47126 171.49L4.96126 169.71L4.55126 167.91C4.23126 166.71 4.11126 165.48 3.94126 164.25C3.69126 161.48 3.81126 158.75 3.96126 156.03C4.08126 154.75 4.15126 153.47 4.30126 152.19C4.49126 150.92 4.65126 149.64 4.88126 148.37C5.14126 147.19 5.27126 145.84 5.79126 144.89C5.91126 144.7 6.12126 143.99 6.16126 143.69C6.31126 142.59 6.50126 141.51 6.90126 140.48C7.28126 139.46 7.66126 138.42 8.27126 137.46C8.60126 136.91 8.91126 136.01 9.25126 135.33C9.78126 134.41 10.2113 133.53 10.6013 132.64C11.0213 131.77 11.4713 130.93 11.9413 130.06C12.8813 128.5 14.3213 127.02 15.0713 125.53C15.1713 125.33 15.7413 124.63 15.9813 124.47C16.7513 123.94 17.4513 123.3 18.1213 122.62C18.8413 121.98 19.5213 121.29 20.2213 120.59C20.9513 119.94 21.6913 119.29 22.4513 118.7C23.2413 118.16 24.0613 117.67 24.9013 117.31C25.9513 116.23 27.4513 115.84 28.5113 115.33C29.2613 114.93 29.9913 114.5 30.7813 114.22C31.5713 113.93 32.3513 113.55 33.2013 113.36C34.0013 113.17 34.8013 112.95 35.6013 112.78C36.4113 112.63 37.2113 112.49 38.0113 112.34C40.9613 111.88 43.9513 111.93 46.9013 111.66C47.3913 111.62 48.1113 111.6 48.8413 111.64C49.5713 111.7 50.3313 111.82 50.9213 112.02C51.1313 112.09 51.7713 112.15 52.1913 112.18C55.4213 112.35 59.2313 113.46 59.8713 114.24C60.2613 114.69 60.0813 115.09 59.6613 115.36C59.4513 115.49 58.1013 115.32 57.2313 115.3C55.7313 115.25 54.2813 115.36 52.6713 115.27C50.7713 115.16 48.7013 114.93 46.2113 114.87L46.1713 114.86Z" fill="#A6843B"/>
<path d="M40 130C55.39 93 80.27 93.5 108.33 92.5C136.39 91.5 132.77 84.5 152.68 60.5C172.59 36.5 202.46 42.5 214.22 41.5C225.98 40.5 228.7 23.5 255.85 13.5C283 3.5 302.46 11 316.94 17C331.42 23 356.76 40 374.86 40C392.96 40 407.44 48 415.59 62C423.74 76 433.69 81 448.17 85C462.65 89 468.99 94 478.04 105C487.09 116 488 125 488 125" fill="white"/>
<path d="M42.8406 120.57C44.0606 117.98 46.0706 115.67 47.9206 113.05C49.7606 110.41 51.9606 107.96 54.3506 105.76C54.9706 105.22 55.5506 104.67 56.1206 104.12C56.7106 103.59 57.3006 103.06 57.8706 102.5C58.4406 101.97 59.1606 101.54 59.8406 101.08C60.5206 100.62 61.2106 100.19 61.7306 99.6101C61.8206 99.5101 62.1006 99.3601 62.3006 99.2601C65.7306 97.2701 69.4506 95.5301 73.1906 94.6401C77.5206 93.6401 81.7706 92.6601 86.1006 92.2601C93.0906 90.9301 100.231 91.1301 107.211 90.8001C109.391 90.6801 111.551 90.4902 113.781 90.6201C114.731 90.6601 115.771 90.5001 116.811 90.3801C117.861 90.2401 118.881 90.0302 119.891 90.1201C120.051 90.1301 120.421 89.9701 120.701 89.9001C121.361 89.7101 122.021 89.4101 122.661 89.3001C126.401 88.4902 126.431 88.4201 129.061 86.7401C129.351 86.5101 129.831 86.4201 130.201 86.1801C131.641 85.2101 132.951 84.0001 134.111 82.6701C135.151 81.4501 136.451 80.2801 137.031 78.7601C137.161 78.4301 137.651 77.9201 137.971 77.4901C138.991 76.0801 140.031 74.6901 141.021 73.2401C142.141 71.5901 143.521 70.0601 144.391 68.2601C144.761 67.4701 145.871 66.7401 146.111 66.2801C146.551 65.4301 147.051 64.7001 147.641 63.9801C148.221 63.2801 148.931 62.7001 149.491 62.0001C149.991 61.3901 150.331 60.6601 150.821 60.0301C152.051 58.4701 153.651 56.9501 154.821 55.5101C156.091 53.9501 157.581 52.7201 159.091 51.4701C159.881 50.8301 160.731 50.2401 161.561 49.6401C162.421 49.0901 163.261 48.5001 164.131 47.9601C164.811 47.5501 165.471 47.1801 166.141 46.8801C166.821 46.5901 167.491 46.3101 168.181 46.0201C168.871 45.7501 169.561 45.3801 170.251 45.0501C170.951 44.7301 171.661 44.5001 172.361 44.4501C172.421 44.4501 172.561 44.3701 172.671 44.3301C175.551 43.3101 178.511 42.5801 181.481 41.9701C186.611 40.9101 191.821 40.3901 197.011 40.2801C198.481 40.2501 200.021 40.0901 201.391 40.4601C201.671 40.5401 202.301 40.4301 202.681 40.4901C204.101 40.7101 205.241 40.0501 206.601 40.3901C207.811 40.6901 209.101 40.5501 210.331 40.5901C211.721 40.6101 213.141 40.5601 214.461 40.4401C215.361 40.3701 216.131 40.0801 216.761 39.6701C217.831 39.7401 218.991 38.8301 220.061 38.2901C220.791 37.9601 221.831 37.2401 222.191 36.7501C222.971 35.6501 224.011 34.8301 224.931 33.8501C226.281 32.4001 227.761 31.0301 228.961 29.4201C229.461 28.7301 230.321 27.9901 231.071 27.3501C231.761 26.7401 232.531 26.2601 233.221 25.6601C234.521 24.5601 235.801 23.4801 237.011 22.2801C238.071 21.2301 239.751 20.5001 240.751 19.3501C240.881 19.2001 241.301 18.9501 241.581 18.8201C243.041 18.1101 244.341 17.4801 245.801 16.4101C246.991 15.5501 248.731 14.8701 250.251 14.1801C251.071 13.8201 251.891 13.4601 252.711 13.1001C253.541 12.7601 254.371 12.4601 255.191 12.2001C256.251 11.9001 256.591 11.2001 257.951 11.1201C258.681 11.1001 259.951 10.5101 261.001 10.2501C262.081 9.98014 263.181 9.59014 264.221 9.40014C269.701 8.52014 275.231 7.35014 280.831 7.41014C283.181 7.40014 285.681 7.20014 287.871 7.86014C289.561 7.66014 291.561 8.18014 293.161 8.22014C294.181 8.23014 295.071 8.36014 295.971 8.57014C301.981 9.77014 307.801 11.7301 313.431 13.9401C317.121 15.3501 320.901 16.8501 324.481 18.6001C325.481 19.0901 326.491 19.5301 327.461 20.3001C328.171 20.8601 329.611 21.6101 330.791 21.8901C331.021 21.9401 331.461 22.1201 331.601 22.2401C333.341 23.7701 335.581 24.2801 337.551 25.2701C341.401 27.1901 345.011 29.3701 348.901 31.1101C349.731 31.4801 350.641 32.0401 351.431 31.9901C351.951 32.5501 352.491 32.6401 353.331 32.8301C354.211 33.0201 355.561 33.5501 356.221 34.0001C357.111 34.6301 358.071 34.8401 359.011 35.2101C360.011 35.6001 361.041 35.9201 362.061 36.2201C366.361 37.6101 370.741 38.6301 375.191 38.7401C376.111 38.7801 377.001 38.9501 377.921 39.0401C378.831 39.1401 379.841 39.0801 380.691 39.4601C381.001 39.5901 381.951 39.6001 382.601 39.7101C383.751 39.8801 384.951 40.0801 386.101 40.3701C386.681 40.5001 387.251 40.6201 387.801 40.7201C388.351 40.8401 388.891 40.9601 389.411 41.0301C389.931 41.1101 390.441 41.2201 390.961 41.3501C391.471 41.5001 391.971 41.6801 392.471 41.8501C392.971 42.0201 393.471 42.1801 393.971 42.3101C394.461 42.4701 394.941 42.6101 395.431 42.6901C395.981 42.7901 396.861 43.2701 397.561 43.6101C400.501 44.8501 403.031 46.9401 405.771 48.4301C406.121 48.9101 406.571 49.3401 407.061 49.7501C407.521 50.2001 408.021 50.6201 408.501 51.0501C409.231 51.6601 409.841 52.5801 410.631 52.9001C410.721 52.9401 410.961 53.1801 411.081 53.3401C411.821 54.2201 412.261 55.1901 413.131 56.1201C413.811 56.9301 414.481 57.5201 415.171 58.4601C415.751 59.3401 416.271 60.2501 416.791 61.1601L418.241 63.7601C418.761 64.6001 419.291 65.4401 419.851 66.2501C420.451 67.0301 421.031 67.8501 421.721 68.5701C422.211 69.5801 423.081 70.4901 423.951 71.3501C424.681 72.1601 425.571 72.7601 426.391 73.4201C427.271 74.0101 428.101 74.6701 429.001 75.3101C430.631 76.6201 432.571 77.8101 434.421 78.5701C437.631 79.8301 440.761 81.2301 444.091 82.2201C444.951 82.4701 445.931 82.6601 446.621 83.2001C446.781 83.3301 447.731 83.5701 448.021 83.5401C448.621 83.4901 449.251 83.8102 449.811 83.9001C451.441 84.1301 452.671 85.4401 454.381 85.3701C456.061 85.9701 457.741 86.6201 459.371 87.3901C461.021 88.1201 462.611 89.0001 464.151 89.9401C464.851 90.4101 465.591 90.7901 466.181 91.4701C466.561 91.9401 467.671 92.7601 468.191 93.0301C469.481 93.6201 470.461 94.6701 471.461 95.6001C474.501 98.4401 477.201 101.52 479.741 104.74C480.861 106.17 481.831 107.7 482.751 109.26C483.711 110.82 484.851 112.38 485.421 114.1C485.461 114.22 485.551 114.39 485.631 114.52C485.991 115.15 486.421 115.76 486.681 116.43C487.051 117.29 487.221 118.54 487.521 118.99C488.111 119.9 488.071 120.65 488.271 121.42C488.841 123.67 488.361 125.24 487.571 125.03C487.401 125 487.181 124.78 487.001 124.51C486.421 123.65 486.111 123.24 485.851 122.66C485.591 122.09 485.381 121.34 484.841 119.9C483.421 116.28 481.961 112.62 479.521 109.44C478.401 107.05 476.361 105.08 474.651 102.96C472.871 100.77 471.151 98.4301 468.951 96.7801C466.771 95.1401 464.691 93.5001 462.401 92.1101C460.681 91.0401 458.911 90.0101 457.041 89.1401C455.081 88.2701 452.991 87.6301 451.011 86.9001C449.781 86.4401 448.531 85.8101 447.271 85.6101C444.511 85.2201 441.881 84.0501 439.261 83.2701C435.611 82.1701 432.171 80.3601 428.901 78.4301C427.151 77.3501 425.421 76.2201 423.901 74.8101C423.551 74.4901 423.211 74.1801 422.871 73.8501C422.551 73.5101 422.241 73.1301 421.951 72.7101C421.321 71.8801 420.371 70.7301 419.341 69.9201C418.941 69.5701 418.341 68.9001 418.131 68.4901C417.271 66.7801 416.051 65.2201 415.051 63.5801C414.401 62.5201 414.001 61.2901 413.511 60.7601C412.721 59.8801 412.111 59.0001 411.471 58.1201C410.991 57.5001 410.321 56.9201 410.111 56.1801C410.051 55.9901 409.591 55.3701 409.371 55.2701C408.171 54.5901 407.301 53.3601 406.221 52.4501C403.681 50.2101 400.881 48.2601 397.901 46.6501C395.421 45.3001 392.751 44.7401 390.131 43.7101C389.241 43.6701 388.361 43.4901 387.481 43.2501C386.581 43.0501 385.681 42.8401 384.791 42.6401C384.111 42.4801 383.421 42.3901 382.741 42.2301C382.061 42.0901 381.381 41.9101 380.681 41.8301C379.291 41.6301 377.931 41.5701 376.441 41.3901C375.981 41.3201 375.501 41.2801 375.011 41.2501C374.491 41.2201 373.951 41.1901 373.411 41.1601C372.321 41.1101 371.191 41.1301 370.151 40.9101C369.021 40.6901 367.671 40.7901 366.741 40.1501C366.611 40.0701 366.091 39.9601 365.891 39.9601C365.111 39.9801 364.251 39.8701 363.441 39.6601C362.641 39.4201 361.881 39.1301 361.261 38.8601C360.241 38.4401 359.241 38.0701 358.251 37.6901C357.261 37.3201 356.241 37.0201 355.271 36.5901C353.651 35.9001 351.971 35.3201 350.391 34.5601C349.251 34.0301 348.071 33.6301 346.951 32.9001C346.091 32.3501 344.781 31.9901 343.691 31.4901C342.601 30.9801 341.521 30.4301 340.441 29.9001L336.921 28.1201L333.421 26.3101C332.161 25.6601 330.881 25.0201 329.641 24.3401C328.471 23.6901 327.371 22.9501 326.201 22.3201C322.881 20.5801 319.431 19.3401 316.051 17.7701C315.001 17.6501 314.171 17.0801 313.211 16.6401C312.321 16.2401 311.311 15.6901 310.291 15.6301C310.011 15.6101 309.531 15.4201 309.141 15.2901C308.281 15.0101 307.641 14.4801 306.561 14.3401C305.801 14.2401 304.761 13.7101 303.821 13.4701C302.841 13.2201 301.811 12.6501 300.891 12.8001C300.111 12.3101 299.241 12.1601 298.381 12.0501C297.511 11.9501 296.641 11.9301 295.801 11.6201C295.271 11.4301 294.691 11.2501 294.121 11.1201C293.841 11.0501 293.521 10.9301 293.271 10.9101C288.581 10.6101 283.851 9.89014 279.121 10.2001C278.541 10.2601 277.991 10.4101 277.421 10.5001C277.151 10.5401 276.841 10.5801 276.561 10.5801C275.911 10.5801 275.431 10.5801 275.031 10.5801C274.631 10.6001 274.321 10.6401 274.011 10.6801C273.391 10.7701 272.801 10.9001 271.631 11.1601C271.041 11.2801 270.381 11.3401 269.771 11.5001C268.981 11.6901 268.191 11.8401 267.401 12.0101C266.611 12.1701 265.811 12.3701 265.031 12.7201C263.471 13.4001 261.571 13.3901 259.861 13.8301C258.341 14.2001 256.791 14.4501 255.211 15.1101C251.211 16.6801 247.321 18.5401 243.671 20.7701C243.221 21.0501 242.551 21.3901 242.351 21.6301C241.541 22.6401 240.811 23.4601 239.481 23.6001C239.421 23.6001 239.061 23.8701 239.001 23.9601C238.411 24.9301 237.221 25.6101 236.301 26.3601C232.771 29.2401 230.071 32.8201 226.661 36.0601C226.111 36.5801 225.431 37.3801 225.011 37.6001C224.111 38.0401 224.081 38.7101 223.351 39.1801C222.761 39.5801 221.991 40.3701 221.401 40.6101C219.341 41.5401 217.011 42.6401 214.831 43.0001C212.871 43.3501 210.981 43.4701 209.331 43.3201C206.091 43.0001 202.931 43.0301 199.771 43.0201C196.531 43.0001 193.291 43.1301 190.091 43.4801C188.781 43.6101 187.361 43.6201 186.211 44.1701C185.981 44.2801 185.391 44.3301 184.981 44.3701C184.001 44.4801 183.011 44.5101 182.061 44.7201C181.101 44.9301 180.191 45.2901 179.261 45.6101C178.511 45.8501 177.781 46.0201 177.071 46.4501C176.541 46.7501 175.531 46.9801 174.591 47.1101C173.651 47.2201 172.701 47.4301 171.701 47.6701C170.721 47.9801 169.671 48.3101 168.641 48.9201C166.761 49.9201 164.921 51.0201 163.161 52.2301C162.451 52.7701 161.731 53.2301 161.101 53.9801C160.551 54.6701 159.371 55.4901 158.541 56.1301C157.181 57.0801 156.091 58.1701 155.171 59.5001C154.861 59.9701 154.431 60.4701 154.021 60.9301C152.811 62.3701 151.631 63.8801 150.441 65.3501L146.971 69.8801C146.431 70.6201 145.911 71.4501 145.241 71.8801C145.151 72.5601 144.491 73.2701 144.011 73.9101C143.261 74.8902 142.451 75.7801 141.701 76.7601C140.811 77.9301 140.011 79.1101 139.271 80.4001C138.621 81.6101 137.311 82.6901 136.571 84.0201C136.421 84.2701 135.861 84.5601 135.591 84.8801C135.021 85.5301 134.371 86.1501 133.661 86.7001C132.971 87.2701 132.361 87.8901 131.781 88.5101C131.691 88.6201 131.371 88.8301 131.221 88.8901C130.271 89.3101 129.351 89.7101 128.471 90.2001C127.611 90.7401 126.691 91.1201 125.781 91.5301C124.781 92.0101 123.751 92.1401 122.751 92.3201C122.251 92.4001 121.741 92.5001 121.241 92.5601C120.741 92.6101 120.231 92.6701 119.721 92.7501C118.561 92.9501 117.381 93.1801 116.211 93.2801C115.041 93.4001 113.881 93.5401 112.781 93.5001C108.971 93.4201 105.251 93.6801 101.521 93.7801C97.7106 93.8901 93.9006 94.0601 90.1206 94.4301C88.4806 94.5901 86.8706 94.9201 85.2506 95.1701C83.4506 95.4501 81.6306 95.7001 79.8406 96.0701C78.1506 96.3901 76.4906 96.8201 74.8406 97.2701C74.0606 97.4601 73.2706 97.8901 72.5106 97.8201C72.3506 97.8101 71.8806 97.9401 71.7106 98.0601C71.0806 98.4701 70.4306 98.7701 69.7606 99.0401C69.1006 99.3201 68.4006 99.5301 67.6606 99.7001C67.2506 99.8101 66.7206 100.15 66.2506 100.33C65.5906 100.57 65.0406 100.94 64.5106 101.3C63.9806 101.66 63.4806 102.04 62.9706 102.43C61.9906 103.1 60.7306 103.65 60.1306 104.6C60.0406 104.72 59.5906 105.08 59.4106 105.15C58.8406 105.38 58.3106 105.71 57.8306 106.1C57.3606 106.52 56.9306 106.99 56.4906 107.45C56.0506 107.91 55.6606 108.42 55.2206 108.86C54.7906 109.31 54.3106 109.69 53.8006 110.03C53.4806 111.02 52.4406 111.4 52.0306 112.04C51.4106 112.94 50.8106 113.8 50.1606 114.74L49.2106 116.02C48.9106 116.46 48.6206 116.91 48.3406 117.36C48.0806 117.77 47.8106 118.18 47.5406 118.58L46.7806 119.84C46.2706 120.68 45.8106 121.54 45.5106 122.49C45.3106 123.12 44.7706 124.21 44.1506 124.79C44.0406 124.89 43.8606 125.28 43.7506 125.54C42.8906 127.5 41.5806 129.78 40.7906 130.05C40.3406 130.21 39.9606 130.01 39.7206 129.64C39.6006 129.46 39.8806 128.53 40.0106 127.92C40.2206 126.86 40.3406 125.8 40.7806 124.73C41.0306 124.09 41.3406 123.44 41.6806 122.75C42.0506 122.07 42.4506 121.35 42.8906 120.56L42.8406 120.57Z" fill="#A6843B"/>
<path d="M36.1681 174.61C35.6781 174.58 34.2081 174.8 33.7081 174.82C32.9781 174.84 31.9781 174.89 31.2481 174.9C29.1781 174.93 28.1881 174.98 26.1181 175.02C25.1381 175.04 22.2981 175.52 21.2281 175.09C20.3081 174.72 21.1781 174.47 20.3781 174.05C20.1681 173.94 20.5281 173.26 20.9481 173.1C21.8581 172.76 22.9681 172.39 24.0081 172.37C26.2181 172.33 28.2881 172.7 30.5081 172.79C32.7681 172.88 35.1081 173.02 37.3481 173.18C37.9581 173.22 39.0481 173.45 39.0381 173.54C38.9981 174.07 38.8881 174.3 37.8181 174.37C37.6281 174.38 36.3381 174.62 36.1481 174.61H36.1681Z" fill="#B09151"/>
<path d="M69.2573 115.88C66.9273 115.86 65.0073 115.74 64.2373 115.43C63.3673 115.08 63.2473 114.39 64.2373 114.11C66.2973 113.54 69.0573 112.87 71.9773 112.74C75.5573 112.57 79.5873 112.92 83.4273 113.02C84.7473 113.06 86.0873 113.05 87.4173 113.06C90.2873 113.09 95.3673 113.42 98.3173 113.79C100.427 114.06 107.327 114.2 109.937 114.27C110.257 114.27 110.817 114.33 110.837 114.37C111.217 115.1 112.607 114.79 110.017 115.4C109.707 115.47 102.287 115.79 101.747 115.78C95.4373 115.72 88.7073 115.58 82.2273 115.58C79.8073 115.58 73.7573 115.9 69.2573 115.86V115.88Z" fill="#B09151"/>
<path d="M26.5487 146.04C29.5687 145.91 36.3687 146.1 32.4688 144.66C29.1388 143.43 25.0087 143.38 20.9187 143.46C18.5087 143.51 15.6688 143.46 14.4688 144.39C14.4887 145.72 18.2888 146.58 21.6088 146.36C23.2587 146.25 24.8887 146.12 26.5587 146.05L26.5487 146.04Z" fill="#B09151"/>
<path d="M48.9997 184.71C48.9997 184.98 48.7097 185.18 48.1497 185.33C46.8997 185.66 45.2197 185.5 43.8897 185.51C41.8197 185.52 39.6197 185.79 37.5497 185.82C37.2397 185.82 36.8997 185.92 36.6297 186.05C35.7597 186.45 34.5097 185.79 33.9597 185.25C32.5397 183.88 33.8597 183.18 34.7997 182.82C35.0497 182.72 36.0097 182.62 36.6297 182.68C38.0997 182.83 39.7297 182.76 41.1897 182.94C43.3997 183.21 45.6397 183.37 47.8297 183.73C48.3297 183.81 48.6397 184 48.8097 184.24C48.8997 184.37 48.9897 184.59 48.9897 184.7L48.9997 184.71Z" fill="#B09151"/>
<path d="M143.998 103.72C143.988 103.99 143.388 104.19 142.228 104.34C139.618 104.67 136.118 104.51 133.348 104.52C129.028 104.53 124.438 104.8 120.118 104.83C119.468 104.83 118.758 104.93 118.188 105.06C116.378 105.46 113.778 104.8 112.628 104.26C109.668 102.89 112.418 102.19 114.388 101.83C114.918 101.73 116.918 101.63 118.208 101.69C121.278 101.84 124.668 101.77 127.728 101.95C132.338 102.22 137.008 102.38 141.568 102.74C142.598 102.82 143.248 103.01 143.618 103.25C143.818 103.38 143.998 103.6 143.988 103.71L143.998 103.72Z" fill="#B09151"/>
<path d="M44.7993 160C44.7893 160.27 44.2293 160.47 43.1493 160.62C40.7093 160.95 37.4393 160.79 34.8393 160.8C30.7993 160.81 26.5093 161.08 22.4693 161.11C21.8593 161.11 21.1993 161.21 20.6693 161.34C18.9793 161.74 16.5393 161.08 15.4693 160.54C12.6993 159.17 15.2793 158.47 17.1193 158.11C17.6093 158.01 19.4893 157.91 20.6993 157.97C23.5693 158.12 26.7393 158.05 29.5993 158.23C33.9193 158.5 38.2793 158.66 42.5393 159.02C43.5093 159.1 44.1193 159.29 44.4493 159.53C44.6293 159.66 44.7993 159.88 44.7993 159.99V160Z" fill="#B09151"/>
<path d="M493.368 165.25C493.678 165.25 493.998 165.25 494.308 165.25C495.288 165.25 496.248 165.16 497.238 165.16C500.398 165.16 503.568 165.09 506.728 165.08C509.668 165.08 512.628 165.08 515.548 165.17C516.078 165.19 516.878 165.65 516.798 165.88C516.648 166.27 516.188 166.83 515.308 166.96C513.968 167.17 512.148 167.13 510.558 167.1C505.528 167 503.318 166.75 498.298 166.65C496.918 166.62 492.908 166.43 491.518 166.41C490.478 166.39 489.558 166.39 488.528 166.31C488.398 166.31 487.838 166.14 487.838 166.13C487.998 165.7 487.608 165.99 488.078 165.59C488.358 165.35 490.418 165.33 490.968 165.3C491.768 165.26 492.568 165.24 493.368 165.24V165.25Z" fill="#B09151"/>
<path d="M512.819 146.4C514.679 147.14 517.989 147 519.949 146.84C519.989 146.84 520.829 146.84 520.979 146.74C521.609 146.37 522.889 145.83 522.369 145.63C521.229 145.2 519.209 144.69 517.419 144.65C515.219 144.6 510.069 144.44 510.359 145.81C510.409 146.04 512.439 146.24 512.829 146.39L512.819 146.4Z" fill="#B09151"/>
<path d="M504.969 176.72C503.099 176.81 498.889 176.68 501.309 177.73C503.369 178.63 505.929 178.67 508.459 178.61C509.949 178.58 511.709 178.61 512.449 177.93C512.439 176.95 510.079 176.33 508.029 176.49C507.009 176.57 505.999 176.67 504.969 176.72Z" fill="#B09151"/>
<path d="M349.35 56.3401C349.36 56.1201 349.84 55.9501 350.78 55.8301C352.91 55.5601 355.75 55.6901 358 55.6801C361.51 55.6701 365.24 55.4501 368.75 55.4201C369.28 55.4201 369.86 55.3301 370.32 55.2301C371.79 54.9001 373.91 55.4501 374.84 55.8901C377.24 57.0401 375.01 57.6101 373.41 57.9101C372.98 57.9901 371.35 58.0801 370.3 58.0201C367.8 57.9001 365.05 57.9501 362.56 57.8101C358.81 57.5901 355.01 57.4601 351.31 57.1501C350.47 57.0801 349.94 56.9301 349.64 56.7201C349.48 56.6101 349.34 56.4301 349.34 56.3301L349.35 56.3401Z" fill="#B09151"/>
<path d="M418.197 199.55C420.487 199.41 424.317 199.31 425.937 199.21C427.507 199.11 429.087 198.93 430.657 198.95C431.427 198.96 432.277 199.3 432.877 199.58C433.057 199.67 432.527 200.05 432.317 200.29C431.417 201.32 429.457 200.95 427.757 200.96C425.957 200.96 421.167 200.63 419.377 200.67C417.277 200.72 417.017 200.51 417.787 199.65C417.897 199.53 418.437 199.48 418.197 199.54V199.55Z" fill="#B09151"/>
<path d="M502.23 156.52C502.23 156.34 502.57 156.21 503.22 156.11C504.69 155.89 506.66 156 508.22 155.99C510.65 155.99 513.24 155.81 515.67 155.79C516.04 155.79 516.44 155.72 516.76 155.64C517.78 155.38 519.25 155.81 519.89 156.16C521.56 157.07 520.01 157.52 518.9 157.76C518.6 157.82 517.47 157.89 516.75 157.85C515.02 157.75 513.11 157.8 511.39 157.68C508.79 157.51 506.16 157.4 503.59 157.16C503.01 157.11 502.64 156.98 502.44 156.82C502.33 156.73 502.23 156.59 502.23 156.51V156.52Z" fill="#B09151"/>
<path d="M377.61 206.7C377.93 206.7 378.24 206.7 378.56 206.7C379.56 206.7 380.53 206.59 381.53 206.59C384.74 206.59 387.95 206.5 391.17 206.5C394.16 206.5 397.16 206.5 400.12 206.61C400.66 206.63 401.47 207.19 401.38 207.48C401.23 207.95 400.76 208.63 399.87 208.8C398.51 209.05 396.67 209.01 395.05 208.97C389.95 208.85 387.7 208.55 382.6 208.42C381.2 208.39 377.13 208.15 375.72 208.13C374.67 208.11 373.73 208.1 372.69 208.01C372.56 208 371.99 207.81 371.99 207.79C372.15 207.27 371.76 207.62 372.23 207.14C372.51 206.85 374.61 206.82 375.16 206.79C375.97 206.74 376.78 206.72 377.6 206.71L377.61 206.7Z" fill="#B09151"/>
<path d="M385.882 57.6601C388.222 58.5601 392.412 58.3901 394.892 58.1901C394.942 58.1901 395.992 58.1801 396.192 58.0701C396.992 57.6201 398.602 56.9601 397.942 56.7201C396.502 56.1901 393.952 55.5801 391.692 55.5301C388.912 55.4701 382.412 55.2701 382.772 56.9401C382.832 57.2201 385.402 57.4701 385.882 57.6501V57.6601Z" fill="#B09151"/>
<path d="M388.111 67.9999C388.671 68.0299 390.361 67.8299 390.931 67.8199C391.771 67.7999 392.911 67.7499 393.751 67.7499C396.131 67.7199 397.261 67.6799 399.631 67.6399C400.751 67.6199 404.011 67.1899 405.241 67.5799C406.291 67.9099 405.301 68.1299 406.221 68.5099C406.461 68.6099 406.051 69.2099 405.561 69.3599C404.521 69.6699 403.251 69.9999 402.041 70.0099C399.501 70.0399 397.131 69.7199 394.581 69.6299C391.991 69.5499 389.301 69.4299 386.731 69.2799C386.031 69.2399 384.781 69.0399 384.781 68.9599C384.821 68.4899 384.961 68.2799 386.171 68.2199C386.381 68.2099 387.871 67.9999 388.081 68.0099L388.111 67.9999Z" fill="#B09151"/>
<path d="M491.312 176.16C492.752 176.17 493.942 176.26 494.422 176.48C494.962 176.72 495.042 177.22 494.422 177.42C493.152 177.83 491.442 178.29 489.632 178.39C487.422 178.51 484.922 178.26 482.542 178.19C481.722 178.16 480.902 178.17 480.072 178.16C478.302 178.14 475.152 177.91 473.322 177.64C472.022 177.45 467.742 177.35 466.132 177.3C465.932 177.3 465.582 177.26 465.572 177.23C465.342 176.72 464.482 176.94 466.072 176.5C466.262 176.45 470.862 176.23 471.192 176.23C475.102 176.28 479.262 176.37 483.272 176.37C484.772 176.37 488.512 176.14 491.302 176.17L491.312 176.16Z" fill="#B09151"/>
<path d="M409.578 207.07C407.708 207.16 403.498 207.03 405.918 208.05C407.978 208.92 410.538 208.96 413.068 208.9C414.558 208.87 416.318 208.9 417.058 208.24C417.048 207.3 414.688 206.69 412.638 206.85C411.618 206.93 410.608 207.02 409.578 207.07Z" fill="#B09151"/>
<path d="M470.031 188.4C470.041 188.23 470.491 188.1 471.381 188.01C473.381 187.8 476.051 187.9 478.181 187.89C481.481 187.89 484.991 187.71 488.301 187.69C488.801 187.69 489.341 187.62 489.781 187.54C491.161 187.29 493.151 187.71 494.031 188.05C496.291 188.93 494.191 189.37 492.681 189.6C492.271 189.66 490.741 189.73 489.751 189.69C487.401 189.6 484.811 189.64 482.471 189.53C478.941 189.36 475.371 189.26 471.891 189.03C471.101 188.98 470.601 188.86 470.321 188.7C470.171 188.61 470.031 188.48 470.041 188.4H470.031Z" fill="#B09151"/>
<path d="M405.19 87.9199C409.82 87.7799 417.58 87.6899 420.86 87.5899C424.05 87.4999 427.25 87.3199 430.42 87.3399C431.99 87.3399 433.71 87.6799 434.92 87.9499C435.29 88.0299 434.22 88.3999 433.79 88.6399C431.97 89.6399 428 89.2799 424.56 89.2799C420.92 89.2799 411.21 88.9599 407.58 88.9999C403.32 89.0499 402.79 88.8399 404.36 88.0199C404.58 87.8999 405.67 87.8599 405.18 87.9099L405.19 87.9199Z" fill="#B09151"/>
<path d="M393.492 78.9102C393.492 78.6902 393.922 78.5302 394.752 78.4102C396.612 78.1502 399.092 78.2702 401.072 78.2702C404.142 78.2702 407.412 78.0502 410.482 78.0202C410.942 78.0202 411.452 77.9402 411.852 77.8402C413.142 77.5202 414.992 78.0502 415.802 78.4802C417.912 79.5902 415.952 80.1402 414.552 80.4302C414.172 80.5102 412.752 80.5902 411.832 80.5402C409.652 80.4202 407.242 80.4802 405.062 80.3302C401.782 80.1202 398.462 79.9902 395.222 79.6902C394.482 79.6202 394.022 79.4802 393.762 79.2802C393.622 79.1702 393.492 79.0002 393.502 78.9102H393.492Z" fill="#B09151"/>
</svg>
