<svg width="260" height="128" viewBox="0 0 260 128" fill="none" xmlns="http://www.w3.org/2000/svg">
<path d="M227.923 58.6601C227.923 58.6601 237.093 56.3601 243.133 59.6101C249.313 62.9401 254.063 69.4901 254.063 80.5201C254.063 87.6501 249.873 98.7001 241.003 100.75C229.683 103.36 226.623 97.7301 220.973 98.1401C208.783 99.0101 211.123 109.11 195.723 111.2C178.903 113.48 172.803 101.91 161.553 105.43C154.153 107.74 147.003 121.01 114.003 123.01C78.843 125.14 73.663 117.32 59.223 110.94C55.423 109.26 39.113 98.5801 28.333 99.0601C15.533 99.6301 4.21296 89.6601 5.04296 76.2501C5.99296 61.0401 14.043 53.0801 30.003 56.0101" fill="white"/>
<path d="M234.482 56.3502C236.512 56.1502 238.652 56.8302 240.902 57.3602C241.472 57.5002 242.042 57.6902 242.592 57.9002C243.132 58.1502 243.712 58.3902 244.192 58.7002C245.202 59.2602 246.142 59.9602 247.052 60.6802C247.512 61.0502 247.932 61.4302 248.382 61.7802C248.812 62.1502 249.252 62.5202 249.682 62.8902C250.532 63.6402 251.032 64.8402 251.942 65.5202C252.022 65.5802 252.112 65.7902 252.202 65.9302C253.692 68.3602 254.802 71.1202 255.122 73.8202C255.322 75.3902 255.452 76.9302 255.552 78.4702C255.562 79.2402 255.612 79.9902 255.602 80.7802L255.552 81.9702L255.412 83.1402C255.372 85.7102 254.732 88.2302 253.742 90.6102C252.742 92.9902 251.382 95.2302 249.682 97.2502C249.182 97.9102 248.552 98.4702 247.952 99.0602C247.262 99.5602 246.602 100.11 245.762 100.4C244.452 101.01 242.882 102.06 241.282 102.02C241.162 102.01 240.902 102.16 240.692 102.22C240.202 102.37 239.692 102.59 239.212 102.64C237.742 102.7 237.022 102.72 236.342 102.72C235.672 102.76 235.062 102.81 233.812 102.87C233.512 102.87 233.172 102.63 232.842 102.59C231.492 102.4 230.152 102.05 228.882 101.66C227.732 101.32 226.672 100.59 225.532 100.6C225.282 100.6 224.882 100.37 224.542 100.24C223.492 99.8702 222.502 99.6202 221.522 99.6702C220.402 99.7502 218.962 99.7502 217.942 100.43C217.702 100.55 217.392 100.59 217.102 100.64C216.812 100.68 216.532 100.69 216.402 100.79C215.932 101.14 215.542 101.49 215.032 101.7C214.572 101.99 214.022 102.14 213.582 102.5C213.202 102.83 212.952 103.26 212.592 103.65C211.702 104.54 210.562 105.48 209.782 106.51C208.912 107.62 207.832 108.5 206.662 109.32C206.042 109.74 205.422 110.17 204.742 110.48C204.072 110.82 203.412 111.18 202.732 111.44C202.202 111.66 201.682 111.85 201.162 111.96C200.642 112.05 200.122 112.13 199.602 112.22C199.342 112.27 199.082 112.34 198.822 112.42L198.032 112.59C197.502 112.69 196.982 112.75 196.482 112.62C196.442 112.61 196.332 112.65 196.252 112.66C195.192 112.78 194.122 112.78 193.062 112.84C192.002 112.85 190.932 112.77 189.862 112.77C186.172 112.58 182.542 111.66 179.182 110.33C178.222 109.96 177.192 109.68 176.462 108.99C176.312 108.85 175.872 108.78 175.662 108.63C174.842 108.06 173.872 108.38 173.142 107.75C172.482 107.16 171.622 107.05 170.842 106.73C169.962 106.45 169.052 106.19 168.152 106.05C167.842 105.99 167.542 105.94 167.262 105.94C166.972 105.96 166.702 106.02 166.442 106.1C166.112 105.9 165.692 105.78 165.262 105.84C164.832 105.87 164.392 105.94 163.982 105.88C163.432 105.81 162.592 105.94 162.242 106.15C161.842 106.37 161.482 106.6 161.102 106.75C160.712 106.89 160.322 107.07 159.952 107.3C158.852 107.94 157.662 108.64 156.742 109.65C156.352 110.07 155.682 110.47 155.122 110.83C154.602 111.17 154.002 111.38 153.482 111.73C152.522 112.38 151.552 113.01 150.702 113.83C149.942 114.53 148.682 114.83 148.022 115.72C147.932 115.83 147.622 115.97 147.422 116.04C146.342 116.39 145.452 116.81 144.422 117.53C143.592 118.11 142.382 118.56 141.292 118.95C140.142 119.37 139.012 119.98 137.832 120.2C137.082 120.36 136.892 121.02 135.922 120.96C135.402 120.93 134.522 121.32 133.792 121.47C133.052 121.65 132.292 121.93 131.562 122.02C130.612 122.16 129.662 122.3 128.712 122.43C127.762 122.58 126.822 122.76 125.892 122.96C124.012 123.29 122.112 123.57 120.212 123.77C118.612 123.86 116.952 124.34 115.392 123.97C114.292 124.46 112.882 124.19 111.812 124.5C111.132 124.69 110.532 124.7 109.902 124.74C105.742 124.95 101.562 124.91 97.3818 124.8L93.2418 124.62C91.8618 124.57 90.4718 124.4 89.0918 124.28C88.3118 124.22 87.5518 124.1 86.7518 123.73C86.1718 123.44 85.0518 123.27 84.1818 123.36C84.0118 123.38 83.6718 123.36 83.5618 123.28C82.8518 122.83 82.0818 122.66 81.3018 122.54C80.5318 122.39 79.7318 122.31 78.9718 122.09C76.0218 121.19 73.3718 119.72 70.6718 118.43C70.0918 118.15 69.5118 117.67 68.9018 117.77C68.6018 117.27 68.2018 117.24 67.6118 117.08C67.0018 116.92 66.0918 116.46 65.6918 116.05C65.1518 115.5 64.5118 115.26 63.9118 114.91C63.2618 114.54 62.5818 114.25 61.9318 113.9C61.2418 113.52 60.5418 113.19 59.8418 112.84L58.7918 112.32L57.6618 111.74C56.2318 110.95 54.8918 110.13 53.5218 109.33C52.9918 109.02 52.5318 108.61 52.0218 108.26C51.5018 107.91 50.8318 107.75 50.4618 107.2C50.3218 106.99 49.7218 106.78 49.3218 106.58C47.9318 105.86 46.4918 104.93 45.1118 104.57C43.7618 104.2 42.5118 103.34 41.1618 103.27C40.7818 103.26 40.2218 102.9 39.7318 102.74C38.7518 102.4 37.7718 102.05 36.7918 101.69C35.8018 101.42 34.8018 101.1 33.7818 101.17C33.1418 100.72 32.2718 100.58 31.4718 100.54C30.8818 100.48 30.2018 100.21 29.7118 100.58C29.6518 100.62 29.4518 100.62 29.3318 100.6C28.9818 100.55 28.6618 100.47 28.2918 100.41C27.8918 100.35 27.4918 100.31 27.0418 100.34C26.6718 100.36 26.3218 100.43 25.9718 100.48C25.6218 100.52 25.2518 100.52 24.8418 100.48C21.8518 100.17 19.1318 98.9802 16.4118 97.8202C15.8318 97.1602 14.9818 96.8102 14.2318 96.3002C12.9018 95.4102 11.4918 94.7402 10.3418 93.5002C9.27181 92.3302 8.29181 90.9802 7.31181 89.8402C5.56181 87.8602 4.76181 85.2902 4.10181 82.8102C3.96181 82.1602 3.61181 81.4502 3.91181 80.8002C3.97181 80.6502 3.86181 79.9402 3.74181 79.7502C3.49181 79.3502 3.54181 78.8402 3.49181 78.4402C3.28181 77.2602 4.11181 76.1502 3.62181 75.0202C3.68181 74.4002 3.73181 73.7802 3.81181 73.1602L4.12181 71.3002C4.20181 70.6802 4.36181 70.0702 4.52181 69.4502C4.69181 68.8402 4.79181 68.2202 5.03181 67.6202C5.23181 67.0602 5.35181 66.4902 5.76181 65.9902C6.03181 65.6502 6.49181 64.8002 6.53181 64.3602C6.60181 63.3102 7.34181 62.5302 7.82181 61.6702C9.48181 59.1502 11.8818 57.0202 14.6718 55.7702C15.2918 55.5202 15.9218 55.3202 16.5518 55.1302C17.1818 54.9302 17.8418 54.8802 18.4718 54.7402C19.1118 54.5902 19.7618 54.4702 20.4218 54.3802C21.0718 54.2902 21.7318 54.1902 22.3718 54.3502C22.4618 54.3702 22.5918 54.3502 22.7018 54.3402C23.2018 54.2802 23.7218 54.1602 24.2218 54.1602C24.8718 54.1902 25.7018 54.5502 26.0818 54.4402C26.8318 54.2402 27.2818 54.5302 27.8218 54.6502C29.3818 54.9602 30.2218 55.7202 29.9018 56.4402C29.8318 56.6002 29.6218 56.7602 29.3918 56.8502C28.6518 57.1602 28.3018 57.3102 27.8618 57.3402C27.4218 57.3702 26.8918 57.2802 25.8418 57.2602C24.5118 57.1602 23.2218 57.1202 21.9118 57.0802C21.2718 57.1202 20.6218 57.1702 19.9718 57.2302C19.3318 57.3302 18.7118 57.5202 18.0918 57.7102C16.3518 57.8202 14.7618 58.8002 13.3918 59.8102C12.6018 60.2602 11.9318 60.8902 11.2118 61.4702C10.6118 62.1702 9.94181 62.8302 9.62181 63.7002C9.45181 64.1202 9.23181 64.5102 9.05181 64.9202C8.89181 65.3402 8.72181 65.7502 8.54181 66.1602L8.27181 66.7702L8.05181 67.4102L7.60181 68.6802C7.23181 70.0002 6.73181 71.3002 6.50181 72.6902C6.34181 73.4002 6.29181 74.1402 6.23181 74.8702C6.18181 75.6002 6.07181 76.3302 6.04181 77.0302C5.96181 77.8902 5.66181 78.8402 5.95181 79.6502C6.09181 80.0902 6.18181 80.5402 6.25181 80.9802C6.37181 81.4202 6.47181 81.8602 6.57181 82.3002C6.71181 83.2002 7.05181 84.0402 7.40181 84.8502C8.53181 87.0102 9.69181 89.1802 11.4218 90.8502C12.3418 91.7502 13.3718 92.5002 14.3718 93.3002C14.8518 93.6402 15.3118 93.9402 15.7418 94.4502C16.2118 94.9102 17.0518 95.4002 17.8718 95.5402C18.2218 95.5802 18.7518 95.7302 18.9818 95.9202C19.4418 96.3402 20.0118 96.5802 20.6018 96.7602C21.1918 96.9602 21.7918 97.1202 22.3918 97.2102C23.1418 97.3702 23.9518 97.8802 24.4418 97.7702C25.2518 97.6102 25.9418 97.8402 26.6818 97.7802C27.2018 97.7602 27.7918 97.6602 28.2718 97.9702C28.4118 98.0502 28.9818 98.0802 29.1518 98.0202C29.6418 97.8402 30.1918 97.7702 30.7218 97.8202C31.2518 97.9002 31.7918 97.9802 32.3118 98.0502C34.8018 98.4202 37.2118 99.0702 39.5118 99.9302C40.4718 100.27 41.4218 100.56 42.3818 100.83C43.3218 101.15 44.2818 101.46 45.1718 101.97C46.4618 102.12 47.6418 102.87 48.8118 103.46C49.7118 103.91 50.5318 104.5 51.3918 105.02C52.2318 105.56 53.1318 105.95 53.9718 106.61C55.0118 107.42 56.4418 108 57.6618 108.71C58.3318 109.1 59.1618 109.29 59.5818 109.9C59.6318 109.98 59.9818 110.13 60.1118 110.14C61.2118 110.22 62.3718 110.85 63.1118 111.41C64.3418 112.3 65.6618 112.86 66.9318 113.57C67.9818 114.15 69.0618 114.68 70.1118 115.25C70.8618 115.65 71.6418 115.98 72.3718 116.5C72.9418 116.9 73.8418 117.12 74.5918 117.4C75.3518 117.68 76.0818 118.04 76.8418 118.33C77.6718 118.63 78.5018 118.94 79.3318 119.22L81.8718 119.98C82.8018 120.22 83.7518 120.4 84.6618 120.66C85.5318 120.92 86.3918 121.18 87.2818 121.37C88.5218 121.64 89.8018 121.68 91.0618 121.75L92.9518 121.87C93.5918 121.9 94.2218 121.94 94.8618 122.03C95.5718 121.79 96.2318 122.05 96.9518 122.15C97.6118 122.24 98.3918 122.37 99.0718 122.09C99.2618 122.01 99.6118 122.04 99.8918 122.03C100.512 122 101.042 122.29 101.782 122.11C102.302 121.99 103.102 122.1 103.762 122.06C104.462 122.02 105.252 122.22 105.842 121.84C107.082 122.38 108.232 121.52 109.462 121.7C109.852 121.76 110.272 121.77 110.682 121.81C110.882 121.83 111.122 121.89 111.292 121.85C112.102 121.69 112.922 121.58 113.732 121.51C114.552 121.42 115.362 121.34 116.182 121.28C117.812 121.14 119.482 121.14 121.082 120.81C121.482 120.74 121.842 120.58 122.232 120.47C122.422 120.42 122.632 120.38 122.822 120.37C124.622 120.31 124.622 120.35 126.222 119.82C126.622 119.69 127.072 119.65 127.502 119.54C128.592 119.27 129.692 119.18 130.752 118.64C131.812 118.12 133.142 118.25 134.342 118.06C135.402 117.88 136.462 117.73 137.582 117.36C140.322 116.29 143.062 115.22 145.642 113.8C145.962 113.63 146.452 113.46 146.592 113.28C147.132 112.51 147.612 111.9 148.662 112.07C148.712 112.07 148.972 111.92 149.012 111.85C149.392 111.1 150.292 110.76 150.982 110.32C153.632 108.63 155.682 106.26 158.882 104.69C159.362 104.42 160.112 104.04 160.482 104.03C161.262 104.01 161.452 103.54 162.092 103.48C162.612 103.46 163.322 103.07 163.792 103.18C164.612 103.34 165.432 103.26 166.242 103.35C166.642 103.37 167.052 103.37 167.442 103.37C167.832 103.37 168.212 103.43 168.572 103.45L169.602 103.53C169.942 103.58 170.262 103.65 170.592 103.72C171.252 103.85 171.872 104.04 172.392 104.32C174.482 105.35 176.532 106.18 178.512 107.03C180.552 107.89 182.592 108.68 184.682 109.14C185.522 109.37 186.442 109.65 187.282 109.45C187.452 109.42 187.832 109.49 188.102 109.54C188.742 109.66 189.372 109.88 190.032 109.93C190.692 109.93 191.342 109.78 191.992 109.73C192.522 109.71 193.022 109.7 193.542 109.45C193.922 109.27 194.622 109.33 195.272 109.47C195.912 109.59 196.572 109.65 197.282 109.68C197.992 109.73 198.722 109.6 199.492 109.35C199.832 109.23 200.182 109.15 200.512 109.03L201.512 108.64C202.192 108.41 202.822 108.08 203.442 107.74C203.982 107.49 204.442 107.16 204.872 106.67C205.262 106.24 206.022 105.68 206.642 105.33C207.602 104.74 208.372 104.03 209.002 103.06C209.222 102.73 209.542 102.4 209.862 102.08C210.822 101.13 211.852 100.18 213.052 99.3802C213.632 98.9702 214.302 98.6502 214.932 98.3002C215.602 98.0502 216.262 97.7302 216.952 97.5502C217.612 97.3902 218.322 97.1002 218.912 97.3102C219.292 96.9302 220.022 96.9402 220.602 96.9002C221.042 96.8502 221.562 96.9302 222.032 96.9702C222.502 97.0702 222.972 97.1402 223.422 97.2502C224.522 97.4802 225.482 97.8302 226.522 98.0102C227.472 98.1902 228.372 98.8802 229.362 98.9502C229.542 98.9502 229.832 99.2502 230.092 99.3202C231.122 99.5702 232.202 100.14 233.232 99.7902C233.322 99.7602 233.542 99.7902 233.632 99.8402C234.202 100.15 234.832 100.16 235.432 100.15C236.042 100.07 236.642 99.9502 237.242 99.8302C238.522 99.5602 239.842 99.7302 241.082 99.3902C242.482 99.0602 243.702 98.2002 244.922 97.6002C247.032 96.4502 248.522 94.4002 249.762 92.3102C251.052 90.1602 251.922 87.7302 252.442 85.2602C252.682 84.1802 252.662 83.0802 252.722 82.0102C252.772 80.8302 252.772 79.6002 252.712 78.3602L252.552 76.6302L252.312 74.9202C252.212 74.3902 251.962 73.8402 252.142 73.3202C252.172 73.2102 252.102 72.8902 252.022 72.7702C251.472 71.9002 251.192 71.0302 251.072 70.0002C251.032 69.7102 250.802 69.3602 250.702 69.0302C250.382 68.1402 249.762 67.5502 249.232 66.8902C248.742 66.2802 248.432 65.3802 247.642 65.1302C247.532 65.1002 247.292 64.8102 247.252 64.6802C247.112 64.2802 246.872 63.9402 246.582 63.6502C246.272 63.3702 245.912 63.1402 245.562 62.9102C245.192 62.7002 244.822 62.5002 244.492 62.2602C244.152 62.0402 243.842 61.7802 243.612 61.4202C242.862 61.4602 242.542 60.7002 242.082 60.5802C241.432 60.3502 240.772 60.2502 240.092 60.0302L239.102 59.7702C238.762 59.7102 238.422 59.6502 238.082 59.6102C236.832 59.4902 235.522 59.2402 234.232 59.6002C233.802 59.7202 233.012 59.8302 232.452 59.5602C232.352 59.5102 232.072 59.5402 231.882 59.5802C230.472 59.8402 228.712 59.8102 228.222 59.3202C227.942 59.0202 227.852 58.6102 227.942 58.2102C227.982 58.0102 228.622 57.7602 229.022 57.5602C229.712 57.2102 230.372 56.7902 231.172 56.6102C232.122 56.3902 233.192 56.4002 234.472 56.3702L234.482 56.3502Z" fill="#A6843B"/>
<path d="M235.335 62.2999C228.025 44.7199 216.195 44.9499 202.865 44.4799C189.535 43.9999 191.255 40.6799 181.785 29.2699C172.325 17.8599 158.125 20.7199 152.535 20.2399C146.945 19.7599 145.655 11.6899 132.755 6.92989C119.855 2.17989 110.605 5.73989 103.725 8.58989C96.8453 11.4399 84.8053 19.5199 76.1953 19.5199C67.5853 19.5199 60.7153 23.3199 56.8453 29.9699C52.9753 36.6199 48.2453 38.9999 41.3653 40.8999C34.4853 42.7999 31.4753 45.1799 27.1753 50.3999C22.8753 55.6199 22.4453 59.8999 22.4453 59.8999" fill="white"/>
<path d="M232.008 58.9099C231.608 58.4099 231.378 57.7899 231.108 57.1599C230.808 56.5599 230.498 55.9199 230.058 55.3599C229.638 54.7699 229.108 54.2899 228.668 53.7299C228.228 53.1599 227.718 52.6699 227.208 52.1799C226.948 51.9299 226.688 51.6999 226.408 51.4999C226.108 51.3199 225.798 51.1699 225.478 51.0199C225.168 50.8799 224.918 50.6299 224.638 50.4099C224.358 50.1899 224.028 50.0599 223.658 50.0799C223.588 50.0799 223.498 49.9899 223.418 49.9399C221.998 49.0599 220.318 48.6299 218.828 47.8999C217.028 47.1399 215.098 46.8899 213.148 46.5999C209.918 46.7199 206.638 46.2699 203.288 46.2299C202.248 46.2099 201.138 46.2599 200.068 45.8699C199.608 45.6899 199.078 45.6899 198.548 45.6699C198.018 45.6399 197.468 45.5299 197.008 45.2299C196.938 45.1799 196.718 45.2499 196.568 45.2399C196.208 45.2199 195.798 45.2299 195.478 45.1099C193.528 44.2799 193.568 44.2699 191.858 43.5999C191.658 43.4999 191.548 43.1899 191.348 43.0499C190.548 42.4599 189.858 41.7599 189.188 41.0899C188.588 40.4799 188.248 39.6399 187.448 39.2799C187.268 39.1999 187.118 38.8699 186.958 38.6599C186.468 37.9799 185.988 37.2799 185.488 36.6299C184.908 35.8799 184.498 34.9999 183.658 34.4799C183.298 34.2499 183.278 33.5399 183.068 33.4099C182.668 33.1599 182.388 32.8699 182.148 32.4999C181.918 32.1499 181.788 31.7299 181.528 31.3999C181.298 31.1099 180.918 30.9499 180.678 30.6699C180.078 29.9999 179.558 29.2399 178.888 28.7699C178.138 28.3199 177.548 27.7999 176.918 27.2599C176.208 26.7799 175.548 26.2299 174.798 25.8199C174.198 25.5399 173.768 25.0899 173.258 24.6899C172.718 24.3499 171.958 24.3499 171.598 23.7099C171.578 23.6799 171.508 23.6699 171.468 23.6499L169.618 22.8899C168.988 22.6599 168.338 22.4899 167.688 22.3099C165.408 21.7899 163.048 21.6099 160.658 21.5299C159.988 21.4999 159.268 21.6499 158.638 21.2899C158.508 21.2199 158.218 21.3199 158.038 21.2699C157.358 21.0799 156.848 21.7699 156.188 21.4599C155.598 21.1899 154.998 21.3599 154.378 21.3299C153.688 21.2999 152.988 21.3299 152.238 21.2199C151.698 21.1099 151.198 21.1099 150.698 21.0999C150.248 20.5399 149.398 20.3699 148.948 19.8299C148.658 19.4799 148.228 18.9799 147.918 18.8799C147.188 18.6699 146.828 18.0799 146.338 17.6499C145.628 16.9999 145.058 16.2199 144.198 15.7799C143.828 15.5999 143.528 15.1699 143.218 14.8399C142.938 14.5299 142.748 14.1399 142.458 13.8399C141.888 13.3199 141.308 12.8199 140.558 12.5499C139.938 12.2899 139.488 11.5299 138.698 11.5399C138.598 11.5399 138.428 11.4099 138.338 11.2999C137.838 10.7599 137.298 10.3699 136.498 10.1899C135.838 10.0699 135.168 9.57989 134.498 9.24989C133.768 8.93989 132.978 8.71989 132.298 8.31989C131.848 8.08989 131.428 8.54989 130.988 8.02989C130.748 7.74989 130.128 7.61989 129.668 7.48989C129.188 7.34989 128.668 7.29989 128.228 7.08989C125.908 6.03989 123.318 6.05989 120.838 5.86989C119.778 5.76989 118.698 6.18989 117.658 5.74989C116.948 6.20989 115.998 5.96989 115.328 6.35989C114.908 6.59989 114.518 6.62989 114.108 6.72989C111.428 7.28989 108.788 8.11989 106.198 9.19989C104.458 9.90989 102.888 10.7399 101.258 11.6199C100.798 11.8699 100.368 12.1299 99.7582 12.1799C99.3082 12.2199 98.6182 12.5499 98.2682 13.0799C98.1982 13.1799 98.0182 13.3299 97.9282 13.3299C96.7282 13.3299 96.0482 14.3299 95.1182 14.8299C93.2882 15.8099 91.3182 16.4099 89.4482 17.3099C89.0482 17.4999 88.5082 17.5599 88.3382 18.0299C87.8982 17.8799 87.7282 18.1299 87.3882 18.4199C87.0382 18.7199 86.3682 18.9999 85.9482 18.9799C85.3782 18.9599 84.9482 19.1799 84.4582 19.3299C83.9482 19.4899 83.4482 19.6999 82.9182 19.8299C80.7282 20.4299 78.3982 20.8599 76.0382 20.7699C75.6282 20.7699 75.2282 20.6399 74.8082 20.5799C74.3882 20.5299 73.9582 20.7599 73.5382 20.4699C73.3782 20.3599 72.9582 20.4899 72.6682 20.5399C71.6282 20.6799 70.4482 20.7099 69.6082 21.2099C69.1882 21.4399 68.7282 21.5699 68.2882 21.7399C67.8482 21.8899 67.4282 22.0899 67.1282 22.4699C66.9582 22.6799 66.5082 22.7099 66.2182 22.8999C65.0382 23.5599 63.6282 24.0299 62.8682 25.2399C62.2882 25.2899 61.8782 25.7199 61.4882 26.1199C61.1882 26.3899 60.7482 26.6199 60.7682 27.1099C60.7682 27.1699 60.6782 27.2699 60.6082 27.3199C60.2082 27.6099 59.7782 27.8299 59.4582 28.2899C59.2182 28.6899 59.1882 29.1199 58.8882 29.5199C58.6382 29.8899 58.3882 30.2599 58.1082 30.6199L57.2082 31.8399C56.5782 32.6399 55.9482 33.4199 55.3482 34.2699C54.7682 34.5199 54.3982 35.0299 53.9282 35.4699C53.1382 36.2499 52.5482 37.2099 51.5482 37.8199C50.6182 38.4099 49.5582 38.8999 48.7382 39.5399C47.2882 40.6399 45.5482 41.0799 43.9382 41.6599C43.5182 41.8099 43.0782 42.0799 42.5982 41.8599C42.4882 41.8099 42.0382 41.9699 41.9382 42.1099C41.7182 42.3999 41.3982 42.3499 41.1682 42.4999C40.5382 42.9099 39.5882 42.3099 39.1182 43.1499C38.3782 43.4199 37.6382 43.6999 36.9382 44.0299C36.2282 44.3499 35.5682 44.7299 34.8982 45.1099C34.5882 45.2999 34.3382 45.5399 33.9082 45.5699C33.6182 45.5999 33.1082 45.9199 33.0082 46.1999C32.7482 46.8199 32.2082 47.1099 31.7782 47.5299C30.4882 48.7799 29.2482 50.2099 28.0582 51.6399C27.5482 52.2499 26.9682 52.8099 26.4782 53.4399C25.9582 54.0699 25.7582 54.9099 25.1182 55.4699C25.0782 55.5099 25.0482 55.5899 25.0282 55.6599C24.9282 55.9699 24.8782 56.2999 24.7482 56.5799C24.5582 56.9299 24.1082 57.3299 24.1382 57.5899C24.2082 58.0999 23.8682 58.2899 23.7482 58.6199C23.3982 59.5399 22.7182 60.0199 21.9782 59.8399C21.8182 59.7799 21.6482 59.6199 21.5482 59.4299C20.9582 58.2399 20.9882 58.1799 21.4882 56.5799C22.1882 54.5499 23.5882 52.9999 24.6182 51.2299C25.7282 50.3699 26.3982 49.1499 27.3382 48.1999C28.3282 47.2099 29.5482 46.4199 30.3982 45.3199C31.2582 44.2099 32.4182 43.3999 33.6082 42.6899C34.5182 42.1399 35.5382 41.8299 36.5082 41.4499C37.5182 41.0699 38.5082 40.5899 39.5382 40.3799C40.1682 40.2499 40.9082 40.3299 41.4282 40.0099C42.5682 39.3299 43.9082 39.2199 45.0082 38.6099C46.5182 37.7699 48.1282 37.1899 49.4282 36.1499C50.1082 35.5799 50.7382 34.9899 51.3982 34.3999C51.7082 34.1399 51.9682 33.8799 52.3882 33.6799C52.8282 33.4899 53.2582 32.9799 53.4382 32.4199C53.5082 32.1799 53.6782 31.8299 53.8682 31.7299C54.6482 31.2899 55.0282 30.4699 55.4582 29.7399C55.7182 29.2999 56.3882 28.8599 56.4482 28.4999C56.5582 27.8499 57.0082 27.4799 57.3082 26.9999C57.5282 26.6599 57.7582 26.2499 58.2082 26.1699C58.3282 26.1499 58.5882 25.8599 58.6282 25.7399C58.7982 24.9799 59.4882 24.5399 60.0282 24.0499C61.3182 22.8499 62.7882 21.8299 64.3582 21.0299C65.6382 20.3699 66.8082 19.4599 68.2782 19.1599C68.6482 18.8499 69.0982 18.6699 69.5682 18.5399C70.0382 18.4199 70.5282 18.3799 70.9982 18.2799C71.7182 18.1599 72.4582 18.1799 73.1882 18.1899C73.9182 18.1999 74.6082 18.0599 75.3782 18.2299C75.6082 18.2799 75.8582 18.2999 76.1082 18.3099C76.3482 18.3099 76.5582 18.2899 76.7982 18.2699C77.2582 18.2199 77.7182 18.1799 78.1782 18.1099C78.6782 18.0399 79.1882 17.7799 79.7082 18.0299C79.7782 18.0699 80.0082 17.9999 80.0882 17.9299C80.6582 17.4099 81.4882 17.2899 82.1182 17.2499C83.1382 17.2199 84.0082 16.7599 84.9382 16.4599C85.7082 16.1899 86.4482 15.8499 87.2082 15.5399C87.7582 15.3299 88.2482 15.0299 88.8782 14.9099C89.3582 14.8199 89.8382 14.3699 90.3382 14.0999C90.8382 13.8299 91.3482 13.5999 91.8582 13.3499L93.5182 12.5099L95.1782 11.6599C95.7782 11.3499 96.3682 11.0099 96.9782 10.7299C97.5582 10.4699 98.1982 10.3199 98.7682 10.0499C100.378 9.28989 101.788 8.09989 103.548 7.53989C103.888 7.08989 104.408 7.09989 104.898 6.95989C105.358 6.83989 105.908 6.73989 106.248 6.29989C106.338 6.17989 106.588 6.10989 106.768 6.01989C107.168 5.81989 107.618 5.94989 108.048 5.58989C108.358 5.32989 108.928 5.26989 109.378 5.10989C109.848 4.93989 110.448 4.95989 110.758 4.49989C111.748 4.78989 112.368 3.77989 113.298 3.84989C113.588 3.86989 113.888 3.81989 114.188 3.82989C114.338 3.82989 114.518 3.86989 114.638 3.82989C116.898 2.93989 119.388 3.16989 121.768 3.11989C122.058 3.11989 122.348 3.03989 122.648 3.00989C122.788 2.99989 122.948 2.99989 123.088 3.02989C124.388 3.30989 124.368 3.35989 125.618 3.30989C125.928 3.29989 126.258 3.38989 126.578 3.43989C127.398 3.55989 128.188 3.76989 129.068 3.77989C129.958 3.78989 130.768 4.38989 131.548 4.85989C132.238 5.26989 132.928 5.63989 133.718 5.95989C135.738 6.67989 137.668 7.66989 139.528 8.76989C139.758 8.90989 140.018 9.18989 140.198 9.18989C140.928 9.19989 141.578 9.27989 141.648 10.1999C141.648 10.2399 141.828 10.3799 141.898 10.3799C142.578 10.3599 143.018 10.9499 143.458 11.3499C145.188 12.8499 147.078 14.1799 148.458 15.8299C148.678 16.0799 149.078 16.3199 149.128 16.5599C149.228 17.0599 149.688 16.8199 149.878 17.1299C150.038 17.3999 150.458 17.4599 150.568 17.6999C150.988 18.4899 151.868 18.7499 152.538 18.6499C153.238 18.5999 154.108 18.4499 154.858 18.5899C156.358 18.8599 157.888 18.6899 159.438 18.7299C161.028 18.7699 162.628 18.8199 164.238 18.9599C164.898 19.0299 165.578 19.2599 166.238 18.9899C166.378 18.9399 166.668 19.0299 166.868 19.0899C167.358 19.2499 167.818 19.4499 168.308 19.5699C168.798 19.6899 169.318 19.6599 169.828 19.7299C170.238 19.7699 170.598 19.9399 171.058 19.8799C171.398 19.8399 171.888 20.1299 172.278 20.4699C172.678 20.7999 173.038 21.2199 173.468 21.5399C173.888 21.8899 174.368 22.1399 174.908 22.4199C175.398 22.6499 175.868 22.9199 176.338 23.1799C176.818 23.4399 177.228 23.7999 177.688 24.0899C178.068 24.3499 178.408 24.5999 178.908 24.7599C179.348 24.9099 179.868 25.4599 180.188 25.8999C180.718 26.5699 181.168 27.1799 181.908 27.6199C182.158 27.7799 182.388 28.0299 182.598 28.2599C183.808 29.6799 184.928 31.1199 186.028 32.5999C186.288 32.9599 186.628 33.2899 186.608 33.7499C187.048 33.7899 187.238 34.2299 187.438 34.5499C187.748 35.0499 187.968 35.5999 188.288 36.0899C188.668 36.6699 189.078 37.1999 189.648 37.6099C190.158 37.9999 190.398 38.7499 191.018 39.0699C191.138 39.1299 191.168 39.4299 191.298 39.5399C191.568 39.7799 191.788 40.0999 192.058 40.3299C192.318 40.5699 192.608 40.7899 193.008 40.7599C193.078 40.7599 193.188 40.8399 193.218 40.8999C193.398 41.3299 193.758 41.5299 194.128 41.6599C194.488 41.8199 194.918 41.8199 195.308 41.8999C195.718 41.9999 196.128 42.1399 196.518 42.3199C196.908 42.5099 197.318 42.6699 197.778 42.7399C198.788 42.9199 199.908 42.8499 200.888 43.1199C202.608 43.5399 204.388 43.4299 206.168 43.5399C207.988 43.6499 209.818 43.7099 211.658 43.8599C212.458 43.8999 213.268 43.8399 214.078 43.9099C214.978 43.9599 215.878 44.1799 216.778 44.3399C217.628 44.4799 218.468 44.7299 219.298 44.9499C219.688 45.0399 220.158 45.0999 220.408 45.4699C220.458 45.5499 220.688 45.6499 220.798 45.6399C221.198 45.6199 221.578 45.6599 221.918 45.7999C222.258 45.9499 222.568 46.1799 222.858 46.4599C223.018 46.6199 223.338 46.6899 223.558 46.8299C224.148 47.2299 224.788 47.3499 225.418 47.5999C226.008 47.8299 226.398 48.4799 227.088 48.4699C227.178 48.4699 227.428 48.6499 227.468 48.7499C227.608 49.0799 227.828 49.3199 228.078 49.5099C228.318 49.7299 228.598 49.9099 228.878 50.0899C229.428 50.4599 230.058 50.7999 230.208 51.4899C230.828 51.5799 230.808 52.2799 231.108 52.5299C231.538 52.8999 231.998 53.2299 232.308 53.7299C232.618 54.1799 232.908 54.6399 233.248 55.0699C233.398 55.2699 233.538 55.4699 233.678 55.6799L234.038 56.3299C234.288 56.7599 234.558 57.1699 234.948 57.5199C235.198 57.7599 235.608 58.2599 235.468 58.7799C235.448 58.8699 235.538 59.0599 235.618 59.1799C236.178 60.0999 236.398 61.4399 235.958 61.9099C235.698 62.1899 235.298 62.3299 234.908 62.3599C234.718 62.3799 234.428 62.0199 234.188 61.8099C233.778 61.4599 233.298 61.1699 232.998 60.7399C232.818 60.4799 232.678 60.1899 232.538 59.8699C232.378 59.5699 232.208 59.2399 232.018 58.8899L232.008 58.9099Z" fill="#A6843B"/>
<path d="M196.969 95.7199C195.099 95.8099 190.889 95.6799 193.309 96.7299C195.369 97.6299 197.929 97.6699 200.459 97.6099C201.949 97.5799 203.709 97.6099 204.449 96.9299C204.439 95.9499 202.079 95.3299 200.029 95.4899C199.009 95.5699 197.999 95.6699 196.969 95.7199Z" fill="#B09151"/>
<path d="M183.312 95.1602C184.752 95.1702 185.942 95.2602 186.422 95.4802C186.962 95.7202 187.042 96.2202 186.422 96.4202C185.152 96.8302 183.442 97.2902 181.632 97.3902C179.422 97.5102 176.922 97.2602 174.542 97.1902C173.722 97.1602 172.902 97.1702 172.072 97.1602C170.302 97.1402 167.152 96.9102 165.322 96.6402C164.022 96.4502 159.742 96.3502 158.132 96.3002C157.932 96.3002 157.582 96.2602 157.572 96.2302C157.342 95.7202 156.482 95.9402 158.072 95.5002C158.262 95.4502 162.862 95.2302 163.192 95.2302C167.102 95.2802 171.262 95.3702 175.272 95.3702C176.772 95.3702 180.512 95.1402 183.302 95.1702L183.312 95.1602Z" fill="#B09151"/>
<path d="M180.229 87.1599C180.249 86.9899 181.299 86.8599 183.359 86.7699C188.009 86.5599 194.209 86.6599 199.139 86.6499C206.809 86.6499 214.959 86.4699 222.629 86.4499C223.789 86.4499 225.049 86.3799 226.059 86.2999C229.269 86.0499 233.889 86.4699 235.929 86.8099C241.179 87.6899 236.289 88.1299 232.799 88.3599C231.859 88.4199 228.299 88.4899 225.999 88.4499C220.549 88.3599 214.529 88.3999 209.089 88.2899C200.889 88.1199 192.599 88.0199 184.519 87.7899C182.679 87.7399 181.529 87.6199 180.879 87.4599C180.529 87.3699 180.219 87.2399 180.219 87.1599H180.229Z" fill="#B09151"/>
<path d="M35.8922 53.8802C34.1222 53.8602 32.6722 53.7402 32.0722 53.4302C31.4122 53.0802 31.3122 52.3902 32.0722 52.1102C33.6322 51.5402 35.7322 50.8702 37.9522 50.7402C40.6722 50.5702 43.7322 50.9202 46.6522 51.0202C47.6522 51.0602 48.6722 51.0502 49.6822 51.0602C51.8622 51.0902 55.7222 51.4202 57.9622 51.7902C59.5622 52.0602 64.8022 52.2002 66.7822 52.2702C67.0322 52.2702 67.4522 52.3302 67.4722 52.3702C67.7622 53.1002 68.8122 52.7902 66.8522 53.4002C66.6222 53.4702 60.9822 53.7902 60.5722 53.7802C55.7822 53.7202 50.6722 53.5802 45.7522 53.5802C43.9222 53.5802 39.3222 53.9002 35.9022 53.8602L35.8922 53.8802Z" fill="#B09151"/>
<path d="M70.9985 44.0501C70.9985 44.2901 70.6585 44.4701 70.0085 44.6101C68.5385 44.9101 66.5885 44.7701 65.0385 44.7701C62.6185 44.7801 60.0485 45.0201 57.6285 45.0501C57.2585 45.0501 56.8685 45.1401 56.5485 45.2501C55.5385 45.6101 54.0785 45.0201 53.4385 44.5401C51.7785 43.3001 53.3285 42.6801 54.4285 42.3601C54.7285 42.2701 55.8485 42.1801 56.5685 42.2401C58.2885 42.3701 60.1885 42.3101 61.8985 42.4701C64.4785 42.7101 67.0985 42.8501 69.6485 43.1801C70.2285 43.2501 70.5885 43.4201 70.7985 43.6401C70.9085 43.7601 71.0085 43.9601 71.0085 44.0601L70.9985 44.0501Z" fill="#B09151"/>
<path d="M22.5487 79.04C25.5687 78.91 32.3687 79.1 28.4688 77.66C25.1388 76.43 21.0087 76.38 16.9187 76.46C14.5087 76.51 11.6688 76.46 10.4688 77.39C10.4887 78.72 14.2888 79.58 17.6088 79.36C19.2587 79.25 20.8887 79.12 22.5587 79.05L22.5487 79.04Z" fill="#B09151"/>
<path d="M34.8524 69.0001C31.5824 69.1901 26.0924 69.3201 23.7824 69.4601C21.5324 69.5901 19.2724 69.8401 17.0224 69.8101C15.9124 69.8001 14.6924 69.3301 13.8424 68.9501C13.5824 68.8301 14.3424 68.3101 14.6424 67.9801C15.9324 66.5701 18.7324 67.0801 21.1624 67.0701C23.7324 67.0601 30.5924 67.5201 33.1624 67.4601C36.1724 67.3901 36.5424 67.6801 35.4324 68.8501C35.2724 69.0101 34.5024 69.0801 34.8524 69.0001Z" fill="#B09151"/>
<path d="M27.0017 88.1199C27.0017 88.3899 26.8117 88.5899 26.4517 88.7399C25.6317 89.0699 24.5317 88.9099 23.6617 88.9199C22.3017 88.9299 20.8617 89.1999 19.5117 89.2299C19.3117 89.2299 19.0817 89.3299 18.9017 89.4599C18.3317 89.8599 17.5117 89.1999 17.1517 88.6599C16.2217 87.2899 17.0817 86.5899 17.7017 86.2299C17.8717 86.1299 18.4917 86.0299 18.9017 86.0899C19.8617 86.2399 20.9317 86.1699 21.8917 86.3499C23.3417 86.6199 24.8117 86.7799 26.2417 87.1399C26.5617 87.2199 26.7717 87.4099 26.8817 87.6499C26.9417 87.7799 27.0017 87.9999 27.0017 88.1099V88.1199Z" fill="#B09151"/>
<path d="M225.368 78.2501C225.678 78.2501 225.998 78.2501 226.308 78.2501C227.288 78.2501 228.248 78.1601 229.238 78.1601C232.398 78.1601 235.568 78.0901 238.728 78.0801C241.668 78.0801 244.628 78.0801 247.548 78.1701C248.078 78.1901 248.878 78.6501 248.798 78.8801C248.648 79.2701 248.188 79.8301 247.308 79.9601C245.968 80.1701 244.148 80.1301 242.558 80.1001C237.528 80.0001 235.318 79.7501 230.298 79.6501C228.918 79.6201 224.908 79.4301 223.518 79.4101C222.478 79.3901 221.558 79.3901 220.528 79.3101C220.398 79.3101 219.838 79.1401 219.838 79.1301C219.998 78.7001 219.608 78.9901 220.078 78.5901C220.358 78.3501 222.418 78.3301 222.968 78.3001C223.768 78.2601 224.568 78.2401 225.368 78.2401V78.2501Z" fill="#B09151"/>
<path d="M226.699 70.4602C226.699 70.2802 227.039 70.1502 227.689 70.0502C229.159 69.8302 231.129 69.9402 232.689 69.9302C235.119 69.9302 237.709 69.7502 240.139 69.7302C240.509 69.7302 240.909 69.6602 241.229 69.5802C242.249 69.3202 243.719 69.7502 244.359 70.1002C246.029 71.0102 244.479 71.4602 243.369 71.7002C243.069 71.7602 241.939 71.8302 241.219 71.7902C239.489 71.6902 237.579 71.7402 235.859 71.6202C233.259 71.4502 230.629 71.3402 228.059 71.1002C227.479 71.0502 227.109 70.9202 226.909 70.7602C226.799 70.6702 226.699 70.5302 226.699 70.4502V70.4602Z" fill="#B09151"/>
</svg>
