<svg width="360" height="160" viewBox="0 0 360 160" fill="none" xmlns="http://www.w3.org/2000/svg">
<path d="M314.122 69.3797C314.122 69.3797 324.062 68.4897 330.492 71.1597C336.922 73.8297 352.492 79.9997 350.372 96.0797C346.612 124.59 314.172 117.41 306.292 117.68C298.412 117.95 289.132 134.1 267.492 134.99C245.852 135.88 235.492 128.99 222.492 131.99C214.442 133.85 202.502 146.33 180.852 148.72C148.692 152.28 132.922 119.09 114.582 124.02C105.132 126.56 89.5518 138.78 66.1518 126.32C56.7718 121.32 48.4718 119.28 33.9918 122.76C22.8818 125.43 9.23178 118.15 7.67178 103.18C5.92178 86.2697 16.4418 71.1397 38.6618 74.6997" fill="white"/>
<path d="M322.99 67.9498C325.62 68.0198 328.33 68.9998 331.16 70.0598C333.83 71.0698 336.54 72.2998 339.08 73.8098C339.72 74.2098 340.35 74.5598 340.98 74.9198C341.6 75.2998 342.22 75.6598 342.87 76.0298C343.47 76.4198 344.04 76.9398 344.62 77.4298C345.17 77.9598 345.73 78.4698 346.38 78.7998C346.5 78.8498 346.67 79.0998 346.81 79.2598C347.41 79.9798 348.08 80.6398 348.6 81.4398L349.42 82.6098C349.69 82.9998 349.89 83.4398 350.12 83.8598C350.34 84.2798 350.57 84.6998 350.77 85.1398C350.93 85.5898 351.09 86.0398 351.24 86.4898C351.38 86.9398 351.57 87.3798 351.64 87.8398C351.71 88.2998 351.79 88.7598 351.86 89.2198C352.17 91.3398 352.16 93.4498 351.97 95.4998C351.8 97.5498 351.38 99.5098 350.8 101.47C350.11 104.73 348.57 107.92 346.32 110.55C345.23 111.89 343.9 113.03 342.55 114.08C341.14 115.06 339.69 115.98 338.15 116.68C336.25 117.59 334.25 118.38 332.1 118.58C330.29 118.74 328.19 119.56 326.27 119.3C326.11 119.28 325.76 119.41 325.49 119.45C324.84 119.57 324.15 119.73 323.53 119.71C321.67 119.66 320.74 119.63 319.89 119.6C319.04 119.6 318.27 119.64 316.73 119.71C316.36 119.72 315.92 119.52 315.5 119.49C313.81 119.39 312.12 119.23 310.45 119.16C309.7 119.13 308.94 119.02 308.19 118.98C307.46 118.94 306.68 118.95 306.13 119.22C305.91 119.32 305.4 119.33 305.01 119.45C303.75 119.82 302.44 120.54 301.2 121.39C299.78 122.37 298.2 123.32 297 124.67C296.48 125.26 295.31 125.59 294.99 125.93C294.4 126.57 293.76 127.08 293.05 127.54C292.34 127.99 291.57 128.31 290.88 128.75C290.27 129.14 289.76 129.69 289.14 130.08C287.59 131.06 285.77 131.83 284.32 132.71C282.75 133.66 281.11 134.28 279.42 134.85C277.65 135.44 275.82 135.88 274.01 136.26C272.59 136.56 271.28 136.56 269.93 136.59C268.58 136.61 267.09 136.98 265.89 136.55C265.84 136.53 265.69 136.55 265.59 136.55L263.54 136.53L261.49 136.42C260.13 136.37 258.77 136.25 257.41 136.15C252.71 135.81 248.03 135.15 243.45 134.31C242.15 134.07 240.77 133.98 239.62 133.41C239.38 133.29 238.81 133.3 238.49 133.2C237.26 132.79 236.16 133.31 235.01 132.85C233.97 132.41 232.81 132.5 231.71 132.37C231.09 132.33 230.46 132.31 229.84 132.29C229.22 132.29 228.59 132.33 227.97 132.32C227.11 132.3 226.34 132.51 225.66 132.75C225.17 132.58 224.6 132.66 224.02 132.76C223.45 132.88 222.82 132.96 222.3 133.05C221.95 133.1 221.5 133.15 221.08 133.27C220.67 133.41 220.28 133.57 220.07 133.74C219.11 134.49 218 134.9 216.96 135.52C215.43 136.42 213.8 137.24 212.41 138.4C211.82 138.89 210.9 139.34 210.12 139.75C209.39 140.13 208.61 140.38 207.88 140.76C206.52 141.47 205.2 142.2 203.92 143.06C203.37 143.43 202.68 143.72 202.01 144.02C201.33 144.31 200.66 144.61 200.14 145.08C200 145.2 199.59 145.36 199.33 145.44C197.9 145.81 196.66 146.21 195.21 146.97C194.02 147.56 192.38 147.97 190.91 148.33C190.13 148.53 189.34 148.79 188.55 148.97C187.75 149.14 186.96 149.3 186.18 149.4C185.19 149.55 184.78 150.18 183.54 149.99C182.87 149.88 181.65 150.19 180.66 150.27C179.64 150.33 178.58 150.53 177.6 150.47C172.51 150.17 167.31 149.84 162.48 148.1C160.45 147.41 158.22 146.86 156.58 145.56C155.82 145.4 155.06 145.05 154.31 144.68C153.58 144.29 152.86 143.88 152.16 143.66C151.28 143.35 150.6 142.93 149.87 142.51C145.11 139.68 140.7 136.38 136.27 133.28C133.35 131.25 130.35 129.38 127.3 127.83C126.43 127.42 125.58 127.05 124.72 126.46C124.41 126.22 123.92 126.01 123.38 125.85C122.85 125.67 122.26 125.59 121.75 125.64C121.55 125.65 121.17 125.61 121.03 125.54C120.6 125.34 120.15 125.21 119.7 125.13C119.25 125.07 118.79 125.09 118.34 125.11C117.44 125.21 116.57 125.42 115.72 125.64C114.04 126.02 112.26 126.65 110.47 127.3C108.68 127.95 106.86 128.66 105.04 129.4C104.27 129.73 103.27 129.9 102.79 130.48C102.08 130.42 101.67 130.73 100.94 131.1C100.19 131.49 98.8803 131.95 98.1103 131.94C97.0703 131.94 96.2203 132.32 95.2603 132.45C94.2503 132.6 93.2603 132.88 92.2303 132.97C87.9403 133.51 83.5303 133.36 79.3303 132.41C78.9203 132.33 78.5103 132.24 78.1203 132.1C77.7303 131.95 77.3403 131.81 76.9503 131.66C76.1603 131.38 75.2303 131.32 74.5503 130.81C74.2903 130.64 73.4803 130.39 72.9103 130.19C71.9203 129.81 70.8903 129.42 69.9203 128.98C68.9603 128.5 68.0203 128.07 67.1103 127.77C66.2003 127.48 65.3403 127.04 64.5303 126.62C63.7103 126.2 62.8603 125.86 62.0203 125.71C61.5403 125.65 60.8103 125.17 60.1803 124.95C57.6603 124.05 55.0503 122.91 52.3903 123C51.9403 122.76 51.4303 122.64 50.8903 122.56C50.3503 122.48 49.8003 122.44 49.2503 122.43C48.8503 122.42 48.4203 122.35 48.0103 122.33C47.6003 122.33 47.2003 122.38 46.8703 122.55C46.7903 122.59 46.5103 122.59 46.3403 122.58C45.3703 122.53 44.4903 122.33 43.4003 122.49C42.5003 122.64 41.7903 122.9 40.8003 123.05C39.9103 123.16 39.0203 123.27 38.1303 123.41C37.2403 123.52 36.3503 123.67 35.4603 123.83L34.1103 124.07L32.6603 124.3C32.1803 124.4 31.6903 124.44 31.2003 124.47L29.7303 124.61C28.6503 124.29 27.4403 124.36 26.2603 124.13C25.2003 124.02 24.2003 123.81 23.1703 123.65C22.6603 123.56 22.1603 123.39 21.6503 123.24C21.1403 123.08 20.6303 122.92 20.1503 122.65C19.6903 122.41 19.2203 122.17 18.7503 121.93C18.2903 121.67 17.8503 121.37 17.4003 121.1C16.4703 120.59 15.6703 119.92 14.8203 119.42C11.9503 117.51 9.93034 114.59 8.45034 111.56C8.09034 110.77 7.62034 109.88 7.64034 109.04C7.63034 108.85 7.37034 107.94 7.20034 107.72C6.85034 107.24 6.79034 106.58 6.61034 106.08C6.38034 105.35 6.42034 104.57 6.41034 103.82C6.38034 103.07 6.46034 102.34 6.08034 101.62C5.92034 99.9698 6.05034 98.3098 6.12034 96.6598L6.44034 94.1898C6.54034 93.3598 6.79034 92.5598 6.97034 91.7498C7.07034 91.3698 7.13034 90.9898 7.24034 90.6198C7.38034 90.2598 7.54034 89.8998 7.78034 89.5498C8.12034 89.0998 8.50034 87.8898 8.66034 87.3698C8.92034 86.0898 9.58034 84.9298 10.3203 83.8698C12.3803 80.5698 15.3403 77.7698 18.7903 75.9398C19.5603 75.5698 20.3103 75.1498 21.1203 74.8998L23.5503 74.1698C24.3703 73.9398 25.2203 73.7698 26.0503 73.5598C26.4703 73.4698 26.8903 73.3598 27.3103 73.3098C27.7303 73.2898 28.1603 73.2898 28.5703 73.3198C28.6903 73.3298 28.8603 73.2998 29.0003 73.2798C29.6603 73.1698 30.3203 72.9798 30.9703 72.9598C31.8203 72.9898 32.9403 73.2898 33.4203 73.1698C33.9003 73.0498 34.3003 73.0598 34.6603 73.1098C35.0203 73.1798 35.3503 73.2998 35.7003 73.3498C37.7603 73.6598 38.9303 74.4298 38.5703 75.1498C38.4903 75.3098 38.2303 75.4698 37.9303 75.5598C36.9903 75.8698 36.5303 76.0198 35.9503 76.0498C35.3703 76.0998 34.6703 75.9498 33.2803 75.9998C29.7803 75.8898 26.2503 75.9398 23.0203 77.3098C21.8503 77.4298 20.8103 77.9998 19.7503 78.5398C19.2003 78.7798 18.7603 79.1898 18.2703 79.5198C17.8003 79.8798 17.2803 80.1698 16.8403 80.5498C15.9303 81.3498 14.8803 82.0498 14.0903 82.9998C13.1903 83.8598 12.5403 84.9298 11.9903 86.0098C11.7003 86.5298 11.5403 87.1298 11.2903 87.6698C11.0803 88.2298 10.7703 88.7398 10.6103 89.3098C10.2403 90.4398 9.78034 91.5298 9.56034 92.7098C9.46034 93.1498 9.34034 93.5898 9.22034 94.0298C9.11034 94.4698 9.06034 94.9198 8.97034 95.3698C8.81034 96.2698 8.61034 97.1698 8.60034 98.0898C8.56034 99.0398 8.49034 100.01 8.60034 100.97C8.63034 101.45 8.66034 101.93 8.69034 102.41L8.72034 103.12L8.80034 103.82C8.86034 104.39 8.86034 104.99 8.90034 105.59C8.96034 106.18 9.12034 106.74 9.33034 107.25C9.45034 107.53 9.56034 107.81 9.67034 108.09L10.0503 108.91C10.3003 109.45 10.4903 110.03 10.7503 110.57C11.0303 111.1 11.3103 111.63 11.5803 112.15C11.8503 112.68 12.2503 113.12 12.6003 113.58C14.6503 116.04 17.0103 118.33 19.8903 119.65C21.4603 120.31 23.0303 120.87 24.6803 121.24C25.0503 121.33 25.4203 121.43 25.7903 121.52C26.1703 121.59 26.5503 121.68 26.9503 121.82C27.1603 121.89 27.3903 121.96 27.6403 122.01C27.8903 122.05 28.1603 122.06 28.4303 122.06C28.9803 122.06 29.5603 122.07 30.0803 121.89C30.5103 121.76 31.2203 121.64 31.6003 121.7C32.3903 121.75 33.1603 121.67 33.9903 121.5C34.8403 121.3 35.7003 121.1 36.5403 120.9C37.6303 120.7 38.8903 120.78 39.5203 120.56C40.5903 120.17 41.6103 120.12 42.6503 120.01C43.3803 119.9 44.2303 119.74 44.9103 120.02C45.0903 120.09 45.8103 120.08 46.0303 120C46.6503 119.8 47.3303 119.75 48.0203 119.75C48.7103 119.78 49.4103 119.87 50.0903 119.9C53.3603 120.14 56.6103 120.87 59.6703 122C62.1903 122.93 64.7203 123.68 67.0103 125.07C68.6103 125.37 70.0603 126.33 71.5803 126.97C72.7603 127.41 73.8903 127.98 75.0503 128.49C76.2403 128.89 77.4503 129.13 78.7003 129.65C79.4803 129.91 80.3803 130.05 81.2903 130.19C81.7503 130.25 82.2103 130.34 82.6703 130.36C83.1303 130.38 83.5903 130.41 84.0503 130.45C85.0403 130.54 86.1303 130.41 87.0203 130.73C87.1403 130.78 87.6003 130.76 87.7703 130.7C89.0603 130.33 90.6703 130.21 91.8503 130.24C93.7603 130.21 95.5503 129.74 97.3503 129.28C98.1103 129.12 98.8403 128.87 99.5803 128.63C100.32 128.39 101.06 128.16 101.79 127.89C102.85 127.53 103.84 127.07 105 126.77C105.89 126.56 106.92 125.89 107.9 125.45C108.9 125.01 109.91 124.59 110.95 124.2C112.07 123.75 113.24 123.36 114.43 123.01C115.05 122.89 115.67 122.74 116.3 122.64C116.93 122.59 117.57 122.51 118.2 122.5C119.57 122.5 120.96 122.61 122.26 122.97C122.88 123.13 123.48 123.32 124.06 123.58C124.64 123.82 125.22 124.05 125.78 124.31C128.99 125.66 132.1 127.11 134.88 129.17C135.82 129.45 136.44 130.14 137.2 130.74C137.9 131.29 138.68 132 139.57 132.27C139.82 132.35 140.19 132.63 140.5 132.83C141.2 133.27 141.61 133.91 142.53 134.31C143.17 134.59 143.95 135.31 144.69 135.79C145.46 136.3 146.22 137.04 147.06 137.18C148.11 138.53 149.85 138.66 151.09 139.7C151.48 140.04 151.94 140.32 152.37 140.64C152.59 140.79 152.81 141 153.02 141.1C156.95 142.76 160.72 144.86 164.83 145.91C165.34 146.02 165.85 146.04 166.36 146.12C166.6 146.16 166.88 146.21 167.11 146.29C169.32 146.92 169.33 146.96 171.48 147.01C172.02 147.03 172.6 147.14 173.16 147.14C173.88 147.14 174.59 147.22 175.31 147.22C176.03 147.2 176.76 147.16 177.5 147.04C178.98 146.72 180.61 147.04 182.21 146.96C182.92 146.94 183.62 146.92 184.34 146.88C185.06 146.83 185.78 146.69 186.53 146.54C190.31 145.71 194.05 144.63 197.64 143.13C198.1 142.97 198.74 142.75 198.95 142.56C199.81 141.74 200.6 141.13 201.84 141.26C201.9 141.26 202.26 141.09 202.33 141.01C203.01 140.22 204.21 139.83 205.17 139.33C208.86 137.44 212.06 134.86 215.92 132.92C216.53 132.6 217.34 132.08 217.78 132.02C218.68 131.88 218.9 131.3 219.68 131.09C220.29 130.89 221.25 130.46 221.84 130.4C222.88 130.37 223.88 130.28 224.89 130.11C225.9 130.03 226.89 129.79 227.81 129.72C229.52 129.51 231.31 129.41 232.82 129.69C235.79 130.22 238.69 130.59 241.54 131.13C244.46 131.68 247.36 132.19 250.27 132.59C251.46 132.73 252.71 133.08 253.85 132.82C254.08 132.76 254.61 132.86 254.99 132.92C255.88 133.07 256.75 133.31 257.64 133.35C258.53 133.4 259.42 133.32 260.32 133.29C261.04 133.26 261.72 133.32 262.47 133.13C263.02 133 263.96 133.13 264.82 133.3C265.67 133.48 266.55 133.67 267.49 133.79C268.41 133.87 269.41 133.91 270.48 133.74C272.38 133.46 274.3 133.19 276.16 132.67C276.94 132.46 277.68 132.27 278.44 131.82C279.13 131.42 280.36 131.05 281.28 130.8C282.73 130.41 283.99 129.84 285.18 128.96C285.59 128.66 286.11 128.36 286.59 128.1C289.52 126.41 292.29 124.43 295.06 122.37C295.73 121.87 296.4 121.28 297.12 121.1C297.37 120.5 298.15 120.07 298.78 119.67C299.74 119.05 300.76 118.55 301.82 118.02C303.07 117.39 304.36 116.81 305.92 116.47C307.33 116.19 308.76 116.62 310.11 116.43C310.36 116.39 310.86 116.62 311.23 116.63C312.73 116.67 314.33 117.08 315.72 116.69C315.84 116.66 316.16 116.68 316.29 116.72C317.98 117.26 319.68 116.93 321.35 116.78C323.17 116.62 324.84 116.88 326.62 116.68C328.64 116.45 330.66 115.93 332.53 115.59C334.15 115.3 335.72 114.79 337.17 114.08C338.65 113.41 340 112.51 341.28 111.54C342.6 110.56 343.73 109.34 344.76 108.06C345.71 106.72 346.6 105.32 347.22 103.78C347.36 103.45 347.5 103.12 347.62 102.78L347.91 101.74L348.19 100.7L348.41 99.6398L348.69 98.4698L348.9 97.2698L349.11 96.0698C349.17 95.6698 349.17 95.2798 349.21 94.8798C349.38 93.3898 349.26 91.9098 349.11 90.4398C348.97 89.7598 348.69 89.0498 348.85 88.3798C348.87 88.2398 348.74 87.8398 348.64 87.6898C348.26 87.1498 348.04 86.5698 347.76 86.0198C347.47 85.4698 347.26 84.8798 347.08 84.2398C346.94 83.8898 346.57 83.4798 346.35 83.0998C346.07 82.5398 345.66 82.1298 345.24 81.7498C344.82 81.3698 344.43 80.9898 343.97 80.6498C343.56 80.3198 343.2 79.8898 342.8 79.5098C342.38 79.1598 341.94 78.8498 341.44 78.7198C341.31 78.6798 340.91 78.3698 340.8 78.2298C340.47 77.7798 340.05 77.4198 339.59 77.0898C339.11 76.7898 338.59 76.5498 338.07 76.2998C337.01 75.8298 335.96 75.4098 335.13 74.6398C334.19 74.6198 333.57 73.8398 332.92 73.6098C331.97 73.2898 331.04 73.0198 330.07 72.6098L328.79 72.1198C328.35 71.9898 327.91 71.8598 327.46 71.7498C325.82 71.3798 324.09 70.9398 322.33 71.1298C321.74 71.1898 320.66 71.1998 319.96 70.8498C319.84 70.7898 319.45 70.7898 319.2 70.7998C317.28 70.8698 314.93 70.6298 314.41 70.0798C314.11 69.7498 314.09 69.3198 314.29 68.9398C314.39 68.7498 315.26 68.5798 315.81 68.4298C316.76 68.1698 317.68 67.8398 318.74 67.7598C320 67.6698 321.37 67.8098 323.02 67.9598L322.99 67.9498Z" fill="#A6843B"/>
<path d="M28.2094 84.5202C28.2094 84.5202 24.8194 74.5202 28.4994 65.0002C35.5994 46.6502 58.0894 28.3902 82.4994 34.0002C136.719 46.4502 122.289 14.6702 147.729 8.32023C174.019 1.76023 183.499 23.0002 196.499 25.0002C211.459 27.3002 231.499 17.0002 248.019 31.2502C264.189 45.2002 258.669 53.1202 277.009 53.8302C295.349 54.5402 311.619 54.1802 321.679 80.2902" fill="white"/>
<path d="M25.4408 78.2101C25.0608 76.2301 25.5408 74.1001 25.6508 71.8801C25.7608 69.6301 26.2908 67.3801 27.0708 65.2401C27.2508 64.6901 27.4508 64.1801 27.6408 63.6701C27.8208 63.1601 27.9808 62.6401 28.1408 62.1101C28.4008 61.0601 29.2908 60.1501 29.4008 59.0601C29.4008 58.9601 29.5408 58.7901 29.6108 58.6601C30.2208 57.4501 30.9508 56.2901 31.6808 55.1401C32.3808 53.9701 33.2208 52.9101 34.1108 51.9501C35.1108 50.7901 36.1408 49.7001 37.1508 48.5801C38.1208 47.4301 39.2308 46.4201 40.3408 45.4001C43.6008 41.6901 47.9208 39.0301 52.2408 36.6501C53.6308 35.9801 54.9808 35.1401 56.5808 34.8501C57.2608 34.7301 57.9508 34.4301 58.6508 34.1401C59.3608 33.8601 60.0608 33.5501 60.8208 33.6101C60.9408 33.6101 61.1808 33.4501 61.3808 33.3701C61.8508 33.1901 62.3308 32.9401 62.8008 32.8601C63.5008 32.7401 64.0208 32.6501 64.4508 32.5701C64.8908 32.5301 65.2208 32.4901 65.5408 32.4401C66.1808 32.3401 66.7508 32.1901 67.9108 31.8901C68.1908 31.8201 68.5508 31.9501 68.8708 31.9101C70.1808 31.8501 71.4908 31.8201 72.7808 31.7001C73.3708 31.6201 73.9708 31.7301 74.5608 31.7701C75.1608 31.8101 75.7408 31.8001 76.3208 31.6201C76.5708 31.5401 77.0708 31.6501 77.4608 31.6701C78.0808 31.6701 78.6908 31.8201 79.3008 31.9201C79.9108 32.0301 80.5208 32.1301 81.1308 32.2201C82.5608 32.4001 83.8608 32.8901 85.2208 32.8101C85.8208 32.7701 86.5508 33.3601 86.9008 33.3501C87.5508 33.3301 88.1408 33.3801 88.7508 33.5201C89.3408 33.6601 89.9008 33.9301 90.4908 34.0401C91.0108 34.1401 91.5608 34.0401 92.0808 34.1101C93.3908 34.2601 94.7708 34.6201 95.9908 34.5901C97.3008 34.5101 98.5108 34.6601 99.7708 34.7501C101.071 34.7801 102.381 34.9101 103.671 34.8701C104.671 34.8101 105.571 34.9801 106.521 35.0401C107.461 35.0401 108.481 34.6801 109.371 35.0201C109.411 35.0301 109.511 35.0001 109.581 34.9901C110.541 34.8501 111.531 34.8201 112.471 34.6001L113.901 34.3201C114.371 34.2001 114.821 34.0501 115.291 33.9001C116.881 33.4001 118.371 32.6601 119.791 31.8101C121.191 30.9301 122.481 29.8801 123.681 28.7201C124.341 28.0401 124.921 27.2301 125.761 26.7501C125.941 26.6501 126.121 26.2701 126.321 26.1101C127.061 25.4801 126.981 24.4801 127.761 23.9201C128.471 23.4301 128.841 22.6101 129.351 21.9301C129.931 21.1501 130.451 20.3301 131.031 19.5401C131.431 18.9901 131.751 18.4701 131.931 17.9001C132.691 17.5401 133.161 16.5301 133.871 15.9701C134.361 15.6201 135.021 15.0101 135.241 14.6201C135.461 14.1701 135.781 13.8001 136.111 13.4601C136.461 13.1301 136.841 12.8401 137.191 12.5101C138.241 11.5401 139.491 10.8301 140.571 9.86013C141.011 9.42013 141.801 9.17013 142.431 8.88013C143.021 8.60013 143.691 8.57013 144.281 8.34013L145.121 8.03013C145.401 7.95013 145.681 7.86013 145.961 7.76013C146.521 7.57013 147.071 7.33013 147.611 7.09013C148.561 6.70013 149.831 6.75013 150.771 6.19013C150.891 6.11013 151.231 6.08013 151.441 6.08013C152.571 6.05013 153.571 6.10013 154.791 5.73013C155.791 5.48013 157.091 5.57013 158.261 5.62013C158.881 5.62013 159.521 5.65013 160.141 5.69013C160.771 5.72013 161.391 5.80013 161.981 5.94013C162.731 6.11013 163.221 5.60013 164.061 6.15013C164.511 6.42013 165.481 6.55013 166.211 6.76013C166.971 6.95013 167.761 7.16013 168.441 7.46013C171.941 9.17013 175.531 10.7001 178.621 12.9801C179.921 13.9301 181.491 14.6301 182.401 15.9401C183.531 16.3001 184.431 17.3901 185.441 17.8101C186.081 18.0801 186.541 18.4401 187.041 18.7901C190.331 21.0901 193.671 23.3001 197.411 23.6001L199.331 23.7601C199.981 23.7701 200.631 23.7501 201.281 23.7401C202.571 23.7601 203.891 23.5701 205.201 23.5201C205.941 23.4501 206.661 23.3401 207.491 23.5001C208.101 23.6301 209.191 23.5301 209.961 23.1401C210.111 23.0701 210.421 22.9801 210.541 23.0101C212.121 23.4001 213.571 22.6501 215.081 22.4601C216.571 22.2901 218.031 22.1901 219.521 22.1701L221.741 22.1101C222.491 22.1101 223.231 22.1101 223.981 22.0701C224.621 22.0301 225.371 22.1901 225.871 21.8401C226.361 22.1601 226.741 22.0201 227.361 21.9001C227.681 21.8401 228.101 21.8101 228.511 21.8201C228.921 21.8601 229.321 21.9401 229.591 22.0501C230.331 22.3601 231.031 22.3501 231.751 22.4401C232.511 22.5701 233.281 22.7101 234.051 22.8701L235.251 23.1301C235.651 23.2201 236.041 23.3701 236.431 23.4901L238.781 24.2601C239.541 24.5801 240.281 24.9401 241.031 25.2801L242.151 25.8001C242.511 25.9901 242.851 26.2301 243.201 26.4401C243.751 26.7801 244.221 27.2201 244.731 27.5901C244.981 27.7901 245.301 27.9101 245.561 28.1101C245.821 28.3101 246.061 28.5401 246.211 28.8501C246.321 29.0801 246.891 29.4001 247.251 29.6801C248.581 30.6201 249.651 31.9701 250.881 32.7301C252.091 33.5101 252.901 34.8401 254.151 35.4701C254.491 35.6601 254.841 36.2601 255.211 36.6401C256.731 38.1801 257.751 40.1801 259.361 41.5801C259.551 42.3801 260.101 43.0901 260.611 43.7801C260.971 44.2801 261.241 44.9701 261.821 45.1901C261.891 45.2101 262.011 45.3801 262.081 45.5001C262.441 46.1301 262.641 46.8201 263.211 47.3801C263.441 47.6101 263.681 47.8101 263.931 47.9901C264.191 48.1601 264.441 48.3301 264.681 48.5701C265.101 49.0501 265.611 49.3501 266.061 49.7801C266.551 50.1401 267.081 50.4501 267.611 50.7901C268.191 51.0401 268.761 51.3201 269.371 51.5301C270.001 51.7001 270.641 51.8501 271.291 51.9601C271.961 52.3601 272.821 52.4101 273.641 52.5401C274.371 52.6401 275.111 52.5801 275.841 52.5601C276.571 52.5401 277.301 52.5201 278.091 52.5801C279.561 52.7101 281.141 52.8601 282.561 52.7401C285.001 52.5201 287.421 52.8701 289.871 53.0501C290.491 53.0801 291.221 53.0701 291.741 53.4701C291.861 53.5701 292.551 53.6301 292.751 53.5501C293.181 53.4001 293.631 53.5701 294.031 53.5801C295.181 53.5901 296.071 54.6001 297.281 54.2601L299.081 54.7501L299.981 55.0001L300.861 55.3201C302.031 55.7501 303.221 56.1501 304.321 56.7701C304.841 57.0401 305.391 57.2201 305.821 57.6901C306.101 58.0201 306.881 58.5701 307.301 58.6601C307.791 58.7801 308.231 59.0001 308.641 59.2601C309.061 59.5101 309.391 59.8801 309.781 60.1701L311.481 61.5301C312.011 62.0201 312.511 62.5501 313.021 63.0601C313.511 63.5901 314.081 64.0601 314.501 64.6501L315.831 66.3501C316.651 67.3201 317.161 68.4801 317.781 69.5601C318.081 70.1101 318.481 70.6301 318.811 71.1701C319.111 71.7301 319.391 72.3001 319.541 72.9101C319.561 73.0001 319.631 73.1101 319.691 73.1901C319.961 73.6101 320.291 74.0001 320.501 74.4401C320.791 75.0001 320.861 75.8901 321.111 76.1701C321.611 76.7301 321.551 77.2601 321.741 77.7701C322.281 79.2301 322.061 80.3401 321.281 80.4401C321.111 80.4701 320.871 80.3701 320.661 80.2201C319.361 79.2801 319.401 79.2701 318.511 77.3001C317.311 74.8801 316.511 72.2801 314.841 70.1301C314.691 69.7001 314.511 69.2801 314.271 68.8901C314.021 68.5201 313.741 68.1601 313.451 67.8001L312.581 66.7401C312.291 66.3801 312.011 66.0201 311.701 65.7001C311.081 65.0001 310.491 64.2501 309.871 63.5201C309.181 62.8801 308.461 62.2601 307.671 61.7801C306.031 60.9301 304.571 59.9201 302.921 59.1701C302.611 59.0201 302.311 58.8601 302.011 58.6901L301.071 58.2701C300.441 57.9901 299.811 57.6901 299.161 57.4401C297.771 57.0301 296.341 56.6901 294.941 56.3501C294.091 56.1101 293.211 55.6501 292.341 55.7101C290.471 55.7801 288.601 55.3101 286.771 55.3501C284.231 55.4401 281.681 55.1601 279.151 55.2301C278.471 55.2501 277.791 55.2701 277.111 55.2801C276.421 55.2801 275.711 55.2501 275.011 55.2001C274.371 55.1401 273.761 55.1501 273.081 54.8601C272.391 54.5701 271.381 54.4801 270.451 54.5001C270.071 54.5001 269.431 54.4301 269.141 54.2701C268.531 53.9701 267.901 53.6401 267.251 53.3901C266.591 53.1701 265.941 52.8501 265.321 52.5101C265.121 52.4001 264.931 52.2701 264.741 52.1401C264.581 51.9801 264.411 51.8101 264.261 51.6601C263.951 51.3501 263.681 51.0801 263.431 50.9801C263.011 50.7801 262.701 50.4901 262.391 50.2101C262.081 49.9201 261.801 49.6201 261.551 49.3101C261.181 48.8801 260.631 48.4401 260.591 47.8501C260.581 47.6901 260.271 47.2401 260.121 47.1401C259.231 46.6101 258.811 45.6101 258.231 44.8001C256.881 42.8401 255.491 40.9701 254.031 39.1401C253.401 38.4101 252.711 37.7601 252.021 37.1101C251.301 36.4901 250.591 35.8601 249.971 35.1101C248.851 34.5701 247.981 33.5901 247.061 32.7301C246.341 32.1201 245.671 31.4801 244.971 30.8401C244.611 30.5301 244.271 30.2201 243.871 29.9701C243.471 29.7201 243.071 29.4601 242.691 29.1401C242.211 28.7401 241.641 28.3801 241.031 28.0701C240.391 27.8101 239.731 27.5701 239.111 27.2801C238.781 27.1201 238.401 27.0201 238.051 26.8701C237.691 26.7401 237.341 26.6201 237.081 26.3401C237.011 26.2701 236.681 26.1701 236.541 26.1901C236.011 26.2401 235.471 26.1501 234.961 26.0001C234.441 25.8601 233.941 25.7301 233.531 25.5601C232.861 25.3101 232.171 25.1301 231.491 25.0101C230.791 24.9301 230.101 24.8801 229.411 24.7901C228.261 24.6001 227.081 24.6901 225.911 24.6101C225.071 24.5401 224.251 24.6801 223.361 24.5301C222.681 24.4301 221.791 24.6501 220.981 24.7501C220.171 24.8401 219.361 24.8801 218.551 24.9401L215.891 25.2101L213.221 25.5001C212.261 25.6101 211.291 25.7501 210.321 25.8101C209.401 25.8701 208.491 25.8101 207.571 25.8701C206.281 25.9601 205.021 26.1601 203.721 26.2801C202.441 26.4501 201.121 26.4701 199.801 26.3701C199.071 26.6701 198.381 26.3301 197.641 26.2201C196.951 26.1001 196.181 25.9101 195.401 26.0301C195.181 26.0801 194.811 25.9701 194.521 25.9001C193.851 25.7701 193.401 25.3101 192.601 25.2201C192.041 25.1401 191.301 24.6801 190.681 24.3701C190.001 24.0701 189.401 23.4701 188.681 23.4701C187.891 22.3401 186.421 22.3701 185.541 21.4301C185.261 21.1401 184.931 20.8601 184.631 20.5801C184.481 20.4401 184.331 20.2501 184.181 20.1601C181.241 18.6001 178.851 16.2701 176.071 14.6401C175.731 14.4401 175.351 14.3301 174.991 14.1601C174.821 14.0801 174.631 13.9801 174.481 13.8701C173.081 12.8101 173.071 12.8201 171.541 12.2601C171.151 12.1301 170.781 11.8901 170.391 11.7401C169.381 11.3401 168.431 10.8601 167.311 10.7001C166.741 10.6401 166.211 10.4101 165.681 10.1601C165.141 9.93013 164.611 9.62013 164.061 9.41013C163.571 9.23013 163.081 9.05013 162.571 8.89013C162.061 8.76013 161.521 8.64013 160.961 8.57013C158.111 8.27013 155.211 8.35013 152.351 8.75013C151.991 8.81013 151.491 8.81013 151.301 8.94013C150.541 9.45013 149.901 9.88013 148.981 9.39013C148.941 9.37013 148.641 9.43013 148.591 9.49013C147.981 10.0301 147.101 10.1401 146.331 10.3301C145.601 10.5201 144.941 10.8601 144.261 11.1501C143.591 11.4701 142.981 11.8701 142.341 12.2201C141.131 13.0501 139.971 13.8901 138.821 14.8101C138.441 15.1001 138.031 15.6001 137.751 15.7101C137.121 15.9301 137.251 16.4601 136.821 16.7601C136.471 17.0301 136.161 17.6301 135.831 17.8301C134.641 18.5901 133.811 19.8901 133.181 21.0401C132.581 22.1101 131.991 23.2401 131.231 24.0801C129.731 25.7301 128.531 27.6201 126.991 29.3201C125.421 31.0601 123.621 32.6701 121.631 33.9801C121.231 34.2701 120.771 34.4901 120.341 34.7201C119.901 34.9601 119.511 35.2501 119.181 35.6201C119.041 35.7601 118.621 35.9001 118.321 36.0001C117.621 36.2501 116.901 36.3901 116.201 36.6001C115.511 36.8201 114.881 37.2301 114.181 37.4301C113.621 37.6101 113.071 37.7001 112.521 38.0301C112.111 38.2701 111.321 38.2601 110.611 38.1701C110.261 38.1301 109.901 38.0901 109.541 38.0401C109.181 37.9801 108.821 37.9201 108.441 37.8801C107.691 37.7901 106.921 37.8101 106.061 37.8601C104.551 37.9601 103.011 37.9401 101.501 37.8601C100.861 37.8401 100.271 37.8001 99.5708 37.9501C98.9508 38.0701 97.9308 37.9001 97.2008 37.7101C96.0508 37.4301 95.0008 37.2501 93.8408 37.3201C93.4408 37.3501 92.9808 37.2801 92.5508 37.2201C89.9408 36.8201 87.3308 36.3701 84.7608 35.8001C84.1408 35.6701 83.4608 35.6001 83.0208 35.2201C82.5308 35.4501 81.9208 35.2201 81.4008 35.1101C80.6008 34.9401 79.8408 34.6601 79.0408 34.4901C78.5608 34.4001 78.0908 34.2801 77.6108 34.2801C77.1308 34.2801 76.6408 34.3101 76.1608 34.3901C75.2708 34.5401 74.2008 34.1301 73.2408 34.4101C73.0608 34.4701 72.6808 34.3001 72.4208 34.3301C71.3308 34.4601 70.1108 34.2101 69.1508 34.7301C69.0708 34.7801 68.8408 34.8201 68.7408 34.8001C67.4408 34.5501 66.2308 35.0801 65.0408 35.4101C63.7608 35.8901 62.4708 35.8401 61.1708 36.2001C59.7308 36.7201 58.3008 37.4001 56.8808 37.7601C55.6908 38.1601 54.5408 38.6601 53.4108 39.2001C52.3108 39.8001 51.2608 40.4801 50.1708 41.0901C48.0008 42.4401 45.9008 43.9401 43.9908 45.6401C43.1208 46.3301 42.4408 47.2401 41.6708 48.0301C41.2408 48.4701 40.7908 48.9001 40.3408 49.3301C39.9008 49.7701 39.5008 50.2401 39.0808 50.7001C38.3108 51.5801 37.5008 52.4201 36.8108 53.3601C36.4708 53.7901 36.2108 54.3501 35.6908 54.5601C35.5808 54.6001 35.3608 54.8601 35.3108 54.9901C34.9408 55.9601 34.4608 56.7801 33.6508 57.4701C33.4208 57.6701 33.2508 58.0701 33.0308 58.3301C32.4108 59.0801 32.3008 59.9601 31.9308 60.7701C31.6108 61.5201 30.9008 62.2001 31.0208 63.0501C31.0308 63.1601 30.8808 63.5301 30.7708 63.6201C30.1308 64.2101 29.8308 65.0601 29.6808 65.9001C29.6008 66.3201 29.5308 66.7401 29.4008 67.1301C29.2908 67.5301 29.1508 67.9101 28.8908 68.2501C29.1108 68.9501 28.5608 69.4901 28.5308 70.0001C28.4608 70.7301 28.5408 71.4401 28.4308 72.1901C28.3908 72.9001 28.2908 73.6101 28.3308 74.3201C28.3408 75.6101 28.2508 76.9501 28.7008 78.2101C28.8708 78.6301 29.0208 79.4201 28.8008 79.9901C28.7608 80.0901 28.8108 80.3701 28.8608 80.5501C29.2108 81.9401 29.3208 83.6701 28.8608 84.1901C28.5908 84.4801 28.1808 84.6201 27.7808 84.5501C27.5808 84.5201 27.2808 83.9101 27.0508 83.5301C26.6508 82.8701 26.1908 82.2501 25.9508 81.4701C25.6608 80.5401 25.5908 79.4901 25.4708 78.2401L25.4408 78.2101Z" fill="#A6843B"/>
<path d="M144.668 115.61C144.178 115.58 142.708 115.8 142.208 115.82C141.478 115.84 140.478 115.89 139.748 115.9C137.678 115.93 136.688 115.98 134.618 116.02C133.638 116.04 130.798 116.52 129.728 116.09C128.808 115.72 129.678 115.47 128.878 115.05C128.668 114.94 129.028 114.26 129.448 114.1C130.358 113.76 131.468 113.39 132.508 113.37C134.718 113.33 136.788 113.7 139.008 113.79C141.268 113.88 143.608 114.02 145.848 114.18C146.458 114.22 147.548 114.45 147.538 114.54C147.498 115.07 147.388 115.3 146.318 115.37C146.128 115.38 144.838 115.62 144.648 115.61H144.668Z" fill="#B09151"/>
<path d="M172.311 123.56C172.301 123.83 171.741 124.03 170.661 124.18C168.221 124.51 164.951 124.35 162.351 124.36C158.311 124.37 154.021 124.64 149.981 124.67C149.371 124.67 148.711 124.77 148.181 124.9C146.491 125.3 144.051 124.64 142.981 124.1C140.211 122.73 142.791 122.03 144.631 121.67C145.121 121.57 147.001 121.47 148.211 121.53C151.081 121.68 154.251 121.61 157.111 121.79C161.431 122.06 165.791 122.22 170.051 122.58C171.021 122.66 171.631 122.85 171.961 123.09C172.141 123.22 172.311 123.44 172.311 123.55V123.56Z" fill="#B09151"/>
<path d="M56.0487 59.04C59.0687 58.91 65.8687 59.1 61.9688 57.66C58.6388 56.43 54.5087 56.38 50.4187 56.46C48.0087 56.51 45.1688 56.46 43.9688 57.39C43.9887 58.72 47.7887 59.58 51.1087 59.36C52.7587 59.25 54.3888 59.12 56.0588 59.05L56.0487 59.04Z" fill="#B09151"/>
<path d="M88.7208 48.0001C83.6808 48.1901 75.2308 48.3201 71.6708 48.4601C68.2008 48.5901 64.7208 48.8401 61.2708 48.8101C59.5608 48.8001 57.6908 48.3301 56.3708 47.9501C55.9608 47.8301 57.1308 47.3101 57.6008 46.9801C59.5808 45.5701 63.9108 46.0801 67.6408 46.0701C71.6008 46.0601 82.1608 46.5201 86.1208 46.4601C90.7608 46.3901 91.3308 46.6801 89.6208 47.8501C89.3808 48.0101 88.1908 48.0801 88.7208 48.0001Z" fill="#B09151"/>
<path d="M66.7798 69.1199C66.7698 69.3899 66.2098 69.5899 65.1298 69.7399C62.6898 70.0699 59.4198 69.9099 56.8198 69.9199C52.7798 69.9299 48.4898 70.1999 44.4498 70.2299C43.8398 70.2299 43.1798 70.3299 42.6498 70.4599C40.9598 70.8599 38.5198 70.1999 37.4498 69.6599C34.6798 68.2899 37.2598 67.5899 39.0998 67.2299C39.5898 67.1299 41.4698 67.0299 42.6798 67.0899C45.5498 67.2399 48.7198 67.1699 51.5798 67.3499C55.8998 67.6199 60.2598 67.7799 64.5198 68.1399C65.4898 68.2199 66.0998 68.4099 66.4298 68.6499C66.6098 68.7799 66.7798 68.9999 66.7798 69.1099V69.1199Z" fill="#B09151"/>
<path d="M318.871 96.2501C319.181 96.2501 319.501 96.2501 319.811 96.2501C320.791 96.2501 321.751 96.1601 322.741 96.1601C325.901 96.1601 329.071 96.0901 332.231 96.0801C335.171 96.0801 338.131 96.0801 341.051 96.1701C341.581 96.1901 342.381 96.6501 342.301 96.8801C342.151 97.2701 341.691 97.8301 340.811 97.9601C339.471 98.1701 337.651 98.1301 336.061 98.1001C331.031 98.0001 328.821 97.7501 323.801 97.6501C322.421 97.6201 318.411 97.4301 317.021 97.4101C315.981 97.3901 315.061 97.3901 314.031 97.3101C313.901 97.3101 313.341 97.1401 313.341 97.1301C313.501 96.7001 313.111 96.9901 313.581 96.5901C313.861 96.3501 315.921 96.3301 316.471 96.3001C317.271 96.2601 318.071 96.2401 318.871 96.2401V96.2501Z" fill="#B09151"/>
<path d="M325.469 105.72C323.599 105.81 319.389 105.68 321.809 106.73C323.869 107.63 326.429 107.67 328.959 107.61C330.449 107.58 332.209 107.61 332.949 106.93C332.939 105.95 330.579 105.33 328.529 105.49C327.509 105.57 326.499 105.67 325.469 105.72Z" fill="#B09151"/>
<path d="M318.969 87.4802C318.969 87.3002 319.309 87.1702 319.959 87.0702C321.429 86.8502 323.399 86.9602 324.959 86.9502C327.389 86.9502 329.979 86.7702 332.409 86.7502C332.779 86.7502 333.179 86.6802 333.499 86.6002C334.519 86.3402 335.989 86.7702 336.629 87.1202C338.299 88.0302 336.749 88.4802 335.639 88.7202C335.339 88.7802 334.209 88.8502 333.489 88.8102C331.759 88.7102 329.849 88.7602 328.129 88.6402C325.529 88.4702 322.899 88.3602 320.329 88.1202C319.749 88.0702 319.379 87.9402 319.179 87.7802C319.069 87.6902 318.969 87.5502 318.969 87.4702V87.4802Z" fill="#B09151"/>
</svg>
