<svg width="32" height="32" viewBox="0 0 32 32" fill="none" xmlns="http://www.w3.org/2000/svg">
<g clip-path="url(#clip0_2001_24912)">
<circle cx="16" cy="16" r="16" fill="#A32244"/>
<path fill-rule="evenodd" clip-rule="evenodd" d="M24.1914 17.3673C24.4447 16.5608 24.5812 15.7026 24.5812 14.8125C24.5812 13.9225 24.4447 13.0643 24.1914 12.2578H25.1304C26.2349 12.2578 27.1304 13.1532 27.1304 14.2578V15.3673C27.1304 16.4719 26.2349 17.3673 25.1304 17.3673H24.1914Z" fill="white"/>
<path fill-rule="evenodd" clip-rule="evenodd" d="M7.94459 12.2578H7C5.89543 12.2578 5 13.1532 5 14.2578V15.3673C5 16.4719 5.89543 17.3673 7 17.3673H7.94459C7.69126 16.5608 7.55469 15.7026 7.55469 14.8125C7.55469 13.9225 7.69126 13.0643 7.94459 12.2578Z" fill="white"/>
<ellipse cx="15.9987" cy="14.8126" rx="6.81222" ry="6.81263" fill="white"/>
<path d="M15.6445 24.2189C15.6445 24.6678 16.009 25.0349 16.4566 25.0007C17.5763 24.915 18.6772 24.6525 19.7178 24.2214C21.0092 23.6865 22.1826 22.9024 23.171 21.9139C24.1594 20.9255 24.9435 19.752 25.4784 18.4605C26.0133 17.169 26.2886 15.7848 26.2886 14.387H24.6631C24.6631 15.5714 24.4298 16.7442 23.9766 17.8384C23.5234 18.9327 22.8591 19.9269 22.0216 20.7644C21.1842 21.6019 20.19 22.2663 19.0958 22.7195C18.2524 23.0689 17.3623 23.2876 16.4562 23.3695C16.0092 23.4099 15.6445 23.77 15.6445 24.2189Z" fill="white"/>
<path d="M12.7386 16.5232C12.4412 16.6737 12.3188 17.04 12.5098 17.3131C12.8411 17.787 13.2667 18.1901 13.7623 18.4961C14.4296 18.9082 15.1979 19.1279 15.9822 19.131C16.7665 19.1341 17.5364 18.9205 18.2071 18.5137C18.705 18.2117 19.1338 17.8119 19.4688 17.3407C19.662 17.0691 19.5425 16.7018 19.2463 16.549C18.9501 16.3961 18.5903 16.5174 18.3822 16.7778C18.1596 17.0564 17.8888 17.2951 17.5811 17.4817C17.1006 17.7732 16.5489 17.9262 15.987 17.924C15.425 17.9218 14.8745 17.7644 14.3963 17.4691C14.0902 17.2801 13.8213 17.0393 13.6008 16.7588C13.3948 16.4968 13.036 16.3727 12.7386 16.5232Z" fill="#A32244"/>
</g>
<defs>
<clipPath id="clip0_2001_24912">
<rect width="32" height="32" fill="white"/>
</clipPath>
</defs>
</svg>
