<svg width="32" height="32" viewBox="0 0 32 32" fill="none" xmlns="http://www.w3.org/2000/svg">
<g clip-path="url(#clip0_308_1735)">
<circle cx="16" cy="16" r="16" fill="#DC5064"/>
<path fill-rule="evenodd" clip-rule="evenodd" d="M24.1914 17.3673C24.4447 16.5608 24.5812 15.7026 24.5812 14.8125C24.5812 13.9225 24.4447 13.0643 24.1914 12.2578H25.1304C26.2349 12.2578 27.1304 13.1532 27.1304 14.2578V15.3673C27.1304 16.4719 26.2349 17.3673 25.1304 17.3673H24.1914Z" fill="white"/>
<path fill-rule="evenodd" clip-rule="evenodd" d="M7.94459 12.2578H7C5.89543 12.2578 5 13.1532 5 14.2578V15.3673C5 16.4719 5.89543 17.3673 7 17.3673H7.94459C7.69126 16.5608 7.55469 15.7026 7.55469 14.8125C7.55469 13.9225 7.69126 13.0643 7.94459 12.2578Z" fill="white"/>
<ellipse cx="15.9997" cy="14.8126" rx="6.81222" ry="6.81263" fill="white"/>
<path d="M15.6445 24.2186C15.6445 24.6675 16.009 25.0347 16.4566 25.0004C17.5763 24.9148 18.6772 24.6523 19.7178 24.2212C21.0092 23.6862 22.1826 22.9021 23.171 21.9137C24.1594 20.9252 24.9435 19.7518 25.4784 18.4603C26.0133 17.1688 26.2886 15.7846 26.2886 14.3867H24.6631C24.6631 15.5711 24.4298 16.7439 23.9766 17.8382C23.5234 18.9324 22.8591 19.9267 22.0216 20.7642C21.1842 21.6017 20.19 22.266 19.0958 22.7193C18.2524 23.0687 17.3623 23.2873 16.4562 23.3692C16.0092 23.4096 15.6445 23.7697 15.6445 24.2186Z" fill="white"/>
<path d="M12.7396 16.5232C12.4422 16.6737 12.3198 17.04 12.5108 17.3131C12.8421 17.787 13.2677 18.1901 13.7632 18.4961C14.4306 18.9082 15.1988 19.1279 15.9832 19.131C16.7675 19.1341 17.5374 18.9205 18.208 18.5137C18.7059 18.2117 19.1347 17.8119 19.4698 17.3407C19.6629 17.0691 19.5435 16.7018 19.2473 16.549C18.9511 16.3961 18.5913 16.5174 18.3832 16.7778C18.1605 17.0564 17.8897 17.2951 17.5821 17.4817C17.1016 17.7732 16.5499 17.9262 15.9879 17.924C15.4259 17.9218 14.8755 17.7644 14.3973 17.4691C14.0912 17.2801 13.8223 17.0393 13.6018 16.7588C13.3958 16.4968 13.0369 16.3727 12.7396 16.5232Z" fill="#DC5064"/>
</g>
<defs>
<clipPath id="clip0_308_1735">
<rect width="32" height="32" fill="white"/>
</clipPath>
</defs>
</svg>
