<svg width="206" height="174" viewBox="0 0 206 174" fill="none" xmlns="http://www.w3.org/2000/svg">
<path d="M29.31 85.7662C33.2 88.4005 34.86 83.1678 33.96 79.8989C35.72 81.0604 36.64 83.7905 37.29 86.5565C37.92 89.3465 38.31 92.1724 38.8 93.6093C39.07 94.2439 43.89 98.7102 49.94 104.745C52.97 107.763 56.29 111.151 59.63 114.696C62.98 118.252 66.34 121.988 69.56 126.143C69.84 126.514 70.13 126.921 70.44 127.352C70.75 127.771 71.08 128.203 71.4 128.658C72.05 129.568 72.69 130.573 73.27 131.579C74.47 133.507 75.39 135.567 75.37 137.267C75.36 138.165 74.36 138.165 72.95 137.746C72.25 137.542 71.45 137.231 70.63 136.884C69.83 136.489 69.01 136.058 68.24 135.65C67.16 135.243 61.54 131.759 60.15 130.669C59.78 130.394 59.4 130.13 59.05 129.855C58.7 129.556 58.36 129.268 58.02 128.981C57.34 128.394 56.68 127.807 56.05 127.209C54.81 125.975 53.66 124.718 52.59 123.449C51.56 122.132 50.58 120.85 49.69 119.533C48.83 118.192 47.99 116.887 47.25 115.57C44.24 110.265 42.16 105.068 39.81 100.135C39.01 98.4947 38.67 97.2853 38.25 96.2555C38.04 95.7406 37.82 95.2737 37.53 94.8067C37.24 94.3397 36.89 93.8607 36.4 93.3578C35.55 92.4837 34.25 91.5617 32.29 89.7895C29.87 87.6222 29.85 87.0354 28.93 86.0176L29.3 85.7662H29.31Z" fill="#CCEAE6"/>
<path d="M96.79 145.302C98.05 144.93 99.15 144.272 100 143.35C100.84 142.428 101.43 141.23 101.74 139.925C102.05 138.62 102.08 137.231 101.84 135.926C101.71 135.279 101.52 134.657 101.26 134.094C101 133.543 100.67 133.04 100.31 132.621C101.75 132.393 103.21 133.016 104.41 134.118C105.63 135.219 106.62 136.74 107.44 138.321C108.26 139.901 108.94 141.53 109.61 142.943C110.27 144.356 110.94 145.529 111.55 146.2C111.69 146.367 112.31 146.487 113.28 146.571C113.52 146.571 113.79 146.595 114.08 146.607C114.36 146.619 114.67 146.607 115 146.607C115.33 146.595 115.66 146.583 116.02 146.547C116.37 146.499 116.74 146.451 117.13 146.403C118.7 146.188 120.58 145.828 122.65 145.433C124.73 145.038 127.03 144.595 129.57 144.26C130.84 144.092 132.18 143.961 133.57 143.889C133.92 143.877 134.27 143.853 134.63 143.841C134.98 143.841 135.34 143.829 135.7 143.817C136.36 143.793 137.02 143.781 137.69 143.781C140.37 143.745 143.12 143.817 145.93 144.056C151.54 144.535 157.32 145.673 163.08 148.223C165.11 149.145 167.7 150.51 170 152.271C172.3 154.031 174.32 156.174 175.11 158.725C175.53 160.078 174.44 161.024 172.74 161.754C171.04 162.461 168.71 162.928 166.68 163.287C166.34 163.347 165.61 163.49 164.67 163.658C163.73 163.814 162.58 164.029 161.42 164.209C159.08 164.58 156.65 164.915 155.65 164.999C147.17 165.753 139.98 163.85 133.7 161.143C130.74 159.778 127.91 158.485 125.15 157.216C122.22 155.887 119.36 154.594 116.5 153.288C116.25 153.169 116.03 153.073 115.8 152.941C115.56 152.809 115.33 152.678 115.12 152.558C114.69 152.306 114.29 152.067 113.94 151.792C113.59 151.528 113.26 151.277 112.96 151.037C112.66 150.786 112.38 150.546 112.11 150.319C111.83 150.103 111.56 149.888 111.29 149.696C111.02 149.493 110.73 149.325 110.43 149.157C109.84 148.81 109.14 148.559 108.28 148.331C107.9 148.235 107.48 148.163 107.02 148.08C106.56 148.008 106.05 147.936 105.49 147.852C104.93 147.768 104.32 147.672 103.64 147.577C102.99 147.469 102.26 147.349 101.46 147.217C99.56 146.906 98.68 146.727 98.04 146.499C97.74 146.391 97.49 146.307 97.24 146.224C97.12 146.176 96.99 146.14 96.86 146.104C96.73 146.08 96.59 146.056 96.44 146.044L96.81 145.326L96.79 145.302Z" fill="#CCEAE6"/>
<path d="M58.22 82.2458C58.82 83.2516 59.52 83.982 60.19 84.461C60.88 84.9519 61.59 85.2034 62.27 85.2752C63.64 85.4309 64.96 84.916 66.14 84.1736C67.31 83.4312 68.4 82.4733 69.26 81.5273C69.71 81.0484 70.1 80.5814 70.41 80.1144C70.74 79.6474 71 79.1924 71.16 78.7493C72.15 79.8988 72.48 81.0603 72.54 82.3655C72.59 83.6587 72.37 85.1196 72.19 86.772C72 88.4125 71.88 90.2205 71.96 91.885C71.98 92.7231 72.09 93.5015 72.19 94.2079C72.33 94.8905 72.47 95.5011 72.67 95.9442C72.85 96.3633 74.99 97.417 78.23 98.0995C79.85 98.4468 81.73 98.6982 83.8 98.83C85.87 98.9736 88.11 99.0335 90.5 99.0455C95.26 99.0934 100.52 99.0096 106.02 99.6442C111.52 100.279 117.24 101.632 123.01 104.601C125.04 105.667 127.65 107.272 130.01 109.307C132.36 111.343 134.5 113.81 135.45 116.791C135.95 118.372 134.86 119.569 133.08 120.491C131.31 121.413 128.88 122 126.76 122.467C126.05 122.623 123.71 123.161 121.26 123.616C118.82 124.083 116.27 124.467 115.22 124.574C106.33 125.448 98.72 123.042 92.18 119.366C88.9 117.51 85.89 115.33 83.06 112.959C80.23 110.601 77.59 108.062 75.05 105.368C73.34 103.548 72.55 101.907 71.74 100.578C70.94 99.2131 70.13 98.1953 68.43 96.9859C68.06 96.7105 67.63 96.4591 67.17 96.1358C66.7 95.8244 66.16 95.4892 65.58 95.0461C64.4 94.196 63 93.0225 61.45 91.1186C60.96 90.5439 60.58 89.9811 60.24 89.4662C59.89 88.9513 59.61 88.4723 59.38 88.0173C59.15 87.5743 58.94 87.1671 58.78 86.784C58.63 86.4128 58.5 86.0655 58.38 85.7422C58.15 85.0956 58.01 84.5448 57.87 84.006C57.73 83.4671 57.56 82.9044 57.36 82.2697L58.2 82.2099L58.22 82.2458Z" fill="#CCEAE6"/>
<path d="M123.53 86.8199C124.33 88.2927 125.19 88.8675 125.9 88.9393C126.63 88.9992 127.23 88.5921 127.73 87.9934C128.25 87.3947 128.66 86.6283 129.01 85.862C129.35 85.0956 129.64 84.3293 129.77 83.5989C130.3 84.473 130.56 85.395 130.76 86.4128C130.96 87.4306 131.11 88.5801 131.38 89.8015C131.89 92.2322 132.98 94.8546 133.91 95.9322C134.13 96.1837 135.72 96.8183 138.19 97.2494C140.66 97.7044 144 97.9199 147.82 97.9798C151.65 98.0517 155.96 98.0038 160.49 98.2552C165.02 98.4947 169.77 99.0455 174.48 100.363C176.14 100.842 178.26 101.56 180.14 102.494C182.02 103.44 183.68 104.602 184.38 106.062C184.75 106.841 183.9 107.475 182.54 107.99C181.19 108.505 179.34 108.876 177.73 109.176C177.19 109.271 175.41 109.619 173.56 109.906C171.71 110.205 169.79 110.457 169 110.541C162.31 111.199 156.54 110.157 151.41 108.385C146.27 106.589 141.76 104.135 137.4 101.297C135.94 100.327 135.1 99.4167 134.31 98.6743C133.52 97.908 132.79 97.3093 131.51 96.6267C130.95 96.3154 130.28 96.016 129.44 95.5131C128.6 95.0222 127.57 94.3397 126.4 93.1063C124.96 91.5856 124.37 90.3283 123.97 89.4303C123.79 88.9633 123.64 88.5681 123.51 88.173C123.39 87.7659 123.26 87.3707 123.09 86.8918L123.51 86.8199H123.53Z" fill="#CCEAE6"/>
<path d="M21.54 10.2214C22.78 12.8796 24.67 13.2029 26.31 12.6042C27.14 12.3049 27.89 11.766 28.54 11.1314C29.19 10.4968 29.7 9.75437 29.96 9C31.06 11.1074 30.4 13.634 29.59 16.2444C28.78 18.8188 27.74 21.5369 27.67 23.0696C27.67 23.2492 27.85 23.7761 28.27 24.5664C28.47 24.9495 28.72 25.4165 28.99 25.9314C29.29 26.4343 29.62 26.9971 29.99 27.6198C30.35 28.2305 30.8 28.8651 31.23 29.5476C31.69 30.2182 32.18 30.9127 32.7 31.6311C33.76 33.056 34.95 34.5408 36.22 36.0376C38.82 39.0191 41.77 41.9528 44.86 45.102C47.95 48.2512 51.18 51.6638 54.24 55.9146C55.3 57.4354 56.66 59.459 57.74 61.6263C58.82 63.7817 59.64 66.0807 59.49 68.1402C59.34 70.3195 55.29 68.9305 52.18 67.5415C51.92 67.4218 51.36 67.1823 50.64 66.871C49.93 66.5357 49.05 66.1406 48.16 65.6975C46.39 64.8234 44.57 63.8056 43.84 63.3386C40.75 61.3868 38.11 58.98 35.93 56.3098C33.75 53.6276 32.02 50.7059 30.68 47.7124C29.33 44.7188 28.36 41.6654 27.64 38.6599C26.91 35.6544 26.42 32.6968 26 29.7871C25.73 27.8353 25.81 26.5062 25.81 25.3327C25.77 24.1593 25.68 23.1295 25.05 21.6926C24.8 21.058 24.43 20.3515 23.95 19.4414C23.51 18.5314 22.94 17.4178 22.37 15.945C22.02 15.0469 21.77 14.3285 21.61 13.7298C21.45 13.1431 21.36 12.6761 21.3 12.2689C21.18 11.4667 21.14 10.9278 21 10.1375L21.53 10.1974L21.54 10.2214Z" fill="#CCEAE6"/>
</svg>
