<svg width="300" height="150" viewBox="0 0 300 150" fill="none" xmlns="http://www.w3.org/2000/svg">
<path d="M13.38 27.7689C17.27 29.9346 18.93 25.6327 18.03 22.9453C19.79 23.9002 20.71 26.1446 21.36 28.4186C21.99 30.7123 22.38 33.0354 22.87 34.2167C23.14 34.7385 27.96 38.4103 34.01 43.3717C37.04 45.8524 40.36 48.6382 43.7 51.5521C47.05 54.4757 50.41 57.5471 53.63 60.9629C53.91 61.2681 54.2 61.6028 54.51 61.9572C54.82 62.3017 55.15 62.6561 55.47 63.0302C56.12 63.7783 56.76 64.6052 57.34 65.4321C58.54 67.017 59.46 68.7102 59.44 70.108C59.43 70.8463 58.43 70.8463 57.02 70.5018C56.32 70.3345 55.52 70.0785 54.7 69.793C53.9 69.4682 53.08 69.1138 52.31 68.7791C51.23 68.4444 45.61 65.5798 44.22 64.684C43.85 64.4576 43.47 64.241 43.12 64.0146C42.77 63.7685 42.43 63.5322 42.09 63.296C41.41 62.8136 40.75 62.3313 40.12 61.8391C38.88 60.8251 37.73 59.7915 36.66 58.748C35.63 57.6652 34.65 56.6119 33.76 55.529C32.9 54.4265 32.06 53.3535 31.32 52.2707C28.31 47.9098 26.23 43.6375 23.88 39.5817C23.08 38.2331 22.74 37.2388 22.32 36.3923C22.11 35.969 21.89 35.585 21.6 35.2011C21.31 34.8172 20.96 34.4235 20.47 34.01C19.62 33.2914 18.32 32.5334 16.36 31.0765C13.94 29.2947 13.92 28.8124 13 27.9756L13.37 27.7689H13.38Z" fill="#CCEAE6"/>
<path d="M216.15 87.678C218.3 87.3925 219.15 86.1817 219.11 84.8035C219.07 83.4253 218.12 81.8798 216.87 81.0234C217.89 80.9151 218.97 81.1907 220.04 81.6829C220.57 81.929 221.1 82.2342 221.62 82.5689C221.88 82.7363 222.14 82.9135 222.39 83.1005C222.64 83.2974 222.88 83.5041 223.12 83.7108C225.02 85.3843 226.63 87.1661 227.62 88.0422C227.74 88.1406 228.21 88.2784 228.98 88.4655C229.37 88.5639 229.82 88.6722 230.35 88.8002C230.61 88.8691 230.89 88.9282 231.19 89.0069C231.49 89.0758 231.78 89.1841 232.1 89.2825C233.37 89.6861 234.9 90.1586 236.59 90.8083C237.41 91.1627 238.28 91.5467 239.19 91.9601C239.64 92.1767 240.11 92.3932 240.58 92.6098C241.05 92.8362 241.5 93.1118 241.97 93.3776C242.91 93.9191 243.88 94.49 244.87 95.1102C245.82 95.7796 246.77 96.4884 247.75 97.2365C247.99 97.4235 248.23 97.6106 248.48 97.8074C248.72 98.0043 248.94 98.2209 249.18 98.4276C249.64 98.8509 250.1 99.2742 250.57 99.7172C251.03 100.16 251.5 100.593 251.94 101.066C252.37 101.548 252.8 102.04 253.22 102.542C256.61 106.529 259.26 111.52 260.27 116.777C260.35 117.24 260.46 117.722 260.52 118.253C260.57 118.775 260.62 119.317 260.65 119.868C260.68 120.419 260.7 120.97 260.69 121.522C260.66 122.083 260.62 122.634 260.55 123.166C260.48 123.697 260.4 124.209 260.29 124.691C260.16 125.184 260 125.637 259.83 126.05C259.47 126.877 259.03 127.536 258.47 127.94C257.88 128.363 257.23 127.625 256.59 126.463C256.29 125.873 255.92 125.194 255.57 124.485C255.4 124.13 255.23 123.766 255.06 123.412C254.89 123.057 254.69 122.713 254.51 122.378C254.39 122.152 254.13 121.679 253.8 121.059C253.48 120.449 252.99 119.73 252.55 119.002C252.32 118.637 252.11 118.263 251.87 117.919C251.63 117.574 251.39 117.249 251.18 116.934C250.76 116.324 250.4 115.812 250.2 115.517C249.73 114.907 249.29 114.306 248.87 113.706C248.66 113.4 248.46 113.105 248.25 112.81C248.03 112.524 247.82 112.239 247.6 111.963C247.18 111.392 246.78 110.831 246.39 110.27C245.99 109.719 245.57 109.197 245.18 108.656C244.79 108.114 244.41 107.583 244.04 107.061C243.64 106.559 243.25 106.047 242.87 105.545C242.49 105.043 242.14 104.521 241.76 104.039C241.37 103.556 240.99 103.084 240.61 102.601C240.24 102.119 239.87 101.637 239.5 101.164C239.12 100.702 238.72 100.259 238.34 99.8058C237.95 99.353 237.57 98.9001 237.19 98.4572C237 98.2307 236.81 98.0043 236.62 97.7878C236.42 97.581 236.21 97.3743 236.01 97.1676C235.2 96.3407 234.38 95.5138 233.55 94.6967C232.69 93.9289 231.79 93.2103 230.88 92.4917C229.68 91.5073 228.89 90.8379 228.15 90.2571C227.4 89.6861 226.66 89.253 225.42 88.9774C224.31 88.7903 222.81 88.8002 220.43 88.623C219.71 88.5541 219.12 88.5541 218.67 88.5147C218.21 88.4753 217.86 88.4261 217.56 88.367C216.97 88.2587 216.59 88.1406 216 88.0717L216.17 87.6878L216.15 87.678Z" fill="#CCEAE6"/>
<path d="M200.273 55.6064C202.213 54.6811 202.863 53.0765 202.593 51.5211C202.463 50.7435 202.113 49.9855 201.613 49.3358C201.113 48.6959 200.463 48.184 199.773 47.8887C201.743 47.0027 204.183 47.9084 206.263 49.2078C208.363 50.4974 210.153 52.1708 211.283 52.7516C211.553 52.8993 213.203 52.7221 215.813 52.6335C218.423 52.5449 221.993 52.5252 226.063 52.9387C228.093 53.1454 230.253 53.4506 232.473 53.9231C233.033 54.0314 233.583 54.1692 234.153 54.2972C234.433 54.3661 234.713 54.435 235.003 54.5039C235.303 54.5925 235.593 54.6712 235.893 54.7598C237.093 55.1044 238.273 55.5178 239.433 55.9805C241.753 56.9157 243.963 58.0576 245.973 59.3078C247.993 60.558 249.803 61.8967 251.563 63.2749C252.793 64.2691 254.343 65.5784 255.833 66.8975C256.203 67.2519 256.573 67.5669 256.913 67.9114C257.263 68.2461 257.593 68.6301 257.893 68.9648C258.503 69.6538 258.993 70.3921 259.243 71.16C259.513 71.9672 258.553 72.42 257.013 72.6464C255.493 72.8236 253.403 72.6956 251.653 72.4003C251.053 72.3216 249.113 71.977 247.173 71.4947C245.233 71.0123 243.353 70.4118 242.593 70.1657C239.383 69.0632 236.803 67.8425 234.453 66.6809C233.863 66.3856 233.303 66.11 232.743 65.8147C232.183 65.5292 231.643 65.2536 231.103 64.9681C229.973 64.3873 228.843 63.7868 227.763 63.1962C223.413 60.8041 219.493 58.3627 215.293 56.581C213.883 55.9903 213.023 55.4194 212.183 55.0256C211.353 54.622 210.553 54.3956 209.293 54.4842C208.193 54.5728 206.743 54.9862 204.413 55.508C201.593 56.1774 201.293 55.9017 200.173 56.0789L200.263 55.5966L200.273 55.6064Z" fill="#CCEAE6"/>
<path d="M80.8578 76.7131C82.1178 76.408 83.2178 75.8665 84.0678 75.1085C84.9078 74.3506 85.4978 73.3661 85.8078 72.2931C86.1178 71.2202 86.1478 70.0782 85.9078 69.0052C85.7778 68.4737 85.5878 67.9618 85.3278 67.4991C85.0678 67.0463 84.7378 66.6328 84.3778 66.2883C85.8178 66.1013 87.2778 66.6132 88.4778 67.5188C89.6978 68.4245 90.6878 69.6746 91.5078 70.9741C92.3278 72.2735 93.0078 73.6123 93.6778 74.7738C94.3378 75.9354 95.0078 76.9002 95.6178 77.4514C95.7578 77.5892 96.3778 77.6877 97.3478 77.7566C97.5878 77.7566 97.8578 77.7763 98.1478 77.7861C98.4278 77.796 98.7378 77.7861 99.0678 77.7861C99.3978 77.7763 99.7278 77.7664 100.088 77.7369C100.438 77.6975 100.808 77.6581 101.198 77.6188C102.768 77.4416 104.648 77.1463 106.718 76.8214C108.798 76.4966 111.098 76.1323 113.638 75.8567C114.908 75.7189 116.248 75.6106 117.638 75.5515C117.988 75.5417 118.338 75.522 118.698 75.5122C119.048 75.5122 119.408 75.5023 119.768 75.4925C120.428 75.4728 121.088 75.4629 121.758 75.4629C124.438 75.4334 127.188 75.4925 129.998 75.6894C135.608 76.0831 141.388 77.0183 147.148 79.1151C149.178 79.8731 151.768 80.9953 154.068 82.4424C156.368 83.8894 158.388 85.6515 159.178 87.7483C159.598 88.8607 158.508 89.6383 156.808 90.2388C155.108 90.8196 152.778 91.2035 150.748 91.4989C150.408 91.5481 149.678 91.6662 148.738 91.804C147.798 91.932 146.648 92.1092 145.488 92.2568C143.148 92.562 140.718 92.8376 139.718 92.9065C131.238 93.5267 124.048 91.9615 117.768 89.7368C114.808 88.6145 111.978 87.5514 109.218 86.5079C106.288 85.4152 103.428 84.3521 100.568 83.2791C100.318 83.1806 100.098 83.1019 99.8678 82.9936C99.6278 82.8853 99.3978 82.777 99.1878 82.6786C98.7578 82.4719 98.3578 82.275 98.0078 82.0486C97.6578 81.832 97.3278 81.6253 97.0278 81.4284C96.7278 81.2217 96.4478 81.0248 96.1778 80.8378C95.8978 80.6606 95.6278 80.4834 95.3578 80.3259C95.0878 80.1585 94.7978 80.0207 94.4978 79.8829C93.9078 79.5974 93.2078 79.3907 92.3478 79.2037C91.9678 79.1249 91.5478 79.0659 91.0878 78.9969C90.6278 78.9379 90.1178 78.8788 89.5578 78.8099C88.9978 78.741 88.3878 78.6622 87.7078 78.5835C87.0578 78.4949 86.3278 78.3965 85.5278 78.2882C83.6278 78.0322 82.7478 77.8846 82.1078 77.6975C81.8078 77.6089 81.5578 77.54 81.3078 77.4711C81.1878 77.4317 81.0578 77.4022 80.9278 77.3727C80.7978 77.353 80.6578 77.3333 80.5078 77.3234L80.8778 76.7328L80.8578 76.7131Z" fill="#CCEAE6"/>
<path d="M123.873 68.6319C129.073 65.0585 126.823 57.3802 123.703 55.6279C128.373 52.3695 134.733 60.2349 137.573 61.554C137.913 61.7115 139.903 60.9929 143.053 60.0479C146.203 59.1127 150.523 57.9216 155.543 57.262C160.563 56.6025 166.323 56.4351 172.153 57.5672C177.973 58.6894 183.873 61.1209 188.723 65.3144C189.153 65.6885 189.593 66.0921 190.043 66.5351C190.493 66.9781 190.943 67.4801 191.393 68.0019C192.283 69.0453 193.143 70.1971 193.863 71.4177C195.283 73.9083 196.133 76.6252 195.703 79.1748C195.473 80.5235 194.153 80.9467 192.473 80.9566C191.633 80.9566 190.693 80.8582 189.743 80.7105C188.783 80.5924 187.803 80.4349 186.893 80.2872C186.593 80.238 185.933 80.1395 185.103 80.0116C184.263 79.9131 183.233 79.7852 182.193 79.6572C181.673 79.5981 181.153 79.5292 180.653 79.4701C180.143 79.4209 179.653 79.3717 179.203 79.3323C178.293 79.2437 177.543 79.165 177.113 79.1158C176.203 78.9878 175.303 78.8598 174.423 78.722C173.553 78.5743 172.703 78.407 171.873 78.2101C170.203 77.8557 168.623 77.4324 167.103 76.9402C165.563 76.4776 164.113 75.9361 162.683 75.375C161.253 74.8238 159.873 74.2134 158.513 73.6031C153.083 71.1519 148.083 68.435 142.793 66.7812C139.253 65.6787 138.363 64.0347 135.273 65.0093C133.933 65.4424 132.183 66.5154 129.253 67.8542C125.683 69.5178 125.223 69.006 123.733 69.4588L123.873 68.6417V68.6319Z" fill="#CCEAE6"/>
<path d="M42.2897 24.8745C42.8897 25.7014 43.5897 26.3018 44.2597 26.6956C44.9497 27.0992 45.6597 27.3059 46.3397 27.365C47.7097 27.493 49.0297 27.0697 50.2097 26.4593C51.3797 25.849 52.4697 25.0615 53.3297 24.2838C53.7797 23.8901 54.1697 23.5061 54.4797 23.1222C54.8097 22.7383 55.0697 22.3642 55.2297 22C56.2197 22.945 56.5497 23.8999 56.6097 24.9729C56.6597 26.0361 56.4397 27.237 56.2597 28.5955C56.0697 29.9441 55.9497 31.4306 56.0297 32.7989C56.0497 33.488 56.1597 34.1278 56.2597 34.7086C56.3997 35.2697 56.5397 35.7718 56.7397 36.136C56.9197 36.4806 59.0597 37.3468 62.2997 37.9079C63.9197 38.1934 65.7997 38.4002 67.8697 38.5084C69.9397 38.6266 72.1797 38.6758 74.5697 38.6856C79.3297 38.725 84.5897 38.6561 90.0897 39.1778C95.5897 39.6996 101.31 40.8119 107.08 43.2533C109.11 44.1294 111.72 45.4485 114.08 47.122C116.43 48.7954 118.57 50.8233 119.52 53.2745C120.02 54.5739 118.93 55.5583 117.15 56.3163C115.38 57.0743 112.95 57.5566 110.83 57.9405C110.12 58.0685 107.78 58.5115 105.33 58.8856C102.89 59.2695 100.34 59.5845 99.2897 59.6731C90.3997 60.3917 82.7897 58.4131 76.2497 55.3909C72.9697 53.8651 69.9597 52.0735 67.1297 50.1244C64.2997 48.1851 61.6597 46.0982 59.1197 43.8833C57.4097 42.387 56.6197 41.0383 55.8097 39.9457C55.0097 38.8234 54.1997 37.9867 52.4997 36.9925C52.1297 36.766 51.6997 36.5593 51.2397 36.2935C50.7697 36.0376 50.2297 35.7619 49.6497 35.3977C48.4697 34.6988 47.0697 33.7341 45.5197 32.1689C45.0297 31.6964 44.6497 31.2337 44.3097 30.8104C43.9597 30.3871 43.6797 29.9934 43.4497 29.6193C43.2197 29.2551 43.0097 28.9203 42.8497 28.6053C42.6997 28.3002 42.5697 28.0147 42.4497 27.7489C42.2197 27.2173 42.0797 26.7645 41.9397 26.3215C41.7997 25.8785 41.6297 25.4159 41.4297 24.8941L42.2697 24.8449L42.2897 24.8745Z" fill="#CCEAE6"/>
<path d="M107.596 28.6363C108.396 29.8471 109.256 30.3197 109.966 30.3787C110.696 30.4279 111.296 30.0932 111.796 29.601C112.316 29.1088 112.726 28.4788 113.076 27.8488C113.416 27.2188 113.706 26.5888 113.836 25.9883C114.366 26.7069 114.626 27.4649 114.826 28.3016C115.026 29.1384 115.176 30.0834 115.446 31.0875C115.956 33.0858 117.046 35.2417 117.976 36.1276C118.196 36.3344 119.786 36.8561 122.256 37.2105C124.726 37.5845 128.066 37.7617 131.886 37.811C135.716 37.87 140.026 37.8306 144.556 38.0374C149.086 38.2342 153.836 38.6871 158.546 39.7699C160.206 40.1637 162.326 40.7543 164.206 41.5222C166.086 42.2998 167.746 43.2547 168.446 44.4557C168.816 45.0955 167.966 45.6173 166.606 46.0406C165.256 46.4639 163.406 46.769 161.796 47.0151C161.256 47.0939 159.476 47.3793 157.626 47.6156C155.776 47.8617 153.856 48.0684 153.066 48.1373C146.376 48.6788 140.606 47.8223 135.476 46.3654C130.336 44.8888 125.826 42.8708 121.466 40.5377C120.006 39.7404 119.166 38.9922 118.376 38.3819C117.586 37.7519 116.856 37.2597 115.576 36.6986C115.016 36.4426 114.346 36.1965 113.506 35.7831C112.666 35.3795 111.636 34.8184 110.466 33.8044C109.026 32.5542 108.436 31.5206 108.036 30.7823C107.856 30.3984 107.706 30.0736 107.576 29.7487C107.456 29.414 107.326 29.0891 107.156 28.6954L107.576 28.6363H107.596Z" fill="#CCEAE6"/>
<path d="M254.31 90.0499C255.99 89.1935 257.38 87.5988 257.94 85.8072C258.22 84.9212 258.3 84.0057 258.18 83.169C258.06 82.3322 257.69 81.6234 257.21 81.1411C257.71 80.9836 258.21 80.9639 258.71 81.0525C259.2 81.1312 259.65 81.3675 260.08 81.6431C260.94 82.2239 261.64 83.1296 262.16 84.114C263.22 86.0926 263.56 88.3174 264.05 89.2329C264.11 89.3412 264.5 89.479 265.13 89.6955C265.77 89.9023 266.65 90.1976 267.73 90.6111C269.87 91.438 272.73 92.8161 275.6 94.903C278.47 96.9703 281.33 99.7266 283.51 103.005C285.7 106.293 287.21 110.083 287.51 114.247C287.71 117.2 287.28 121.994 284.5 124.553C283.02 125.912 280.8 123.283 279.12 121.305C278.55 120.655 275.38 117.003 274.57 116.068C271.3 112.061 269.7 108.192 268.43 104.481C267.16 100.8 266.23 97.1967 264.38 94.1943C263.76 93.2 263.51 92.3928 263.15 91.7628C262.8 91.1229 262.33 90.6701 261.32 90.4339C260.87 90.3453 260.3 90.3256 259.61 90.3157C258.9 90.3453 258.07 90.365 257.1 90.4732C256.53 90.5323 256.09 90.5717 255.75 90.6012C255.42 90.6307 255.18 90.611 254.99 90.6012C254.61 90.6012 254.39 90.5225 254 90.5815L254.29 90.0499H254.31Z" fill="#CCEAE6"/>
<path d="M135.107 106.846C137.387 107.801 138.717 106.866 139.417 105.576C139.767 104.917 139.977 104.159 140.037 103.43C140.107 102.702 140.077 101.973 139.857 101.383C141.597 102.033 142.477 103.785 143.447 105.694C144.377 107.604 145.427 109.632 146.287 110.489C146.387 110.587 146.837 110.715 147.537 110.892C147.887 110.981 148.317 111.04 148.797 111.128C149.277 111.217 149.817 111.296 150.417 111.365C151.597 111.532 152.997 111.64 154.527 111.739C156.067 111.808 157.737 111.877 159.527 111.886C161.307 111.886 163.187 111.886 165.157 111.896C167.117 111.896 169.157 111.896 171.247 111.975C175.427 112.123 179.817 112.467 184.267 113.53C185.837 113.914 187.847 114.505 189.657 115.302C191.467 116.109 193.067 117.123 193.757 118.433C194.487 119.811 190.627 120.726 187.607 121.317C187.097 121.415 185.427 121.77 183.687 122.075C181.947 122.39 180.117 122.666 179.367 122.764C172.997 123.522 167.407 122.675 162.507 121.11C157.597 119.535 153.397 117.281 149.397 114.918C148.737 114.505 148.197 114.141 147.757 113.776C147.317 113.412 146.947 113.087 146.577 112.802C145.867 112.192 145.167 111.758 143.937 111.365C142.867 111.01 141.347 110.804 138.917 109.809C138.547 109.652 138.217 109.514 137.927 109.376C137.647 109.229 137.397 109.091 137.167 108.953C136.727 108.687 136.387 108.471 136.117 108.254C135.587 107.821 135.287 107.496 134.727 107.092L135.097 106.827L135.107 106.846Z" fill="#CCEAE6"/>
<path d="M163.8 102.998C165.67 101.728 166.13 99.7989 165.79 98.0565C165.45 96.3141 164.32 94.7391 163.07 94.178C164.79 93.0262 166.99 93.7449 168.99 94.8868C171 96.0188 172.83 97.5643 173.94 97.9975C174.2 98.1057 175.71 97.5939 178.07 96.9146C180.43 96.2255 183.67 95.379 187.36 94.7391C191.05 94.0992 195.19 93.6759 199.39 93.8137C203.61 93.9516 207.89 94.6308 212.11 96.2649C213.6 96.8752 215.49 97.7317 217.19 98.8933C218.88 100.015 220.39 101.423 221.02 103.107C221.35 104.002 220.56 104.632 219.31 105.125C218.68 105.371 217.94 105.587 217.17 105.764C216.4 105.932 215.6 106.07 214.85 106.207C213.85 106.434 208.22 107.32 206.75 107.458C200.56 108.078 195.42 107.044 190.86 105.686C186.29 104.307 182.27 102.555 178.14 101.492C175.37 100.783 174.64 99.6709 172.31 100.37C171.3 100.675 169.99 101.413 167.83 102.368C165.19 103.54 164.84 103.225 163.74 103.559L163.81 102.998H163.8Z" fill="#CCEAE6"/>
</svg>
