<svg width="420" height="320" viewBox="0 0 420 320" fill="none" xmlns="http://www.w3.org/2000/svg">
<path d="M175.14 172.23C168.38 170.55 157.63 172.41 150.94 174.2C146.75 175.3 148.81 175.09 146.23 174.95C141.63 174.73 135.94 175.41 132.09 177.96C133.02 178.35 134.38 178.94 135.86 179.65C123.56 185.98 117.1 195.3 109.23 206.45C106.43 207.58 103.81 204.11 90.8496 212.96C94.3196 213.52 98.3896 213.12 101.88 212.56C103.51 212.31 103.27 212.2 103.01 212.66C101.34 215.66 98.5896 221.16 98.2796 224.58C105.76 219.87 108.07 216.29 111.18 208.9C125.62 200.96 131.81 198.48 143.25 196.57C143 201.43 145.36 198.82 148.65 195.99C151.04 193.94 149.34 195.15 155.3 192.29C175.79 182.45 176.31 173.83 175.13 172.21L175.14 172.23Z" fill="#B2E0DA"/>
<path d="M135.01 173.779C137.83 168.969 131.1 164.039 127.5 163.849C128.82 161.539 132.29 161.639 134.95 161.809C144.72 162.539 142.43 163.769 146.91 158.649C156.09 148.249 168.54 133.899 186.87 127.009C195.21 123.949 195.7 125.659 195.22 128.379C194.61 131.809 190.72 138.709 188.83 141.639C179.75 155.579 166.57 159.099 150.54 163.529C148.66 164.039 146.99 164.109 145.8 164.479C143.12 165.319 142.67 167.189 139.65 170.839C137.37 173.589 136.52 173.479 135.36 174.449L135.01 173.779Z" fill="#B2E0DA"/>
<path d="M106.31 170.04C106.83 167.14 102.7 166.35 100.41 167.5C100.75 165.62 103.78 164.44 105.59 163.81C110.97 161.97 107.82 163.64 112.44 157.26C123.18 142.28 138.27 140.22 142.43 142.75C143.03 143.12 142.72 143.73 142.02 144.41C141.77 144.65 134.48 150.24 134.47 150.24C130.93 152.91 127.18 154.88 123.53 156.59C111.45 162.26 114.86 160.96 112.15 162.29C109.17 163.76 109.65 163.99 108.18 167.54C107.43 169.44 107.03 169.52 106.61 170.26L106.3 170.03L106.31 170.04Z" fill="#B2E0DA"/>
<path d="M173.51 126.87C174.71 124.14 170.76 122.42 168.57 122.85C169.63 120.39 175.64 120.85 177.54 120.36C178.42 120.13 185.56 109.04 198.58 105.89C202.57 104.93 209.36 104.66 212.02 107.21C213 108.15 210.48 109.29 209.28 109.91C203.68 112.74 202.31 114.05 196.42 116.09C191.56 117.78 186.44 118.7 182.05 120.31C179.91 121.09 178.86 120.87 177.72 122.15C177.23 122.71 176.77 123.6 175.85 124.94C174.72 126.58 174.31 126.57 173.75 127.18L173.51 126.88V126.87Z" fill="#B2E0DA"/>
<path d="M185.819 171.96C189.249 166.47 180.329 160.58 177.939 160.05C179.259 157.75 181.999 158 184.949 158.19C193.829 158.74 193.569 158.1 194.089 157.24C198.209 150.4 202.729 130.12 224.099 118.65C228.389 116.37 235.589 113.39 240.459 113.68C244.859 113.94 239.809 123.77 237.809 127.73C228.939 145.24 218.539 147.61 201.999 157.48C198.379 159.63 196.349 159.09 194.499 162.01C193.589 163.44 191.929 168.22 188.949 170.85C187.949 171.73 187.249 171.95 186.269 172.74L185.829 171.97L185.819 171.96Z" fill="#B2E0DA"/>
<path d="M229.531 163.311C230.761 158.301 224.711 154.121 220.871 154.731C221.881 151.001 228.321 151.551 232.021 151.921C235.771 152.321 235.351 152.29 236.411 151.15C240.791 146.431 243.181 143.761 249.741 138.691C267.751 124.801 285.201 129.461 289.491 135.691C290.851 137.691 287.421 139.211 285.191 140.321C275.271 145.081 271.341 149.991 250.541 152.531C241.181 153.681 242.951 153.811 240.171 154.021C236.491 154.321 236.141 154.251 233.651 158.771C230.691 164.051 230.921 162.57 229.951 163.93L229.541 163.301L229.531 163.311Z" fill="#B2E0DA"/>
<path d="M256.29 129.919C257.36 125.319 252 122.469 249.83 122.779C250.54 119.729 255.01 119.999 258.53 118.979C259.75 118.629 259.6 118.729 260.73 115.389C263.13 108.039 265.7 100.289 270.21 94.0187C277.17 84.3887 286.13 77.4287 290.57 80.0987C290.57 80.0987 290.12 90.0987 285.35 96.9687C277.62 107.739 271.36 111.269 264.52 117.489C261.93 119.909 260.9 118.729 259.67 123.539C258.17 129.319 257.4 129.109 256.64 130.439L256.3 129.939L256.29 129.919Z" fill="#B2E0DA"/>
<path d="M276.359 118.69C277.689 115.96 273.809 114.15 271.359 114.64C272.649 112 279.099 112.66 281.029 112.27C281.439 112.19 282.279 110.99 288.759 105.44C304.969 91.8601 312.729 82.0201 310.889 90.7101C309.649 96.5901 306.689 102.83 301.679 106.22C296.229 110.05 291.079 110.8 285.789 112.43C282.719 113.37 282.069 112.63 280.139 115.17C277.209 119.03 277.489 118.08 276.589 119L276.359 118.7V118.69Z" fill="#B2E0DA"/>
<path d="M66.6511 209.129C68.2311 206.329 64.0311 204.639 61.3711 205.199C62.5011 203.159 67.0011 202.859 69.5211 202.629C72.4911 202.359 71.6611 202.629 74.5011 200.009C91.1811 184.629 107.951 183.249 112.041 185.469C113.451 186.239 109.861 188.429 108.351 189.409C101.901 193.649 98.3511 196.099 89.1811 198.769C84.9111 200.009 80.8411 200.899 77.0411 202.169C74.5011 203.019 73.3311 202.819 71.8911 204.159C71.2711 204.749 70.6611 205.669 69.4711 207.069C68.0311 208.789 67.5711 208.789 66.8811 209.429L66.6311 209.129H66.6511Z" fill="#B2E0DA"/>
<path d="M166.67 203.431C167.41 203.281 168.07 202.871 168.25 202.141C168.61 200.681 166.49 197.241 166.16 196.851C167.08 196.711 167.84 197.131 168.92 197.711C170.48 198.551 173.04 199.531 174.77 199.441C176.93 199.391 186.36 185.871 198.57 180.411C204.93 177.621 208.8 178.291 208.59 179.551C208.44 180.431 206.69 182.151 205.84 183.061C201.3 187.861 198.01 192.971 185.2 197.881C176.25 201.281 176.57 199.931 174.47 201.251C173.56 201.791 172.73 202.671 170.61 203.491C168.89 204.091 168.13 203.901 166.94 203.851C166.65 203.831 166.71 203.931 166.68 203.441L166.67 203.431Z" fill="#B2E0DA"/>
<path d="M369.469 50.2592C356.269 66.0992 367.429 60.5392 351.389 67.3592C349.459 68.2492 347.609 69.1792 345.949 70.5492C347.979 69.4992 351.149 69.2192 352.959 71.3392C356.069 74.9892 353.669 81.1392 355.689 85.9092C357.499 80.6792 356.589 71.4892 363.699 63.9892C399.719 60.7892 412.179 34.1692 412.179 34.1692C405.409 29.4292 395.659 31.5292 389.369 34.2892C389.369 34.2892 378.219 38.4792 369.469 50.2592Z" fill="#B2E0DA"/>
<path d="M300.26 76.6893C300.98 74.2193 297.67 72.1793 295.92 72.3793C296.56 70.1193 301.39 71.1493 302.91 70.8093C303.88 70.5993 308.92 58.2493 322.29 54.0593C326.13 52.7793 326.6 53.7393 325.35 56.8993C321.64 66.2193 315.61 68.6093 304.59 71.6193C303.11 72.0293 303.1 72.9393 301.99 75.0493C301.22 76.5193 300.89 76.4693 300.49 76.9993L300.27 76.6893H300.26Z" fill="#B2E0DA"/>
<path d="M56.3896 244.18C54.6196 241.94 51.1496 243.19 50.3896 245.69C49.2696 244.18 50.4696 241.35 53.3496 238.92C55.6496 236.97 54.5796 238.44 55.6196 234.77C59.9496 219.58 77.2396 213.28 83.0296 216.32C84.3496 217.02 81.7396 219.13 80.5496 220.16C79.2396 221.3 76.8096 223.54 76.3596 223.94C69.8296 229.63 63.1196 231.57 58.6896 235.76C56.8396 237.52 55.7296 237.66 56.0696 240.23C56.2696 241.76 56.6396 242.62 56.6996 243.84C56.7196 244.31 56.9496 244.23 56.3896 244.18Z" fill="#B2E0DA"/>
<path d="M238.6 72.0703C238.07 70.9903 236.38 70.7703 235.68 71.3903C235.16 70.1903 237.93 69.4003 238.14 69.2803C238.21 69.2403 238.25 68.8703 238.43 68.2203C240.07 62.4103 246.57 61.2203 248.83 63.3003C249.3 63.7403 248.53 64.3503 247.95 64.8103C246.12 66.3103 245.56 66.9403 242.9 67.8003C241.79 68.1603 240.67 68.4603 239.75 69.0503C238.67 69.7503 238.5 69.2703 238.75 71.1903C238.87 71.9003 238.75 71.9003 238.77 72.1403L238.6 72.0603V72.0703Z" fill="#B2E0DA"/>
<path d="M20.6102 287.101C21.4402 284.861 18.3302 283.261 16.6602 283.521C17.4002 281.491 22.0702 282.161 23.5002 281.841C24.1802 281.691 30.3302 271.281 41.8202 269.611C43.8502 269.331 47.2202 269.221 48.9902 270.511C49.9402 271.201 48.4302 272.461 43.2302 276.111C36.3702 280.851 25.1902 281.541 23.6902 283.361C23.3302 283.801 23.0102 284.521 22.3402 285.601C21.5302 286.921 21.2102 286.891 20.8102 287.371L20.6102 287.111V287.101Z" fill="#B2E0DA"/>
<path d="M311.511 48.5396C311.891 45.4296 307.431 44.3196 305.381 45.1596C305.711 42.3396 311.891 41.7896 313.621 40.9496C314.451 40.5496 319.171 25.3796 333.371 19.7796C335.881 18.8096 340.161 17.6496 342.821 18.7596C344.251 19.3596 342.691 21.4296 337.141 27.6496C329.791 35.7796 315.691 40.0396 314.321 42.8196C313.991 43.4996 313.801 44.5096 313.261 46.0896C312.621 48.0196 312.211 48.0696 311.831 48.8196L311.501 48.5496L311.511 48.5396Z" fill="#B2E0DA"/>
</svg>
