<svg width="650" height="124" viewBox="0 0 650 124" fill="none" xmlns="http://www.w3.org/2000/svg">
<path d="M615.89 62.0001L645 22.2101H577.58H72.42H5L34.11 61.2101L5 100.21H72.42H577.58H645L615.89 62.0001Z" fill="#F5F1E9"/>
<path d="M630.229 39.56C632.259 36.62 634.489 33.7 636.799 30.7C638.569 28.4 640.389 26.03 642.269 23.59C642.049 23.59 641.819 23.59 641.589 23.6L640.989 23.62H639.949L636.679 23.65C634.499 23.65 632.319 23.65 630.129 23.65C625.759 23.64 621.379 23.62 617.019 23.61C612.609 23.6 608.439 23.69 604.189 23.86C600.069 24.02 595.309 23.65 591.389 24.13C591.039 24.17 590.219 24.13 589.619 24.13C579.079 24.13 568.299 24.33 558.069 24.08C546.159 23.79 534.409 23.99 522.629 23.88C503.409 24.43 483.989 24.03 464.669 24.12C458.629 24.15 452.549 24.25 446.359 23.92C441.069 23.63 434.609 24.15 429.089 23.64C428.639 23.6 427.549 23.71 426.729 23.73C424.779 23.79 422.709 23.92 420.869 23.87C409.789 23.59 409.819 23.59 400.569 23.84C399.469 23.87 398.119 23.66 396.859 23.65C391.759 23.62 386.629 23.59 381.559 23.64C376.979 23.68 372.129 23.39 367.769 23.87C366.819 23.97 364.839 23.89 363.339 23.89C358.519 23.89 353.689 23.89 348.889 23.89C343.399 23.93 337.799 23.72 332.409 24.12C330.059 24.3 326.649 23.83 325.259 23.93C322.669 24.11 320.269 24.16 317.719 24.13C315.229 24.1 312.799 23.91 310.329 23.9C308.179 23.9 306.029 24.11 303.849 24.13C298.439 24.17 292.649 23.97 287.699 24.19C282.379 24.42 277.289 24.36 272.099 24.39C266.689 24.39 261.239 24.4 255.849 24.41C251.639 24.45 247.889 24.25 243.939 24.14C239.999 24.03 235.589 24.36 232.029 23.88C231.869 23.86 231.449 23.88 231.149 23.88C222.969 23.8 214.799 23.66 206.609 23.64C192.469 23.64 178.309 23.63 164.159 23.62C160.159 23.62 155.949 23.78 152.199 23.38C151.419 23.3 149.709 23.42 148.669 23.36C144.759 23.14 141.649 23.89 137.899 23.54C134.549 23.23 130.999 23.41 127.549 23.37C123.649 23.37 119.719 23.37 115.809 23.36C113.109 23.34 110.669 23.41 108.429 23.62C105.449 23.17 101.219 23.47 97.7288 23.26C95.4388 23.12 91.8787 22.99 90.1987 23.14C86.4687 23.48 82.7487 23.32 79.0488 23.36C73.5488 23.42 68.0088 23.27 62.5687 23.6C60.2687 23.74 57.1888 23.66 54.5187 23.61C52.0187 23.57 49.6087 23.39 47.1287 23.38C42.4987 23.34 37.9587 23.36 33.3687 23.6C29.3888 23.81 24.5288 23.39 20.5788 23.87C20.0588 23.93 18.7488 23.91 17.9288 23.87C15.7788 23.77 13.7288 23.7 11.6287 23.68C11.0988 23.68 10.5687 23.68 10.0387 23.68H9.31875L9.05875 23.7C8.70875 23.72 8.38875 23.76 8.20875 23.83L8.24875 23.87C8.50875 24.13 8.68875 24.32 8.84875 24.5L8.95875 24.64L9.30875 25.11C9.64875 25.56 9.98875 26.02 10.3287 26.48C11.6887 28.34 13.0988 30.26 14.4288 32.08C17.3088 35.94 20.3388 39.84 23.0188 43.65C24.7488 46.09 26.1388 46.91 27.9388 49.98C28.9088 51.63 31.2388 54.58 32.9788 56.93C34.0387 58.34 35.1187 59.78 36.1987 61.21C35.4487 62.23 34.6888 63.24 33.9487 64.23C33.4487 64.89 32.9588 65.53 32.4688 66.14C27.9288 71.8 23.5388 77.64 19.1888 83.5L12.6687 92.3L9.39875 96.69L8.39875 98.01L7.79875 98.79L8.33875 98.81H9.20875C9.92875 98.81 10.6488 98.81 11.3787 98.8C12.9987 98.78 14.6187 98.77 16.2387 98.75C19.4688 98.73 22.6588 98.78 25.6888 99.05C30.1888 98.63 35.7188 98.99 40.0387 98.71C42.7788 98.53 45.1688 98.55 47.6787 98.55C64.2387 98.55 80.7988 98.54 97.3487 98.53C108.249 98.45 119.129 98.38 130.019 98.3C133.079 98.29 136.079 98.24 139.399 98.49C141.839 98.68 146.289 98.7 149.539 98.37C150.169 98.31 151.469 98.25 151.949 98.3C158.139 98.9 164.279 98.28 170.359 98.25C182.279 98.2 193.919 98.58 205.749 98.54C208.269 98.54 211.229 98.71 213.179 98.31C215.119 98.65 216.589 98.49 218.979 98.33C221.449 98.17 225.519 98.15 227.689 98.35C230.639 98.61 233.359 98.52 236.179 98.55C239.179 98.55 242.199 98.55 245.209 98.55C257.909 98.64 270.609 98.73 283.299 98.81C285.789 98.83 288.209 98.98 290.689 99.05C293.179 99.12 295.879 98.93 298.249 99.27C299.139 99.4 301.689 99.3 303.479 99.3C309.799 99.3 316.639 99.51 322.299 99.24C327.909 98.97 333.919 99.3 339.109 98.81C340.559 98.67 343.239 98.81 345.329 98.78C353.799 98.66 362.529 99.07 370.779 98.53C373.819 98.87 377.419 98.8 380.869 98.78C383.389 98.76 386.299 98.96 388.379 98.57C388.619 98.52 389.509 98.52 390.049 98.54C393.099 98.63 395.839 98.87 399.259 98.81C402.099 98.75 404.409 98.52 407.529 98.52C418.759 98.54 429.809 98.98 441.099 98.8C444.179 99.11 447.709 99.05 451.189 99.06C457.339 99.08 463.109 98.69 469.419 98.78C475.379 98.86 481.759 98.97 487.399 98.76C497.149 98.4 506.839 98.62 516.529 98.55C519.019 98.53 521.819 98.4 524.079 98.76C524.619 98.85 527.339 98.81 528.089 98.7C529.679 98.46 531.539 98.61 533.069 98.53C537.459 98.29 541.729 99.23 546.049 98.53H560.499C565.319 98.53 570.139 98.53 574.949 98.53C577.199 98.53 579.379 98.46 581.709 98.71C583.269 98.88 586.969 98.91 588.519 98.75C592.189 98.39 595.959 98.54 599.649 98.53C610.789 98.53 621.929 98.53 633.069 98.53C635.059 98.55 637.039 98.58 639.029 98.6L640.519 98.63L640.989 98.66L642.029 98.72L641.549 98L641.359 97.73L641.109 97.4L639.969 95.91L637.669 92.94C636.149 90.96 634.649 88.97 633.329 86.95C633.139 86.67 632.819 86.27 632.559 85.95C631.339 84.43 630.049 82.93 628.899 81.4C627.409 79.4 625.659 76.59 624.689 75.55C622.759 73.47 621.879 71.82 620.609 70.11C616.949 65.17 615.189 61.71 616.289 61.76C616.529 61.77 617.129 62.23 617.779 62.84C621.859 66.69 621.849 66.76 627.289 73.81C630.539 78.03 633.649 82.27 636.769 86.52C638.329 88.64 639.899 90.76 641.469 92.88C642.329 94.02 643.189 95.17 644.059 96.32C645.459 98.15 646.869 99.99 648.279 101.83C647.209 101.83 646.129 101.85 645.049 101.86C642.569 101.79 640.059 101.71 637.519 101.64C635.639 101.6 633.729 101.59 631.829 101.6C628.009 101.6 624.169 101.66 620.389 101.6C612.519 101.5 604.509 101.11 596.809 101.38C589.139 101.65 581.599 101.59 574.009 101.58C568.229 101.58 562.479 101.39 556.689 101.35C550.679 101.31 544.559 101.43 538.659 101.31C535.009 101.23 531.149 100.93 527.689 101.11C520.129 101.5 512.339 101.16 504.929 101.37C494.629 101.65 484.249 101.47 474.069 101.65C468.579 101.75 463.139 101.86 457.619 101.85C455.099 101.85 452.709 101.85 450.009 101.67C447.249 101.48 443.229 101.48 439.809 101.74C438.389 101.85 436.019 101.93 434.809 101.83C429.759 101.44 424.409 101.6 419.229 101.61C415.939 101.61 412.249 101.25 410.289 101.4C406.969 101.66 403.949 101.54 400.849 101.57C398.649 101.59 396.129 101.71 394.169 101.38C393.639 101.29 391.489 101.27 390.839 101.34C387.129 101.78 382.859 101.56 378.869 101.57C369.239 101.57 359.599 101.57 349.969 101.57C342.009 101.55 334.359 102.02 326.329 101.83C321.449 102.27 316.009 102.08 310.819 102.07C306.849 102.07 302.889 101.92 298.919 101.83C294.949 101.75 291.089 101.83 286.889 101.63C281.719 101.39 275.569 101.6 269.869 101.56C266.769 101.54 263.299 101.78 260.499 101.36C260.119 101.3 258.679 101.31 258.149 101.36C254.069 101.8 248.919 101.68 245.279 101.51C239.349 101.23 233.629 101.36 227.839 101.31C223.039 101.31 218.199 101.3 213.399 101.29C209.949 101.26 206.579 101.35 202.959 101.17C200.189 101.03 196.509 101.27 193.219 101.29C189.919 101.29 186.599 101.29 183.289 101.29H161.609C157.699 101.29 153.759 101.32 149.869 101.29C146.179 101.25 142.549 101.07 138.869 101.05C128.549 101 118.399 101.47 108.009 101.3C105.199 101.61 102.479 101.39 99.5387 101.33C96.8388 101.27 93.6787 101.14 90.9788 101.46C90.2288 101.55 88.7987 101.53 87.6687 101.55C85.1587 101.6 82.9887 101.29 80.0187 101.52C77.9187 101.68 74.6988 101.52 72.0088 101.56C69.1888 101.6 65.9788 101.37 63.6087 101.77C58.6488 101.17 53.9087 102.09 48.9487 101.81C47.3887 101.72 45.6887 101.69 44.0487 101.63C43.2287 101.6 42.2987 101.52 41.5987 101.55C35.5587 101.8 29.4488 101.84 23.3388 101.83L14.1587 101.79C10.0087 101.79 5.85875 101.79 1.71875 101.79C2.85875 100.25 3.98875 98.71 5.12875 97.18C5.52875 96.62 5.92875 96.07 6.32875 95.52L7.00875 94.52C7.45875 93.86 7.90875 93.19 8.36875 92.52C8.80875 91.88 9.32875 91.17 9.80875 90.56C12.8288 86.76 15.6287 83.0034 18.2087 79.29C19.1887 77.89 20.3387 76.43 21.3787 74.99C24.0688 71.28 26.8388 67.75 29.4788 63.79C30.2488 62.62 31.7887 60.55 31.3988 61.14C31.8687 61.7 30.3587 59.56 29.5487 58.33C28.6187 56.94 27.6788 55.56 26.7688 54.2C24.2788 50.58 21.8587 47.01 18.9788 43.18C13.3888 35.7 7.79875 28.22 2.19875 20.74H15.9187C17.4288 20.74 19.4988 20.84 20.3388 20.74C23.7888 20.3 26.8587 20 30.1488 20.75C30.3088 20.79 31.5588 20.78 31.8288 20.75C34.7887 20.28 38.6488 20.51 41.9787 20.53C54.7387 20.58 67.2787 20.07 80.0687 20.25C82.1287 20.28 84.9187 20.16 86.1287 20.31C88.6987 20.63 89.9387 20.11 92.1687 20.23C94.0287 20.33 96.7988 20.14 98.3587 20.27C104.019 20.74 110.329 20.6 115.669 20.44C120.659 20.29 125.809 20.13 130.299 20.29C139.139 20.6 147.919 20.47 156.719 20.5C165.749 20.5 174.789 20.5 183.809 20.5C187.499 20.49 191.469 20.68 194.879 20.27C195.569 20.19 197.249 20.23 198.409 20.27C201.189 20.34 203.939 20.5 206.699 20.5C209.459 20.5 212.199 20.33 214.989 20.27C217.239 20.22 219.339 20.27 221.649 20.05C223.339 19.89 226.299 20.02 228.949 20.24C234.219 20.68 239.719 21.12 246.479 21.05C252.459 20.98 258.519 21.05 264.529 21.03C267.049 21.02 269.429 21.05 272.139 20.84C274.569 20.65 278.649 20.73 281.589 20.87C286.239 21.09 290.509 21.12 295.059 20.87C296.629 20.78 298.489 20.79 300.219 20.78H331.829C334.369 20.78 337.069 20.7 339.139 21.01C340.819 20.65 343.469 20.77 345.679 20.79C349.069 20.83 352.389 20.99 355.779 21.02C359.799 21.06 363.729 21.02 367.739 20.8C371.439 20.59 375.899 20.93 379.899 20.63C380.649 20.57 382.219 20.78 383.319 20.76C387.889 20.68 392.839 21.02 397.059 20.52C397.409 20.48 398.399 20.48 398.809 20.52C404.069 21.03 409.289 20.64 414.499 20.52C420.179 20.37 425.359 20.79 430.919 20.78C437.239 20.77 443.829 20.62 449.829 20.81C460.169 21.15 470.459 20.98 480.749 21.02C491.279 21.06 501.829 21.05 512.359 21.02C516.939 21 521.479 20.82 526.069 20.79C531.169 20.75 536.299 20.79 541.419 20.79C546.239 20.79 551.059 20.79 555.869 20.79C558.129 20.79 560.629 20.65 562.599 20.97C562.999 21.03 564.389 21.06 564.949 21.01C569.079 20.67 573.059 20.69 577.249 21C578.439 21.09 580.199 21 581.619 21.05C585.569 21.18 588.959 20.88 592.619 20.79C595.989 20.7 599.799 21.02 602.789 20.55C603.199 20.49 604.849 20.48 605.369 20.55C612.109 21.35 619.829 20.03 626.529 20.76C629.209 20.31 631.989 20.82 634.119 20.76C635.659 20.71 637.169 20.66 638.699 20.61C639.549 20.59 640.399 20.58 641.269 20.56C642.639 20.56 644.019 20.55 645.419 20.54H648.259C646.159 23.42 644.059 26.3 641.969 29.16C638.779 33.62 635.329 37.98 632.389 42.62C631.409 44.17 629.439 46.99 627.829 48.59C627.539 48.87 626.839 49.85 626.389 50.49C622.949 55.43 618.299 61.11 616.879 61.94C616.049 62.43 615.729 62.06 615.809 61.27C615.849 60.87 617.299 58.68 618.159 57.26C619.659 54.79 621.009 52.37 622.769 49.78C624.869 46.71 627.339 43.48 630.209 39.56H630.229Z" fill="#C3AD7C"/>
<path d="M595 4.21008H55V120.21H595V4.21008Z" fill="#F5F1E9"/>
<path d="M571.35 121.87C564.52 122.08 557.271 121.5 549.551 121.59C541.831 121.69 534.021 121.63 526.261 121.6C522.341 121.59 518.631 121.68 514.841 121.85C511.171 122.01 506.941 121.64 503.451 122.12C503.141 122.16 502.411 122.12 501.871 122.12C492.491 122.12 482.91 122.32 473.801 122.07C463.201 121.78 452.751 121.98 442.271 121.87C425.171 122.42 407.891 122.02 390.701 122.11C385.331 122.14 379.921 122.25 374.411 121.91C369.701 121.62 363.961 122.14 359.051 121.63C358.651 121.59 357.681 121.7 356.951 121.72C355.211 121.78 353.371 121.91 351.741 121.86C341.881 121.58 341.911 121.58 333.681 121.83C332.701 121.86 331.501 121.65 330.381 121.64C325.841 121.61 321.281 121.58 316.771 121.63C312.701 121.67 308.381 121.38 304.501 121.86C303.661 121.96 301.891 121.88 300.551 121.88C296.261 121.88 291.971 121.88 287.701 121.88C282.821 121.92 277.831 121.71 273.041 122.11C270.951 122.29 267.921 121.82 266.681 121.92C264.381 122.1 262.241 122.15 259.971 122.12C257.751 122.09 255.591 121.9 253.401 121.89C251.491 121.89 249.581 122.1 247.641 122.12C242.831 122.16 237.671 121.96 233.271 122.18C228.541 122.41 224.011 122.35 219.391 122.38C214.581 122.41 209.731 122.35 204.931 122.4C201.191 122.44 197.851 122.24 194.341 122.13C190.841 122.02 186.911 122.35 183.741 121.87C183.601 121.85 183.221 121.87 182.951 121.87C175.671 121.79 168.401 121.65 161.111 121.63C148.531 121.63 135.931 121.62 123.341 121.61C119.781 121.61 116.031 121.77 112.701 121.37C112.011 121.29 110.491 121.41 109.561 121.35C106.081 121.13 103.321 121.88 99.9805 121.53C97.0005 121.22 93.8405 121.39 90.7705 121.36C87.3005 121.36 83.8005 121.36 80.3305 121.35C77.9305 121.33 75.7505 121.4 73.7605 121.61C71.1105 121.16 67.3405 121.46 64.2405 121.25C62.2005 121.11 59.0405 120.98 57.5405 121.13L57.2205 121.16L56.7705 121.19L55.8205 121.24L53.8705 121.31L53.8305 118.54V116.51C53.8305 115.28 53.8305 114.06 53.8305 112.83C53.7705 107.94 53.9205 103.01 53.5905 98.1701C53.4505 96.1201 53.5305 93.3901 53.5805 91.0101C53.6205 88.7901 53.8005 86.6401 53.8105 84.4301C53.8505 80.3101 53.8305 76.2701 53.5905 72.1901C53.3805 68.6501 53.8005 64.3301 53.3205 60.8101C53.2605 60.3401 53.2805 59.1901 53.3205 58.4601C53.5205 54.6001 53.6305 51.1101 53.3605 46.8101C53.1405 43.3301 53.3205 38.8801 53.3205 34.8701C53.3205 30.5801 53.2305 26.1901 53.3505 22.0501C53.4305 19.3901 52.8005 18.0601 53.2005 14.9101C53.4105 13.2101 53.3005 9.87006 53.3205 7.27006C53.3205 5.70006 53.3205 4.11006 53.3105 2.51006C54.7205 2.51006 56.1305 2.51006 57.5105 2.50006C58.3405 2.50006 59.1505 2.51006 59.9405 2.54006C73.3105 3.05006 86.8605 2.63006 100.271 2.79006C105.941 2.86006 111.901 2.48006 117.291 3.03006C121.291 2.61006 126.221 2.97006 130.061 2.69006C132.491 2.51006 134.631 2.53006 136.861 2.53006C151.591 2.53006 166.331 2.52006 181.051 2.51006C190.741 2.43006 200.421 2.36006 210.121 2.28006C212.841 2.27006 215.511 2.22006 218.461 2.47006C220.631 2.66006 224.591 2.68006 227.491 2.35006C228.051 2.29006 229.211 2.23006 229.641 2.28006C235.151 2.88006 240.611 2.26006 246.021 2.23006C256.621 2.18006 266.981 2.56006 277.501 2.52006C279.741 2.52006 282.37 2.69006 284.111 2.29006C285.84 2.63006 287.141 2.47006 289.271 2.31006C291.471 2.15006 295.091 2.13006 297.021 2.33006C299.651 2.59006 302.071 2.50006 304.581 2.53006C307.251 2.53006 309.94 2.53006 312.611 2.53006C323.91 2.62006 335.211 2.71006 346.491 2.79006C348.701 2.81006 350.861 2.96006 353.061 3.03006C355.281 3.10006 357.681 2.91006 359.791 3.25006C360.581 3.38006 362.851 3.28006 364.441 3.28006C370.061 3.28006 376.151 3.49006 381.191 3.22006C386.181 2.95006 391.531 3.28006 396.151 2.79006C397.441 2.65006 399.831 2.79006 401.681 2.76006C409.211 2.64006 416.981 3.05006 424.321 2.51006C427.031 2.85006 430.231 2.78006 433.291 2.76006C435.541 2.74006 438.121 2.94006 439.971 2.55006C440.191 2.50006 440.98 2.50006 441.461 2.52006C444.181 2.61006 446.611 2.85006 449.651 2.79006C452.181 2.73006 454.241 2.50006 457.011 2.50006C467.001 2.52006 476.831 2.96006 486.881 2.78006C489.621 3.09006 492.76 3.03006 495.861 3.04006C501.331 3.06006 506.471 2.67006 512.081 2.76006C517.381 2.84006 523.061 2.95006 528.081 2.74006C536.761 2.38006 545.371 2.60006 554.001 2.53006C556.211 2.51006 558.71 2.38006 560.72 2.74006C561.201 2.83006 563.621 2.79006 564.281 2.68006C565.701 2.44006 567.35 2.59006 568.72 2.51006C572.62 2.27006 576.421 3.21006 580.271 2.51006H596.68C596.68 6.72006 596.68 10.9401 596.68 15.1501C596.68 17.1501 596.75 19.0901 596.5 21.1601C596.331 22.5501 596.301 25.8401 596.461 27.2201C596.82 30.4801 596.67 33.8401 596.68 37.1201C596.68 47.0301 596.68 56.9401 596.68 66.8501C596.66 71.1901 596.521 75.5101 596.44 79.8501C596.36 84.2401 596.611 88.8101 596.281 93.0901C596.26 93.3901 596.271 93.8501 596.281 94.2101C596.331 95.9501 596.451 97.7001 596.43 99.4001C596.41 101.62 596.09 104.55 596.23 105.81C596.5 108.32 596.201 109.96 596.17 111.86C596.08 117.33 595.391 120.73 594.55 120.1C594.36 119.96 594.161 119.32 594.021 118.54C593.111 113.62 593.16 113.57 593.11 105.65C593.05 95.6201 593.57 85.8301 593.38 75.7801C593.85 69.2301 593.541 62.2901 593.641 55.5601C593.74 48.5601 594.13 41.4401 593.86 34.5801C593.59 27.7601 593.651 21.0501 593.651 14.3001L593.701 9.24006L593.75 6.71006L593.8 5.41006L593.23 5.38006L592.391 5.36006L589.74 5.33006C584.4 5.29006 578.951 5.41006 573.701 5.29006C570.451 5.21006 567.021 4.91006 563.941 5.09006C557.211 5.48006 550.281 5.14006 543.691 5.35006C534.531 5.63006 525.29 5.45006 516.241 5.63006C511.361 5.73006 506.511 5.84006 501.601 5.83006C499.361 5.83006 497.241 5.83006 494.831 5.65006C492.38 5.46006 488.801 5.46006 485.751 5.72006C484.491 5.83006 482.38 5.91006 481.301 5.81006C476.801 5.42006 472.051 5.58006 467.441 5.59006C464.511 5.59006 461.231 5.23006 459.481 5.38006C456.531 5.64006 453.841 5.52006 451.081 5.55006C449.121 5.57006 446.881 5.69006 445.131 5.36006C444.661 5.27006 442.741 5.25006 442.171 5.32006C438.871 5.76006 435.07 5.54006 431.521 5.55006C422.951 5.55006 414.381 5.55006 405.811 5.55006C398.731 5.53006 391.921 6.00006 384.781 5.81006C380.441 6.25006 375.601 6.06006 370.981 6.05006C367.451 6.05006 363.921 5.90006 360.401 5.81006C356.871 5.73006 353.431 5.81006 349.701 5.61006C345.101 5.37006 339.63 5.58006 334.551 5.54006C331.79 5.52006 328.711 5.76006 326.221 5.34006C325.881 5.28006 324.601 5.29006 324.131 5.34006C320.501 5.78006 315.911 5.66006 312.681 5.49006C307.401 5.21006 302.321 5.34006 297.161 5.29006C292.891 5.29006 288.581 5.28006 284.311 5.27006C281.241 5.24006 278.241 5.33006 275.021 5.15006C272.551 5.01006 269.281 5.25006 266.351 5.27006C263.411 5.27006 260.461 5.27006 257.511 5.27006H238.221C234.741 5.27006 231.241 5.30006 227.781 5.27006C224.501 5.23006 221.271 5.05006 217.991 5.03006C208.801 4.98006 199.781 5.45006 190.531 5.28006C188.031 5.59006 185.611 5.37006 183.001 5.31006C180.601 5.25006 177.781 5.12006 175.381 5.44006C174.711 5.53006 173.441 5.51006 172.441 5.53006C170.211 5.58006 168.281 5.27006 165.631 5.50006C163.761 5.66006 160.901 5.50006 158.511 5.54006C156.001 5.58006 153.151 5.35006 151.031 5.75006C146.611 5.15006 142.401 6.07006 137.991 5.79006C136.601 5.70006 135.091 5.67006 133.631 5.61006C132.901 5.58006 132.081 5.51006 131.451 5.53006C119.731 6.07006 107.761 5.63006 95.9505 5.79006C94.4905 5.81006 93.1005 5.93006 91.6505 5.98006C90.9605 6.01006 90.1705 6.02006 89.4905 6.00006C83.0205 5.78006 83.0305 5.79006 76.9905 6.01006C75.4705 6.07006 73.8205 6.01006 72.2405 6.04006C68.1605 6.10006 64.1705 6.00006 59.9405 6.25006C59.1405 6.30006 58.3305 6.32006 57.5105 6.32006H57.2205C57.2205 6.32006 57.2105 6.30006 57.1905 6.28006C57.1705 6.27006 57.1405 6.28006 57.1005 6.31006L56.9905 8.27006C56.9105 9.66006 56.8405 11.0501 56.7605 12.4101C56.5905 16.3201 56.3905 20.1501 56.4105 24.4101C56.4105 35.1201 56.4205 45.8401 56.4305 56.5501C56.4305 57.8901 56.3405 59.7401 56.4505 60.4801C56.8905 63.5501 57.1905 66.2801 56.4405 69.2101C56.4005 69.3501 56.4105 70.4601 56.4405 70.7101C56.9105 73.3401 56.6805 76.7801 56.6705 79.7401C56.6205 91.1001 57.1305 102.25 56.9405 113.63C56.9205 114.55 56.9405 115.62 56.9505 116.61C56.9505 116.86 56.9505 117.1 56.9505 117.33C56.9505 117.54 56.9505 117.74 56.9505 117.93C56.9405 117.98 56.9205 118.03 56.8805 118.1C56.8205 118.19 56.7905 118.29 56.7805 118.37C56.9205 118.4 57.1205 118.33 57.2205 118.27C57.7705 118.21 58.5205 118.14 59.3105 118.19C60.9705 118.29 63.4305 118.1 64.8205 118.23C69.8505 118.71 75.4705 118.56 80.2205 118.4C84.6605 118.25 89.2405 118.09 93.2305 118.25C101.101 118.56 108.911 118.43 116.731 118.46C124.761 118.46 132.801 118.46 140.831 118.46C144.121 118.45 147.641 118.64 150.681 118.23C151.301 118.15 152.781 118.19 153.821 118.23C156.291 118.3 158.741 118.46 161.201 118.46C163.661 118.46 166.101 118.29 168.581 118.23C170.581 118.18 172.451 118.23 174.501 118.01C176.001 117.85 178.641 117.98 180.991 118.2C185.681 118.64 190.571 119.08 196.581 119C201.901 118.93 207.291 119 212.641 118.98C214.881 118.97 217.001 119 219.411 118.8C221.571 118.61 225.201 118.69 227.821 118.83C231.961 119.05 235.761 119.08 239.811 118.83C241.201 118.74 242.861 118.75 244.401 118.74H272.521C274.781 118.74 277.181 118.66 279.021 118.97C280.511 118.61 282.871 118.73 284.841 118.75C287.861 118.79 290.811 118.95 293.831 118.98C297.411 119.02 300.901 118.98 304.471 118.76C307.761 118.55 311.731 118.89 315.291 118.59C315.961 118.53 317.351 118.74 318.341 118.72C322.411 118.64 326.811 118.98 330.571 118.48C330.891 118.44 331.761 118.44 332.131 118.48C336.811 118.99 341.461 118.6 346.091 118.48C351.141 118.33 355.751 118.75 360.701 118.74C366.321 118.73 372.181 118.58 377.521 118.77C386.721 119.11 395.871 118.94 405.031 118.98C414.401 119.02 423.781 119.01 433.151 118.98C437.221 118.96 441.271 118.78 445.351 118.75C449.891 118.71 454.451 118.74 459.011 118.74C463.301 118.74 467.581 118.74 471.871 118.74C473.881 118.74 476.1 118.6 477.861 118.92C478.22 118.98 479.451 119.01 479.951 118.96C483.621 118.62 487.161 118.64 490.901 118.95C491.961 119.04 493.521 118.95 494.781 119C498.301 119.13 501.311 118.83 504.561 118.74C507.551 118.65 510.951 118.97 513.611 118.5C513.97 118.44 515.44 118.43 515.91 118.5C521.91 119.3 528.771 117.98 534.741 118.71C537.131 118.26 539.6 118.77 541.491 118.71C544.23 118.61 546.88 118.49 549.73 118.5C552.41 118.5 555.101 118.53 557.761 118.5C562.641 118.44 567.591 118.65 572.461 118.28C574.091 118.16 577.151 118.08 579.151 118.43C579.5 118.49 580.57 118.49 581.271 118.47C586.63 118.33 593.14 118.73 594.48 119.38C595.27 119.77 595.17 120.24 594.56 120.64C594.25 120.84 591.92 120.96 590.44 121.11C587.88 121.36 585.43 121.7 582.641 121.81C579.331 121.93 575.721 121.84 571.391 121.84L571.35 121.87Z" fill="#C3AD7C"/>
<path d="M83.9976 90.6C83.7576 90.6 83.5076 90.61 83.2676 90.61C82.5076 90.61 81.7576 90.8 80.9876 90.81C78.5176 90.82 76.0576 90.98 73.5876 91C71.2976 91.02 68.9876 91 66.7176 90.82C66.3076 90.79 65.6776 89.79 65.7476 89.29C65.8576 88.46 66.2176 87.25 66.9076 86.96C67.9476 86.51 69.3676 86.58 70.6076 86.64C74.5176 86.83 76.2476 87.37 80.1576 87.58C81.2376 87.64 84.3576 88.04 85.4376 88.08C86.2476 88.11 86.9676 88.12 87.7676 88.28C87.8676 88.3 88.3076 88.63 88.3076 88.67C88.1776 89.59 88.4876 88.98 88.1276 89.82C87.9076 90.33 86.3076 90.38 85.8776 90.44C85.2576 90.53 84.6276 90.57 84.0076 90.58L83.9976 90.6Z" fill="#C3AD7C"/>
<path d="M68.7305 35.85C67.6105 35.82 66.6805 35.64 66.3105 35.15C65.8905 34.61 65.8305 33.5 66.3105 33.06C67.3005 32.15 68.6305 31.1 70.0405 30.88C71.7705 30.61 73.7105 31.15 75.5605 31.31C76.2005 31.37 76.8405 31.35 77.4805 31.37C78.8605 31.42 81.3105 31.93 82.7305 32.52C83.7505 32.94 87.0805 33.16 88.3305 33.26C88.4905 33.27 88.7505 33.35 88.7605 33.41C88.9405 34.56 89.6105 34.07 88.3705 35.05C88.2205 35.17 84.6405 35.67 84.3805 35.66C81.3405 35.57 78.0905 35.36 74.9705 35.38C73.8105 35.38 70.8905 35.9 68.7105 35.84L68.7305 35.85Z" fill="#C3AD7C"/>
<path d="M71.5488 76.7001C73.0088 76.5001 76.2788 76.7801 74.3988 74.5101C72.7888 72.5801 70.7988 72.5001 68.8288 72.6301C67.6688 72.7101 66.2987 72.6301 65.7188 74.1001C65.7188 76.2001 67.5688 77.5501 69.1588 77.2001C69.9488 77.0301 70.7388 76.8101 71.5488 76.7001Z" fill="#C3AD7C"/>
<path d="M79.8899 47.57C79.8899 47.95 79.6399 48.24 79.1499 48.45C78.0599 48.92 76.5999 48.7 75.4299 48.72C73.6199 48.74 71.6999 49.13 69.8999 49.18C69.6299 49.18 69.3299 49.33 69.0899 49.51C68.3299 50.08 67.2399 49.15 66.7599 48.39C65.5199 46.44 66.6699 45.45 67.4999 44.94C67.7199 44.8 68.5599 44.65 69.0999 44.74C70.3899 44.95 71.7999 44.84 73.0799 45.09C75.0099 45.46 76.9599 45.68 78.8699 46.2C79.2999 46.32 79.5699 46.57 79.7299 46.93C79.8099 47.12 79.8899 47.43 79.8899 47.59V47.57Z" fill="#C3AD7C"/>
<path d="M77.5976 61.97C75.8176 62.28 72.8276 62.49 71.5676 62.71C70.3376 62.93 69.1076 63.32 67.8876 63.28C67.2876 63.26 66.6176 62.53 66.1576 61.93C66.0176 61.74 66.4276 60.92 66.5876 60.39C67.2876 58.16 68.8176 58.96 70.1376 58.94C71.5376 58.92 75.2676 59.64 76.6676 59.54C78.3076 59.43 78.5076 59.89 77.9076 61.73C77.8176 61.99 77.4076 62.09 77.5876 61.97H77.5976Z" fill="#C3AD7C"/>
<path d="M77.5976 103.97C75.8176 104.28 72.8276 104.49 71.5676 104.71C70.3376 104.93 69.1076 105.32 67.8876 105.28C67.2876 105.26 66.6176 104.53 66.1576 103.93C66.0176 103.74 66.4276 102.92 66.5876 102.39C67.2876 100.16 68.8176 100.96 70.1376 100.94C71.5376 100.92 75.2676 101.64 76.6676 101.54C78.3076 101.43 78.5076 101.89 77.9076 103.73C77.8176 103.99 77.4076 104.09 77.5876 103.97H77.5976Z" fill="#C3AD7C"/>
<path d="M77.5976 21.5201C75.8176 21.8301 72.8276 22.0401 71.5676 22.2601C70.3376 22.4801 69.1076 22.8701 67.8876 22.8301C67.2876 22.8101 66.6176 22.0801 66.1576 21.4801C66.0176 21.2901 66.4276 20.4701 66.5876 19.9401C67.2876 17.7101 68.8176 18.5101 70.1376 18.4901C71.5376 18.4701 75.2676 19.1901 76.6676 19.0901C78.3076 18.9801 78.5076 19.4401 77.9076 21.2801C77.8176 21.5401 77.4076 21.6401 77.5876 21.5201H77.5976Z" fill="#C3AD7C"/>
<path d="M566.448 90.6C566.688 90.6 566.938 90.61 567.178 90.61C567.938 90.61 568.688 90.8 569.458 90.81C571.928 90.82 574.388 90.98 576.858 91C579.148 91.02 581.458 91 583.728 90.82C584.138 90.79 584.768 89.79 584.698 89.29C584.588 88.46 584.228 87.25 583.538 86.96C582.498 86.51 581.078 86.58 579.838 86.64C575.928 86.83 574.198 87.37 570.288 87.58C569.208 87.64 566.088 88.04 565.008 88.08C564.198 88.11 563.478 88.12 562.678 88.28C562.578 88.3 562.138 88.63 562.138 88.67C562.268 89.59 561.958 88.98 562.318 89.82C562.538 90.33 564.138 90.38 564.568 90.44C565.188 90.53 565.818 90.57 566.438 90.58L566.448 90.6Z" fill="#C3AD7C"/>
<path d="M581.72 35.85C582.84 35.82 583.77 35.64 584.14 35.15C584.56 34.61 584.62 33.5 584.14 33.06C583.15 32.15 581.82 31.1 580.41 30.88C578.68 30.61 576.74 31.15 574.89 31.31C574.25 31.37 573.61 31.35 572.97 31.37C571.59 31.42 569.14 31.93 567.72 32.52C566.7 32.94 563.37 33.16 562.12 33.26C561.96 33.27 561.7 33.35 561.69 33.41C561.51 34.56 560.84 34.07 562.08 35.05C562.23 35.17 565.81 35.67 566.07 35.66C569.11 35.57 572.36 35.36 575.48 35.38C576.64 35.38 579.56 35.9 581.74 35.84L581.72 35.85Z" fill="#C3AD7C"/>
<path d="M578.902 76.7001C577.442 76.5001 574.172 76.7801 576.052 74.5101C577.662 72.5801 579.652 72.5001 581.622 72.6301C582.782 72.7101 584.152 72.6301 584.732 74.1001C584.732 76.2001 582.882 77.5501 581.292 77.2001C580.502 77.0301 579.712 76.8101 578.902 76.7001Z" fill="#C3AD7C"/>
<path d="M570.559 47.57C570.559 47.95 570.809 48.24 571.299 48.45C572.389 48.92 573.849 48.7 575.019 48.72C576.829 48.74 578.749 49.13 580.549 49.18C580.819 49.18 581.119 49.33 581.359 49.51C582.119 50.08 583.209 49.15 583.689 48.39C584.929 46.44 583.779 45.45 582.949 44.94C582.729 44.8 581.889 44.65 581.349 44.74C580.059 44.95 578.649 44.84 577.369 45.09C575.439 45.46 573.489 45.68 571.579 46.2C571.149 46.32 570.879 46.57 570.719 46.93C570.639 47.12 570.559 47.43 570.559 47.59V47.57Z" fill="#C3AD7C"/>
<path d="M572.85 61.97C574.63 62.28 577.62 62.49 578.88 62.71C580.11 62.93 581.34 63.32 582.56 63.28C583.16 63.26 583.83 62.53 584.29 61.93C584.43 61.74 584.02 60.92 583.86 60.39C583.16 58.16 581.63 58.96 580.31 58.94C578.91 58.92 575.18 59.64 573.78 59.54C572.14 59.43 571.94 59.89 572.54 61.73C572.63 61.99 573.04 62.09 572.86 61.97H572.85Z" fill="#C3AD7C"/>
<path d="M572.85 103.97C574.63 104.28 577.62 104.49 578.88 104.71C580.11 104.93 581.34 105.32 582.56 105.28C583.16 105.26 583.83 104.53 584.29 103.93C584.43 103.74 584.02 102.92 583.86 102.39C583.16 100.16 581.63 100.96 580.31 100.94C578.91 100.92 575.18 101.64 573.78 101.54C572.14 101.43 571.94 101.89 572.54 103.73C572.63 103.99 573.04 104.09 572.86 103.97H572.85Z" fill="#C3AD7C"/>
<path d="M572.85 21.5201C574.63 21.8301 577.62 22.0401 578.88 22.2601C580.11 22.4801 581.34 22.8701 582.56 22.8301C583.16 22.8101 583.83 22.0801 584.29 21.4801C584.43 21.2901 584.02 20.4701 583.86 19.9401C583.16 17.7101 581.63 18.5101 580.31 18.4901C578.91 18.4701 575.18 19.1901 573.78 19.0901C572.14 18.9801 571.94 19.4401 572.54 21.2801C572.63 21.5401 573.04 21.6401 572.86 21.5201H572.85Z" fill="#C3AD7C"/>
</svg>
