<svg width="120" height="130" viewBox="0 0 120 130" fill="none" xmlns="http://www.w3.org/2000/svg">
<path d="M37.6146 121.582C35.6813 121.582 34.056 120.145 33.8336 118.229C33.7822 117.75 33.1321 111.83 33.8678 104.559C33.115 97.2022 30.8738 91.5392 27.1954 87.8951C23.7053 84.405 19.5992 83.3442 16.9474 83.0363C15.8524 83.0534 14.7233 83.0363 13.5599 82.9678C11.5924 82.8481 10.0355 81.2399 10.0013 79.2553C9.94996 77.2878 11.4384 75.594 13.4059 75.3887C13.5599 75.3887 14.9799 75.2348 17.1185 75.4401C22.4735 75.269 26.4598 73.5752 29.2656 70.3417C33.1321 65.8421 34.1244 59.1013 34.1244 53.4897C33.5598 50.2733 33.2005 46.7147 33.115 42.7626C33.0637 40.7952 34.5179 39.1356 36.4683 38.8961C38.4187 38.6737 40.2151 39.9568 40.6428 41.8559C40.7283 42.2665 41.6864 46.8174 41.7377 52.7883C45.7754 74.2767 60.3861 75.4914 61.156 75.5427C63.2432 75.6454 64.8514 77.4246 64.7488 79.5119C64.6632 81.5136 63.055 83.0705 61.0875 83.1389H60.7796C55.2877 82.8823 51.079 84.4049 47.9139 87.7924C43.8934 92.0867 42.1826 98.6393 41.5153 104.508C41.8917 108.648 41.8404 113.199 41.3956 118.16C41.2245 120.093 39.5992 121.599 37.6488 121.616H37.5975L37.6146 121.582ZM29.4538 79.8712C30.4632 80.5897 31.4897 81.4281 32.4478 82.3861C34.535 84.4392 36.263 86.8686 37.6488 89.6573C38.8464 87.091 40.369 84.6787 42.3194 82.5914C44.0303 80.7608 45.9464 79.2724 48.085 78.1603C45.0055 75.9533 41.8233 72.7882 39.2057 68.2031C38.2134 70.7352 36.8618 73.1475 35.0312 75.269C33.423 77.1509 31.5581 78.6907 29.4366 79.8883L29.4538 79.8712Z" fill="#F7C84D"/>
<path d="M39.2221 68.186C38.2298 70.7181 36.8782 73.1304 35.0476 75.2519C33.4394 77.1338 31.5746 78.6736 29.4531 79.8712C30.4625 80.5898 31.489 81.4281 32.4471 82.3862C34.5344 84.4392 36.2623 86.8686 37.6481 89.6573C38.8457 87.091 40.3684 84.6787 42.3188 82.5915C44.0296 80.7608 45.9458 79.2724 48.0844 78.1603C45.0048 75.9533 41.8226 72.7882 39.205 68.2031L39.2221 68.186Z" fill="#FCEFCA"/>
<path d="M89.2145 68.595H89.1118C87.0075 68.5437 85.2795 66.9013 85.1255 64.814C85.0913 64.4719 84.8005 60.2974 85.5019 55.1648C85.1769 50.4428 83.9108 46.8158 81.7209 44.4377C79.7021 42.2478 77.2214 41.4779 75.6132 41.2042C74.8433 41.2042 74.0563 41.1529 73.2351 41.0502C71.1136 40.8278 69.5054 39.0314 69.5396 36.8928C69.5738 34.7542 71.2334 33.0092 73.3719 32.8552C73.4917 32.8552 74.5353 32.7868 76.0922 32.975H76.1435C79.4113 32.975 81.8578 32.0682 83.5857 30.2034C85.9809 27.62 86.8364 23.4112 87.0246 19.6474C86.7166 17.3548 86.5626 14.8227 86.614 12.0511C86.6482 9.92968 88.2735 8.1846 90.395 8.01352C92.4993 7.84243 94.3984 9.31377 94.7748 11.3839C94.8261 11.6748 95.3736 14.8741 95.2538 19.0999C97.3411 32.8723 106.34 34.1212 106.871 34.1897C109.112 34.395 110.771 36.3796 110.583 38.6208C110.412 40.7936 108.581 42.4702 106.409 42.4018H106.135C102.764 42.128 100.181 42.9322 98.2136 44.8825C95.6815 47.3804 94.3813 51.5378 93.7654 55.4385C93.9022 58.3641 93.7654 61.5634 93.3034 65.0193C93.0468 67.0895 91.2846 68.6121 89.2145 68.6121H89.1803L89.2145 68.595ZM87.0075 38.0733C87.2128 38.2615 87.4181 38.4668 87.6063 38.6892C88.513 39.6644 89.3342 40.7423 90.0528 41.9056C90.7372 40.8962 91.507 39.9381 92.3796 39.0656C93.2008 38.2615 94.0733 37.5258 95.0143 36.9099C93.868 35.8321 92.7217 34.5318 91.6952 32.9921C91.0964 33.9844 90.395 34.9253 89.5909 35.7979C88.7868 36.6704 87.9313 37.4232 86.9904 38.0904L87.0075 38.0733Z" fill="#F7C84D"/>
<path d="M89.624 35.7804C88.8198 36.6529 87.9644 37.4057 87.0234 38.073C87.2287 38.2611 87.434 38.4664 87.6222 38.6889C88.529 39.6641 89.3502 40.7419 90.0688 41.9053C90.7531 40.8959 91.523 39.9378 92.3955 39.0652C93.2167 38.2611 94.0893 37.5255 95.0302 36.9096C93.884 35.8317 92.7377 34.5315 91.7112 32.9917C91.1124 33.984 90.4109 34.925 89.6068 35.7975L89.624 35.7804Z" fill="#FCEFCA"/>
</svg>
