<svg width="134" height="71" viewBox="0 0 134 71" fill="none" xmlns="http://www.w3.org/2000/svg">
<path d="M133.439 43.8954C133.166 43.365 132.654 43.1808 132.968 42.7526C133.016 42.6858 133.051 42.6206 133.087 42.5675C132.856 42.2767 132.841 42.2662 132.889 42.0772C132.989 41.7353 132.937 41.4113 132.674 41.0876C132.527 40.9093 132.096 40.7032 132.423 40.3835C132.423 40.3835 132.412 40.2871 132.38 40.2541C132.151 39.9754 131.923 39.7087 131.656 39.4711C131.577 39.3948 131.409 39.28 131.417 39.2301C131.457 38.8465 131.088 38.6942 130.892 38.4605C130.573 38.1312 130.228 37.8293 129.873 37.5532C129.564 37.3083 129.162 37.2333 129.042 36.8073C129.036 36.759 128.915 36.6876 128.842 36.6596C128.634 36.5617 128.437 36.4382 128.204 36.3677C128 36.3061 127.822 35.9847 127.586 35.8901C127.366 35.8059 127.216 35.6035 127.043 35.5627C126.798 35.506 126.83 35.3065 126.668 35.24C126.345 35.119 125.999 35.0374 125.7 34.889C125.389 34.7423 124.987 34.7895 124.74 34.4762C124.723 34.4537 124.546 34.499 124.463 34.5087C124.366 34.5201 124.286 34.554 124.192 34.5895C123.888 34.3929 123.599 34.2067 123.384 34.0486C123.331 33.8348 123.284 33.6692 123.25 33.502C123.347 33.4906 123.536 33.4316 123.399 33.3377C123.182 33.1675 123.451 33.0626 123.351 32.9277L123.564 32.8293C123.501 32.7755 123.468 32.7305 123.39 32.6663C123.488 32.5447 123.599 32.4095 123.708 32.2622C123.58 32.2527 123.494 32.2384 123.424 32.2344C123.312 32.3576 123.226 32.221 123.137 32.1825C122.996 32.2969 122.915 32.2086 122.887 32.0896C122.797 31.7946 122.588 31.5746 122.264 31.4415C122.19 31.4135 122.129 31.3717 122.099 31.3509C122.138 30.9672 121.692 30.9952 121.525 30.7702C121.518 30.7099 121.605 30.6141 121.424 30.501C121.301 30.4175 121.013 30.3536 121.085 30.1251C121.115 30.0237 120.979 29.9419 120.861 29.8946C120.538 29.7736 120.261 29.5617 119.863 29.5228C119.707 29.5045 119.544 29.3158 119.39 29.1994C119.208 29.0863 119.028 28.9852 118.846 28.872L118.678 28.9897C118.678 28.9897 118.636 28.9945 118.622 28.9962C118.509 29.1073 118.372 29.1356 118.336 29.0665C118.222 28.811 118.026 28.8217 117.781 28.8871C117.726 28.8936 117.669 28.8881 117.611 28.8705C117.262 28.7648 116.913 28.6591 116.565 28.5655C116.491 28.5374 116.387 28.4885 116.333 28.5071C116.001 28.6684 115.736 28.4428 115.503 28.3723C115.323 28.3935 115.121 28.4661 115.06 28.4244C114.737 28.1811 114.282 28.4913 113.981 28.1966C113.483 28.2552 113.012 28.1883 112.629 28.0376C112.51 28.1005 112.456 28.119 112.404 28.1497C112.363 28.0444 112.29 28.0163 112.136 28.0222C111.872 28.041 111.592 28.0494 111.341 28.0666C111.034 28.0783 110.684 28.0828 110.397 28.2754C110.19 28.422 109.89 28.494 109.636 28.3648C109.413 28.2566 109.397 28.4785 109.255 28.4707C109.044 28.4589 109.278 28.1868 108.982 28.1727C108.67 28.1482 108.606 27.8379 108.402 27.654C108.471 27.2913 108.138 27.0859 107.927 26.8417C107.889 26.8707 107.861 26.8739 107.835 26.8892C107.832 26.8651 107.828 26.829 107.828 26.829C107.855 26.8257 107.883 26.8224 107.911 26.8192C107.903 26.7589 107.898 26.7107 107.88 26.6761C107.766 26.5428 107.674 26.3579 107.527 26.3018C107.351 26.2369 107.107 26.3145 106.902 26.2408C106.789 26.4741 106.527 26.3948 106.418 26.2977C106.198 26.1034 105.917 26.0997 105.668 26.0068C105.521 25.9507 105.367 25.9565 105.267 25.8216C105.137 25.6657 104.84 25.6517 104.672 25.5369C104.428 25.37 104.237 25.4169 104.006 25.4807C103.978 25.4839 103.909 25.4921 103.894 25.4816C103.788 25.2984 103.558 25.3743 103.466 25.4219C103.135 25.5952 102.854 25.4694 102.574 25.3555C102.529 25.3363 102.499 25.3154 102.456 25.3083C102.221 25.3359 101.993 25.3137 101.82 25.1507C101.757 25.0969 101.605 25.1148 101.493 25.1158C101.313 25.1369 101.097 25.0889 100.942 25.2049C100.916 25.2202 100.801 25.1971 100.754 25.1537C100.568 25.0044 100.35 24.9444 100.172 25.0998C99.9301 25.3116 99.671 25.2565 99.4023 25.2392C99.1475 25.2202 98.9008 25.1514 98.657 25.1067C98.5259 25.3055 98.4073 25.4906 98.2887 25.6757C98.0822 25.5899 97.8731 25.6022 97.6886 25.465C97.504 25.3277 97.1955 25.4496 96.9531 25.4169C96.4835 25.362 96.0448 25.4503 95.7242 25.708C95.416 25.9521 95.0753 25.9188 94.6365 26.007C94.7455 25.8597 94.8077 25.7913 94.8545 25.7124C94.7601 25.6257 94.4737 25.696 94.5298 25.4571C94.5366 25.3952 94.4532 25.2827 94.3659 25.2563C94.0429 25.1353 94.0227 24.8443 93.9127 24.6249C93.8404 24.4867 93.6171 24.3784 93.7481 24.1796C93.5167 24.1212 93.7255 23.9866 93.6712 23.883C93.5793 23.6982 93.4707 23.4908 93.4772 23.3067C93.4765 23.0622 93.4634 22.8315 93.4379 22.6144C92.7809 22.3981 92.1221 22.5245 91.4771 22.6492C91.1893 22.7074 90.9376 22.8348 90.6423 22.7106C90.6262 22.5739 90.471 22.368 90.1767 22.0928C89.8583 22.1302 89.5594 22.2143 89.2435 22.1536C89.0426 22.116 88.8335 22.1284 88.6451 22.0772C88.3569 22.0132 88.266 22.1951 88.1555 22.3303C87.704 22.31 87.2508 22.1554 86.8039 22.2935C86.6544 22.3355 86.5273 22.4483 86.3861 22.4404C85.8792 22.4266 85.4032 22.5559 84.9187 22.6129C84.6556 22.6438 84.4064 22.673 84.1505 22.7643C83.8793 22.845 83.5886 22.8792 83.4036 23.0965C82.9507 23.0642 82.4935 22.9956 82.0661 23.1803C82.0122 23.1989 81.9415 23.195 81.9 23.1999C81.7115 23.1487 81.637 23.2308 81.5542 23.3628C81.4949 23.4553 81.3746 23.5061 81.2429 23.4605C81.1251 23.4132 81.0183 23.3402 80.9114 23.2671C81.1283 23.0827 80.8362 23.1048 80.7833 23.0132C80.6652 22.8437 80.3741 22.7556 80.4967 22.4845C80.5737 22.3042 80.4833 22.1315 80.3679 21.9861C80.3165 21.9065 80.1862 21.8729 80.0517 21.8032C80.2026 21.7732 80.2704 21.753 80.3382 21.7328C80.2949 21.6034 79.8519 21.6555 80.1143 21.3801C80.1143 21.3801 80.0085 21.1969 79.8452 21.2405C79.7483 21.2519 79.6585 21.3236 79.574 21.3213C79.3469 21.2991 79.1712 21.3564 78.9734 21.4652C78.8034 21.5708 78.5102 21.7031 78.3224 21.4195C78.3058 21.397 78.2447 21.3552 78.2447 21.3552C77.8507 21.5849 77.598 21.3457 77.2999 21.1973C77.2555 21.178 77.1863 21.1862 77.1157 21.1823L76.6919 21.1587C76.4799 21.1469 76.2971 21.1439 76.2105 21.362C76.1664 21.465 75.963 21.5255 75.8605 21.4887C75.5513 21.3661 75.2233 21.4413 74.9241 21.4031C74.4961 21.3433 74.1099 21.401 73.7935 21.6949C73.6416 21.835 73.4822 21.7926 73.3406 21.6625C73.244 21.7961 73.1613 21.9281 73.0661 22.0738C72.9636 22.0369 72.8567 21.9639 72.8166 21.9808C72.6189 22.0897 72.3655 22.0828 72.1802 22.1779C71.7708 22.3972 71.3403 22.4355 70.915 22.3999C70.8015 22.3888 70.7017 22.3761 70.5938 22.4132C70.1842 22.5102 69.7604 22.4867 69.3536 22.6078C69.218 22.6482 69.0529 22.5576 68.8854 22.565C68.6472 22.5686 68.4243 22.5825 68.1889 22.6102C67.9398 22.6395 67.6948 22.7049 67.4552 22.6964C66.9512 22.7067 66.4251 22.7686 65.9442 22.6172C65.6227 22.5083 65.2656 22.5747 64.9674 22.4263C64.7594 22.3285 64.5404 22.2564 64.3492 22.1811C64.3449 22.1449 64.3932 22.0781 64.3751 22.0435C64.1111 21.7078 63.6234 21.6184 63.2848 21.3647C63.2529 21.3318 63.1436 21.3569 63.1269 21.3344C63.0864 21.2291 63.0723 21.1085 63.2175 21.0303C63.2175 21.0303 63.2146 21.0062 63.1994 20.9957C62.9069 20.8956 62.9069 20.8956 62.7217 20.5139C62.7189 20.4898 62.6497 20.4979 62.6191 20.477C62.5095 20.3799 62.4108 20.257 62.2887 20.1735C62.1361 20.0692 61.9739 20.0027 61.7645 19.8928C61.6775 19.9886 61.5657 20.1118 61.4787 20.2076C61.1174 20.2378 60.7919 20.2149 60.4987 20.3472C60.3922 20.3964 60.2161 20.3315 60.1195 20.4651C59.9865 20.4074 59.8658 20.336 59.7341 20.2903C59.4597 20.2247 59.2102 20.1318 58.906 20.2898C58.7083 20.3986 58.43 20.4191 58.1822 20.4604C57.8237 20.5148 57.4723 20.6294 57.1499 20.7529C56.883 20.8698 56.6022 20.9884 56.3171 21.0708C56.0044 21.1565 55.6707 21.1835 55.3413 21.2466C55.2721 21.2548 55.1933 21.3007 55.1574 21.3538C55.069 21.4376 54.9902 21.4835 54.8504 21.4877C54.7673 21.4975 54.6427 21.5121 54.5944 21.5789C54.2298 21.9396 53.7311 21.876 53.2714 21.9055C53.133 21.9218 52.9513 21.8087 52.8278 21.7131C52.7806 21.6698 52.8356 21.5411 52.8381 21.4429C52.6582 21.4641 52.5478 21.5993 52.37 21.4001C52.1769 21.1905 52.0599 20.9108 51.723 20.7915C51.7866 20.7351 51.8114 20.7077 51.8363 20.6804C51.5854 20.5754 51.333 20.4583 51.053 20.3445C51.1733 20.2937 51.2688 20.2702 51.2922 20.2308C51.3157 20.1913 51.2781 20.1102 51.217 20.0684C51.1698 20.0251 51.0715 20.0244 51.0119 19.9947C50.8759 19.9129 50.6832 19.8255 50.6552 19.7065C50.5882 19.4943 50.3873 19.4568 50.2318 19.3283C50.0508 19.4597 49.9766 19.664 49.7189 19.6209C49.5172 19.8158 49.1928 19.6827 48.9826 19.8052C48.8126 19.9108 48.627 19.8837 48.4818 19.9619C48.295 20.045 48.1283 19.8201 47.9667 19.998C47.1496 19.9717 47.025 19.9864 46.3332 20.1899C45.9651 20.2821 45.6385 20.3694 45.2164 20.4801C45.2164 20.4801 45.1557 20.5606 45.0936 20.629C44.9846 20.7763 44.9299 21.0273 44.6012 20.8581C44.6012 20.8581 44.3492 20.8632 44.3105 20.8922C44.2125 21.0138 44.0797 21.0783 43.9317 21.1323C43.9317 21.1323 43.8167 21.1092 43.7351 21.131C43.5966 21.1473 43.4262 21.1306 43.3073 21.1935C43.2022 21.2547 43.1636 21.2837 43.0305 21.226C42.792 21.1073 42.5744 21.0473 42.2439 21.2206C41.847 21.4262 41.6904 21.8848 41.371 21.5555C41.3238 21.5122 41.2752 21.4567 41.2294 21.4254C40.9805 21.5769 40.9681 21.5906 40.8322 21.5088C40.577 21.3676 40.3374 21.3591 40.047 21.5155C39.888 21.5953 39.6437 21.9052 39.4475 21.5492C39.4461 21.5372 39.3616 21.5349 39.3367 21.5622C39.0836 21.6776 38.8319 21.805 38.5788 21.9203C38.4986 21.9542 38.3687 22.0428 38.3257 22.0356C38.0109 21.8647 37.8011 22.1095 37.57 22.1733C37.2047 22.2896 36.8408 22.4179 36.4951 22.5808C36.2019 22.7131 35.9672 22.9852 35.5597 22.8619C35.5154 22.8427 35.4103 22.9039 35.3439 22.9362C35.1738 23.0417 34.9871 23.1248 34.8352 23.2649C34.6956 23.3914 34.3396 23.3476 34.1557 23.4548C33.9719 23.562 33.7475 23.5639 33.6328 23.663C33.4671 23.8047 33.3116 23.6763 33.1803 23.7528C32.9037 23.9076 32.6591 24.0953 32.3645 24.2155C32.0713 24.3478 31.8976 24.6616 31.5029 24.6468C31.4752 24.6501 31.4063 24.7805 31.3733 24.8577C31.3403 24.9349 31.3072 25.0122 31.2742 25.0894C30.9324 25.1663 30.592 25.2552 30.3456 25.3086C30.1238 25.2124 29.9602 25.1338 29.8118 25.0656C29.8587 24.9868 29.9247 24.8323 29.76 24.8639C29.4832 24.8964 29.5531 24.6559 29.3828 24.6392L29.4293 24.4381C29.3462 24.4479 29.2909 24.4544 29.1925 24.4537C29.1479 24.3122 29.1017 24.1587 29.0542 23.9931C28.9644 24.0648 28.9147 24.1196 28.8497 24.1639C28.8806 24.307 28.724 24.2887 28.6438 24.3226C28.6498 24.493 28.5224 24.4836 28.4031 24.4242C28.1078 24.3 27.799 24.2996 27.4753 24.411C27.4075 24.4312 27.3258 24.453 27.2982 24.4562C27.0121 24.172 26.7416 24.4972 26.4686 24.4437C26.409 24.414 26.3948 24.2934 26.1886 24.3299C26.0377 24.3598 25.8027 24.5097 25.665 24.2936C25.5983 24.2036 25.4475 24.2335 25.3271 24.2844C25.0048 24.4078 24.6559 24.4244 24.3602 24.6547C24.2441 24.7417 23.974 24.7124 23.7816 24.7472C23.5615 24.7853 23.3552 24.8217 23.149 24.8582L23.1287 25.044C23.1287 25.044 23.1039 25.0713 23.1067 25.0955C23.1237 25.2402 23.0381 25.3481 22.9647 25.32C22.6722 25.2199 22.5465 25.3447 22.4294 25.5419C22.4059 25.5813 22.3548 25.624 22.3008 25.6425L21.3008 26.0902C21.2206 26.124 21.1113 26.1491 21.0878 26.1885C20.9848 26.5063 20.6054 26.502 20.3938 26.6124C20.282 26.7356 20.1911 26.9175 20.108 26.9272C19.6788 26.9777 19.5957 27.4643 19.1442 27.444C18.8349 27.7982 18.427 28.0295 18.0245 28.1869C17.9819 28.3019 17.9598 28.3534 17.9517 28.4033C17.82 28.3576 17.7536 28.3899 17.6528 28.4873C17.476 28.6548 17.2743 28.8497 17.0975 29.0172C16.8834 29.2257 16.614 29.4408 16.5678 29.7641C16.5379 29.9877 16.3848 30.238 16.086 30.322C15.8272 30.3891 16.0007 30.5521 15.8985 30.6375C15.7313 30.7671 15.6792 30.4431 15.4331 30.6188C15.1733 30.796 14.8613 30.6493 14.583 30.6698C14.3261 30.3943 13.9026 30.493 13.5356 30.4749C13.5412 30.5232 13.515 30.5385 13.504 30.5642C13.4887 30.5538 13.4443 30.5346 13.4568 30.5209C13.4678 30.4951 13.494 30.4798 13.5189 30.4525C13.4731 30.4212 13.4273 30.3899 13.3705 30.3843C13.1725 30.3709 12.9411 30.3125 12.7806 30.3803C12.5925 30.4513 12.4795 30.6846 12.2651 30.7709C12.389 30.9887 12.1387 31.1282 11.9726 31.1477C11.6403 31.1867 11.4387 31.3816 11.1717 31.4985C11.0251 31.5647 10.9133 31.6878 10.7028 31.6881C10.4646 31.6917 10.2367 31.9018 10.0056 31.9657C9.679 32.053 9.57283 32.2244 9.46949 32.4199C9.45848 32.4457 9.40878 32.5004 9.38109 32.5037C9.12624 32.4847 9.041 32.7148 9.02323 32.8025C8.95216 33.1532 8.64651 33.2991 8.32844 33.4588C8.28832 33.4757 8.22052 33.4959 8.20951 33.5216C8.06323 33.71 7.90169 33.8879 7.61522 33.9583C7.53216 33.968 7.42316 34.1153 7.36386 34.2079C7.25627 34.3672 7.07663 34.5106 7.08546 34.7052C7.08971 34.7414 6.97221 34.8163 6.91825 34.8349C6.64705 34.9157 6.44397 35.0985 6.49717 35.3123C6.57412 35.6089 6.3462 35.8191 6.1598 36.0244C5.96098 36.2434 5.77316 36.4366 5.58676 36.6419C5.73545 36.8323 5.85361 37.0018 5.98703 37.1818C5.79497 37.3388 5.69021 37.5223 5.4371 37.6376C5.18541 37.765 5.18214 38.0955 5.03869 38.308C4.7518 38.733 4.66296 39.1713 4.84816 39.553C5.01527 39.9002 4.85405 40.2004 4.83585 40.6426C4.69425 40.5126 4.63037 40.4467 4.56649 40.3809C4.45041 40.4679 4.46915 40.7469 4.19337 40.6692C4.13516 40.6516 3.97754 40.7435 3.92925 40.8103C3.70024 41.1307 3.36516 41.1456 3.08294 41.2521C2.90865 41.3215 2.74318 41.5855 2.54337 41.4378C2.44712 41.6936 2.30945 41.4775 2.19052 41.5404C1.9651 41.6524 1.70099 41.7935 1.49333 41.8179C1.21646 41.8504 0.939589 41.883 0.666968 41.9517C0.464548 42.3789 0.46019 42.8196 0.482101 43.245C0.502596 43.6583 0.578464 44.065 0.720717 44.4396C0.831031 44.7812 1.02975 45.039 0.95192 45.4517C0.725081 45.5517 0.709821 45.5412 0.444506 46.2693C0.614446 46.6406 0.793977 46.9741 0.896116 47.3656C0.953563 47.6156 1.07881 47.8454 1.13626 48.0954C1.22172 48.4644 1.44463 48.4504 1.64694 48.5C1.90027 48.9837 2.06237 49.5271 2.47048 49.8949C2.60924 50.0008 2.81156 50.0504 2.91021 50.1733C3.25902 50.6336 3.70725 50.9844 4.12496 51.3144C4.35812 51.507 4.58845 51.6756 4.84221 51.8047C5.11265 51.9563 5.39835 52.1184 5.68907 52.0842C6.02371 52.4239 6.32108 52.8047 6.8116 52.9182C6.86981 52.9358 6.93085 52.9776 6.96279 53.0105C7.08095 53.18 7.20413 53.1533 7.366 53.0976C7.47391 53.0605 7.61802 53.0924 7.68756 53.2065C7.75711 53.3206 7.78512 53.4396 7.8284 53.569C7.50716 53.5823 7.76659 53.7597 7.76267 53.8457C7.74381 54.0436 7.94111 54.2894 7.65072 54.4458C7.45157 54.5425 7.43272 54.7403 7.4277 54.9366C7.43904 55.033 7.52101 55.1335 7.59339 55.2717C7.44645 55.2156 7.37298 55.1875 7.29951 55.1595C7.24588 55.3003 7.67711 55.5064 7.27989 55.5897C7.27989 55.5897 7.26387 55.8117 7.42465 55.8661C7.51338 55.9046 7.63939 55.902 7.7157 55.9542C7.91692 56.114 8.10397 56.1531 8.35741 56.16C8.58316 56.1702 8.9239 56.2035 8.92205 56.546C8.9263 56.5822 8.94723 56.6409 8.94723 56.6409C9.43884 56.6443 9.53673 56.9996 9.7216 57.259C9.75496 57.304 9.82701 57.32 9.88805 57.3617L10.2653 57.5864C10.447 57.6995 10.6135 57.8022 10.8194 57.6436C10.9231 57.5702 11.1406 57.6303 11.2059 57.7082C11.4171 57.9524 11.7635 58.0339 12.0368 58.2097C12.4016 58.448 12.7966 58.585 13.2435 58.4469C13.447 58.3863 13.5857 58.4923 13.6471 58.6562C13.8061 58.5764 13.9499 58.4861 14.1075 58.3943C14.1728 58.4722 14.2409 58.5742 14.2839 58.5814C14.5206 58.5658 14.7577 58.6724 14.9668 58.6601C15.4417 58.641 15.874 58.7369 16.2499 58.9495C16.3553 59.0104 16.4302 59.0505 16.559 59.0721C16.9733 59.1335 17.3615 59.3324 17.7853 59.3559C17.9266 59.3638 18.0558 59.5075 18.2027 59.5636C18.4231 59.6478 18.6407 59.7078 18.8721 59.7662C19.1174 59.823 19.3612 59.8677 19.5941 59.9381C20.075 60.0895 20.5808 60.2134 20.968 60.5225C21.2178 60.7377 21.5752 60.7935 21.8126 61.0223C21.9709 61.1749 22.1416 61.3138 22.297 61.4423C22.2736 61.4817 22.2086 61.526 22.2129 61.5622C22.3165 61.9657 22.7519 62.208 22.962 62.5623C22.9801 62.5969 23.0951 62.62 23.0979 62.6442C23.0982 62.7664 23.0695 62.8798 22.8909 62.913L22.8952 62.9492C23.1408 63.1282 23.1408 63.1282 23.1612 63.5415C23.1641 63.5656 23.2361 63.5816 23.239 63.6057C23.3099 63.7319 23.3546 63.8733 23.438 63.9858C23.5381 64.1207 23.6797 64.2508 23.8241 64.405C23.943 64.3421 24.1021 64.2623 24.221 64.1994C24.5827 64.2914 24.878 64.4157 25.2102 64.3767C25.3348 64.362 25.475 64.48 25.6173 64.3777C25.7132 64.4765 25.809 64.5753 25.9311 64.6587C26.1586 64.8032 26.3736 64.9613 26.7321 64.907C26.9661 64.8672 27.2404 64.9328 27.4829 64.9655C27.8541 65.0196 28.2183 65.0135 28.5797 64.9833C28.8842 64.9475 29.1888 64.9117 29.4852 64.9258C29.8092 64.9366 30.1404 65.0078 30.4797 65.029C30.5503 65.0329 30.632 65.0111 30.6984 64.9789C30.8035 64.9176 30.9128 64.8925 31.0445 64.9382C31.1318 64.9646 31.2578 64.962 31.3242 64.9298C31.8013 64.6903 32.2602 64.8932 32.7064 64.9875C32.8505 65.0194 32.9796 65.1632 33.0506 65.2893C33.0854 65.3464 32.986 65.4559 32.9405 65.5468C33.1247 65.5618 33.2685 65.4716 33.3675 65.7167C33.4817 65.9723 33.4894 66.277 33.7656 66.4769C33.6853 66.5108 33.6605 66.5381 33.6204 66.5551C33.823 66.7269 34.0271 66.9108 34.245 67.093C34.1204 67.1077 34.0206 67.0949 33.9681 67.1256C33.9294 67.1546 33.9546 67.2494 33.9879 67.2944C34.0227 67.3514 34.11 67.3779 34.1572 67.4212C34.2559 67.5441 34.3975 67.6742 34.3978 67.7964C34.3818 68.0184 34.5606 68.1074 34.665 68.2785C34.8794 68.1922 35.0285 68.028 35.2517 68.1362C35.5158 67.9952 35.7795 68.2087 36.0106 68.1449C36.2154 68.0964 36.3776 68.1629 36.5423 68.1313C36.75 68.1069 36.8366 68.3657 37.0453 68.2312C37.8048 68.4842 37.9461 68.4921 38.6592 68.4694C39.0096 68.4649 39.3766 68.483 39.8128 68.4928C39.8128 68.4928 39.904 68.4332 39.9829 68.3873C40.1376 68.2713 40.2797 68.0467 40.5352 68.3101C40.5352 68.3101 40.7666 68.3685 40.8191 68.3379C40.9491 68.2493 41.0999 68.2193 41.2522 68.2014C41.2522 68.2014 41.3562 68.2503 41.4407 68.2526C41.5834 68.2726 41.7442 68.327 41.8673 68.3003C41.9905 68.2736 42.043 68.243 42.1389 68.3418C42.3291 68.5273 42.5108 68.6404 42.8803 68.5603C43.3329 68.4705 43.6241 68.0817 43.8245 68.4738C43.8593 68.5309 43.8802 68.5895 43.9136 68.6345C44.1986 68.5521 44.211 68.5384 44.3083 68.6493C44.5013 68.8589 44.7189 68.9189 45.0483 68.8558C45.2269 68.8226 45.5503 68.5889 45.6109 68.9853C45.6123 68.9973 45.6844 69.0133 45.712 69.0101C45.9875 68.9655 46.2768 68.9193 46.5508 68.8626C46.6477 68.8512 46.7958 68.7971 46.8277 68.8301C47.0527 69.0726 47.3402 68.8921 47.5923 68.8869C47.9703 68.8792 48.3593 68.8457 48.7317 68.7897C49.0625 68.7386 49.3639 68.5565 49.6982 68.774C49.744 68.8053 49.8533 68.7802 49.9197 68.748C50.1093 68.689 50.3169 68.6646 50.5161 68.5678C50.689 68.4864 51.0009 68.6331 51.2182 68.5709C51.4216 68.5103 51.6406 68.5824 51.7858 68.5042C51.9849 68.4075 52.0892 68.5786 52.2401 68.5487C52.5543 68.4751 52.8489 68.3549 53.1535 68.3191C53.4719 68.2817 53.7495 68.0167 54.103 68.1586C54.1321 68.1674 54.2315 68.0579 54.2936 67.9895C54.3419 67.9227 54.4055 67.8663 54.4676 67.7979C54.8208 67.8175 55.1463 67.8404 55.4136 67.8457C55.5718 67.9982 55.6982 68.1179 55.8245 68.2375C55.7471 68.2955 55.6353 68.4187 55.7932 68.449C56.0648 68.4905 55.8936 68.7062 56.0558 68.7728L55.9372 68.9579C56.0093 68.9738 56.0675 68.9915 56.1686 69.0163C56.1579 69.1642 56.1348 69.3259 56.127 69.498C56.2335 69.4488 56.3013 69.4286 56.3677 69.3963C56.3922 69.2467 56.5267 69.3165 56.6236 69.3051C56.6897 69.1507 56.7923 69.1875 56.8728 69.2759C57.0935 69.4822 57.3707 69.5719 57.7058 69.557C57.775 69.5489 57.8609 69.5632 57.8886 69.56C58.0433 69.9208 58.3958 69.696 58.6357 69.8267C58.6829 69.8701 58.6556 69.9956 58.8551 70.0211C58.9977 70.041 59.2704 69.9722 59.3126 70.2118C59.3253 70.3204 59.4804 70.3266 59.6064 70.324C59.9415 70.3091 60.2727 70.3802 60.6088 70.2551C60.7569 70.2011 60.9677 70.323 61.1533 70.3501C61.3542 70.3876 61.5537 70.4131 61.7684 70.449L61.8607 70.2792C61.8607 70.2792 61.9009 70.2623 61.8995 70.2502C61.9531 70.1094 62.0567 70.0361 62.1178 70.0778C62.3357 70.2601 62.4947 70.1802 62.6729 70.0248C62.7116 69.9958 62.7794 69.9756 62.8348 69.9691L63.8898 69.8696C63.9728 69.8598 64.0878 69.883 64.1113 69.8436C64.3474 69.5835 64.6703 69.7045 64.8918 69.6785C65.0509 69.5987 65.1904 69.4722 65.2763 69.4866C65.6671 69.5874 65.954 69.1624 66.3394 69.3372C66.7626 69.1163 67.2152 69.0265 67.6237 69.0396C67.7107 68.9438 67.748 68.9027 67.7853 68.8617C67.8658 68.95 67.935 68.9419 68.0831 68.8878C68.3113 68.7999 68.5658 68.6966 68.7927 68.5966C69.0735 68.478 69.3986 68.3787 69.5904 68.0994C69.7214 67.9006 69.9688 67.737 70.268 67.7752C70.5243 67.8062 70.4573 67.594 70.579 67.5553C70.7824 67.4947 70.667 67.8261 70.9535 67.7558C71.2538 67.6838 71.4401 67.9554 71.691 68.0604C71.7612 68.4189 72.1644 68.506 72.4363 68.6697C72.4597 68.6303 72.486 68.615 72.5122 68.5997C72.5151 68.6238 72.547 68.6567 72.5332 68.6583C72.5069 68.6737 72.4792 68.6769 72.4529 68.6922C72.4725 68.7388 72.492 68.7855 72.5363 68.8047C72.6875 68.897 72.8444 69.0375 73.0148 69.0541C73.2114 69.0555 73.4063 68.9225 73.6182 68.9343C73.6452 68.6866 73.9111 68.6798 74.0442 68.7375C74.3256 68.8634 74.5816 68.7722 74.8503 68.7895C75.0054 68.7958 75.141 68.7554 75.306 68.846C75.4877 68.9592 75.7742 68.8888 75.9765 68.9384C76.2676 69.0265 76.4376 68.9209 76.6339 68.8C76.6602 68.7847 76.728 68.7645 76.7433 68.775C76.914 68.9138 77.1089 68.7809 77.171 68.7125C77.4224 68.4629 77.7216 68.5011 78.0471 68.524C78.0886 68.5191 78.1468 68.5367 78.1745 68.5334C78.4027 68.4455 78.6076 68.397 78.8446 68.5036C78.9181 68.5316 79.0661 68.4776 79.1602 68.4421C79.3345 68.3727 79.5436 68.3603 79.6512 68.201C79.676 68.1736 79.802 68.171 79.8464 68.1903C80.0668 68.2744 80.305 68.2709 80.4097 68.0874C80.5614 67.825 80.8397 67.8046 81.086 67.7512C81.3323 67.6978 81.5982 67.691 81.8474 67.6617C81.905 67.4349 81.9515 67.2338 81.998 67.0327C82.2252 67.0549 82.4133 66.9839 82.6476 67.0664C82.868 67.1505 83.1265 66.9612 83.3604 66.9215C83.8296 66.8541 84.2127 66.6502 84.4403 66.3178C84.6555 65.999 84.9849 65.9359 85.3832 65.7424C85.3185 65.9089 85.3008 65.9966 85.2677 66.0738C85.387 66.1332 85.6358 65.9817 85.6656 66.2349C85.6727 66.2952 85.8086 66.3771 85.8931 66.3794C86.2477 66.411 86.3633 66.6787 86.5383 66.8537C86.6494 66.963 86.9085 67.0181 86.8495 67.2329C87.0877 67.2293 86.9538 67.404 87.0205 67.494C87.1788 67.6466 87.3523 67.8096 87.4151 67.9856C87.4974 68.2082 87.5936 68.4292 87.7007 68.6245C88.4057 68.6517 89.0017 68.3493 89.5729 68.0744C89.8246 67.947 90.0276 67.7642 90.3546 67.7991C90.4075 67.9315 90.6263 68.081 91.0108 68.2478C91.304 68.1155 91.5528 67.964 91.8865 67.937C92.0942 67.9126 92.299 67.8641 92.4942 67.8534C92.8016 67.8417 92.8204 67.6439 92.8865 67.4894C93.3377 67.3875 93.8169 67.4045 94.2081 67.1507C94.3394 67.0741 94.4207 66.9301 94.5578 66.9018C95.049 66.7829 95.4555 66.5395 95.9106 66.3515C96.1651 66.2483 96.392 66.1483 96.5993 66.0016C96.8343 65.8518 97.1013 65.7348 97.1975 65.479C97.6515 65.4012 98.1084 65.3475 98.4662 65.0487C98.5049 65.0197 98.5727 64.9995 98.6281 64.993C98.8386 64.9927 98.8688 64.8913 98.9072 64.7401C98.9235 64.6404 99.0257 64.555 99.167 64.5628C99.2944 64.5723 99.4261 64.618 99.5564 64.6516C99.4158 64.8882 99.6841 64.7833 99.7757 64.8459C99.945 64.9727 100.269 64.9835 100.246 65.2674C100.226 65.4532 100.397 65.5921 100.549 65.6964C100.626 65.7486 100.765 65.7444 100.923 65.7747C100.792 65.8513 100.726 65.8836 100.673 65.9142C100.77 66.025 101.172 65.8556 101.027 66.1783C101.027 66.1783 101.198 66.3172 101.343 66.239C101.422 66.193 101.496 66.1109 101.578 66.0891C101.81 66.0373 101.954 65.9471 102.117 65.7812C102.255 65.6427 102.482 65.4205 102.773 65.6308C102.804 65.6516 102.876 65.6676 102.876 65.6676C103.174 65.3391 103.515 65.4947 103.843 65.5417C103.9 65.5472 103.966 65.515 104.02 65.4964L104.443 65.3857C104.647 65.3372 104.824 65.2919 104.825 65.0595C104.812 64.951 105.009 64.8301 105.122 64.8412C105.462 64.8625 105.752 64.7061 106.068 64.6445C106.506 64.5563 106.866 64.3918 107.062 64.0264C107.154 63.8567 107.335 63.8476 107.513 63.9245C107.551 63.7733 107.576 63.6237 107.613 63.4604C107.726 63.4715 107.857 63.5051 107.88 63.4657C108.031 63.3135 108.273 63.2239 108.409 63.0734C108.708 62.7449 109.106 62.5514 109.545 62.4631C109.669 62.4485 109.749 62.4146 109.854 62.3534C110.208 62.1406 110.628 62.0057 110.965 61.7705C111.082 61.6956 111.28 61.709 111.428 61.6549C111.644 61.5806 111.871 61.4806 112.069 61.3718C112.294 61.2597 112.502 61.1131 112.73 61.0251C113.213 60.8339 113.676 60.5961 114.206 60.5704C114.554 60.5418 114.869 60.3581 115.221 60.3656C115.46 60.3742 115.711 60.357 115.921 60.3567C115.926 60.3929 115.934 60.4652 115.965 60.4861C116.382 60.6938 116.9 60.5596 117.36 60.6523C117.403 60.6595 117.508 60.5982 117.524 60.6207C117.617 60.6954 117.699 60.7958 117.603 60.9294C117.603 60.9294 117.633 60.9503 117.647 60.9486C117.979 60.9096 117.979 60.9096 118.361 61.1704C118.376 61.1809 118.444 61.1607 118.472 61.1574C118.631 61.1998 118.778 61.2559 118.95 61.2846C119.149 61.3101 119.358 61.2978 119.61 61.2926C119.651 61.1655 119.69 61.0143 119.731 60.8872C120.074 60.7001 120.396 60.5767 120.619 60.3183C120.692 60.2241 120.913 60.1981 120.924 60.0501C121.076 60.0322 121.245 60.0368 121.395 59.9948C121.695 59.9228 121.997 59.8629 122.202 59.582C122.335 59.3953 122.597 59.2421 122.803 59.0834C123.125 58.8377 123.389 58.5744 123.621 58.2782C123.817 58.0351 124 57.8057 124.21 57.561C124.462 57.3113 124.757 57.081 125.01 56.8434C125.06 56.7887 125.107 56.7098 125.113 56.6479C125.142 56.5344 125.189 56.4556 125.304 56.3565C125.381 56.2985 125.468 56.2027 125.487 56.1271C125.566 55.6043 126.071 55.3616 126.466 55.0217C126.579 54.9106 126.827 54.8693 126.993 54.8498C127.063 54.8416 127.121 54.9815 127.186 55.0594C127.323 54.9088 127.331 54.7367 127.641 54.7492C127.978 54.7463 128.316 54.8777 128.7 54.6859C128.696 54.7719 128.687 54.8097 128.691 54.8459C129.012 54.7104 129.331 54.5628 129.679 54.4119C129.61 54.5423 129.538 54.6486 129.558 54.6952C129.563 54.7434 129.677 54.7545 129.758 54.7327C129.842 54.7229 129.929 54.6271 130.01 54.6053C130.2 54.5464 130.453 54.431 130.585 54.4767C130.819 54.5592 131.052 54.3973 131.297 54.3318C131.337 54.0704 131.242 53.8615 131.509 53.6223C131.512 53.2918 131.903 53.038 131.984 52.7717C132.04 52.5328 132.199 52.3307 132.246 52.1296C132.314 51.8771 132.67 51.7986 132.611 51.5365C133.261 50.6165 133.303 50.3793 133.532 49.4598C133.612 48.9491 133.698 48.4866 133.795 47.8762C133.793 47.8641 133.753 47.7588 133.686 47.6688C133.564 47.4632 133.31 47.334 133.6 46.9332C133.6 46.9332 133.672 46.5945 133.637 46.5375C133.535 46.3784 133.498 46.1871 133.474 45.9821C133.493 45.9065 133.512 45.8308 133.5 45.7223C133.491 45.5277 133.534 45.3025 133.475 45.1506C133.415 44.9987 133.38 44.9417 133.472 44.7719C133.646 44.458 133.722 44.1556 133.489 43.7184L133.439 43.8954ZM4.12121 41.1301C4.13724 40.9081 4.19795 40.8276 4.4116 40.9737C4.30652 41.035 4.22771 41.0809 4.12121 41.1301ZM94.2994 25.7654C94.2341 25.6875 94.1855 25.6321 94.1202 25.5542C94.3417 25.5281 94.4151 25.5562 94.2994 25.7654ZM44.4556 25.9492L43.9199 21.3905L44.457 25.9612L44.4556 25.9492ZM85.6873 66.0612C85.7789 66.1238 85.8537 66.1639 85.9301 66.2161C85.7295 66.3008 85.645 66.2985 85.6873 66.0612Z" fill="#F9D983"/>
<path d="M99.2739 25.7818L112.581 27.1892C112.955 27.2253 113.158 27.7546 112.935 28.1275L111.155 31.1588L114.331 32.9752L113.643 37.7749L114.502 41.5761C114.543 43.3324 113.764 44.9684 112.5 45.8104L88.5047 63.6858L51.8188 51.6085L18.6012 41.9972L18.5001 37.2216L20.0068 34.3105L18.7124 31.628L18.2473 24.8074L20.1686 23.4L99.2739 25.7818Z" fill="#99D5CE"/>
<path d="M28.1466 37.6065C28.5207 37.7147 28.905 37.7869 29.2791 37.9312C29.4207 37.9914 29.5926 37.847 29.6735 38.256C29.7139 38.4605 29.9364 38.0515 30.0577 38.1117C30.4015 38.256 30.7656 38.2921 31.1094 38.4365C31.4431 38.5688 31.7565 38.8214 32.0902 38.9658C32.4239 39.0981 32.8082 38.9898 33.0913 39.3146C33.334 39.5913 33.6576 39.3146 33.9205 39.471C34.1935 39.6394 34.4766 39.7838 34.7901 39.6875C35.0227 39.6274 35.2552 39.5311 35.4373 39.6635C35.5586 39.7477 35.6294 40.0003 35.771 40.0243C35.9024 40.0484 36.0844 39.892 36.1148 40.3732C36.1148 40.4093 36.1855 40.3491 36.2361 40.301C36.4282 40.0484 36.6001 40.1206 36.681 40.3491C36.7619 40.5657 36.863 40.5777 36.9642 40.6138C37.2473 40.722 37.5405 40.8183 37.8338 40.8544C38.0562 40.8784 38.309 40.7701 38.5315 40.7942C38.7641 40.8183 38.9663 41.0829 39.2191 40.9265C39.4719 40.7701 39.664 40.8423 39.8764 40.8904C39.9977 40.9265 40.1696 40.7581 40.1797 41.2273C40.1797 41.2754 40.2303 41.2754 40.2505 41.2513C40.6955 40.7581 40.8775 41.6122 41.2415 41.5641C41.6156 41.516 41.9594 41.7205 42.3032 41.8287C42.3942 41.8648 42.5257 41.7565 42.5459 42.1054C42.5459 42.2257 42.647 42.2618 42.7178 42.2016C43.0616 41.8287 43.2841 42.1776 43.5672 42.1776C43.8908 42.1776 44.1537 42.4663 44.5279 42.2136C44.6896 42.1054 44.8818 42.0813 44.9526 42.5264C44.9829 42.7309 45.175 42.5866 45.2761 42.6587C45.357 42.7189 45.4076 42.9354 45.4986 42.9715C45.5795 42.9955 45.6806 42.8512 45.7817 42.8031C45.8121 42.791 45.8424 42.8031 45.8525 42.8271C46.2064 43.4166 46.7727 42.9113 47.1974 43.164C47.6221 43.4166 48.0872 43.4887 48.5524 43.5489C48.8052 43.585 49.0883 43.5248 49.422 42.767C49.5737 42.4302 49.6445 42.0332 49.5838 41.7806C49.5434 41.5881 49.4827 41.4077 49.4018 41.3355C49.2703 41.2273 49.149 41.0949 49.0276 40.9867C48.7647 40.7701 48.5524 40.313 48.2187 40.4333C48.1176 40.4694 48.0468 40.2288 47.8951 40.5656C47.8749 40.6138 47.8344 40.6258 47.8142 40.6017C47.521 39.9401 47.0356 40.1807 46.6412 40.0364C46.3075 39.904 46.0548 39.3748 45.6705 39.459C45.5694 38.9658 45.3267 38.9778 45.1042 39.062C44.3256 39.3387 43.7088 38.8334 43.0111 38.7132C42.3032 38.5808 41.6257 38.3282 40.928 38.1598C40.8067 38.1357 40.7561 37.847 40.5842 38.0034C40.4224 38.1478 40.2809 37.9553 40.1292 37.9192C39.9876 37.8831 39.8663 37.7508 39.7146 37.823C39.0775 38.1357 38.5922 37.7027 38.036 37.6065C37.4799 37.5102 36.9338 37.402 36.4181 37.1373C36.1046 36.9809 35.8215 36.6441 35.4676 36.6441C35.3159 36.6441 35.2148 36.3675 34.9923 36.7404C34.9317 36.8486 34.8609 36.4877 34.7699 36.4517C34.5474 36.3554 34.3148 36.3193 34.0924 36.2472C33.7789 36.163 33.4553 36.1028 33.152 35.9705C32.97 35.8863 32.8082 35.6698 32.6262 35.5735C32.434 35.4773 32.2318 35.4172 32.0194 35.4051C31.7565 35.3811 31.4734 35.4653 31.2105 35.4412C30.9375 35.4172 30.7049 35.1405 30.4116 35.2608C29.8757 35.4893 29.4409 35.1766 28.9657 35.0924C28.4904 35.0081 28.0151 34.8999 27.5702 34.6834C27.3174 34.5631 27.0039 34.8518 26.7511 34.7676C26.6298 34.7315 26.2658 35.7179 26.2455 36.0908C26.2455 36.163 26.2456 36.2351 26.2658 36.2712C26.4579 36.6682 26.5894 37.2456 26.8826 37.2937C27.3174 37.3659 27.7421 37.5223 28.1668 37.6426L28.1466 37.6065Z" fill="#B09151"/>
<path d="M81.6484 17.6861L65.611 15.4126L61.3842 19.1176L45.3771 28.2598L41.5548 33.0354L41.6357 48.7215L53.325 52.6069L55.3676 32.8429L81.6484 17.6861Z" fill="#E5F5F3"/>
<path d="M18.5213 33.9496L18.6831 34.2984L17.3585 36.8727L17.4495 42.1415C17.4495 42.4542 17.4697 42.779 17.4697 43.0918C18.127 43.2722 18.7741 43.4286 19.4112 43.6331C19.8966 43.7895 20.1898 43.9459 20.5741 44.2105C20.9988 44.5353 21.9594 44.3308 22.7784 44.5954C25.0233 45.257 27.2681 45.9186 29.513 46.5682C31.6769 47.2779 33.8409 47.9877 36.0048 48.7094C38.1586 49.383 40.4338 49.8161 42.4764 50.6461C44.246 51.3679 45.9448 51.4882 47.6537 52.0656C49.4637 52.6911 51.3547 53.2805 53.1748 53.6534C54.5096 53.9181 55.8241 54.1586 57.1083 54.6157C57.9072 54.9044 58.615 55.3616 59.5048 55.6021C60.3239 55.8307 61.2947 55.9269 61.9216 56.5765C61.9721 56.6367 62.3564 56.6607 62.5586 56.6607C63.4991 56.6367 64.581 56.9855 65.2787 57.3945C65.9562 57.8035 66.6034 57.9719 67.2708 58.1764C69.1111 58.7538 70.9515 59.3192 72.7919 59.8244C73.4492 60.0049 74.1064 60.1492 74.7637 60.2935L76.6344 60.7266H76.6546L76.7659 60.7867C78.1512 61.4243 79.5466 62.3265 80.8814 62.7475C82.2263 63.1685 83.4296 63.782 84.6734 64.3955C85.007 64.5398 85.361 64.6962 85.7048 64.8526C85.8261 64.9128 86.1396 65.0812 86.4025 65.2376C86.6654 65.406 86.9283 65.5864 87.1811 65.7909C87.2822 65.7548 87.3631 65.7307 87.4541 65.7067C87.5552 65.6826 88.0103 65.3458 88.2024 65.1654L88.4855 64.9007L88.6372 64.7323L88.9608 64.4195C89.1731 64.2271 89.4057 64.0346 89.6282 63.8662C90.0832 63.5174 90.5686 63.2166 91.054 62.9279C92.0247 62.3505 93.0258 61.8092 93.946 61.0754C95.8268 59.5477 97.8795 58.2004 99.8614 56.793C100.387 56.4201 100.893 55.9029 101.52 55.8307C101.742 55.8067 102.298 55.4217 102.531 55.1571C103.795 53.7136 105.453 52.8475 106.92 51.7047C108.588 50.4055 110.398 49.347 111.965 47.8072C112.309 47.4704 112.683 47.1456 113.189 46.7968C113.755 46.4118 114.332 45.8946 114.867 45.3533C115.403 44.8601 115.808 43.2963 115.869 42.1294C115.879 42.0092 115.889 41.8889 115.899 41.7686V41.5881L115.919 41.54V41.516L115.869 41.107V41.0348L115.818 40.5055C115.788 40.1566 115.747 39.7958 115.676 39.459C115.545 38.8816 115.282 38.3402 115.08 37.7628C115.049 37.6907 115.049 37.7027 115.049 37.6666V37.6426L115.1 37.6065L115.171 37.3178L115.302 36.7404C115.383 36.3554 115.454 35.9705 115.515 35.5856L115.717 34.1661L116 31.9287L114.453 31.0987C113.897 30.7979 113.512 30.6055 113.472 30.6055C113.381 30.6055 113.26 30.5573 113.148 30.5092C113.169 30.4731 113.189 30.4371 113.209 30.401L113.25 30.3408L113.027 30.7498L113.007 30.7859L113.027 30.7619L113.068 30.7017L113.138 30.5934L113.28 30.3649L114.008 29.1499C114.342 28.5725 114.423 28.0192 114.423 27.6102C114.443 27.1531 114.19 26.4674 113.907 26.1787C113.644 25.9021 113.27 25.5773 112.673 25.469C111.571 25.2886 110.469 25.1201 109.367 24.9397L106.829 24.5668C105.2 24.3382 103.522 24.1939 102.319 24.8194C101.783 25.1081 101.732 25.493 102.389 25.8419C102.875 26.0945 103.441 26.3592 104.007 26.4915C104.927 26.72 105.838 26.9606 106.727 27.1771C107.526 27.3696 108.305 27.6102 109.104 27.8267C109.498 27.935 109.903 28.0432 110.307 28.1275L110.711 28.2237C110.772 28.2357 110.823 28.2477 110.893 28.2477C110.974 28.2477 111.065 28.2477 111.187 28.2477C111.328 28.2116 111.369 28.3801 111.328 28.5004C111.288 28.6086 111.278 28.6688 111.399 28.777C111.419 28.7891 111.409 28.8251 111.399 28.8612C111.45 28.8011 111.48 28.7409 111.5 28.6928C111.531 28.6327 111.49 28.6928 111.46 28.7169L111.369 28.8251L111.197 29.0417L111.116 29.1499L111.076 29.1981L110.974 29.3544L110.55 30.016L109.488 31.652C110.327 32.1813 111.237 32.7106 112.137 33.2278C112.602 33.4925 112.774 33.5767 112.815 33.6007L113.078 33.721L113.037 34.2022L112.835 35.6698L112.673 36.608L112.451 37.835L112.572 38.4726L112.643 38.8816L112.764 39.6274L113.017 41.119L113.159 41.8648L113.179 41.961V41.9851C113.189 42.0693 113.088 41.2513 113.128 41.6002V41.6362V41.7686C113.128 41.8528 113.108 41.937 113.108 42.0212C113.078 42.358 113.007 42.6828 112.916 43.0196C112.572 43.3685 112.259 43.6812 111.925 43.9458C111.682 44.1263 111.45 44.3067 111.207 44.4872C110.924 44.7157 110.661 44.9443 110.398 45.1608C106.768 48.3365 102.784 50.8145 98.9817 53.6294C95.1189 56.4803 91.1955 59.2229 87.3227 62.0378L87.08 62.2062C87.08 62.2062 87.0395 62.2062 87.0294 62.2062C86.9991 62.2062 86.9688 62.2062 86.9485 62.1942C86.9283 62.1581 86.9081 62.134 86.8778 62.134H86.8575H86.8474L86.7665 62.11C86.6654 62.0739 86.5542 62.0378 86.4429 62.0137C85.5935 61.7972 84.6228 61.1596 83.7127 60.7146C82.8734 60.3056 82.024 59.7763 81.1949 59.4876C80.5679 59.2711 79.941 59.0305 79.3242 58.7779L78.3939 58.3809L77.4029 57.9238L75.6839 57.4186L74.0458 56.9133C72.9537 56.5645 71.8616 56.2277 70.7594 55.9149C67.3011 54.9285 63.8428 53.9421 60.4351 52.7994C58.3521 52.1017 56.3196 51.2356 54.186 50.6943C53.2759 50.4657 52.376 49.9364 51.4052 50.0928C51.1322 50.1409 50.3536 49.5755 49.7772 49.3951C48.3413 48.938 46.8953 48.553 45.4493 48.132C43.4472 47.5546 41.4248 47.0013 39.4327 46.3758C38.2193 45.9908 37.0362 45.4736 35.8228 45.0766C34.5487 44.6676 33.2645 44.2947 31.9702 43.9579C30.332 43.5369 28.6939 43.2241 27.0558 42.7911C25.3671 42.346 23.6481 41.6483 21.9998 41.3716C21.474 41.2874 20.9381 41.1791 20.4224 41.0588L20.0685 40.9746H19.9471L19.6943 40.9145L19.6741 40.5536L19.6539 39.5552L19.6235 37.5704L20.5437 35.79L21.292 34.3225L19.7752 31.2189L19.5629 28.1154L19.4617 26.4193L19.4415 25.9983V25.866V25.6134C19.5022 25.5652 19.5629 25.5291 19.6134 25.4931L19.6943 25.4329L19.7348 25.3968L19.8662 25.3126C20.2201 25.06 20.5741 24.8194 20.928 24.5668C21.6257 24.0616 22.3234 23.5564 23.0818 23.1233C23.7896 22.7143 24.3559 21.1986 23.9312 21.0423C23.8503 21.0182 23.7087 21.0182 23.5773 21.0543C21.9594 21.6317 20.4224 21.9444 18.6932 22.991L17.045 23.9774C17.227 26.6599 17.4191 29.3424 17.6012 32.0129L18.5213 33.9255V33.9496Z" fill="#B09151"/>
<path d="M63.0966 38.9779C63.9763 39.2545 64.856 39.5071 65.7257 39.8319C66.0492 39.9522 66.4234 39.88 66.6762 40.3612C66.8076 40.6018 67.2222 40.265 67.5155 40.3732C68.3244 40.686 69.1637 40.8785 69.9727 41.1912C70.7614 41.492 71.5198 41.9009 72.3085 42.2017C73.0871 42.5024 73.9466 42.5505 74.6545 43.0197C75.2713 43.4287 75.9387 43.2723 76.5555 43.5489C77.2027 43.8497 77.8802 44.1264 78.5779 44.1745H78.861C78.952 44.1985 79.0329 44.1985 79.2149 44.2346H79.761C79.9126 44.2587 80.0643 44.2827 80.216 44.3309C80.5194 44.4271 80.7722 44.7038 81.1059 44.7398C81.4193 44.7759 81.7833 44.6316 82.0058 45.1248C82.026 45.1609 82.1676 45.1127 82.2485 45.0526C82.6125 44.812 83.017 44.8962 83.2698 45.1368C83.5226 45.3774 83.7653 45.3894 84.008 45.4375C84.6956 45.5699 85.3832 45.7022 86.0809 45.7623C86.6067 45.8104 87.1325 45.7262 87.6584 45.7623L87.8606 45.7864L88.1235 45.8345L88.892 45.9909C89.1246 45.8706 89.3572 45.7383 89.5695 45.5939C89.701 45.5097 89.7515 45.4736 89.8021 45.4255C89.8526 45.3774 89.9032 45.3293 89.9538 45.2691C90.3279 44.812 90.7627 44.5714 91.2076 44.3068C91.4604 44.1624 91.6728 43.8016 92.057 44.0903C92.0874 44.1143 92.1885 44.0542 92.2188 43.994C92.7143 43.0437 93.7154 43.3324 94.3929 42.7791C95.0906 42.2017 95.8996 41.8528 96.6681 41.4198C96.8703 41.2995 97.0422 41.0589 97.3456 41.2514C97.4568 41.3115 97.6691 41.2033 97.75 41.0709C98.1444 40.3371 98.8421 40.2409 99.3882 39.8319C100.015 39.3748 100.753 39.1703 101.289 38.4726C101.512 38.1719 101.866 37.8832 102.361 38.0636C102.584 38.1478 102.836 37.787 103.099 37.6787C103.312 37.5945 103.574 37.6546 103.777 37.5464C103.949 37.4501 104.05 37.1975 104.191 37.0291C104.232 36.981 104.292 36.9449 104.353 36.9329C105.496 36.8006 106.214 35.6698 107.235 35.2247C108.256 34.7797 109.227 34.1541 110.178 33.5286C110.703 33.1798 111.209 32.7347 111.27 31.7844C111.3 31.3513 111.148 30.9905 110.835 30.9183C110.602 30.8581 110.349 30.8221 110.137 30.8942C109.803 31.0025 109.46 31.1107 109.136 31.219C108.459 31.4596 107.7 31.4716 107.124 32.025C106.942 32.1934 106.628 32.1453 106.598 32.5663C106.598 32.6264 106.517 32.6986 106.477 32.6986C105.405 32.6866 104.646 33.5407 103.756 34.0098C102.998 34.4068 102.108 34.4188 101.431 35.0323C100.854 34.8639 100.389 35.2247 100.025 35.5856C98.7309 36.8727 97.1231 37.4501 95.6771 38.3644C94.2008 39.2906 92.684 40.1086 91.1975 40.9988C90.9447 41.1551 90.6313 41.0469 90.4088 41.3957C90.1964 41.7325 89.7819 41.8047 89.4482 41.9972C89.1448 42.1656 88.801 42.2618 88.5583 42.5385C88.5078 42.6347 88.5179 42.6949 88.4673 42.755C88.437 42.7791 88.3965 42.8031 88.346 42.8152C88.2954 42.8152 88.0831 42.8152 87.9617 42.7911C87.6786 42.7671 87.3955 42.7189 87.1123 42.6708C86.5461 42.5626 85.9899 42.4423 85.4236 42.3701C84.1293 42.2137 82.8249 42.0573 81.5508 41.7446C81.2272 41.6604 80.9036 41.5521 80.5902 41.4438L80.1048 41.2995L79.7003 41.2033L79.5891 41.1672L79.3868 41.1191C79.0531 41.0589 78.7599 40.7101 78.3352 41.0108C78.2138 41.095 77.9813 40.686 77.7689 40.6018C77.2532 40.3973 76.7173 40.253 76.1915 40.0845C75.4634 39.856 74.7151 39.6515 73.9972 39.3748C73.5523 39.2064 73.1579 38.8937 72.713 38.7132C72.2579 38.5207 71.7827 38.3644 71.3074 38.2561C70.7007 38.1238 70.0839 38.0757 69.4772 37.9313C68.8502 37.7749 68.2536 37.378 67.6267 37.39C66.4537 37.39 65.4021 36.8727 64.31 36.56C63.2179 36.2592 62.1258 35.9345 61.0641 35.5014C60.4574 35.2608 59.8203 35.4292 59.2237 35.2368C58.9406 35.1405 58.3339 36.0548 58.3743 36.4397C58.3743 36.5119 58.4148 36.5961 58.4552 36.6442C58.9709 37.1614 59.3956 37.8351 60.0731 38.0155C61.0742 38.2802 62.0652 38.641 63.0662 38.9538L63.0966 38.9779Z" fill="#B09151"/>
<path d="M65.3065 46.5441C65.8425 46.7125 66.3784 46.8449 66.9042 47.0614C67.0964 47.1336 67.339 47.0133 67.4705 47.4583C67.5312 47.6749 67.8244 47.2899 68.0064 47.3741C68.4918 47.5786 69.0075 47.6629 69.4929 47.8674C69.9681 48.0598 70.413 48.3605 70.8883 48.565C71.3636 48.7575 71.8995 48.7094 72.3141 49.0703C72.668 49.3951 73.1129 49.1545 73.477 49.359C73.8612 49.5755 74.2758 49.7559 74.7106 49.7199C75.0241 49.6958 75.3477 49.6236 75.6207 49.792C75.7926 49.9003 75.9139 50.1769 76.106 50.213C76.2881 50.2491 76.5409 50.1289 76.6015 50.622C76.6015 50.6581 76.7027 50.61 76.7633 50.5619C77.0262 50.3333 77.2588 50.4296 77.3801 50.6822C77.5015 50.9228 77.643 50.9468 77.7947 50.995C78.1992 51.1513 78.6037 51.2957 79.0284 51.3799C79.3418 51.44 79.6857 51.3799 79.9991 51.428C80.3328 51.4881 80.6261 51.7889 80.9699 51.6686C81.3137 51.5483 81.5968 51.6445 81.8799 51.7408C82.0417 51.7889 82.2844 51.6445 82.3249 52.1377C82.3249 52.1858 82.3956 52.1978 82.426 52.1738C83.0226 51.7407 83.3158 52.6429 83.8315 52.655C84.3573 52.655 84.8326 52.9196 85.3281 53.1001C85.4595 53.1482 85.6314 53.064 85.682 53.4248C85.7022 53.5451 85.8337 53.6053 85.9247 53.5451C86.1573 53.3888 86.3595 53.4008 86.5415 53.4609C86.764 53.5331 86.8247 53.6053 87.2494 53.7015C87.5325 53.7617 87.7954 53.8459 88.0684 53.9421C88.301 53.7977 88.5437 53.6534 88.7762 53.473C88.8875 53.3888 89.0088 53.2805 89.0897 53.1963C89.1403 53.1241 89.1908 53.0519 89.2313 52.9557C89.3425 52.7151 89.5346 52.4986 89.9088 52.7512C90.0807 52.8595 90.1919 52.5708 90.3537 52.5106C90.4851 52.4625 90.6773 52.5708 90.7986 52.4986C90.8997 52.4385 90.9301 52.2219 91.0009 52.0896C91.0211 52.0535 91.0615 52.0294 91.102 52.0294C91.8705 52.0896 92.184 51.1513 92.8109 50.8987C93.4479 50.6461 94.0142 50.2251 94.5704 49.792C94.8737 49.5514 95.1568 49.2266 95.0456 48.3605C94.9951 47.9756 94.8434 47.6147 94.6108 47.4944C94.4389 47.4102 94.2569 47.3381 94.1254 47.3741C93.9131 47.4223 93.6906 47.4704 93.4884 47.5185C93.0637 47.6268 92.5379 47.5185 92.2345 47.9515C92.1435 48.0839 91.9109 47.9756 91.9615 48.3726C91.9615 48.4207 91.9311 48.4808 91.9008 48.4688C91.1626 48.2884 90.7784 48.962 90.2425 49.2627C89.7874 49.5154 89.1706 49.383 88.8066 49.8522C88.3819 49.6116 88.119 49.8522 87.9268 50.1409C87.8864 50.201 87.8156 50.2852 87.7954 50.3213C87.7954 50.3454 87.7954 50.3694 87.7954 50.3935C87.7954 50.4416 87.7752 50.4777 87.7549 50.5138C87.7246 50.5258 87.6943 50.5138 87.6538 50.5138L87.2089 50.3574C86.8651 50.2251 86.5213 50.0928 86.1674 50.0085C85.1764 49.768 84.2057 49.3951 83.2248 49.1184C83.0529 49.0703 82.972 48.7816 82.7293 48.9139C82.5069 49.0342 82.2945 48.8176 82.0822 48.7575C81.89 48.6974 81.6979 48.541 81.4957 48.5891C80.6261 48.8056 79.9182 48.2884 79.1295 48.0959C78.3509 47.9034 77.5723 47.711 76.8341 47.3621C76.3791 47.1456 75.9746 46.7607 75.4791 46.7125C75.2668 46.6885 75.1151 46.3878 74.8218 46.7366C74.7409 46.8328 74.6196 46.4599 74.4983 46.4118C74.1848 46.2795 73.8612 46.1953 73.5376 46.0991C73.0927 45.9547 72.6377 45.8464 72.2028 45.666C71.9399 45.5577 71.7074 45.3051 71.4445 45.1728C71.1714 45.0405 70.8782 44.9563 70.585 44.9082C70.2108 44.848 69.8266 44.8841 69.4524 44.8119C69.0682 44.7397 68.7244 44.427 68.3199 44.5112C67.5817 44.6555 66.9548 44.2706 66.2773 44.1022C65.6099 43.9338 64.9425 43.7654 64.3055 43.4647C63.9414 43.2962 63.5268 43.5489 63.1628 43.4286C62.9909 43.3684 62.5359 44.3308 62.5258 44.7037C62.5258 44.7758 62.5359 44.86 62.5561 44.8841C62.8392 45.3171 63.0617 45.9307 63.4763 46.0269C64.0931 46.1592 64.6897 46.3878 65.2964 46.5802L65.3065 46.5441Z" fill="#B09151"/>
<path d="M102.056 45.3532C102.228 45.245 102.39 45.1006 102.582 45.0284C102.653 45.0044 102.643 44.7878 102.865 45.0886C102.977 45.2329 102.855 44.7879 102.916 44.7758C103.098 44.7157 103.229 44.5473 103.411 44.4751C103.583 44.415 103.806 44.451 103.988 44.3789C104.16 44.3187 104.241 44.018 104.483 44.1263C104.696 44.2225 104.665 43.8255 104.827 43.8135C104.999 43.8135 105.161 43.7654 105.222 43.5368C105.262 43.3684 105.292 43.1639 105.424 43.1759C105.505 43.1759 105.646 43.3443 105.707 43.2842C105.757 43.2361 105.747 43.0196 105.98 43.3804C106 43.4165 105.99 43.3203 105.98 43.2602C105.929 42.9594 106.01 42.9233 106.142 43.0677C106.273 43.2 106.314 43.1519 106.364 43.1278C106.506 43.0677 106.647 42.9955 106.759 42.8632C106.85 42.767 106.87 42.5504 106.961 42.4542C107.042 42.3459 107.244 42.4542 107.244 42.2016C107.244 41.949 107.345 41.9009 107.446 41.8287C107.497 41.7926 107.476 41.564 107.709 41.9369C107.729 41.973 107.749 41.949 107.739 41.9129C107.648 41.2874 108.124 41.8768 108.215 41.6482C108.316 41.4076 108.518 41.3956 108.69 41.2994C108.73 41.2753 108.73 41.131 108.902 41.3956C108.963 41.4919 109.013 41.4678 109.003 41.3836C108.943 40.9145 109.175 41.0708 109.266 40.9145C109.367 40.7461 109.6 40.8423 109.6 40.4333C109.6 40.2649 109.651 40.1446 109.893 40.4573C110.004 40.6017 109.994 40.3852 110.065 40.3972C110.126 40.3972 110.247 40.5415 110.288 40.5295C110.328 40.5055 110.288 40.337 110.288 40.2408C110.288 40.2168 110.298 40.2047 110.318 40.2168C110.722 40.5055 110.662 39.8078 110.915 39.7837C111.177 39.7597 111.359 39.5792 111.541 39.3867C111.643 39.2785 111.703 39.086 111.45 38.3162C111.339 37.9673 111.177 37.6185 111.026 37.45C110.915 37.3177 110.813 37.2095 110.753 37.1974C110.662 37.1854 110.55 37.1373 110.459 37.1132C110.267 37.0771 109.984 36.8245 109.924 37.1012C109.903 37.1854 109.772 37.029 109.883 37.3658C109.903 37.4139 109.883 37.45 109.883 37.426C109.469 37.041 109.428 37.4982 109.226 37.5824C109.054 37.6545 108.71 37.3538 108.639 37.6305C108.366 37.2937 108.296 37.426 108.265 37.6064C108.144 38.232 107.699 38.1598 107.416 38.4244C107.123 38.6891 106.779 38.8454 106.475 39.074C106.425 39.1101 106.273 38.9176 106.293 39.1341C106.314 39.3386 106.172 39.2544 106.101 39.3025C106.041 39.3386 105.929 39.3025 105.919 39.4469C105.859 40.0243 105.495 39.9401 105.262 40.1446C105.029 40.3491 104.807 40.5536 104.504 40.6137C104.322 40.6498 104.069 40.5295 103.958 40.71C103.907 40.7942 103.745 40.6137 103.846 41.0347C103.877 41.155 103.685 40.9024 103.634 40.9265C103.513 40.9626 103.422 41.0588 103.32 41.119C103.179 41.2152 103.047 41.3355 102.886 41.3956C102.785 41.4317 102.623 41.3355 102.522 41.3475C102.41 41.3716 102.319 41.4317 102.238 41.5279C102.147 41.6482 102.087 41.8648 101.986 41.973C101.885 42.0933 101.672 41.9971 101.642 42.2497C101.571 42.7188 101.288 42.6948 101.086 42.8752C100.894 43.0556 100.691 43.2241 100.439 43.2842C100.297 43.3203 100.337 43.7052 100.216 43.7894C100.155 43.8255 100.519 44.7999 100.691 45.1006C100.722 45.1608 100.762 45.2209 100.782 45.2329C101.035 45.4495 101.359 45.8344 101.47 45.7141C101.642 45.5337 101.854 45.4495 102.056 45.3171V45.3532Z" fill="#B09151"/>
<path d="M51.2966 3.92472L58.8704 10.7693L73.3608 16.3148L84.6456 17.3974L101.532 16.8922C101.532 16.8922 106.255 16.4952 111.472 16.1945C112.453 16.1344 111.766 18.1071 111.766 18.1071L103.595 26.0584L89.5095 36.4757L80.6615 36.993L70.9642 36.596L53.9156 33.7571L41.9128 31.6039L34.4502 31.0626L23.2462 23.1474L15.814 16.002L36.7153 12.4534L43.1161 8.70029L47.6968 3.10672L51.2865 3.91267L51.2966 3.92472Z" fill="#CCEAE6"/>
<path d="M54.3362 35.2608L81.6484 17.6861L65.611 15.4126L61.3842 19.1176L45.3771 28.2598L41.1604 32.5422L54.3362 35.2608Z" fill="#E5F5F3"/>
<path d="M55.1259 48.3967C55.1866 47.4824 55.227 46.5562 55.3281 45.642C55.3686 45.3052 55.227 44.9323 55.5809 44.6075C55.7629 44.4511 55.3888 44.0782 55.4292 43.7654C55.5304 42.9114 55.5304 42.0453 55.6214 41.1912L55.7427 40.301C55.7427 40.1567 55.7427 40.0725 55.7629 40.0123L55.7832 39.7958L55.8135 39.3748C55.8337 39.0981 55.8539 38.8094 55.864 38.5327C55.8843 37.7027 55.682 36.8486 55.864 36.0547C55.8843 35.8983 55.9045 35.9464 55.9146 35.9224C55.9146 35.9224 55.9146 35.8983 55.9146 35.8863L55.8337 35.778C55.8337 35.778 55.8337 35.6938 55.8843 35.6938H55.9348C55.9348 35.6938 55.945 35.6938 55.9551 35.6938L56.0562 35.6337C56.1876 35.5495 56.3191 35.4653 56.4505 35.3811C56.7033 35.2006 56.946 34.9841 57.1584 34.7315C57.4617 34.3586 57.7449 33.9616 58.1392 33.7692C58.3819 33.6489 58.6954 33.697 58.928 33.5045C59.1504 33.3241 59.3122 32.9632 59.7167 33.2158C59.747 33.2399 59.8178 33.0955 59.838 32.9993C59.9493 32.5662 60.2526 32.3617 60.5459 32.3858C60.829 32.4099 61.0009 32.2535 61.1829 32.1332C61.6986 31.7844 62.2143 31.4235 62.6997 31.0145C63.0637 30.7017 63.357 30.2807 63.721 29.9679C64.0951 29.6431 64.6108 29.5108 64.8738 29.0417C65.1367 28.5846 65.4906 28.332 65.8546 28.0673C66.0568 27.923 66.1984 27.5621 66.5726 27.8388C66.5928 27.8508 66.613 27.8388 66.6433 27.8267C66.6433 27.8267 66.6433 27.8147 66.6433 27.7907C66.6029 27.7185 66.6737 27.6222 66.7445 27.5501C66.8051 27.4779 66.8759 27.4177 66.9568 27.3696C67.1085 27.2734 67.2703 27.2253 67.4422 27.1892C67.786 27.117 68.15 27.093 68.4331 26.8524C69.0297 26.3592 69.7275 26.0945 70.3949 25.7457C70.5668 25.6495 70.7083 25.4329 70.9915 25.6495C71.0926 25.7216 71.2746 25.6374 71.3353 25.5051C71.6588 24.8194 72.2655 24.7954 72.7408 24.4465C73.2767 24.0496 73.9239 23.9413 74.3688 23.2917C74.5609 23.0151 74.8542 22.7624 75.2991 22.991C75.5013 23.0993 75.7137 22.7624 75.9362 22.6903C76.1182 22.6301 76.3609 22.7263 76.5328 22.6301C76.6743 22.5579 76.7653 22.3174 76.8766 22.161C76.9069 22.1129 76.9676 22.0888 77.0181 22.0888C78.0192 22.0888 78.6158 21.0302 79.4956 20.6934C80.3854 20.3566 81.2146 19.8393 82.0336 19.3101C82.4887 19.0214 82.9134 18.6364 82.9336 17.6982C82.9336 17.2771 82.8021 16.9042 82.519 16.796C82.3067 16.7118 82.0842 16.6516 81.9022 16.7118C81.6089 16.7839 81.3157 16.8561 81.0224 16.9283C80.436 17.0967 79.7585 17.0365 79.2731 17.5297C79.1214 17.6861 78.8383 17.5899 78.8282 18.0109C78.8282 18.0711 78.7675 18.1312 78.7169 18.1312C77.7664 18.0109 77.1294 18.7808 76.3609 19.1537C75.7036 19.4785 74.9149 19.3943 74.3385 19.9356C73.8228 19.707 73.4284 20.0198 73.115 20.3446C72.0128 21.4873 70.6173 21.8963 69.3735 22.6542C68.1096 23.424 66.7849 24.0736 65.5108 24.8074C65.4805 24.8315 65.3794 24.8676 65.3086 24.8916C65.1164 24.9999 65.0457 24.9999 64.9445 25.036C64.8535 25.0841 64.7625 25.1442 64.7019 25.2886C64.5603 25.6134 64.1963 25.7096 63.9334 25.9021C63.6907 26.0825 63.3974 26.1787 63.2154 26.4554C62.4873 27.5621 61.3953 28.0192 60.4751 28.765C59.5549 29.5108 58.6246 30.2446 57.6336 30.834C57.0269 31.1949 56.3393 31.3994 55.8034 31.9167C55.5708 32.1332 55.2068 32.1091 55.1562 32.6625C55.1461 32.8189 54.7619 32.7106 54.6001 32.8068L54.4787 32.891L54.2664 33.0354L53.8316 33.3481L52.9822 33.9857L53.0024 34.6232C53.0327 36.3073 53.0732 36.7404 53.0529 37.5704C53.0428 38.0395 52.9013 38.5087 52.8709 38.9778C52.8608 39.2064 52.8507 39.4349 52.8608 39.6514V39.9883C52.881 40.0845 52.8811 40.277 52.8912 40.2288C52.8912 40.2288 52.8912 40.2168 52.8912 40.2529C52.8912 40.8784 52.9822 41.5039 52.9822 42.1295C52.9822 42.779 52.7597 43.4286 52.8912 44.0541C53.1339 45.221 52.8912 46.3517 52.8507 47.4945C52.8103 48.6252 52.7597 49.768 52.608 50.8987C52.517 51.5363 52.79 52.1498 52.7496 52.7753C52.7294 53.064 53.6091 53.5452 53.9327 53.461C53.9934 53.4489 54.0641 53.4008 54.0844 53.3527C54.4079 52.7633 54.9034 52.246 54.9135 51.5363C54.9338 50.4897 55.045 49.4552 55.1158 48.4087L55.1259 48.3967Z" fill="#B09151"/>
<path d="M63.9451 14.8833L63.7125 14.9555L62.7115 15.7133C62.4283 15.9298 62.1351 16.1343 61.8418 16.3388C61.6093 16.4952 61.4576 16.832 61.043 16.6756C60.8408 16.6035 60.8205 17.1568 60.5981 17.3012C60.0015 17.6861 59.4554 18.1673 58.8689 18.5642C58.2926 18.9371 57.6656 19.2258 57.0892 19.5987C56.5129 19.9717 56.0376 20.5731 55.4107 20.7776C54.8646 20.946 54.6017 21.5715 54.1264 21.8241C53.6209 22.1008 53.1052 22.4136 52.731 22.8947L52.5389 23.1474L52.4378 23.2676V23.3278C52.4378 23.3278 52.4176 23.3519 52.3872 23.3759L52.2456 23.4601C52.1546 23.5082 52.0535 23.5564 51.9524 23.5804C51.7097 23.6406 51.4266 23.5323 51.1839 23.6646C50.9614 23.7849 50.7592 24.0977 50.4154 23.7729C50.385 23.7488 50.3143 23.8691 50.2738 23.9533C50.1221 24.3503 49.8087 24.4706 49.5458 24.3864C49.2829 24.3022 49.111 24.4104 48.9188 24.4946C48.393 24.7232 47.8773 24.9517 47.3717 25.2525C46.9976 25.469 46.6639 25.8178 46.2999 26.0464C45.9156 26.287 45.4201 26.299 45.1168 26.6839C45.0763 26.7561 44.9347 26.8644 44.8134 26.9486C44.5606 27.2012 44.51 27.2734 44.3685 27.3937C44.2471 27.5019 44.1157 27.5982 43.9842 27.6944C43.7921 27.8387 43.6708 28.1876 43.3067 27.9109C43.2764 27.8869 43.2056 27.947 43.1854 27.9951C43.0539 28.4522 42.7607 28.6206 42.4472 28.7289C42.1236 28.8612 41.8708 28.8612 41.3046 29.3785C41.1731 29.4988 41.0417 29.6191 40.9001 29.7514C40.8394 30.0641 40.7788 30.3769 40.7181 30.6776L40.5563 31.3513L40.2934 32.3497C40.263 32.482 40.2428 32.6384 40.2125 32.7827C40.2125 33.0354 40.1822 33.3 40.0103 33.3722C39.9091 33.4444 39.899 33.6609 39.9597 33.7812C40.3338 34.3826 40.0912 35.0081 40.1417 35.6216C40.2024 36.3193 40.0103 37.017 40.2934 37.7267C40.4147 38.0275 40.4754 38.4365 40.1114 38.7853C39.9496 38.9537 40.1114 39.2905 40.0608 39.5432C40.0305 39.7597 39.8586 39.9642 39.8485 40.1687C39.8485 40.3491 39.9799 40.5296 40.0406 40.698C40.0608 40.7461 40.0608 40.8183 40.0406 40.8664C39.6462 41.8889 40.2327 42.8993 40.1518 43.9338C40.0709 44.9683 40.1518 46.0149 40.2327 47.0494C40.2833 47.6268 40.4147 48.2042 41.1124 48.5651C41.4259 48.7214 41.7596 48.7094 41.9517 48.4688C42.0933 48.2884 42.2248 48.0719 42.2551 47.8674C42.3158 47.5426 42.3663 47.2178 42.427 46.893C42.5281 46.2314 42.8315 45.5698 42.6394 44.8962C42.5787 44.6917 42.7506 44.439 42.4472 44.2706C42.4068 44.2466 42.3764 44.1624 42.3967 44.1143C42.8517 43.2 42.5079 42.2738 42.518 41.3475C42.5281 40.5656 42.9528 39.8078 42.791 39.0139C43.1854 38.5808 43.1247 38.0756 43.0135 37.6305C42.8214 36.8606 42.8011 36.0908 42.8315 35.3209L42.882 34.1661L42.9023 33.5887V33.3C42.9023 33.2038 42.9023 33.2519 42.9023 33.2038C42.9023 33.2038 42.9427 32.9872 42.973 32.8068L43.0944 32.2535L43.2157 31.7242L43.6606 31.3994L44.5201 30.7258C44.7123 30.5814 44.9853 30.6656 45.1269 30.3288C45.2482 30.016 45.592 29.9318 45.8347 29.7394L45.9763 29.6431C45.9763 29.6431 46.0066 29.6431 46.0167 29.6431C45.9864 29.6792 46.219 29.5709 46.3201 29.4507C47.129 28.5485 48.1908 28.3319 49.1413 27.8147C50.0918 27.2974 51.0423 26.7922 52.0333 26.4313C52.2659 26.3471 52.5086 26.287 52.7512 26.2268L53.1153 26.1306C53.2366 26.0945 53.3276 26.0705 53.5703 25.9502C53.8433 25.7577 53.904 25.7096 54.0354 25.5893C54.2478 25.3848 54.6017 25.4089 54.632 24.8796C54.6422 24.7232 55.0062 24.8435 55.1579 24.7472C55.5421 24.5067 55.896 24.2059 56.2702 23.9292C56.7859 23.5443 57.2814 23.1353 57.8072 22.7985C58.1308 22.594 58.515 22.5098 58.8487 22.3173C59.1925 22.1128 59.5262 21.8602 59.8296 21.5836C60.2239 21.2347 60.5677 20.7896 60.9621 20.4528C61.3666 20.0919 61.9025 19.9235 62.2261 19.4544C62.8227 18.5763 63.6721 18.1673 64.4103 17.5538C64.5518 17.4455 64.5821 17.4094 64.6024 17.3854C64.6428 17.3733 64.6327 17.3733 64.7136 17.3373L64.9866 17.241L65.5327 17.0606C65.8967 16.9403 66.2708 16.8441 66.645 16.7599C67.1405 16.6516 67.5146 16.1584 67.9899 16.002C68.2123 15.9298 68.2831 14.8111 68.1112 14.4863C68.0809 14.4262 68.0303 14.366 67.9798 14.354C67.4337 14.1856 66.8877 13.8127 66.3618 14.0292C65.9675 14.1856 65.5731 14.3179 65.1788 14.4382L63.9148 14.8352L63.9451 14.8833Z" fill="#B09151"/>
<path d="M34.9766 11.5512L30.6386 12.8744L25.2186 13.4999C23.9748 13.6322 22.721 13.9691 21.3862 13.7405C21.0525 13.6804 20.5975 13.8007 20.0818 13.957C19.9503 13.9931 19.8188 14.0292 19.6874 14.0773C19.4649 14.1254 19.2324 14.1736 18.9897 14.2217C18.5144 14.3179 18.0291 14.4021 17.5437 14.4502C16.9976 14.5344 16.6336 14.763 16.3606 14.9555C16.2291 15.0637 16.1078 15.1359 15.9865 15.3163C15.8651 15.4847 15.7539 15.7133 15.6932 15.9659C15.6325 16.2185 15.6123 16.4832 15.6426 16.6997C15.6629 16.9162 15.7337 17.0606 15.7943 17.241C15.9359 17.5898 16.1381 18.0349 16.5628 18.4559L21.5278 23.2315L21.9929 23.6887C24.44 25.5412 26.877 27.3937 29.324 29.2582C30.0622 29.7875 30.8004 30.3167 31.5385 30.846C32.3475 31.4114 33.1564 31.9888 33.9654 32.5542C34.6833 32.7346 35.4013 32.9151 36.1091 33.0835C36.7462 33.2519 37.363 33.4323 37.9697 33.6368C39.7292 34.2142 41.3167 34.4548 43.0762 34.8157C43.8548 34.9119 44.4717 34.9841 45.1795 35.1164C47.7176 35.5855 50.3467 36.0426 52.8544 36.2592C53.7645 36.3313 54.6745 36.4035 55.5846 36.4757C56.4947 36.5238 57.3947 36.596 58.3047 36.7283C59.4271 36.8967 60.4687 37.2215 61.7023 37.3298C62.845 37.426 64.1595 37.3659 65.1201 37.9192C65.201 37.9673 65.7167 37.9312 65.9898 37.8951C67.2538 37.7267 68.7604 37.8951 69.7716 38.1959C70.7626 38.4725 71.6524 38.5928 72.5726 38.7252L76.3241 39.2665L80.2678 39.7958L80.6015 39.7477C82.5733 39.4108 84.4136 38.9537 86.3349 38.6169C86.8809 38.5207 87.4371 38.4365 88.0033 38.3643C88.6505 38.2801 89.2977 38.1838 89.9347 38.0996C90.2179 37.9312 90.4909 37.7508 90.7639 37.5824C90.9661 37.4501 91.1583 37.3298 91.3504 37.1974C91.7346 36.9448 92.1088 36.6802 92.4627 36.4035C94.03 35.1766 95.6176 34.2022 97.2355 33.1917C98.1557 32.6143 99.1467 31.7603 100.087 31.7001C100.178 31.7001 100.522 31.4715 100.663 31.3392C101.563 30.5212 102.534 29.8837 103.535 29.3063L105.052 28.4763L105.821 28.0673L106.205 27.8628L106.822 27.5139L107.732 26.311C107.974 25.9862 108.217 25.6494 108.439 25.3006C109.4 23.8571 110.411 22.4256 111.443 21.0182L112.595 19.4423C112.828 19.1176 113 18.7687 113.091 18.4559C113.142 18.2996 113.182 18.1552 113.222 18.0109C113.263 17.8304 113.293 17.662 113.313 17.4816C113.394 16.7839 113.364 16.1223 113.051 15.5329C112.879 15.2201 112.697 15.0637 112.515 14.9434C112.353 14.7991 112.049 14.7269 111.807 14.6307C111.483 14.5705 111.089 14.5946 110.694 14.6307C110.31 14.6547 109.916 14.6908 109.532 14.7149C109.299 14.7269 109.259 14.7269 109.137 14.7269H108.824C108.622 14.6908 108.419 14.6547 108.217 14.5825C107.944 14.4863 107.064 14.5344 106.64 14.6427C104.344 15.2321 101.887 15.2201 99.5208 15.3163C96.8209 15.4847 94.1008 15.3524 91.3807 15.7855C90.228 15.9659 88.6505 16.0982 87.2551 15.7133C86.9719 15.6291 86.5371 15.6411 86.072 15.6652C85.6271 15.6892 85.1316 15.7253 84.6866 15.7494C84.5956 15.7494 84.5147 15.7253 84.4338 15.7133C83.6148 15.593 82.8463 15.3284 82.0373 15.2441C81.3497 15.172 80.652 15.2802 79.9442 15.2923C79.7318 15.2923 79.479 15.2682 79.2768 15.2321C78.3162 15.0276 77.3454 14.8833 76.3747 14.775L74.9186 14.6427L74.1905 14.5946L73.8265 14.5705H73.6445C73.6445 14.5705 73.6242 14.5705 73.6141 14.5705L70.8334 13.7165C69.8525 13.4037 68.8818 13.0789 67.9211 12.706C66.9403 12.3331 65.9594 11.9602 64.9685 11.5873C64.0483 11.2505 63.118 10.9257 62.1877 10.5889C60.6102 9.34984 59.0227 8.11083 57.4452 6.88385C55.5846 5.44035 53.6229 4.03293 51.9747 3.72017C51.2365 3.57582 51.0444 3.90062 51.7219 4.73063C52.2174 5.33209 52.8039 5.99369 53.4409 6.55906C54.4622 7.46125 55.4734 8.37548 56.4644 9.25361L58.6789 11.2745L59.7912 12.285L60.3574 12.7782L61.0754 13.3796C61.4799 13.524 61.8742 13.6683 62.2888 13.8127C62.6427 13.933 62.9966 14.0412 63.3506 14.1375C64.1595 14.354 65.0392 14.8953 65.7774 14.775C65.8785 14.763 66.2122 14.8472 66.3639 14.9314C67.4155 15.4968 68.5177 15.9779 69.63 16.411L71.3187 17.0245L73.1389 17.638L75.1714 17.7944C75.8084 17.8545 76.4353 17.9146 77.0724 17.9628C78.3263 18.0951 79.57 18.2996 80.8037 18.5041L82.6643 18.7928L83.5946 18.9131L84.6058 19.0213C84.899 19.0093 85.1922 18.9973 85.4956 18.9852L86.3147 18.9251C88.0236 19.3341 90.0358 19.1897 91.7549 18.9973C94.7884 18.6605 97.8321 18.5401 100.886 18.4559C102.413 18.4078 103.93 18.2875 105.446 18.2033L109.572 17.9146L109.855 17.8785C109.977 17.8785 109.956 18.047 109.936 18.1432C109.926 18.2635 109.835 18.3236 109.774 18.4199L108.975 19.5265L105.082 24.9277L99.9657 28.1395C99.0354 28.7289 98.1355 28.9935 97.1243 29.8596C96.1738 30.6656 94.7884 31.3633 93.6053 32.1091C92.5133 32.7948 91.3302 33.4203 90.3392 34.1661L89.6415 34.6833C89.419 34.8518 89.1055 35.0683 89.1258 35.0683L89.055 35.0923L88.7719 35.1525L88.1955 35.2728L87.0427 35.4893L84.7372 35.8863L80.2475 36.5479L76.8196 36.0667C74.413 35.778 72.0165 35.3931 69.6098 35.1765C67.2032 34.936 64.8067 34.6833 62.4203 34.3826C59.508 33.9857 56.616 33.5887 53.6735 33.1917C52.4196 33.0474 51.1354 32.6023 49.8613 32.8429C49.4973 32.9151 48.3647 32.4098 47.5659 32.2775C46.221 32.073 44.866 31.8565 43.5211 31.652L41.6909 31.2189C39.4359 30.6776 37.1911 30.1243 34.9361 29.583L34.0362 28.9214C32.5902 27.8508 31.215 26.6478 29.7791 25.5652C28.2724 24.4224 26.7253 23.3158 25.1782 22.2452L23.5097 21.1264L21.6693 19.5025L19.7683 17.7823C19.6672 17.6981 19.6368 17.662 19.5762 17.6019C19.5155 17.5297 19.4548 17.4816 19.4245 17.4094C19.3942 17.3252 19.4852 17.229 19.5661 17.253C19.6469 17.253 19.7076 17.241 19.7784 17.2169L19.8896 17.1809C20.102 17.1448 20.3143 17.0967 20.5166 17.0606C22.2457 16.6997 23.985 16.435 25.7242 16.2065L31.0329 15.581L33.0755 14.9555L37.8383 13.4638C40.0224 12.1166 41.519 11.1903 43.784 9.84305L44.8054 8.62809C45.4525 7.85822 46.0491 7.07632 46.6255 6.28239C47.1614 5.53658 47.8996 4.52614 48.0007 4.33367L48.3243 4.36975L49.0018 4.5141C50.0534 4.75468 51.641 4.0209 51.2669 3.57582C51.1961 3.49162 51.0343 3.38335 50.8624 3.31118C50.3568 3.10668 49.8512 2.91422 49.3557 2.70972C49.0928 2.60146 48.9007 2.51726 48.567 2.39697C48.1726 2.26464 47.7782 2.13232 47.3839 2C46.8176 2.58943 46.2412 3.17886 45.6446 3.80438C45.1795 4.29758 44.7042 4.82686 44.2391 5.41629L42.429 7.66574C40.6392 8.77243 38.8393 9.86709 37.0394 10.9738L34.9665 11.5993L34.9766 11.5512Z" fill="#B09151"/>
</svg>
