<svg width="36" height="48" viewBox="0 0 36 48" fill="none" xmlns="http://www.w3.org/2000/svg">
<path d="M18.5209 44.5125C17.5709 44.5125 16.7809 43.8124 16.6709 42.8724C16.6409 42.6424 16.3309 39.7425 16.6909 36.1725C16.3209 32.5725 15.2209 29.7925 13.4209 28.0125C11.7109 26.3025 9.70089 25.7825 8.40089 25.6325C7.86089 25.6325 7.31089 25.6325 6.74089 25.6025C5.78089 25.5425 5.01089 24.7525 5.00089 23.7825C4.97089 22.8225 5.70089 21.9925 6.67089 21.8925C6.75089 21.8925 7.44089 21.8125 8.49089 21.9225C11.1109 21.8425 13.0709 21.0124 14.4409 19.4225C16.3309 17.2225 16.8209 13.9125 16.8209 11.1625C16.5409 9.58245 16.3709 7.84245 16.3309 5.90245C16.3009 4.94245 17.0209 4.12245 17.9709 4.01245C18.9309 3.90245 19.8109 4.53245 20.0209 5.46245C20.0609 5.66245 20.5309 7.89245 20.5609 10.8225C22.5409 21.3525 29.7009 21.9425 30.0709 21.9725C31.0909 22.0225 31.8809 22.8925 31.8309 23.9125C31.7909 24.8925 31.0009 25.6525 30.0409 25.6925H29.8909C27.2009 25.5625 25.1409 26.3125 23.5909 27.9725C21.6209 30.0725 20.7809 33.2824 20.4609 36.1624C20.6409 38.1924 20.6209 40.4225 20.4009 42.8525C20.3209 43.8025 19.5209 44.5325 18.5609 44.5424H18.5309V44.5224L18.5209 44.5125ZM14.5309 24.0825C15.0209 24.4325 15.5309 24.8425 16.0009 25.3125C17.0209 26.3225 17.8709 27.5125 18.5509 28.8725C19.1409 27.6125 19.8809 26.4325 20.8409 25.4125C21.6809 24.5125 22.6209 23.7825 23.6609 23.2425C22.1509 22.1625 20.5909 20.6124 19.3109 18.3625C18.8209 19.6025 18.1609 20.7825 17.2609 21.8225C16.4709 22.7425 15.5609 23.5025 14.5209 24.0825H14.5309Z" fill="#F7C84D"/>
<path d="M19.3095 18.3525C18.8195 19.5925 18.1595 20.7725 17.2595 21.8125C16.4695 22.7325 15.5595 23.4925 14.5195 24.0725C15.0095 24.4225 15.5195 24.8325 15.9895 25.3025C17.0095 26.3125 17.8595 27.5025 18.5395 28.8625C19.1295 27.6025 19.8695 26.4225 20.8295 25.4025C21.6695 24.5025 22.6095 23.7725 23.6495 23.2325C22.1395 22.1525 20.5795 20.6025 19.2995 18.3525H19.3095Z" fill="#FDF4D8"/>
</svg>
