<svg width="324" height="240" viewBox="0 0 324 240" fill="none" xmlns="http://www.w3.org/2000/svg">
<path d="M128.622 204.835C128.257 204.85 127.886 204.751 127.553 204.535C95.0043 183.174 92.0758 142.562 92.0453 142.157C91.9817 141.134 92.7446 140.272 93.7425 140.221C94.7756 140.179 95.6092 140.957 95.681 141.971C95.7018 142.359 98.5493 181.135 129.501 201.439C130.349 201.997 130.602 203.144 130.064 203.997C129.736 204.515 129.195 204.811 128.622 204.835Z" fill="#DCDDDD"/>
<path d="M157.191 208.472C156.714 208.492 156.227 208.318 155.852 207.954C114.739 168.213 115.717 127.327 115.781 125.61C115.822 124.592 116.675 123.815 117.668 123.862C118.669 123.918 119.454 124.777 119.413 125.804C119.397 126.317 118.548 166.845 158.333 205.306C159.065 206.018 159.102 207.183 158.412 207.918C158.075 208.277 157.633 208.463 157.183 208.482L157.191 208.472Z" fill="#DCDDDD"/>
<path d="M204.442 199.498C203.965 199.518 203.47 199.344 203.095 198.98C180.137 176.557 176.048 140.896 175.88 139.392C175.774 138.381 176.489 137.477 177.482 137.374C178.466 137.28 179.374 138.019 179.489 139.031C179.525 139.382 183.613 174.858 205.582 196.323C206.314 197.035 206.342 198.2 205.653 198.935C205.324 199.285 204.883 199.471 204.433 199.489L204.442 199.498Z" fill="#DCDDDD"/>
<path d="M181.055 204.038C180.554 204.059 180.04 203.868 179.655 203.469C144.566 166.407 144.664 123.371 144.667 122.938C144.682 121.921 145.506 121.119 146.504 121.139C147.503 121.168 148.311 122.009 148.296 123.034C148.293 123.45 148.255 165.017 182.25 200.923C182.948 201.663 182.933 202.829 182.216 203.53C181.887 203.853 181.471 204.021 181.047 204.038L181.055 204.038Z" fill="#DCDDDD"/>
<path d="M94.8543 90.3236C94.98 92.6683 91.6419 93.6466 87.4531 93.8292C83.2643 94.0119 79.828 93.3234 79.7023 90.9787C79.5767 88.6341 82.9147 87.6557 87.1036 87.4731C91.2841 87.2997 94.7286 87.9789 94.8543 90.3236Z" fill="#9A0036"/>
<path d="M182.862 85.9838C182.988 88.3285 179.65 89.3068 175.461 89.4894C171.28 89.6628 167.836 88.9836 167.71 86.639C167.584 84.2943 170.923 83.316 175.111 83.1333C179.3 82.9507 182.736 83.6391 182.862 85.9838Z" fill="#9A0036"/>
<path d="M96.4863 74.0696C94.8692 74.1296 93.4594 74.8933 92.4981 76.0493L95.832 79.1441C96.2637 79.546 96.3046 80.2202 95.9234 80.6523L92.9881 83.9888C94.085 85.0684 95.589 85.7149 97.2056 85.646C100.328 85.5301 102.686 82.8285 102.492 79.6349C102.298 76.4323 99.599 73.9451 96.4858 74.0607L96.4863 74.0696Z" fill="#4C4948"/>
<path d="M163.092 70.7844C161.475 70.8445 160.065 71.6081 159.104 72.7641L162.437 75.859C162.869 76.2608 162.91 76.9351 162.529 77.3671L159.594 80.7036C160.69 81.7832 162.194 82.4298 163.811 82.3609C166.933 82.245 169.291 79.5434 169.098 76.3497C168.904 73.1472 166.205 70.66 163.091 70.7756L163.092 70.7844Z" fill="#4C4948"/>
<path d="M151.008 84.6194C150.221 85.555 150.325 86.9971 151.245 87.8503C151.254 87.8591 151.972 88.5643 152.458 89.6534C130.37 97.1189 113.628 92.925 108.571 91.2847C108.91 90.0547 109.599 89.2418 109.599 89.2418C110.414 88.3325 110.345 86.8799 109.45 86.0075C108.556 85.1351 107.162 85.1691 106.347 86.0784C106.092 86.3625 103.852 88.991 103.995 92.857C104.031 93.7617 104.58 94.583 105.391 94.9278C105.958 95.1719 115.24 99.0787 129.997 98.524C137.372 98.2468 146.119 96.8564 155.828 93.334C156.747 92.9974 157.323 92.0606 157.245 91.0385C156.936 87.1788 154.395 84.7392 154.098 84.4666C153.179 83.6226 151.796 83.6929 151 84.6288L151.008 84.6194Z" fill="#4C4948"/>
<path d="M35.5901 87.0586C34.4042 87.2582 33.6183 88.3974 33.8316 89.6015C34.0198 90.665 33.9902 91.7376 33.7485 92.7657L31.0277 97.066C30.2646 97.6554 29.4126 98.0536 28.5386 98.2048C27.3527 98.4044 26.5668 99.5436 26.7801 100.748C26.9794 101.855 27.9648 102.638 29.0455 102.593C29.1327 102.589 29.2285 102.585 29.3234 102.564C32.0583 102.097 34.5945 100.372 36.2829 97.8227C38.0361 95.1826 38.6861 92.0038 38.1247 88.8751C37.9114 87.6709 36.7759 86.8591 35.5901 87.0586Z" fill="#4C4948"/>
<path d="M307.558 172.559C307.432 172.333 295.361 151.082 266.762 161.074C266.344 158.187 265.445 153.535 263.637 148.761C267.681 147.697 271.301 146.251 274.009 144.3C281.668 138.78 280.595 132.998 279.279 130.042C277.704 126.51 274.407 123.858 270.467 122.937C262.861 121.164 244.006 115.674 227.115 101.913C227.113 101.878 227.111 101.843 227.092 101.808C220.316 79.308 206.364 62.1848 186.737 52.2943C173.749 45.7441 158.837 42.7103 143.607 43.3487C143.406 41.5808 143.374 40.4986 143.804 39.5217C144.474 37.9754 145.293 37.3909 148.299 38.0482C157.867 40.1483 163.465 35.8849 165.517 31.1909C167.935 25.6557 165.95 19.0415 160.681 15.1029C151.075 7.90666 140.334 12.9865 134.873 17.5284C129.177 13.4388 118.33 9.25121 109.532 17.217C104.719 21.5723 103.452 28.321 106.446 33.6324C108.993 38.1364 115.024 41.928 124.324 39.0391C127.255 38.1365 128.123 38.6423 128.957 40.1354C129.568 41.2292 129.585 42.5162 129.555 44.8887C129.557 44.9241 129.559 44.9596 129.56 44.9862C128.909 45.1107 128.258 45.2176 127.608 45.3599C106.736 49.775 88.4592 60.7348 76.13 76.2089C74.119 78.7343 72.2891 81.3677 70.6208 84.0743C66.3436 83.8958 61.9881 83.4009 57.3972 82.6049C57.5554 80.3337 56.9981 78.1187 55.7399 76.2346C54.2534 74.0136 51.9225 72.3871 49.1764 71.6746C44.2883 70.4024 39.2962 73.0599 37.1397 77.7672C35.5756 77.3611 34.5203 77.1294 33.6447 76.9791C30.4797 76.4616 27.9532 76.2463 24.2267 78.1588C21.3701 79.6268 14.3797 87.1626 18.4076 97.2005C24.4802 112.34 56.9405 130.128 58.3217 130.879C58.6198 131.045 58.9301 131.112 59.2463 131.125C59.4032 134.041 59.6761 136.996 60.0909 139.98C60.2958 141.508 65.4338 177.708 92.8857 203.386C110.612 219.962 133.778 228.694 161.74 229.341C164.416 229.399 167.509 229.395 170.963 229.253C180.24 228.869 192.085 227.527 205.233 224.008C205.604 223.904 205.872 223.84 206.011 223.808C206.072 223.805 206.132 223.785 206.193 223.773C206.66 223.656 217.684 220.892 230.819 214.7C247.903 206.65 260.06 196.929 266.98 185.799C273.64 187.264 298.799 191.509 307.602 174.671C307.943 174.008 307.936 173.218 307.576 172.558L307.558 172.559ZM132.75 37.9893C129.775 32.7037 124.664 34.2915 122.984 34.8139C114.399 37.4778 111.052 32.9358 110.23 31.4867C108.264 28.0155 109.187 23.5191 112.463 20.5595C121.714 12.1931 133.1 21.6959 133.577 22.1024C134.441 22.8394 135.71 22.8047 136.509 22.0257C136.975 21.5712 147.951 11.082 158.096 18.6734C161.675 21.3496 163.068 25.7503 161.493 29.3678C160.829 30.8784 157.986 35.6762 149.153 33.7322C147.424 33.3508 142.165 32.2004 139.771 37.6991C138.929 39.6433 138.987 41.5326 139.223 43.6276C137.461 43.7804 135.694 44.0044 133.928 44.255C133.946 41.9807 133.864 39.9681 132.741 37.9808L132.75 37.9893ZM43.2528 116.289C31.8596 108.288 24.6658 101.134 22.4398 95.5951C19.3228 87.8287 25.2306 82.6466 26.2283 82.1347C28.8633 80.7825 30.3616 80.9425 32.9875 81.3758C34.1016 81.5606 35.6653 81.9578 37.0521 82.3268L37.4343 82.4264C37.6062 82.5259 37.7771 82.6076 37.9728 82.6617C39.146 82.9685 40.3343 82.2533 40.6211 81.0691C41.5024 77.4181 44.867 75.1298 48.12 75.9812C49.809 76.4265 51.2278 77.3891 52.1047 78.7028C53.0005 80.0424 53.2622 81.6479 52.853 83.3256C52.731 83.8279 52.8024 84.3401 53.0016 84.7848C53.1387 85.7028 53.8296 86.4912 54.7853 86.6649C59.4421 87.547 63.836 88.1025 68.1538 88.3859C62.1593 99.7705 59.1068 112.579 59.101 126.309C56.4979 124.836 50.0565 121.079 43.2445 116.298L43.2528 116.289ZM266.43 181.124C265.488 180.869 264.493 181.284 264.013 182.129C249.242 207.749 207.384 218.875 205.171 219.446C204.963 219.481 204.67 219.565 204.056 219.732C186.502 224.419 171.372 225.142 161.774 224.925C134.918 224.313 112.728 215.976 95.8319 200.164C69.5889 175.618 64.4811 139.817 64.4261 139.446C61.1961 116.391 66.4249 95.5 79.5506 79.0338C91.2554 64.3315 108.668 53.9225 128.561 49.7078C148.212 45.5474 168.194 47.8831 184.839 56.2627C202.232 65.0287 214.904 79.8514 221.69 99.2868C221.512 99.4008 221.335 99.5324 221.186 99.6984C220.394 100.619 220.505 102.018 221.416 102.824C239.752 119.029 261.182 125.301 269.542 127.247C272.142 127.85 274.293 129.555 275.29 131.805C275.799 132.948 277.343 136.409 271.438 140.668C259.713 149.119 226.286 146.921 225.952 146.9C224.747 146.816 223.71 147.738 223.644 148.958C223.579 150.177 224.503 151.24 225.708 151.323C225.884 151.334 226.561 151.377 227.616 151.431C228.568 160.166 231.107 169.404 240.406 175.459C239.089 175.584 237.567 175.629 235.802 175.551C234.589 175.495 233.589 176.451 233.559 177.678C233.528 178.904 234.477 179.931 235.689 179.979C236.875 180.027 238.005 180.025 239.081 179.98C244.703 179.748 248.749 178.249 251.135 175.512C253.759 172.5 253.319 169.214 253.256 168.853C253.175 168.323 252.895 167.838 252.491 167.49C246.576 162.459 243.307 157.079 242.743 151.472C242.813 151.469 242.883 151.466 242.953 151.463C248.181 151.247 253.955 150.742 259.333 149.712C262.173 156.894 262.74 164.18 262.745 164.26C262.8 164.968 263.177 165.619 263.776 165.993C264.375 166.377 265.114 166.444 265.758 166.187C289.258 156.699 300.386 169.72 303.085 173.623C294.011 188.199 266.714 181.183 266.429 181.106L266.43 181.124ZM238.36 151.609C238.936 158.246 242.48 164.494 248.921 170.204C248.848 170.793 248.598 171.692 247.839 172.567C247.501 172.954 247.041 173.364 246.421 173.745C237.737 169.823 233.476 163.285 232.049 151.585C233.883 151.625 236.022 151.643 238.369 151.608L238.36 151.609Z" fill="#4C4948"/>
<path d="M94.9107 199.977C111.786 215.558 134.026 223.679 161.005 224.123C170.651 224.284 185.862 223.469 203.538 218.697C204.156 218.527 204.452 218.451 204.661 218.406C206.062 218.04 223.261 213.423 239.576 203.702C232.164 202.527 215.336 196.706 206.005 168.497C193.788 131.597 176.247 119.642 176.247 119.642C176.247 119.642 149.714 96.3502 107.779 110.717C76.7851 121.333 71.6784 150.506 71.1203 164.998C75.7879 176.16 83.2215 189.182 94.9015 199.969L94.9107 199.977ZM177.515 137.545C178.515 137.445 179.43 138.177 179.54 139.185C179.574 139.536 183.463 174.9 205.602 196.17C206.34 196.875 206.36 198.037 205.655 198.775C205.319 199.126 204.87 199.314 204.413 199.336C203.929 199.359 203.428 199.188 203.05 198.827C179.915 176.609 176.025 141.06 175.866 139.561C175.766 138.553 176.498 137.646 177.506 137.537L177.515 137.545ZM144.654 123.159C144.677 122.145 145.519 121.339 146.533 121.353C147.547 121.375 148.362 122.209 148.34 123.232C148.333 123.647 147.992 165.122 182.26 200.725C182.964 201.458 182.94 202.622 182.207 203.327C181.87 203.651 181.446 203.821 181.015 203.841C180.505 203.865 179.986 203.678 179.597 203.282C144.226 166.533 144.639 123.592 144.645 123.16L144.654 123.159ZM115.771 125.862C115.82 124.847 116.69 124.066 117.697 124.106C118.712 124.155 119.501 125.008 119.453 126.032C119.433 126.544 118.276 166.974 158.344 205.079C159.082 205.784 159.111 206.945 158.406 207.683C158.061 208.043 157.612 208.232 157.155 208.253C156.672 208.276 156.179 208.106 155.801 207.745C114.395 168.373 115.685 127.584 115.763 125.871L115.771 125.862ZM93.7735 140.432C94.8196 140.383 95.6576 141.154 95.7229 142.164C95.7412 142.551 98.3407 181.191 129.522 201.233C130.376 201.783 130.624 202.925 130.074 203.779C129.737 204.297 129.187 204.596 128.607 204.624C128.238 204.641 127.864 204.544 127.528 204.331C94.7376 183.247 92.0694 142.777 92.0415 142.373C91.9846 141.354 92.7631 140.489 93.7735 140.432Z" fill="white"/>
<path d="M54.3268 87.5858C53.3726 87.4037 52.6837 86.6259 52.5469 85.71C52.3482 85.2663 52.2774 84.7642 52.3986 84.2542C52.8064 82.5715 52.5458 80.9786 51.6519 79.6421C50.7769 78.3315 49.3611 77.3711 47.6758 76.9268C44.4298 76.0775 41.0725 78.3604 40.1931 82.003C39.9069 83.1844 38.7299 83.8976 37.5505 83.5919C37.3552 83.538 37.176 83.4568 37.0132 83.3572L36.6319 83.2577C35.248 82.8896 33.6872 82.4845 32.576 82.3089C29.9475 81.8859 28.4524 81.7262 25.8314 83.0661C24.8358 83.5769 18.9403 88.7381 22.0511 96.4953C24.2635 102.021 31.4511 109.167 42.8192 117.141C49.6165 121.911 56.044 125.659 58.6414 127.129C58.6473 113.43 61.6931 100.652 67.6747 89.2935C63.3661 89.0109 58.9818 88.4566 54.335 87.5766L54.3268 87.5858ZM36.3335 97.6949C34.6433 100.246 32.1043 101.972 29.3663 102.44C29.2708 102.452 29.1841 102.465 29.0881 102.469C28.0062 102.514 27.0202 101.739 26.8201 100.622C26.6066 99.4171 27.3934 98.277 28.5806 98.0773C29.4556 97.926 30.3086 97.5274 31.0725 96.9377L33.7964 92.6341C34.0383 91.6051 34.0679 90.5318 33.8795 89.4675C33.666 88.2624 34.4528 87.1223 35.64 86.9227C36.8271 86.723 37.9639 87.5354 38.1774 88.7405C38.7399 91.8804 38.0892 95.0617 36.3335 97.6949Z" fill="#CFD4E0"/>
<path d="M264.115 182.012C264.605 181.165 265.591 180.751 266.534 181.005C266.819 181.083 294.14 188.105 303.211 173.515C300.51 169.6 289.375 156.575 265.862 166.072C265.21 166.33 264.478 166.263 263.879 165.879C263.279 165.495 262.894 164.853 262.847 164.143C262.843 164.064 262.276 156.78 259.434 149.582C254.062 150.613 248.276 151.118 243.044 151.335C242.974 151.338 242.904 151.341 242.834 151.343C243.399 156.956 246.67 162.341 252.587 167.377C252.992 167.725 253.272 168.211 253.353 168.741C253.408 169.103 253.857 172.391 251.231 175.407C248.844 178.146 244.795 179.646 239.17 179.879C238.094 179.923 236.963 179.926 235.776 179.877C234.564 179.829 233.614 178.793 233.645 177.574C233.675 176.346 234.685 175.389 235.889 175.445C237.655 175.515 239.179 175.478 240.496 175.353C231.2 169.292 228.66 160.046 227.698 151.303C226.643 151.248 225.966 151.205 225.79 151.195C224.584 151.111 223.659 150.056 223.725 148.827C223.791 147.606 224.819 146.684 226.034 146.767C226.368 146.788 259.805 148.988 271.546 140.529C277.454 136.267 275.909 132.802 275.4 131.658C274.394 129.406 272.241 127.7 269.648 127.096C261.284 125.148 239.842 118.87 221.495 102.649C220.574 101.834 220.472 100.434 221.265 99.5209C221.413 99.3459 221.582 99.2145 221.769 99.1089C214.988 79.6636 202.3 64.8184 184.897 56.044C168.242 47.6476 148.249 45.3185 128.587 49.4828C108.682 53.6927 91.2601 64.1203 79.5486 78.8365C66.424 95.3179 61.1922 116.229 64.4153 139.306C64.4438 139.509 66.0317 150.609 71.9077 164.651C72.3577 150.036 77.2208 120.642 108.01 110.133C149.647 95.9216 176.242 119.579 176.242 119.579C176.242 119.579 193.793 131.752 206.225 169.054C215.728 197.56 232.525 203.542 239.913 204.783C249.443 199.064 258.649 191.554 264.135 182.047L264.115 182.012ZM87.6174 92.8949C83.4449 93.0763 80.0061 92.3917 79.8806 90.059C79.7551 87.7263 83.0871 86.7529 87.2685 86.5711C91.4498 86.3893 94.8798 87.0742 95.0053 89.407C95.1308 91.7397 91.7988 92.7131 87.6174 92.8949ZM97.1985 84.7027C95.5625 84.7703 94.0468 84.1396 92.9456 83.0651L95.9394 79.7144C96.3281 79.2806 96.2919 78.6065 95.8583 78.2066L92.5098 75.1271C93.4908 73.9664 94.9223 73.1961 96.5583 73.1284C99.7165 72.9979 102.419 75.473 102.591 78.6749C102.763 81.8769 100.357 84.581 97.199 84.7116L97.1985 84.7027ZM155.76 92.522C146.039 95.9908 137.293 97.3836 129.927 97.6882C115.194 98.2973 105.953 94.5547 105.379 94.3117C104.571 93.9718 104.029 93.1852 103.999 92.3064C103.876 88.5513 106.141 85.9953 106.398 85.7091C107.218 84.8218 108.601 84.7824 109.497 85.6254C110.384 86.4688 110.442 87.8709 109.622 88.7671C109.622 88.7671 108.928 89.5602 108.581 90.7569C113.619 92.3265 130.309 96.33 152.421 88.9621C151.942 87.8973 151.231 87.2245 151.222 87.216C150.31 86.4003 150.217 84.9907 151.009 84.0779C151.802 83.1651 153.192 83.0898 154.104 83.9055C154.389 84.1604 156.91 86.5274 157.2 90.2757C157.271 91.2684 156.689 92.1903 155.768 92.5128L155.76 92.522ZM159.243 80.1817L162.237 76.8311C162.626 76.3972 162.589 75.7231 162.156 75.3232L158.807 72.2437C159.788 71.083 161.22 70.3127 162.856 70.2451C166.014 70.1145 168.716 72.5896 168.888 75.7915C169.061 78.9935 166.655 81.6976 163.497 81.8282C161.861 81.8958 160.345 81.2651 159.244 80.1906L159.243 80.1817ZM175.207 89.0867C171.034 89.2681 167.595 88.5836 167.47 86.2509C167.344 83.9181 170.676 82.9447 174.858 82.763C179.03 82.5816 182.469 83.2661 182.594 85.5988C182.72 87.9316 179.388 88.9049 175.207 89.0867Z" fill="#CFD4E0"/>
<path d="M149.706 34.5935C158.553 36.5443 161.402 31.7299 162.067 30.2141C163.654 26.5837 162.249 22.1682 158.664 19.4827C148.503 11.8561 137.509 22.3904 137.042 22.8464C136.241 23.6281 134.971 23.6718 134.105 22.9234C133.627 22.5154 122.213 12.9801 112.956 21.375C109.675 24.3447 108.759 28.8563 110.719 32.3399C111.543 33.794 114.895 38.3517 123.494 35.6787C125.177 35.1545 130.297 33.5701 133.276 38.8651C134.393 40.8597 134.484 42.8789 134.466 45.161C136.234 44.9096 138.004 44.6848 139.769 44.5315C139.542 42.4289 139.475 40.5245 140.318 38.5825C142.716 33.056 147.983 34.2192 149.716 34.602L149.706 34.5935Z" fill="white"/>
</svg>
