<svg width="256" height="96" viewBox="0 0 256 96" fill="none" xmlns="http://www.w3.org/2000/svg">
<path d="M228.322 25.7798C231.082 34.5398 237.202 43.0598 245.542 47.3798C244.102 48.8798 241.642 51.9398 240.502 53.9798C238.942 52.9598 237.382 51.7598 235.942 50.4998C235.282 68.1998 234.562 75.0998 232.462 77.5598C230.962 79.5398 229.342 80.1398 227.002 80.4398C224.962 80.7398 221.482 80.7398 217.942 80.6198C217.822 78.4598 216.862 75.4598 215.602 73.4198C218.902 73.6598 222.022 73.7198 223.522 73.7198C224.602 73.7198 225.263 73.5998 225.923 72.8798C227.123 71.5598 227.782 66.2198 228.322 53.7398H216.502C215.002 65.2598 211.103 75.5198 195.562 81.3398C194.662 79.2998 192.562 76.3598 190.822 74.7398C204.382 70.3598 207.502 62.4398 208.702 53.7398H198.562V49.7798C197.122 51.3398 195.622 52.7798 194.062 54.0998C192.802 52.6598 189.742 50.0198 188.062 48.8198C194.843 43.9598 200.182 35.9198 202.942 26.9198L210.442 28.7198C208.222 35.4398 204.922 41.6798 201.022 46.7798H232.102C228.202 42.5198 225.142 37.4798 223.042 32.4398H213.502V25.7798H228.322Z" fill="#A6843B" stroke="#A6843B" stroke-width="4" stroke-linecap="round" stroke-linejoin="round"/>
<path d="M228.033 26.0796C230.793 34.8396 236.913 43.3596 245.253 47.6796C243.813 49.1796 241.353 52.2396 240.213 54.2796C238.653 53.2596 237.093 52.0596 235.653 50.7996C234.993 68.4996 234.203 75.3396 232.173 77.8596C230.613 79.7896 229.053 80.4196 226.713 80.7396C224.673 81.0196 221.193 81.0396 217.653 80.9196C217.533 78.7596 216.573 75.7596 215.313 73.7196C218.613 73.9596 221.733 74.0196 223.233 74.0196C224.313 74.0196 224.973 73.8996 225.633 73.1796C226.833 71.8596 227.493 66.5196 228.033 54.0396H216.213C214.713 65.5596 210.813 75.8196 195.273 81.6396C194.373 79.5996 192.273 76.6596 190.533 75.0396C204.093 70.6596 207.213 62.7396 208.413 54.0396H198.273V50.0796C196.833 51.6396 195.333 53.0796 193.773 54.3996C192.513 52.9596 189.453 50.3196 187.773 49.1196C194.553 44.2596 199.893 36.2196 202.653 27.2196L210.153 29.0196C207.933 35.7396 204.633 41.9796 200.733 47.0796H231.813C227.913 42.8196 224.853 37.7796 222.753 32.7396H213.213V26.0796H228.033Z" fill="#A6843B" stroke="#A6843B" stroke-width="4" stroke-linecap="round" stroke-linejoin="round"/>
<path d="M227.744 26.3696C230.504 35.1296 236.624 43.6496 244.964 47.9696C243.524 49.4696 241.064 52.5296 239.924 54.5696C238.364 53.5496 236.804 52.3496 235.364 51.0896C234.704 68.7896 233.914 75.6296 231.884 78.1496C230.324 80.0796 228.764 80.7096 226.424 81.0296C224.384 81.3096 220.904 81.3296 217.364 81.2096C217.244 79.0496 216.284 76.0496 215.024 74.0096C218.324 74.2496 221.444 74.3096 222.944 74.3096C224.024 74.3096 224.684 74.1896 225.344 73.4696C226.544 72.1496 227.204 66.8096 227.744 54.3296H215.924C214.424 65.8496 210.524 76.1096 194.984 81.9296C194.084 79.8896 191.984 76.9496 190.244 75.3296C203.804 70.9496 206.924 63.0296 208.124 54.3296H197.984V50.3696C196.544 51.9296 195.044 53.3696 193.484 54.6896C192.224 53.2496 189.164 50.6096 187.484 49.4096C194.264 44.5496 199.604 36.5096 202.364 27.5096L209.864 29.3096C207.644 36.0296 204.344 42.2696 200.444 47.3696H231.524C227.624 43.1096 224.564 38.0696 222.464 33.0296H212.924V26.3696H227.744Z" fill="#A6843B" stroke="#A6843B" stroke-width="4" stroke-linecap="round" stroke-linejoin="round"/>
<path d="M227.444 26.6597C230.204 35.4197 236.324 43.9397 244.664 48.2597C243.224 49.7597 240.764 52.8197 239.624 54.8597C238.064 53.8397 236.504 52.6397 235.064 51.3797C234.404 69.0797 233.614 75.9197 231.584 78.4397C230.024 80.3697 228.464 80.9997 226.124 81.3197C224.084 81.5997 220.604 81.6197 217.064 81.4997C216.944 79.3397 215.984 76.3397 214.724 74.2997C218.024 74.5397 221.144 74.5997 222.644 74.5997C223.724 74.5997 224.384 74.4797 225.044 73.7597C226.244 72.4397 226.904 67.0997 227.444 54.6197H215.624C214.124 66.1397 210.224 76.3997 194.684 82.2197C193.784 80.1797 191.684 77.2397 189.944 75.6197C203.504 71.2397 206.624 63.3197 207.824 54.6197H197.684V50.6597C196.244 52.2197 194.744 53.6597 193.184 54.9797C191.924 53.5397 188.864 50.8997 187.184 49.6997C193.964 44.8397 199.304 36.7997 202.064 27.7997L209.564 29.5997C207.344 36.3197 204.044 42.5597 200.144 47.6597H231.224C227.324 43.3997 224.264 38.3597 222.164 33.3197H212.624V26.6597H227.444Z" fill="#A6843B" stroke="#A6843B" stroke-width="4" stroke-linecap="round" stroke-linejoin="round"/>
<path d="M227.151 26.96C229.911 35.72 236.031 44.24 244.371 48.56C242.931 50.06 240.471 53.12 239.331 55.16C237.771 54.14 236.211 52.94 234.771 51.68C234.111 69.38 233.321 76.22 231.291 78.74C229.731 80.67 228.171 81.3 225.831 81.62C223.791 81.9 220.311 81.92 216.771 81.8C216.651 79.64 215.691 76.64 214.431 74.6C217.731 74.84 220.851 74.9 222.351 74.9C223.431 74.9 224.091 74.78 224.751 74.06C225.951 72.74 226.611 67.4 227.151 54.92H215.331C213.831 66.44 209.931 76.7 194.391 82.52C193.491 80.48 191.391 77.54 189.651 75.92C203.211 71.54 206.331 63.62 207.531 54.92H197.391V50.96C195.951 52.52 194.451 53.96 192.891 55.28C191.631 53.84 188.571 51.2 186.891 50C193.671 45.14 199.011 37.1 201.771 28.1L209.271 29.9C207.051 36.62 203.751 42.86 199.851 47.96H230.931C227.031 43.7 223.971 38.66 221.871 33.62H212.331V26.96H227.151Z" fill="#A6843B" stroke="#A6843B" stroke-width="4" stroke-linecap="round" stroke-linejoin="round"/>
<path d="M226.854 27.25C229.614 36.01 235.734 44.53 244.074 48.85C242.634 50.35 240.174 53.41 239.034 55.45C237.474 54.43 235.914 53.23 234.474 51.97C233.814 69.67 233.024 76.51 230.994 79.03C229.434 80.96 227.874 81.59 225.534 81.91C223.494 82.19 220.014 82.21 216.474 82.09C216.354 79.93 215.394 76.93 214.134 74.89C217.434 75.13 220.554 75.19 222.054 75.19C223.134 75.19 223.794 75.07 224.454 74.35C225.654 73.03 226.314 67.69 226.854 55.21H215.034C213.534 66.73 209.634 76.99 194.094 82.81C193.194 80.77 191.094 77.83 189.354 76.21C202.914 71.83 206.034 63.91 207.234 55.21H197.094V51.25C195.654 52.81 194.154 54.25 192.594 55.57C191.334 54.13 188.274 51.49 186.594 50.29C193.374 45.43 198.714 37.39 201.474 28.39L208.974 30.19C206.754 36.91 203.454 43.15 199.554 48.25H230.634C226.734 43.99 223.674 38.95 221.574 33.91H212.034V27.25H226.854Z" fill="#A6843B" stroke="#A6843B" stroke-width="4" stroke-linecap="round" stroke-linejoin="round"/>
<path d="M226.561 27.5498C229.321 36.3098 235.441 44.8298 243.781 49.1498C242.341 50.6498 239.881 53.7098 238.741 55.7498C237.181 54.7298 235.621 53.5298 234.181 52.2698C233.521 69.9698 232.731 76.8098 230.701 79.3298C229.141 81.2598 227.581 81.8898 225.241 82.2098C223.201 82.4898 219.721 82.5098 216.181 82.3898C216.061 80.2298 215.101 77.2298 213.841 75.1898C217.141 75.4298 220.261 75.4898 221.761 75.4898C222.841 75.4898 223.501 75.3698 224.161 74.6498C225.361 73.3298 226.021 67.9898 226.561 55.5098H214.741C213.241 67.0298 209.341 77.2898 193.801 83.1098C192.901 81.0698 190.801 78.1298 189.061 76.5098C202.621 72.1298 205.741 64.2098 206.941 55.5098H196.801V51.5498C195.361 53.1098 193.861 54.5498 192.301 55.8698C191.041 54.4298 187.981 51.7898 186.301 50.5898C193.081 45.7298 198.421 37.6898 201.181 28.6898L208.681 30.4898C206.461 37.2098 203.161 43.4498 199.261 48.5498H230.341C226.441 44.2898 223.381 39.2498 221.281 34.2098H211.741V27.5498H226.561Z" fill="#A6843B" stroke="#A6843B" stroke-width="4" stroke-linecap="round" stroke-linejoin="round"/>
<path d="M226.264 27.8398C229.024 36.5998 235.144 45.1198 243.484 49.4398C242.044 50.9398 239.584 53.9998 238.444 56.0398C236.884 55.0198 235.324 53.8198 233.884 52.5598C233.224 70.2598 232.434 77.0998 230.404 79.6198C228.844 81.5498 227.284 82.1798 224.944 82.4998C222.904 82.7798 219.424 82.7998 215.884 82.6798C215.764 80.5198 214.804 77.5198 213.544 75.4798C216.844 75.7198 219.964 75.7798 221.464 75.7798C222.544 75.7798 223.204 75.6598 223.864 74.9398C225.064 73.6198 225.724 68.2798 226.264 55.7998H214.444C212.944 67.3198 209.044 77.5798 193.504 83.3998C192.604 81.3598 190.504 78.4198 188.764 76.7998C202.324 72.4198 205.444 64.4998 206.644 55.7998H196.504V51.8398C195.064 53.3998 193.564 54.8398 192.004 56.1598C190.744 54.7198 187.684 52.0798 186.004 50.8798C192.784 46.0198 198.124 37.9798 200.884 28.9798L208.384 30.7798C206.164 37.4998 202.864 43.7398 198.964 48.8398H230.044C226.144 44.5798 223.084 39.5398 220.984 34.4998H211.444V27.8398H226.264Z" fill="#A6843B" stroke="#A6843B" stroke-width="4" stroke-linecap="round" stroke-linejoin="round"/>
<path d="M225.971 28.1299C228.731 36.8899 234.851 45.4099 243.191 49.7299C241.751 51.2299 239.291 54.2899 238.151 56.3299C236.591 55.3099 235.031 54.1099 233.591 52.8499C232.931 70.5499 232.141 77.3899 230.111 79.9099C228.551 81.8399 226.991 82.4699 224.651 82.7899C222.611 83.0699 219.131 83.0899 215.591 82.9699C215.471 80.8099 214.511 77.8099 213.251 75.7699C216.551 76.0099 219.671 76.0699 221.171 76.0699C222.251 76.0699 222.911 75.9499 223.571 75.2299C224.771 73.9099 225.431 68.5699 225.971 56.0899H214.151C212.651 67.6099 208.751 77.8699 193.211 83.6899C192.311 81.6499 190.211 78.7099 188.471 77.0899C202.031 72.7099 205.151 64.7899 206.351 56.0899H196.211V52.1299C194.771 53.6899 193.271 55.1299 191.711 56.4499C190.451 55.0099 187.391 52.3699 185.711 51.1699C192.491 46.3099 197.831 38.2699 200.591 29.2699L208.091 31.0699C205.871 37.7899 202.571 44.0299 198.671 49.1299H229.751C225.851 44.8699 222.791 39.8299 220.691 34.7899H211.151V28.1299H225.971Z" fill="#A6843B" stroke="#A6843B" stroke-width="4" stroke-linecap="round" stroke-linejoin="round"/>
<path d="M225.682 28.4297C228.442 37.1897 234.562 45.7097 242.902 50.0297C241.462 51.5297 239.002 54.5897 237.862 56.6297C236.302 55.6097 234.742 54.4097 233.302 53.1497C232.642 70.8497 231.852 77.6897 229.822 80.2097C228.262 82.1397 226.702 82.7697 224.362 83.0897C222.322 83.3697 218.842 83.3897 215.302 83.2697C215.182 81.1097 214.222 78.1097 212.962 76.0697C216.262 76.3097 219.382 76.3697 220.882 76.3697C221.962 76.3697 222.622 76.2497 223.282 75.5297C224.482 74.2097 225.142 68.8697 225.682 56.3897H213.862C212.362 67.9097 208.462 78.1697 192.922 83.9897C192.022 81.9497 189.922 79.0097 188.182 77.3897C201.742 73.0097 204.862 65.0897 206.062 56.3897H195.922V52.4297C194.482 53.9897 192.982 55.4297 191.422 56.7497C190.162 55.3097 187.102 52.6697 185.422 51.4697C192.202 46.6097 197.542 38.5697 200.302 29.5697L207.802 31.3697C205.582 38.0897 202.282 44.3297 198.382 49.4297H229.462C225.562 45.1697 222.502 40.1297 220.402 35.0897H210.862V28.4297H225.682Z" fill="#A6843B" stroke="#A6843B" stroke-width="4" stroke-linecap="round" stroke-linejoin="round"/>
<path d="M225.381 28.7197C228.141 37.4797 234.261 45.9997 242.601 50.3197C241.161 51.8197 238.701 54.8797 237.561 56.9197C236.001 55.8997 234.441 54.6997 233.001 53.4397C232.341 71.1397 231.551 77.9797 229.521 80.4997C227.961 82.4297 226.401 83.0597 224.061 83.3797C222.021 83.6597 218.541 83.6797 215.001 83.5597C214.881 81.3997 213.921 78.3997 212.661 76.3597C215.961 76.5997 219.081 76.6597 220.581 76.6597C221.661 76.6597 222.321 76.5397 222.981 75.8197C224.181 74.4997 224.841 69.1597 225.381 56.6797H213.561C212.061 68.1997 208.161 78.4597 192.621 84.2797C191.721 82.2397 189.621 79.2997 187.881 77.6797C201.441 73.2997 204.561 65.3797 205.761 56.6797H195.621V52.7197C194.181 54.2797 192.681 55.7197 191.121 57.0397C189.861 55.5997 186.801 52.9597 185.121 51.7597C191.901 46.8997 197.241 38.8597 200.001 29.8597L207.501 31.6597C205.281 38.3797 201.981 44.6197 198.081 49.7197H229.161C225.261 45.4597 222.201 40.4197 220.101 35.3797H210.561V28.7197H225.381Z" fill="#A6843B" stroke="#A6843B" stroke-width="4" stroke-linecap="round" stroke-linejoin="round"/>
<path d="M225.092 29.02C227.852 37.78 233.972 46.3 242.312 50.62C240.872 52.12 238.412 55.18 237.272 57.22C235.712 56.2 234.152 55 232.712 53.74C232.052 71.44 231.262 78.28 229.232 80.8C227.672 82.73 226.112 83.36 223.772 83.68C221.732 83.96 218.252 83.98 214.712 83.86C214.592 81.7 213.632 78.7 212.372 76.66C215.672 76.9 218.792 76.96 220.292 76.96C221.372 76.96 222.032 76.84 222.692 76.12C223.892 74.8 224.552 69.46 225.092 56.98H213.272C211.772 68.5 207.872 78.76 192.332 84.58C191.432 82.54 189.332 79.6 187.592 77.98C201.152 73.6 204.272 65.68 205.472 56.98H195.332V53.02C193.892 54.58 192.392 56.02 190.832 57.34C189.572 55.9 186.512 53.26 184.832 52.06C191.612 47.2 196.952 39.16 199.712 30.16L207.212 31.96C204.992 38.68 201.692 44.92 197.792 50.02H228.872C224.972 45.76 221.912 40.72 219.812 35.68H210.272V29.02H225.092Z" fill="#A6843B" stroke="#A6843B" stroke-width="4" stroke-linecap="round" stroke-linejoin="round"/>
<path d="M224.791 29.3096C227.551 38.0696 233.671 46.5896 242.011 50.9096C240.571 52.4096 238.111 55.4696 236.971 57.5096C235.411 56.4896 233.851 55.2896 232.411 54.0296C231.751 71.7296 230.961 78.5696 228.931 81.0896C227.371 83.0196 225.811 83.6496 223.471 83.9696C221.431 84.2496 217.951 84.2696 214.411 84.1496C214.291 81.9896 213.331 78.9896 212.071 76.9496C215.371 77.1896 218.491 77.2496 219.991 77.2496C221.071 77.2496 221.731 77.1296 222.391 76.4096C223.591 75.0896 224.251 69.7496 224.791 57.2696H212.971C211.471 68.7896 207.571 79.0496 192.031 84.8696C191.131 82.8296 189.031 79.8896 187.291 78.2696C200.851 73.8896 203.971 65.9696 205.171 57.2696H195.031V53.3096C193.591 54.8696 192.091 56.3096 190.531 57.6296C189.271 56.1896 186.211 53.5496 184.531 52.3496C191.311 47.4896 196.651 39.4496 199.411 30.4496L206.911 32.2496C204.691 38.9696 201.391 45.2096 197.491 50.3096H228.571C224.671 46.0496 221.611 41.0096 219.511 35.9696H209.971V29.3096H224.791Z" fill="#A6843B" stroke="#A6843B" stroke-width="4" stroke-linecap="round" stroke-linejoin="round"/>
<path d="M224.502 29.5996C227.262 38.3596 233.382 46.8796 241.722 51.1996C240.282 52.6996 237.822 55.7596 236.682 57.7996C235.122 56.7796 233.562 55.5796 232.122 54.3196C231.462 72.0196 230.672 78.8596 228.642 81.3796C227.082 83.3096 225.522 83.9396 223.182 84.2596C221.142 84.5396 217.662 84.5596 214.122 84.4396C214.002 82.2796 213.042 79.2796 211.782 77.2396C215.082 77.4796 218.202 77.5396 219.702 77.5396C220.782 77.5396 221.442 77.4196 222.102 76.6996C223.302 75.3796 223.962 70.0396 224.502 57.5596H212.682C211.182 69.0796 207.282 79.3396 191.742 85.1596C190.842 83.1196 188.742 80.1796 187.002 78.5596C200.562 74.1796 203.682 66.2596 204.882 57.5596H194.742V53.5996C193.302 55.1596 191.802 56.5996 190.242 57.9196C188.982 56.4796 185.922 53.8396 184.242 52.6396C191.022 47.7796 196.362 39.7396 199.122 30.7396L206.622 32.5396C204.402 39.2596 201.102 45.4996 197.202 50.5996H228.282C224.382 46.3396 221.322 41.2996 219.222 36.2596H209.682V29.5996H224.502Z" fill="#A6843B" stroke="#A6843B" stroke-width="4" stroke-linecap="round" stroke-linejoin="round"/>
<path d="M224.213 29.8999C226.973 38.6599 233.093 47.1799 241.433 51.4999C239.993 52.9999 237.533 56.0599 236.393 58.0999C234.833 57.0799 233.273 55.8799 231.833 54.6199C231.173 72.3199 230.383 79.1599 228.353 81.6799C226.793 83.6099 225.233 84.2399 222.893 84.5599C220.853 84.8399 217.373 84.8599 213.833 84.7399C213.713 82.5799 212.753 79.5799 211.493 77.5399C214.793 77.7799 217.913 77.8399 219.413 77.8399C220.493 77.8399 221.153 77.7199 221.813 76.9999C223.013 75.6799 223.673 70.3399 224.213 57.8599H212.393C210.893 69.3799 206.993 79.6399 191.453 85.4599C190.553 83.4199 188.453 80.4799 186.713 78.8599C200.273 74.4799 203.393 66.5599 204.593 57.8599H194.453V53.8999C193.013 55.4599 191.513 56.8999 189.953 58.2199C188.693 56.7799 185.633 54.1399 183.953 52.9399C190.733 48.0799 196.073 40.0399 198.833 31.0399L206.333 32.8399C204.113 39.5599 200.813 45.7999 196.913 50.8999H227.993C224.093 46.6399 221.033 41.5999 218.933 36.5599H209.393V29.8999H224.213Z" fill="#A6843B" stroke="#A6843B" stroke-width="4" stroke-linecap="round" stroke-linejoin="round"/>
<path d="M223.912 30.1899C226.672 38.9499 232.792 47.4699 241.132 51.7899C239.692 53.2899 237.232 56.3499 236.092 58.3899C234.532 57.3699 232.972 56.1699 231.532 54.9099C230.872 72.6099 230.082 79.4499 228.052 81.9699C226.492 83.8999 224.932 84.5299 222.592 84.8499C220.552 85.1299 217.072 85.1499 213.532 85.0299C213.412 82.8699 212.452 79.8699 211.192 77.8299C214.492 78.0699 217.612 78.1299 219.112 78.1299C220.192 78.1299 220.852 78.0099 221.512 77.2899C222.712 75.9699 223.372 70.6299 223.912 58.1499H212.092C210.592 69.6699 206.692 79.9299 191.152 85.7499C190.252 83.7099 188.152 80.7699 186.412 79.1499C199.972 74.7699 203.092 66.8499 204.292 58.1499H194.152V54.1899C192.712 55.7499 191.212 57.1899 189.652 58.5099C188.392 57.0699 185.332 54.4299 183.652 53.2299C190.432 48.3699 195.772 40.3299 198.532 31.3299L206.032 33.1299C203.812 39.8499 200.512 46.0899 196.612 51.1899H227.692C223.792 46.9299 220.732 41.8899 218.632 36.8499H209.092V30.1899H223.912Z" fill="#A6843B" stroke="#A6843B" stroke-width="4" stroke-linecap="round" stroke-linejoin="round"/>
<path d="M223.623 30.4897C226.383 39.2497 232.503 47.7697 240.843 52.0897C239.403 53.5897 236.943 56.6497 235.803 58.6897C234.243 57.6697 232.683 56.4697 231.243 55.2097C230.583 72.9097 229.793 79.7497 227.763 82.2697C226.203 84.1997 224.643 84.8298 222.303 85.1497C220.263 85.4297 216.783 85.4497 213.243 85.3298C213.123 83.1698 212.163 80.1697 210.903 78.1297C214.203 78.3697 217.323 78.4297 218.823 78.4297C219.903 78.4297 220.563 78.3097 221.223 77.5897C222.423 76.2697 223.083 70.9297 223.623 58.4497H211.803C210.303 69.9697 206.403 80.2298 190.863 86.0498C189.963 84.0098 187.863 81.0697 186.123 79.4497C199.683 75.0697 202.803 67.1497 204.003 58.4497H193.863V54.4897C192.423 56.0497 190.923 57.4897 189.363 58.8097C188.103 57.3697 185.043 54.7297 183.363 53.5297C190.143 48.6697 195.483 40.6297 198.243 31.6297L205.743 33.4297C203.523 40.1497 200.223 46.3897 196.323 51.4897H227.403C223.503 47.2297 220.443 42.1897 218.343 37.1497H208.803V30.4897H223.623Z" fill="#A6843B" stroke="#A6843B" stroke-width="4" stroke-linecap="round" stroke-linejoin="round"/>
<path d="M223.322 30.7798C226.082 39.5398 232.202 48.0598 240.542 52.3798C239.102 53.8798 236.642 56.9398 235.502 58.9798C233.942 57.9598 232.382 56.7598 230.942 55.4998C230.282 73.1998 229.562 80.0998 227.462 82.5598C225.962 84.5398 224.342 85.1398 222.002 85.4398C219.962 85.7398 216.482 85.7398 212.942 85.6198C212.822 83.4598 211.862 80.4598 210.602 78.4198C213.902 78.6598 217.022 78.7198 218.522 78.7198C219.602 78.7198 220.263 78.5998 220.923 77.8798C222.123 76.5598 222.782 71.2198 223.322 58.7398H211.502C210.002 70.2598 206.103 80.5198 190.562 86.3398C189.662 84.2998 187.562 81.3598 185.822 79.7398C199.382 75.3598 202.502 67.4398 203.702 58.7398H193.562V54.7798C192.122 56.3398 190.622 57.7798 189.062 59.0998C187.802 57.6598 184.742 55.0198 183.062 53.8198C189.843 48.9598 195.182 40.9198 197.942 31.9198L205.442 33.7198C203.222 40.4398 199.922 46.6798 196.022 51.7798H227.102C223.202 47.5198 220.142 42.4798 218.042 37.4398H208.502V30.7798H223.322Z" fill="#A6843B" stroke="#A6843B" stroke-width="4" stroke-linecap="round" stroke-linejoin="round"/>
<path d="M222.322 30.7798C225.082 39.5398 231.202 48.0598 239.542 52.3798C238.102 53.8798 235.642 56.9398 234.502 58.9798C232.942 57.9598 231.382 56.7598 229.942 55.4998C229.282 73.1998 228.562 80.0998 226.462 82.5598C224.962 84.5398 223.342 85.1398 221.002 85.4398C218.962 85.7398 215.482 85.7398 211.942 85.6198C211.822 83.4598 210.862 80.4598 209.602 78.4198C212.902 78.6598 216.022 78.7198 217.522 78.7198C218.602 78.7198 219.263 78.5998 219.923 77.8798C221.123 76.5598 221.782 71.2198 222.322 58.7398H210.502C209.002 70.2598 205.103 80.5198 189.562 86.3398C188.662 84.2998 186.562 81.3598 184.822 79.7398C198.382 75.3598 201.502 67.4398 202.702 58.7398H192.562V54.7798C191.122 56.3398 189.622 57.7798 188.062 59.0998C186.802 57.6598 183.742 55.0198 182.062 53.8198C188.843 48.9598 194.182 40.9198 196.942 31.9198L204.442 33.7198C202.222 40.4398 198.922 46.6798 195.022 51.7798H226.102C222.202 47.5198 219.142 42.4798 217.042 37.4398H207.502V30.7798H222.322Z" fill="white" stroke="#A6843B" stroke-width="2" stroke-linecap="round" stroke-linejoin="round"/>
<path d="M26.9 13.8C31.3 9.93 37.27 8 44.8 8C49.8 8 54.08 8.87 57.65 10.6C61.22 12.33 63.92 14.7 65.75 17.7C67.58 20.7 68.5 24.07 68.5 27.8C68.5 32.2 67.4 35.78 65.2 38.55C63 41.32 60.43 43.2 57.5 44.2V44.6C61.3 45.87 64.3 47.97 66.5 50.9C68.7 53.83 69.8 57.6 69.8 62.2C69.8 66.33 68.85 69.99 66.95 73.15C65.05 76.31 62.28 78.8 58.65 80.6C55.02 82.4 50.7 83.3 45.7 83.3C37.7 83.3 31.32 81.34 26.55 77.4C21.78 73.47 19.27 67.53 19 59.6H35.6C35.67 62.53 36.5 64.85 38.1 66.55C39.7 68.25 42.03 69.1 45.1 69.1C47.7 69.1 49.72 68.35 51.15 66.85C52.58 65.35 53.3 63.37 53.3 60.9C53.3 57.7 52.28 55.38 50.25 53.95C48.22 52.52 44.97 51.8 40.5 51.8H37.3V37.9H40.5C43.9 37.9 46.65 37.32 48.75 36.15C50.85 34.98 51.9 32.9 51.9 29.9C51.9 27.5 51.23 25.63 49.9 24.3C48.57 22.97 46.73 22.3 44.4 22.3C41.87 22.3 39.98 23.07 38.75 24.6C37.52 26.14 36.8 28.03 36.6 30.3H19.9C20.17 23.17 22.5 17.67 26.9 13.8Z" fill="#A6843B" stroke="#A6843B" stroke-width="4" stroke-linecap="round" stroke-linejoin="round"/>
<path d="M84.1508 80.8499C82.2508 79.0799 81.3008 76.8999 81.3008 74.2999C81.3008 71.6999 82.2508 69.3999 84.1508 67.5999C86.0508 65.7999 88.5008 64.8999 91.5008 64.8999C94.5008 64.8999 96.8508 65.7999 98.7508 67.5999C100.651 69.3999 101.601 71.6399 101.601 74.2999C101.601 76.9599 100.651 79.0899 98.7508 80.8499C96.8508 82.6199 94.4308 83.4999 91.5008 83.4999C88.5708 83.4999 86.0508 82.6199 84.1508 80.8499Z" fill="#A6843B" stroke="#A6843B" stroke-width="4" stroke-linecap="round" stroke-linejoin="round"/>
<path d="M163.398 24.6001H132.198V38.4001C133.528 36.9301 135.398 35.7301 137.798 34.8001C140.198 33.8701 142.798 33.4001 145.598 33.4001C150.598 33.4001 154.748 34.5301 158.048 36.8001C161.348 39.0701 163.768 42.0001 165.298 45.6001C166.828 49.2001 167.598 53.1001 167.598 57.3001C167.598 65.1001 165.398 71.2801 160.998 75.8501C156.598 80.4201 150.398 82.7001 142.398 82.7001C137.068 82.7001 132.428 81.7801 128.498 79.9501C124.568 78.1201 121.528 75.5701 119.398 72.3001C117.268 69.0301 116.098 65.2701 115.898 61.0001H132.598C132.998 63.0701 133.968 64.7801 135.498 66.1501C137.028 67.5201 139.128 68.2001 141.798 68.2001C144.928 68.2001 147.268 67.2001 148.798 65.2001C150.328 63.2001 151.098 60.5301 151.098 57.2001C151.098 53.8701 150.298 51.4301 148.698 49.7001C147.098 47.9701 144.768 47.1001 141.698 47.1001C139.428 47.1001 137.568 47.6501 136.098 48.7501C134.628 49.8501 133.668 51.3001 133.198 53.1001H116.698V9.6001H163.398V24.6001Z" fill="#A6843B" stroke="#A6843B" stroke-width="4" stroke-linecap="round" stroke-linejoin="round"/>
<path d="M26.4312 14.09C30.8312 10.22 36.8012 8.29004 44.3312 8.29004C49.3312 8.29004 53.6113 9.16004 57.1813 10.89C60.7513 12.62 63.4512 14.99 65.2812 17.99C67.1113 20.99 68.0312 24.36 68.0312 28.09C68.0312 32.49 66.9312 36.07 64.7312 38.84C62.5312 41.61 59.9613 43.49 57.0312 44.49V44.89C60.8312 46.16 63.8312 48.26 66.0312 51.19C68.2313 54.12 69.3313 57.89 69.3313 62.49C69.3313 66.62 68.3812 70.28 66.4812 73.44C64.5812 76.6 61.8113 79.09 58.1813 80.89C54.5513 82.69 50.2313 83.59 45.2313 83.59C37.2313 83.59 30.8513 81.63 26.0813 77.69C21.3113 73.76 18.8013 67.82 18.5312 59.89H35.1312C35.2012 62.82 36.0312 65.14 37.6312 66.84C39.2312 68.54 41.5612 69.39 44.6312 69.39C47.2312 69.39 49.2513 68.64 50.6813 67.14C52.1113 65.64 52.8312 63.66 52.8312 61.19C52.8312 57.99 51.8112 55.67 49.7812 54.24C47.7512 52.81 44.5012 52.09 40.0312 52.09H36.8312V38.19H40.0312C43.4312 38.19 46.1812 37.61 48.2812 36.44C50.3813 35.27 51.4313 33.19 51.4313 30.19C51.4313 27.79 50.7613 25.92 49.4313 24.59C48.1013 23.26 46.2613 22.59 43.9313 22.59C41.4013 22.59 39.5112 23.36 38.2812 24.89C37.0513 26.43 36.3312 28.32 36.1312 30.59H19.4312C19.7012 23.46 22.0312 17.96 26.4312 14.09Z" fill="#A6843B" stroke="#A6843B" stroke-width="4" stroke-linecap="round" stroke-linejoin="round"/>
<path d="M83.682 81.1399C81.782 79.3699 80.832 77.1899 80.832 74.5899C80.832 71.9899 81.782 69.6899 83.682 67.8899C85.582 66.0899 88.032 65.1899 91.032 65.1899C94.032 65.1899 96.382 66.0899 98.282 67.8899C100.182 69.6899 101.132 71.9299 101.132 74.5899C101.132 77.2499 100.182 79.3799 98.282 81.1399C96.382 82.9099 93.962 83.7899 91.032 83.7899C88.102 83.7899 85.582 82.9099 83.682 81.1399Z" fill="#A6843B" stroke="#A6843B" stroke-width="4" stroke-linecap="round" stroke-linejoin="round"/>
<path d="M162.93 24.8901H131.73V38.6901C133.06 37.2201 134.93 36.0201 137.33 35.0901C139.73 34.1601 142.33 33.6901 145.13 33.6901C150.13 33.6901 154.28 34.8201 157.58 37.0901C160.88 39.3601 163.3 42.2901 164.83 45.8901C166.36 49.4901 167.13 53.3901 167.13 57.5901C167.13 65.3901 164.93 71.5701 160.53 76.1401C156.13 80.7101 149.93 82.9901 141.93 82.9901C136.6 82.9901 131.96 82.0701 128.03 80.2401C124.1 78.4101 121.06 75.8601 118.93 72.5901C116.8 69.3201 115.63 65.5601 115.43 61.2901H132.13C132.53 63.3601 133.5 65.0701 135.03 66.4401C136.56 67.8101 138.66 68.4901 141.33 68.4901C144.46 68.4901 146.8 67.4901 148.33 65.4901C149.86 63.4901 150.63 60.8201 150.63 57.4901C150.63 54.1601 149.83 51.7201 148.23 49.9901C146.63 48.2601 144.3 47.3901 141.23 47.3901C138.96 47.3901 137.1 47.9401 135.63 49.0401C134.16 50.1401 133.2 51.5901 132.73 53.3901H116.23V9.89014H162.93V24.8901Z" fill="#A6843B" stroke="#A6843B" stroke-width="4" stroke-linecap="round" stroke-linejoin="round"/>
<path d="M25.9586 14.3898C30.3586 10.5198 36.3286 8.58984 43.8586 8.58984C48.8586 8.58984 53.1386 9.45984 56.7086 11.1898C60.2786 12.9198 62.9786 15.2898 64.8086 18.2898C66.6386 21.2898 67.5586 24.6598 67.5586 28.3898C67.5586 32.7898 66.4586 36.3698 64.2586 39.1398C62.0586 41.9098 59.4886 43.7898 56.5586 44.7898V45.1898C60.3586 46.4598 63.3586 48.5598 65.5586 51.4898C67.7586 54.4198 68.8586 58.1898 68.8586 62.7898C68.8586 66.9198 67.9086 70.5798 66.0086 73.7398C64.1086 76.8998 61.3386 79.3898 57.7086 81.1898C54.0786 82.9899 49.7586 83.8898 44.7586 83.8898C36.7586 83.8898 30.3786 81.9298 25.6086 77.9898C20.8386 74.0598 18.3286 68.1198 18.0586 60.1898H34.6586C34.7286 63.1198 35.5586 65.4398 37.1586 67.1398C38.7586 68.8398 41.0886 69.6898 44.1586 69.6898C46.7586 69.6898 48.7786 68.9398 50.2086 67.4398C51.6386 65.9398 52.3586 63.9598 52.3586 61.4898C52.3586 58.2898 51.3386 55.9698 49.3086 54.5398C47.2786 53.1098 44.0286 52.3898 39.5586 52.3898H36.3586V38.4898H39.5586C42.9586 38.4898 45.7086 37.9098 47.8086 36.7398C49.9086 35.5698 50.9586 33.4898 50.9586 30.4898C50.9586 28.0898 50.2886 26.2198 48.9586 24.8898C47.6286 23.5598 45.7886 22.8898 43.4586 22.8898C40.9286 22.8898 39.0386 23.6598 37.8086 25.1898C36.5786 26.7298 35.8586 28.6198 35.6586 30.8898H18.9586C19.2286 23.7598 21.5586 18.2598 25.9586 14.3898Z" fill="#A6843B" stroke="#A6843B" stroke-width="4" stroke-linecap="round" stroke-linejoin="round"/>
<path d="M83.2094 81.4398C81.3094 79.6698 80.3594 77.4897 80.3594 74.8897C80.3594 72.2897 81.3094 69.9898 83.2094 68.1898C85.1094 66.3898 87.5594 65.4897 90.5594 65.4897C93.5594 65.4897 95.9094 66.3898 97.8094 68.1898C99.7094 69.9898 100.659 72.2297 100.659 74.8897C100.659 77.5497 99.7094 79.6798 97.8094 81.4398C95.9094 83.2098 93.4894 84.0897 90.5594 84.0897C87.6294 84.0897 85.1094 83.2098 83.2094 81.4398Z" fill="#A6843B" stroke="#A6843B" stroke-width="4" stroke-linecap="round" stroke-linejoin="round"/>
<path d="M162.457 25.1899H131.257V38.9899C132.587 37.5199 134.457 36.3199 136.857 35.3899C139.257 34.4599 141.857 33.9899 144.657 33.9899C149.657 33.9899 153.807 35.1199 157.107 37.3899C160.407 39.6599 162.827 42.5899 164.357 46.1899C165.887 49.7899 166.657 53.6899 166.657 57.8899C166.657 65.6899 164.457 71.8699 160.057 76.4399C155.657 81.0099 149.457 83.2899 141.457 83.2899C136.127 83.2899 131.487 82.3699 127.557 80.5399C123.627 78.7099 120.587 76.1599 118.457 72.8899C116.327 69.6199 115.157 65.8599 114.957 61.5899H131.657C132.057 63.6599 133.027 65.3699 134.557 66.7399C136.087 68.1099 138.187 68.7899 140.857 68.7899C143.987 68.7899 146.327 67.7899 147.857 65.7899C149.387 63.7899 150.157 61.1199 150.157 57.7899C150.157 54.4599 149.357 52.0199 147.757 50.2899C146.157 48.5599 143.827 47.6899 140.757 47.6899C138.487 47.6899 136.627 48.2399 135.157 49.3399C133.687 50.4399 132.727 51.8899 132.257 53.6899H115.757V10.1899H162.457V25.1899Z" fill="#A6843B" stroke="#A6843B" stroke-width="4" stroke-linecap="round" stroke-linejoin="round"/>
<path d="M25.4898 14.6799C29.8898 10.8099 35.8598 8.87988 43.3898 8.87988C48.3898 8.87988 52.6698 9.74988 56.2398 11.4799C59.8098 13.2099 62.5098 15.5799 64.3398 18.5799C66.1698 21.5799 67.0898 24.9499 67.0898 28.6799C67.0898 33.0799 65.9898 36.6599 63.7898 39.4299C61.5898 42.1999 59.0198 44.0799 56.0898 45.0799V45.4799C59.8898 46.7499 62.8898 48.8499 65.0898 51.7799C67.2898 54.7099 68.3898 58.4799 68.3898 63.0799C68.3898 67.2099 67.4398 70.8699 65.5398 74.0299C63.6398 77.1899 60.8698 79.6799 57.2398 81.4799C53.6098 83.2799 49.2898 84.1799 44.2898 84.1799C36.2898 84.1799 29.9098 82.2199 25.1398 78.2799C20.3698 74.3499 17.8598 68.4099 17.5898 60.4799H34.1898C34.2598 63.4099 35.0898 65.7299 36.6898 67.4299C38.2898 69.1299 40.6198 69.9799 43.6898 69.9799C46.2898 69.9799 48.3098 69.2299 49.7398 67.7299C51.1698 66.2299 51.8898 64.2499 51.8898 61.7799C51.8898 58.5799 50.8698 56.2599 48.8398 54.8299C46.8098 53.3999 43.5598 52.6799 39.0898 52.6799H35.8898V38.7799H39.0898C42.4898 38.7799 45.2398 38.1999 47.3398 37.0299C49.4398 35.8599 50.4898 33.7799 50.4898 30.7799C50.4898 28.3799 49.8198 26.5099 48.4898 25.1799C47.1598 23.8499 45.3198 23.1799 42.9898 23.1799C40.4598 23.1799 38.5698 23.9499 37.3398 25.4799C36.1098 27.0199 35.3898 28.9099 35.1898 31.1799H18.4898C18.7598 24.0499 21.0898 18.5499 25.4898 14.6799Z" fill="#A6843B" stroke="#A6843B" stroke-width="4" stroke-linecap="round" stroke-linejoin="round"/>
<path d="M82.7406 81.7298C80.8406 79.9598 79.8906 77.7798 79.8906 75.1798C79.8906 72.5798 80.8406 70.2798 82.7406 68.4798C84.6406 66.6798 87.0906 65.7798 90.0906 65.7798C93.0906 65.7798 95.4406 66.6798 97.3406 68.4798C99.2406 70.2798 100.191 72.5198 100.191 75.1798C100.191 77.8398 99.2406 79.9698 97.3406 81.7298C95.4406 83.4998 93.0206 84.3798 90.0906 84.3798C87.1606 84.3798 84.6406 83.4998 82.7406 81.7298Z" fill="#A6843B" stroke="#A6843B" stroke-width="4" stroke-linecap="round" stroke-linejoin="round"/>
<path d="M161.988 25.48H130.788V39.28C132.118 37.81 133.988 36.61 136.388 35.68C138.788 34.75 141.388 34.28 144.188 34.28C149.188 34.28 153.338 35.41 156.638 37.68C159.938 39.95 162.358 42.88 163.888 46.48C165.418 50.08 166.188 53.98 166.188 58.18C166.188 65.98 163.988 72.16 159.588 76.73C155.188 81.3 148.988 83.58 140.988 83.58C135.658 83.58 131.018 82.66 127.088 80.83C123.158 79 120.118 76.45 117.988 73.18C115.858 69.91 114.688 66.15 114.488 61.88H131.188C131.588 63.95 132.558 65.66 134.088 67.03C135.618 68.4 137.718 69.08 140.388 69.08C143.518 69.08 145.858 68.08 147.388 66.08C148.918 64.08 149.688 61.41 149.688 58.08C149.688 54.75 148.888 52.31 147.288 50.58C145.688 48.85 143.358 47.98 140.288 47.98C138.018 47.98 136.158 48.53 134.688 49.63C133.218 50.73 132.258 52.18 131.788 53.98H115.288V10.48H161.988V25.48Z" fill="#A6843B" stroke="#A6843B" stroke-width="4" stroke-linecap="round" stroke-linejoin="round"/>
<path d="M25.0211 14.9802C29.4211 11.1102 35.3911 9.18018 42.9211 9.18018C47.9211 9.18018 52.2011 10.0502 55.7711 11.7802C59.3411 13.5102 62.0411 15.8802 63.8711 18.8802C65.7011 21.8802 66.6211 25.2502 66.6211 28.9802C66.6211 33.3802 65.5211 36.9602 63.3211 39.7302C61.1211 42.5002 58.5511 44.3802 55.6211 45.3802V45.7802C59.4211 47.0502 62.4211 49.1502 64.6211 52.0802C66.8211 55.0102 67.9211 58.7802 67.9211 63.3802C67.9211 67.5102 66.9711 71.1702 65.0711 74.3302C63.1711 77.4902 60.4011 79.9802 56.7711 81.7802C53.1411 83.5802 48.8211 84.4802 43.8211 84.4802C35.8211 84.4802 29.4411 82.5202 24.6711 78.5802C19.9011 74.6502 17.3911 68.7102 17.1211 60.7802H33.7211C33.7911 63.7102 34.6211 66.0302 36.2211 67.7302C37.8211 69.4302 40.1511 70.2802 43.2211 70.2802C45.8211 70.2802 47.8411 69.5302 49.2711 68.0302C50.7011 66.5302 51.4211 64.5502 51.4211 62.0802C51.4211 58.8802 50.4011 56.5602 48.3711 55.1302C46.3411 53.7002 43.0911 52.9802 38.6211 52.9802H35.4211V39.0802H38.6211C42.0211 39.0802 44.7711 38.5002 46.8711 37.3302C48.9711 36.1602 50.0211 34.0802 50.0211 31.0802C50.0211 28.6802 49.3511 26.8102 48.0211 25.4802C46.6911 24.1502 44.8511 23.4802 42.5211 23.4802C39.9911 23.4802 38.1011 24.2502 36.8711 25.7802C35.6411 27.3202 34.9211 29.2102 34.7211 31.4802H18.0211C18.2911 24.3502 20.6211 18.8502 25.0211 14.9802Z" fill="#A6843B" stroke="#A6843B" stroke-width="4" stroke-linecap="round" stroke-linejoin="round"/>
<path d="M82.2719 82.0301C80.3719 80.2601 79.4219 78.0801 79.4219 75.4801C79.4219 72.8801 80.3719 70.5801 82.2719 68.7801C84.1719 66.9801 86.6219 66.0801 89.6219 66.0801C92.6219 66.0801 94.9719 66.9801 96.8719 68.7801C98.7719 70.5801 99.7219 72.8201 99.7219 75.4801C99.7219 78.1401 98.7719 80.2701 96.8719 82.0301C94.9719 83.8001 92.5519 84.6801 89.6219 84.6801C86.6919 84.6801 84.1719 83.8001 82.2719 82.0301Z" fill="#A6843B" stroke="#A6843B" stroke-width="4" stroke-linecap="round" stroke-linejoin="round"/>
<path d="M161.52 25.7803H130.32V39.5803C131.65 38.1103 133.52 36.9103 135.92 35.9803C138.32 35.0503 140.92 34.5803 143.72 34.5803C148.72 34.5803 152.87 35.7103 156.17 37.9803C159.47 40.2503 161.89 43.1803 163.42 46.7803C164.95 50.3803 165.72 54.2803 165.72 58.4803C165.72 66.2803 163.52 72.4603 159.12 77.0303C154.72 81.6003 148.52 83.8803 140.52 83.8803C135.19 83.8803 130.55 82.9603 126.62 81.1303C122.69 79.3003 119.65 76.7503 117.52 73.4803C115.39 70.2103 114.22 66.4503 114.02 62.1803H130.72C131.12 64.2503 132.09 65.9603 133.62 67.3303C135.15 68.7003 137.25 69.3803 139.92 69.3803C143.05 69.3803 145.39 68.3803 146.92 66.3803C148.45 64.3803 149.22 61.7103 149.22 58.3803C149.22 55.0503 148.42 52.6103 146.82 50.8803C145.22 49.1503 142.89 48.2803 139.82 48.2803C137.55 48.2803 135.69 48.8303 134.22 49.9303C132.75 51.0303 131.79 52.4803 131.32 54.2803H114.82V10.7803H161.52V25.7803Z" fill="#A6843B" stroke="#A6843B" stroke-width="4" stroke-linecap="round" stroke-linejoin="round"/>
<path d="M24.5484 15.2702C28.9484 11.4002 34.9184 9.47021 42.4484 9.47021C47.4484 9.47021 51.7284 10.3402 55.2984 12.0702C58.8684 13.8002 61.5684 16.1702 63.3984 19.1702C65.2284 22.1702 66.1484 25.5402 66.1484 29.2702C66.1484 33.6702 65.0484 37.2502 62.8484 40.0202C60.6484 42.7902 58.0784 44.6702 55.1484 45.6702V46.0702C58.9484 47.3402 61.9484 49.4402 64.1484 52.3702C66.3484 55.3002 67.4484 59.0702 67.4484 63.6702C67.4484 67.8002 66.4984 71.4602 64.5984 74.6202C62.6984 77.7802 59.9284 80.2702 56.2984 82.0702C52.6684 83.8702 48.3484 84.7702 43.3484 84.7702C35.3484 84.7702 28.9684 82.8102 24.1984 78.8702C19.4284 74.9402 16.9184 69.0002 16.6484 61.0702H33.2484C33.3184 64.0002 34.1484 66.3202 35.7484 68.0202C37.3484 69.7202 39.6784 70.5702 42.7484 70.5702C45.3484 70.5702 47.3684 69.8202 48.7984 68.3202C50.2284 66.8202 50.9484 64.8402 50.9484 62.3702C50.9484 59.1702 49.9284 56.8502 47.8984 55.4202C45.8684 53.9902 42.6184 53.2702 38.1484 53.2702H34.9484V39.3702H38.1484C41.5484 39.3702 44.2984 38.7902 46.3984 37.6202C48.4984 36.4502 49.5484 34.3702 49.5484 31.3702C49.5484 28.9702 48.8784 27.1002 47.5484 25.7702C46.2184 24.4402 44.3784 23.7702 42.0484 23.7702C39.5184 23.7702 37.6284 24.5402 36.3984 26.0702C35.1684 27.6102 34.4484 29.5002 34.2484 31.7702H17.5484C17.8184 24.6402 20.1484 19.1402 24.5484 15.2702Z" fill="#A6843B" stroke="#A6843B" stroke-width="4" stroke-linecap="round" stroke-linejoin="round"/>
<path d="M81.7992 82.3201C79.8992 80.5501 78.9492 78.3701 78.9492 75.7701C78.9492 73.1701 79.8992 70.8701 81.7992 69.0701C83.6992 67.2701 86.1492 66.3701 89.1492 66.3701C92.1492 66.3701 94.4992 67.2701 96.3992 69.0701C98.2992 70.8701 99.2492 73.1101 99.2492 75.7701C99.2492 78.4301 98.2992 80.5601 96.3992 82.3201C94.4992 84.0901 92.0792 84.9701 89.1492 84.9701C86.2192 84.9701 83.6992 84.0901 81.7992 82.3201Z" fill="#A6843B" stroke="#A6843B" stroke-width="4" stroke-linecap="round" stroke-linejoin="round"/>
<path d="M161.047 26.0703H129.847V39.8703C131.177 38.4003 133.047 37.2003 135.447 36.2703C137.847 35.3403 140.447 34.8703 143.247 34.8703C148.247 34.8703 152.397 36.0003 155.697 38.2703C158.997 40.5403 161.417 43.4703 162.947 47.0703C164.477 50.6703 165.247 54.5703 165.247 58.7703C165.247 66.5703 163.047 72.7503 158.647 77.3203C154.247 81.8903 148.047 84.1703 140.047 84.1703C134.717 84.1703 130.077 83.2503 126.147 81.4203C122.217 79.5903 119.177 77.0403 117.047 73.7703C114.917 70.5003 113.747 66.7403 113.547 62.4703H130.247C130.647 64.5403 131.617 66.2503 133.147 67.6203C134.677 68.9903 136.777 69.6703 139.447 69.6703C142.577 69.6703 144.917 68.6703 146.447 66.6703C147.977 64.6703 148.747 62.0003 148.747 58.6703C148.747 55.3403 147.947 52.9003 146.347 51.1703C144.747 49.4403 142.417 48.5703 139.347 48.5703C137.077 48.5703 135.217 49.1203 133.747 50.2203C132.277 51.3203 131.317 52.7703 130.847 54.5703H114.347V11.0703H161.047V26.0703Z" fill="#A6843B" stroke="#A6843B" stroke-width="4" stroke-linecap="round" stroke-linejoin="round"/>
<path d="M24.0797 15.5598C28.4797 11.6898 34.4497 9.75977 41.9797 9.75977C46.9797 9.75977 51.2597 10.6298 54.8297 12.3598C58.3997 14.0898 61.0997 16.4598 62.9297 19.4598C64.7597 22.4598 65.6797 25.8298 65.6797 29.5598C65.6797 33.9598 64.5797 37.5398 62.3797 40.3098C60.1797 43.0798 57.6097 44.9598 54.6797 45.9598V46.3598C58.4797 47.6298 61.4797 49.7298 63.6797 52.6598C65.8797 55.5898 66.9797 59.3598 66.9797 63.9598C66.9797 68.0898 66.0297 71.7498 64.1297 74.9098C62.2297 78.0698 59.4597 80.5598 55.8297 82.3598C52.1997 84.1598 47.8797 85.0598 42.8797 85.0598C34.8797 85.0598 28.4997 83.0998 23.7297 79.1598C18.9597 75.2298 16.4497 69.2898 16.1797 61.3598H32.7797C32.8497 64.2898 33.6797 66.6098 35.2797 68.3098C36.8797 70.0098 39.2097 70.8598 42.2797 70.8598C44.8797 70.8598 46.8997 70.1098 48.3297 68.6098C49.7597 67.1098 50.4797 65.1298 50.4797 62.6598C50.4797 59.4598 49.4597 57.1398 47.4297 55.7098C45.3997 54.2798 42.1497 53.5598 37.6797 53.5598H34.4797V39.6598H37.6797C41.0797 39.6598 43.8297 39.0798 45.9297 37.9098C48.0297 36.7398 49.0797 34.6598 49.0797 31.6598C49.0797 29.2598 48.4097 27.3898 47.0797 26.0598C45.7497 24.7298 43.9097 24.0598 41.5797 24.0598C39.0497 24.0598 37.1597 24.8298 35.9297 26.3598C34.6997 27.8998 33.9797 29.7898 33.7797 32.0598H17.0797C17.3497 24.9298 19.6797 19.4298 24.0797 15.5598Z" fill="#A6843B" stroke="#A6843B" stroke-width="4" stroke-linecap="round" stroke-linejoin="round"/>
<path d="M81.3305 82.6097C79.4305 80.8397 78.4805 78.6597 78.4805 76.0597C78.4805 73.4597 79.4305 71.1597 81.3305 69.3597C83.2305 67.5597 85.6805 66.6597 88.6805 66.6597C91.6805 66.6597 94.0305 67.5597 95.9305 69.3597C97.8305 71.1597 98.7805 73.3997 98.7805 76.0597C98.7805 78.7197 97.8305 80.8497 95.9305 82.6097C94.0305 84.3797 91.6105 85.2597 88.6805 85.2597C85.7505 85.2597 83.2305 84.3797 81.3305 82.6097Z" fill="#A6843B" stroke="#A6843B" stroke-width="4" stroke-linecap="round" stroke-linejoin="round"/>
<path d="M160.578 26.3599H129.378V40.1599C130.708 38.6899 132.578 37.4899 134.978 36.5599C137.378 35.6299 139.978 35.1599 142.778 35.1599C147.778 35.1599 151.928 36.2899 155.228 38.5599C158.528 40.8299 160.948 43.7599 162.478 47.3599C164.008 50.9599 164.778 54.8599 164.778 59.0599C164.778 66.8599 162.578 73.0399 158.178 77.6099C153.778 82.1799 147.578 84.4599 139.578 84.4599C134.248 84.4599 129.608 83.5399 125.678 81.7099C121.748 79.8799 118.708 77.3299 116.578 74.0599C114.448 70.7899 113.278 67.0299 113.078 62.7599H129.778C130.178 64.8299 131.148 66.5399 132.678 67.9099C134.208 69.2799 136.308 69.9599 138.978 69.9599C142.108 69.9599 144.448 68.9599 145.978 66.9599C147.508 64.9599 148.278 62.2899 148.278 58.9599C148.278 55.6299 147.478 53.1899 145.878 51.4599C144.278 49.7299 141.948 48.8599 138.878 48.8599C136.608 48.8599 134.748 49.4099 133.278 50.5099C131.808 51.6099 130.848 53.0599 130.378 54.8599H113.878V11.3599H160.578V26.3599Z" fill="#A6843B" stroke="#A6843B" stroke-width="4" stroke-linecap="round" stroke-linejoin="round"/>
<path d="M23.6109 15.8601C28.0109 11.9901 33.9809 10.0601 41.5109 10.0601C46.5109 10.0601 50.7909 10.9301 54.3609 12.6601C57.9309 14.3901 60.6309 16.7601 62.4609 19.7601C64.2909 22.7601 65.2109 26.1301 65.2109 29.8601C65.2109 34.2601 64.1109 37.8401 61.9109 40.6101C59.7109 43.3801 57.1409 45.2601 54.2109 46.2601V46.6601C58.0109 47.9301 61.0109 50.0301 63.2109 52.9601C65.4109 55.8901 66.5109 59.6601 66.5109 64.2601C66.5109 68.3901 65.5609 72.0501 63.6609 75.2101C61.7609 78.3701 58.9909 80.8601 55.3609 82.6601C51.7309 84.4601 47.4109 85.3601 42.4109 85.3601C34.4109 85.3601 28.0309 83.4001 23.2609 79.4601C18.4909 75.5301 15.9809 69.5901 15.7109 61.6601H32.3109C32.3809 64.5901 33.2109 66.9101 34.8109 68.6101C36.4109 70.3101 38.7409 71.1601 41.8109 71.1601C44.4109 71.1601 46.4309 70.4101 47.8609 68.9101C49.2909 67.4101 50.0109 65.4301 50.0109 62.9601C50.0109 59.7601 48.9909 57.4401 46.9609 56.0101C44.9309 54.5801 41.6809 53.8601 37.2109 53.8601H34.0109V39.9601H37.2109C40.6109 39.9601 43.3609 39.3801 45.4609 38.2101C47.5609 37.0401 48.6109 34.9601 48.6109 31.9601C48.6109 29.5601 47.9409 27.6901 46.6109 26.3601C45.2809 25.0301 43.4409 24.3601 41.1109 24.3601C38.5809 24.3601 36.6909 25.1301 35.4609 26.6601C34.2309 28.2001 33.5109 30.0901 33.3109 32.3601H16.6109C16.8809 25.2301 19.2109 19.7301 23.6109 15.8601Z" fill="#A6843B" stroke="#A6843B" stroke-width="4" stroke-linecap="round" stroke-linejoin="round"/>
<path d="M80.8617 82.91C78.9617 81.14 78.0117 78.96 78.0117 76.36C78.0117 73.76 78.9617 71.46 80.8617 69.66C82.7617 67.86 85.2117 66.96 88.2117 66.96C91.2117 66.96 93.5617 67.86 95.4617 69.66C97.3617 71.46 98.3117 73.7 98.3117 76.36C98.3117 79.02 97.3617 81.15 95.4617 82.91C93.5617 84.68 91.1417 85.56 88.2117 85.56C85.2817 85.56 82.7617 84.68 80.8617 82.91Z" fill="#A6843B" stroke="#A6843B" stroke-width="4" stroke-linecap="round" stroke-linejoin="round"/>
<path d="M160.109 26.6602H128.909V40.4602C130.239 38.9902 132.109 37.7902 134.509 36.8602C136.909 35.9302 139.509 35.4602 142.309 35.4602C147.309 35.4602 151.459 36.5902 154.759 38.8602C158.059 41.1302 160.479 44.0602 162.009 47.6602C163.539 51.2602 164.309 55.1602 164.309 59.3602C164.309 67.1602 162.109 73.3402 157.709 77.9102C153.309 82.4802 147.109 84.7602 139.109 84.7602C133.779 84.7602 129.139 83.8402 125.209 82.0102C121.279 80.1802 118.239 77.6302 116.109 74.3602C113.979 71.0902 112.809 67.3302 112.609 63.0602H129.309C129.709 65.1302 130.679 66.8402 132.209 68.2102C133.739 69.5802 135.839 70.2602 138.509 70.2602C141.639 70.2602 143.979 69.2602 145.509 67.2602C147.039 65.2602 147.809 62.5902 147.809 59.2602C147.809 55.9302 147.009 53.4902 145.409 51.7602C143.809 50.0302 141.479 49.1602 138.409 49.1602C136.139 49.1602 134.279 49.7102 132.809 50.8102C131.339 51.9102 130.379 53.3602 129.909 55.1602H113.409V11.6602H160.109V26.6602Z" fill="#A6843B" stroke="#A6843B" stroke-width="4" stroke-linecap="round" stroke-linejoin="round"/>
<path d="M23.1383 16.1501C27.5383 12.2801 33.5083 10.3501 41.0383 10.3501C46.0383 10.3501 50.3183 11.2201 53.8883 12.9501C57.4583 14.6801 60.1583 17.0501 61.9883 20.0501C63.8183 23.0501 64.7383 26.4201 64.7383 30.1501C64.7383 34.5501 63.6383 38.1301 61.4383 40.9001C59.2383 43.6701 56.6683 45.5501 53.7383 46.5501V46.9501C57.5383 48.2201 60.5383 50.3201 62.7383 53.2501C64.9383 56.1801 66.0383 59.9501 66.0383 64.5501C66.0383 68.6801 65.0883 72.3401 63.1883 75.5001C61.2883 78.6601 58.5183 81.1501 54.8883 82.9501C51.2583 84.7501 46.9383 85.6501 41.9383 85.6501C33.9383 85.6501 27.5583 83.6901 22.7883 79.7501C18.0183 75.8201 15.5083 69.8801 15.2383 61.9501H31.8383C31.9083 64.8801 32.7383 67.2001 34.3383 68.9001C35.9383 70.6001 38.2683 71.4501 41.3383 71.4501C43.9383 71.4501 45.9583 70.7001 47.3883 69.2001C48.8183 67.7001 49.5383 65.7201 49.5383 63.2501C49.5383 60.0501 48.5183 57.7301 46.4883 56.3001C44.4583 54.8701 41.2083 54.1501 36.7383 54.1501H33.5383V40.2501H36.7383C40.1383 40.2501 42.8883 39.6701 44.9883 38.5001C47.0883 37.3301 48.1383 35.2501 48.1383 32.2501C48.1383 29.8501 47.4683 27.9801 46.1383 26.6501C44.8083 25.3201 42.9683 24.6501 40.6383 24.6501C38.1083 24.6501 36.2183 25.4201 34.9883 26.9501C33.7583 28.4901 33.0383 30.3801 32.8383 32.6501H16.1383C16.4083 25.5201 18.7383 20.0201 23.1383 16.1501Z" fill="#A6843B" stroke="#A6843B" stroke-width="4" stroke-linecap="round" stroke-linejoin="round"/>
<path d="M80.3891 83.2C78.4891 81.43 77.5391 79.25 77.5391 76.65C77.5391 74.05 78.4891 71.75 80.3891 69.95C82.2891 68.15 84.7391 67.25 87.7391 67.25C90.7391 67.25 93.0891 68.15 94.9891 69.95C96.8891 71.75 97.8391 73.99 97.8391 76.65C97.8391 79.31 96.8891 81.44 94.9891 83.2C93.0891 84.97 90.6691 85.85 87.7391 85.85C84.8091 85.85 82.2891 84.97 80.3891 83.2Z" fill="#A6843B" stroke="#A6843B" stroke-width="4" stroke-linecap="round" stroke-linejoin="round"/>
<path d="M159.637 26.9502H128.437V40.7502C129.767 39.2802 131.637 38.0802 134.037 37.1502C136.437 36.2202 139.037 35.7502 141.837 35.7502C146.837 35.7502 150.987 36.8802 154.287 39.1502C157.587 41.4202 160.007 44.3502 161.537 47.9502C163.067 51.5502 163.837 55.4502 163.837 59.6502C163.837 67.4502 161.637 73.6302 157.237 78.2002C152.837 82.7702 146.637 85.0502 138.637 85.0502C133.307 85.0502 128.667 84.1302 124.737 82.3002C120.807 80.4702 117.767 77.9202 115.637 74.6502C113.507 71.3802 112.337 67.6202 112.137 63.3502H128.837C129.237 65.4202 130.207 67.1302 131.737 68.5002C133.267 69.8702 135.367 70.5502 138.037 70.5502C141.167 70.5502 143.507 69.5502 145.037 67.5502C146.567 65.5502 147.337 62.8802 147.337 59.5502C147.337 56.2202 146.537 53.7802 144.937 52.0502C143.337 50.3202 141.007 49.4502 137.937 49.4502C135.667 49.4502 133.807 50.0002 132.337 51.1002C130.867 52.2002 129.907 53.6502 129.437 55.4502H112.937V11.9502H159.637V26.9502Z" fill="#A6843B" stroke="#A6843B" stroke-width="4" stroke-linecap="round" stroke-linejoin="round"/>
<path d="M22.6695 16.4499C27.0695 12.5799 33.0395 10.6499 40.5695 10.6499C45.5695 10.6499 49.8495 11.5199 53.4195 13.2499C56.9895 14.9799 59.6895 17.3499 61.5195 20.3499C63.3495 23.3499 64.2695 26.7199 64.2695 30.4499C64.2695 34.8499 63.1695 38.4299 60.9695 41.1999C58.7695 43.9699 56.1995 45.8499 53.2695 46.8499V47.2499C57.0695 48.5199 60.0695 50.6199 62.2695 53.5499C64.4695 56.4799 65.5695 60.2499 65.5695 64.8499C65.5695 68.9799 64.6195 72.6399 62.7195 75.7999C60.8195 78.9599 58.0495 81.4499 54.4195 83.2499C50.7895 85.0499 46.4695 85.9499 41.4695 85.9499C33.4695 85.9499 27.0895 83.9899 22.3195 80.0499C17.5495 76.1199 15.0395 70.1799 14.7695 62.2499H31.3695C31.4395 65.1799 32.2695 67.4999 33.8695 69.1999C35.4695 70.8999 37.7995 71.7499 40.8695 71.7499C43.4695 71.7499 45.4895 70.9999 46.9195 69.4999C48.3495 67.9999 49.0695 66.0199 49.0695 63.5499C49.0695 60.3499 48.0495 58.0299 46.0195 56.5999C43.9895 55.1699 40.7395 54.4499 36.2695 54.4499H33.0695V40.5499H36.2695C39.6695 40.5499 42.4195 39.9699 44.5195 38.7999C46.6195 37.6299 47.6695 35.5499 47.6695 32.5499C47.6695 30.1499 46.9995 28.2799 45.6695 26.9499C44.3395 25.6199 42.4995 24.9499 40.1695 24.9499C37.6395 24.9499 35.7495 25.7199 34.5195 27.2499C33.2895 28.7899 32.5695 30.6799 32.3695 32.9499H15.6695C15.9395 25.8199 18.2695 20.3199 22.6695 16.4499Z" fill="#A6843B" stroke="#A6843B" stroke-width="4" stroke-linecap="round" stroke-linejoin="round"/>
<path d="M79.9203 83.4998C78.0203 81.7298 77.0703 79.5498 77.0703 76.9498C77.0703 74.3498 78.0203 72.0498 79.9203 70.2498C81.8203 68.4498 84.2703 67.5498 87.2703 67.5498C90.2703 67.5498 92.6203 68.4498 94.5203 70.2498C96.4203 72.0498 97.3703 74.2898 97.3703 76.9498C97.3703 79.6098 96.4203 81.7398 94.5203 83.4998C92.6203 85.2698 90.2003 86.1498 87.2703 86.1498C84.3403 86.1498 81.8203 85.2698 79.9203 83.4998Z" fill="#A6843B" stroke="#A6843B" stroke-width="4" stroke-linecap="round" stroke-linejoin="round"/>
<path d="M159.168 27.25H127.968V41.05C129.298 39.58 131.168 38.38 133.568 37.45C135.968 36.52 138.568 36.05 141.368 36.05C146.368 36.05 150.518 37.18 153.818 39.45C157.118 41.72 159.538 44.65 161.068 48.25C162.598 51.85 163.368 55.75 163.368 59.95C163.368 67.75 161.168 73.93 156.768 78.5C152.368 83.07 146.168 85.35 138.168 85.35C132.838 85.35 128.198 84.43 124.268 82.6C120.338 80.77 117.298 78.22 115.168 74.95C113.038 71.68 111.868 67.92 111.668 63.65H128.368C128.768 65.72 129.738 67.43 131.268 68.8C132.798 70.17 134.898 70.85 137.568 70.85C140.698 70.85 143.038 69.85 144.568 67.85C146.098 65.85 146.868 63.18 146.868 59.85C146.868 56.52 146.068 54.08 144.468 52.35C142.868 50.62 140.538 49.75 137.468 49.75C135.198 49.75 133.338 50.3 131.868 51.4C130.398 52.5 129.438 53.95 128.968 55.75H112.468V12.25H159.168V27.25Z" fill="#A6843B" stroke="#A6843B" stroke-width="4" stroke-linecap="round" stroke-linejoin="round"/>
<path d="M22.2008 16.7399C26.6008 12.8699 32.5708 10.9399 40.1008 10.9399C45.1008 10.9399 49.3808 11.8099 52.9508 13.5399C56.5208 15.2699 59.2208 17.6399 61.0508 20.6399C62.8808 23.6399 63.8008 27.0099 63.8008 30.7399C63.8008 35.1399 62.7008 38.7199 60.5008 41.4899C58.3008 44.2599 55.7308 46.1399 52.8008 47.1399V47.5399C56.6008 48.8099 59.6008 50.9099 61.8008 53.8399C64.0008 56.7699 65.1008 60.5399 65.1008 65.1399C65.1008 69.2699 64.1508 72.9299 62.2508 76.0899C60.3508 79.2499 57.5808 81.7399 53.9508 83.5399C50.3208 85.3399 46.0008 86.2399 41.0008 86.2399C33.0008 86.2399 26.6208 84.2799 21.8508 80.3399C17.0808 76.4099 14.5708 70.4699 14.3008 62.5399H30.9008C30.9708 65.4699 31.8008 67.7899 33.4008 69.4899C35.0008 71.1899 37.3308 72.0399 40.4008 72.0399C43.0008 72.0399 45.0208 71.2899 46.4508 69.7899C47.8808 68.2899 48.6008 66.3099 48.6008 63.8399C48.6008 60.6399 47.5808 58.3199 45.5508 56.8899C43.5208 55.4599 40.2708 54.7399 35.8008 54.7399H32.6008V40.8399H35.8008C39.2008 40.8399 41.9508 40.2599 44.0508 39.0899C46.1508 37.9199 47.2008 35.8399 47.2008 32.8399C47.2008 30.4399 46.5308 28.5699 45.2008 27.2399C43.8708 25.9099 42.0308 25.2399 39.7008 25.2399C37.1708 25.2399 35.2808 26.0099 34.0508 27.5399C32.8208 29.0799 32.1008 30.9699 31.9008 33.2399H15.2008C15.4708 26.1099 17.8008 20.6099 22.2008 16.7399Z" fill="#A6843B" stroke="#A6843B" stroke-width="4" stroke-linecap="round" stroke-linejoin="round"/>
<path d="M79.4516 83.7898C77.5516 82.0198 76.6016 79.8398 76.6016 77.2398C76.6016 74.6398 77.5516 72.3398 79.4516 70.5398C81.3516 68.7398 83.8016 67.8398 86.8016 67.8398C89.8016 67.8398 92.1516 68.7398 94.0516 70.5398C95.9516 72.3398 96.9016 74.5798 96.9016 77.2398C96.9016 79.8998 95.9516 82.0298 94.0516 83.7898C92.1516 85.5598 89.7316 86.4398 86.8016 86.4398C83.8716 86.4398 81.3516 85.5598 79.4516 83.7898Z" fill="#A6843B" stroke="#A6843B" stroke-width="4" stroke-linecap="round" stroke-linejoin="round"/>
<path d="M158.699 27.54H127.499V41.34C128.829 39.87 130.699 38.67 133.099 37.74C135.499 36.81 138.099 36.34 140.899 36.34C145.899 36.34 150.049 37.47 153.349 39.74C156.649 42.01 159.069 44.94 160.599 48.54C162.129 52.14 162.899 56.04 162.899 60.24C162.899 68.04 160.699 74.22 156.299 78.79C151.899 83.36 145.699 85.64 137.699 85.64C132.369 85.64 127.729 84.72 123.799 82.89C119.869 81.06 116.829 78.51 114.699 75.24C112.569 71.97 111.399 68.21 111.199 63.94H127.899C128.299 66.01 129.269 67.72 130.799 69.09C132.329 70.46 134.429 71.14 137.099 71.14C140.229 71.14 142.569 70.14 144.099 68.14C145.629 66.14 146.399 63.47 146.399 60.14C146.399 56.81 145.599 54.37 143.999 52.64C142.399 50.91 140.069 50.04 136.999 50.04C134.729 50.04 132.869 50.59 131.399 51.69C129.929 52.79 128.969 54.24 128.499 56.04H111.999V12.54H158.699V27.54Z" fill="#A6843B" stroke="#A6843B" stroke-width="4" stroke-linecap="round" stroke-linejoin="round"/>
<path d="M21.7281 17.03C26.1281 13.16 32.0981 11.23 39.6281 11.23C44.6281 11.23 48.9081 12.1 52.4781 13.83C56.0481 15.56 58.7481 17.93 60.5781 20.93C62.4081 23.93 63.3281 27.3 63.3281 31.03C63.3281 35.43 62.2281 39.01 60.0281 41.78C57.8281 44.55 55.2581 46.43 52.3281 47.43V47.83C56.1281 49.1 59.1281 51.2 61.3281 54.13C63.5281 57.06 64.6281 60.83 64.6281 65.43C64.6281 69.56 63.6781 73.22 61.7781 76.38C59.8781 79.54 57.1081 82.03 53.4781 83.83C49.8481 85.63 45.5281 86.53 40.5281 86.53C32.5281 86.53 26.1481 84.57 21.3781 80.63C16.6081 76.7 14.0981 70.76 13.8281 62.83H30.4281C30.4981 65.76 31.3281 68.08 32.9281 69.78C34.5281 71.48 36.8581 72.33 39.9281 72.33C42.5281 72.33 44.5481 71.58 45.9781 70.08C47.4081 68.58 48.1281 66.6 48.1281 64.13C48.1281 60.93 47.1081 58.61 45.0781 57.18C43.0481 55.75 39.7981 55.03 35.3281 55.03H32.1281V41.13H35.3281C38.7281 41.13 41.4781 40.55 43.5781 39.38C45.6781 38.21 46.7281 36.13 46.7281 33.13C46.7281 30.73 46.0581 28.86 44.7281 27.53C43.3981 26.2 41.5581 25.53 39.2281 25.53C36.6981 25.53 34.8081 26.3 33.5781 27.83C32.3481 29.37 31.6281 31.26 31.4281 33.53H14.7281C14.9981 26.4 17.3281 20.9 21.7281 17.03Z" fill="#A6843B" stroke="#A6843B" stroke-width="4" stroke-linecap="round" stroke-linejoin="round"/>
<path d="M78.9789 84.0799C77.0789 82.3099 76.1289 80.1299 76.1289 77.5299C76.1289 74.9299 77.0789 72.6299 78.9789 70.8299C80.8789 69.0299 83.3289 68.1299 86.3289 68.1299C89.3289 68.1299 91.6789 69.0299 93.5789 70.8299C95.4789 72.6299 96.4289 74.8699 96.4289 77.5299C96.4289 80.1899 95.4789 82.3199 93.5789 84.0799C91.6789 85.8499 89.2589 86.7299 86.3289 86.7299C83.3989 86.7299 80.8789 85.8499 78.9789 84.0799Z" fill="#A6843B" stroke="#A6843B" stroke-width="4" stroke-linecap="round" stroke-linejoin="round"/>
<path d="M158.227 27.8301H127.027V41.6301C128.357 40.1601 130.227 38.9601 132.627 38.0301C135.027 37.1001 137.627 36.6301 140.427 36.6301C145.427 36.6301 149.577 37.7601 152.877 40.0301C156.177 42.3001 158.597 45.2301 160.127 48.8301C161.657 52.4301 162.427 56.3301 162.427 60.5301C162.427 68.3301 160.227 74.5101 155.827 79.0801C151.427 83.6501 145.227 85.9301 137.227 85.9301C131.897 85.9301 127.257 85.0101 123.327 83.1801C119.397 81.3501 116.357 78.8001 114.227 75.5301C112.097 72.2601 110.927 68.5001 110.727 64.2301H127.427C127.827 66.3001 128.797 68.0101 130.327 69.3801C131.857 70.7501 133.957 71.4301 136.627 71.4301C139.757 71.4301 142.097 70.4301 143.627 68.4301C145.157 66.4301 145.927 63.7601 145.927 60.4301C145.927 57.1001 145.127 54.6601 143.527 52.9301C141.927 51.2001 139.597 50.3301 136.527 50.3301C134.257 50.3301 132.397 50.8801 130.927 51.9801C129.457 53.0801 128.497 54.5301 128.027 56.3301H111.527V12.8301H158.227V27.8301Z" fill="#A6843B" stroke="#A6843B" stroke-width="4" stroke-linecap="round" stroke-linejoin="round"/>
<path d="M21.2594 17.3298C25.6594 13.4598 31.6294 11.5298 39.1594 11.5298C44.1594 11.5298 48.4394 12.3998 52.0094 14.1298C55.5794 15.8598 58.2794 18.2298 60.1094 21.2298C61.9394 24.2298 62.8594 27.5998 62.8594 31.3298C62.8594 35.7298 61.7594 39.3098 59.5594 42.0798C57.3594 44.8498 54.7894 46.7298 51.8594 47.7298V48.1298C55.6594 49.3998 58.6594 51.4998 60.8594 54.4298C63.0594 57.3598 64.1594 61.1298 64.1594 65.7298C64.1594 69.8598 63.2094 73.5198 61.3094 76.6798C59.4094 79.8398 56.6394 82.3298 53.0094 84.1298C49.3794 85.9298 45.0594 86.8298 40.0594 86.8298C32.0594 86.8298 25.6794 84.8698 20.9094 80.9298C16.1394 76.9998 13.6294 71.0598 13.3594 63.1298H29.9594C30.0294 66.0598 30.8594 68.3798 32.4594 70.0798C34.0594 71.7798 36.3894 72.6298 39.4594 72.6298C42.0594 72.6298 44.0794 71.8798 45.5094 70.3798C46.9394 68.8798 47.6594 66.8998 47.6594 64.4298C47.6594 61.2298 46.6394 58.9098 44.6094 57.4798C42.5794 56.0498 39.3294 55.3298 34.8594 55.3298H31.6594V41.4298H34.8594C38.2594 41.4298 41.0094 40.8498 43.1094 39.6798C45.2094 38.5098 46.2594 36.4298 46.2594 33.4298C46.2594 31.0298 45.5894 29.1598 44.2594 27.8298C42.9294 26.4998 41.0894 25.8298 38.7594 25.8298C36.2294 25.8298 34.3394 26.5998 33.1094 28.1298C31.8794 29.6698 31.1594 31.5598 30.9594 33.8298H14.2594C14.5294 26.6998 16.8594 21.1998 21.2594 17.3298Z" fill="#A6843B" stroke="#A6843B" stroke-width="4" stroke-linecap="round" stroke-linejoin="round"/>
<path d="M78.5102 84.3797C76.6102 82.6097 75.6602 80.4297 75.6602 77.8297C75.6602 75.2297 76.6102 72.9297 78.5102 71.1297C80.4102 69.3297 82.8602 68.4297 85.8602 68.4297C88.8602 68.4297 91.2102 69.3297 93.1102 71.1297C95.0102 72.9297 95.9602 75.1697 95.9602 77.8297C95.9602 80.4897 95.0102 82.6197 93.1102 84.3797C91.2102 86.1497 88.7902 87.0297 85.8602 87.0297C82.9302 87.0297 80.4102 86.1497 78.5102 84.3797Z" fill="#A6843B" stroke="#A6843B" stroke-width="4" stroke-linecap="round" stroke-linejoin="round"/>
<path d="M157.758 28.1299H126.558V41.9299C127.888 40.4599 129.758 39.2599 132.158 38.3299C134.558 37.3999 137.158 36.9299 139.958 36.9299C144.958 36.9299 149.108 38.0599 152.408 40.3299C155.708 42.5999 158.128 45.5299 159.658 49.1299C161.188 52.7299 161.958 56.6299 161.958 60.8299C161.958 68.6299 159.758 74.8099 155.358 79.3799C150.958 83.9499 144.758 86.2299 136.758 86.2299C131.428 86.2299 126.788 85.3099 122.858 83.4799C118.928 81.6499 115.888 79.0999 113.758 75.8299C111.628 72.5599 110.458 68.7999 110.258 64.5299H126.958C127.358 66.5999 128.328 68.3099 129.858 69.6799C131.388 71.0499 133.488 71.7299 136.158 71.7299C139.288 71.7299 141.628 70.7299 143.158 68.7299C144.688 66.7299 145.458 64.0599 145.458 60.7299C145.458 57.3999 144.658 54.9599 143.058 53.2299C141.458 51.4999 139.128 50.6299 136.058 50.6299C133.788 50.6299 131.928 51.1799 130.458 52.2799C128.988 53.3799 128.028 54.8299 127.558 56.6299H111.058V13.1299H157.758V28.1299Z" fill="#A6843B" stroke="#A6843B" stroke-width="4" stroke-linecap="round" stroke-linejoin="round"/>
<path d="M20.7906 17.6198C25.1906 13.7498 31.1606 11.8198 38.6906 11.8198C43.6906 11.8198 47.9706 12.6898 51.5406 14.4198C55.1106 16.1498 57.8106 18.5198 59.6406 21.5198C61.4706 24.5198 62.3906 27.8898 62.3906 31.6198C62.3906 36.0198 61.2906 39.5998 59.0906 42.3698C56.8906 45.1398 54.3206 47.0198 51.3906 48.0198V48.4198C55.1906 49.6898 58.1906 51.7898 60.3906 54.7198C62.5906 57.6498 63.6906 61.4198 63.6906 66.0198C63.6906 70.1498 62.7406 73.8098 60.8406 76.9698C58.9406 80.1298 56.1706 82.6198 52.5406 84.4198C48.9106 86.2198 44.5906 87.1198 39.5906 87.1198C31.5906 87.1198 25.2106 85.1598 20.4406 81.2198C15.6706 77.2898 13.1606 71.3498 12.8906 63.4198H29.4906C29.5606 66.3498 30.3906 68.6698 31.9906 70.3698C33.5906 72.0698 35.9206 72.9198 38.9906 72.9198C41.5906 72.9198 43.6106 72.1698 45.0406 70.6698C46.4706 69.1698 47.1906 67.1898 47.1906 64.7198C47.1906 61.5198 46.1706 59.1998 44.1406 57.7698C42.1106 56.3398 38.8606 55.6198 34.3906 55.6198H31.1906V41.7198H34.3906C37.7906 41.7198 40.5406 41.1398 42.6406 39.9698C44.7406 38.7998 45.7906 36.7198 45.7906 33.7198C45.7906 31.3198 45.1206 29.4498 43.7906 28.1198C42.4606 26.7898 40.6206 26.1198 38.2906 26.1198C35.7606 26.1198 33.8706 26.8898 32.6406 28.4198C31.4106 29.9598 30.6906 31.8498 30.4906 34.1198H13.7906C14.0606 26.9898 16.3906 21.4898 20.7906 17.6198Z" fill="#A6843B" stroke="#A6843B" stroke-width="4" stroke-linecap="round" stroke-linejoin="round"/>
<path d="M78.0414 84.6697C76.1414 82.8997 75.1914 80.7197 75.1914 78.1197C75.1914 75.5197 76.1414 73.2197 78.0414 71.4197C79.9414 69.6197 82.3914 68.7197 85.3914 68.7197C88.3914 68.7197 90.7414 69.6197 92.6414 71.4197C94.5414 73.2197 95.4914 75.4597 95.4914 78.1197C95.4914 80.7797 94.5414 82.9097 92.6414 84.6697C90.7414 86.4397 88.3214 87.3197 85.3914 87.3197C82.4614 87.3197 79.9414 86.4397 78.0414 84.6697Z" fill="#A6843B" stroke="#A6843B" stroke-width="4" stroke-linecap="round" stroke-linejoin="round"/>
<path d="M157.289 28.4199H126.089V42.2199C127.419 40.7499 129.289 39.5499 131.689 38.6199C134.089 37.6899 136.689 37.2199 139.489 37.2199C144.489 37.2199 148.639 38.3499 151.939 40.6199C155.239 42.8899 157.659 45.8199 159.189 49.4199C160.719 53.0199 161.489 56.9199 161.489 61.1199C161.489 68.9199 159.289 75.0999 154.889 79.6699C150.489 84.2399 144.289 86.5199 136.289 86.5199C130.959 86.5199 126.319 85.5999 122.389 83.7699C118.459 81.9399 115.419 79.3899 113.289 76.1199C111.159 72.8499 109.989 69.0899 109.789 64.8199H126.489C126.889 66.8899 127.859 68.5999 129.389 69.9699C130.919 71.3399 133.019 72.0199 135.689 72.0199C138.819 72.0199 141.159 71.0199 142.689 69.0199C144.219 67.0199 144.989 64.3499 144.989 61.0199C144.989 57.6899 144.189 55.2499 142.589 53.5199C140.989 51.7899 138.659 50.9199 135.589 50.9199C133.319 50.9199 131.459 51.4699 129.989 52.5699C128.519 53.6699 127.559 55.1199 127.089 56.9199H110.589V13.4199H157.289V28.4199Z" fill="#A6843B" stroke="#A6843B" stroke-width="4" stroke-linecap="round" stroke-linejoin="round"/>
<path d="M20.3219 17.9201C24.7219 14.0501 30.6919 12.1201 38.2219 12.1201C43.2219 12.1201 47.5019 12.9901 51.0719 14.7201C54.6419 16.4501 57.3419 18.8201 59.1719 21.8201C61.0019 24.8201 61.9219 28.1901 61.9219 31.9201C61.9219 36.3201 60.8219 39.9001 58.6219 42.6701C56.4219 45.4401 53.8519 47.3201 50.9219 48.3201V48.7201C54.7219 49.9901 57.7219 52.0901 59.9219 55.0201C62.1219 57.9501 63.2219 61.7201 63.2219 66.3201C63.2219 70.4501 62.2719 74.1101 60.3719 77.2701C58.4719 80.4301 55.7019 82.9201 52.0719 84.7201C48.4419 86.5201 44.1219 87.4201 39.1219 87.4201C31.1219 87.4201 24.7419 85.4601 19.9719 81.5201C15.2019 77.5901 12.6919 71.6501 12.4219 63.7201H29.0219C29.0919 66.6501 29.9219 68.9701 31.5219 70.6701C33.1219 72.3701 35.4519 73.2201 38.5219 73.2201C41.1219 73.2201 43.1419 72.4701 44.5719 70.9701C46.0019 69.4701 46.7219 67.4901 46.7219 65.0201C46.7219 61.8201 45.7019 59.5001 43.6719 58.0701C41.6419 56.6401 38.3919 55.9201 33.9219 55.9201H30.7219V42.0201H33.9219C37.3219 42.0201 40.0719 41.4401 42.1719 40.2701C44.2719 39.1001 45.3219 37.0201 45.3219 34.0201C45.3219 31.6201 44.6519 29.7501 43.3219 28.4201C41.9919 27.0901 40.1519 26.4201 37.8219 26.4201C35.2919 26.4201 33.4019 27.1901 32.1719 28.7201C30.9419 30.2601 30.2219 32.1501 30.0219 34.4201H13.3219C13.5919 27.2901 15.9219 21.7901 20.3219 17.9201Z" fill="#A6843B" stroke="#A6843B" stroke-width="4" stroke-linecap="round" stroke-linejoin="round"/>
<path d="M77.5727 84.97C75.6727 83.2 74.7227 81.02 74.7227 78.42C74.7227 75.82 75.6727 73.52 77.5727 71.72C79.4727 69.92 81.9227 69.02 84.9227 69.02C87.9227 69.02 90.2727 69.92 92.1727 71.72C94.0727 73.52 95.0227 75.76 95.0227 78.42C95.0227 81.08 94.0727 83.21 92.1727 84.97C90.2727 86.74 87.8527 87.62 84.9227 87.62C81.9927 87.62 79.4727 86.74 77.5727 84.97Z" fill="#A6843B" stroke="#A6843B" stroke-width="4" stroke-linecap="round" stroke-linejoin="round"/>
<path d="M156.82 28.7202H125.62V42.5202C126.95 41.0502 128.82 39.8502 131.22 38.9202C133.62 37.9902 136.22 37.5202 139.02 37.5202C144.02 37.5202 148.17 38.6502 151.47 40.9202C154.77 43.1902 157.19 46.1202 158.72 49.7202C160.25 53.3202 161.02 57.2202 161.02 61.4202C161.02 69.2202 158.82 75.4002 154.42 79.9702C150.02 84.5402 143.82 86.8202 135.82 86.8202C130.49 86.8202 125.85 85.9002 121.92 84.0702C117.99 82.2402 114.95 79.6902 112.82 76.4202C110.69 73.1502 109.52 69.3902 109.32 65.1202H126.02C126.42 67.1902 127.39 68.9002 128.92 70.2702C130.45 71.6402 132.55 72.3202 135.22 72.3202C138.35 72.3202 140.69 71.3202 142.22 69.3202C143.75 67.3202 144.52 64.6502 144.52 61.3202C144.52 57.9902 143.72 55.5502 142.12 53.8202C140.52 52.0902 138.19 51.2202 135.12 51.2202C132.85 51.2202 130.99 51.7702 129.52 52.8702C128.05 53.9702 127.09 55.4202 126.62 57.2202H110.12V13.7202H156.82V28.7202Z" fill="#A6843B" stroke="#A6843B" stroke-width="4" stroke-linecap="round" stroke-linejoin="round"/>
<path d="M19.8492 18.2102C24.2492 14.3402 30.2192 12.4102 37.7492 12.4102C42.7492 12.4102 47.0292 13.2802 50.5992 15.0102C54.1692 16.7402 56.8692 19.1102 58.6992 22.1102C60.5292 25.1102 61.4492 28.4802 61.4492 32.2102C61.4492 36.6102 60.3492 40.1902 58.1492 42.9602C55.9492 45.7302 53.3792 47.6102 50.4492 48.6102V49.0102C54.2492 50.2802 57.2492 52.3802 59.4492 55.3102C61.6492 58.2402 62.7492 62.0102 62.7492 66.6102C62.7492 70.7402 61.7992 74.4002 59.8992 77.5602C57.9992 80.7202 55.2292 83.2102 51.5992 85.0102C47.9692 86.8102 43.6492 87.7102 38.6492 87.7102C30.6492 87.7102 24.2692 85.7502 19.4992 81.8102C14.7292 77.8801 12.2192 71.9402 11.9492 64.0102H28.5492C28.6192 66.9402 29.4492 69.2602 31.0492 70.9602C32.6492 72.6602 34.9792 73.5102 38.0492 73.5102C40.6492 73.5102 42.6692 72.7602 44.0992 71.2602C45.5292 69.7602 46.2492 67.7802 46.2492 65.3102C46.2492 62.1102 45.2292 59.7902 43.1992 58.3602C41.1692 56.9302 37.9192 56.2102 33.4492 56.2102H30.2492V42.3102H33.4492C36.8492 42.3102 39.5992 41.7302 41.6992 40.5602C43.7992 39.3902 44.8492 37.3102 44.8492 34.3102C44.8492 31.9102 44.1792 30.0402 42.8492 28.7102C41.5192 27.3802 39.6792 26.7102 37.3492 26.7102C34.8192 26.7102 32.9292 27.4802 31.6992 29.0102C30.4692 30.5502 29.7492 32.4402 29.5492 34.7102H12.8492C13.1192 27.5802 15.4492 22.0802 19.8492 18.2102Z" fill="#A6843B" stroke="#A6843B" stroke-width="4" stroke-linecap="round" stroke-linejoin="round"/>
<path d="M77.1 85.2601C75.2 83.4901 74.25 81.3101 74.25 78.7101C74.25 76.1101 75.2 73.8101 77.1 72.0101C79 70.2101 81.45 69.3101 84.45 69.3101C87.45 69.3101 89.8 70.2101 91.7 72.0101C93.6 73.8101 94.55 76.0501 94.55 78.7101C94.55 81.3701 93.6 83.5001 91.7 85.2601C89.8 87.0301 87.38 87.9101 84.45 87.9101C81.52 87.9101 79 87.0301 77.1 85.2601Z" fill="#A6843B" stroke="#A6843B" stroke-width="4" stroke-linecap="round" stroke-linejoin="round"/>
<path d="M156.348 29.0103H125.148V42.8103C126.478 41.3403 128.348 40.1403 130.748 39.2103C133.148 38.2803 135.748 37.8103 138.548 37.8103C143.548 37.8103 147.698 38.9403 150.998 41.2103C154.298 43.4803 156.718 46.4103 158.248 50.0103C159.778 53.6103 160.548 57.5103 160.548 61.7103C160.548 69.5103 158.348 75.6903 153.948 80.2603C149.548 84.8303 143.348 87.1103 135.348 87.1103C130.018 87.1103 125.378 86.1903 121.448 84.3603C117.518 82.5303 114.478 79.9802 112.348 76.7103C110.218 73.4403 109.048 69.6803 108.848 65.4103H125.548C125.948 67.4803 126.918 69.1903 128.448 70.5602C129.978 71.9302 132.078 72.6103 134.748 72.6103C137.878 72.6103 140.218 71.6103 141.748 69.6103C143.278 67.6103 144.048 64.9403 144.048 61.6103C144.048 58.2803 143.248 55.8403 141.648 54.1103C140.048 52.3803 137.718 51.5103 134.648 51.5103C132.378 51.5103 130.518 52.0603 129.048 53.1603C127.578 54.2603 126.618 55.7103 126.148 57.5103H109.648V14.0103H156.348V29.0103Z" fill="#A6843B" stroke="#A6843B" stroke-width="4" stroke-linecap="round" stroke-linejoin="round"/>
<path d="M19.3805 18.5002C23.7805 14.6302 29.7505 12.7002 37.2805 12.7002C42.2805 12.7002 46.5605 13.5702 50.1305 15.3002C53.7005 17.0302 56.4005 19.4002 58.2305 22.4002C60.0605 25.4002 60.9805 28.7702 60.9805 32.5002C60.9805 36.9002 59.8805 40.4802 57.6805 43.2502C55.4805 46.0202 52.9105 47.9002 49.9805 48.9002V49.3002C53.7805 50.5702 56.7805 52.6702 58.9805 55.6002C61.1805 58.5302 62.2805 62.3002 62.2805 66.9002C62.2805 71.0302 61.3305 74.6902 59.4305 77.8502C57.5305 81.0102 54.7605 83.5002 51.1305 85.3002C47.5005 87.1002 43.1805 88.0002 38.1805 88.0002C30.1805 88.0002 23.8005 86.0402 19.0305 82.1002C14.2605 78.1702 11.7505 72.2302 11.4805 64.3002H28.0805C28.1505 67.2302 28.9805 69.5502 30.5805 71.2502C32.1805 72.9502 34.5105 73.8002 37.5805 73.8002C40.1805 73.8002 42.2005 73.0502 43.6305 71.5502C45.0605 70.0502 45.7805 68.0702 45.7805 65.6002C45.7805 62.4002 44.7605 60.0802 42.7305 58.6502C40.7005 57.2202 37.4505 56.5002 32.9805 56.5002H29.7805V42.6002H32.9805C36.3805 42.6002 39.1305 42.0202 41.2305 40.8502C43.3305 39.6802 44.3805 37.6002 44.3805 34.6002C44.3805 32.2002 43.7105 30.3302 42.3805 29.0002C41.0505 27.6702 39.2105 27.0002 36.8805 27.0002C34.3505 27.0002 32.4605 27.7702 31.2305 29.3002C30.0005 30.8402 29.2805 32.7302 29.0805 35.0002H12.3805C12.6505 27.8702 14.9805 22.3702 19.3805 18.5002Z" fill="#A6843B" stroke="#A6843B" stroke-width="4" stroke-linecap="round" stroke-linejoin="round"/>
<path d="M76.6195 85.5603C74.7195 83.7903 73.7695 81.6104 73.7695 79.0104C73.7695 76.4104 74.7195 74.1103 76.6195 72.3103C78.5195 70.5103 80.9695 69.6104 83.9695 69.6104C86.9695 69.6104 89.3195 70.5103 91.2195 72.3103C93.1195 74.1103 94.0695 76.3504 94.0695 79.0104C94.0695 81.6704 93.1195 83.8003 91.2195 85.5603C89.3195 87.3303 86.8995 88.2104 83.9695 88.2104C81.0395 88.2104 78.5195 87.3303 76.6195 85.5603Z" fill="#A6843B" stroke="#A6843B" stroke-width="4" stroke-linecap="round" stroke-linejoin="round"/>
<path d="M155.871 29.3101H124.671V43.1101C126.001 41.6401 127.871 40.4401 130.271 39.5101C132.671 38.5801 135.271 38.1101 138.071 38.1101C143.071 38.1101 147.221 39.2401 150.521 41.5101C153.821 43.7801 156.241 46.7101 157.771 50.3101C159.301 53.9101 160.071 57.8101 160.071 62.0101C160.071 69.8101 157.871 75.9901 153.471 80.5601C149.071 85.1301 142.871 87.4101 134.871 87.4101C129.541 87.4101 124.901 86.4901 120.971 84.6601C117.041 82.8301 114.001 80.2801 111.871 77.0101C109.741 73.7401 108.571 69.9801 108.371 65.7101H125.071C125.471 67.7801 126.441 69.4901 127.971 70.8601C129.501 72.2301 131.601 72.9101 134.271 72.9101C137.401 72.9101 139.741 71.9101 141.271 69.9101C142.801 67.9101 143.571 65.2401 143.571 61.9101C143.571 58.5801 142.771 56.1401 141.171 54.4101C139.571 52.6801 137.241 51.8101 134.171 51.8101C131.901 51.8101 130.041 52.3601 128.571 53.4601C127.101 54.5601 126.141 56.0101 125.671 57.8101H109.171V14.3101H155.871V29.3101Z" fill="#A6843B" stroke="#A6843B" stroke-width="4" stroke-linecap="round" stroke-linejoin="round"/>
<path d="M18.9 18.8C23.3 14.93 29.27 13 36.8 13C41.8 13 46.08 13.87 49.65 15.6C53.22 17.33 55.92 19.7 57.75 22.7C59.58 25.7 60.5 29.07 60.5 32.8C60.5 37.2 59.4 40.78 57.2 43.55C55 46.32 52.43 48.2 49.5 49.2V49.6C53.3 50.87 56.3 52.97 58.5 55.9C60.7 58.83 61.8 62.6 61.8 67.2C61.8 71.33 60.85 74.99 58.95 78.15C57.05 81.31 54.28 83.8 50.65 85.6C47.02 87.4 42.7 88.3 37.7 88.3C29.7 88.3 23.32 86.34 18.55 82.4C13.78 78.47 11.27 72.53 11 64.6H27.6C27.67 67.53 28.5 69.85 30.1 71.55C31.7 73.25 34.03 74.1 37.1 74.1C39.7 74.1 41.72 73.35 43.15 71.85C44.58 70.35 45.3 68.37 45.3 65.9C45.3 62.7 44.28 60.38 42.25 58.95C40.22 57.52 36.97 56.8 32.5 56.8H29.3V42.9H32.5C35.9 42.9 38.65 42.32 40.75 41.15C42.85 39.98 43.9 37.9 43.9 34.9C43.9 32.5 43.23 30.63 41.9 29.3C40.57 27.97 38.73 27.3 36.4 27.3C33.87 27.3 31.98 28.07 30.75 29.6C29.52 31.14 28.8 33.03 28.6 35.3H11.9C12.17 28.17 14.5 22.67 18.9 18.8Z" fill="#A6843B" stroke="#A6843B" stroke-width="4" stroke-linecap="round" stroke-linejoin="round"/>
<path d="M76.1508 85.8499C74.2508 84.0799 73.3008 81.8999 73.3008 79.2999C73.3008 76.6999 74.2508 74.3999 76.1508 72.5999C78.0508 70.7999 80.5008 69.8999 83.5008 69.8999C86.5008 69.8999 88.8508 70.7999 90.7508 72.5999C92.6508 74.3999 93.6008 76.6399 93.6008 79.2999C93.6008 81.9599 92.6508 84.0899 90.7508 85.8499C88.8508 87.6199 86.4308 88.4999 83.5008 88.4999C80.5708 88.4999 78.0508 87.6199 76.1508 85.8499Z" fill="#A6843B" stroke="#A6843B" stroke-width="4" stroke-linecap="round" stroke-linejoin="round"/>
<path d="M155.398 29.6001H124.198V43.4001C125.528 41.9301 127.398 40.7301 129.798 39.8001C132.198 38.8701 134.798 38.4001 137.598 38.4001C142.598 38.4001 146.748 39.5301 150.048 41.8001C153.348 44.0701 155.768 47.0001 157.298 50.6001C158.828 54.2001 159.598 58.1001 159.598 62.3001C159.598 70.1001 157.398 76.2801 152.998 80.8501C148.598 85.4201 142.398 87.7001 134.398 87.7001C129.068 87.7001 124.428 86.7801 120.498 84.9501C116.568 83.1201 113.528 80.5701 111.398 77.3001C109.268 74.0301 108.098 70.2701 107.898 66.0001H124.598C124.998 68.0701 125.968 69.7801 127.498 71.1501C129.028 72.5201 131.128 73.2001 133.798 73.2001C136.928 73.2001 139.268 72.2001 140.798 70.2001C142.328 68.2001 143.098 65.5301 143.098 62.2001C143.098 58.8701 142.298 56.4301 140.698 54.7001C139.098 52.9701 136.768 52.1001 133.698 52.1001C131.428 52.1001 129.568 52.6501 128.098 53.7501C126.628 54.8501 125.668 56.3001 125.198 58.1001H108.698V14.6001H155.398V29.6001Z" fill="#A6843B" stroke="#A6843B" stroke-width="4" stroke-linecap="round" stroke-linejoin="round"/>
<path d="M18.9 18.8C23.3 14.93 29.27 13 36.8 13C41.8 13 46.08 13.87 49.65 15.6C53.22 17.33 55.92 19.7 57.75 22.7C59.58 25.7 60.5 29.07 60.5 32.8C60.5 37.2 59.4 40.78 57.2 43.55C55 46.32 52.43 48.2 49.5 49.2V49.6C53.3 50.87 56.3 52.97 58.5 55.9C60.7 58.83 61.8 62.6 61.8 67.2C61.8 71.33 60.85 74.99 58.95 78.15C57.05 81.31 54.28 83.8 50.65 85.6C47.02 87.4 42.7 88.3 37.7 88.3C29.7 88.3 23.32 86.34 18.55 82.4C13.78 78.47 11.27 72.53 11 64.6H27.6C27.67 67.53 28.5 69.85 30.1 71.55C31.7 73.25 34.03 74.1 37.1 74.1C39.7 74.1 41.72 73.35 43.15 71.85C44.58 70.35 45.3 68.37 45.3 65.9C45.3 62.7 44.28 60.38 42.25 58.95C40.22 57.52 36.97 56.8 32.5 56.8H29.3V42.9H32.5C35.9 42.9 38.65 42.32 40.75 41.15C42.85 39.98 43.9 37.9 43.9 34.9C43.9 32.5 43.23 30.63 41.9 29.3C40.57 27.97 38.73 27.3 36.4 27.3C33.87 27.3 31.98 28.07 30.75 29.6C29.52 31.14 28.8 33.03 28.6 35.3H11.9C12.17 28.17 14.5 22.67 18.9 18.8Z" fill="white" stroke="#A6843B" stroke-width="4" stroke-linecap="round" stroke-linejoin="round"/>
<path d="M76.1508 85.8499C74.2508 84.0799 73.3008 81.8999 73.3008 79.2999C73.3008 76.6999 74.2508 74.3999 76.1508 72.5999C78.0508 70.7999 80.5008 69.8999 83.5008 69.8999C86.5008 69.8999 88.8508 70.7999 90.7508 72.5999C92.6508 74.3999 93.6008 76.6399 93.6008 79.2999C93.6008 81.9599 92.6508 84.0899 90.7508 85.8499C88.8508 87.6199 86.4308 88.4999 83.5008 88.4999C80.5708 88.4999 78.0508 87.6199 76.1508 85.8499Z" fill="white" stroke="#A6843B" stroke-width="4" stroke-linecap="round" stroke-linejoin="round"/>
<path d="M155.398 29.6001H124.198V43.4001C125.528 41.9301 127.398 40.7301 129.798 39.8001C132.198 38.8701 134.798 38.4001 137.598 38.4001C142.598 38.4001 146.748 39.5301 150.048 41.8001C153.348 44.0701 155.768 47.0001 157.298 50.6001C158.828 54.2001 159.598 58.1001 159.598 62.3001C159.598 70.1001 157.398 76.2801 152.998 80.8501C148.598 85.4201 142.398 87.7001 134.398 87.7001C129.068 87.7001 124.428 86.7801 120.498 84.9501C116.568 83.1201 113.528 80.5701 111.398 77.3001C109.268 74.0301 108.098 70.2701 107.898 66.0001H124.598C124.998 68.0701 125.968 69.7801 127.498 71.1501C129.028 72.5201 131.128 73.2001 133.798 73.2001C136.928 73.2001 139.268 72.2001 140.798 70.2001C142.328 68.2001 143.098 65.5301 143.098 62.2001C143.098 58.8701 142.298 56.4301 140.698 54.7001C139.098 52.9701 136.768 52.1001 133.698 52.1001C131.428 52.1001 129.568 52.6501 128.098 53.7501C126.628 54.8501 125.668 56.3001 125.198 58.1001H108.698V14.6001H155.398V29.6001Z" fill="white" stroke="#A6843B" stroke-width="4" stroke-linecap="round" stroke-linejoin="round"/>
</svg>
