<svg width="324" height="240" viewBox="0 0 324 240" fill="none" xmlns="http://www.w3.org/2000/svg">
<path d="M128.518 202.453C128.149 202.47 127.774 202.373 127.438 202.16C94.6272 181.06 91.9592 140.563 91.9313 140.159C91.8744 139.139 92.6535 138.273 93.6646 138.217C94.7113 138.168 95.55 138.939 95.6153 139.95C95.6335 140.337 98.2327 179.003 129.434 199.06C130.289 199.61 130.536 200.753 129.986 201.608C129.649 202.126 129.099 202.425 128.518 202.453Z" fill="#DCDDDD"/>
<path d="M157.102 206.068C156.619 206.091 156.126 205.92 155.747 205.559C114.316 166.158 115.609 125.343 115.686 123.629C115.735 122.612 116.607 121.831 117.613 121.872C118.63 121.921 119.419 122.774 119.371 123.799C119.351 124.311 118.191 164.768 158.284 202.9C159.023 203.606 159.051 204.768 158.345 205.507C158.001 205.867 157.551 206.055 157.094 206.077L157.102 206.068Z" fill="#DCDDDD"/>
<path d="M204.383 197.165C203.9 197.188 203.398 197.017 203.02 196.656C179.87 174.422 175.98 138.849 175.821 137.349C175.72 136.34 176.453 135.432 177.462 135.323C178.462 135.223 179.378 135.956 179.488 136.964C179.522 137.315 183.412 172.703 205.565 193.988C206.303 194.694 206.323 195.857 205.617 196.595C205.281 196.946 204.832 197.135 204.374 197.156L204.383 197.165Z" fill="#DCDDDD"/>
<path d="M180.98 201.663C180.47 201.687 179.95 201.5 179.561 201.104C144.168 164.328 144.584 121.358 144.59 120.926C144.613 119.911 145.456 119.104 146.471 119.118C147.486 119.141 148.301 119.975 148.278 120.999C148.272 121.413 147.928 162.916 182.217 198.545C182.922 199.279 182.897 200.444 182.164 201.148C181.826 201.473 181.402 201.643 180.971 201.663L180.98 201.663Z" fill="#DCDDDD"/>
<path d="M94.7776 88.0299C94.8867 90.3433 91.5304 91.3302 87.3263 91.5373C83.1222 91.7444 79.6795 91.0869 79.5704 88.7735C79.4613 86.4601 82.8176 85.4732 87.0217 85.2661C91.2174 85.0682 94.6685 85.7165 94.7776 88.0299Z" fill="#9A0036"/>
<path d="M182.844 83.6921C182.953 86.0055 179.597 86.9924 175.393 87.1995C171.197 87.3974 167.746 86.7491 167.637 84.4357C167.528 82.1223 170.884 81.1354 175.088 80.9283C179.292 80.7212 182.735 81.3787 182.844 83.6921Z" fill="#9A0036"/>
<path d="M96.4588 71.8708C94.8139 71.9483 93.3694 72.7217 92.3749 73.8794L95.7181 76.913C96.151 77.3069 96.1825 77.9754 95.7886 78.4083L92.755 81.7515C93.854 82.8104 95.3733 83.4352 97.0177 83.3488C100.193 83.1991 102.631 80.4923 102.482 77.3257C102.332 74.1503 99.625 71.7126 96.4584 71.862L96.4588 71.8708Z" fill="#4C4948"/>
<path d="M163.107 68.5866C161.462 68.6642 160.018 69.4375 159.023 70.5952L162.367 73.6288C162.799 74.0227 162.831 74.6912 162.437 75.1242L159.403 78.4673C160.502 79.5263 162.022 80.151 163.666 80.0647C166.842 79.9149 169.279 77.2082 169.13 74.0416C168.98 70.8662 166.273 68.4285 163.107 68.5778L163.107 68.5866Z" fill="#4C4948"/>
<path d="M151.109 82.3937C150.306 83.3043 150.389 84.6933 151.3 85.5054C151.309 85.5138 152.02 86.1856 152.492 87.23C130.213 94.672 113.467 90.8159 108.414 89.291C108.772 88.1016 109.475 87.3103 109.475 87.3103C110.306 86.4249 110.258 85.0254 109.372 84.1944C108.487 83.3635 107.088 83.4118 106.257 84.2973C105.996 84.5741 103.71 87.1326 103.798 90.8575C103.821 91.7292 104.361 92.5148 105.169 92.8381C105.736 93.067 114.997 96.7295 129.819 96.0306C137.225 95.6813 146.026 94.2436 155.822 90.7402C156.75 90.4056 157.342 89.4961 157.278 88.5118C157.023 84.7948 154.507 82.4715 154.212 82.2121C153.302 81.4087 151.913 81.4919 151.101 82.4029L151.109 82.3937Z" fill="#4C4948"/>
<path d="M35.5382 84.8201C34.3402 85.0265 33.5388 86.1662 33.7452 87.3643C33.9273 88.4224 33.8895 89.4908 33.6382 90.5165L30.8613 94.8173C30.087 95.4092 29.2244 95.8113 28.3414 95.9675C27.1434 96.1739 26.342 97.3136 26.5484 98.5117C26.7414 99.6133 27.7299 100.387 28.8206 100.335C28.9086 100.331 29.0053 100.326 29.1013 100.304C31.8643 99.8213 34.436 98.0868 36.1582 95.5372C37.9467 92.8963 38.6258 89.7259 38.0823 86.6132C37.876 85.4151 36.7362 84.6138 35.5382 84.8201Z" fill="#4C4948"/>
<path d="M307.954 169.034C307.829 168.81 295.844 147.786 267.008 157.891C266.609 155.027 265.739 150.413 263.956 145.684C268.03 144.602 271.682 143.142 274.419 141.188C282.163 135.657 281.126 129.923 279.824 126.996C278.266 123.499 274.969 120.886 271.013 119.997C263.377 118.286 244.455 112.954 227.568 99.3988C227.566 99.3636 227.565 99.3284 227.545 99.294C220.896 76.9954 206.989 60.0816 187.323 50.3862C174.308 43.9651 159.333 41.048 144.011 41.7794C143.823 40.0252 143.798 38.9508 144.237 37.978C144.923 36.4382 145.75 35.8526 148.769 36.486C158.376 38.5102 164.037 34.2409 166.135 29.5666C168.608 24.0548 166.66 17.4997 161.39 13.6225C151.782 6.5382 140.942 11.6512 135.417 16.1961C129.718 12.1717 118.84 8.08288 109.933 16.0491C105.06 20.4046 103.737 27.1141 106.709 32.3691C109.238 36.8252 115.276 40.5516 124.65 37.6235C127.604 36.7084 128.474 37.2051 129.302 38.6824C129.908 39.7645 129.915 41.0425 129.868 43.3985C129.869 43.4337 129.871 43.4689 129.872 43.4953C129.217 43.6231 128.561 43.7334 127.907 43.8789C106.883 48.3966 88.4216 59.3964 75.9089 74.8409C73.8679 77.3614 72.0082 79.988 70.3106 82.6864C66.0104 82.5365 61.6336 82.0729 57.0223 81.3119C57.198 79.0556 56.6537 76.8597 55.4022 74.9969C53.9234 72.801 51.5911 71.2008 48.8345 70.5109C43.9278 69.2789 38.8878 71.9497 36.6846 76.6378C35.1145 76.2446 34.0549 76.0213 33.1753 75.8776C29.9961 75.384 27.4566 75.1864 23.6949 77.1093C20.8112 78.5853 13.7258 86.113 17.7033 96.0546C23.6998 111.049 56.2153 128.505 57.5989 129.242C57.8974 129.404 58.209 129.469 58.5269 129.48C58.6634 132.374 58.9163 135.307 59.3116 138.268C59.5065 139.784 64.409 175.697 91.8297 201.018C109.536 217.365 132.77 225.887 160.887 226.351C163.578 226.391 166.689 226.368 170.163 226.204C179.496 225.764 191.419 224.355 204.668 220.777C205.042 220.671 205.312 220.606 205.451 220.573C205.513 220.57 205.574 220.549 205.635 220.538C206.105 220.419 217.212 217.603 230.468 211.371C247.709 203.267 260.006 193.537 267.047 182.441C273.734 183.853 299.005 187.907 307.982 171.13C308.33 170.47 308.328 169.686 307.971 169.033L307.954 169.034ZM133.132 36.527C130.179 31.2976 125.027 32.9069 123.333 33.4364C114.68 36.1366 111.347 31.6479 110.53 30.2142C108.579 26.7799 109.54 22.3091 112.857 19.3494C122.221 10.9825 133.603 20.3457 134.08 20.7464C134.943 21.4726 136.219 21.4301 137.029 20.6514C137.501 20.1971 148.617 9.71123 158.763 17.1845C162.343 19.819 163.713 24.1799 162.102 27.7821C161.424 29.2863 158.528 34.0687 149.66 32.1949C147.923 31.8272 142.643 30.7186 140.195 36.1939C139.334 38.1299 139.379 40.0055 139.6 42.0844C137.827 42.2474 136.048 42.4811 134.271 42.7412C134.306 40.4828 134.238 38.4848 133.123 36.5187L133.132 36.527ZM42.5506 114.85C31.151 106.978 23.9684 99.9201 21.7703 94.4347C18.6923 86.7427 24.6717 81.5592 25.6789 81.0445C28.3388 79.6848 29.8445 79.8342 32.4822 80.2476C33.6013 80.424 35.171 80.8084 36.5631 81.1659L36.9467 81.2624C37.1188 81.3601 37.2901 81.4402 37.4865 81.4926C38.6642 81.7897 39.8646 81.0719 40.1616 79.8943C41.0747 76.2632 44.4752 73.9695 47.7406 74.794C49.4359 75.2254 50.8558 76.1722 51.7281 77.4711C52.6192 78.7955 52.8707 80.3881 52.4469 82.0566C52.3206 82.5562 52.3886 83.0643 52.5857 83.5046C52.7168 84.4153 53.4058 85.1938 54.3658 85.3601C59.0427 86.2062 63.4576 86.7297 67.7981 86.9835C61.686 98.3265 58.5224 111.065 58.416 124.699C55.8089 123.252 49.3582 119.563 42.5423 114.86L42.5506 114.85ZM266.528 177.802C265.582 177.555 264.579 177.973 264.09 178.816C249.047 204.35 206.868 215.666 204.639 216.247C204.429 216.284 204.133 216.368 203.516 216.538C185.827 221.304 170.605 222.119 160.954 221.966C133.949 221.529 111.693 213.393 94.8164 197.8C68.6031 173.595 63.7281 138.077 63.6755 137.709C60.5957 114.837 66.0072 94.0587 79.3284 77.6241C91.2075 62.95 108.796 52.5026 128.833 48.1901C148.626 43.9332 168.706 46.1246 185.385 54.3389C202.813 62.9321 215.448 77.5697 222.131 96.8253C221.951 96.9396 221.772 97.0715 221.621 97.2373C220.818 98.1567 220.919 99.5448 221.829 100.339C240.152 116.313 261.659 122.404 270.052 124.283C272.662 124.865 274.813 126.545 275.8 128.772C276.303 129.904 277.831 133.331 271.861 137.598C260.006 146.064 226.405 144.096 226.069 144.077C224.858 144.002 223.808 144.924 223.733 146.135C223.658 147.346 224.58 148.396 225.792 148.471C225.968 148.48 226.649 148.519 227.709 148.566C228.603 157.234 231.089 166.39 240.397 172.343C239.072 172.476 237.54 172.53 235.765 172.464C234.546 172.416 233.534 173.372 233.494 174.59C233.455 175.809 234.402 176.822 235.62 176.861C236.812 176.902 237.949 176.893 239.031 176.842C244.687 176.575 248.767 175.06 251.186 172.328C253.848 169.319 253.43 166.06 253.369 165.701C253.291 165.176 253.013 164.695 252.609 164.353C246.697 159.395 243.449 154.074 242.922 148.51C242.993 148.506 243.063 148.503 243.133 148.5C248.394 148.252 254.204 147.713 259.62 146.655C262.424 153.77 262.941 161.001 262.945 161.08C262.996 161.783 263.37 162.426 263.969 162.795C264.569 163.172 265.312 163.234 265.961 162.974C289.665 153.402 300.762 166.261 303.447 170.119C294.215 184.65 266.813 177.859 266.527 177.784L266.528 177.802ZM238.513 148.673C239.044 155.26 242.562 161.442 248.999 167.071C248.921 167.656 248.663 168.55 247.893 169.424C247.55 169.81 247.085 170.22 246.459 170.602C237.753 166.764 233.517 160.299 232.167 148.691C234.011 148.718 236.162 148.723 238.522 148.673L238.513 148.673Z" fill="#4C4948"/>
<path d="M94.8066 197.801C111.692 213.393 133.947 221.521 160.944 221.967C170.596 222.129 185.818 221.314 203.506 216.539C204.124 216.369 204.42 216.293 204.629 216.248C206.031 215.882 223.242 211.262 239.568 201.536C232.152 200.36 215.312 194.534 205.977 166.306C193.753 129.38 176.201 117.416 176.201 117.416C176.201 117.416 149.651 94.1081 107.688 108.482C76.6729 119.104 71.5612 148.296 71.0021 162.797C75.6722 173.967 83.11 186.998 94.7974 197.793L94.8066 197.801ZM177.469 135.332C178.47 135.232 179.386 135.964 179.495 136.973C179.529 137.324 183.42 172.712 205.572 193.997C206.311 194.703 206.33 195.866 205.625 196.604C205.289 196.955 204.839 197.144 204.382 197.165C203.898 197.188 203.396 197.018 203.018 196.656C179.868 174.422 175.978 138.849 175.819 137.349C175.719 136.34 176.452 135.433 177.46 135.323L177.469 135.332ZM144.587 120.935C144.61 119.92 145.453 119.113 146.468 119.127C147.482 119.15 148.298 119.984 148.275 121.008C148.268 121.423 147.925 162.925 182.214 198.554C182.919 199.288 182.894 200.453 182.161 201.158C181.823 201.482 181.399 201.652 180.968 201.672C180.458 201.696 179.938 201.509 179.549 201.113C144.157 164.337 144.572 121.368 144.578 120.935L144.587 120.935ZM115.684 123.638C115.733 122.622 116.605 121.84 117.612 121.881C118.628 121.93 119.417 122.783 119.369 123.808C119.349 124.32 118.189 164.777 158.282 202.909C159.021 203.615 159.049 204.778 158.343 205.516C157.999 205.876 157.549 206.065 157.092 206.086C156.608 206.109 156.115 205.938 155.737 205.577C114.305 166.177 115.598 125.361 115.676 123.647L115.684 123.638ZM93.6716 138.217C94.7184 138.168 95.557 138.939 95.6223 139.95C95.6405 140.337 98.2397 179.003 129.441 199.06C130.296 199.61 130.543 200.753 129.993 201.608C129.656 202.126 129.106 202.425 128.525 202.453C128.156 202.47 127.781 202.373 127.445 202.16C94.6342 181.06 91.9662 140.563 91.9384 140.159C91.8814 139.139 92.6605 138.273 93.6716 138.217Z" fill="white"/>
<path d="M54.3744 85.3513C53.414 85.1762 52.7254 84.4065 52.5943 83.4958C52.3972 83.0555 52.3296 82.5562 52.4555 82.0478C52.8789 80.3705 52.6279 78.7867 51.7367 77.4623C50.8644 76.1634 49.4445 75.2166 47.7492 74.7852C44.4838 73.9607 41.0833 76.2544 40.1703 79.8855C39.8732 81.0632 38.6816 81.7805 37.4951 81.4839C37.2987 81.4314 37.1187 81.3517 36.9554 81.2537L36.5717 81.1571C35.1796 80.7996 33.6095 80.4065 32.4908 80.2388C29.8447 79.8347 28.339 79.6853 25.6875 81.0357C24.6803 81.5504 18.7005 86.7251 21.7789 94.4259C23.9682 99.9118 31.16 106.978 42.5593 114.842C49.3752 119.545 55.8259 123.234 58.433 124.681C58.5394 111.047 61.703 98.3086 67.8151 86.9655C63.4746 86.7118 59.0597 86.1883 54.3828 85.3421L54.3744 85.3513ZM36.1651 95.5282C34.4429 98.0778 31.8712 99.8124 29.1082 100.295C29.0119 100.309 28.9243 100.322 28.8275 100.326C27.7368 100.378 26.7487 99.6132 26.5553 98.5027C26.3489 97.3047 27.1503 96.1649 28.3483 95.9586C29.2313 95.8023 30.0939 95.4002 30.8682 94.8083L33.6451 90.5075C33.8965 89.4819 33.9342 88.4134 33.7521 87.3553C33.5457 86.1573 34.3471 85.0175 35.5451 84.8112C36.7431 84.6048 37.8829 85.4062 38.0892 86.6042C38.6332 89.7257 37.954 92.8961 36.1651 95.5282Z" fill="#CFD4E0"/>
<path d="M264.093 178.825C264.591 177.982 265.585 177.565 266.531 177.811C266.817 177.886 294.227 184.677 303.451 170.146C300.765 166.279 289.668 153.429 265.965 163.001C265.307 163.261 264.572 163.199 263.973 162.822C263.373 162.444 262.991 161.81 262.949 161.107C262.945 161.028 262.428 153.805 259.624 146.682C254.217 147.74 248.397 148.279 243.137 148.527C243.067 148.53 242.997 148.533 242.926 148.537C243.453 154.101 246.701 159.422 252.612 164.38C253.016 164.722 253.295 165.203 253.372 165.728C253.425 166.087 253.852 169.346 251.19 172.355C248.771 175.087 244.691 176.602 239.035 176.868C237.953 176.919 236.816 176.929 235.624 176.888C234.405 176.849 233.458 175.827 233.498 174.617C233.538 173.399 234.559 172.442 235.769 172.491C237.544 172.549 239.076 172.503 240.4 172.37C231.101 166.417 228.615 157.26 227.713 148.593C226.653 148.546 225.972 148.507 225.796 148.498C224.584 148.423 223.662 147.382 223.737 146.162C223.812 144.951 224.853 144.029 226.073 144.104C226.409 144.123 260.001 146.092 271.865 137.624C277.835 133.358 276.306 129.93 275.804 128.799C274.808 126.572 272.657 124.893 270.056 124.31C261.663 122.431 240.156 116.34 221.833 100.366C220.914 99.5633 220.822 98.1748 221.625 97.2642C221.776 97.0896 221.946 96.9581 222.135 96.8523C215.462 77.605 202.817 62.959 185.389 54.3658C168.709 46.1428 148.63 43.9601 128.837 48.217C108.799 52.5208 91.2113 62.9769 79.3322 77.651C66.0198 94.0852 60.6083 114.863 63.6793 137.736C63.7065 137.938 65.2214 148.939 71.0249 162.832C71.5841 148.33 76.687 119.139 107.711 108.516C149.666 94.1517 176.224 117.451 176.224 117.451C176.224 117.451 193.776 129.415 206 166.34C215.344 194.559 232.183 200.386 239.6 201.57C249.221 195.835 258.529 188.326 264.112 178.859L264.093 178.825ZM87.3397 91.5459C83.1444 91.7526 79.693 91.0955 79.5839 88.7821C79.4748 86.4687 82.8311 85.4818 87.0352 85.2747C91.2393 85.0676 94.682 85.7251 94.7911 88.0385C94.9002 90.3519 91.5439 91.3388 87.3397 91.5459ZM97.0299 83.3576C95.385 83.4352 93.8661 82.8192 92.7671 81.7602L95.8007 78.4171C96.1947 77.9842 96.1631 77.3156 95.7302 76.9217L92.3871 73.8881C93.3815 72.7305 94.8261 71.9571 96.471 71.8795C99.6464 71.7298 102.344 74.1679 102.494 77.3433C102.644 80.5187 100.206 83.2166 97.0303 83.3664L97.0299 83.3576ZM155.835 90.7401C146.038 94.2435 137.237 95.6811 129.831 96.0304C115.019 96.7289 105.757 93.0752 105.182 92.8379C104.373 92.5058 103.834 91.729 103.81 90.8573C103.714 87.1328 106.009 84.5827 106.269 84.2971C107.1 83.4116 108.491 83.3637 109.385 84.1943C110.27 85.0253 110.318 86.4159 109.488 87.3102C109.488 87.3102 108.784 88.1015 108.426 89.2908C113.479 90.8157 130.226 94.6806 152.504 87.2298C152.032 86.1766 151.321 85.5136 151.312 85.5053C150.402 84.7019 150.318 83.3041 151.121 82.3935C151.925 81.4829 153.323 81.3993 154.233 82.2027C154.518 82.4537 157.035 84.7858 157.298 88.5024C157.362 89.4867 156.771 90.405 155.843 90.7309L155.835 90.7401ZM159.426 78.4756L162.46 75.1325C162.854 74.6995 162.822 74.031 162.389 73.6371L159.046 70.6035C160.041 69.4458 161.485 68.6725 163.13 68.5949C166.305 68.4451 169.003 70.8833 169.153 74.0587C169.303 77.2341 166.865 79.932 163.689 80.0818C162.044 80.1593 160.526 79.5433 159.427 78.4844L159.426 78.4756ZM175.406 87.2076C171.211 87.4143 167.76 86.7572 167.651 84.4438C167.541 82.1305 170.898 81.1435 175.102 80.9364C179.297 80.7298 182.749 81.3869 182.858 83.7002C182.967 86.0136 179.611 87.0006 175.406 87.2076Z" fill="#CFD4E0"/>
<path d="M149.667 32.1864C158.536 34.0602 161.431 29.2778 162.11 27.7736C163.729 24.171 162.351 19.8105 158.771 17.1759C148.624 9.69392 137.509 20.1886 137.037 20.6429C136.227 21.4215 134.951 21.4729 134.088 20.7378C133.611 20.3372 122.22 10.9744 112.864 19.3408C109.548 22.3006 108.595 26.771 110.538 30.2057C111.355 31.6394 114.687 36.1281 123.341 33.4279C125.035 32.8984 130.187 31.2978 133.139 36.5185C134.246 38.4851 134.323 40.4827 134.288 42.7411C136.065 42.481 137.844 42.2472 139.617 42.0843C139.404 40.005 139.351 38.121 140.212 36.1938C142.66 30.7096 147.94 31.827 149.676 32.1948L149.667 32.1864Z" fill="white"/>
</svg>
