<svg width="32" height="32" viewBox="0 0 32 32" fill="none" xmlns="http://www.w3.org/2000/svg">
<g clip-path="url(#clip0_308_1732)">
<circle cx="16" cy="16" r="16" fill="#DC5064"/>
<rect x="8" y="8" width="16" height="16" rx="4" fill="white"/>
<path d="M21 16C21 18.7614 18.7614 21 16 21C13.2386 21 11 18.7614 11 16C11 13.2386 13.2386 11 16 11C18.7614 11 21 13.2386 21 16ZM13 16C13 17.6569 14.3431 19 16 19C17.6569 19 19 17.6569 19 16C19 14.3431 17.6569 13 16 13C14.3431 13 13 14.3431 13 16Z" fill="#DC5064"/>
<circle cx="21" cy="11" r="1" fill="#DC5064"/>
</g>
<defs>
<clipPath id="clip0_308_1732">
<rect width="32" height="32" fill="white"/>
</clipPath>
</defs>
</svg>
