<svg width="94" height="32" viewBox="0 0 94 32" fill="none" xmlns="http://www.w3.org/2000/svg">
<g clip-path="url(#clip0_2011_29501)">
<path d="M89.299 1.05859H4.69896C2.31953 1.05859 0.390625 2.9875 0.390625 5.36693V27.3003C0.390625 29.6797 2.31953 31.6086 4.69896 31.6086H89.299C91.6784 31.6086 93.6073 29.6797 93.6073 27.3003V5.36693C93.6073 2.9875 91.6784 1.05859 89.299 1.05859Z" fill="black"/>
<path d="M89.299 1.05859H4.69896C2.31953 1.05859 0.390625 2.9875 0.390625 5.36693V27.3003C0.390625 29.6797 2.31953 31.6086 4.69896 31.6086H89.299C91.6784 31.6086 93.6073 29.6797 93.6073 27.3003V5.36693C93.6073 2.9875 91.6784 1.05859 89.299 1.05859Z" stroke="#A6A6A6" stroke-width="1.3"/>
<path d="M19.3508 16.9314C19.3603 16.2108 19.5564 15.5043 19.9208 14.8776C20.2851 14.2508 20.8059 13.7242 21.4347 13.3468C21.0352 12.7898 20.5083 12.3314 19.8956 12.008C19.2829 11.6847 18.6015 11.5052 17.9053 11.484C16.4204 11.3318 14.9808 12.3515 14.2241 12.3515C13.4528 12.3515 12.2877 11.4991 11.0331 11.5243C10.2216 11.5499 9.43076 11.7803 8.73759 12.193C8.04441 12.6057 7.47254 13.1867 7.07773 13.8793C5.36755 16.7702 6.6432 21.0187 8.28145 23.3554C9.10105 24.4996 10.059 25.7778 11.3125 25.7324C12.539 25.6828 12.9971 24.9688 14.4777 24.9688C15.9446 24.9688 16.3744 25.7324 17.6533 25.7036C18.9694 25.6828 19.7986 24.5543 20.5896 23.3993C21.1785 22.584 21.6316 21.6828 21.9323 20.7294C21.1676 20.4136 20.5151 19.8851 20.056 19.2097C19.5969 18.5343 19.3517 17.742 19.3508 16.9314Z" fill="white"/>
<path d="M16.9353 9.94716C17.653 9.10609 18.0066 8.02505 17.9209 6.93359C16.8246 7.04602 15.8118 7.5576 15.0845 8.3664C14.7288 8.7615 14.4565 9.22116 14.283 9.71913C14.1094 10.2171 14.0381 10.7436 14.0731 11.2684C14.6215 11.2739 15.164 11.1579 15.6598 10.929C16.1556 10.7002 16.5917 10.3644 16.9353 9.94716Z" fill="white"/>
<path d="M28.8203 7.32622H30.4417C31.8427 7.32622 32.5243 8.15928 32.5243 9.67045C32.5243 11.1817 31.8358 12.0251 30.4417 12.0251H28.8203V7.32622ZM29.6018 7.98372V11.3675H30.3556C31.2851 11.3675 31.7223 10.8064 31.7223 9.68079C31.7223 8.54825 31.2816 7.98372 30.3556 7.98372H29.6018ZM34.996 8.32451C35.9461 8.32451 36.6104 8.9407 36.6104 9.9631V10.4347C36.6104 11.4915 35.9461 12.087 34.996 12.087C34.0321 12.087 33.3746 11.4984 33.3746 10.4381V9.96655C33.3746 8.97172 34.0424 8.32451 34.996 8.32451ZM34.9994 8.9407C34.4555 8.9407 34.1457 9.39511 34.1457 10.0044V10.4106C34.1457 11.0199 34.4349 11.4709 34.9994 11.4709C35.5571 11.4709 35.8428 11.0233 35.8428 10.4106V10.0044C35.8428 9.39511 35.5433 8.9407 34.9994 8.9407ZM42.2215 8.38647L41.2645 12.0251H40.4866L39.7258 9.34004H39.7051L38.9581 12.0251H38.1768L37.1784 8.38647H38.0011L38.5864 11.1611H38.6208L39.354 8.38647H40.0734L40.8273 11.1611H40.8618L41.4573 8.38647H42.2215ZM42.9788 12.0251V8.38647H43.7293V9.04049H43.7672C43.8601 8.75481 44.1252 8.3314 44.8618 8.3314C45.5951 8.3314 46.0873 8.73758 46.0873 9.56721V12.0251H45.3231V9.79093C45.3231 9.23672 45.034 8.98198 44.6036 8.98198C44.0391 8.98198 43.743 9.41571 43.743 10.0044V12.0251H42.9788ZM47.2439 12.0251V7.07837H48.0081V12.0251H47.2439ZM50.6313 8.32451C51.5814 8.32451 52.2457 8.9407 52.2457 9.9631V10.4347C52.2457 11.4915 51.5814 12.087 50.6313 12.087C49.6674 12.087 49.0099 11.4984 49.0099 10.4381V9.96655C49.0099 8.97172 49.6777 8.32451 50.6313 8.32451ZM50.6347 8.9407C50.0908 8.9407 49.781 9.39511 49.781 10.0044V10.4106C49.781 11.0199 50.0702 11.4709 50.6347 11.4709C51.1924 11.4709 51.4781 11.0233 51.4781 10.4106V10.0044C51.4781 9.39511 51.1786 8.9407 50.6347 8.9407ZM54.2251 12.0801C53.5194 12.0801 53.034 11.6464 53.034 10.9683C53.034 10.3245 53.4815 9.8908 54.3215 9.8908H55.2406V9.54997C55.2406 9.13348 54.9756 8.93725 54.5556 8.93725C54.1425 8.93725 53.9566 9.10935 53.8981 9.3503H53.1717C53.2165 8.74103 53.6743 8.3314 54.5797 8.3314C55.3577 8.3314 56.0014 8.65502 56.0014 9.56031V12.0251H55.275V11.5534H55.2406C55.0788 11.8323 54.7621 12.0801 54.2251 12.0801ZM54.4627 11.4881C54.8964 11.4881 55.2406 11.192 55.2406 10.7962V10.4037H54.442C53.9979 10.4037 53.8017 10.6274 53.8017 10.9304C53.8017 11.309 54.1184 11.4881 54.4627 11.4881ZM58.356 8.33828C58.8689 8.33828 59.2614 8.56548 59.4024 8.9338H59.4403V7.07837H60.2046V12.0251H59.4609V11.4433H59.4231C59.313 11.8116 58.8758 12.0732 58.3456 12.0732C57.5091 12.0732 56.9652 11.4778 56.9652 10.5173V9.89425C56.9652 8.9338 57.5195 8.33828 58.356 8.33828ZM58.5694 8.96482C58.06 8.96482 57.7432 9.34349 57.7432 10.0044V10.4037C57.7432 11.0681 58.0634 11.4467 58.5866 11.4467C59.103 11.4467 59.4403 11.0715 59.4403 10.4519V9.90114C59.4403 9.34004 59.072 8.96482 58.5694 8.96482ZM64.4008 8.32451C65.3509 8.32451 66.0153 8.9407 66.0153 9.9631V10.4347C66.0153 11.4915 65.3509 12.087 64.4008 12.087C63.4369 12.087 62.7795 11.4984 62.7795 10.4381V9.96655C62.7795 8.97172 63.4472 8.32451 64.4008 8.32451ZM64.4042 8.9407C63.8603 8.9407 63.5505 9.39511 63.5505 10.0044V10.4106C63.5505 11.0199 63.8397 11.4709 64.4042 11.4709C64.9619 11.4709 65.2476 11.0233 65.2476 10.4106V10.0044C65.2476 9.39511 64.9481 8.9407 64.4042 8.9407ZM66.9998 12.0251V8.38647H67.7503V9.04049H67.7881C67.8811 8.75481 68.1461 8.3314 68.8828 8.3314C69.616 8.3314 70.1082 8.73758 70.1082 9.56721V12.0251H69.344V9.79093C69.344 9.23672 69.0549 8.98198 68.6246 8.98198C68.0601 8.98198 67.764 9.41571 67.764 10.0044V12.0251H66.9998ZM73.0653 8.41057V7.50178H73.8122V8.41057H74.6281V9.00955H73.8122V10.9407C73.8122 11.3366 73.9603 11.4467 74.37 11.4467C74.4732 11.4467 74.6109 11.4398 74.6694 11.433V12.0182C74.6075 12.0285 74.3527 12.0492 74.1806 12.0492C73.2959 12.0492 73.0549 11.7325 73.0549 11.0027V9.00955H72.5007V8.41057H73.0653ZM75.592 12.0251V7.07837H76.3527V9.04049H76.3906C76.4698 8.78239 76.7658 8.3314 77.4956 8.3314C78.2048 8.3314 78.7108 8.74103 78.7108 9.57065V12.0251H77.95V9.79437C77.95 9.24017 77.6437 8.98198 77.2099 8.98198C76.6626 8.98198 76.3527 9.41234 76.3527 10.0044V12.0251H75.592ZM81.2754 12.087C80.2837 12.087 79.668 11.4778 79.668 10.4519V9.95966C79.668 8.92691 80.3425 8.32451 81.2308 8.32451C82.1426 8.32451 82.7865 8.95793 82.7865 9.95966V10.3865H80.4247V10.5655C80.4247 11.0888 80.7349 11.4743 81.2715 11.4743C81.671 11.4743 81.9468 11.285 81.9985 11.0577H82.745C82.7003 11.4778 82.2562 12.087 81.2754 12.087ZM80.4247 9.88736H82.0392V9.83918C82.0392 9.29179 81.7196 8.92691 81.2339 8.92691C80.7491 8.92691 80.4247 9.29179 80.4247 9.83918V9.88736Z" fill="white"/>
<path d="M29.9283 24.5586H28.3379L31.5737 15.1608H33.3225L36.5514 24.5586H34.8991L34.066 21.9561H30.7682L29.9283 24.5586ZM32.4549 16.7856H32.393L31.1194 20.7581H33.7148L32.4549 16.7856ZM40.9406 24.6618C39.9974 24.6618 39.2814 24.2143 38.8958 23.5465H38.8407V26.9751H37.3123V17.2814H38.7995V18.3485H38.8545C39.2539 17.6532 39.9974 17.185 40.975 17.185C42.6067 17.185 43.7703 18.4174 43.7703 20.5929V21.2401C43.7703 23.4019 42.6205 24.6618 40.9406 24.6618ZM40.5895 23.4019C41.5602 23.4019 42.2211 22.624 42.2211 21.1575V20.648C42.2211 19.2367 41.6015 18.4311 40.562 18.4311C39.4948 18.4311 38.827 19.2986 38.827 20.6411V21.1575C38.827 22.5344 39.5017 23.4019 40.5895 23.4019ZM48.7102 24.6618C47.767 24.6618 47.051 24.2143 46.6655 23.5465H46.6104V26.9751H45.082V17.2814H46.569V18.3485H46.6242C47.0234 17.6532 47.767 17.185 48.7447 17.185C50.3763 17.185 51.5399 18.4174 51.5399 20.5929V21.2401C51.5399 23.4019 50.3901 24.6618 48.7102 24.6618ZM48.3591 23.4019C49.3299 23.4019 49.9908 22.624 49.9908 21.1575V20.648C49.9908 19.2367 49.3712 18.4311 48.3315 18.4311C47.2644 18.4311 46.5966 19.2986 46.5966 20.6411V21.1575C46.5966 22.5344 47.2713 23.4019 48.3591 23.4019ZM54.7072 21.9492H56.2356C56.3045 22.7617 57.0205 23.457 58.3493 23.457C59.5678 23.457 60.2908 22.8856 60.2908 21.9975C60.2908 21.2814 59.8088 20.8959 58.8036 20.6549L57.2615 20.2693C56.0497 19.9871 54.9619 19.2642 54.9619 17.7357C54.9619 15.9388 56.5317 14.9543 58.3562 14.9543C60.1806 14.9543 61.7021 15.9388 61.7366 17.6944H60.2357C60.1668 16.8958 59.554 16.2349 58.3355 16.2349C57.2615 16.2349 56.5317 16.7443 56.5317 17.6187C56.5317 18.2315 56.9585 18.6721 57.8329 18.8717L59.3682 19.2504C60.7796 19.5947 61.8536 20.2624 61.8536 21.8597C61.8536 23.7049 60.3596 24.7444 58.2322 24.7444C55.616 24.7444 54.7416 23.216 54.7072 21.9492ZM63.7161 17.2814V15.512H65.217V17.2814H66.6352V18.5068H65.217V22.3898C65.217 23.1816 65.513 23.4019 66.3323 23.4019C66.4631 23.4019 66.587 23.4019 66.6766 23.3882V24.5586C66.5526 24.5792 66.2634 24.6067 65.9536 24.6067C64.1842 24.6067 63.6954 23.9733 63.6954 22.5137V18.5068H62.6903V17.2814H63.7161ZM70.7628 17.1575C72.8557 17.1575 73.9917 18.6308 73.9917 20.6136V21.1988C73.9917 23.2505 72.8626 24.6825 70.7628 24.6825C68.6629 24.6825 67.5201 23.2505 67.5201 21.1988V20.6136C67.5201 18.6377 68.6698 17.1575 70.7628 17.1575ZM70.7628 18.3829C69.6268 18.3829 69.0623 19.3123 69.0623 20.6342V21.1919C69.0623 22.4931 69.6199 23.4501 70.7628 23.4501C71.9057 23.4501 72.4565 22.5 72.4565 21.1919V20.6342C72.4565 19.3054 71.8988 18.3829 70.7628 18.3829ZM75.2828 24.5586V17.2814H76.8113V18.2383H76.8663C77.0522 17.784 77.5961 17.1781 78.6085 17.1781C78.8082 17.1781 78.9798 17.1919 79.1247 17.2194V18.5688C78.9939 18.5344 78.7252 18.5137 78.4706 18.5137C77.245 18.5137 76.8319 19.2711 76.8319 20.2487V24.5586H75.2828ZM82.8322 24.6825C80.884 24.6825 79.6448 23.395 79.6448 21.2401V20.5034C79.6448 18.4725 80.8558 17.1575 82.7703 17.1575C84.7114 17.1575 85.8817 18.5206 85.8817 20.5723V21.2676H81.1519V21.4398C81.1519 22.6652 81.8131 23.4776 82.8526 23.4776C83.6304 23.4776 84.1607 23.0921 84.3472 22.4656H85.7995C85.5793 23.6429 84.6292 24.6825 82.8322 24.6825ZM81.1519 20.2005H84.3879V20.1867C84.3879 19.154 83.7479 18.3416 82.7774 18.3416C81.7927 18.3416 81.1519 19.154 81.1519 20.1867V20.2005Z" fill="white"/>
</g>
<defs>
<clipPath id="clip0_2011_29501">
<rect width="94" height="31.3333" fill="white" transform="translate(0 0.666748)"/>
</clipPath>
</defs>
</svg>
