<svg width="32" height="32" viewBox="0 0 32 32" fill="none" xmlns="http://www.w3.org/2000/svg">
<g clip-path="url(#clip0_2001_24929)">
<circle cx="16" cy="16" r="16" fill="#A32244"/>
<path d="M15.9999 8C11.0378 8 7 11.2527 7 15.2509C7 18.8353 10.2018 21.8371 14.5269 22.4047C14.82 22.4674 15.2189 22.5965 15.3198 22.8453C15.4106 23.0712 15.3791 23.4251 15.3488 23.6532C15.3488 23.6532 15.2432 24.2837 15.2204 24.418C15.1812 24.6439 15.0396 25.3015 15.9999 24.8997C16.9606 24.4979 21.1831 21.8698 23.0713 19.712C24.3753 18.2921 25 16.8511 25 15.2509C25 11.2527 20.9628 8 15.9999 8Z" fill="white"/>
<path d="M13.4981 13.3513C13.4022 13.3513 13.3242 13.4318 13.3242 13.5307V17.5504C13.3242 17.6494 13.4022 17.7297 13.4981 17.7297H14.1235C14.2194 17.7297 14.2972 17.6494 14.2972 17.5504V13.5307C14.2972 13.4318 14.2194 13.3513 14.1235 13.3513H13.4981Z" fill="#A32244"/>
<path d="M18.4922 13.3513H17.8338C17.7329 13.3513 17.651 13.4318 17.651 13.5307V15.9188L15.7767 13.4311C15.7724 13.4247 15.7675 13.4187 15.7625 13.4129L15.7612 13.4118C15.7576 13.4078 15.754 13.4042 15.7502 13.4006C15.7492 13.3996 15.7481 13.3987 15.7468 13.3977C15.7438 13.3948 15.7405 13.3922 15.7371 13.3897C15.7357 13.3883 15.734 13.3872 15.7324 13.386C15.7292 13.3839 15.7261 13.3815 15.7229 13.3796C15.7211 13.3784 15.7193 13.3773 15.7173 13.3764C15.7141 13.3745 15.7108 13.3725 15.7076 13.371C15.7056 13.37 15.7038 13.369 15.7018 13.3683C15.6984 13.3667 15.695 13.3651 15.6914 13.3638C15.6892 13.3632 15.6875 13.3624 15.6855 13.3618C15.6819 13.3605 15.6783 13.3593 15.6744 13.3584C15.6725 13.3577 15.6703 13.3573 15.6682 13.3566C15.6646 13.3559 15.6612 13.355 15.6577 13.3543C15.6552 13.354 15.6525 13.3536 15.65 13.3534C15.6468 13.3527 15.6436 13.3525 15.6403 13.3522C15.6372 13.3519 15.6342 13.3519 15.6309 13.3517C15.6286 13.3517 15.6268 13.3513 15.6245 13.3513H14.9662C14.8652 13.3513 14.7832 13.4318 14.7832 13.5307V17.5504C14.7832 17.6494 14.8652 17.7297 14.9662 17.7297H15.6245C15.7256 17.7297 15.8074 17.6494 15.8074 17.5504V15.1629L17.6841 17.6538C17.6971 17.6719 17.7131 17.6865 17.7305 17.6982L17.7323 17.6997C17.7361 17.7019 17.7399 17.7042 17.7437 17.7063C17.7455 17.7074 17.7471 17.7081 17.7489 17.709C17.7516 17.7106 17.7547 17.712 17.7575 17.7133C17.7606 17.7145 17.7633 17.7157 17.7665 17.717C17.7683 17.7177 17.7701 17.7184 17.7719 17.7189C17.7763 17.7205 17.7802 17.7217 17.7843 17.7229L17.7871 17.7235C17.802 17.7274 17.8177 17.7297 17.8338 17.7297H18.4922C18.5934 17.7297 18.6751 17.6494 18.6751 17.5504V13.5307C18.6751 13.4318 18.5934 13.3513 18.4922 13.3513Z" fill="#A32244"/>
<path d="M12.6601 16.7231H10.9168V13.531C10.9168 13.4318 10.837 13.3513 10.7389 13.3513H10.0971C9.99873 13.3513 9.91895 13.4318 9.91895 13.531V17.5499C9.91895 17.5982 9.93804 17.6422 9.96875 17.6744C9.96942 17.6752 9.97015 17.6761 9.97118 17.677C9.97209 17.6779 9.97295 17.6786 9.9738 17.6795C10.0059 17.7106 10.049 17.7297 10.0969 17.7297H12.6601C12.7584 17.7297 12.8379 17.6491 12.8379 17.5499V16.9028C12.8379 16.8036 12.7584 16.7231 12.6601 16.7231Z" fill="#A32244"/>
<path d="M21.9032 14.3579C22.0016 14.3579 22.081 14.2776 22.081 14.1782V13.5311C22.081 13.432 22.0016 13.3513 21.9032 13.3513H19.3403C19.2922 13.3513 19.2486 13.3708 19.2165 13.4021C19.2157 13.4028 19.2149 13.4033 19.2143 13.404C19.2133 13.4051 19.2125 13.4061 19.2115 13.4072C19.181 13.4394 19.1621 13.4829 19.1621 13.531V17.55C19.1621 17.5983 19.1812 17.6422 19.2119 17.6744C19.2126 17.6752 19.2135 17.6763 19.2143 17.677C19.2151 17.6779 19.2161 17.6787 19.217 17.6795C19.2489 17.7104 19.2922 17.7297 19.3399 17.7297H21.9032C22.0016 17.7297 22.081 17.6491 22.081 17.55V16.9028C22.081 16.8038 22.0016 16.7231 21.9032 16.7231H20.1601V16.0437H21.9032C22.0016 16.0437 22.081 15.9633 22.081 15.864V15.217C22.081 15.1178 22.0016 15.0371 21.9032 15.0371H20.1601V14.3579H21.9032Z" fill="#A32244"/>
</g>
<defs>
<clipPath id="clip0_2001_24929">
<rect width="32" height="32" fill="white"/>
</clipPath>
</defs>
</svg>
