<svg width="32" height="32" viewBox="0 0 32 32" fill="none" xmlns="http://www.w3.org/2000/svg">
<g clip-path="url(#clip0_308_1733)">
<circle cx="16" cy="16" r="16" fill="#DC5064"/>
<path d="M15.9999 8C11.0378 8 7 11.2527 7 15.2509C7 18.8353 10.2018 21.8371 14.5269 22.4047C14.82 22.4674 15.2189 22.5965 15.3198 22.8453C15.4106 23.0712 15.3791 23.4251 15.3488 23.6532C15.3488 23.6532 15.2432 24.2837 15.2204 24.418C15.1812 24.6439 15.0396 25.3015 15.9999 24.8997C16.9606 24.4979 21.1831 21.8698 23.0713 19.712C24.3753 18.2921 25 16.8511 25 15.2509C25 11.2527 20.9628 8 15.9999 8Z" fill="white"/>
<path d="M13.4981 13.3516C13.4022 13.3516 13.3242 13.432 13.3242 13.5309V17.5506C13.3242 17.6497 13.4022 17.7299 13.4981 17.7299H14.1235C14.2194 17.7299 14.2972 17.6497 14.2972 17.5506V13.5309C14.2972 13.432 14.2194 13.3516 14.1235 13.3516H13.4981Z" fill="#DC5064"/>
<path d="M18.4942 13.3516H17.8358C17.7348 13.3516 17.653 13.432 17.653 13.5309V15.9191L15.7786 13.4313C15.7743 13.425 15.7694 13.4189 15.7645 13.4131L15.7632 13.4121C15.7596 13.408 15.7559 13.4045 15.7522 13.4009C15.7511 13.3998 15.75 13.3989 15.7488 13.3979C15.7457 13.395 15.7424 13.3924 15.739 13.3899C15.7376 13.3885 15.736 13.3874 15.7344 13.3862C15.7311 13.3841 15.7281 13.3818 15.7249 13.3798C15.723 13.3786 15.7212 13.3775 15.7193 13.3767C15.716 13.3747 15.7128 13.3728 15.7095 13.3712C15.7075 13.3703 15.7058 13.3693 15.7038 13.3685C15.7004 13.3669 15.697 13.3654 15.6934 13.3641C15.6912 13.3634 15.6894 13.3627 15.6874 13.362C15.6838 13.3607 15.6802 13.3595 15.6764 13.3586C15.6745 13.3579 15.6723 13.3576 15.6701 13.3569C15.6665 13.3562 15.6631 13.3553 15.6597 13.3545C15.6572 13.3542 15.6544 13.3539 15.652 13.3537C15.6487 13.353 15.6455 13.3528 15.6422 13.3525C15.6392 13.3521 15.6361 13.3521 15.6329 13.3519C15.6305 13.3519 15.6287 13.3516 15.6264 13.3516H14.9681C14.8672 13.3516 14.7852 13.432 14.7852 13.5309V17.5506C14.7852 17.6497 14.8672 17.7299 14.9681 17.7299H15.6264C15.7275 17.7299 15.8094 17.6497 15.8094 17.5506V15.1632L17.6861 17.654C17.699 17.6721 17.715 17.6868 17.7325 17.6984L17.7343 17.6999C17.7381 17.7022 17.7418 17.7045 17.7456 17.7066C17.7474 17.7077 17.7491 17.7084 17.7508 17.7093C17.7536 17.7108 17.7566 17.7122 17.7595 17.7135C17.7626 17.7147 17.7653 17.716 17.7685 17.7172C17.7703 17.7179 17.7721 17.7186 17.7739 17.7192C17.7782 17.7208 17.7822 17.722 17.7863 17.7232L17.789 17.7237C17.8039 17.7276 17.8196 17.7299 17.8358 17.7299H18.4942C18.5953 17.7299 18.677 17.6497 18.677 17.5506V13.5309C18.677 13.432 18.5953 13.3516 18.4942 13.3516Z" fill="#DC5064"/>
<path d="M12.6591 16.7233H10.9158V13.5313C10.9158 13.432 10.836 13.3516 10.7379 13.3516H10.0961C9.99775 13.3516 9.91797 13.432 9.91797 13.5313V17.5501C9.91797 17.5984 9.93706 17.6424 9.96777 17.6746C9.96844 17.6755 9.96917 17.6764 9.97021 17.6772C9.97112 17.6781 9.97197 17.6789 9.97282 17.6797C10.0049 17.7108 10.048 17.7299 10.096 17.7299H12.6591C12.7575 17.7299 12.8369 17.6493 12.8369 17.5501V16.903C12.8369 16.8039 12.7575 16.7233 12.6591 16.7233Z" fill="#DC5064"/>
<path d="M21.9052 14.3582C22.0036 14.3582 22.083 14.2778 22.083 14.1785V13.5314C22.083 13.4322 22.0036 13.3516 21.9052 13.3516H19.3422C19.2942 13.3516 19.2505 13.371 19.2184 13.4023C19.2177 13.403 19.2168 13.4036 19.2163 13.4043C19.2153 13.4053 19.2144 13.4064 19.2135 13.4074C19.183 13.4396 19.1641 13.4832 19.1641 13.5313V17.5502C19.1641 17.5985 19.1832 17.6424 19.2139 17.6746C19.2145 17.6755 19.2154 17.6766 19.2163 17.6772C19.217 17.6781 19.2181 17.679 19.219 17.6797C19.2508 17.7107 19.2942 17.7299 19.3419 17.7299H21.9052C22.0036 17.7299 22.083 17.6493 22.083 17.5502V16.903C22.083 16.804 22.0036 16.7233 21.9052 16.7233H20.1621V16.044H21.9052C22.0036 16.044 22.083 15.9635 22.083 15.8643V15.2172C22.083 15.118 22.0036 15.0374 21.9052 15.0374H20.1621V14.3582H21.9052Z" fill="#DC5064"/>
</g>
<defs>
<clipPath id="clip0_308_1733">
<rect width="32" height="32" fill="white"/>
</clipPath>
</defs>
</svg>
