<svg width="172" height="47" viewBox="0 0 172 47" fill="none" xmlns="http://www.w3.org/2000/svg">
<g clip-path="url(#clip0_2011_29431)">
<path d="M71.7996 42.2444L69.5027 35.6917H67.5062V36.1673C67.744 36.2737 67.7815 36.5366 67.6063 36.9747L65.8226 41.775C65.6035 42.3571 65.2405 42.7201 64.7461 42.9329V43.709H67.3247V42.9705C66.6049 42.8641 66.5736 42.5762 66.7051 42.0629L67.1056 40.9614H69.002L69.3587 42.1318C69.5402 42.62 69.3963 42.7889 68.7141 42.9642V43.7653H72.5757V42.9642C72.1814 42.8578 71.9686 42.6387 71.7933 42.2319L71.7996 42.2444ZM68.082 40.0602H67.4686L68.082 38.2389L68.7203 40.0602H68.082Z" fill="#9A0036"/>
<path d="M62.5984 39.5157C64.7138 38.095 63.6373 35.6917 60.8773 35.6917H56.1582V36.4302C56.878 36.6054 57.1283 36.643 57.1596 37.6631V41.6687C57.1596 42.4322 56.7653 42.6826 56.127 42.9705V43.7716H61.4843C64.0066 43.6276 64.645 40.8613 62.5984 39.5157ZM59.3439 36.9747C59.4065 36.643 59.9134 36.5366 60.3766 36.668C60.9211 36.8182 61.4593 37.2188 61.4593 37.8384C61.5282 38.6395 60.9649 39.0838 60.3766 39.184C59.9134 39.3029 59.4503 39.2278 59.3439 39.0025V36.9747ZM60.3766 42.8641C59.9134 42.9016 59.4503 42.7138 59.3439 42.5323V40.2417C59.4065 40.0164 59.8759 39.9413 60.3766 40.0539C60.9586 40.1603 61.5657 40.5358 61.597 41.1867C61.6283 42.3821 60.9899 42.8328 60.3766 42.8641Z" fill="#9A0036"/>
<path d="M89.6852 42.1L87.4008 38.7454L89.0781 37.2871C89.5412 36.8928 90.0419 36.6362 90.5176 36.461V35.6912H87.4008V36.5048C88.0079 36.5048 88.2582 36.824 87.8952 37.187L85.6922 39.0896L85.6484 37.1244C85.7548 36.7551 86.0802 36.5423 86.6435 36.511V35.6223H82.4314V36.4359C82.9634 36.5048 83.4641 36.7551 83.4641 37.2934V41.6744C83.4328 42.3942 83.001 42.8761 82.3125 42.8761V43.7836H86.4369V42.9449C86.0739 42.8823 85.5732 42.7321 85.5732 42.4693L85.6108 40.5103H85.8236L88.1894 43.7898H90.8305V42.9512C90.3736 42.8886 90.0106 42.5569 89.6852 42.1188V42.1Z" fill="#9A0036"/>
<path d="M78.6633 36.4638C79.2704 36.5764 79.6271 36.7517 79.6772 37.365V39.4116C79.6334 39.8497 79.4957 39.7746 79.2078 39.3615L76.4915 35.6627H73.7002V36.4638C74.3135 36.5013 74.5952 36.8643 74.6327 37.5215V41.9526C74.5639 42.6849 74.2009 42.8038 73.5625 42.8726V43.7488H76.4978V42.9728C75.9971 42.8351 75.4964 42.6849 75.4964 41.9839V38.9046C75.4964 38.4665 75.6404 38.3539 76.0284 38.8233L79.4581 43.7739H80.4282L80.4971 37.4088C80.4282 36.9269 80.8976 36.6453 81.4672 36.4638V35.5813H78.6758V36.4638H78.6633Z" fill="#9A0036"/>
<path d="M121.104 37.7323H121.855L122.857 36.7184C123.182 36.5057 123.752 36.5745 123.752 37.1565V41.8568C123.783 42.5828 123.32 42.9082 122.644 42.9771V43.7782H126.925V43.0209C126.286 42.9771 125.892 42.7267 125.961 42.1447V37.0877C126.105 36.5432 126.537 36.3554 127.15 36.9062L127.926 37.8137H128.684V35.667H121.092V37.7386L121.104 37.7323Z" fill="#9A0036"/>
<path d="M136.563 42.2444L134.266 35.6917H132.264V36.1673C132.476 36.2737 132.52 36.5366 132.339 36.9747L130.542 41.775C130.33 42.3571 129.973 42.7201 129.479 42.9329V43.709H132.051V42.9705C131.331 42.8641 131.306 42.5762 131.444 42.0629L131.838 40.9614H133.772L134.097 42.1318C134.273 42.62 134.16 42.7889 133.49 42.9642V43.7653H137.314V42.9642C136.926 42.8578 136.707 42.6387 136.563 42.2319V42.2444ZM132.802 40.0602H132.195L132.802 38.2389L133.446 40.0602H132.802Z" fill="#9A0036"/>
<path d="M150.984 36.4302C151.485 36.643 151.66 36.9246 151.485 37.4441L150.771 40.129L150.095 37.5567C149.951 37.0435 150.02 36.7494 150.452 36.3926V35.6917H147.16V36.5741C147.661 36.7494 147.949 37.2626 147.88 37.588L147.273 39.9475L146.515 37.2876C146.415 36.8933 146.49 36.7869 146.803 36.6054V35.7292H143.549L143.518 36.4302C143.981 36.643 144.262 36.9747 144.375 37.4691L145.99 43.7716H147.123L148.424 39.6972L149.457 43.7716H150.778L152.461 37.2876C152.568 36.9246 152.855 36.7118 153.281 36.5741V35.6917H150.997V36.4302H150.984Z" fill="#9A0036"/>
<path d="M161.215 42.2437L158.918 35.6909H156.916V36.1666C157.172 36.273 157.172 36.5358 156.991 36.9739L155.201 41.7743C155.025 42.3564 154.656 42.7194 154.168 42.9322V43.7082H156.74V42.9697C155.995 42.8633 155.958 42.5754 156.108 42.0622L156.49 40.9607H158.43L158.781 42.1311C158.925 42.6192 158.818 42.7882 158.136 42.9635V43.7646H161.979V42.9635C161.609 42.8571 161.403 42.638 161.221 42.2312L161.215 42.2437ZM157.491 40.0594H156.847L157.491 38.2382L158.13 40.0594H157.491Z" fill="#9A0036"/>
<path d="M107.149 36.4594C107.693 36.5721 108.044 36.7098 108.013 37.2856V42.0922C107.981 42.5741 107.581 42.8933 107.049 43.006V43.7633H111.123V42.8933C110.591 42.8933 110.166 42.668 110.166 42.161V40.709C110.122 40.2334 110.266 39.9768 110.597 39.933H111.774C112.162 40.0143 112.406 40.4524 112.525 40.8843H113.245V38.2056H112.525C112.456 38.6312 112.237 38.9942 111.881 39.0755H110.266V37.1103C110.266 36.7411 110.347 36.5971 110.673 36.6347H111.987C112.669 36.6597 113.17 37.0728 113.489 37.8301H114.065V35.6833H107.155V36.4532L107.149 36.4594Z" fill="#9A0036"/>
<path d="M168.156 36.4638C168.763 36.5764 169.133 36.7517 169.164 37.365V39.4116C169.133 39.8497 169.014 39.7746 168.707 39.3615L166.016 35.6627H163.187V36.4638C163.794 36.5013 164.119 36.8643 164.119 37.5215V41.9526C164.051 42.6849 163.688 42.8038 163.043 42.8726V43.7488H165.972V42.9728C165.478 42.8351 164.971 42.6849 164.971 41.9839V38.9046C164.971 38.4665 165.121 38.3539 165.503 38.8233L168.945 43.7739H169.909L169.978 37.4088C169.909 36.9269 170.366 36.6453 170.941 36.4638V35.5813H168.15V36.4638H168.156Z" fill="#9A0036"/>
<path d="M138.385 36.4299C139.036 36.6052 139.417 36.8618 139.417 37.4438V41.9813C139.38 42.5321 138.917 42.9014 138.385 43.014V43.7713H142.791V42.9327C141.927 42.9327 141.608 42.626 141.646 41.8186V37.1559C141.827 36.7929 142.109 36.5426 142.791 36.505V35.6914H138.385V36.4299Z" fill="#9A0036"/>
<path d="M102.534 35.6161H101.571C99.7117 35.7288 97.7465 36.7489 97.709 39.5966C97.709 42.4568 99.4677 43.6773 101.677 43.7711H102.578C103.98 43.7711 106.158 42.4318 106.189 39.8407C106.258 36.6676 104.149 35.6599 102.541 35.6099L102.534 35.6161ZM102.39 42.9325H101.715C99.9183 42.6821 99.887 40.7232 99.9183 39.6342C99.9558 38.6078 100.169 36.6488 101.715 36.5424H102.39C103.811 36.7239 103.861 38.7329 103.899 39.8157C103.924 40.8671 103.68 42.7572 102.39 42.9387V42.9325Z" fill="#9A0036"/>
<path d="M140.212 24.1514C139.711 23.3879 139.248 22.4866 138.453 21.9797C136.601 21.4978 134.767 20.6716 133.196 19.4637C132.946 19.2509 133.334 19.1007 133.403 18.8817C134.417 18.4436 135.261 17.5673 136.375 17.173C136.87 16.5222 136.131 15.8963 135.912 15.2829C135.631 15.1765 135.224 14.9137 134.948 15.1765C134.479 16.1529 133.403 16.7037 132.702 17.4359C132.163 17.7676 131.901 18.4874 131.262 18.5625H131.156C130.649 18.5312 130.436 17.9867 130.292 17.6112C130.33 17.1793 130.367 16.81 130.693 16.5284L131.256 16.447L132.871 16.3094C133.321 16.0966 133.265 15.4707 133.365 15.0263C134.429 13.3928 135.017 11.4652 135.862 9.70649C136.012 9.21206 136.688 8.9179 136.588 8.2983C136.476 7.86645 136.363 7.49719 136.119 7.12793C134.467 7.12793 132.933 7.63488 131.25 7.60359C131.106 7.60359 130.968 7.60359 130.818 7.56603C130.424 7.77883 130.53 8.26074 130.317 8.57993L129.566 8.4798C129.316 8.4798 129.103 8.7364 129.028 8.94919C128.89 10.0382 129.103 11.3525 128.734 12.3789C128.859 13.0674 129.241 13.8309 128.859 14.5194C128.79 15.3956 129.241 16.2343 128.677 16.9915C128.427 17.1856 127.92 17.1856 127.845 17.5423C127.82 17.5861 127.82 17.655 127.845 17.7739V17.8427C127.82 18.3121 128.396 18.3121 128.609 18.6751C128.99 19.4449 128.421 20.2773 128.677 21.1473C128.496 22.568 128.527 24.0576 128.396 25.5158C128.252 25.7849 128.102 26.029 128.064 26.3169C128.396 26.9741 128.609 27.8503 129.391 28.2759C129.71 28.3948 130.067 28.2446 130.317 27.9129L131.25 26.2856L132.864 23.4818C133.215 23.125 133.215 22.568 133.615 22.3615C134.723 23.0437 135.756 23.9574 136.97 24.5332C137.865 25.0402 138.973 24.6897 139.949 24.6897C140.056 24.5332 140.2 24.4018 140.2 24.1702L140.212 24.1514ZM131.225 9.55628H131.262C132.013 9.33097 132.658 8.87409 133.484 9.08688C133.484 9.59383 133.159 10.0695 132.971 10.589C132.439 10.833 131.876 11.0145 131.262 11.1022C131.2 11.1022 131.156 11.1335 131.081 11.1335C130.943 10.6641 130.899 9.96309 131.225 9.56254V9.55628ZM130.868 13.2426C130.981 13.1988 131.118 13.1362 131.262 13.0862C131.613 12.986 132.013 12.9172 132.088 13.349C132.12 13.8873 131.876 14.2628 131.613 14.582C131.506 14.6884 131.375 14.7697 131.262 14.801C131.156 14.801 131.049 14.801 130.943 14.7635L130.837 14.5757L130.874 13.2364L130.868 13.2426ZM131.262 23.5068C131.225 23.5443 131.225 23.5819 131.2 23.6132C130.943 23.801 130.793 24.1577 130.436 24.0888C130.405 23.0374 130.117 21.9108 130.33 20.8469C130.618 20.8031 130.937 20.7405 131.262 20.7405C131.694 20.7405 132.088 20.8844 132.295 21.3601C132.12 22.1299 131.613 22.7808 131.262 23.5068Z" fill="#9A0036"/>
<path d="M121.323 22.1431C121.361 22.1807 121.429 22.2182 121.461 22.2182C121.792 22.2558 122.287 22.3622 122.475 21.8928C122.725 21.5986 122.581 21.2106 122.4 20.9039C122.005 20.6911 121.68 20.3219 121.323 19.9964C121.148 19.8525 120.923 19.6772 120.716 19.6084C120.328 19.3831 119.815 19.4582 119.527 19.7085C119.314 20.2968 119.859 20.616 120.103 21.0228C120.466 21.3796 120.923 21.8239 121.323 22.1431Z" fill="#9A0036"/>
<path d="M122.857 25.1363C124.253 24.2976 125.36 22.9082 126.925 22.5515C127.401 22.2949 127.726 21.8568 127.858 21.3123V21.1308C127.757 20.8804 127.357 20.8804 127.188 20.6989C126.925 20.4423 126.399 20.774 126.368 20.3046C126.756 19.4597 128.327 18.8025 127.614 17.7135C127.294 17.3881 126.906 17.1315 126.437 17.2003C126.111 17.338 126.005 17.676 126.005 18.0077C125.755 18.2643 125.68 18.984 125.26 18.7587C125.223 18.2268 125.004 17.5946 125.323 17.0939C125.611 16.2928 126.612 16.8311 127.082 16.2553C127.257 15.8485 127.006 15.3415 126.831 14.9097C126.368 14.0835 125.579 15.3853 125.154 14.5091C125.041 14.2963 125.26 14.1774 125.329 14.0835C125.905 13.8269 126.55 13.9271 127.125 13.6454C127.263 13.4139 127.301 13.0884 127.194 12.8381L126.437 11.8555C126.043 11.3485 125.36 11.8555 124.822 11.7491L122.569 13.5328L122.463 13.9709C122.569 14.265 122.813 14.4403 123.07 14.5467C123.389 14.9097 122.995 15.3853 123.032 15.7859C122.638 16.3366 121.924 16.224 121.317 16.4305C121.167 16.5119 120.986 16.6183 120.848 16.7622C120.735 17.2692 121.142 17.6697 121.317 18.1141C121.355 18.1141 121.355 18.1579 121.355 18.1829C121.818 18.5522 122.212 18.039 122.6 18.0077C122.857 17.9701 123.145 17.7574 123.364 17.9701C123.539 19.4222 123.001 20.7302 123.101 22.1509C122.907 22.8081 122.106 22.7455 121.705 23.1711C121.574 23.2462 121.461 23.2837 121.324 23.2837C121.073 23.2399 120.823 23.1085 120.573 23.2149C120.078 23.3588 120.178 23.9346 120.078 24.3414C120.253 24.7795 120.748 24.8797 121.08 25.1425C121.148 25.1425 121.255 25.1801 121.33 25.2114C121.868 25.3616 122.438 25.4367 122.869 25.1425L122.857 25.1363Z" fill="#9A0036"/>
<path d="M121.324 12.9362C121.431 12.8235 121.537 12.7171 121.606 12.6107C123.039 11.6281 124.397 10.3138 125.856 9.44383C126.506 9.73173 127.189 9.83813 127.858 10.0196C127.902 10.0196 127.933 10.0572 128.009 10.0572C128.828 9.83813 128.365 9.11212 128.403 8.56136C128.29 8.27973 128.071 8.09197 127.852 7.94176C127.57 7.76652 127.251 7.65386 126.995 7.47862L126.675 6.8152L126.488 6.42091C125.824 6.2707 125.205 5.8013 124.554 6.30199C123.59 7.54121 122.451 8.71157 121.306 9.86942C120.342 10.8583 119.378 11.8033 118.433 12.8172L118.195 12.8611C117.794 12.9299 117.688 13.3304 117.613 13.6246C117.613 14.2755 117.256 15.0704 117.857 15.6211C118.039 15.7338 118.402 15.7338 118.583 15.6211C119.616 14.8889 120.442 13.8374 121.299 12.9299L121.324 12.9362Z" fill="#9A0036"/>
<path d="M89.2545 16.5544C89.6175 15.9661 90.4749 15.6782 90.1495 14.9084C89.9367 14.0322 89.1168 14.2137 88.5035 13.9258C88.1843 13.857 88.0028 13.4564 87.6398 13.5253C87.3957 13.5941 87.1766 13.882 87.1078 14.1449C87.0327 15.1337 87.9715 15.7158 88.2844 16.4355C88.5347 16.592 88.9666 16.6984 89.2482 16.5607L89.2545 16.5544Z" fill="#9A0036"/>
<path d="M89.6183 10.8014C89.9375 10.7575 90.4757 10.9453 90.5759 10.4321C90.7636 9.85004 91.014 9.3118 91.3269 8.79859C91.3707 8.72974 91.4333 8.62335 91.5084 8.51069C91.6586 8.29164 91.4834 8.10388 91.3269 7.89108C91.2581 7.82224 91.2268 7.74088 91.1892 7.66577C91.014 7.34658 90.5759 7.24019 90.2254 7.15882C89.368 7.08998 88.2602 7.06494 87.7532 7.92238C87.6093 8.54198 88.1851 8.98635 88.4417 9.48078C88.7233 9.95644 88.9737 10.6199 89.6183 10.8014Z" fill="#9A0036"/>
<path d="M95.7623 7.81319C96.626 8.20748 97.4897 7.55658 98.3471 7.40012H98.4472C99.1607 7.48148 99.9556 7.76938 100.563 7.23113C101.345 6.67411 102.528 7.25617 103.36 6.59901C103.567 6.09206 102.953 5.94185 102.816 5.54756C102.165 5.2534 101.595 5.69151 100.994 5.62266C100.631 5.54756 100.563 5.18456 100.631 4.8904C100.344 3.76384 99.2421 4.30835 98.4472 4.4523C98.3471 4.48985 98.272 4.48985 98.1718 4.48985C98.0216 4.77775 98.2407 4.95925 98.4472 5.14701C98.6663 5.32851 98.9166 5.54756 98.7727 5.87301C98.6663 5.94185 98.5536 5.98566 98.4472 6.02321C97.9841 6.19846 97.4897 6.23601 96.989 6.39247C96.5571 6.60527 95.8812 6.39247 95.4431 6.74922C95.4431 6.74922 95.4118 6.74922 95.3742 6.78051C95.3367 7.00582 95.3742 7.18732 95.4431 7.33753C95.5495 7.50651 95.6621 7.65672 95.7623 7.81319Z" fill="#9A0036"/>
<path d="M100.884 7.88296C100.07 8.05194 99.2816 8.28351 98.4554 8.46501C97.9923 8.53386 97.4979 8.61522 96.9534 8.64026C96.5403 8.74665 96.6342 9.25986 96.6342 9.54776C97.2037 10.1298 97.8108 9.98586 98.4554 9.77307C98.9248 9.58531 99.4255 9.41633 99.8887 9.41633C100.389 9.19102 101.103 9.41633 101.46 8.86557C101.566 8.68407 101.597 8.38991 101.528 8.17086C101.428 7.91425 101.14 7.81411 100.884 7.88296Z" fill="#9A0036"/>
<path d="M103.725 13.3764C103.644 13.3388 103.531 13.3013 103.394 13.3013C102.887 13.5641 103.143 14.165 103.175 14.6469C103.312 14.7908 103.494 15.0412 103.725 15.1163C103.813 15.1538 103.926 15.1538 104.038 15.1538C104.226 15.0349 104.395 14.8221 104.351 14.5655C104.226 14.165 104.145 13.5829 103.725 13.3701V13.3764Z" fill="#9A0036"/>
<path d="M106.965 14.4651C106.646 14.2085 106.47 13.5888 106.001 13.5701H105.863C105.394 13.7015 105.394 14.1772 105.25 14.5777C105.369 14.8719 105.369 15.2349 105.638 15.4539C105.751 15.4539 105.863 15.4915 106.001 15.4915C106.326 15.5728 106.689 15.6792 106.965 15.4164C107.071 15.0471 107.071 14.8343 106.965 14.4651Z" fill="#9A0036"/>
<path d="M98.4491 26.3818C98.0986 26.3067 97.7732 26.2003 97.4603 26.0564C97.2725 26.0125 97.1348 26.2003 97.0973 26.3067C97.3476 26.9326 98.0235 27.3707 98.4554 27.8401C98.4554 27.8401 98.4554 27.8651 98.4992 27.8651C99.1376 28.3846 99.7447 29.1106 100.615 29.1106C101.034 29.1106 101.147 28.6349 101.403 28.3783C101.973 26.338 102.336 24.2977 102.861 22.2949C102.887 21.8255 103.224 21.4187 103.068 20.9118C102.887 20.3297 102.436 20.0481 101.966 19.7915C101.428 19.3846 100.934 19.9291 100.508 20.0481C99.8886 20.4736 99.1689 20.6239 98.4554 20.7303C98.205 20.7678 97.9547 20.7991 97.6668 20.8366C97.5291 20.6614 97.6355 20.3234 97.7482 20.1106C97.8107 19.7101 98.0986 19.491 98.4554 19.3784C98.7808 19.2407 99.1376 19.1656 99.3879 19.0467C100.07 18.8714 100.784 19.1969 101.353 18.909C101.854 18.2518 101.966 17.4507 102.392 16.7936C102.68 16.4243 103.218 16.1364 102.937 15.667C102.542 15.2665 102.035 15.0036 102.11 14.3902C101.929 14.0711 101.791 13.4389 101.247 13.6267C101.14 13.6893 101.034 13.7644 101.003 13.6893C101.14 13.4389 101.034 12.9633 101.435 12.8631C101.829 12.932 102.217 13.0008 102.542 13.3012C102.968 13.4452 103.375 13.151 103.731 12.9382C103.763 12.9007 103.819 12.8694 103.869 12.8694C104.357 12.6816 104.939 12.1684 105.402 12.5752C105.584 12.6441 105.797 12.6441 106.01 12.6441C106.229 12.6065 106.485 12.5377 106.66 12.3812C106.767 12.0558 106.698 11.5426 106.617 11.2234C106.441 11.0481 106.229 10.9355 106.01 10.8604C105.734 10.7477 105.434 10.7164 105.121 10.7164C104.789 10.8228 105.071 11.2922 104.789 11.4737C104.545 11.5426 104.232 11.8054 103.982 11.505C104.301 10.6789 105.259 10.2408 105.872 9.5398L105.947 9.10169C105.734 8.4195 105.052 8.92019 104.62 8.73869C104.795 8.03772 105.34 7.54329 105.265 6.77348C105.127 6.30408 104.733 5.93482 104.201 5.97863C104.019 6.05373 103.832 6.16013 103.744 6.29782C103.268 6.88613 103.45 7.83745 102.899 8.45079C102.624 8.77624 102.405 9.53354 101.866 9.24564L100.258 9.6149C99.6508 9.68375 99.2565 10.0968 98.6244 10.053C98.5743 10.053 98.5117 10.0968 98.4679 10.0968C97.792 10.3096 97.1098 10.4536 96.5089 10.7164C96.39 11.2922 97.0722 11.2609 97.3226 11.6615C97.2162 11.9181 97.0409 12.0996 96.7781 12.206C96.3587 12.4313 95.8581 12.3624 95.5263 12.062C95.5097 12.0328 95.4867 12.0182 95.4575 12.0182C94.744 11.7741 94.8504 12.763 94.356 12.9007C94.2433 12.9382 94.0681 12.8694 94.1056 12.7192C94.4686 11.9181 95.2823 11.2985 95.4638 10.4911C95.4638 10.4598 95.5076 10.4223 95.5076 10.3847C95.5076 10.3472 95.4638 10.3472 95.4638 10.3472C95.2885 9.98416 94.9631 9.58361 94.5375 9.65871C94.3184 9.6149 94.3622 9.36456 94.3622 9.22687C94.7941 8.67611 95.0757 7.84371 94.7503 7.23036C94.4999 6.85484 94.2183 6.48558 93.7552 6.55443C93.4985 6.71715 93.098 6.81103 93.0354 7.14274C93.1731 7.84371 92.7162 8.42576 92.5347 9.04537C92.2468 9.62116 91.9276 10.2032 91.7837 10.8166C92.034 11.3673 92.7162 11.286 93.098 11.6552C92.8977 12.6754 91.7837 13.3012 91.3518 14.1962C91.1829 14.5655 91.1015 14.9285 91.2141 15.4041C91.2517 15.4041 91.283 15.4417 91.3518 15.4792C91.646 15.7734 91.646 16.2866 92.1091 16.418C92.3532 16.5745 92.6724 16.418 92.929 16.3179C93.0041 16.1301 92.8602 15.9925 92.7475 15.836C92.7225 15.5168 92.566 15.0349 92.8602 14.8534C93.073 15.0349 92.9666 15.4354 93.1794 15.6607C93.5424 15.6607 93.8615 15.9925 94.2245 15.6983C94.6501 15.2226 94.0806 14.8221 94.0493 14.3527C94.1119 14.1336 94.3685 14.021 94.6126 14.0648C94.8316 14.1274 94.8629 14.3527 94.9756 14.5279C94.8316 15.0349 94.9756 15.5794 95.2259 16.0613C95.3636 16.2053 95.4387 16.4118 95.47 16.5995C95.6077 17.0439 95.6077 17.5509 96.0896 17.7699C96.5841 18.208 97.0159 17.507 97.3351 17.2504C97.7356 17.1816 98.0924 17.0752 98.4804 16.9563C98.9498 16.8123 99.413 16.6746 99.9137 16.6371C100.058 16.7059 100.095 16.8499 100.058 16.9563C99.8073 17.6197 99.0938 17.845 98.4804 17.9514H98.4491C98.0173 18.0203 97.4916 18.3457 97.0597 18.0516C96.8344 17.9514 96.5653 18.014 96.3775 18.2393C96.2336 19.2532 95.7955 20.192 95.4763 21.1934C95.445 21.3248 95.4074 21.4437 95.3699 21.5877C95.3699 21.7754 95.4074 21.9882 95.4763 22.1697C95.6953 22.6391 96.196 23.0397 96.4088 23.5529C96.5966 23.5904 96.8344 23.5904 97.0222 23.5529C97.4916 23.2274 97.9797 22.8957 98.4804 22.6391C99.0249 22.345 99.5569 22.1322 100.17 22.0258L100.346 22.1697C100.383 23.5904 100.101 25.055 99.3441 26.2504C99.0562 26.363 98.7683 26.4006 98.4804 26.363L98.4491 26.3818ZM95.445 15.0912V15.135L95.3761 15.0537L95.445 14.9848C95.4742 14.9848 95.4971 14.9952 95.5138 15.0161L95.445 15.0912ZM98.4491 11.6052C98.737 11.4862 99.1 11.4549 99.3504 11.2359C100.07 11.0606 100.677 10.804 101.428 10.7602L102.148 10.1406C102.355 10.3221 102.574 10.6914 102.824 10.7602C102.937 10.9793 102.611 11.1295 102.574 11.3423C102.211 11.6364 101.966 12.1121 101.397 12.0307C101.065 11.8555 101.034 11.4612 100.633 11.3423C99.8511 11.2359 99.2064 11.5551 98.4491 11.674H98.2426C98.3177 11.6364 98.3803 11.6052 98.4491 11.6052ZM98.2739 12.9508C98.349 12.9508 98.374 12.9132 98.4491 12.9132C98.737 12.8381 98.9936 12.7693 99.2815 12.9132C99.1626 13.2449 98.9185 13.6017 98.6056 13.7456C98.5555 13.7456 98.4929 13.7456 98.4491 13.7081C98.2739 13.6455 98.1988 13.4139 98.0611 13.2825C98.0173 13.0884 98.1299 12.9883 98.2739 12.9508ZM98.4491 15.8548C98.1299 16.0112 97.8045 16.1489 97.4603 16.1927C97.0973 16.0488 96.8031 15.7546 96.3775 15.7171C96.2398 15.279 96.534 14.6281 96.0208 14.3402C95.9832 14.2213 95.9832 14.1149 96.1021 14.1149C96.9471 13.8645 96.9471 14.9911 97.5229 15.2852C97.8483 15.2477 98.1738 15.2164 98.4491 15.0975C99.1 14.916 99.7071 14.6656 100.383 14.5843L100.852 14.0085C100.852 14.3402 101.065 14.916 100.746 15.135C99.8511 15.135 99.1626 15.5794 98.4491 15.8548Z" fill="#9A0036"/>
<path d="M91.3327 18.9454C91.0824 18.5887 90.9385 18.0317 90.4753 18.5449C89.9809 19.6777 89.7618 20.9106 89.1172 21.9746C88.798 22.5879 88.1471 22.1498 87.7528 22.5504C87.6464 23.3515 88.3662 23.896 88.7166 24.5469C88.8981 25.0664 89.4239 25.348 89.9746 25.4607C90.2563 25.4231 90.6506 25.348 90.7257 25.0226C90.7257 23.4954 91.0073 22.0747 91.2576 20.6665C91.2576 20.5163 91.2952 20.3724 91.3265 20.2159C91.4078 19.8592 91.5455 19.4962 91.4767 19.1394C91.4016 19.0956 91.3703 19.033 91.3265 18.9517L91.3327 18.9454Z" fill="#9A0036"/>
<path d="M67.931 25.6766C67.7182 25.3198 67.6431 24.6189 67.931 24.2559C68.4693 23.8991 69.2891 24.0368 69.9087 23.7176C70.1528 23.3797 69.9713 22.8727 69.94 22.4784C69.5457 21.79 68.682 22.0028 68.1501 21.6022C67.9373 21.3769 68.0437 21.0452 68.1501 20.8324C68.1876 20.5445 68.4755 20.3192 68.7196 20.3192C69.2954 20.5069 69.7272 21.0139 70.3281 20.945C70.5847 20.945 70.7662 20.6884 70.8288 20.5445C70.7224 19.7309 70.5096 18.9736 70.0527 18.3227C68.682 17.3714 68.826 19.7309 67.543 19.5494C67.3302 19.5118 67.1111 19.5994 66.8983 19.6307C66.6104 19.6996 66.3288 19.7309 66.0409 19.5494C66.2224 19.1238 66.5353 18.8171 66.8983 18.5793C67.1174 18.4228 67.3677 18.2789 67.5743 18.1036C68.294 17.5904 69.0826 17.2587 69.7585 16.7142C69.8274 16.3825 69.7961 16.0633 69.7272 15.7379C69.2203 14.9993 68.4317 15.7003 67.8997 15.8067L66.8983 15.9256L63.2871 16.3575L62.8552 16.7205C62.7551 16.9458 62.8553 17.1586 62.9304 17.265C63.1119 17.7531 63.5374 17.7844 63.9755 17.8157C64.2572 17.8157 64.6828 17.7844 64.7954 18.0348C64.6202 18.5417 63.9255 18.6544 63.6125 19.1676C63.1119 19.7371 62.1105 19.9937 61.8977 20.8324C62.2544 21.2455 62.68 22.0028 63.3998 21.815C63.6501 21.6335 63.794 21.3393 64.1195 21.1203C64.6264 21.089 65.2335 20.7635 65.6216 21.2455C65.7342 21.4583 65.6216 21.7149 65.6216 21.9652C65.2961 22.9353 64.1821 22.541 63.5061 23.0167C63.043 23.2044 62.6487 22.6537 62.1543 22.9353C62.0479 23.4172 61.6473 23.7489 61.7224 24.2496C61.9728 24.8004 62.6112 24.9068 63.1181 25.0132C63.7628 24.9819 64.3636 24.694 65.052 24.5813C65.4463 24.8004 65.4088 25.3136 65.3712 25.6703C64.9456 25.977 64.4137 25.977 63.938 26.1147C63.0493 26.4088 61.7975 25.8643 61.1592 26.7656C61.0152 26.9533 60.9839 27.2788 61.1216 27.4978C61.4784 27.8296 61.9415 27.9422 62.4046 28.1175C63.8066 27.5729 65.3399 27.429 66.9171 27.3664H69.4957C70.0715 27.3163 70.6723 27.5041 71.0666 27.8984C71.7926 28.1988 72.3246 27.5041 72.7502 27.0347C72.963 26.7718 72.7502 26.4839 72.6062 26.2712C71.392 24.6251 69.527 26.2336 67.956 25.6828L67.931 25.6766Z" fill="#9A0036"/>
<path d="M57.6291 19.9998C57.9233 19.9247 58.2487 19.9685 58.4553 19.6806C59.4942 18.8795 58.1298 17.5965 58.9872 16.8016C60.3829 16.0819 62.0352 16.1069 63.4684 15.5937C64.5762 15.4498 65.7215 15.237 66.8982 15.0868C68.2563 14.9428 69.6144 14.8677 70.9788 15.1306L71.0852 15.237L70.5157 15.7815C70.4155 16.0068 70.3029 16.3635 70.4844 16.5826C70.7285 16.8329 71.1227 16.6514 71.4732 16.6514L73.839 16.5826C74.4774 16.5826 75.0532 16.908 75.7354 16.689C75.9795 16.5826 76.1609 16.2884 76.2361 16.0381C76.3049 15.1243 75.1596 14.8302 74.59 14.3983C72.8063 13.5221 70.4781 13.7724 68.4315 13.9978C67.9308 14.1417 67.4051 14.1417 66.8982 14.1417C66.7855 14.173 66.6478 14.173 66.5414 14.173C66.4413 13.9227 66.2222 14.1417 66.047 14.2043C65.9406 14.173 65.903 14.0729 65.8655 13.9978C65.9719 13.8476 66.1534 13.8163 66.2973 13.8476C66.4413 13.6973 66.6916 13.6598 66.9044 13.6598C67.0484 13.6285 67.2299 13.6285 67.3363 13.5847C67.7306 13.303 68.1937 13.6285 68.5567 13.4846C69.2702 12.7085 69.9524 11.801 70.8036 11.2565C70.9162 10.9623 71.0915 10.6744 70.9475 10.3427C70.1652 9.79821 69.3015 9.4665 68.3377 9.29126C67.9872 9.3601 67.7931 9.76066 67.5178 9.94216C67.2987 10.011 67.1235 10.0486 66.9044 10.0924C66.047 10.2676 65.1896 10.374 64.2946 10.4116C63.725 10.0924 63.0428 10.3365 62.5046 10.5242C61.9726 11.9074 63.6812 12.7773 63.6812 14.1542C62.7925 14.8865 61.6096 14.924 60.5394 15.2557C59.6757 15.3997 58.4553 15.9442 57.748 15.1869C57.3913 15.0304 56.9907 15.2182 56.7154 15.4372C56.1333 16.2759 56.0957 17.5527 56.3148 18.5791C56.4149 19.2362 56.9156 19.8433 57.6416 19.9873L57.6291 19.9998ZM65.3585 11.8448C65.6777 11.4505 66.4037 11.4067 66.8982 11.6007C66.942 11.632 67.0046 11.6695 67.0421 11.6695C67.0046 11.7822 66.9733 11.851 66.8982 11.9261C66.7104 12.1076 66.5039 12.2453 66.2911 12.3955C65.9656 12.4394 65.6777 12.4394 65.3961 12.3955C65.1833 12.2516 65.2459 12.0263 65.3585 11.851V11.8448Z" fill="#9A0036"/>
<path d="M64.6774 7.39847C64.9278 7.44228 65.1406 7.11057 65.3972 7.33588C65.3972 7.44854 65.3972 7.58623 65.2908 7.61752C64.6462 7.80528 63.6761 7.69262 63.3944 8.53128C63.432 9.00068 63.3569 9.54518 63.7199 9.90818C64.3583 10.0584 64.9716 9.80179 65.5474 9.58273C66.0105 9.44504 66.4424 9.36368 66.8993 9.30109C67.7254 9.11334 68.5828 8.9819 69.3339 8.56257L69.6906 7.80528C69.8033 7.25452 69.1899 7.44228 69.0084 7.11057L68.4013 7.07302C68.151 6.9541 68.2949 6.71628 68.2574 6.45967C68.8332 5.68986 70.2351 6.42212 70.6607 5.35815C70.7984 5.03896 70.5543 4.73854 70.304 4.53201C69.5154 4.53201 69.2713 3.68083 68.7268 3.28028C68.1573 3.06749 67.5502 2.92354 66.8993 2.88599C66.7115 2.88599 66.5425 2.92354 66.361 2.92354C66.142 3.09878 65.7915 3.28028 65.9354 3.61199C65.7226 4.01254 66.1107 4.53201 65.7539 4.88875C64.7901 5.25175 63.7887 5.1078 62.9688 5.54591C62.7873 6.09041 63.2254 6.52852 63.432 6.9541C63.7199 7.39221 64.183 7.49861 64.6837 7.39221L64.6774 7.39847Z" fill="#9A0036"/>
<path d="M164.79 11.1581C165.691 10.6136 166.755 10.6136 167.756 10.4946C168.22 10.4946 168.658 10.8013 169.052 10.6511C169.509 10.2443 169.841 9.69354 169.797 9.00509C168.908 7.50928 166.943 8.4293 165.603 8.64209C164.971 8.98006 164.001 8.64209 163.494 9.25544C163.213 9.8062 163.644 10.3131 163.901 10.8013C164.189 10.9453 164.439 11.1956 164.79 11.1581Z" fill="#9A0036"/>
<path d="M154.875 18.3605C155.307 20.2569 154.48 22.0719 154.631 23.9307C154.812 24.5441 154.518 25.3139 155.088 25.7207C155.375 25.9022 155.663 26.3716 156.101 26.334C156.452 26.1901 156.671 25.7895 156.877 25.4578C156.846 22.7979 157.097 20.3257 157.14 17.6721C157.103 17.3028 156.709 17.0587 156.59 16.7208C156.633 16.508 156.771 16.2889 156.953 16.2138C157.635 16.1012 158.098 15.3752 158.386 14.7931C159.137 14.2048 158.498 13.2284 158.423 12.54C158.104 12.2396 158.067 11.8077 157.823 11.5073C157.779 11.1881 157.916 10.9378 158.129 10.6812L159.888 9.41693L160.076 9.30427C160.176 8.90372 160.138 8.42806 159.925 8.02751C159.925 8.02751 159.925 7.98996 159.894 7.98996C159.462 7.18885 158.68 6.46285 157.679 6.56299C156.352 7.45172 155.638 9.00386 154.286 9.91762C153.892 10.1367 153.529 10.4997 153.642 11.0567C154.03 11.814 155.031 12.0268 155.313 12.9093C155.031 14.0295 153.911 14.7994 153.129 15.5942C152.315 16.2576 151.639 17.2715 150.744 17.6721C150.494 18.0726 150.494 18.4732 150.594 18.8299C151.057 19.3807 151.17 20.3257 152.027 20.4321C152.484 20.3946 152.59 19.8876 152.878 19.606C153.273 19.0239 153.642 18.4356 154.286 18.1102C154.493 18.179 154.843 18.0726 154.881 18.3605H154.875Z" fill="#9A0036"/>
<path d="M171.806 13.9976C171.381 13.3405 170.699 12.7647 169.766 12.9024C168.151 13.2278 166.512 13.5157 164.903 13.8474C163.62 14.1353 162.256 14.2042 160.935 14.3231C160.647 14.3544 160.184 14.1666 159.896 14.4232C159.827 14.4608 159.79 14.5672 159.721 14.7174C159.608 15.0053 159.746 15.2619 159.896 15.5623C159.928 15.6311 160.003 15.7 160.003 15.7375C160.14 16.2445 160.647 16.6075 161.186 16.5449C162.475 16.1318 163.858 15.8815 165.229 15.7375L165.404 15.8377C165.404 18.7855 165.441 21.7834 165.254 24.6874C165.254 25.0567 165.254 25.4822 164.972 25.7827C164.115 26.177 163.47 25.1631 162.65 25.0567C162.393 25.1631 162.137 25.4134 162.256 25.7576C162.719 26.4336 163.545 26.953 164.259 27.4537C165.041 27.8543 165.692 28.6929 166.687 28.6241C167.407 28.3362 167.513 27.4913 167.72 26.8341L167.682 19.0421C167.832 18.1721 167.757 17.2271 167.757 16.282C167.72 15.9941 167.219 15.8377 167.513 15.5623L170.448 15.2994C170.98 15.2994 171.45 15.8439 171.95 15.4434C172.05 15.0053 171.975 14.4608 171.8 13.9914L171.806 13.9976Z" fill="#9A0036"/>
<path d="M17.887 12.0544L18.1687 12.5739L20.0525 16.3103H17.524C18.6068 22.8694 17.1673 28.6148 14.5449 33.6405H20.1714L21.5421 29.8227H25.9231L27.3251 33.6405H32.8327C29.7785 28.2956 29.1776 22.4188 30.1039 16.2665H27.4127L29.3779 12.455L29.5844 12.0544H17.8933H17.887Z" fill="#9A0036"/>
<path d="M14.708 18.381H9.35689C10.8026 14.1565 13.9445 11.0146 18.1691 9.44996C19.2894 9.05567 20.4973 8.72396 21.7803 8.56123V5.58838C20.4973 5.7824 19.2956 6.10785 18.1691 6.52092C11.3722 8.76151 6.94731 13.6683 5.7832 20.9408L14.9521 21.0222L14.708 18.3748V18.381Z" fill="#9A0036"/>
<path d="M33.4086 27.1395L38.3842 27.177C37.1825 31.2889 34.8418 33.8863 32.3947 35.6199C31.4308 36.3084 30.4169 36.8216 29.3718 37.2659C27.5317 37.9857 25.5978 38.3612 23.6701 38.3612C21.7738 38.3049 19.8899 37.9857 18.1625 37.3097C15.2147 36.2207 12.6925 34.2555 11.0402 31.6394C10.1077 30.2312 9.22519 28.7041 8.95606 27.0143H14.0569L14.7015 24.3231L5.69531 24.2417C5.9394 29.7931 8.75579 34.6123 12.9741 37.704C14.5388 38.8243 16.2599 39.7569 18.1625 40.3702C19.7647 40.8834 21.4546 41.1713 23.2633 41.1713C23.3822 41.1713 23.545 41.1275 23.6639 41.1275C25.7104 41.09 27.6381 40.7645 29.3655 40.245C36.4065 38.0357 41.1067 32.04 41.7138 24.4169H32.7827L33.3898 27.1457L33.4086 27.1395Z" fill="#9A0036"/>
<path d="M29.3774 6.51974C28.3259 6.15048 27.1681 5.86884 25.9727 5.62476V8.48496C27.1743 8.68523 28.3322 9.05449 29.3774 9.48634C33.6458 11.2137 36.5748 14.512 38.1082 18.4863H32.7257V21.2588L41.7319 21.215C40.2048 13.7047 36.1304 8.75408 29.3836 6.51348L29.3774 6.51974Z" fill="#9A0036"/>
<path d="M29.3781 0.677642C27.5693 0.245796 25.6855 0.00170898 23.714 0.00170898H23.6764C21.7801 0.00170898 19.94 0.245796 18.1688 0.646349C7.75446 3.13103 0 12.3813 0 23.3527C0 34.3241 7.75446 43.5681 18.1688 46.0278C19.9338 46.4659 21.7801 46.6724 23.6764 46.6724H23.714C25.6792 46.6724 27.5693 46.4346 29.3781 45.9839C39.7111 43.4492 47.428 34.249 47.428 23.3527C47.428 12.4564 39.7111 3.21239 29.3781 0.677642ZM29.3781 43.1676C27.5693 43.687 25.6855 43.9687 23.6764 43.9687C21.7801 43.9687 19.94 43.7308 18.1688 43.2427C9.28783 40.8268 2.72877 32.8345 2.72877 23.3464C2.72877 13.8583 9.28783 5.8285 18.1688 3.45022C19.9338 2.98082 21.7801 2.69918 23.6764 2.69918C25.6855 2.69918 27.5693 2.98082 29.3781 3.50029C38.184 5.94742 44.6179 13.9147 44.6179 23.3527C44.6179 32.7907 38.1777 40.7204 29.3781 43.1676Z" fill="#9A0036"/>
</g>
<defs>
<clipPath id="clip0_2011_29431">
<rect width="172" height="46.6644" fill="white"/>
</clipPath>
</defs>
</svg>
