<svg width="120" height="48" viewBox="0 0 120 48" fill="none" xmlns="http://www.w3.org/2000/svg">
<g clip-path="url(#clip0_345_2075)">
<path d="M50.9187 36.3504L49.4497 32.1597H48.1729V32.4639C48.325 32.5319 48.349 32.7 48.2369 32.9802L47.0962 36.0502C46.9561 36.4225 46.7239 36.6546 46.4077 36.7907V37.287H48.0568V36.8147C47.5965 36.7467 47.5765 36.5625 47.6605 36.2343L47.9167 35.5299H49.1295L49.3576 36.2784C49.4737 36.5906 49.3817 36.6986 48.9454 36.8107V37.323H51.415V36.8107C51.1628 36.7427 51.0267 36.6026 50.9147 36.3424L50.9187 36.3504ZM48.5411 34.9535H48.1489L48.5411 33.7887L48.9494 34.9535H48.5411Z" fill="white"/>
<path d="M45.0347 34.6053C46.3876 33.6967 45.6991 32.1597 43.934 32.1597H40.916V32.632C41.3763 32.7441 41.5364 32.7681 41.5564 33.4205V35.9822C41.5564 36.4705 41.3043 36.6306 40.896 36.8147V37.3271H44.3222C45.9353 37.235 46.3436 35.4658 45.0347 34.6053ZM42.9533 32.9802C42.9934 32.7681 43.3176 32.7 43.6138 32.7841C43.962 32.8801 44.3062 33.1363 44.3062 33.5326C44.3503 34.0449 43.99 34.3291 43.6138 34.3931C43.3176 34.4692 43.0214 34.4211 42.9533 34.2771V32.9802ZM43.6138 36.7467C43.3176 36.7707 43.0214 36.6506 42.9533 36.5345V35.0696C42.9934 34.9255 43.2936 34.8774 43.6138 34.9495C43.986 35.0175 44.3743 35.2577 44.3943 35.674C44.4143 36.4385 44.006 36.7267 43.6138 36.7467Z" fill="white"/>
<path d="M62.3577 36.2579L60.8967 34.1125L61.9694 33.1799C62.2656 32.9278 62.5858 32.7637 62.89 32.6516V32.1593H60.8967V32.6796C61.285 32.6796 61.4451 32.8837 61.2129 33.1159L59.804 34.3327L59.776 33.0759C59.844 32.8397 60.0522 32.7036 60.4124 32.6836V32.1152H57.7186V32.6356C58.0589 32.6796 58.3791 32.8397 58.3791 33.1839V35.9858C58.359 36.4461 58.0829 36.7543 57.6426 36.7543V37.3346H60.2803V36.7983C60.0482 36.7583 59.7279 36.6622 59.7279 36.4941L59.752 35.2413H59.888L61.401 37.3387H63.0901V36.8023C62.798 36.7623 62.5658 36.5501 62.3577 36.27V36.2579Z" fill="white"/>
<path d="M55.3085 32.6532C55.6968 32.7253 55.9249 32.8374 55.9569 33.2296V34.5385C55.9289 34.8187 55.8409 34.7706 55.6567 34.5064L53.9196 32.1409H52.1344V32.6532C52.5267 32.6773 52.7068 32.9094 52.7308 33.3297V36.1635C52.6868 36.6318 52.4547 36.7079 52.0464 36.7519V37.3123H53.9236V36.816C53.6034 36.7279 53.2832 36.6318 53.2832 36.1835V34.2143C53.2832 33.9341 53.3753 33.862 53.6234 34.1622L55.8169 37.3283H56.4373L56.4813 33.2576C56.4373 32.9494 56.7375 32.7693 57.1017 32.6532V32.0889H55.3165V32.6532H55.3085Z" fill="white"/>
<path d="M82.4504 33.4644H82.9307L83.5711 32.816C83.7793 32.6799 84.1435 32.7239 84.1435 33.0962V36.1021C84.1635 36.5665 83.8673 36.7746 83.435 36.8186V37.331H86.1728V36.8466C85.7646 36.8186 85.5124 36.6585 85.5564 36.2863V33.0521C85.6485 32.7039 85.9247 32.5838 86.3169 32.9361L86.8132 33.5165H87.2976V32.1436H82.4424V33.4684L82.4504 33.4644Z" fill="white"/>
<path d="M92.3376 36.3504L90.8686 32.1597H89.5878V32.4639C89.7239 32.5319 89.7519 32.7 89.6358 32.9802L88.4871 36.0502C88.351 36.4225 88.1228 36.6546 87.8066 36.7907V37.287H89.4517V36.8147C88.9914 36.7467 88.9754 36.5625 89.0635 36.2343L89.3156 35.5299H90.5524L90.7606 36.2784C90.8726 36.5906 90.8006 36.6986 90.3723 36.8107V37.323H92.8179V36.8107C92.5698 36.7427 92.4297 36.6026 92.3376 36.3424V36.3504ZM89.932 34.9535H89.5438L89.932 33.7887L90.3443 34.9535H89.932Z" fill="white"/>
<path d="M101.559 32.632C101.88 32.7681 101.992 32.9482 101.88 33.2804L101.423 34.9975L100.991 33.3524C100.899 33.0242 100.943 32.8361 101.219 32.608V32.1597H99.1137V32.724C99.4339 32.8361 99.618 33.1643 99.574 33.3725L99.1858 34.8814L98.7014 33.1803C98.6374 32.9282 98.6854 32.8601 98.8856 32.7441V32.1837H96.8042L96.7842 32.632C97.0804 32.7681 97.2605 32.9802 97.3325 33.2964L98.3652 37.3271H99.0897L99.9222 34.7213L100.583 37.3271H101.427L102.504 33.1803C102.572 32.9482 102.756 32.8121 103.028 32.724V32.1597H101.567V32.632H101.559Z" fill="white"/>
<path d="M108.103 36.3499L106.634 32.1592H105.353V32.4634C105.517 32.5314 105.517 32.6995 105.401 32.9797L104.257 36.0497C104.145 36.422 103.908 36.6541 103.596 36.7902V37.2865H105.241V36.8142C104.765 36.7462 104.741 36.5621 104.837 36.2338L105.081 35.5294H106.322L106.546 36.2779C106.638 36.5901 106.57 36.6981 106.134 36.8102V37.3226H108.591V36.8102C108.355 36.7422 108.223 36.6021 108.107 36.3419L108.103 36.3499ZM105.722 34.953H105.309L105.722 33.7882L106.13 34.953H105.722Z" fill="white"/>
<path d="M73.5245 32.6506C73.8727 32.7227 74.0969 32.8107 74.0769 33.179V36.253C74.0568 36.5612 73.8007 36.7653 73.4604 36.8374V37.3217H76.0662V36.7653C75.7259 36.7653 75.4538 36.6212 75.4538 36.297V35.3684C75.4257 35.0642 75.5178 34.9001 75.7299 34.8721H76.4824C76.7306 34.9241 76.8867 35.2043 76.9627 35.4805H77.423V33.7674H76.9627C76.9187 34.0395 76.7786 34.2717 76.5505 34.3237H75.5178V33.0669C75.5178 32.8307 75.5698 32.7387 75.778 32.7627H76.6185C77.0548 32.7787 77.375 33.0429 77.5791 33.5272H77.9474V32.1543H73.5285V32.6466L73.5245 32.6506Z" fill="white"/>
<path d="M112.543 32.6537C112.931 32.7258 113.167 32.8378 113.187 33.2301V34.539C113.167 34.8191 113.091 34.7711 112.895 34.5069L111.174 32.1414H109.365V32.6537C109.753 32.6777 109.961 32.9099 109.961 33.3302V36.164C109.917 36.6323 109.685 36.7084 109.272 36.7524V37.3128H111.146V36.8165C110.829 36.7284 110.505 36.6323 110.505 36.184V34.2147C110.505 33.9346 110.601 33.8625 110.845 34.1627L113.047 37.3288H113.663L113.707 33.2581C113.663 32.9499 113.956 32.7698 114.324 32.6537V32.0894H112.539V32.6537H112.543Z" fill="white"/>
<path d="M93.5015 32.632C93.9177 32.7441 94.1619 32.9082 94.1619 33.2804V36.1823C94.1379 36.5345 93.8417 36.7707 93.5015 36.8427V37.3271H96.3193V36.7907C95.7669 36.7907 95.5628 36.5946 95.5868 36.0782V33.0963C95.7029 32.8641 95.883 32.704 96.3193 32.68V32.1597H93.5015V32.632Z" fill="white"/>
<path d="M70.5738 32.1114H69.9574C68.7686 32.1835 67.5118 32.8359 67.4878 34.6571C67.4878 36.4863 68.6125 37.2668 70.0255 37.3268H70.6018C71.4984 37.3268 72.8913 36.4703 72.9113 34.8132C72.9554 32.7839 71.6065 32.1394 70.5778 32.1074L70.5738 32.1114ZM70.4818 36.7905H70.0495C68.9007 36.6304 68.8807 35.3776 68.9007 34.6811C68.9247 34.0247 69.0608 32.7719 70.0495 32.7038H70.4818C71.3904 32.8199 71.4224 34.1047 71.4464 34.7972C71.4624 35.4696 71.3063 36.6784 70.4818 36.7945V36.7905Z" fill="white"/>
<path d="M94.6707 24.7792C94.3505 24.2909 94.0543 23.7145 93.546 23.3903C92.3612 23.0821 91.1884 22.5538 90.1838 21.7813C90.0237 21.6452 90.2718 21.5491 90.3158 21.409C90.9643 21.1288 91.5046 20.5685 92.2171 20.3163C92.5333 19.9 92.061 19.4998 91.9209 19.1075C91.7408 19.0395 91.4806 18.8713 91.3045 19.0395C91.0043 19.6639 90.3158 20.0161 89.8676 20.4844C89.5233 20.6965 89.3552 21.1568 88.9469 21.2049H88.8789C88.5547 21.1849 88.4186 20.8366 88.3265 20.5965C88.3506 20.3203 88.3746 20.0841 88.5827 19.904L88.9429 19.852L89.9756 19.7639C90.2638 19.6278 90.2278 19.2276 90.2918 18.9434C90.9723 17.8987 91.3485 16.6659 91.8889 15.5412C91.9849 15.225 92.4172 15.0368 92.3532 14.6406C92.2811 14.3644 92.2091 14.1282 92.053 13.8921C90.9963 13.8921 90.0157 14.2163 88.9389 14.1963C88.8469 14.1963 88.7588 14.1963 88.6628 14.1723C88.4106 14.3084 88.4786 14.6166 88.3426 14.8207L87.8622 14.7567C87.7021 14.7567 87.566 14.9208 87.518 15.0569C87.43 15.7533 87.566 16.5939 87.3299 17.2503C87.4099 17.6906 87.6541 18.1789 87.4099 18.6192C87.3659 19.1796 87.6541 19.7159 87.2939 20.2002C87.1338 20.3243 86.8096 20.3243 86.7615 20.5524C86.7455 20.5805 86.7455 20.6245 86.7615 20.7005V20.7446C86.7455 21.0448 87.1138 21.0448 87.2498 21.2769C87.494 21.7692 87.1298 22.3016 87.2939 22.858C87.1778 23.7666 87.1978 24.7192 87.1137 25.6518C87.0217 25.8239 86.9256 25.98 86.9016 26.1641C87.1137 26.5844 87.2498 27.1448 87.7502 27.4169C87.9543 27.493 88.1824 27.3969 88.3426 27.1848L88.9389 26.1441L89.9716 24.3509C90.1958 24.1228 90.1958 23.7666 90.4519 23.6345C91.1604 24.0708 91.8208 24.6551 92.5973 25.0234C93.1697 25.3476 93.8782 25.1234 94.5026 25.1234C94.5706 25.0234 94.6627 24.9393 94.6627 24.7912L94.6707 24.7792ZM88.9229 15.4451H88.9469C89.4273 15.301 89.8395 15.0088 90.3679 15.1449C90.3679 15.4691 90.1597 15.7733 90.0397 16.1055C89.6994 16.2616 89.3392 16.3777 88.9469 16.4338C88.9069 16.4338 88.8789 16.4538 88.8309 16.4538C88.7428 16.1536 88.7148 15.7053 88.9229 15.4491V15.4451ZM88.6948 17.8026C88.7668 17.7746 88.8549 17.7346 88.9469 17.7026C89.1711 17.6385 89.4273 17.5945 89.4753 17.8707C89.4953 18.2149 89.3392 18.4551 89.1711 18.6592C89.103 18.7273 89.019 18.7793 88.9469 18.7993C88.8789 18.7993 88.8109 18.7993 88.7428 18.7753L88.6748 18.6552L88.6988 17.7986L88.6948 17.8026ZM88.9469 24.3669C88.9229 24.391 88.9229 24.415 88.9069 24.435C88.7428 24.5551 88.6468 24.7832 88.4186 24.7392C88.3986 24.0667 88.2145 23.3463 88.3506 22.6658C88.5347 22.6378 88.7388 22.5978 88.9469 22.5978C89.2231 22.5978 89.4753 22.6898 89.6074 22.994C89.4953 23.4864 89.1711 23.9026 88.9469 24.3669Z" fill="white"/>
<path d="M82.5908 23.495C82.6148 23.519 82.6588 23.543 82.6788 23.543C82.891 23.5671 83.2072 23.6351 83.3273 23.3349C83.4874 23.1468 83.3953 22.8986 83.2792 22.7025C83.0271 22.5664 82.8189 22.3302 82.5908 22.1221C82.4787 22.0301 82.3346 21.918 82.2025 21.874C81.9544 21.7299 81.6262 21.7779 81.442 21.938C81.3059 22.3142 81.6542 22.5184 81.8103 22.7785C82.0424 23.0067 82.3346 23.2909 82.5908 23.495Z" fill="white"/>
<path d="M83.5711 25.4094C84.4637 24.873 85.1722 23.9844 86.1728 23.7563C86.477 23.5922 86.6851 23.312 86.7692 22.9638V22.8477C86.7052 22.6876 86.449 22.6876 86.3409 22.5715C86.1728 22.4074 85.8366 22.6195 85.8166 22.3193C86.0647 21.779 87.0694 21.3587 86.6131 20.6623C86.409 20.4541 86.1608 20.29 85.8606 20.334C85.6525 20.4221 85.5844 20.6382 85.5844 20.8504C85.4243 21.0145 85.3763 21.4748 85.1081 21.3307C85.0841 20.9905 84.944 20.5862 85.1481 20.266C85.3323 19.7537 85.9727 20.0979 86.2729 19.7296C86.385 19.4695 86.2248 19.1453 86.1128 18.8691C85.8166 18.3407 85.3122 19.1733 85.0401 18.6129C84.968 18.4768 85.1081 18.4008 85.1521 18.3407C85.5204 18.1766 85.9327 18.2407 86.3009 18.0606C86.389 17.9125 86.413 17.7043 86.3449 17.5442L85.8606 16.9158C85.6084 16.5916 85.1722 16.9158 84.8279 16.8478L83.387 17.9885L83.3189 18.2687C83.387 18.4568 83.5431 18.5689 83.7072 18.6369C83.9113 18.8691 83.6592 19.1733 83.6832 19.4294C83.431 19.7817 82.9747 19.7096 82.5865 19.8417C82.4904 19.8938 82.3743 19.9618 82.2863 20.0539C82.2142 20.3781 82.4744 20.6342 82.5865 20.9184C82.6105 20.9184 82.6105 20.9464 82.6105 20.9625C82.9067 21.1986 83.1588 20.8704 83.407 20.8504C83.5711 20.8264 83.7552 20.6903 83.8953 20.8264C84.0074 21.755 83.6632 22.5915 83.7272 23.5001C83.6031 23.9204 83.0908 23.8804 82.8346 24.1525C82.7506 24.2006 82.6785 24.2246 82.5905 24.2246C82.4304 24.1966 82.2703 24.1125 82.1101 24.1806C81.7939 24.2726 81.858 24.6409 81.7939 24.901C81.906 25.1812 82.2222 25.2453 82.4344 25.4134C82.4784 25.4134 82.5464 25.4374 82.5945 25.4574C82.9387 25.5535 83.3029 25.6015 83.5791 25.4134L83.5711 25.4094Z" fill="white"/>
<path d="M82.5902 17.6069C82.6582 17.5349 82.7263 17.4669 82.7703 17.3988C83.6869 16.7704 84.5555 15.9298 85.4881 15.3735C85.9044 15.5576 86.3407 15.6256 86.7689 15.7417C86.797 15.7417 86.817 15.7657 86.865 15.7657C87.3893 15.6256 87.0932 15.1613 87.1172 14.8091C87.0451 14.629 86.905 14.5089 86.7649 14.4129C86.5848 14.3008 86.3807 14.2287 86.2166 14.1167L86.0124 13.6924L85.8924 13.4402C85.4681 13.3442 85.0718 13.044 84.6556 13.3642C84.0391 14.1567 83.3107 14.9052 82.5782 15.6457C81.9618 16.2781 81.3454 16.8825 80.741 17.5309L80.5889 17.5589C80.3327 17.6029 80.2647 17.8591 80.2166 18.0472C80.2166 18.4635 79.9885 18.9718 80.3728 19.3241C80.4888 19.3961 80.721 19.3961 80.8371 19.3241C81.4975 18.8558 82.0258 18.1833 82.5742 17.6029L82.5902 17.6069Z" fill="white"/>
<path d="M62.0817 19.9209C62.3138 19.5446 62.8622 19.3605 62.6541 18.8682C62.518 18.3078 61.9936 18.4239 61.6014 18.2398C61.3972 18.1957 61.2812 17.9396 61.049 17.9836C60.8929 18.0276 60.7528 18.2117 60.7088 18.3798C60.6607 19.0123 61.2611 19.3845 61.4613 19.8448C61.6214 19.9449 61.8976 20.0129 62.0777 19.9249L62.0817 19.9209Z" fill="white"/>
<path d="M62.3133 16.2415C62.5174 16.2135 62.8617 16.3336 62.9257 16.0054C63.0458 15.6331 63.2059 15.2889 63.406 14.9607C63.434 14.9167 63.4741 14.8486 63.5221 14.7766C63.6181 14.6365 63.5061 14.5164 63.406 14.3803C63.362 14.3363 63.342 14.2843 63.3179 14.2362C63.2059 14.0321 62.9257 13.9641 62.7015 13.912C62.1532 13.868 61.4447 13.852 61.1205 14.4003C61.0285 14.7966 61.3967 15.0808 61.5608 15.397C61.7409 15.7012 61.901 16.1255 62.3133 16.2415Z" fill="white"/>
<path d="M66.243 14.3307C66.7954 14.5828 67.3477 14.1665 67.8961 14.0665H67.9601C68.4164 14.1185 68.9248 14.3026 69.313 13.9584C69.8133 13.6022 70.5698 13.9744 71.1022 13.5541C71.2343 13.2299 70.842 13.1339 70.754 12.8817C70.3377 12.6936 69.9735 12.9738 69.5892 12.9297C69.3571 12.8817 69.313 12.6496 69.357 12.4614C69.1729 11.741 68.4685 12.0892 67.9601 12.1812C67.8961 12.2053 67.8481 12.2053 67.784 12.2053C67.688 12.3894 67.8281 12.5055 67.9601 12.6255C68.1002 12.7416 68.2603 12.8817 68.1683 13.0898C68.1002 13.1339 68.0282 13.1619 67.9601 13.1859C67.6639 13.298 67.3477 13.322 67.0275 13.4221C66.7513 13.5581 66.3191 13.4221 66.0389 13.6502C66.0389 13.6502 66.0189 13.6502 65.9949 13.6702C65.9708 13.8143 65.9949 13.9304 66.0389 14.0265C66.1069 14.1345 66.179 14.2306 66.243 14.3307Z" fill="white"/>
<path d="M69.5186 14.3748C68.9982 14.4829 68.4939 14.631 67.9655 14.7471C67.6694 14.7911 67.3531 14.8432 67.0049 14.8592C66.7407 14.9272 66.8008 15.2554 66.8008 15.4395C67.165 15.8118 67.5533 15.7197 67.9655 15.5836C68.2657 15.4636 68.586 15.3555 68.8822 15.3555C69.2024 15.2114 69.6587 15.3555 69.8868 15.0033C69.9549 14.8872 69.9749 14.6991 69.9308 14.559C69.8668 14.3949 69.6827 14.3308 69.5186 14.3748Z" fill="white"/>
<path d="M71.3357 17.8884C71.2837 17.8643 71.2117 17.8403 71.1236 17.8403C70.7994 18.0084 70.9635 18.3927 70.9835 18.7009C71.0716 18.793 71.1876 18.9531 71.3357 19.0011C71.3918 19.0251 71.4638 19.0251 71.5359 19.0251C71.6559 18.9491 71.764 18.813 71.736 18.6489C71.6559 18.3927 71.6039 18.0205 71.3357 17.8844V17.8884Z" fill="white"/>
<path d="M73.4087 18.5846C73.2046 18.4205 73.0925 18.0242 72.7923 18.0122H72.7043C72.4041 18.0963 72.4041 18.4005 72.312 18.6566C72.3881 18.8448 72.3881 19.0769 72.5602 19.217C72.6322 19.217 72.7043 19.241 72.7923 19.241C73.0005 19.293 73.2326 19.3611 73.4087 19.193C73.4768 18.9568 73.4768 18.8207 73.4087 18.5846Z" fill="white"/>
<path d="M67.9616 26.2056C67.7374 26.1576 67.5293 26.0895 67.3292 25.9974C67.2091 25.9694 67.121 26.0895 67.097 26.1576C67.2571 26.5578 67.6894 26.838 67.9656 27.1382C67.9656 27.1382 67.9656 27.1542 67.9936 27.1542C68.4019 27.4864 68.7901 27.9507 69.3465 27.9507C69.6147 27.9507 69.6867 27.6465 69.8508 27.4824C70.2151 26.1776 70.4472 24.8727 70.7834 23.5919C70.7994 23.2917 71.0156 23.0315 70.9155 22.7073C70.7994 22.3351 70.5112 22.1549 70.211 21.9908C69.8668 21.7307 69.5506 22.0789 69.2784 22.1549C68.8822 22.4271 68.4219 22.5232 67.9656 22.5912C67.8055 22.6152 67.6454 22.6352 67.4612 22.6593C67.3732 22.5472 67.4412 22.331 67.5133 22.195C67.5533 21.9388 67.7374 21.7987 67.9656 21.7267C68.1737 21.6386 68.4019 21.5906 68.562 21.5145C68.9983 21.4024 69.4546 21.6106 69.8188 21.4265C70.139 21.0062 70.211 20.4938 70.4832 20.0736C70.6673 19.8374 71.0116 19.6533 70.8315 19.3531C70.5793 19.0969 70.2551 18.9288 70.3031 18.5366C70.187 18.3324 70.099 17.9282 69.7507 18.0482C69.6827 18.0883 69.6147 18.1363 69.5946 18.0883C69.6827 17.9282 69.6147 17.624 69.8708 17.5599C70.123 17.604 70.3712 17.648 70.5793 17.8401C70.8515 17.9322 71.1116 17.744 71.3398 17.608C71.3598 17.5839 71.3958 17.5639 71.4278 17.5639C71.7401 17.4439 72.1123 17.1156 72.4085 17.3758C72.5246 17.4198 72.6607 17.4198 72.7967 17.4198C72.9368 17.3958 73.1009 17.3518 73.213 17.2517C73.2811 17.0436 73.237 16.7154 73.185 16.5112C73.0729 16.3992 72.9368 16.3271 72.7967 16.2791C72.6206 16.207 72.4285 16.187 72.2284 16.187C72.0162 16.2551 72.1963 16.5553 72.0162 16.6713C71.8601 16.7154 71.66 16.8835 71.4999 16.6914C71.704 16.163 72.3164 15.8828 72.7087 15.4345L72.7567 15.1544C72.6206 14.7181 72.1843 15.0383 71.9082 14.9222C72.0202 14.4739 72.3685 14.1577 72.3204 13.6654C72.2324 13.3652 71.9802 13.129 71.64 13.157C71.5239 13.2051 71.4038 13.2731 71.3478 13.3612C71.0436 13.7374 71.1597 14.3458 70.8074 14.7381C70.6313 14.9462 70.4912 15.4305 70.147 15.2464L69.1183 15.4826C68.7301 15.5266 68.4779 15.7908 68.0736 15.7627C68.0416 15.7627 68.0016 15.7908 67.9736 15.7908C67.5413 15.9269 67.105 16.0189 66.7208 16.187C66.6447 16.5553 67.081 16.5353 67.2411 16.7914C67.1731 16.9555 67.061 17.0716 66.8929 17.1397C66.6247 17.2837 66.3045 17.2397 66.0924 17.0476C66.0817 17.0289 66.067 17.0196 66.0483 17.0196C65.592 16.8635 65.6601 17.4959 65.3439 17.5839C65.2718 17.608 65.1597 17.5639 65.1838 17.4679C65.4159 16.9555 65.9362 16.5593 66.0523 16.0429C66.0523 16.0229 66.0803 15.9989 66.0803 15.9749C66.0803 15.9509 66.0523 15.9509 66.0523 15.9509C65.9403 15.7187 65.7321 15.4626 65.4599 15.5106C65.3198 15.4826 65.3479 15.3225 65.3479 15.2344C65.624 14.8822 65.8042 14.3498 65.596 13.9576C65.4359 13.7174 65.2558 13.4813 64.9596 13.5253C64.7955 13.6294 64.5393 13.6894 64.4993 13.9015C64.5874 14.3498 64.2952 14.7221 64.1791 15.1183C63.995 15.4866 63.7908 15.8588 63.6988 16.2511C63.8589 16.6033 64.2952 16.5513 64.5393 16.7874C64.4113 17.4398 63.6988 17.8401 63.4226 18.4125C63.3145 18.6486 63.2625 18.8808 63.3345 19.185C63.3586 19.185 63.3786 19.209 63.4226 19.233C63.6107 19.4211 63.6107 19.7494 63.9069 19.8334C64.063 19.9335 64.2672 19.8334 64.4313 19.7694C64.4793 19.6493 64.3872 19.5612 64.3152 19.4612C64.2992 19.257 64.1991 18.9488 64.3872 18.8328C64.5233 18.9488 64.4553 19.205 64.5914 19.3491C64.8235 19.3491 65.0277 19.5612 65.2598 19.3731C65.532 19.0689 65.1677 18.8127 65.1477 18.5125C65.1878 18.3725 65.3519 18.3004 65.508 18.3284C65.6481 18.3685 65.6681 18.5125 65.7401 18.6246C65.6481 18.9488 65.7401 19.2971 65.9002 19.6053C65.9883 19.6973 66.0363 19.8294 66.0563 19.9495C66.1444 20.2337 66.1444 20.5579 66.4526 20.698C66.7688 20.9782 67.045 20.5299 67.2491 20.3658C67.5053 20.3217 67.7334 20.2537 67.9816 20.1776C68.2818 20.0856 68.578 19.9975 68.8982 19.9735C68.9902 20.0175 69.0143 20.1096 68.9902 20.1776C68.8301 20.6019 68.3738 20.746 67.9816 20.8141H67.9616C67.6854 20.8581 67.3492 21.0662 67.073 20.8781C66.9289 20.8141 66.7568 20.8541 66.6367 20.9982C66.5446 21.6466 66.2645 22.247 66.0603 22.8874C66.0403 22.9715 66.0163 23.0475 65.9923 23.1396C65.9923 23.2597 66.0163 23.3957 66.0603 23.5118C66.2004 23.812 66.5206 24.0682 66.6567 24.3964C66.7768 24.4204 66.9289 24.4204 67.049 24.3964C67.3492 24.1883 67.6614 23.9761 67.9816 23.812C68.3298 23.6239 68.67 23.4878 69.0623 23.4198L69.1744 23.5118C69.1984 24.4204 69.0183 25.357 68.5339 26.1215C68.3498 26.1936 68.1657 26.2176 67.9816 26.1936L67.9616 26.2056ZM66.0403 18.9849V19.0129L65.9963 18.9608L66.0403 18.9168C66.059 18.9168 66.0737 18.9235 66.0843 18.9368L66.0403 18.9849ZM67.9616 16.7554C68.1457 16.6794 68.3778 16.6593 68.538 16.5192C68.9983 16.4072 69.3865 16.2431 69.8668 16.215L70.3271 15.8188C70.4592 15.9349 70.5993 16.171 70.7594 16.215C70.8314 16.3551 70.6233 16.4512 70.5993 16.5873C70.3671 16.7754 70.211 17.0796 69.8468 17.0276C69.6347 16.9155 69.6147 16.6633 69.3585 16.5873C68.8582 16.5192 68.4459 16.7234 67.9616 16.7994H67.8295C67.8775 16.7754 67.9175 16.7554 67.9616 16.7554ZM67.8495 17.616C67.8975 17.616 67.9135 17.5919 67.9616 17.5919C68.1457 17.5439 68.3098 17.4999 68.4939 17.5919C68.4179 17.8041 68.2618 18.0322 68.0616 18.1243C68.0296 18.1243 67.9896 18.1243 67.9616 18.1003C67.8495 18.0603 67.8015 17.9122 67.7134 17.8281C67.6854 17.704 67.7574 17.64 67.8495 17.616ZM67.9616 19.4732C67.7574 19.5732 67.5493 19.6613 67.3292 19.6893C67.097 19.5973 66.9089 19.4091 66.6367 19.3851C66.5487 19.1049 66.7368 18.6887 66.4086 18.5045C66.3845 18.4285 66.3845 18.3605 66.4606 18.3605C67.0009 18.2003 67.0009 18.9208 67.3692 19.1089C67.5773 19.0849 67.7855 19.0649 67.9616 18.9889C68.3778 18.8728 68.7661 18.7127 69.1984 18.6606L69.4986 18.2924C69.4986 18.5045 69.6347 18.8728 69.4305 19.0129C68.8582 19.0129 68.4179 19.2971 67.9616 19.4732Z" fill="white"/>
<path d="M63.4105 21.4499C63.2504 21.2217 63.1584 20.8655 62.8622 21.1937C62.546 21.9182 62.4059 22.7067 61.9936 23.3871C61.7895 23.7794 61.3732 23.4992 61.1211 23.7554C61.053 24.2677 61.5133 24.616 61.7375 25.0322C61.8535 25.3644 62.1897 25.5446 62.542 25.6166C62.7221 25.5926 62.9743 25.5446 63.0223 25.3364C63.0223 24.3598 63.2024 23.4512 63.3625 22.5506C63.3625 22.4545 63.3865 22.3625 63.4065 22.2624C63.4586 22.0343 63.5466 21.8021 63.5026 21.574C63.4546 21.5459 63.4346 21.5059 63.4065 21.4539L63.4105 21.4499Z" fill="white"/>
<path d="M48.4441 25.7544C48.308 25.5262 48.26 25.0779 48.4441 24.8458C48.7883 24.6176 49.3127 24.7057 49.7089 24.5015C49.865 24.2854 49.749 23.9612 49.7289 23.709C49.4768 23.2687 48.9244 23.4048 48.5842 23.1487C48.4481 23.0046 48.5161 22.7924 48.5842 22.6563C48.6082 22.4722 48.7923 22.3281 48.9484 22.3281C49.3167 22.4482 49.5929 22.7724 49.9771 22.7284C50.1412 22.7284 50.2573 22.5643 50.2973 22.4722C50.2293 21.9519 50.0932 21.4676 49.801 21.0513C48.9244 20.4429 49.0165 21.9519 48.1959 21.8358C48.0598 21.8118 47.9198 21.8678 47.7837 21.8878C47.5995 21.9319 47.4194 21.9519 47.2353 21.8358C47.3514 21.5636 47.5515 21.3675 47.7837 21.2154C47.9238 21.1153 48.0839 21.0233 48.216 20.9112C48.6763 20.583 49.1806 20.3708 49.6129 20.0226C49.6569 19.8105 49.6369 19.6063 49.5929 19.3982C49.2686 18.9259 48.7643 19.3742 48.4241 19.4422L47.7837 19.5183L45.4742 19.7945L45.198 20.0266C45.1339 20.1707 45.198 20.3068 45.246 20.3748C45.3621 20.6871 45.6343 20.7071 45.9144 20.7271C46.0946 20.7271 46.3667 20.7071 46.4388 20.8672C46.3267 21.1914 45.8824 21.2634 45.6823 21.5916C45.3621 21.9559 44.7217 22.12 44.5856 22.6563C44.8137 22.9205 45.0859 23.4048 45.5462 23.2847C45.7063 23.1687 45.7984 22.9806 46.0065 22.8405C46.3307 22.8204 46.719 22.6123 46.9671 22.9205C47.0392 23.0566 46.9671 23.2207 46.9671 23.3808C46.759 24.0012 46.0465 23.7491 45.6142 24.0533C45.3181 24.1733 45.0659 23.8211 44.7497 24.0012C44.6816 24.3094 44.4255 24.5216 44.4735 24.8418C44.6336 25.194 45.0419 25.262 45.3661 25.3301C45.7784 25.3101 46.1626 25.126 46.6029 25.0539C46.8551 25.194 46.831 25.5222 46.807 25.7504C46.5349 25.9465 46.1946 25.9465 45.8904 26.0346C45.3221 26.2227 44.5215 25.8744 44.1133 26.4508C44.0212 26.5709 44.0012 26.779 44.0893 26.9191C44.3174 27.1313 44.6136 27.2033 44.9098 27.3154C45.8064 26.9672 46.787 26.8751 47.7957 26.8351H49.4448C49.813 26.8031 50.1973 26.9231 50.4494 27.1753C50.9137 27.3674 51.2539 26.9231 51.5261 26.6229C51.6622 26.4548 51.5261 26.2707 51.4341 26.1346C50.6576 25.0819 49.4648 26.1106 48.4601 25.7584L48.4441 25.7544Z" fill="white"/>
<path d="M41.8555 22.1244C42.0436 22.0763 42.2518 22.1043 42.3838 21.9202C43.0483 21.4079 42.1757 20.5874 42.7241 20.079C43.6167 19.6187 44.6733 19.6347 45.5899 19.3065C46.2984 19.2145 47.0309 19.0784 47.7834 18.9823C48.6519 18.8902 49.5205 18.8422 50.3931 19.0103L50.4611 19.0784L50.0969 19.4266C50.0329 19.5707 49.9608 19.7988 50.0769 19.9389C50.233 20.099 50.4851 19.983 50.7093 19.983L52.2223 19.9389C52.6306 19.9389 52.9988 20.1471 53.4351 20.007C53.5912 19.9389 53.7073 19.7508 53.7553 19.5907C53.7993 19.0063 53.0668 18.8182 52.7026 18.542C51.5619 17.9816 50.0729 18.1418 48.764 18.2858C48.4438 18.3779 48.1076 18.3779 47.7834 18.3779C47.7113 18.3979 47.6233 18.3979 47.5552 18.3979C47.4912 18.2378 47.3511 18.3779 47.239 18.4179C47.171 18.3979 47.147 18.3339 47.1229 18.2858C47.191 18.1898 47.3071 18.1698 47.3991 18.1898C47.4912 18.0937 47.6513 18.0697 47.7874 18.0697C47.8794 18.0497 47.9955 18.0497 48.0636 18.0217C48.3157 17.8416 48.6119 18.0497 48.8441 17.9576C49.3004 17.4613 49.7367 16.8809 50.281 16.5327C50.3531 16.3446 50.4651 16.1605 50.3731 15.9483C49.8727 15.6001 49.3204 15.388 48.704 15.2759C48.4798 15.3199 48.3558 15.5761 48.1796 15.6922C48.0395 15.7362 47.9275 15.7602 47.7874 15.7882C47.239 15.9003 46.6907 15.9683 46.1183 15.9923C45.7541 15.7882 45.3178 15.9443 44.9735 16.0644C44.6333 16.949 45.726 17.5053 45.726 18.3859C45.1577 18.8542 44.4012 18.8782 43.7167 19.0904C43.1644 19.1824 42.3838 19.5307 41.9315 19.0463C41.7034 18.9463 41.4472 19.0664 41.2711 19.2065C40.8989 19.7428 40.8749 20.5593 41.015 21.2158C41.079 21.636 41.3992 22.0243 41.8635 22.1164L41.8555 22.1244ZM46.7987 16.9089C47.0029 16.6568 47.4672 16.6288 47.7834 16.7528C47.8114 16.7729 47.8514 16.7969 47.8754 16.7969C47.8514 16.8689 47.8314 16.913 47.7834 16.961C47.6633 17.0771 47.5312 17.1651 47.3951 17.2612C47.187 17.2892 47.0029 17.2892 46.8228 17.2612C46.6867 17.1691 46.7267 17.025 46.7987 16.913V16.9089Z" fill="white"/>
<path d="M46.3634 14.0656C46.5235 14.0936 46.6596 13.8815 46.8237 14.0256C46.8237 14.0976 46.8237 14.1857 46.7557 14.2057C46.3434 14.3257 45.723 14.2537 45.5429 14.7901C45.5669 15.0902 45.5189 15.4385 45.751 15.6706C46.1593 15.7667 46.5515 15.6026 46.9198 15.4625C47.216 15.3744 47.4922 15.3224 47.7843 15.2824C48.3127 15.1623 48.8611 15.0782 49.3414 14.8101L49.5695 14.3257C49.6416 13.9735 49.2493 14.0936 49.1332 13.8815L48.745 13.8574C48.5849 13.7814 48.6769 13.6293 48.6529 13.4652C49.0212 12.9729 49.9177 13.4412 50.1899 12.7607C50.278 12.5566 50.1219 12.3645 49.9618 12.2324C49.4574 12.2324 49.3013 11.688 48.9531 11.4319C48.5889 11.2958 48.2006 11.2037 47.7843 11.1797C47.6643 11.1797 47.5562 11.2037 47.4401 11.2037C47.3 11.3158 47.0759 11.4319 47.1679 11.644C47.0319 11.9002 47.28 12.2324 47.0519 12.4605C46.4355 12.6927 45.795 12.6006 45.2707 12.8808C45.1546 13.229 45.4348 13.5092 45.5669 13.7814C45.751 14.0616 46.0472 14.1296 46.3674 14.0616L46.3634 14.0656Z" fill="white"/>
<path d="M110.389 16.4694C110.965 16.1212 111.646 16.1212 112.286 16.0451C112.582 16.0451 112.862 16.2412 113.115 16.1452C113.407 15.885 113.619 15.5328 113.591 15.0925C113.023 14.1359 111.766 14.7242 110.909 14.8603C110.505 15.0765 109.884 14.8603 109.56 15.2526C109.38 15.6048 109.656 15.929 109.82 16.2412C110.005 16.3333 110.165 16.4934 110.389 16.4694Z" fill="white"/>
<path d="M104.048 21.0758C104.324 22.2886 103.796 23.4493 103.892 24.6381C104.008 25.0304 103.82 25.5227 104.184 25.7829C104.368 25.8989 104.552 26.1991 104.832 26.1751C105.056 26.0831 105.197 25.8269 105.329 25.6147C105.309 23.9136 105.469 22.3326 105.497 20.6355C105.473 20.3993 105.221 20.2432 105.145 20.0271C105.173 19.891 105.261 19.7509 105.377 19.7029C105.813 19.6308 106.109 19.1665 106.293 18.7943C106.774 18.418 106.365 17.7936 106.317 17.3533C106.113 17.1612 106.089 16.885 105.933 16.6929C105.905 16.4888 105.993 16.3287 106.129 16.1646L107.254 15.356L107.374 15.284C107.438 15.0278 107.414 14.7236 107.278 14.4674C107.278 14.4674 107.278 14.4434 107.258 14.4434C106.982 13.9311 106.481 13.4668 105.841 13.5308C104.992 14.0992 104.536 15.0919 103.672 15.6762C103.419 15.8163 103.187 16.0485 103.259 16.4047C103.507 16.889 104.148 17.0251 104.328 17.5895C104.148 18.306 103.431 18.7983 102.931 19.3066C102.411 19.7309 101.978 20.3793 101.406 20.6355C101.246 20.8917 101.246 21.1478 101.31 21.376C101.606 21.7282 101.678 22.3326 102.227 22.4006C102.519 22.3766 102.587 22.0524 102.771 21.8723C103.023 21.5001 103.259 21.1238 103.672 20.9157C103.804 20.9597 104.028 20.8917 104.052 21.0758H104.048Z" fill="white"/>
<path d="M114.877 18.2854C114.604 17.8651 114.168 17.4969 113.572 17.5849C112.539 17.793 111.49 17.9772 110.462 18.1893C109.641 18.3734 108.769 18.4175 107.924 18.4935C107.74 18.5135 107.444 18.3934 107.26 18.5575C107.216 18.5816 107.192 18.6496 107.147 18.7457C107.075 18.9298 107.164 19.0939 107.26 19.286C107.28 19.3301 107.328 19.3741 107.328 19.3981C107.416 19.7223 107.74 19.9545 108.084 19.9144C108.909 19.6503 109.793 19.4902 110.67 19.3981L110.782 19.4621C110.782 21.3474 110.806 23.2646 110.686 25.1218C110.686 25.358 110.686 25.6302 110.506 25.8223C109.957 26.0745 109.545 25.426 109.021 25.358C108.857 25.426 108.693 25.5861 108.769 25.8063C109.065 26.2386 109.593 26.5708 110.049 26.891C110.55 27.1472 110.966 27.6835 111.602 27.6395C112.063 27.4554 112.131 26.915 112.263 26.4947L112.239 21.5115C112.335 20.9551 112.287 20.3507 112.287 19.7463C112.263 19.5622 111.943 19.4621 112.131 19.286L114.008 19.1179C114.348 19.1179 114.648 19.4661 114.969 19.21C115.033 18.9298 114.985 18.5816 114.873 18.2814L114.877 18.2854Z" fill="white"/>
<path d="M16.4387 17.0425L16.6188 17.3747L17.8236 19.7643H16.2065C16.899 23.959 15.9784 27.6334 14.3013 30.8475H17.8996L18.7762 28.4059H21.578L22.4746 30.8475H25.9969C24.0436 27.4293 23.6594 23.6708 24.2518 19.7362H22.5307L23.7875 17.2986L23.9196 17.0425H16.4427H16.4387Z" fill="white"/>
<path d="M14.406 21.0891H10.9837C11.9083 18.3873 13.9177 16.378 16.6194 15.3773C17.3359 15.1252 18.1084 14.913 18.9289 14.809V12.9077C18.1084 13.0318 17.3399 13.2399 16.6194 13.5041C12.2726 14.937 9.44273 18.0751 8.69824 22.7261L14.5621 22.7782L14.406 21.0851V21.0891Z" fill="white"/>
<path d="M26.3657 26.6901L29.5478 26.7141C28.7793 29.3439 27.2823 31.005 25.7173 32.1137C25.1009 32.554 24.4524 32.8822 23.784 33.1664C22.6072 33.6267 21.3704 33.8668 20.1376 33.8668C18.9248 33.8308 17.72 33.6267 16.6153 33.1944C14.7301 32.4979 13.117 31.2411 12.0603 29.568C11.4639 28.6674 10.8996 27.6908 10.7275 26.6101H13.9896L14.4019 24.8889L8.64209 24.8369C8.79819 28.3872 10.5994 31.4693 13.2971 33.4466C14.2978 34.163 15.3985 34.7594 16.6153 35.1517C17.64 35.4799 18.7207 35.664 19.8774 35.664C19.9535 35.664 20.0576 35.636 20.1336 35.636C21.4425 35.612 22.6753 35.4038 23.78 35.0716C28.2829 33.6587 31.2889 29.8242 31.6772 24.949H25.9654L26.3537 26.6941L26.3657 26.6901Z" fill="white"/>
<path d="M23.7878 13.503C23.1153 13.2669 22.3749 13.0868 21.6104 12.9307V14.7599C22.3789 14.8879 23.1193 15.1241 23.7878 15.4003C26.5176 16.505 28.3908 18.6144 29.3714 21.156H25.9292V22.9292L31.6889 22.9012C30.7123 18.098 28.1066 14.932 23.7918 13.499L23.7878 13.503Z" fill="white"/>
<path d="M23.7883 9.76676C22.6315 9.49057 21.4268 9.33447 20.1659 9.33447H20.1419C18.9291 9.33447 17.7523 9.49057 16.6196 9.74674C9.95925 11.3358 5 17.2517 5 24.2682C5 31.2848 9.95925 37.1967 16.6196 38.7697C17.7483 39.0499 18.9291 39.182 20.1419 39.182H20.1659C21.4228 39.182 22.6315 39.0299 23.7883 38.7417C30.3966 37.1207 35.3319 31.2368 35.3319 24.2682C35.3319 17.2997 30.3966 11.3878 23.7883 9.76676ZM23.7883 36.9405C22.6315 37.2728 21.4268 37.4529 20.1419 37.4529C18.9291 37.4529 17.7523 37.3008 16.6196 36.9886C10.9399 35.4436 6.74514 30.3322 6.74514 24.2642C6.74514 18.1963 10.9399 13.0609 16.6196 11.5399C17.7483 11.2397 18.9291 11.0596 20.1419 11.0596C21.4268 11.0596 22.6315 11.2397 23.7883 11.5719C29.42 13.137 33.5347 18.2323 33.5347 24.2682C33.5347 30.3042 29.416 35.3755 23.7883 36.9405Z" fill="white"/>
</g>
<defs>
<clipPath id="clip0_345_2075">
<rect width="110" height="29.8435" fill="white" transform="translate(5 9.3335)"/>
</clipPath>
</defs>
</svg>
