<svg width="1000" height="84" viewBox="0 0 1000 84" fill="none" xmlns="http://www.w3.org/2000/svg">
<g clip-path="url(#clip0_533_1637)">
<path d="M958 2H42C19.9086 2 2 19.9086 2 42C2 64.0914 19.9086 82 42 82H958C980.091 82 998 64.0914 998 42C998 19.9086 980.091 2 958 2Z" fill="white"/>
<path d="M920.45 83.52C909.6 83.71 898.09 83.18 885.83 83.27C873.57 83.36 861.18 83.31 848.85 83.28C842.62 83.27 836.73 83.35 830.72 83.51C824.9 83.66 818.18 83.32 812.63 83.75C812.14 83.79 810.98 83.75 810.13 83.75C795.24 83.75 780.02 83.93 765.56 83.7C748.74 83.44 732.14 83.62 715.49 83.51C688.34 84.01 660.9 83.64 633.61 83.73C625.08 83.75 616.49 83.85 607.75 83.55C600.27 83.29 591.16 83.76 583.35 83.3C582.71 83.26 581.17 83.36 580.02 83.38C577.26 83.43 574.34 83.55 571.74 83.51C556.08 83.26 556.13 83.25 543.06 83.48C541.5 83.51 539.6 83.32 537.82 83.31C530.62 83.28 523.38 83.25 516.2 83.3C509.73 83.34 502.88 83.08 496.72 83.51C495.38 83.6 492.58 83.52 490.46 83.52C483.66 83.52 476.83 83.52 470.05 83.52C462.29 83.56 454.38 83.36 446.77 83.73C443.45 83.89 438.64 83.46 436.67 83.56C433.02 83.73 429.62 83.77 426.02 83.74C422.5 83.71 419.07 83.54 415.58 83.53C412.54 83.53 409.51 83.72 406.43 83.74C398.79 83.77 390.6 83.6 383.61 83.79C376.09 84 368.91 83.95 361.57 83.98C353.93 83.98 346.23 83.99 338.61 84C332.67 84.04 327.36 83.86 321.79 83.76C316.23 83.66 310 83.96 304.96 83.53C304.74 83.51 304.13 83.53 303.71 83.53C292.15 83.46 280.61 83.38 269.04 83.31C249.06 83.31 229.06 83.3 209.07 83.29C203.41 83.29 197.47 83.43 192.18 83.07C191.08 83 188.66 83.1 187.2 83.05C181.67 82.85 177.29 83.53 171.99 83.22C167.25 82.94 162.24 83.1 157.37 83.07C151.86 83.07 146.31 83.07 140.79 83.06C136.98 83.05 133.52 83.1 130.36 83.3C126.16 82.89 120.17 83.17 115.25 82.97C112.01 82.84 106.99 82.72 104.62 82.86C99.3499 83.17 94.0999 83.02 88.8699 83.06C81.0999 83.11 73.2799 82.98 65.5899 83.28C62.3399 83.4 57.9899 83.33 54.2099 83.29C50.6799 83.25 47.2799 83.09 43.7699 83.08C42.1499 83.11 40.4699 82.99 38.8099 82.91C37.9799 82.91 37.1499 82.77 36.3299 82.64L33.8699 82.28C33.0599 82.11 32.2599 81.89 31.4499 81.7C30.6499 81.49 29.8199 81.35 29.0499 81.05C27.4799 80.5 25.8799 80.03 24.3799 79.3C23.7199 79 23.0399 78.69 22.3499 78.37C21.6999 77.98 21.0299 77.58 20.3599 77.18C18.9799 76.41 17.7299 75.39 16.4499 74.42C15.7899 73.96 15.2099 73.4 14.6199 72.86C14.0199 72.33 13.4299 71.8 12.8499 71.28C11.7799 70.14 10.6699 69.08 9.67987 68.02C9.18987 67.43 8.00987 65.92 7.38987 64.89C5.76987 62.15 4.37987 59.46 3.34987 56.53C3.07987 55.8 2.81987 55.07 2.54987 54.32C2.34987 53.56 2.13987 52.78 1.92987 52C1.42987 50.44 1.20987 48.77 0.879871 47.03C0.719871 46.33 0.689871 45.59 0.629871 44.83C0.579871 44.07 0.529871 43.29 0.479871 42.49C0.419871 41.69 0.519871 40.88 0.539871 40.05C0.589871 39.23 0.599871 38.39 0.699871 37.55C1.16987 34.21 1.86987 30.76 3.09987 27.68C3.63987 25.99 4.45987 24.41 5.22987 22.81C5.57987 21.99 6.11987 21.27 6.54987 20.49C7.02987 19.74 7.41987 18.93 7.97987 18.25C8.50987 17.54 9.03987 16.83 9.56987 16.12C10.0699 15.39 10.7299 14.8 11.2999 14.13C11.9099 13.5 12.4399 12.81 13.1099 12.25C13.7599 11.68 14.3999 11.11 15.0399 10.54C15.2399 10.36 15.4399 10.18 15.6299 10.01C15.8299 9.84999 16.0299 9.69999 16.2299 9.54999C16.6099 9.24999 16.9799 8.95999 17.3299 8.66999C18.0399 8.10999 18.6499 7.50999 19.3999 7.04999C20.1199 6.55999 20.8799 6.05999 21.7399 5.52999C22.6099 5.00999 23.6599 4.60999 24.8599 4.10999C25.1799 3.97999 25.5499 3.82999 25.9399 3.66999C26.3499 3.52999 26.7799 3.38999 27.2499 3.22999C28.1799 2.93999 29.1799 2.48999 30.2799 2.20999C31.3799 1.92999 32.5199 1.62999 33.6399 1.33999C34.7899 1.15999 35.9299 0.989991 36.9899 0.819991L37.8099 0.699991L38.6399 0.659991L40.3099 0.569991L41.9899 0.479991H43.6099C45.7599 0.459991 47.8799 0.459991 49.8899 0.509991C71.1199 0.969991 92.6399 0.589991 113.93 0.739991C122.94 0.799991 132.39 0.449991 140.95 0.959991C147.3 0.579991 155.12 0.909991 161.22 0.649991C165.08 0.489991 168.47 0.499991 172.01 0.499991C195.4 0.499991 218.8 0.489991 242.18 0.479991C257.57 0.409991 272.94 0.339991 288.34 0.269991C292.67 0.259991 296.9 0.209991 301.59 0.439991C305.04 0.609991 311.33 0.629991 315.92 0.329991C316.81 0.269991 318.65 0.219991 319.33 0.259991C328.08 0.809991 336.75 0.239991 345.34 0.219991C362.17 0.179991 378.62 0.519991 395.33 0.479991C398.89 0.479991 403.06 0.639991 405.82 0.269991C408.56 0.579991 410.64 0.429991 414.02 0.289991C417.51 0.149991 423.25 0.129991 426.32 0.299991C430.49 0.539991 434.33 0.449991 438.32 0.479991C442.55 0.479991 446.83 0.479991 451.07 0.479991C469.01 0.559991 486.95 0.639991 504.87 0.719991C508.38 0.739991 511.8 0.879991 515.31 0.939991C518.83 0.999991 522.64 0.829991 526 1.13999C527.25 1.25999 530.86 1.16999 533.39 1.16999C542.32 1.16999 551.98 1.36999 559.98 1.11999C567.9 0.869991 576.39 1.17999 583.73 0.729991C585.78 0.599991 589.57 0.729991 592.52 0.709991C604.48 0.599991 616.81 0.979991 628.47 0.479991C632.77 0.789991 637.85 0.729991 642.72 0.699991C646.29 0.679991 650.4 0.859991 653.33 0.509991C653.67 0.469991 654.93 0.469991 655.69 0.479991C660.01 0.559991 663.87 0.779991 668.7 0.719991C672.71 0.669991 675.98 0.449991 680.38 0.459991C696.25 0.479991 711.85 0.879991 727.81 0.709991C732.17 0.989991 737.15 0.939991 742.06 0.939991C750.75 0.959991 758.9 0.609991 767.82 0.689991C776.24 0.769991 785.25 0.859991 793.22 0.669991C807 0.349991 820.68 0.549991 834.37 0.479991C837.88 0.459991 841.85 0.339991 845.03 0.679991C845.79 0.759991 849.63 0.719991 850.69 0.619991C852.94 0.409991 855.56 0.539991 857.73 0.459991C863.92 0.239991 869.96 1.09999 876.06 0.459991H896.48C903.28 0.459991 910.09 0.459991 916.89 0.459991C920.07 0.459991 923.15 0.399991 926.44 0.619991C928.65 0.769991 933.87 0.799991 936.06 0.659991C941.24 0.329991 946.57 0.469991 951.78 0.459991H957.68C958.67 0.459991 959.71 0.539991 960.72 0.579991L962.25 0.659991L963.76 0.889991C967.82 1.36999 971.76 2.62999 975.47 4.31999C979.21 5.97999 982.62 8.31999 985.66 11.03L986.79 12.06C987.18 12.4 987.54 12.75 987.87 13.14L989.93 15.41C991.16 17.04 992.46 18.62 993.45 20.41C995.37 23.43 996.69 26.79 997.72 30.18C998.13 31.91 998.64 33.62 998.81 35.4C998.92 36.28 999.08 37.16 999.15 38.04L999.25 40.7C999.55 47.88 997.75 55.45 994.23 61.5C993.97 61.92 993.58 62.56 993.28 63.07L992.21 64.91L990.98 66.65C990.56 67.22 990.17 67.82 989.72 68.36C989.25 68.88 988.78 69.41 988.31 69.92C988 70.25 987.68 70.6 987.35 70.95C987.02 71.3 986.62 71.6 986.25 71.93C985.49 72.57 984.75 73.24 983.99 73.83C983.21 74.38 982.48 74.91 981.83 75.37C981.51 75.61 981.21 75.83 980.94 76.02C980.66 76.2 980.41 76.36 980.19 76.51C979.35 77.09 978.56 77.61 977.81 78.07C977.04 78.49 976.29 78.81 975.58 79.14C974.17 79.84 972.77 80.22 971.31 80.74C970.27 81.16 969.23 81.36 968.25 81.59C967.27 81.79 966.36 82.07 965.48 82.12C963.73 82.28 962.26 82.49 961.08 82.35C958.72 82.21 957.64 81.91 958.13 81.51C958.35 81.33 959.35 81.09 960.55 80.9C964.32 80.22 966.12 79.57 968.47 78.84C970.78 78.03 973.77 77.23 978.86 73.99C982.01 71.86 984.91 69.38 987.37 66.51C989.78 63.6 991.82 60.4 993.38 56.95C994.84 53.46 995.84 49.79 996.31 46.01C996.63 42.22 996.56 38.37 995.78 34.6C995.04 29.64 993.09 24.7 990.18 20.37C987.27 16.03 983.39 12.33 979.08 9.47999C974.59 6.50999 969.45 4.41999 964.09 3.51999L962.08 3.18999C961.4 3.12999 960.73 3.10999 960.05 3.05999L958.02 2.93999H955.94C953.18 2.93999 950.43 2.95999 947.71 3.01999C936.88 3.26999 926.23 3.20999 915.51 3.20999C907.35 3.20999 899.22 3.03999 891.04 2.99999C882.56 2.95999 873.9 3.06999 865.57 2.95999C860.41 2.88999 854.96 2.61999 850.08 2.77999C839.4 3.12999 828.39 2.82999 817.92 3.00999C803.37 3.26999 788.7 3.09999 774.33 3.25999C766.57 3.34999 758.89 3.44999 751.09 3.43999C747.53 3.43999 744.16 3.43999 740.34 3.27999C736.44 3.10999 730.76 3.10999 725.92 3.33999C723.92 3.43999 720.57 3.50999 718.85 3.42999C711.71 3.06999 704.16 3.21999 696.84 3.22999C692.19 3.22999 686.99 2.90999 684.21 3.03999C679.53 3.26999 675.25 3.16999 670.87 3.19999C667.76 3.21999 664.21 3.32999 661.43 3.02999C660.68 2.94999 657.64 2.92999 656.73 2.98999C651.48 3.38999 645.45 3.18999 639.82 3.19999C626.22 3.19999 612.6 3.19999 598.99 3.19999C587.74 3.17999 576.93 3.60999 565.6 3.43999C558.71 3.83999 551.02 3.65999 543.69 3.65999C538.08 3.65999 532.48 3.51999 526.88 3.43999C521.28 3.35999 515.81 3.43999 509.89 3.25999C502.59 3.03999 493.9 3.23999 485.84 3.19999C481.45 3.17999 476.56 3.39999 472.6 3.01999C472.07 2.96999 470.03 2.97999 469.29 3.01999C463.52 3.41999 456.25 3.30999 451.11 3.14999C442.73 2.89999 434.65 3.00999 426.47 2.96999C419.69 2.96999 412.85 2.95999 406.06 2.94999C401.19 2.92999 396.42 3.00999 391.31 2.83999C387.4 2.70999 382.2 2.92999 377.55 2.94999C372.89 2.94999 368.2 2.94999 363.52 2.94999H332.9C327.37 2.94999 321.82 2.94999 316.32 2.94999C311.11 2.90999 305.98 2.74999 300.78 2.73999C286.2 2.68999 271.87 3.11999 257.18 2.95999C253.21 3.24999 249.37 3.03999 245.22 2.97999C241.4 2.92999 236.94 2.80999 233.13 3.09999C232.07 3.17999 230.05 3.15999 228.46 3.17999C224.92 3.21999 221.86 2.94999 217.65 3.14999C214.69 3.29999 210.14 3.14999 206.34 3.18999C202.35 3.21999 197.83 3.01999 194.47 3.37999C187.46 2.83999 180.76 3.66999 173.76 3.41999C171.56 3.33999 169.15 3.30999 166.83 3.25999C165.67 3.22999 164.36 3.15999 163.37 3.18999C144.77 3.67999 125.75 3.27999 106.99 3.41999C104.68 3.43999 102.46 3.53999 100.16 3.58999C99.0599 3.60999 97.8099 3.62999 96.7199 3.59999C86.4399 3.39999 86.4699 3.40999 76.8699 3.59999C74.4599 3.64999 71.8299 3.59999 69.3299 3.62999C62.8499 3.68999 56.5199 3.58999 49.8099 3.81999C48.1299 3.87999 46.4199 3.88999 44.6799 3.87999C43.8099 3.86999 42.9399 3.85999 42.0599 3.84999C41.2199 3.86999 40.3799 3.88999 39.5399 3.91999L38.2699 3.93999C37.8499 3.94999 37.4299 4.02999 37.0099 4.06999L34.4899 4.35999C33.6599 4.49999 32.8399 4.70999 32.0099 4.88999L30.7799 5.15999C30.3699 5.24999 29.9799 5.41999 29.5799 5.53999L27.4599 6.24999C26.7499 6.46999 26.0899 6.83999 25.4099 7.12999C24.7399 7.44999 24.0299 7.71999 23.3699 8.07999C22.7199 8.45999 22.0699 8.82999 21.4099 9.20999L20.4199 9.77999L19.4899 10.45C18.8699 10.9 18.2399 11.36 17.5999 11.82C16.9799 12.3 16.4199 12.86 15.8099 13.38C15.2199 13.92 14.5899 14.43 14.0699 15.07C11.1799 18.01 8.87987 21.49 7.09987 25.19C5.34987 28.9 4.06987 32.88 3.62987 36.98C3.16987 41.06 3.20987 45.23 4.00987 49.27C4.82987 53.3 6.25987 57.21 8.24987 60.81C8.78987 61.68 9.38987 62.76 9.98987 63.69C10.6499 64.58 11.2499 65.38 11.6299 65.81C14.9099 69.26 18.1499 71.74 21.5699 74.71C21.7399 74.85 23.1999 75.74 23.5399 75.9C24.4999 76.25 25.5099 76.66 26.5399 77.11C27.5699 77.56 28.7099 77.88 29.8199 78.31C32.0799 79.04 34.4499 79.69 36.6899 79.97C37.2299 80.04 37.7599 80.16 38.2999 80.2L39.9199 80.28C40.9999 80.33 42.0699 80.41 43.2099 80.38C45.4599 80.37 47.6999 80.35 49.9399 80.34C54.4199 80.3 58.8899 80.25 63.3599 80.21C72.2999 80.12 81.2499 80.05 90.2799 80.13C93.1899 80.16 97.1399 80.05 98.8399 80.19C102.47 80.48 104.22 80.01 107.37 80.12C110 80.21 113.91 80.04 116.11 80.16C124.1 80.59 133.02 80.46 140.56 80.32C147.61 80.19 154.89 80.04 161.23 80.18C173.72 80.47 186.12 80.34 198.55 80.37C211.3 80.37 224.07 80.37 236.82 80.37C242.04 80.36 247.64 80.54 252.46 80.16C253.44 80.08 255.8 80.13 257.45 80.16C261.38 80.22 265.26 80.37 269.16 80.37C273.06 80.37 276.94 80.22 280.87 80.16C284.04 80.11 287.01 80.16 290.28 79.96C292.67 79.81 296.85 79.93 300.59 80.13C308.04 80.53 315.8 80.93 325.35 80.86C333.8 80.86 342.36 80.85 350.85 80.84C354.41 80.84 357.78 80.86 361.6 80.67C365.03 80.5 370.79 80.57 374.95 80.7C381.52 80.9 387.56 80.92 393.98 80.7C396.19 80.62 398.83 80.62 401.27 80.62H445.93C449.52 80.62 453.33 80.55 456.25 80.83C458.62 80.5 462.37 80.61 465.5 80.63C470.29 80.7 474.98 80.77 479.77 80.84C485.45 80.87 491 80.84 496.67 80.64C501.89 80.45 508.2 80.76 513.85 80.48C514.91 80.43 517.13 80.62 518.69 80.6C525.15 80.53 532.14 80.84 538.11 80.38C538.61 80.34 540 80.34 540.58 80.38C548.01 80.84 555.39 80.49 562.74 80.38C570.76 80.25 578.08 80.63 585.93 80.62C594.86 80.61 604.17 80.47 612.64 80.65C627.25 80.96 641.78 80.81 656.33 80.84C671.2 80.84 686.11 80.84 700.98 80.84C707.45 80.77 713.87 80.7 720.35 80.63C727.55 80.63 734.8 80.63 742.04 80.63C748.85 80.63 755.65 80.63 762.45 80.63C765.64 80.63 769.17 80.51 771.95 80.79C772.52 80.85 774.47 80.87 775.27 80.82C781.1 80.51 786.72 80.53 792.65 80.81C794.33 80.89 796.81 80.81 798.82 80.86C804.4 80.97 809.19 80.7 814.36 80.62C819.11 80.54 824.5 80.83 828.73 80.4C829.31 80.34 831.63 80.34 832.38 80.4C841.9 81.12 852.8 79.92 862.28 80.59C866.07 80.18 869.99 80.65 873 80.59C877.35 80.5 881.55 80.39 886.08 80.4C890.33 80.4 894.6 80.4 898.83 80.4C906.58 80.35 914.43 80.54 922.17 80.2C924.76 80.09 929.61 80.01 932.79 80.34C933.35 80.4 935.05 80.39 936.15 80.37C944.65 80.24 955.01 80.6 957.13 81.2C958.38 81.55 958.23 81.98 957.26 82.34C956.77 82.52 953.07 82.63 950.72 82.76C946.65 82.99 942.77 83.3 938.34 83.39C933.09 83.5 927.35 83.42 920.48 83.42L920.45 83.52Z" fill="#9C7625"/>
</g>
<defs>
<clipPath id="clip0_533_1637">
<rect width="1000" height="84" fill="white"/>
</clipPath>
</defs>
</svg>
