<svg width="60" height="60" viewBox="0 0 60 60" fill="none" xmlns="http://www.w3.org/2000/svg">
<g clip-path="url(#clip0_366_1909)">
<path d="M29.6602 58.2207C45.1241 58.2207 57.6602 45.6847 57.6602 30.2207C57.6602 14.7567 45.1241 2.2207 29.6602 2.2207C14.1962 2.2207 1.66016 14.7567 1.66016 30.2207C1.66016 45.6847 14.1962 58.2207 29.6602 58.2207Z" fill="#9C7625"/>
<path d="M58.9802 33.5497C59.0002 34.5297 58.3902 35.4697 58.2302 36.5297C58.1402 37.0597 58.0102 37.5897 57.8702 38.1197L57.6502 38.9097L57.3502 39.6697C57.1502 40.1797 57.0502 40.6997 57.0102 41.2597C56.9902 41.8197 56.3902 42.1997 56.5702 42.8297C56.5902 42.8897 56.5102 42.9697 56.4802 43.0297C55.9502 44.2497 55.3602 45.5097 54.4902 46.4897C53.9902 47.0597 53.4902 47.6097 53.0502 48.2197C52.8202 48.5097 52.6202 48.8197 52.3802 49.0997C52.1302 49.3697 51.8802 49.6397 51.6102 49.8997C50.4002 52.0997 48.1802 53.3897 46.2702 54.8697C45.6302 55.2897 45.0202 55.7797 44.2002 55.9097C43.5302 56.0497 42.9702 56.7597 42.1602 56.6697C42.0902 56.6697 42.0102 56.8097 41.9302 56.8697C41.7302 57.0197 41.5402 57.2397 41.3202 57.2997C39.9302 57.5797 39.9402 57.5397 38.9202 58.1697C38.8002 58.2397 38.5802 58.1197 38.4302 58.1697C37.8102 58.3097 37.1802 58.4397 36.5802 58.6397C36.0302 58.8297 35.4002 58.7197 34.9402 59.2097C34.8402 59.3197 34.5802 59.2797 34.3902 59.3097C33.7902 59.3997 33.1902 59.4697 32.5902 59.5797C31.9002 59.6597 31.1902 59.4997 30.5302 59.8997C30.2302 60.0697 29.8002 59.6697 29.6302 59.7597C29.3002 59.9097 29.0002 59.9397 28.6802 59.8897C28.3602 59.8397 28.0702 59.6597 27.7602 59.6397C27.4902 59.6197 27.2102 59.7997 26.9302 59.7997C26.2402 59.7797 25.5502 59.4597 24.9002 59.5697C24.2002 59.6797 23.5602 59.5397 22.9202 59.3797C22.2402 59.2297 21.5902 59.0097 20.9002 58.8797C20.3802 58.7597 19.9902 58.3997 19.5502 58.1397C19.1202 57.8797 18.4802 57.9597 18.2202 57.3997C18.2102 57.3797 18.1502 57.3697 18.1202 57.3497L15.4602 55.7897L13.2102 54.3897L11.0902 52.7997C10.7202 52.4697 10.2302 52.2197 10.1302 51.6397C10.1102 51.5197 9.88015 51.4597 9.82015 51.3297C9.61015 50.8597 8.83015 51.0997 8.74015 50.5197C8.66015 50.0197 8.25015 49.7997 7.99015 49.4697C7.70015 49.0797 7.31015 48.7797 7.05015 48.3597C6.86015 48.0797 6.63015 47.8797 6.31015 47.7697C6.42015 47.2297 5.88015 46.9697 5.78015 46.5197C5.71015 46.2297 5.60015 45.7697 5.37015 45.6797C4.87015 45.4497 4.75015 44.9797 4.49015 44.6097C4.07015 44.0597 3.92015 43.3797 3.35015 42.8997C3.11015 42.6997 3.01015 42.3197 2.90015 41.9997C2.79015 41.7097 2.82015 41.3697 2.74015 41.0697C2.57015 40.5197 2.36015 39.9997 1.96015 39.5297C1.59015 39.1297 1.79015 38.4297 1.26015 38.0697C1.19015 38.0197 1.17015 37.8597 1.17015 37.7497C1.21015 37.1697 1.19015 36.6897 0.800152 36.1497C0.520152 35.6997 0.590152 35.0497 0.500152 34.4897C0.420152 33.8897 0.200152 33.2897 0.310152 32.6897C0.360152 32.3097 -0.219848 32.1597 0.120152 31.6897C0.300152 31.4397 0.180152 30.9697 0.170152 30.6097C0.150152 30.2297 0.0901521 29.8397 0.200152 29.4797C0.500152 28.5497 0.500152 27.6097 0.630152 26.6697C0.770152 25.7397 0.800152 24.7797 1.10015 23.8797C1.36015 23.1297 1.23015 22.2197 1.91015 21.6297C1.72015 20.9797 2.28015 20.4397 2.22015 19.8497C2.19015 19.4697 2.31015 19.1897 2.41015 18.8997C2.81015 17.9397 3.29015 17.0197 3.75015 16.0797C4.30015 15.1997 4.81015 14.2897 5.38015 13.4197C6.17015 12.3097 6.87015 11.0997 7.80015 10.0797C8.05015 9.77966 8.28015 9.46966 8.72015 9.32966C9.06015 9.22966 9.48015 8.87966 9.58015 8.37966C9.60015 8.27966 9.69015 8.13966 9.76015 8.12966C10.7002 8.00966 10.8902 7.06966 11.5202 6.59966C12.1202 6.13966 12.7402 5.70966 13.4102 5.38966C14.0902 5.06966 14.7502 4.74966 15.3802 4.34966C15.6402 4.15966 16.0602 4.17966 16.1102 3.72966C16.4702 3.89966 16.5702 3.68966 16.7802 3.42966C17.0002 3.15966 17.4602 2.91966 17.7802 2.96966C18.2102 3.00966 18.5002 2.83966 18.8402 2.72966C19.2002 2.62966 19.5502 2.45966 19.9102 2.34966C20.2902 2.23966 20.6702 2.09966 21.0602 2.00966L22.2302 1.76966C23.0102 1.60966 23.7802 1.41966 24.5802 1.37966C24.8902 1.34966 25.2102 1.43966 25.5202 1.45966C25.8302 1.47966 26.1402 1.24966 26.4702 1.51966C26.5902 1.60966 26.8902 1.49966 27.1102 1.48966C27.8902 1.44966 28.7302 1.59966 29.4202 1.31966C30.1102 1.05966 30.8402 1.43966 31.5102 1.00966C31.7002 0.889658 32.0202 1.03966 32.2902 1.02966C33.3602 1.00966 34.3602 1.58966 35.4802 1.24966C35.8002 1.61966 36.2302 1.68966 36.6602 1.76966C36.9702 1.82966 37.2702 2.08966 37.6202 1.81966C37.6602 1.78966 37.7702 1.81966 37.8302 1.84966C38.1802 2.01966 38.4502 2.31966 38.8602 2.41966C39.2102 2.48966 39.5502 2.38966 39.9202 2.52966C41.2701 2.97966 42.3102 4.01966 43.6602 4.46966C43.8602 4.90966 44.2502 5.08966 44.6202 5.31966C45.2502 5.73966 46.0902 5.77966 46.6602 6.33966C47.2102 6.84966 47.7902 7.37966 48.4602 7.67966C49.0202 7.95966 49.4902 8.34966 49.9402 8.75966C50.1602 8.96966 50.3902 9.16966 50.6002 9.38966C50.8002 9.61966 51.0102 9.83966 51.2202 10.0597C51.4402 10.2797 51.7702 10.4597 51.7102 10.8897C51.7002 10.9897 51.9502 11.2197 52.0902 11.2197C52.3902 11.2197 52.4402 11.4897 52.6102 11.5997C53.1202 11.9097 52.7502 12.8497 53.5802 12.9097L54.1202 13.6397C54.2901 13.8897 54.4402 14.1597 54.6002 14.4097C54.9102 14.9297 55.2402 15.4397 55.5402 15.9697C55.6902 16.2097 55.8502 16.4397 55.7802 16.7997C55.7302 17.0497 55.9002 17.4697 56.1102 17.5797C56.6002 17.8497 56.6902 18.3397 56.8902 18.7597C57.3802 20.0697 57.9402 21.3597 58.2002 22.7497C58.3302 23.3497 58.3902 23.9597 58.4102 24.5797C58.4302 25.1997 58.7602 25.7997 58.5402 26.4297C58.5202 26.4697 58.5402 26.5397 58.5602 26.5797C58.6402 26.8097 58.7902 27.0397 58.7902 27.2797C58.7902 27.5897 58.5202 28.0197 58.6502 28.1897C58.9102 28.5197 58.6502 28.7697 58.6502 29.0297C58.6102 29.7997 58.0002 30.2597 57.2302 30.1697C57.0602 30.1497 56.8702 30.0697 56.7402 29.9697C55.8802 29.3497 55.9202 29.3497 55.8302 28.3597C55.8002 28.0497 55.8102 27.7297 55.8102 27.4197L55.7902 26.4797C55.7702 25.8497 55.7902 25.1997 55.5602 24.5997C55.7602 23.6997 55.2902 22.8897 55.1302 22.0497C54.9002 21.1897 54.9502 20.1797 54.3602 19.4597C53.7402 18.7797 53.4602 17.9697 53.0402 17.2097C52.7002 16.6497 52.5002 15.9997 52.1902 15.4097C51.8601 14.7997 51.3102 14.3297 51.0102 13.7097C50.8102 13.3397 50.7702 12.7897 50.3602 12.6097C49.4902 12.2097 49.1602 11.2997 48.4002 10.8597C47.8702 10.5597 47.4202 10.1797 46.9802 9.78966C46.5502 9.38966 46.0402 9.07966 45.5402 8.78966C44.9902 8.48966 44.4502 8.17966 43.9102 7.87966C43.6702 7.72966 43.4301 7.59966 43.2602 7.29966C43.0802 6.99966 42.6902 6.72966 42.2302 6.76966C42.0402 6.78966 41.7602 6.73966 41.6802 6.59966C41.3202 6.02966 40.7102 5.89966 40.1702 5.64966C39.8302 5.50966 39.5502 5.06966 39.2902 5.11966C38.8502 5.20966 38.5702 4.98966 38.2202 4.89966C37.9802 4.83966 37.6802 4.82966 37.5502 4.47966C37.5202 4.38966 37.2802 4.29966 37.1902 4.34966C36.6702 4.62966 36.2602 4.31966 35.8102 4.20966L35.0102 4.01966L34.2002 3.89966L32.5802 3.62966C31.6702 3.52966 30.7902 3.93966 29.8902 3.71966C29.3402 4.09966 28.7402 3.98966 28.1502 3.99966C27.7102 4.02966 27.2502 3.88966 26.8002 3.85966C26.3502 3.85966 25.9302 3.98966 25.4302 3.88966C24.8102 3.75966 24.1502 4.03966 23.5202 4.19966C23.1702 4.26966 22.8502 4.57966 22.4402 4.28966C22.3802 4.24966 22.2302 4.29966 22.1802 4.35966C21.8302 4.82966 21.2702 4.94966 20.8202 4.93966C20.1002 4.93966 19.5102 5.23966 18.8902 5.48966C18.3802 5.69966 17.9002 5.98966 17.3902 6.19966C17.0202 6.33966 16.7102 6.58966 16.2802 6.66966C15.9402 6.71966 15.6902 7.12966 15.3802 7.34966C15.0802 7.57966 14.7202 7.72966 14.4202 7.95966L13.4202 8.70966C13.0902 8.95966 12.7502 9.19966 12.4302 9.45966C12.1002 9.75966 11.7802 10.0897 11.4302 10.3597C11.1002 10.6197 10.6602 10.7697 10.3502 11.0697C9.52015 11.9397 9.00015 13.0297 8.21015 13.9197C8.25015 14.3497 7.90015 14.4697 7.65015 14.7097C7.42015 14.9197 7.10015 15.1497 7.20015 15.5897C7.22015 15.7097 7.13015 15.8397 7.08015 15.9597C6.97015 16.2297 6.60015 16.2897 6.60015 16.6897C6.60015 16.9697 6.29015 17.2097 6.16015 17.4897C6.05015 17.7897 5.71015 18.0297 5.92015 18.4397C5.19015 18.7197 5.70015 19.5497 5.24015 19.9497C5.11015 20.0797 5.01015 20.2497 4.90015 20.4097C4.84015 20.4897 4.74015 20.5597 4.74015 20.6497C4.64015 22.1997 3.90015 23.5397 3.69015 25.0497C3.68015 25.2397 3.76015 25.4297 3.78015 25.6197C3.79015 25.7097 3.78015 25.8097 3.75015 25.8897C3.43015 26.6597 3.44015 26.6697 3.52015 27.4497C3.55015 27.6397 3.50015 27.8497 3.52015 28.0497C3.55015 28.5697 3.43015 29.0597 3.63015 29.5997C3.81015 30.1297 3.44015 30.6997 3.30015 31.2597C3.17015 31.7597 3.02015 32.2597 3.06015 32.8097C3.31015 34.1597 3.41015 35.5297 3.81015 36.8497C3.85015 37.0197 3.83015 37.2697 3.95015 37.3297C4.45015 37.5997 4.75015 37.8497 4.24015 38.4097C4.22015 38.4397 4.27015 38.5697 4.31015 38.5897C4.83015 38.7697 4.78015 39.2397 4.90015 39.5997C5.02015 39.9397 5.15015 40.2797 5.32015 40.5897L5.90015 41.4997C6.30015 42.0997 6.63015 42.7097 6.96015 43.3497C7.06015 43.5597 7.31015 43.7697 7.26015 43.9597C7.16015 44.3597 7.63015 44.2297 7.67015 44.4997C7.70015 44.7297 8.00015 44.8997 8.02015 45.0997C8.05015 45.8497 8.59015 46.3597 9.06015 46.7497C9.49015 47.1297 10.0302 47.4197 10.2502 47.8997C10.4902 48.3597 10.7702 48.7797 11.1302 49.1197C11.4902 49.4597 11.8802 49.7697 12.2302 50.1197L12.7802 50.6497C12.9802 50.8097 13.1802 50.9597 13.3902 51.1097L14.6302 52.0097C14.9602 52.2597 15.2702 52.6097 15.7902 52.4997C15.9002 52.4797 16.0302 52.6097 16.1302 52.6997C16.3602 52.9197 16.5502 53.1997 16.8202 53.3697C17.0802 53.5497 17.4402 53.5197 17.7502 53.6097C18.0002 53.6797 18.1902 53.8197 18.5102 53.7497C18.7402 53.6997 18.9802 53.9497 19.1702 54.2597C19.5402 54.8897 20.0002 55.4397 20.7502 55.6497C21.0802 55.7297 21.4002 55.8697 21.7302 55.9797C22.0602 56.0697 22.4002 56.1697 22.7302 56.2397C23.0102 56.2997 23.2702 56.3997 23.6102 56.2897C23.9202 56.1897 24.3402 56.3897 24.6602 56.5497C25.1502 56.8197 25.6402 56.9297 26.1802 56.7797C26.3702 56.7297 26.5802 56.7597 26.7702 56.7897C27.3702 56.8497 27.9702 56.8497 28.5702 56.8897C29.1702 56.9197 29.7702 56.9697 30.3702 56.9097C30.6602 56.8997 30.9602 56.8097 31.2102 57.0797C31.3802 56.7397 31.6902 56.8297 31.9402 56.8397C32.3302 56.8697 32.7202 56.9597 33.1102 56.9197C33.5702 56.8797 34.0202 56.7897 34.4302 56.5197C34.8102 56.2897 35.3702 56.4797 35.7502 56.0797C35.8202 56.0097 36.0402 56.1497 36.1602 56.0997C36.6402 55.8997 37.2802 56.0597 37.6102 55.4997C37.6402 55.4497 37.7402 55.4097 37.8002 55.4297C38.5002 55.6597 38.9602 55.1297 39.4602 54.8097C40.0202 54.4997 40.6802 54.5397 41.2502 54.2697C41.9002 53.9497 42.5102 53.5097 43.1602 53.2897C43.7402 53.1197 44.2702 52.8497 44.7802 52.5397C45.2602 52.1897 45.7102 51.8097 46.2002 51.4697C46.7102 51.1397 47.1602 50.7397 47.6102 50.3197C48.0502 49.8997 48.5201 49.5197 48.9202 49.0597C49.2602 48.6597 49.4902 48.1597 49.8202 47.7497C50.2002 47.3097 50.5702 46.8597 50.9102 46.3897L51.8902 45.0697C52.0302 44.8497 52.0602 44.5397 52.4202 44.4997C52.4902 44.4997 52.5902 44.3697 52.5902 44.2897C52.5702 43.7197 52.8202 43.3597 53.3102 43.0797C53.4502 42.9997 53.4602 42.7797 53.5702 42.6497C53.8702 42.2897 53.8002 41.8197 53.9002 41.4097C53.9802 41.0297 54.4702 40.7597 54.1802 40.2697C54.1402 40.1997 54.2001 40.0297 54.2802 39.9897C55.2102 39.5097 54.4202 38.3097 55.2502 37.7897C54.9302 37.3797 55.4602 37.2097 55.4602 36.9497C55.4602 36.5897 55.4402 36.2397 55.5302 35.8897C55.6402 35.5697 55.6902 35.2297 55.7202 34.8897C55.7602 34.2697 56.0402 33.6697 55.8002 33.0297C55.7302 32.8197 55.6502 32.4297 56.0002 32.1997C56.0602 32.1597 56.0602 32.0197 56.0502 31.9297C55.9602 31.2497 56.3602 30.4397 56.9702 30.2597C57.3302 30.1597 57.7502 30.1697 58.1102 30.2597C58.2902 30.2997 58.3902 30.6197 58.5102 30.8297C58.7201 31.1897 59.0102 31.5397 59.0902 31.9397C59.1602 32.4097 59.0902 32.9197 59.0002 33.5197L58.9802 33.5497Z" fill="#9C7625"/>
<path d="M36 29L30 23L24 29" stroke="white" stroke-width="2" stroke-linecap="round" stroke-linejoin="round"/>
<path d="M30 23L30 37" stroke="white" stroke-width="2" stroke-linecap="round"/>
</g>
<defs>
<clipPath id="clip0_366_1909">
<rect width="60" height="60" fill="white"/>
</clipPath>
</defs>
</svg>
