<svg width="40" height="40" viewBox="0 0 40 40" fill="none" xmlns="http://www.w3.org/2000/svg">
<g clip-path="url(#clip0_366_1902)">
<path d="M19.849 38.1561C30.1215 38.1561 38.449 29.8286 38.449 19.5561C38.449 9.28356 30.1215 0.956055 19.849 0.956055C9.57653 0.956055 1.24902 9.28356 1.24902 19.5561C1.24902 29.8286 9.57653 38.1561 19.849 38.1561Z" fill="#B09151"/>
<path d="M39.4486 21.7859C39.4786 22.4459 39.0286 23.0659 38.9286 23.7759C38.7886 24.4859 38.6386 25.2059 38.3486 25.8759C38.2186 26.2159 38.1586 26.5659 38.1386 26.9459C38.1386 27.3259 37.7086 27.5659 37.8686 28.0059C37.8786 28.0459 37.8286 28.0959 37.8086 28.1459C37.4486 28.9659 37.0686 29.8159 36.4786 30.4559C36.1386 30.8359 35.7986 31.2059 35.5086 31.6059C35.2186 32.0159 34.9086 32.3959 34.5386 32.7259C33.7586 34.2259 32.2586 35.0659 30.9786 36.0659C30.5586 36.3459 30.1486 36.6859 29.5886 36.7559C29.1286 36.8359 28.7786 37.3459 28.2086 37.2459C28.1586 37.2459 28.1086 37.3459 28.0586 37.3859C27.9286 37.4959 27.8086 37.6459 27.6586 37.6859C26.7186 37.8559 26.7286 37.8259 26.0586 38.2659C25.9786 38.3159 25.8286 38.2159 25.7286 38.2459C25.3086 38.3459 24.8886 38.4259 24.4886 38.5559C24.1186 38.6859 23.6986 38.5959 23.3886 38.9459C23.3186 39.0259 23.1486 38.9959 23.0186 39.0159C22.6186 39.0759 22.2186 39.1259 21.8186 39.1959C21.3586 39.2459 20.8886 39.1259 20.4386 39.4259C20.2386 39.5559 19.9486 39.2559 19.8386 39.3259C19.6186 39.4459 19.4186 39.4659 19.1986 39.4259C18.9886 39.3959 18.7886 39.2559 18.5786 39.2359C18.3986 39.2259 18.2086 39.3559 18.0186 39.3559C17.5586 39.3559 17.0986 39.1159 16.6586 39.2059C16.1886 39.2959 15.7586 39.2059 15.3286 39.0959C14.8786 38.9959 14.4386 38.8459 13.9786 38.7659C13.6286 38.6859 13.3686 38.4359 13.0786 38.2559C12.7886 38.0759 12.3586 38.1559 12.1986 37.7459C12.1986 37.7259 12.1586 37.7259 12.1286 37.7159L10.3586 36.6559L8.85858 35.7159L7.43858 34.6559C7.18858 34.4359 6.85858 34.2759 6.80858 33.8659C6.79858 33.7859 6.63858 33.7459 6.59858 33.6559C6.46858 33.3259 5.90858 33.5359 5.86858 33.1259C5.82858 32.7759 5.54858 32.6459 5.37858 32.4159C5.18858 32.1559 4.91858 31.9559 4.74858 31.6759C4.62858 31.4859 4.46858 31.3559 4.23858 31.2959C4.33858 30.9159 3.95858 30.7559 3.90858 30.4459C3.86858 30.2459 3.80858 29.9359 3.64858 29.8759C3.29858 29.7359 3.22858 29.4159 3.04858 29.1659C2.75858 28.8059 2.66858 28.3359 2.26858 28.0359C2.09858 27.9059 2.03858 27.6459 1.96858 27.4359C1.89858 27.2359 1.92858 27.0059 1.87858 26.8059C1.76858 26.4359 1.62858 26.0959 1.34858 25.7859C1.08858 25.5159 1.24858 25.0459 0.858583 24.8159C0.808583 24.7859 0.798583 24.6759 0.798583 24.6059C0.838583 24.2159 0.828583 23.8859 0.548583 23.5359C0.348583 23.2459 0.398583 22.7959 0.348583 22.4259C0.298583 22.0259 0.138583 21.6259 0.218583 21.2259C0.258583 20.9759 -0.171417 20.8759 0.078583 20.5559C0.218583 20.3859 0.128583 20.0759 0.118583 19.8259C0.108583 19.5759 0.058583 19.3059 0.138583 19.0659C0.508583 17.8259 0.388583 16.5459 0.758583 15.3259C0.938583 14.8259 0.828583 14.2059 1.31858 13.8359C1.15858 13.3959 1.55858 13.0459 1.49858 12.6359C1.45858 12.3759 1.54858 12.1959 1.61858 11.9959C1.88858 11.3559 2.20858 10.7359 2.50858 10.1059C2.87858 9.51591 3.21858 8.90591 3.59858 8.32591C4.12858 7.57591 4.57858 6.76591 5.20858 6.08591C5.37858 5.88591 5.51858 5.67591 5.83858 5.58591C6.07858 5.52591 6.35858 5.29591 6.40858 4.94591C6.40858 4.87591 6.47858 4.77591 6.52858 4.77591C7.17858 4.72591 7.28858 4.06591 7.70858 3.74591C8.10858 3.43591 8.52858 3.15591 8.97858 2.94591C9.43858 2.73591 9.88858 2.52591 10.2986 2.25591C10.4686 2.13591 10.7586 2.14591 10.7786 1.82591C11.0286 1.95591 11.0886 1.80591 11.2286 1.62591C11.3686 1.43591 11.6786 1.27591 11.8986 1.31591C12.1886 1.36591 12.3886 1.23591 12.6186 1.17591C12.8586 1.10591 13.0886 0.995911 13.3386 0.925911C13.8386 0.745911 14.3686 0.635911 14.8886 0.535911C15.4086 0.435911 15.9286 0.315911 16.4586 0.285911C16.6686 0.265911 16.8786 0.335911 17.0886 0.355911C17.2986 0.375911 17.4986 0.205911 17.7186 0.415911C17.7986 0.485911 17.9986 0.405911 18.1486 0.395911C18.6686 0.365911 19.2286 0.485911 19.6886 0.275911C20.1486 0.0759107 20.6386 0.355911 21.0886 0.0359107C21.2186 -0.0540893 21.4286 0.0559107 21.6086 0.0359107C22.3286 0.00591067 22.9886 0.435911 23.7386 0.165911C23.9486 0.435911 24.2386 0.475911 24.5186 0.525911C24.7286 0.565911 24.9286 0.755911 25.1686 0.545911C25.1986 0.525911 25.2686 0.545911 25.3086 0.565911C25.5386 0.685911 25.7086 0.905911 25.9886 0.965911C26.2186 1.00591 26.4586 0.925911 26.7086 1.01591C27.6186 1.31591 28.2986 2.03591 29.1986 2.32591C29.3186 2.64591 29.5886 2.75591 29.8286 2.91591C30.2486 3.19591 30.8186 3.19591 31.1986 3.58591C31.5586 3.93591 31.9486 4.29591 32.3986 4.48591C33.1486 4.86591 33.6986 5.47591 34.2586 6.06591C34.4086 6.21591 34.6386 6.32591 34.5786 6.63591C34.5686 6.70591 34.7386 6.85591 34.8386 6.85591C35.0486 6.85591 35.0786 7.02591 35.1986 7.09591C35.5486 7.29591 35.2486 7.96591 35.8486 7.97591C36.0986 8.29591 36.3286 8.62591 36.5286 8.97591C36.7386 9.32591 36.9586 9.66591 37.1586 10.0159C37.2586 10.1759 37.3686 10.3259 37.3086 10.5759C37.2686 10.7459 37.3786 11.0259 37.5286 11.1059C37.8786 11.2759 37.9286 11.6059 38.0686 11.8859C38.3986 12.7559 38.7786 13.6259 38.9486 14.5559C39.0286 14.9559 39.0586 15.3659 39.0686 15.7859C39.0686 16.2059 39.3086 16.5959 39.1486 17.0259C39.1386 17.0559 39.1486 17.0959 39.1686 17.1259C39.2286 17.2859 39.3386 17.4359 39.3386 17.5959C39.3386 17.8059 39.1386 18.0959 39.2286 18.2059C39.4186 18.4259 39.2286 18.5959 39.2286 18.7659C39.1986 19.2759 38.7386 19.5859 38.1586 19.5259C38.0286 19.5159 37.8886 19.4559 37.7886 19.3959C37.1486 18.9859 37.1786 18.9859 37.1086 18.3359C37.0786 17.9259 37.1086 17.5059 37.1086 17.0959C37.1086 16.6759 37.1186 16.2559 36.9586 15.8559C37.1286 15.2559 36.7986 14.7259 36.6986 14.1659C36.5586 13.5959 36.6186 12.9159 36.2086 12.4459C35.7786 12.0059 35.5986 11.4659 35.3186 10.9659C35.0986 10.5959 34.9786 10.1559 34.7786 9.76591C34.5686 9.35591 34.1886 9.05591 33.9986 8.64591C33.8686 8.39591 33.8686 8.01591 33.5786 7.90591C32.9786 7.66591 32.7786 7.04591 32.2686 6.75591C31.5586 6.37591 31.0786 5.73591 30.3686 5.40591C29.9986 5.21591 29.6386 5.02591 29.2786 4.81591C29.1186 4.71591 28.9686 4.63591 28.8586 4.41591C28.7486 4.20591 28.4886 4.02591 28.1786 4.06591C28.0486 4.08591 27.8686 4.06591 27.8086 3.96591C27.5886 3.56591 27.1786 3.48591 26.8186 3.32591C26.5886 3.23591 26.4186 2.91591 26.2386 2.95591C25.9386 3.03591 25.7586 2.88591 25.5286 2.82591C25.3686 2.78591 25.1686 2.78591 25.0886 2.53591C25.0686 2.46591 24.9186 2.41591 24.8486 2.44591C24.4986 2.66591 24.2286 2.44591 23.9286 2.37591C23.2286 2.18591 22.4986 2.15591 21.7886 1.99591C21.1886 1.92591 20.5986 2.23591 20.0086 2.07591C19.6486 2.36591 19.2486 2.27591 18.8686 2.28591C18.5786 2.30591 18.2786 2.19591 17.9786 2.17591C17.6786 2.16591 17.3986 2.26591 17.0686 2.17591C16.6586 2.07591 16.2186 2.27591 15.8086 2.37591C15.5786 2.41591 15.3686 2.64591 15.0886 2.42591C15.0486 2.39591 14.9486 2.42591 14.9186 2.47591C14.6986 2.82591 14.3186 2.88591 14.0286 2.87591C13.5486 2.86591 13.1586 3.06591 12.7486 3.22591C12.4086 3.36591 12.0986 3.55591 11.7586 3.69591C11.5086 3.78591 11.3086 3.95591 11.0186 3.99591C10.7886 4.02591 10.6286 4.30591 10.4286 4.45591C10.2286 4.60591 9.98858 4.70591 9.79858 4.86591L9.13858 5.35591C8.91858 5.52591 8.69858 5.67591 8.47858 5.85591C8.25858 6.05591 8.05858 6.27591 7.81858 6.45591C7.59858 6.62591 7.29858 6.71591 7.08858 6.90591C6.53858 7.48591 6.21858 8.22591 5.68858 8.80591C5.72858 9.10591 5.48858 9.17591 5.31858 9.32591C5.15858 9.46591 4.94858 9.61591 5.02858 9.91591C5.04858 9.99591 4.98858 10.0859 4.94858 10.1659C4.87858 10.3459 4.61858 10.3759 4.62858 10.6459C4.63858 10.8359 4.41858 10.9859 4.33858 11.1759C4.26858 11.3759 4.02858 11.5259 4.18858 11.8059C3.65858 11.9659 4.06858 12.5459 3.74858 12.8059C3.65858 12.8959 3.58858 13.0059 3.50858 13.1059C3.46858 13.1559 3.39858 13.2059 3.39858 13.2559C3.36858 14.2959 2.84858 15.1659 2.72858 16.1659C2.72858 16.2859 2.78858 16.4159 2.80858 16.5459C2.80858 16.6059 2.80858 16.6759 2.78858 16.7259C2.55858 17.2359 2.56858 17.2359 2.63858 17.7559C2.65858 17.8859 2.63858 18.0159 2.63858 18.1459C2.66858 18.4859 2.57858 18.8159 2.72858 19.1659C2.86858 19.5159 2.58858 19.8859 2.47858 20.2659C2.37858 20.5959 2.25858 20.9259 2.28858 21.2859C2.45858 22.1759 2.51858 23.0859 2.78858 23.9559C2.81858 24.0659 2.78858 24.2359 2.87858 24.2759C3.23858 24.4459 3.45858 24.6059 3.06858 24.9859C3.04858 25.0059 3.07858 25.0959 3.11858 25.1059C3.49858 25.2159 3.44858 25.5259 3.52858 25.7659C3.65858 26.2259 3.92858 26.6259 4.19858 27.0159C4.46858 27.4059 4.68858 27.8059 4.89858 28.2359C4.95858 28.3759 5.13858 28.5059 5.08858 28.6359C4.99858 28.9159 5.34858 28.8059 5.36858 28.9859C5.38858 29.1359 5.59858 29.2459 5.59858 29.3859C5.58858 29.9059 5.94858 30.2359 6.26858 30.4859C6.55858 30.7259 6.92858 30.9059 7.05858 31.2359C7.31858 31.8859 7.87858 32.2559 8.34858 32.7059C8.80858 33.2059 9.39858 33.5459 9.92858 33.9559C10.1486 34.1259 10.3486 34.3659 10.7086 34.2659C10.7786 34.2459 10.8686 34.3359 10.9386 34.3959C11.0886 34.5459 11.2086 34.7459 11.3786 34.8559C11.5486 34.9759 11.7986 34.9459 11.9986 34.9959C12.1686 35.0359 12.2886 35.1359 12.5086 35.0759C12.6686 35.0259 12.8186 35.2059 12.9386 35.4259C13.1686 35.8759 13.4586 36.2659 13.9586 36.4059C14.3986 36.5359 14.8186 36.7059 15.2686 36.7959C15.4586 36.8359 15.6286 36.9059 15.8586 36.8159C16.0686 36.7359 16.3486 36.8759 16.5486 36.9859C16.8686 37.1859 17.1886 37.2559 17.5486 37.1359C17.6686 37.0959 17.8086 37.1159 17.9386 37.1359C18.7286 37.1659 19.5186 37.2659 20.3086 37.2159C20.4986 37.2159 20.6986 37.1459 20.8686 37.3459C20.9786 37.0959 21.1786 37.1659 21.3486 37.1759C21.6086 37.2059 21.8686 37.2659 22.1186 37.2459C22.4186 37.2259 22.7186 37.1559 22.9886 36.9659C23.2386 36.7959 23.6086 36.9459 23.8586 36.6659C23.8986 36.6159 24.0486 36.7259 24.1286 36.6959C24.4486 36.5559 24.8786 36.6959 25.0786 36.2759C25.0986 36.2359 25.1586 36.2159 25.1986 36.2359C25.6786 36.4259 25.9686 36.0459 26.2886 35.8259C26.6486 35.6059 27.0986 35.6659 27.4786 35.4859C27.9086 35.2759 28.2986 34.9759 28.7486 34.8359C29.1386 34.7359 29.4986 34.5559 29.8286 34.3559C30.1486 34.1259 30.4386 33.8759 30.7686 33.6459C31.1086 33.4259 31.4086 33.1659 31.6986 32.8959C31.9886 32.6159 32.2986 32.3659 32.5586 32.0659C32.7886 31.7959 32.9286 31.4659 33.1386 31.1859C33.3886 30.8959 33.6286 30.5959 33.8586 30.2859L34.5086 29.4159C34.5986 29.2759 34.6186 29.0559 34.8686 29.0459C34.9186 29.0459 34.9886 28.9659 34.9786 28.9059C34.9386 28.5159 35.1086 28.2759 35.4586 28.1059C35.5586 28.0559 35.5586 27.9059 35.6386 27.8259C35.8486 27.5959 35.7786 27.2659 35.8386 26.9959C35.8886 26.7459 36.2386 26.5759 36.0086 26.2359C35.9786 26.1859 36.0186 26.0759 36.0686 26.0559C36.7386 25.7659 36.1186 24.9359 36.7186 24.6059C36.4686 24.3259 36.8586 24.2259 36.8586 24.0559C36.8586 23.8159 36.8286 23.5859 36.8886 23.3559C36.9586 23.1459 36.9986 22.9159 37.0086 22.6959C37.0286 22.2859 37.2286 21.8959 37.0486 21.4659C36.9886 21.3259 36.9386 21.0659 37.1886 20.9159C37.2286 20.8859 37.2286 20.7959 37.2186 20.7459C37.1486 20.2959 37.4486 19.7659 37.8986 19.6459C38.1686 19.5759 38.4886 19.5859 38.7586 19.6459C38.8886 19.6759 38.9686 19.8859 39.0586 20.0259C39.2186 20.2659 39.4386 20.5059 39.4986 20.7759C39.5586 21.0959 39.4986 21.4359 39.4386 21.8359L39.4486 21.7859Z" fill="#9C7625"/>
<path d="M26 19L20 13L14 19" stroke="white" stroke-width="2" stroke-linecap="round" stroke-linejoin="round"/>
<path d="M20 13L20 27" stroke="white" stroke-width="2" stroke-linecap="round"/>
</g>
<defs>
<clipPath id="clip0_366_1902">
<rect width="40" height="40" fill="white"/>
</clipPath>
</defs>
</svg>
